<?xml version="1.0" standalone="no"?>
<!DOCTYPE svg PUBLIC "-//W3C//DTD SVG 1.1//EN" "http://www.w3.org/Graphics/SVG/1.1/DTD/svg11.dtd" >
<svg xmlns="http://www.w3.org/2000/svg" xmlns:xlink="http://www.w3.org/1999/xlink" version="1.1">
<metadata>
Created by FontForge 20170731 at Tue Sep 29 16:54:36 2020
 By Aleksey,,,
Copyright (c) 2011-2019 Rod McDonald. Published by Canada Type. All rights reserved.
</metadata>
<defs>
<font id="Gibson-MediumItalic" horiz-adv-x="1308" >
  <font-face 
    font-family="Gibson Medium"
    font-weight="500"
    font-style="italic"
    font-stretch="normal"
    units-per-em="2048"
    panose-1="0 0 0 0 0 0 0 0 0 0"
    ascent="1638"
    descent="-410"
    x-height="989"
    cap-height="1413"
    bbox="-195 -444 2068 1935"
    underline-thickness="102"
    underline-position="-358"
    slope="-9"
    unicode-range="U+0020-2122"
  />
<missing-glyph horiz-adv-x="389" 
 />
    <glyph glyph-name=".notdef" horiz-adv-x="389" 
 />
    <glyph glyph-name=".null" horiz-adv-x="0" 
 />
    <glyph glyph-name="nonmarkingreturn" horiz-adv-x="682" 
 />
    <glyph glyph-name="space" unicode=" " horiz-adv-x="385" 
 />
    <glyph glyph-name="space" unicode="&#xa0;" horiz-adv-x="385" 
 />
    <glyph glyph-name="exclam" unicode="!" horiz-adv-x="612" 
d="M213 406l135 1007h270l-182 -1007h-223zM442 152q0 -77 -54.5 -126t-131.5 -49q-64 0 -101.5 34t-37.5 93q0 81 52.5 130t135.5 49q61 0 99 -35t38 -96z" />
    <glyph glyph-name="quotedbl" unicode="&#x22;" horiz-adv-x="1028" 
d="M334 938l49 475h242l-105 -475h-186zM709 938l49 475h241l-106 -475h-184z" />
    <glyph glyph-name="numbersign" unicode="#" horiz-adv-x="1220" 
d="M575 25l134 424h-248l-135 -424h-156l135 424h-205l25 151h229l95 299h-213l24 152h238l135 426h153l-133 -426h250l135 426h154l-135 -426h211l-25 -152h-235l-93 -299h215l-24 -151h-242l-133 -424h-156zM852 899h-248l-94 -299h250z" />
    <glyph glyph-name="dollar" unicode="$" horiz-adv-x="1193" 
d="M477 -137q3 21 23 129q-117 3 -218 62t-159 161l147 164q33 -77 111.5 -129.5t153.5 -54.5q13 71 35.5 210.5t35.5 210.5l-63 33q-61 30 -101.5 57.5t-77 66.5t-54 90.5t-17.5 117.5q0 174 126 294.5t306 141.5q22 112 25 125h127q-21 -113 -23 -127q93 -8 183 -54
t134 -114l-131 -155q-36 55 -95 88t-122 41q-10 -65 -32.5 -196.5t-32.5 -197.5l116 -59q101 -51 151 -124t50 -179q0 -88 -28.5 -164.5t-74.5 -128.5t-105.5 -91.5t-119.5 -60t-120 -26.5q-3 -21 -11.5 -65.5t-11.5 -65.5h-127zM653 870q9 59 29 176.5t29 176.5
q-85 -9 -134 -57t-49 -136q0 -93 105 -149zM715 575q-12 -64 -33 -191t-33 -191q69 5 130 64t61 149q0 53 -23 86.5t-69 62.5z" />
    <glyph glyph-name="percent" unicode="%" horiz-adv-x="1617" 
d="M289 25q183 247 537.5 722.5t521.5 700.5l104 -74l-1059 -1421zM473 717q-127 0 -205 82.5t-78 214.5q0 177 116 294t280 117q128 0 206 -82t78 -215q0 -178 -115 -294.5t-282 -116.5zM500 879q88 0 142 66.5t54 166.5q0 71 -35 113.5t-100 42.5q-86 0 -139 -67t-53 -167
q0 -70 34 -112.5t97 -42.5zM1153 -25q-129 0 -207 80.5t-78 214.5q0 177 115.5 293.5t280.5 116.5q131 0 208.5 -81t77.5 -214q0 -179 -114.5 -294.5t-282.5 -115.5zM1178 135q88 0 142 66t54 166q0 71 -35.5 114t-99.5 43q-86 0 -139 -67t-53 -166q0 -71 34 -113.5
t97 -42.5z" />
    <glyph glyph-name="ampersand" unicode="&#x26;" horiz-adv-x="1433" 
d="M1061 0l-121 176q-121 -104 -227.5 -152.5t-241.5 -48.5q-181 0 -286 88t-105 252q0 93 32 170t92.5 135.5t127.5 100t157 82.5q-35 53 -50.5 77.5t-34.5 79t-19 107.5q0 111 64.5 197.5t165 130t214.5 43.5q152 0 243 -76t91 -197q0 -67 -21.5 -122t-69 -104
t-100.5 -87.5t-138 -89.5l170 -266q36 36 105.5 125t107.5 147l169 -100q-53 -74 -133 -173.5t-135 -152.5l244 -328l-2 -14h-299zM719 899q91 53 123 80q81 70 82 154q0 54 -31.5 84t-91.5 30q-74 0 -122 -41t-48 -116q0 -58 49 -134zM604 662l-51 -27q-42 -22 -73 -43.5
t-64.5 -55t-51.5 -79t-18 -99.5q0 -83 50.5 -130.5t133.5 -47.5q81 0 159.5 44t135.5 106z" />
    <glyph glyph-name="quotesingle" unicode="'" horiz-adv-x="653" 
d="M336 938l47 475h242l-105 -475h-184z" />
    <glyph glyph-name="parenleft" unicode="(" horiz-adv-x="614" 
d="M303 -330q-168 348 -168 746q0 154 29.5 302.5t73 263t111 233.5t125 200t134.5 176l148 -86q-48 -59 -97.5 -136.5t-105 -187.5t-97.5 -225.5t-70 -255.5t-28 -272q0 -194 37 -384t84 -288z" />
    <glyph glyph-name="parenright" unicode=")" horiz-adv-x="616" 
d="M-31 -244q61 77 124 183.5t127 248t104.5 314t40.5 336.5q0 194 -36.5 383t-82.5 284l176 86q168 -352 168 -747q0 -154 -30 -302.5t-73.5 -262.5t-111.5 -234t-124.5 -199.5t-133.5 -175.5z" />
    <glyph glyph-name="asterisk" unicode="*" horiz-adv-x="1036" 
d="M739 705l-114 276l-205 -276l-107 88l234 262l-275 84l74 147l252 -115l25 289h157l-65 -289l284 115l27 -147l-299 -84l150 -262z" />
    <glyph glyph-name="plus" unicode="+" horiz-adv-x="1349" 
d="M840 608v-448h-197v448h-450v195h450v450h197v-450h450v-195h-450z" />
    <glyph glyph-name="comma" unicode="," horiz-adv-x="612" 
d="M2 -287l238 545h252l-283 -545h-207z" />
    <glyph glyph-name="hyphen" unicode="-" horiz-adv-x="630" 
d="M84 451l33 208h512l-33 -208h-512z" />
    <glyph glyph-name="hyphen" unicode="&#xad;" horiz-adv-x="630" 
d="M84 451l33 208h512l-33 -208h-512z" />
    <glyph glyph-name="period" unicode="." horiz-adv-x="612" 
d="M449 152q0 -77 -55 -126t-132 -49q-64 0 -101.5 34t-37.5 93q0 81 52.5 130t135.5 49q61 0 99.5 -35.5t38.5 -95.5z" />
    <glyph glyph-name="slash" unicode="/" horiz-adv-x="1040" 
d="M-27 -123l1082 1745l145 -72l-1083 -1747z" />
    <glyph glyph-name="zero" unicode="0" horiz-adv-x="1214" 
d="M559 -25q-92 0 -167 31.5t-126.5 85.5t-86 128.5t-50.5 158.5t-16 178q0 126 27.5 250.5t84.5 237.5t136 200t190.5 138t239.5 51q114 0 201 -47.5t138.5 -130t77 -184.5t25.5 -220q0 -126 -27 -250t-83.5 -237.5t-135 -200t-189.5 -138t-239 -51.5zM596 213q91 0 164 55
t117.5 146.5t68 204t23.5 235.5q0 161 -53.5 255.5t-161.5 94.5q-120 0 -207 -93.5t-127.5 -235.5t-40.5 -310q0 -161 54.5 -256.5t162.5 -95.5z" />
    <glyph glyph-name="one" unicode="1" horiz-adv-x="919" 
d="M346 0l193 1212h-252l32 201h506l-225 -1413h-254z" />
    <glyph glyph-name="two" unicode="2" horiz-adv-x="1216" 
d="M1182 1077q0 -66 -15 -128t-45 -117.5t-62.5 -102t-80.5 -95t-86 -82.5t-90 -77l-309 -256h614l-35 -219h-952l-6 170l534 453q60 51 100.5 91t81.5 91.5t61.5 106.5t20.5 112q0 89 -50.5 139.5t-147.5 50.5q-49 0 -96.5 -13.5t-80.5 -29.5t-73 -47t-58.5 -48t-52.5 -50
l-92 162q21 26 45.5 51.5t73.5 63t101.5 64.5t129.5 47t158 20q192 0 302 -97t110 -260z" />
    <glyph glyph-name="three" unicode="3" horiz-adv-x="1216" 
d="M907 733q83 -22 145 -91t62 -183q0 -144 -81 -255.5t-210.5 -169t-281.5 -57.5q-72 0 -139.5 20t-113.5 48.5t-85.5 63.5t-59.5 60t-30 44l163 168q123 -182 310 -182q132 0 199 63.5t67 183.5q0 90 -67.5 138.5t-166.5 48.5h-88l33 194h111q104 0 170.5 61.5t66.5 166.5
q0 73 -48.5 116t-139.5 43q-87 0 -163.5 -36.5t-131.5 -100.5l-111 150q43 46 105.5 90t161 80.5t196.5 36.5q175 0 284.5 -86.5t109.5 -235.5q0 -71 -26.5 -137t-68 -112t-85.5 -77.5t-85 -46.5z" />
    <glyph glyph-name="four" unicode="4" horiz-adv-x="1216" 
d="M932 0h-252l47 303h-664l31 199l791 917h270l-141 -901h186l-35 -215h-186zM766 514l94 584l-498 -584h404z" />
    <glyph glyph-name="five" unicode="5" horiz-adv-x="1214" 
d="M637 1194l-113 -315q113 47 236 47q169 0 274 -103t105 -284q0 -131 -52 -239t-139 -177.5t-196.5 -107.5t-227.5 -38q-72 0 -139.5 20t-114 48.5t-85.5 63t-59 60.5t-28 44l164 168q48 -78 125.5 -130t183.5 -52q39 0 79 10.5t80 34.5t71 59.5t50 89.5t19 119
q0 112 -65.5 168.5t-171.5 56.5q-135 0 -254 -73l-107 71l236 678h719q-6 -37 -18.5 -109.5t-18.5 -109.5h-553z" />
    <glyph glyph-name="six" unicode="6" horiz-adv-x="1216" 
d="M1098 1118q-107 107 -267 107q-76 0 -141 -30.5t-109.5 -79t-79.5 -115t-55 -132t-32 -137.5q78 86 170.5 132t218.5 46q80 0 148 -27.5t117.5 -80t70 -138t2.5 -192.5q-35 -212 -189 -354t-372 -142q-266 0 -381 240q-82 167 -33 465q19 117 54 222.5t93.5 204.5
t134 170t181 114t229.5 43q217 0 367 -125zM895 451q18 111 -37 187.5t-170 76.5q-111 0 -192 -77t-99 -187q-18 -112 41 -190.5t178 -78.5q114 0 187.5 77t91.5 192z" />
    <glyph glyph-name="seven" unicode="7" horiz-adv-x="1216" 
d="M481 0h-266l780 1192h-719l35 221h938l47 -156z" />
    <glyph glyph-name="eight" unicode="8" horiz-adv-x="1216" 
d="M926 739q98 -31 153.5 -109t55.5 -184q0 -110 -47 -200.5t-127 -148t-182.5 -89t-215.5 -31.5q-195 0 -319.5 95t-124.5 266q0 147 87.5 253.5t229.5 147.5l2 6q-70 30 -121 101t-51 170q0 98 44.5 178.5t119 132t168.5 79.5t195 28q174 0 290.5 -86t116.5 -238
q0 -72 -25.5 -135t-67 -107.5t-87 -75t-92.5 -47.5zM934 1061q0 77 -47.5 122.5t-126.5 45.5q-100 0 -170 -64.5t-70 -165.5q0 -76 49 -119.5t129 -43.5q102 0 169 61.5t67 163.5zM872 453q0 91 -56 143.5t-148 52.5q-119 0 -199 -73.5t-80 -194.5q0 -91 58 -143t149 -52
q113 0 194.5 72.5t81.5 194.5z" />
    <glyph glyph-name="nine" unicode="9" horiz-adv-x="1214" 
d="M246 291q107 -107 266 -107q76 0 141 30.5t110 79t80 115t55 132.5t32 137q-78 -86 -170.5 -132t-218.5 -46q-80 0 -148 27.5t-117.5 80t-70 138t-2.5 192.5q35 212 189 354t372 142q266 0 381 -240q82 -167 33 -465q-19 -119 -53.5 -225t-92.5 -204.5t-133.5 -169
t-181.5 -113t-232 -42.5q-216 0 -366 125zM449 958q-18 -111 36.5 -187.5t169.5 -76.5q111 0 192 77t99 187q18 112 -41 190.5t-178 78.5q-114 0 -187 -77t-91 -192z" />
    <glyph glyph-name="colon" unicode=":" horiz-adv-x="612" 
d="M563 879q0 -78 -53.5 -126t-130.5 -48q-65 0 -103 34t-38 92q0 81 52.5 129t135.5 48q62 0 99.5 -34.5t37.5 -94.5zM449 152q0 -77 -55 -126t-132 -49q-64 0 -101.5 34t-37.5 93q0 81 52.5 130t135.5 49q61 0 99.5 -35.5t38.5 -95.5z" />
    <glyph glyph-name="semicolon" unicode=";" horiz-adv-x="612" 
d="M565 879q0 -78 -53.5 -126t-132.5 -48q-65 0 -103 34t-38 92q0 81 52.5 129t135.5 48q62 0 100.5 -35t38.5 -94zM2 -287l238 545h252l-283 -545h-207z" />
    <glyph glyph-name="less" unicode="&#x3c;" horiz-adv-x="1384" 
d="M111 596v219l1097 440v-213l-843 -335l843 -336v-215z" />
    <glyph glyph-name="equal" unicode="=" horiz-adv-x="1357" 
d="M193 424v194h1097v-194h-1097zM193 811v195h1097v-195h-1097z" />
    <glyph glyph-name="greater" unicode="&#x3e;" horiz-adv-x="1396" 
d="M106 156v215l842 336l-842 335v213l1098 -440v-219z" />
    <glyph glyph-name="question" unicode="?" horiz-adv-x="1030" 
d="M373 406l18 139q12 98 55 157.5t119 116.5l129 99q48 37 74.5 74t26.5 87q0 64 -47.5 102t-131.5 38q-133 0 -280 -132l-78 152q36 37 70.5 65t89 60.5t125.5 51t151 18.5q161 0 254.5 -83.5t93.5 -215.5q0 -68 -15.5 -123.5t-48.5 -101.5t-63 -76.5t-81 -73.5
q-29 -25 -100.5 -77.5t-90.5 -78.5q-21 -30 -29 -76l-24 -122h-217zM598 154q0 -79 -52 -128t-132 -49q-63 0 -100.5 34.5t-37.5 92.5q0 80 53 129.5t134 49.5q63 0 99 -34t36 -95z" />
    <glyph glyph-name="at" unicode="@" horiz-adv-x="1554" 
d="M1255 -154q-1 -1 -32.5 -20t-52 -29.5t-63.5 -31.5t-85.5 -34t-97.5 -27t-120 -21t-134 -7q-171 0 -304 69.5t-210.5 209t-77.5 330.5q0 185 72 353.5t191.5 288.5t280 190.5t332.5 70.5q141 0 255.5 -42.5t189.5 -117t115 -172.5t40 -211q0 -142 -47.5 -265t-125.5 -205
t-177 -128.5t-203 -46.5q-74 0 -110.5 33.5t-38.5 91.5q-139 -125 -260 -125q-35 0 -68.5 12.5t-65 39.5t-50.5 79t-19 121q0 100 41.5 206.5t109 192.5t163 141.5t194.5 55.5q135 0 186 -92l25 57h164l-228 -524q-29 -72 -30 -90q-3 -68 57 -68q48 0 105 38t108 101t85 159
t34 200q0 190 -123.5 308t-341.5 118q-152 0 -285 -59.5t-225.5 -161t-145.5 -241t-53 -296.5q0 -234 128.5 -360.5t353.5 -126.5q231 0 497 124q10 5 15 7zM1028 629q-56 71 -141 71q-83 0 -158 -65t-117.5 -158.5t-42.5 -183.5q0 -67 31.5 -99t85.5 -32q67 0 127.5 51.5
t104.5 157.5z" />
    <glyph glyph-name="A" unicode="A" 
d="M975 0l-64 326h-520l-166 -326h-270l747 1415h256l302 -1415h-285zM778 1110l-289 -571h394z" />
    <glyph glyph-name="B" unicode="B" horiz-adv-x="1189" 
d="M90 0l223 1413h439q424 0 424 -297q0 -75 -26.5 -140.5t-69 -109.5t-85 -72.5t-86.5 -45.5v-5q112 -28 176 -103t64 -187q0 -119 -44.5 -208.5t-123 -141.5t-177 -77.5t-216.5 -25.5h-498zM641 823q127 0 192.5 53.5t65.5 174.5q0 75 -50.5 114t-137.5 39h-168l-60 -381
h158zM604 209q44 0 80.5 5t75 20.5t64.5 41.5t42.5 70.5t16.5 104.5q0 89 -60.5 133.5t-163.5 44.5h-206l-68 -420h219z" />
    <glyph glyph-name="B" unicode="&#xe000;" horiz-adv-x="1189" 
d="M90 0l223 1413h439q424 0 424 -297q0 -75 -26.5 -140.5t-69 -109.5t-85 -72.5t-86.5 -45.5v-5q112 -28 176 -103t64 -187q0 -119 -44.5 -208.5t-123 -141.5t-177 -77.5t-216.5 -25.5h-498zM641 823q127 0 192.5 53.5t65.5 174.5q0 75 -50.5 114t-137.5 39h-168l-60 -381
h158zM604 209q44 0 80.5 5t75 20.5t64.5 41.5t42.5 70.5t16.5 104.5q0 89 -60.5 133.5t-163.5 44.5h-206l-68 -420h219z" />
    <glyph glyph-name="C" unicode="C" horiz-adv-x="1277" 
d="M1235 176q-210 -201 -518 -201q-265 0 -429.5 166.5t-164.5 446.5q0 186 67.5 346.5t181 268.5t263 169.5t313.5 61.5q93 0 172.5 -18.5t132 -48t85 -55.5t51.5 -52l-125 -218q-29 52 -128.5 107t-228.5 55q-98 0 -188.5 -38.5t-163 -110t-115.5 -185.5t-43 -254
q0 -189 99.5 -300t271.5 -111q228 0 408 172z" />
    <glyph glyph-name="D" unicode="D" horiz-adv-x="1372" 
d="M90 0l223 1413h435q291 0 457.5 -153t166.5 -439q0 -178 -66.5 -332t-180.5 -261t-270 -167.5t-331 -60.5h-434zM569 225q155 0 277.5 77.5t188 207t65.5 285.5q0 190 -93.5 292.5t-283.5 102.5h-182l-154 -965h182z" />
    <glyph glyph-name="E" unicode="E" horiz-adv-x="1069" 
d="M90 0l223 1413h834l-35 -221h-571l-56 -350h539l-35 -219h-538l-64 -402h588l-35 -221h-850z" />
    <glyph glyph-name="E" unicode="&#xe001;" horiz-adv-x="1069" 
d="M90 0l223 1413h834l-35 -221h-571l-56 -350h539l-35 -219h-538l-64 -402h588l-35 -221h-850z" />
    <glyph glyph-name="F" unicode="F" horiz-adv-x="1001" 
d="M90 0l223 1413h799l-35 -223h-536l-64 -397h506l-35 -220h-506l-90 -573h-262z" />
    <glyph glyph-name="G" unicode="G" horiz-adv-x="1476" 
d="M1141 571h-318l33 207h571l-90 -567q-2 -1 -22 -17.5t-31 -25.5t-38.5 -28.5t-49 -32t-56.5 -31.5t-66.5 -31.5t-74.5 -27t-85 -23t-92.5 -14t-102.5 -5.5q-128 0 -236.5 40t-189 115.5t-125.5 191.5t-45 260q0 154 45 290t123.5 237.5t182 175.5t224 111.5t246.5 37.5
q333 0 503 -237l7 -9l-199 -158q-115 178 -346 178q-103 0 -196 -42t-163.5 -117.5t-111.5 -188.5t-41 -246q0 -191 99.5 -300t261.5 -109q68 0 128.5 11t98 26.5t65 31t38.5 26.5l12 11z" />
    <glyph glyph-name="H" unicode="H" horiz-adv-x="1421" 
d="M967 0l98 625h-614l-99 -625h-262l223 1413h262l-88 -565h615l88 565h258l-223 -1413h-258z" />
    <glyph glyph-name="I" unicode="I" horiz-adv-x="548" 
d="M90 0l223 1413h262l-223 -1413h-262z" />
    <glyph glyph-name="J" unicode="J" horiz-adv-x="528" 
d="M-156 -178q42 -17 103 -17q64 0 96 53t47 152l221 1403h258l-221 -1397q-11 -67 -28 -124.5t-47 -113t-69.5 -94.5t-97.5 -63t-129 -24q-58 0 -110 10t-62 18z" />
    <glyph glyph-name="K" unicode="K" horiz-adv-x="1189" 
d="M90 0l223 1413h260l-86 -547l557 547h312l-588 -567l399 -846h-313l-281 657l-141 -137l-82 -520h-260z" />
    <glyph glyph-name="L" unicode="L" horiz-adv-x="890" 
d="M90 0l223 1413h260l-188 -1192h467l-35 -221h-727z" />
    <glyph glyph-name="M" unicode="M" horiz-adv-x="1736" 
d="M272 0h-249l352 1413h360l154 -1005h2l483 1005h332l-100 -1413h-258l86 1067h-4l-517 -1073h-202l-172 1073h-7z" />
    <glyph glyph-name="N" unicode="N" horiz-adv-x="1464" 
d="M1010 0l-502 1042q-24 -180 -51 -348l-111 -694h-256l223 1413h279l491 -1030q20 166 47 334l111 696h256l-223 -1413h-264z" />
    <glyph glyph-name="O" unicode="O" horiz-adv-x="1548" 
d="M1552 821q0 -152 -44 -286.5t-122.5 -235.5t-182.5 -175t-227 -111.5t-253 -37.5q-173 0 -308.5 73t-213.5 213t-78 327q0 189 68.5 350t183 268.5t265 167.5t314.5 60q264 0 431 -166t167 -447zM760 209q105 0 200 42.5t165.5 118t112.5 186t42 239.5q0 187 -99.5 297
t-262.5 110q-104 0 -199 -42t-166.5 -116t-113.5 -184t-42 -239q0 -188 100.5 -300t262.5 -112z" />
    <glyph glyph-name="P" unicode="P" horiz-adv-x="1099" 
d="M90 0l223 1413h439q91 0 166 -20.5t133 -62t90.5 -112t32.5 -163.5q0 -150 -79.5 -265.5t-205 -174t-273.5 -58.5h-174l-88 -557h-264zM616 766q118 0 200.5 69t82.5 185q0 95 -60 139.5t-159 44.5h-137l-70 -438h143z" />
    <glyph glyph-name="Q" unicode="Q" horiz-adv-x="1546" 
d="M1208 -133l-133 199q-174 -91 -352 -91q-173 0 -308.5 73t-213.5 213t-78 327q0 189 68.5 350t183.5 268t265 167.5t314 60.5q264 0 431 -166t167 -447q0 -361 -286 -624l129 -185zM815 430l191 148l129 -191q145 180 145 408q0 187 -99.5 297t-262.5 110
q-104 0 -199 -42t-166.5 -116t-113.5 -184t-42 -239q0 -188 100.5 -300t262.5 -112q95 0 182 41z" />
    <glyph glyph-name="R" unicode="R" horiz-adv-x="1124" 
d="M782 0l-223 573h-117l-90 -573h-262l223 1413h439q196 0 312 -92t116 -258q0 -81 -17.5 -147.5t-48 -114.5t-76.5 -86.5t-98 -63.5t-117 -45l264 -606h-305zM606 782q142 0 221.5 60.5t79.5 187.5q0 174 -235 174h-131l-66 -422h131z" />
    <glyph glyph-name="S" unicode="S" horiz-adv-x="1054" 
d="M604 584q-27 12 -92.5 42t-103.5 46q-195 83 -195 297q0 128 72.5 235t190.5 166.5t251 59.5q270 0 408 -170l-152 -191q-131 141 -274 141q-99 0 -164.5 -48t-65.5 -132q0 -32 10.5 -57t32.5 -43.5t38 -28t46 -24.5l205 -97q213 -89 213 -303q0 -221 -154 -361.5
t-403 -140.5q-147 0 -256 64t-174 156l153 192q67 -91 151 -138.5t175 -47.5q108 0 174 57.5t66 159.5q0 60 -35.5 95t-116.5 71z" />
    <glyph glyph-name="S" unicode="&#xe002;" horiz-adv-x="1054" 
d="M604 584q-27 12 -92.5 42t-103.5 46q-195 83 -195 297q0 128 72.5 235t190.5 166.5t251 59.5q270 0 408 -170l-152 -191q-131 141 -274 141q-99 0 -164.5 -48t-65.5 -132q0 -32 10.5 -57t32.5 -43.5t38 -28t46 -24.5l205 -97q213 -89 213 -303q0 -221 -154 -361.5
t-403 -140.5q-147 0 -256 64t-174 156l153 192q67 -91 151 -138.5t175 -47.5q108 0 174 57.5t66 159.5q0 60 -35.5 95t-116.5 71z" />
    <glyph glyph-name="T" unicode="T" horiz-adv-x="1021" 
d="M334 0l190 1198h-368l34 215h994l-35 -215h-367l-190 -1198h-258z" />
    <glyph glyph-name="U" unicode="U" horiz-adv-x="1347" 
d="M1126 1413h263l-132 -829q-25 -152 -67.5 -255.5t-122.5 -183.5q-165 -170 -446 -170q-279 0 -394 170q-56 81 -66.5 191.5t15.5 247.5l131 829h264l-131 -821q-15 -76 -15 -152t28 -125q59 -106 204 -106q146 0 238 106q43 49 64.5 115t35.5 162z" />
    <glyph glyph-name="V" unicode="V" horiz-adv-x="1228" 
d="M449 -2l-273 1415h277l176 -1051l510 1051h264l-721 -1415h-233z" />
    <glyph glyph-name="W" unicode="W" horiz-adv-x="1904" 
d="M616 -2h-272l-164 1415h271l102 -1048l442 1048h273l121 -1053l415 1053h264l-598 -1415h-272l-129 1051z" />
    <glyph glyph-name="X" unicode="X" horiz-adv-x="1212" 
d="M864 0l-211 563l-397 -563h-309l563 731l-311 682h307l199 -510l358 510h307l-524 -684l330 -729h-312z" />
    <glyph glyph-name="Y" unicode="Y" horiz-adv-x="1177" 
d="M408 0l92 582l-334 831h289l213 -606l401 606h291l-598 -831l-92 -582h-262z" />
    <glyph glyph-name="Z" unicode="Z" horiz-adv-x="1128" 
d="M1030 0h-1014l31 195l838 1003h-660l33 215h977l-29 -180l-831 -1014h690z" />
    <glyph glyph-name="bracketleft" unicode="[" horiz-adv-x="614" 
d="M18 -299l295 1858h414l-22 -138h-203l-250 -1583h203l-23 -137h-414z" />
    <glyph glyph-name="backslash" unicode="\" horiz-adv-x="1038" 
d="M776 -106l-530 1662l157 72l533 -1663z" />
    <glyph glyph-name="bracketright" unicode="]" horiz-adv-x="608" 
d="M10 -299l23 137h205l249 1583h-204l22 138h414l-295 -1858h-414z" />
    <glyph glyph-name="asciicircum" unicode="^" horiz-adv-x="1417" 
d="M946 614l-272 615l-273 -615h-215l377 830h219l377 -830h-213z" />
    <glyph glyph-name="underscore" unicode="_" horiz-adv-x="1024" 
d="M0 -100v198h1024v-198h-1024z" />
    <glyph glyph-name="grave" unicode="`" horiz-adv-x="751" 
d="M518 1116l-158 297h230l117 -297h-189z" />
    <glyph glyph-name="a" unicode="a" horiz-adv-x="1181" 
d="M74 408q0 161 70.5 298.5t199 220.5t285.5 83q200 0 272 -156h2l17 119h256l-121 -760q-23 -139 -13 -213h-241q-12 69 0 156h-4q-69 -91 -159.5 -135t-188.5 -44q-175 0 -275 121t-100 310zM856 549q0 110 -57.5 185t-155.5 75q-87 0 -158 -52.5t-109 -136t-38 -176.5
q0 -111 57.5 -182.5t157.5 -71.5q127 0 215 102t88 257z" />
    <glyph glyph-name="b" unicode="b" horiz-adv-x="1206" 
d="M354 143q-17 -76 -43 -143h-241q34 87 47 178l153 979q22 151 60 256h258q-34 -73 -53 -213l-35 -229q-5 -39 -11 -68.5t-9 -38.5l-3 -10h4q144 160 338 160q175 0 275 -120.5t100 -309.5q0 -161 -70.5 -298.5t-199 -220.5t-285.5 -83q-205 0 -283 161h-2zM412 442
q0 -110 57.5 -185t155.5 -75q87 0 158 52.5t109 136t38 176.5q0 111 -57.5 182.5t-157.5 71.5q-127 0 -215 -102t-88 -257z" />
    <glyph glyph-name="b" unicode="&#xe003;" horiz-adv-x="1206" 
d="M354 143q-17 -76 -43 -143h-241q34 87 47 178l153 979q22 151 60 256h258q-34 -73 -53 -213l-35 -229q-5 -39 -11 -68.5t-9 -38.5l-3 -10h4q144 160 338 160q175 0 275 -120.5t100 -309.5q0 -161 -70.5 -298.5t-199 -220.5t-285.5 -83q-205 0 -283 161h-2zM412 442
q0 -110 57.5 -185t155.5 -75q87 0 158 52.5t109 136t38 176.5q0 111 -57.5 182.5t-157.5 71.5q-127 0 -215 -102t-88 -257z" />
    <glyph glyph-name="c" unicode="c" horiz-adv-x="940" 
d="M889 111q-149 -134 -389 -134q-87 0 -164 30t-135 84t-91.5 137t-33.5 182q0 134 53 249.5t138 190.5t190 117.5t211 42.5q222 0 330 -120q5 -6 6 -7l-101 -197q-91 105 -239 105q-128 0 -221 -94.5t-93 -245.5q0 -115 65 -183.5t171 -68.5q44 0 87.5 10.5t74 26t54.5 31
t36 25.5l12 11z" />
    <glyph glyph-name="d" unicode="d" horiz-adv-x="1193" 
d="M74 408q0 161 70.5 298.5t199 220.5t285.5 83q200 0 272 -156h2l60 381q16 109 8 178h254q1 -17 1.5 -33t0.5 -28t-1 -28.5t-1.5 -24.5t-3.5 -27.5t-3.5 -26t-4.5 -31.5t-5 -32l-153 -969q-23 -139 -13 -213h-241q-12 69 0 156h-4q-69 -91 -159.5 -135t-188.5 -44
q-175 0 -275 121t-100 310zM856 549q0 110 -57.5 185t-155.5 75q-87 0 -158 -52.5t-109 -136t-38 -176.5q0 -111 57.5 -182.5t157.5 -71.5q127 0 215 102t88 257z" />
    <glyph glyph-name="e" unicode="e" horiz-adv-x="1079" 
d="M598 395q-134 0 -260 15q1 -110 63.5 -168t157.5 -58q84 0 177.5 32t142.5 67l77 -142q-44 -35 -103 -68.5t-161 -64.5t-205 -31q-189 0 -301 113.5t-112 304.5q0 170 85.5 312t229.5 222.5t313 80.5q165 0 258 -76.5t93 -188.5q0 -149 -126.5 -249.5t-328.5 -100.5z
M684 823q-116 0 -206.5 -70.5t-117.5 -170.5q68 -7 111 -7q350 0 350 144q0 47 -37.5 75.5t-99.5 28.5z" />
    <glyph glyph-name="f" unicode="f" horiz-adv-x="649" 
d="M692 1245q-72 0 -107.5 -45t-49.5 -125l-15 -86h217l-32 -203h-211l-148 -940q-14 -94 -25 -143.5t-34 -112.5h-258q34 73 53 213l154 983h-127l32 203h127l13 76q28 169 121.5 271t254.5 102q52 0 98.5 -5t67.5 -11l21 -5l-47 -188q-52 16 -105 16z" />
    <glyph glyph-name="g" unicode="g" horiz-adv-x="1196" 
d="M74 408q0 161 70.5 298.5t199 220.5t285.5 83q200 0 272 -156h6q17 81 37 137h258q-8 -17 -14.5 -36.5t-11 -33.5t-9 -37.5t-6.5 -33t-6.5 -38t-5.5 -34.5l-92 -573q-25 -158 -72.5 -259t-122.5 -169q-87 -80 -194.5 -127t-261.5 -47q-78 0 -151 17t-127.5 44.5t-85 47
t-54.5 38.5l133 182q49 -40 142.5 -78t174.5 -38q161 0 243.5 80t109.5 243l10 58q-69 -84 -157.5 -125t-182.5 -41q-170 0 -278.5 99.5t-108.5 277.5zM856 545q0 110 -57.5 185t-155.5 75q-132 0 -216.5 -99.5t-84.5 -242.5q0 -106 59.5 -164.5t163.5 -58.5
q128 0 209.5 83.5t81.5 221.5z" />
    <glyph glyph-name="h" unicode="h" horiz-adv-x="1105" 
d="M776 1010q80 0 136.5 -21.5t88 -58t46.5 -91.5t14.5 -115t-12.5 -136l-58 -373q0 -3 -3.5 -26.5t-4 -28t-3 -25t-3 -28.5t-1.5 -25.5t-0.5 -28.5t1 -25.5t2.5 -27.5h-260q-5 24 -1.5 78t7 78t14.5 102l43 272q10 75 9 134t-34 95t-100 36q-106 0 -161.5 -65t-75.5 -185
l-88 -545h-258l196 1235q10 69 11.5 87.5t-2.5 90.5h256q6 -86 -5 -149l-67 -422h6q51 80 129.5 124t177.5 44z" />
    <glyph glyph-name="i" unicode="i" horiz-adv-x="503" 
d="M569 1315q0 -72 -51 -119t-127 -47q-60 0 -96.5 34.5t-36.5 90.5q0 70 52 118t126 48q61 0 97 -35t36 -90zM100 0q-4 61 0.5 109t20.5 149l90 555q17 97 8 178h256q3 -76 0 -115t-16 -116l-90 -545q-23 -140 -13 -215h-256z" />
    <glyph glyph-name="j" unicode="j" horiz-adv-x="499" 
d="M565 1315q0 -72 -51 -119t-127 -47q-60 0 -96.5 34.5t-36.5 90.5q0 70 53.5 118t126.5 48q60 0 95.5 -35t35.5 -90zM254 991h258q-8 -17 -14.5 -36.5t-11 -33.5t-9 -37.5t-6.5 -33t-6.5 -38t-5.5 -34.5l-123 -768q-13 -86 -40 -156t-72 -128t-114.5 -90.5t-158.5 -32.5
q-41 0 -73.5 4.5t-45.5 8.5l-12 5l37 205q26 -14 73 -14q37 0 63.5 15t43 45.5t26.5 65t17 85.5l115 712q17 102 27 149t32 107z" />
    <glyph glyph-name="k" unicode="k" horiz-adv-x="1013" 
d="M535 1415q1 -17 1.5 -33t0.5 -28t-1 -28.5t-1.5 -24.5t-3.5 -27.5t-3.5 -26t-4.5 -31.5t-5 -32l-90 -563l399 370h281l-406 -375l295 -616h-297l-196 453l-121 -113l-53 -340h-254l194 1237q10 69 11.5 87.5t-2.5 90.5h256z" />
    <glyph glyph-name="l" unicode="l" horiz-adv-x="497" 
d="M96 0q-4 61 0.5 109t20.5 149l153 979q10 69 11.5 87.5t-2.5 90.5h256q1 -17 1.5 -33t0.5 -28t-1 -28.5t-1.5 -24.5t-3.5 -27.5t-3.5 -26t-4.5 -31.5t-5 -32l-153 -969q-23 -140 -13 -215h-256z" />
    <glyph glyph-name="m" unicode="m" horiz-adv-x="1650" 
d="M1348 1010q89 0 147.5 -32.5t82.5 -88.5t29.5 -131t-10.5 -160l-59 -383q-1 -6 -6 -41t-6.5 -47t-3.5 -39t-1.5 -47t3.5 -41h-258q-5 24 -1.5 78t7 78t14.5 102l47 297q36 240 -108 240q-89 0 -148 -76t-80 -207l-82 -512h-256l89 557q35 238 -115 238q-89 0 -145 -78.5
t-76 -204.5l-82 -512h-258l129 813q16 109 8 178h256q5 -78 -4 -149h6q42 70 129 119t178 49q103 0 160 -45.5t76 -143.5q62 91 149 140t189 49z" />
    <glyph glyph-name="n" unicode="n" horiz-adv-x="1101" 
d="M774 1010q80 0 136.5 -21.5t88 -58t46.5 -91.5t14.5 -115t-12.5 -136l-60 -373q-23 -137 -12 -215h-258q-5 24 -1.5 78t7 78t14.5 102l43 272q10 75 9 134t-34 95t-100 36q-106 0 -161.5 -65t-75.5 -185l-88 -545h-258l129 813q16 109 8 178h256q5 -78 -4 -149h6
q51 80 129.5 124t177.5 44z" />
    <glyph glyph-name="o" unicode="o" horiz-adv-x="1140" 
d="M1122 571q0 -130 -49 -242.5t-131.5 -188.5t-192.5 -119.5t-231 -43.5q-196 0 -318 119.5t-122 317.5q0 129 49 241.5t131.5 189.5t192.5 121t231 44q196 0 318 -121t122 -318zM553 195q131 0 216 105t85 253q0 109 -54 177.5t-151 68.5q-135 0 -218 -105t-83 -256
q0 -108 53 -175.5t152 -67.5z" />
    <glyph glyph-name="p" unicode="p" horiz-adv-x="1198" 
d="M1186 584q0 -161 -70.5 -298.5t-199 -220.5t-285.5 -83q-188 0 -271 145h-4l-51 -324q-1 -5 -4 -26t-3.5 -28t-3 -25.5t-3 -27.5t-1.5 -25.5t-1 -27.5t1 -25.5t3 -27.5h-256q-6 81 17 236q2 13 3 20l150 967q16 109 8 178h256q5 -65 -2 -137h4q144 160 338 160
q175 0 275 -120.5t100 -309.5zM403 442q0 -110 57.5 -185t155.5 -75q87 0 158 52.5t109.5 136t38.5 176.5q0 111 -57.5 182.5t-157.5 71.5q-128 0 -216 -102t-88 -257z" />
    <glyph glyph-name="q" unicode="q" horiz-adv-x="1185" 
d="M74 408q0 161 70.5 298.5t199 220.5t285.5 83q200 0 272 -156h4q13 63 39 137h258q-8 -17 -14.5 -36.5t-11 -33.5t-9 -37.5t-6.5 -33t-6.5 -38t-5.5 -34.5l-152 -956q-12 -79 -22.5 -123.5t-34.5 -108.5h-252q34 86 47 179l60 378h-4q-135 -170 -342 -170
q-175 0 -275 121t-100 310zM856 549q0 110 -57.5 185t-155.5 75q-87 0 -158 -52.5t-109 -136t-38 -176.5q0 -111 57.5 -182.5t157.5 -71.5q127 0 215 102t88 257z" />
    <glyph glyph-name="r" unicode="r" horiz-adv-x="714" 
d="M721 1010q28 0 52 -5t34 -9l10 -5l-55 -227h-12q-41 12 -101 12q-50 0 -89.5 -17t-64.5 -43.5t-43.5 -66.5t-28 -77t-17.5 -85l-78 -487h-256l129 813q16 109 8 178h256q4 -54 -10 -160h4q41 80 113.5 129.5t148.5 49.5z" />
    <glyph glyph-name="s" unicode="s" horiz-adv-x="839" 
d="M416 391q-154 51 -218.5 106.5t-64.5 161.5q0 104 56 185.5t145 123.5t192 42q116 0 189.5 -28t136.5 -79l-139 -174q-92 84 -205 84q-64 0 -98.5 -25.5t-34.5 -66.5q0 -33 32.5 -60t116.5 -53l27 -10q134 -45 190 -102t56 -144q0 -164 -120 -269.5t-312 -105.5
q-109 0 -212.5 43t-148.5 111l131 178q150 -135 266 -135q148 0 148 111q0 33 -28.5 57t-104.5 49z" />
    <glyph glyph-name="s" unicode="&#xe004;" horiz-adv-x="839" 
d="M416 391q-154 51 -218.5 106.5t-64.5 161.5q0 104 56 185.5t145 123.5t192 42q116 0 189.5 -28t136.5 -79l-139 -174q-92 84 -205 84q-64 0 -98.5 -25.5t-34.5 -66.5q0 -33 32.5 -60t116.5 -53l27 -10q134 -45 190 -102t56 -144q0 -164 -120 -269.5t-312 -105.5
q-109 0 -212.5 43t-148.5 111l131 178q150 -135 266 -135q148 0 148 111q0 33 -28.5 57t-104.5 49z" />
    <glyph glyph-name="t" unicode="t" horiz-adv-x="677" 
d="M514 197q22 0 45 4t35 8l12 4l-18 -203q-99 -33 -199 -33q-150 0 -200 79.5t-19 271.5l72 458h-142l33 203h141l17 105q8 59 9.5 87.5t-3.5 90.5h256q5 -28 1.5 -80t-6 -70.5t-11.5 -81.5l-9 -51h217l-32 -203h-217l-64 -401q-18 -113 -1.5 -150.5t83.5 -37.5z" />
    <glyph glyph-name="u" unicode="u" horiz-adv-x="1105" 
d="M401 -18q-99 0 -162.5 32.5t-89.5 89t-31.5 133.5t11.5 166l59 373q23 140 13 215h258q1 -13 1.5 -25.5t0.5 -22t-0.5 -23t-1 -21.5t-2 -23.5t-2.5 -22.5t-3.5 -26.5t-3.5 -27t-5 -32t-5 -34.5l-43 -272q-10 -75 -9 -133.5t34 -94.5t100 -36q106 0 162 65t76 184l88 545
h258l-129 -813q-16 -109 -8 -178h-256q-5 78 4 150h-6q-51 -80 -130 -124t-178 -44z" />
    <glyph glyph-name="v" unicode="v" horiz-adv-x="1028" 
d="M338 0l-229 991h268l139 -715l365 715h256l-545 -991h-254z" />
    <glyph glyph-name="w" unicode="w" horiz-adv-x="1574" 
d="M530 0h-260l-143 991h260l82 -706l328 706h219l114 -694l289 694h254l-469 -991h-243l-123 670z" />
    <glyph glyph-name="x" unicode="x" horiz-adv-x="1030" 
d="M1120 991l-403 -475l284 -516h-296l-170 358l-283 -358h-303l448 520l-250 471h295l138 -319l239 319h301z" />
    <glyph glyph-name="y" unicode="y" horiz-adv-x="1017" 
d="M342 -6l-233 997h270l131 -702l354 702h269l-617 -1124q-74 -135 -148.5 -196.5t-174.5 -61.5q-61 0 -116.5 10.5t-80.5 20.5l-25 10l86 200q64 -24 111 -24q85 0 119 65z" />
    <glyph glyph-name="y" unicode="&#xe006;" horiz-adv-x="1017" 
d="M342 -6l-233 997h270l131 -702l354 702h269l-617 -1124q-74 -135 -148.5 -196.5t-174.5 -61.5q-61 0 -116.5 10.5t-80.5 20.5l-25 10l86 200q64 -24 111 -24q85 0 119 65z" />
    <glyph glyph-name="z" unicode="z" horiz-adv-x="927" 
d="M846 0h-852l24 154l596 630h-471l31 205h803l-23 -151l-589 -629h514z" />
    <glyph glyph-name="braceleft" unicode="{" horiz-adv-x="608" 
d="M307 -299q-145 0 -190 71.5t-19 233.5l58 367q26 168 -97 168l29 178q124 0 150 168l57 366q26 162 94 234t213 72h133l-22 -138h-56q-73 0 -104 -28t-43 -105l-61 -391q-14 -88 -42.5 -143.5t-62.5 -79.5t-86 -39l-2 -10q35 -11 57 -26.5t39 -46t17.5 -75.5t-7.5 -115
l-61 -391q-12 -76 10.5 -104.5t96.5 -28.5h55l-23 -137h-133z" />
    <glyph glyph-name="bar" unicode="|" horiz-adv-x="616" 
d="M180 -272v1910h182v-1910h-182z" />
    <glyph glyph-name="braceright" unicode="}" horiz-adv-x="610" 
d="M-14 -299l22 137h55q73 0 104.5 28t43.5 105l61 391q20 129 66 185t127 78l2 10q-75 22 -103 77.5t-8 184.5l64 391q12 76 -10.5 104.5t-96.5 28.5h-55l23 138h135q145 0 190 -72t19 -234l-58 -366q-26 -168 95 -168l-29 -178q-122 0 -148 -168l-57 -367
q-26 -162 -94 -233.5t-213 -71.5h-135z" />
    <glyph glyph-name="asciitilde" unicode="~" horiz-adv-x="1409" 
d="M1210 662q-60 -93 -142.5 -151t-182.5 -58q-27 0 -54.5 4t-45.5 8t-45.5 15t-36 15t-36.5 18l-30 15l-22 11t-24.5 12t-22.5 10.5t-25.5 11t-23.5 8t-26.5 7.5t-24.5 4t-26 2q-55 0 -107.5 -38.5t-90.5 -98.5l-125 137q60 92 143 150.5t182 58.5q19 0 36.5 -1.5t35.5 -5
t31 -6t30.5 -9t26 -9.5t26.5 -11.5t22 -10t22.5 -11.5t19.5 -10q120 -65 195 -65q55 0 106.5 37.5t91.5 97.5z" />
    <glyph glyph-name="exclamdown" unicode="&#xa1;" horiz-adv-x="618" 
d="M563 883q0 -77 -54.5 -125.5t-131.5 -48.5q-64 0 -101.5 34t-37.5 93q0 81 52.5 128.5t135.5 47.5q62 0 99.5 -34.5t37.5 -94.5zM63 -422l183 1008h223l-135 -1008h-271z" />
    <glyph glyph-name="cent" unicode="&#xa2;" horiz-adv-x="1198" 
d="M575 -61l27 172q-172 19 -283.5 137t-111.5 301q0 122 44.5 227.5t120.5 180t176.5 122t213.5 60.5l29 172h139l-29 -172q80 -8 145.5 -42t92.5 -69l-90 -190q-65 74 -181 86l-92 -586q64 3 124 25t89 51l31 -187q-33 -35 -111.5 -73t-167.5 -43l-26 -172h-140zM729 924
q-116 -23 -189 -116.5t-73 -219.5q0 -93 45 -163.5t123 -90.5z" />
    <glyph glyph-name="sterling" unicode="&#xa3;" horiz-adv-x="1198" 
d="M76 0l33 201h213q2 3 20 30.5t25.5 40.5t23.5 45.5t24 59.5t14.5 67.5t6.5 83.5q0 44 -2 56h-207l25 159h166l-10 107q-7 115 -7 121q0 205 128.5 334t342.5 129q105 0 191 -46.5t125 -142.5l-141 -135q-68 131 -197 131q-74 0 -124 -37.5t-71.5 -94.5t-21.5 -128
q0 -49 8 -127l14 -111h314l-25 -159h-274q0 -126 -23 -203t-92 -180h528l-32 -201h-975z" />
    <glyph glyph-name="currency" unicode="&#xa4;" horiz-adv-x="1198" 
d="M516 487q-6 -137 53.5 -214.5t171.5 -77.5q49 0 94 12t86 36t61 38.5t52 40.5q2 2 3.5 3t3.5 2.5t3 2.5q31 -91 58 -183q-44 -44 -70 -63q-143 -107 -342 -107q-202 0 -318 131.5t-122 378.5h-129l26 162q19 0 55 1t54 1q4 35 8 66l10 61h-108l27 162h131
q73 222 234.5 358t367.5 136q195 0 325 -117q-49 -105 -102 -207q-29 45 -89.5 81t-154.5 36q-109 0 -191.5 -71.5t-125.5 -215.5h420l-27 -162h-446l-11 -61l-8 -68h447l-27 -162h-420z" />
    <glyph glyph-name="yen" unicode="&#xa5;" horiz-adv-x="1200" 
d="M733 365l-57 -365h-250l57 365h-348l25 159h348l10 62q-7 44 -14 73h-322l25 162h229q-44 116 -129 329.5t-104 262.5h286l191 -598l381 598h285q-79 -113 -225 -316.5t-197 -275.5h229l-25 -162h-319l-41 -73l-10 -62h348l-25 -159h-348z" />
    <glyph glyph-name="brokenbar" unicode="&#xa6;" horiz-adv-x="573" 
d="M180 993v645h182v-645h-182zM180 0v643h182v-643h-182z" />
    <glyph glyph-name="section" unicode="&#xa7;" horiz-adv-x="1265" 
d="M281 -27q23 -84 95 -135t161 -51q99 0 155 48t56 130q0 45 -28 81t-73 62.5t-99.5 52t-109 56t-99.5 67t-73 92.5t-28 126q0 65 21.5 122t50.5 92t66.5 63.5t60 40.5t40.5 18q-4 3 -10 9t-21.5 26.5t-27.5 44t-21.5 61t-9.5 76.5q0 88 37 161t98.5 120t141.5 72.5
t167 25.5q279 0 369 -213l-147 -127q-36 81 -99.5 123.5t-140.5 42.5q-88 0 -136 -49t-48 -136q0 -39 27 -71t70 -56t94.5 -48t103.5 -53.5t95 -65.5t70 -91.5t27 -124.5q0 -68 -24 -127.5t-58 -95.5t-67.5 -62t-57.5 -36l-24 -11q38 -25 71 -87.5t33 -145.5
q0 -74 -26.5 -138.5t-72.5 -111t-107.5 -79.5t-132 -49.5t-144.5 -16.5q-313 0 -395 241zM573 408q32 -14 91 -44.5t96 -46.5q135 42 135 222q-4 23 -20 44.5t-35 38t-53 36.5t-59 32t-69 33.5t-67 32.5q-55 -22 -93 -69.5t-38 -108.5q0 -55 31 -100.5t81 -69.5z" />
    <glyph glyph-name="dieresis" unicode="&#xa8;" horiz-adv-x="743" 
d="M346 1141q-43 0 -71.5 28.5t-28.5 75.5q0 61 41.5 101t97.5 40q45 0 73.5 -28.5t28.5 -75.5q0 -61 -42 -101t-99 -40zM817 1282q0 -61 -42 -101t-99 -40q-44 0 -72.5 28.5t-28.5 75.5q0 61 42 101t98 40q45 0 73.5 -28.5t28.5 -75.5z" />
    <glyph glyph-name="copyright" unicode="&#xa9;" horiz-adv-x="1681" 
d="M1217 397q-43 -47 -123.5 -87t-192.5 -40q-188 0 -312 122t-124 315q0 192 124 314t312 122q112 0 190 -34.5t117 -78.5l-86 -170q-29 36 -89.5 68.5t-129.5 32.5q-101 0 -169 -66t-68 -184q0 -119 68 -183.5t175 -64.5q64 0 121.5 24t97.5 64zM145 707q0 151 56.5 286
t153.5 231.5t232.5 153t286.5 56.5q201 0 368.5 -95.5t264.5 -262.5t97 -369t-97 -369.5t-264.5 -264t-368.5 -96.5q-202 0 -369.5 96.5t-263.5 264t-96 369.5zM874 1300q-165 0 -299.5 -77t-211 -213t-76.5 -303q0 -128 45 -239t123 -189t186.5 -123t232.5 -45
q165 0 300.5 76t213.5 213t78 307q0 167 -78.5 303.5t-214 213t-299.5 76.5z" />
    <glyph glyph-name="ordfeminine" unicode="&#xaa;" horiz-adv-x="714" 
d="M469 393l8 70q-85 -80 -190 -80q-74 0 -128.5 41t-54.5 121q0 46 16 82.5t41 59.5t60.5 38.5t71 22.5t74.5 8l153 6l2 10q10 56 -20 83.5t-90 27.5q-96 0 -189 -54l-30 115q46 25 116.5 44.5t141.5 19.5q146 0 208 -72q54 -62 31 -207l-53 -336h-168zM506 666l-111 -4
q-46 -2 -76 -25.5t-30 -71.5q0 -67 82 -67q27 0 55 13t43 25.5t18 18.5z" />
    <glyph glyph-name="guillemotleft" unicode="&#xab;" horiz-adv-x="1026" 
d="M383 72l-233 424l368 424l113 -95l-281 -329l176 -332zM745 72l-233 424l369 424l112 -95l-280 -329l176 -332z" />
    <glyph glyph-name="logicalnot" unicode="&#xac;" horiz-adv-x="1404" 
d="M1102 338v453h-901v196h1097v-649h-196z" />
    <glyph glyph-name="registered" unicode="&#xae;" horiz-adv-x="1681" 
d="M1604 707q0 -202 -97 -369.5t-264.5 -264t-368.5 -96.5q-202 0 -369.5 96.5t-263.5 264t-96 369.5q0 151 56.5 286t153.5 231.5t232.5 153t286.5 56.5q201 0 368.5 -95.5t264.5 -262.5t97 -369zM287 707q0 -128 45 -239t123 -189t186.5 -123t232.5 -45q165 0 300.5 76
t213.5 213t78 307q0 167 -78.5 303.5t-214 213t-299.5 76.5q-165 0 -299.5 -77t-211 -213t-76.5 -303zM1217 856q0 -84 -42 -149t-116 -101l196 -336h-239l-156 301h-88v-301h-192v848l352 -2q125 0 205 -71t80 -189zM1014 852q0 54 -39.5 81.5t-106.5 27.5h-96v-234h90
q73 0 112.5 26.5t39.5 98.5z" />
    <glyph glyph-name="macron" unicode="&#xaf;" horiz-adv-x="743" 
d="M238 1200l20 135h567l-20 -135h-567z" />
    <glyph glyph-name="degree" unicode="&#xb0;" horiz-adv-x="657" 
d="M469 866q-135 0 -230.5 92t-95.5 228q0 135 95.5 227t230.5 92q134 0 229 -92t95 -227q0 -136 -95 -228t-229 -92zM469 1376q-82 0 -136 -56t-54 -134q0 -79 54 -135t136 -56q81 0 137 56t56 135q0 77 -56 133.5t-137 56.5z" />
    <glyph glyph-name="plusminus" unicode="&#xb1;" horiz-adv-x="1357" 
d="M862 793v-377h-200v377h-449v194h449v375h200v-375h449v-194h-449zM213 141v195h1098v-195h-1098z" />
    <glyph glyph-name="twosuperior" unicode="&#xb2;" horiz-adv-x="780" 
d="M145 578l2 127l345 278q91 73 122 118.5t31 98.5q0 45 -31 72.5t-88 27.5q-128 0 -221 -143l-80 103q30 75 121 134.5t219 59.5q121 0 193.5 -60t72.5 -157q0 -24 -4.5 -48t-10 -43t-19.5 -41.5t-21.5 -36.5t-28 -36.5t-28.5 -31.5t-33.5 -31t-31.5 -27.5t-33.5 -28
t-30.5 -24.5l-197 -160h379l-24 -151h-603z" />
    <glyph glyph-name="threesuperior" unicode="&#xb3;" horiz-adv-x="782" 
d="M686 1051q54 -19 85.5 -66.5t31.5 -110.5q0 -88 -53.5 -158t-134.5 -105.5t-171 -35.5q-231 0 -286 183l118 94q20 -60 69 -92.5t110 -32.5q66 0 116 38.5t50 102.5q0 50 -35 79.5t-90 29.5h-62l23 139h67q59 0 97 35.5t38 93.5q0 39 -27 62.5t-77 23.5q-116 0 -205 -108
l-67 102q111 152 307 152q107 0 179.5 -56.5t72.5 -148.5q0 -149 -154 -219z" />
    <glyph glyph-name="acute" unicode="&#xb4;" horiz-adv-x="737" 
d="M299 1116l209 297h231l-254 -297h-186z" />
    <glyph glyph-name="mu" unicode="&#xb5;" horiz-adv-x="1093" 
d="M694 0l17 121q-115 -129 -250 -129q-56 0 -92.5 17t-46.5 40l-58 -426h-258l215 1368h260l-88 -553q-10 -72 -4 -125.5t43 -84.5t105 -31q92 0 145.5 65.5t71.5 181.5l86 547h264l-156 -991h-254z" />
    <glyph glyph-name="paragraph" unicode="&#xb6;" horiz-adv-x="1259" 
d="M754 -377l256 1612h-179l-256 -1612h-178l146 909q-161 5 -258 99t-97 264q0 245 142 381.5t391 136.5h590l-29 -178h-92l-256 -1612h-180z" />
    <glyph glyph-name="periodcentered" unicode="&#xb7;" horiz-adv-x="747" 
d="M586 616q0 -75 -53.5 -124.5t-131.5 -49.5q-63 0 -99 35t-36 94q0 76 52.5 124t132.5 48q61 0 98 -35t37 -92z" />
    <glyph glyph-name="cedilla" unicode="&#xb8;" horiz-adv-x="761" 
d="M113 -301l239 301h168l-201 -301h-206z" />
    <glyph glyph-name="onesuperior" unicode="&#xb9;" horiz-adv-x="788" 
d="M410 578l118 737h-159l20 137h346l-139 -874h-186z" />
    <glyph glyph-name="ordmasculine" unicode="&#xba;" horiz-adv-x="798" 
d="M788 741q0 -155 -108 -256.5t-262 -101.5q-123 0 -199 73t-76 193q0 156 109 257.5t264 101.5q122 0 197 -73.5t75 -193.5zM440 528q68 0 119 56t51 147q0 64 -31.5 100.5t-82.5 36.5q-72 0 -123 -54t-51 -146q0 -65 32.5 -102.5t85.5 -37.5z" />
    <glyph glyph-name="guillemotright" unicode="&#xbb;" horiz-adv-x="1128" 
d="M109 166l280 330l-176 329l143 95l234 -424l-367 -424zM559 166l283 330l-180 329l147 95l231 -424l-364 -424z" />
    <glyph glyph-name="onequarter" unicode="&#xbc;" horiz-adv-x="1814" 
d="M281 25l1060 1423l105 -74l-1059 -1423zM332 586l110 690h-159l20 137h346l-131 -827h-186zM1325 0l27 172h-437l21 119l524 592h189l-88 -566h118l-24 -145h-119l-27 -172h-184zM1434 676l-308 -359h252z" />
    <glyph glyph-name="onehalf" unicode="&#xbd;" horiz-adv-x="1814" 
d="M272 25l1059 1423l105 -74l-1059 -1423zM326 563l112 713h-159l20 137h344l-133 -850h-184zM1036 0l2 127l344 279q91 73 122.5 118.5t31.5 98.5q0 45 -31 72.5t-88 27.5q-128 0 -221 -143l-80 102q30 75 121 135t219 60q121 0 193.5 -60.5t72.5 -157.5q0 -24 -4.5 -48
t-10 -43t-19.5 -41.5t-21.5 -36.5t-28 -36.5t-28.5 -31.5t-33.5 -31t-31.5 -27.5t-33.5 -28t-30.5 -24.5l-197 -159h379l-25 -152h-602z" />
    <glyph glyph-name="threequarters" unicode="&#xbe;" horiz-adv-x="1812" 
d="M684 1051q54 -19 85.5 -66.5t31.5 -110.5q0 -88 -53.5 -158t-134.5 -105.5t-171 -35.5q-231 0 -286 183l118 94q20 -60 69 -92.5t110 -32.5q66 0 115.5 38.5t49.5 102.5q0 50 -34.5 79.5t-89.5 29.5h-62l23 139h67q59 0 97 35.5t38 93.5q0 39 -27 62.5t-77 23.5
q-116 0 -205 -108l-67 102q111 152 307 152q107 0 179.5 -56.5t72.5 -148.5q0 -149 -154 -219zM373 25l1059 1423l108 -74l-1059 -1423zM1323 0l29 172h-434l18 119l526 592h187l-90 -566h118l-22 -145h-119l-29 -172h-184zM1434 676l-308 -359h250z" />
    <glyph glyph-name="questiondown" unicode="&#xbf;" horiz-adv-x="1028" 
d="M813 885q0 -80 -53.5 -129t-134.5 -49q-63 0 -100.5 34.5t-37.5 94.5q0 79 52.5 127.5t134.5 48.5q63 0 101 -34.5t38 -92.5zM831 -250q-39 -38 -72.5 -64.5t-89 -60t-126 -51.5t-150.5 -18q-160 0 -253 83.5t-93 215.5q0 55 11.5 103.5t28.5 83t47 71t55 59.5t65 57
q28 25 99.5 77t90.5 79q21 30 29 76l25 123h217l-19 -140q-12 -98 -55 -158.5t-119 -115.5l-131 -98q-96 -74 -96 -162q0 -64 46 -101.5t128 -37.5q75 0 150.5 40t132.5 91z" />
    <glyph glyph-name="Agrave" unicode="&#xc0;" 
d="M975 0l-64 326h-520l-166 -326h-270l747 1415h256l302 -1415h-285zM778 1110l-289 -571h394zM825 1538l-157 297h229l117 -297h-189z" />
    <glyph glyph-name="Aacute" unicode="&#xc1;" 
d="M975 0l-64 326h-520l-166 -326h-270l747 1415h256l302 -1415h-285zM778 1110l-289 -571h394zM651 1538l209 297h232l-254 -297h-187z" />
    <glyph glyph-name="Acircumflex" unicode="&#xc2;" 
d="M975 0l-64 326h-520l-166 -326h-270l747 1415h256l302 -1415h-285zM778 1110l-289 -571h394zM963 1538l-78 197l-142 -197h-178l217 297h236l123 -297h-178z" />
    <glyph glyph-name="Atilde" unicode="&#xc3;" 
d="M975 0l-64 326h-520l-166 -326h-270l747 1415h256l302 -1415h-285zM778 1110l-289 -571h394zM1221 1782q-18 -89 -87 -150t-147 -61q-22 0 -41 3t-35 9t-25 10.5t-22 12.5t-16 10q-4 2 -25.5 17.5t-40.5 23.5t-39 8q-32 0 -59.5 -24.5t-42.5 -63.5l-111 20q18 89 88 151
t148 62q19 0 36.5 -2.5t29 -5.5t25 -9.5t19 -9.5t17 -10t12.5 -8q4 -3 20 -14t26 -17t26.5 -12t32.5 -6q33 0 59.5 24t42.5 62z" />
    <glyph glyph-name="Adieresis" unicode="&#xc4;" 
d="M975 0l-64 326h-520l-166 -326h-270l747 1415h256l302 -1415h-285zM778 1110l-289 -571h394zM688 1563q-43 0 -71.5 28.5t-28.5 75.5q0 61 41.5 101t97.5 40q45 0 73.5 -28.5t28.5 -75.5q0 -61 -42 -101t-99 -40zM1159 1704q0 -61 -42 -101t-99 -40q-43 0 -71.5 28.5
t-28.5 75.5q0 61 41.5 101t97.5 40q45 0 73.5 -28.5t28.5 -75.5z" />
    <glyph glyph-name="Aring" unicode="&#xc5;" 
d="M975 0l-64 326h-520l-166 -326h-270l747 1415h256l302 -1415h-285zM778 1110l-289 -571h394zM1098 1761q0 -102 -73 -166.5t-171 -64.5q-79 0 -131.5 48t-52.5 126q0 102 73.5 166.5t174.5 64.5q78 0 129 -48t51 -126zM868 1628q48 0 82.5 34.5t34.5 86.5q0 38 -23 62
t-61 24q-50 0 -83.5 -33.5t-33.5 -85.5q0 -39 22.5 -63.5t61.5 -24.5z" />
    <glyph glyph-name="AE" unicode="&#xc6;" horiz-adv-x="1775" 
d="M846 0l51 330h-491l-230 -330h-287l1041 1413h913l-35 -221h-514l-53 -342h481l-34 -219h-482l-65 -410h530l-35 -221h-790zM1036 1202h-12l-463 -661h371z" />
    <glyph glyph-name="Ccedilla" unicode="&#xc7;" horiz-adv-x="1277" 
d="M768 205q228 0 408 172l59 -201q-171 -163 -408 -194l-188 -283h-207l221 278q-239 21 -384.5 185t-145.5 426q0 186 67.5 346.5t181 268.5t263 169.5t313.5 61.5q93 0 172.5 -18.5t132 -48t85 -55.5t51.5 -52l-125 -218q-29 52 -128.5 107t-228.5 55q-98 0 -188.5 -38.5
t-163 -110t-115.5 -185.5t-43 -254q0 -189 99.5 -300t271.5 -111z" />
    <glyph glyph-name="Egrave" unicode="&#xc8;" horiz-adv-x="1069" 
d="M90 0l223 1413h834l-35 -221h-571l-56 -350h539l-35 -219h-538l-64 -402h588l-35 -221h-850zM772 1538l-158 297h230l117 -297h-189z" />
    <glyph glyph-name="Eacute" unicode="&#xc9;" horiz-adv-x="1069" 
d="M90 0l223 1413h834l-35 -221h-571l-56 -350h539l-35 -219h-538l-64 -402h588l-35 -221h-850zM553 1538l209 297h231l-254 -297h-186z" />
    <glyph glyph-name="Ecircumflex" unicode="&#xca;" horiz-adv-x="1069" 
d="M90 0l223 1413h834l-35 -221h-571l-56 -350h539l-35 -219h-538l-64 -402h588l-35 -221h-850zM870 1538l-77 197l-142 -197h-178l217 297h236l123 -297h-179z" />
    <glyph glyph-name="Edieresis" unicode="&#xcb;" horiz-adv-x="1069" 
d="M90 0l223 1413h834l-35 -221h-571l-56 -350h539l-35 -219h-538l-64 -402h588l-35 -221h-850zM596 1563q-43 0 -71.5 28.5t-28.5 75.5q0 61 41.5 101t97.5 40q45 0 73.5 -28.5t28.5 -75.5q0 -61 -42 -101t-99 -40zM1067 1704q0 -61 -42 -101t-99 -40q-44 0 -72.5 28.5
t-28.5 75.5q0 61 42 101t98 40q45 0 73.5 -28.5t28.5 -75.5z" />
    <glyph glyph-name="Igrave" unicode="&#xcc;" horiz-adv-x="548" 
d="M90 0l223 1413h262l-223 -1413h-262zM477 1538l-158 297h230l117 -297h-189z" />
    <glyph glyph-name="Iacute" unicode="&#xcd;" horiz-adv-x="548" 
d="M90 0l223 1413h262l-223 -1413h-262zM258 1538l209 297h231l-254 -297h-186z" />
    <glyph glyph-name="Icircumflex" unicode="&#xce;" horiz-adv-x="548" 
d="M90 0l223 1413h262l-223 -1413h-262zM575 1538l-77 197l-142 -197h-178l217 297h236l123 -297h-179z" />
    <glyph glyph-name="Idieresis" unicode="&#xcf;" horiz-adv-x="548" 
d="M90 0l223 1413h262l-223 -1413h-262zM301 1563q-43 0 -71.5 28.5t-28.5 75.5q0 61 41.5 101t97.5 40q45 0 73.5 -28.5t28.5 -75.5q0 -61 -42 -101t-99 -40zM772 1704q0 -61 -42 -101t-99 -40q-43 0 -72 28.5t-29 75.5q0 61 42 101t98 40q45 0 73.5 -28.5t28.5 -75.5z" />
    <glyph glyph-name="Eth" unicode="&#xd0;" horiz-adv-x="1374" 
d="M90 0l103 641h-117l28 182h117l94 590h435q288 0 456 -154t168 -438q0 -179 -66.5 -333t-181 -260.5t-270.5 -167t-332 -60.5h-434zM571 225q119 0 219.5 45t168 122t105.5 181t38 222q0 395 -379 395h-182l-58 -367h297l-28 -176h-297l-66 -422h182z" />
    <glyph glyph-name="Ntilde" unicode="&#xd1;" horiz-adv-x="1464" 
d="M1010 0l-502 1042q-24 -180 -51 -348l-111 -694h-256l223 1413h279l491 -1030q20 166 47 334l111 696h256l-223 -1413h-264zM1296 1782q-18 -89 -86.5 -150t-146.5 -61q-22 0 -41 3t-35 9t-25 10.5t-22 12.5t-16 10q-4 2 -25.5 17.5t-40.5 23.5t-39 8q-32 0 -59.5 -24.5
t-42.5 -63.5l-111 20q18 89 88 151t148 62q19 0 36.5 -2.5t29 -5.5t25 -9.5t19 -9.5t17 -10t12.5 -8q4 -3 19.5 -14t25.5 -17t26.5 -12t32.5 -6q33 0 60 24t43 62z" />
    <glyph glyph-name="Ograve" unicode="&#xd2;" horiz-adv-x="1548" 
d="M1552 821q0 -152 -44 -286.5t-122.5 -235.5t-182.5 -175t-227 -111.5t-253 -37.5q-173 0 -308.5 73t-213.5 213t-78 327q0 189 68.5 350t183 268.5t265 167.5t314.5 60q264 0 431 -166t167 -447zM760 209q105 0 200 42.5t165.5 118t112.5 186t42 239.5q0 187 -99.5 297
t-262.5 110q-104 0 -199 -42t-166.5 -116t-113.5 -184t-42 -239q0 -188 100.5 -300t262.5 -112zM983 1538l-158 297h230l116 -297h-188z" />
    <glyph glyph-name="Oacute" unicode="&#xd3;" horiz-adv-x="1548" 
d="M1552 821q0 -152 -44 -286.5t-122.5 -235.5t-182.5 -175t-227 -111.5t-253 -37.5q-173 0 -308.5 73t-213.5 213t-78 327q0 189 68.5 350t183 268.5t265 167.5t314.5 60q264 0 431 -166t167 -447zM760 209q105 0 200 42.5t165.5 118t112.5 186t42 239.5q0 187 -99.5 297
t-262.5 110q-104 0 -199 -42t-166.5 -116t-113.5 -184t-42 -239q0 -188 100.5 -300t262.5 -112zM764 1538l209 297h231l-254 -297h-186z" />
    <glyph glyph-name="Ocircumflex" unicode="&#xd4;" horiz-adv-x="1548" 
d="M1552 821q0 -152 -44 -286.5t-122.5 -235.5t-182.5 -175t-227 -111.5t-253 -37.5q-173 0 -308.5 73t-213.5 213t-78 327q0 189 68.5 350t183 268.5t265 167.5t314.5 60q264 0 431 -166t167 -447zM760 209q105 0 200 42.5t165.5 118t112.5 186t42 239.5q0 187 -99.5 297
t-262.5 110q-104 0 -199 -42t-166.5 -116t-113.5 -184t-42 -239q0 -188 100.5 -300t262.5 -112zM1081 1538l-77 197l-142 -197h-178l217 297h236l123 -297h-179z" />
    <glyph glyph-name="Otilde" unicode="&#xd5;" horiz-adv-x="1548" 
d="M1552 821q0 -152 -44 -286.5t-122.5 -235.5t-182.5 -175t-227 -111.5t-253 -37.5q-173 0 -308.5 73t-213.5 213t-78 327q0 189 68.5 350t183 268.5t265 167.5t314.5 60q264 0 431 -166t167 -447zM760 209q105 0 200 42.5t165.5 118t112.5 186t42 239.5q0 187 -99.5 297
t-262.5 110q-104 0 -199 -42t-166.5 -116t-113.5 -184t-42 -239q0 -188 100.5 -300t262.5 -112zM1339 1782q-18 -89 -86.5 -150t-146.5 -61q-22 0 -41 3t-35 9t-25 10.5t-22 12.5t-16 10q-4 2 -25.5 17.5t-40.5 23.5t-39 8q-32 0 -59.5 -24.5t-42.5 -63.5l-111 20
q18 89 88 151t148 62q19 0 36.5 -2.5t29 -5.5t25 -9.5t19 -9.5t17 -10t12.5 -8q4 -3 19.5 -14t25.5 -17t26.5 -12t32.5 -6q33 0 60 24t43 62z" />
    <glyph glyph-name="Odieresis" unicode="&#xd6;" horiz-adv-x="1548" 
d="M1552 821q0 -152 -44 -286.5t-122.5 -235.5t-182.5 -175t-227 -111.5t-253 -37.5q-173 0 -308.5 73t-213.5 213t-78 327q0 189 68.5 350t183 268.5t265 167.5t314.5 60q264 0 431 -166t167 -447zM760 209q105 0 200 42.5t165.5 118t112.5 186t42 239.5q0 187 -99.5 297
t-262.5 110q-104 0 -199 -42t-166.5 -116t-113.5 -184t-42 -239q0 -188 100.5 -300t262.5 -112zM807 1563q-43 0 -71.5 28.5t-28.5 75.5q0 61 41.5 101t97.5 40q45 0 73.5 -28.5t28.5 -75.5q0 -61 -42 -101t-99 -40zM1278 1704q0 -61 -42 -101t-99 -40q-43 0 -72 28.5
t-29 75.5q0 61 42 101t98 40q45 0 73.5 -28.5t28.5 -75.5z" />
    <glyph glyph-name="multiply" unicode="&#xd7;" horiz-adv-x="1284" 
d="M721 563l-395 -395l-140 143l396 394l-396 393l140 143l395 -395l395 395l139 -143l-393 -393l393 -394l-139 -143z" />
    <glyph glyph-name="Oslash" unicode="&#xd8;" horiz-adv-x="1531" 
d="M37 80l168 156q-86 138 -86 350q0 189 69 350.5t184 269t265.5 168t314.5 60.5q248 0 412 -142l174 162l100 -121l-172 -157q84 -134 84 -353q0 -190 -68 -351t-183 -268.5t-264.5 -168t-313.5 -60.5q-250 0 -414 142l-170 -158zM1159 1114q-97 88 -244 88
q-104 0 -199 -42t-166.5 -117t-114 -186t-42.5 -241q0 -111 29 -190zM514 297q91 -88 244 -88q104 0 199 42.5t166 118.5t113 188t42 243q0 112 -27 182z" />
    <glyph glyph-name="Ugrave" unicode="&#xd9;" horiz-adv-x="1347" 
d="M1126 1413h263l-132 -829q-25 -152 -67.5 -255.5t-122.5 -183.5q-165 -170 -446 -170q-279 0 -394 170q-56 81 -66.5 191.5t15.5 247.5l131 829h264l-131 -821q-15 -76 -15 -152t28 -125q59 -106 204 -106q146 0 238 106q43 49 64.5 115t35.5 162zM874 1538l-157 297h229
l117 -297h-189z" />
    <glyph glyph-name="Uacute" unicode="&#xda;" horiz-adv-x="1347" 
d="M1126 1413h263l-132 -829q-25 -152 -67.5 -255.5t-122.5 -183.5q-165 -170 -446 -170q-279 0 -394 170q-56 81 -66.5 191.5t15.5 247.5l131 829h264l-131 -821q-15 -76 -15 -152t28 -125q59 -106 204 -106q146 0 238 106q43 49 64.5 115t35.5 162zM655 1538l209 297h232
l-254 -297h-187z" />
    <glyph glyph-name="Ucircumflex" unicode="&#xdb;" horiz-adv-x="1347" 
d="M1126 1413h263l-132 -829q-25 -152 -67.5 -255.5t-122.5 -183.5q-165 -170 -446 -170q-279 0 -394 170q-56 81 -66.5 191.5t15.5 247.5l131 829h264l-131 -821q-15 -76 -15 -152t28 -125q59 -106 204 -106q146 0 238 106q43 49 64.5 115t35.5 162zM973 1538l-78 197
l-141 -197h-179l218 297h235l123 -297h-178z" />
    <glyph glyph-name="Udieresis" unicode="&#xdc;" horiz-adv-x="1347" 
d="M1126 1413h263l-132 -829q-25 -152 -67.5 -255.5t-122.5 -183.5q-165 -170 -446 -170q-279 0 -394 170q-56 81 -66.5 191.5t15.5 247.5l131 829h264l-131 -821q-15 -76 -15 -152t28 -125q59 -106 204 -106q146 0 238 106q43 49 64.5 115t35.5 162zM698 1563
q-43 0 -71.5 28.5t-28.5 75.5q0 61 41.5 101t97.5 40q45 0 74 -28.5t29 -75.5q0 -61 -42.5 -101t-99.5 -40zM1169 1704q0 -61 -42 -101t-99 -40q-43 0 -71.5 28.5t-28.5 75.5q0 61 41.5 101t97.5 40q45 0 73.5 -28.5t28.5 -75.5z" />
    <glyph glyph-name="Yacute" unicode="&#xdd;" horiz-adv-x="1177" 
d="M408 0l92 582l-334 831h289l213 -606l401 606h291l-598 -831l-92 -582h-262zM563 1538l209 297h232l-254 -297h-187z" />
    <glyph glyph-name="Thorn" unicode="&#xde;" horiz-adv-x="1091" 
d="M90 0l223 1413h262l-38 -246h155q90 0 164.5 -20.5t132.5 -62.5t90.5 -112t32.5 -163q0 -149 -79 -264.5t-204.5 -174.5t-271.5 -59h-156l-49 -311h-262zM557 520q117 0 199 69t82 185q0 97 -60 140.5t-160 43.5h-114l-70 -438h123z" />
    <glyph glyph-name="germandbls" unicode="&#xdf;" horiz-adv-x="1142" 
d="M870 821q242 -65 242 -315q0 -163 -78.5 -283t-209.5 -179.5t-296 -59.5q-26 0 -54 3.5t-43 6.5l-15 4l45 195q35 -11 84 -11q45 0 88 10.5t82.5 34.5t69.5 58.5t47.5 86t17.5 113.5q0 106 -60 160.5t-163 54.5h-70l31 189h47q109 0 165 59.5t56 155.5q0 68 -43 107.5
t-111 39.5q-180 0 -221 -243l-184 -1162q-14 -94 -25 -143.5t-34 -112.5h-258q29 66 53 213l180 1123q38 236 176 372t359 136q173 0 262.5 -80.5t89.5 -206.5q0 -69 -25 -129.5t-62 -99.5t-74.5 -62.5t-68.5 -30.5v-4z" />
    <glyph glyph-name="agrave" unicode="&#xe0;" horiz-adv-x="1181" 
d="M74 408q0 161 70.5 298.5t199 220.5t285.5 83q200 0 272 -156h2l17 119h256l-121 -760q-23 -139 -13 -213h-241q-12 69 0 156h-4q-69 -91 -159.5 -135t-188.5 -44q-175 0 -275 121t-100 310zM856 549q0 110 -57.5 185t-155.5 75q-87 0 -158 -52.5t-109 -136t-38 -176.5
q0 -111 57.5 -182.5t157.5 -71.5q127 0 215 102t88 257zM844 1116h-189l-157 297h229z" />
    <glyph glyph-name="aacute" unicode="&#xe1;" horiz-adv-x="1181" 
d="M74 408q0 161 70.5 298.5t199 220.5t285.5 83q200 0 272 -156h2l17 119h256l-121 -760q-23 -139 -13 -213h-241q-12 69 0 156h-4q-69 -91 -159.5 -135t-188.5 -44q-175 0 -275 121t-100 310zM856 549q0 110 -57.5 185t-155.5 75q-87 0 -158 -52.5t-109 -136t-38 -176.5
q0 -111 57.5 -182.5t157.5 -71.5q127 0 215 102t88 257zM700 1116h-186l209 297h231z" />
    <glyph glyph-name="acircumflex" unicode="&#xe2;" horiz-adv-x="1181" 
d="M74 408q0 161 70.5 298.5t199 220.5t285.5 83q200 0 272 -156h2l17 119h256l-121 -760q-23 -139 -13 -213h-241q-12 69 0 156h-4q-69 -91 -159.5 -135t-188.5 -44q-175 0 -275 121t-100 310zM856 549q0 110 -57.5 185t-155.5 75q-87 0 -158 -52.5t-109 -136t-38 -176.5
q0 -111 57.5 -182.5t157.5 -71.5q127 0 215 102t88 257zM535 1116h-179l217 297h236l123 -297h-178l-78 197z" />
    <glyph glyph-name="atilde" unicode="&#xe3;" horiz-adv-x="1181" 
d="M74 408q0 161 70.5 298.5t199 220.5t285.5 83q200 0 272 -156h2l17 119h256l-121 -760q-23 -139 -13 -213h-241q-12 69 0 156h-4q-69 -91 -159.5 -135t-188.5 -44q-175 0 -275 121t-100 310zM856 549q0 110 -57.5 185t-155.5 75q-87 0 -158 -52.5t-109 -136t-38 -176.5
q0 -111 57.5 -182.5t157.5 -71.5q127 0 215 102t88 257zM801 1294q33 0 59.5 24t42.5 62l109 -20q-18 -89 -87 -150t-147 -61q-22 0 -41 3t-35 9t-25 10.5t-22 12.5t-16 10q-5 3 -25.5 17.5t-39.5 23t-39 8.5q-32 0 -60 -24.5t-43 -63.5l-110 21q18 90 87.5 151.5
t147.5 61.5q19 0 36.5 -2.5t29 -6t25 -9.5t19.5 -9.5t16.5 -10.5t12.5 -8q4 -3 20 -14t26 -17t26.5 -12t32.5 -6z" />
    <glyph glyph-name="adieresis" unicode="&#xe4;" horiz-adv-x="1181" 
d="M74 408q0 161 70.5 298.5t199 220.5t285.5 83q200 0 272 -156h2l17 119h256l-121 -760q-23 -139 -13 -213h-241q-12 69 0 156h-4q-69 -91 -159.5 -135t-188.5 -44q-175 0 -275 121t-100 310zM856 549q0 110 -57.5 185t-155.5 75q-87 0 -158 -52.5t-109 -136t-38 -176.5
q0 -111 57.5 -182.5t157.5 -71.5q127 0 215 102t88 257zM848 1386q45 0 73.5 -28.5t28.5 -75.5q0 -61 -42 -101t-99 -40q-43 0 -71.5 28.5t-28.5 75.5q0 61 41.5 101t97.5 40zM621 1282q0 -61 -42.5 -101t-99.5 -40q-43 0 -71.5 28.5t-28.5 75.5q0 61 41.5 101t97.5 40
q45 0 74 -28.5t29 -75.5z" />
    <glyph glyph-name="aring" unicode="&#xe5;" horiz-adv-x="1181" 
d="M74 408q0 161 70.5 298.5t199 220.5t285.5 83q200 0 272 -156h2l17 119h256l-121 -760q-23 -139 -13 -213h-241q-12 69 0 156h-4q-69 -91 -159.5 -135t-188.5 -44q-175 0 -275 121t-100 310zM856 549q0 110 -57.5 185t-155.5 75q-87 0 -158 -52.5t-109 -136t-38 -176.5
q0 -111 57.5 -182.5t157.5 -71.5q127 0 215 102t88 257zM743 1513q78 0 129.5 -48t51.5 -126q0 -102 -73 -166.5t-171 -64.5q-79 0 -131.5 48t-52.5 126q0 102 73 166.5t174 64.5zM610 1294q0 -39 22.5 -63.5t61.5 -24.5q48 0 82.5 34.5t34.5 86.5q0 38 -23 62t-61 24
q-50 0 -83.5 -33.5t-33.5 -85.5z" />
    <glyph glyph-name="ae" unicode="&#xe6;" horiz-adv-x="1689" 
d="M590 1010q120 0 193 -35t126 -101q176 136 396 136q165 0 262.5 -77t97.5 -188q0 -147 -134 -244.5t-339 -97.5q-111 0 -252 25v-10q0 -115 62.5 -174.5t158.5 -59.5q84 0 177.5 32t142.5 67l78 -142q-44 -35 -103 -68.5t-161 -64.5t-205 -31q-120 0 -211 47.5
t-144 135.5q-90 -93 -197 -138t-210 -45q-128 0 -207.5 68.5t-79.5 194.5q0 71 27 129t71 96t104 65t121.5 40.5t127.5 17.5l219 14l4 31q13 93 -34 139.5t-146 46.5q-83 0 -159 -25.5t-120 -56.5l-53 168q191 105 387 105zM1294 840q-116 0 -209 -77t-122 -181
q78 -4 110 -4q365 0 365 153q0 109 -144 109zM442 156q67 0 131 37t113 96q-10 55 -10 106q0 33 2 49l-156 -6q-106 -4 -162.5 -46.5t-56.5 -115.5q0 -55 36.5 -87.5t102.5 -32.5z" />
    <glyph glyph-name="ccedilla" unicode="&#xe7;" horiz-adv-x="929" 
d="M586 199q44 0 87.5 10.5t74 26t54.5 31t36 25.5l12 11l39 -192q-124 -110 -309 -129l-189 -283h-207l228 287q-148 27 -242 139t-94 285q0 134 53 249.5t138 190.5t190 117.5t211 42.5q222 0 330 -120q5 -6 6 -7l-101 -197q-91 105 -239 105q-128 0 -221 -94.5
t-93 -245.5q0 -115 65 -183.5t171 -68.5z" />
    <glyph glyph-name="egrave" unicode="&#xe8;" horiz-adv-x="1079" 
d="M598 395q-134 0 -260 15q1 -110 63.5 -168t157.5 -58q84 0 177.5 32t142.5 67l77 -142q-44 -35 -103 -68.5t-161 -64.5t-205 -31q-189 0 -301 113.5t-112 304.5q0 170 85.5 312t229.5 222.5t313 80.5q165 0 258 -76.5t93 -188.5q0 -149 -126.5 -249.5t-328.5 -100.5z
M684 823q-116 0 -206.5 -70.5t-117.5 -170.5q68 -7 111 -7q350 0 350 144q0 47 -37.5 75.5t-99.5 28.5zM854 1116h-188l-158 297h229z" />
    <glyph glyph-name="eacute" unicode="&#xe9;" horiz-adv-x="1079" 
d="M598 395q-134 0 -260 15q1 -110 63.5 -168t157.5 -58q84 0 177.5 32t142.5 67l77 -142q-44 -35 -103 -68.5t-161 -64.5t-205 -31q-189 0 -301 113.5t-112 304.5q0 170 85.5 312t229.5 222.5t313 80.5q165 0 258 -76.5t93 -188.5q0 -149 -126.5 -249.5t-328.5 -100.5z
M684 823q-116 0 -206.5 -70.5t-117.5 -170.5q68 -7 111 -7q350 0 350 144q0 47 -37.5 75.5t-99.5 28.5zM674 1116h-187l209 297h232z" />
    <glyph glyph-name="ecircumflex" unicode="&#xea;" horiz-adv-x="1079" 
d="M598 395q-134 0 -260 15q1 -110 63.5 -168t157.5 -58q84 0 177.5 32t142.5 67l77 -142q-44 -35 -103 -68.5t-161 -64.5t-205 -31q-189 0 -301 113.5t-112 304.5q0 170 85.5 312t229.5 222.5t313 80.5q165 0 258 -76.5t93 -188.5q0 -149 -126.5 -249.5t-328.5 -100.5z
M586 1116h-178l217 297h235l123 -297h-178l-78 197zM684 823q-116 0 -206.5 -70.5t-117.5 -170.5q68 -7 111 -7q350 0 350 144q0 47 -37.5 75.5t-99.5 28.5z" />
    <glyph glyph-name="edieresis" unicode="&#xeb;" horiz-adv-x="1079" 
d="M598 395q-134 0 -260 15q1 -110 63.5 -168t157.5 -58q84 0 177.5 32t142.5 67l77 -142q-44 -35 -103 -68.5t-161 -64.5t-205 -31q-189 0 -301 113.5t-112 304.5q0 170 85.5 312t229.5 222.5t313 80.5q165 0 258 -76.5t93 -188.5q0 -149 -126.5 -249.5t-328.5 -100.5z
M684 823q-116 0 -206.5 -70.5t-117.5 -170.5q68 -7 111 -7q350 0 350 144q0 47 -37.5 75.5t-99.5 28.5zM877 1386q45 0 73.5 -28.5t28.5 -75.5q0 -61 -42 -101t-99 -40q-44 0 -72.5 28.5t-28.5 75.5q0 61 42 101t98 40zM649 1282q0 -61 -42 -101t-99 -40q-43 0 -71.5 28.5
t-28.5 75.5q0 61 41.5 101t97.5 40q45 0 73.5 -28.5t28.5 -75.5z" />
    <glyph glyph-name="igrave" unicode="&#xec;" horiz-adv-x="501" 
d="M100 2q-4 60 0 107t21 149l90 555q17 97 8 178h256q3 -76 0 -115t-16 -116l-90 -545q-23 -139 -13 -213h-256zM403 1145l-157 297h229l117 -297h-189z" />
    <glyph glyph-name="iacute" unicode="&#xed;" horiz-adv-x="501" 
d="M100 2q-4 60 0 107t21 149l90 555q17 97 8 178h256q3 -76 0 -115t-16 -116l-90 -545q-23 -139 -13 -213h-256zM184 1145l209 297h232l-254 -297h-187z" />
    <glyph glyph-name="icircumflex" unicode="&#xee;" horiz-adv-x="501" 
d="M100 2q-4 60 0 107t21 149l90 555q17 97 8 178h256q3 -76 0 -115t-16 -116l-90 -545q-23 -139 -13 -213h-256zM502 1145l-78 196l-141 -196h-179l218 297h235l123 -297h-178z" />
    <glyph glyph-name="idieresis" unicode="&#xef;" horiz-adv-x="501" 
d="M100 2q-4 60 0 107t21 149l90 555q17 97 8 178h256q3 -76 0 -115t-16 -116l-90 -545q-23 -139 -13 -213h-256zM227 1169q-43 0 -71.5 29t-28.5 76q0 61 41.5 101t97.5 40q45 0 74 -28.5t29 -75.5q0 -61 -42.5 -101.5t-99.5 -40.5zM698 1311q0 -61 -42 -101.5t-99 -40.5
q-43 0 -71.5 29t-28.5 76q0 61 41.5 101t97.5 40q45 0 73.5 -28.5t28.5 -75.5z" />
    <glyph glyph-name="eth" unicode="&#xf0;" horiz-adv-x="1155" 
d="M860 1294q268 -307 268 -676q0 -145 -49.5 -267t-133.5 -203t-194.5 -126t-232.5 -45q-194 0 -314 120t-120 313q0 124 51.5 232.5t132 179.5t177.5 112t190 41q142 0 207 -78q-50 153 -187 297l-241 -139l-45 114l198 115q-103 89 -159 131l192 107q105 -75 168 -138
l256 146l49 -115zM555 195q128 0 216.5 100.5t88.5 243.5q0 108 -56.5 176.5t-154.5 68.5q-127 0 -214 -101.5t-87 -244.5q0 -107 55.5 -175t151.5 -68z" />
    <glyph glyph-name="ntilde" unicode="&#xf1;" horiz-adv-x="1101" 
d="M774 1010q80 0 136.5 -21.5t88 -58t46.5 -91.5t14.5 -115t-12.5 -136l-60 -373q-23 -137 -12 -215h-258q-5 24 -1.5 78t7 78t14.5 102l43 272q10 75 9 134t-34 95t-100 36q-106 0 -161.5 -65t-75.5 -185l-88 -545h-258l129 813q16 109 8 178h256q5 -78 -4 -149h6
q51 80 129.5 124t177.5 44zM1065 1360q-18 -89 -87 -150t-147 -61q-22 0 -41 3t-35 9t-25 10.5t-22 12.5t-16 10q-5 3 -25.5 17.5t-39.5 23t-39 8.5q-32 0 -60 -24.5t-43 -63.5l-110 21q18 90 87.5 151.5t147.5 61.5q19 0 36.5 -2.5t29 -6t25.5 -9.5t19.5 -9.5t17 -10.5
t12.5 -8q4 -3 19.5 -14t25.5 -17t26.5 -12t32.5 -6q33 0 59.5 24t42.5 62z" />
    <glyph glyph-name="ograve" unicode="&#xf2;" horiz-adv-x="1140" 
d="M1122 571q0 -130 -49 -242.5t-131.5 -188.5t-192.5 -119.5t-231 -43.5q-196 0 -318 119.5t-122 317.5q0 129 49 241.5t131.5 189.5t192.5 121t231 44q196 0 318 -121t122 -318zM553 195q131 0 216 105t85 253q0 109 -54 177.5t-151 68.5q-135 0 -218 -105t-83 -256
q0 -108 53 -175.5t152 -67.5zM664 1116l-158 297h229l117 -297h-188z" />
    <glyph glyph-name="oacute" unicode="&#xf3;" horiz-adv-x="1140" 
d="M1122 571q0 -130 -49 -242.5t-131.5 -188.5t-192.5 -119.5t-231 -43.5q-196 0 -318 119.5t-122 317.5q0 129 49 241.5t131.5 189.5t192.5 121t231 44q196 0 318 -121t122 -318zM553 195q131 0 216 105t85 253q0 109 -54 177.5t-151 68.5q-135 0 -218 -105t-83 -256
q0 -108 53 -175.5t152 -67.5zM489 1116l209 297h232l-254 -297h-187z" />
    <glyph glyph-name="ocircumflex" unicode="&#xf4;" horiz-adv-x="1140" 
d="M1122 571q0 -130 -49 -242.5t-131.5 -188.5t-192.5 -119.5t-231 -43.5q-196 0 -318 119.5t-122 317.5q0 129 49 241.5t131.5 189.5t192.5 121t231 44q196 0 318 -121t122 -318zM553 195q131 0 216 105t85 253q0 109 -54 177.5t-151 68.5q-135 0 -218 -105t-83 -256
q0 -108 53 -175.5t152 -67.5zM807 1116l-78 197l-141 -197h-178l217 297h235l123 -297h-178z" />
    <glyph glyph-name="otilde" unicode="&#xf5;" horiz-adv-x="1140" 
d="M1122 571q0 -130 -49 -242.5t-131.5 -188.5t-192.5 -119.5t-231 -43.5q-196 0 -318 119.5t-122 317.5q0 129 49 241.5t131.5 189.5t192.5 121t231 44q196 0 318 -121t122 -318zM553 195q131 0 216 105t85 253q0 109 -54 177.5t-151 68.5q-135 0 -218 -105t-83 -256
q0 -108 53 -175.5t152 -67.5zM1065 1360q-18 -89 -87 -150t-147 -61q-22 0 -41 3t-35 9t-25 10.5t-22 12.5t-16 10q-5 3 -25.5 17.5t-39.5 23t-39 8.5q-32 0 -60 -24.5t-43 -63.5l-110 21q18 90 87.5 151.5t147.5 61.5q19 0 36.5 -2.5t29 -6t25.5 -9.5t19.5 -9.5t17 -10.5
t12.5 -8q4 -3 19.5 -14t25.5 -17t26.5 -12t32.5 -6q33 0 59.5 24t42.5 62z" />
    <glyph glyph-name="odieresis" unicode="&#xf6;" horiz-adv-x="1140" 
d="M1122 571q0 -130 -49 -242.5t-131.5 -188.5t-192.5 -119.5t-231 -43.5q-196 0 -318 119.5t-122 317.5q0 129 49 241.5t131.5 189.5t192.5 121t231 44q196 0 318 -121t122 -318zM553 195q131 0 216 105t85 253q0 109 -54 177.5t-151 68.5q-135 0 -218 -105t-83 -256
q0 -108 53 -175.5t152 -67.5zM532 1141q-43 0 -71.5 28.5t-28.5 75.5q0 61 41.5 101t97.5 40q45 0 74 -28.5t29 -75.5q0 -61 -42.5 -101t-99.5 -40zM1004 1282q0 -61 -42.5 -101t-99.5 -40q-43 0 -71.5 28.5t-28.5 75.5q0 61 41.5 101t97.5 40q45 0 74 -28.5t29 -75.5z" />
    <glyph glyph-name="divide" unicode="&#xf7;" horiz-adv-x="1349" 
d="M592 1073q0 60 44 104t105 44t105.5 -44t44.5 -104q0 -63 -44 -107t-106 -44t-105.5 44t-43.5 107zM193 608v195h1097v-195h-1097zM592 340q0 63 43.5 106t105.5 43t106 -44t44 -105q0 -62 -44.5 -106t-105.5 -44t-105 44t-44 106z" />
    <glyph glyph-name="oslash" unicode="&#xf8;" horiz-adv-x="1134" 
d="M1069 815q57 -97 57 -244q0 -130 -48.5 -242.5t-130.5 -188.5t-191.5 -119.5t-229.5 -43.5q-183 0 -295 95l-129 -115l-88 102l127 113q-57 97 -57 244q0 129 48.5 241t131 188.5t193 120.5t231.5 44q172 0 291 -92l129 114l86 -104zM788 752q-50 47 -133 47
q-137 0 -219 -105.5t-82 -261.5q0 -54 2 -72zM426 242q50 -47 133 -47q133 0 217 106.5t84 261.5q0 36 -4 68z" />
    <glyph glyph-name="ugrave" unicode="&#xf9;" horiz-adv-x="1105" 
d="M401 -18q-99 0 -162.5 32.5t-89.5 89t-31.5 133.5t11.5 166l59 373q23 140 13 215h258q1 -13 1.5 -25.5t0.5 -22t-0.5 -23t-1 -21.5t-2 -23.5t-2.5 -22.5t-3.5 -26.5t-3.5 -27t-5 -32t-5 -34.5l-43 -272q-10 -75 -9 -133.5t34 -94.5t100 -36q106 0 162 65t76 184l88 545
h258l-129 -813q-16 -109 -8 -178h-256q-5 78 4 150h-6q-51 -80 -130 -124t-178 -44zM686 1116l-158 297h230l116 -297h-188z" />
    <glyph glyph-name="uacute" unicode="&#xfa;" horiz-adv-x="1105" 
d="M401 -18q-99 0 -162.5 32.5t-89.5 89t-31.5 133.5t11.5 166l59 373q23 140 13 215h258q1 -13 1.5 -25.5t0.5 -22t-0.5 -23t-1 -21.5t-2 -23.5t-2.5 -22.5t-3.5 -26.5t-3.5 -27t-5 -32t-5 -34.5l-43 -272q-10 -75 -9 -133.5t34 -94.5t100 -36q106 0 162 65t76 184l88 545
h258l-129 -813q-16 -109 -8 -178h-256q-5 78 4 150h-6q-51 -80 -130 -124t-178 -44zM467 1116l209 297h231l-254 -297h-186z" />
    <glyph glyph-name="ucircumflex" unicode="&#xfb;" horiz-adv-x="1105" 
d="M401 -18q-99 0 -162.5 32.5t-89.5 89t-31.5 133.5t11.5 166l59 373q23 140 13 215h258q1 -13 1.5 -25.5t0.5 -22t-0.5 -23t-1 -21.5t-2 -23.5t-2.5 -22.5t-3.5 -26.5t-3.5 -27t-5 -32t-5 -34.5l-43 -272q-10 -75 -9 -133.5t34 -94.5t100 -36q106 0 162 65t76 184l88 545
h258l-129 -813q-16 -109 -8 -178h-256q-5 78 4 150h-6q-51 -80 -130 -124t-178 -44zM784 1116l-77 197l-142 -197h-178l217 297h236l123 -297h-179z" />
    <glyph glyph-name="udieresis" unicode="&#xfc;" horiz-adv-x="1105" 
d="M401 -18q-99 0 -162.5 32.5t-89.5 89t-31.5 133.5t11.5 166l59 373q23 140 13 215h258q1 -13 1.5 -25.5t0.5 -22t-0.5 -23t-1 -21.5t-2 -23.5t-2.5 -22.5t-3.5 -26.5t-3.5 -27t-5 -32t-5 -34.5l-43 -272q-10 -75 -9 -133.5t34 -94.5t100 -36q106 0 162 65t76 184l88 545
h258l-129 -813q-16 -109 -8 -178h-256q-5 78 4 150h-6q-51 -80 -130 -124t-178 -44zM510 1141q-43 0 -71.5 28.5t-28.5 75.5q0 61 41.5 101t97.5 40q45 0 73.5 -28.5t28.5 -75.5q0 -61 -42 -101t-99 -40zM981 1282q0 -61 -42 -101t-99 -40q-44 0 -72.5 28.5t-28.5 75.5
q0 61 42 101t98 40q45 0 73.5 -28.5t28.5 -75.5z" />
    <glyph glyph-name="yacute" unicode="&#xfd;" horiz-adv-x="1017" 
d="M342 -6l-233 997h270l131 -702l354 702h269l-617 -1124q-74 -135 -148.5 -196.5t-174.5 -61.5q-61 0 -116.5 10.5t-80.5 20.5l-25 10l86 200q64 -24 111 -24q85 0 119 65zM449 1116l208 297h232l-254 -297h-186z" />
    <glyph glyph-name="thorn" unicode="&#xfe;" horiz-adv-x="1189" 
d="M311 -162q-1 -5 -4 -26t-3.5 -28t-3 -25.5t-3 -27.5t-1.5 -25.5t-1 -27.5t1 -25.5t3 -27.5h-256q-6 81 17 236q2 13 3 20l207 1356q10 69 11.5 87.5t-2.5 90.5h256q1 -17 1.5 -33t0.5 -28t-1 -28.5t-1.5 -24.5t-3.5 -27.5t-3.5 -26t-4.5 -31.5t-5 -32l-53 -330
q144 160 338 160q175 0 275 -120.5t100 -309.5q0 -161 -70.5 -298.5t-199 -220.5t-285.5 -83q-188 0 -271 143zM395 442q0 -110 57.5 -185t155.5 -75q87 0 158 52.5t109 136t38 176.5q0 111 -57.5 182.5t-157.5 71.5q-127 0 -215 -102t-88 -257z" />
    <glyph glyph-name="ydieresis" unicode="&#xff;" horiz-adv-x="1017" 
d="M342 -6l-233 997h270l131 -702l354 702h269l-617 -1124q-74 -135 -148.5 -196.5t-174.5 -61.5q-61 0 -116.5 10.5t-80.5 20.5l-25 10l86 200q64 -24 111 -24q85 0 119 65zM469 1141q-43 0 -71.5 28.5t-28.5 75.5q0 61 41.5 101t97.5 40q45 0 73.5 -28.5t28.5 -75.5
q0 -61 -42 -101t-99 -40zM940 1282q0 -61 -42 -101t-99 -40q-43 0 -72 28.5t-29 75.5q0 61 42 101t98 40q45 0 73.5 -28.5t28.5 -75.5z" />
    <glyph glyph-name="OE" unicode="&#x152;" horiz-adv-x="1933" 
d="M1012 0l6 43q-151 -68 -295 -68q-173 0 -308.5 73t-213.5 213t-78 327q0 189 68.5 350t183.5 268t265 167.5t314 60.5q149 0 275 -66l6 45h776l-35 -221h-514l-53 -342h481l-35 -219h-481l-65 -410h530l-35 -221h-792zM1186 1102q-97 100 -268 100q-104 0 -199 -42
t-166.5 -116t-113.5 -184t-42 -239q0 -188 100.5 -300t262.5 -112q173 0 301 102z" />
    <glyph glyph-name="oe" unicode="&#x153;" horiz-adv-x="1855" 
d="M682 1010q235 0 352 -172q88 81 200.5 126.5t235.5 45.5q165 0 263 -77t98 -188q0 -147 -134 -244.5t-339 -97.5q-111 0 -252 25v-10q0 -115 62.5 -174.5t158.5 -59.5q84 0 177.5 32t142.5 67l77 -142q-44 -35 -103 -68.5t-161 -64.5t-205 -31q-224 0 -335 162
q-173 -162 -402 -162q-196 0 -318 119.5t-122 317.5q0 129 49 241.5t131.5 189.5t192.5 121t231 44zM348 438q0 -108 53 -175.5t152 -67.5q131 0 216 105t85 253q0 109 -54 177.5t-151 68.5q-135 0 -218 -105t-83 -256zM1460 840q-116 0 -209.5 -77t-122.5 -181
q78 -4 111 -4q365 0 365 153q0 109 -144 109z" />
    <glyph glyph-name="Ydieresis" unicode="&#x178;" horiz-adv-x="1177" 
d="M408 0l92 582l-334 831h289l213 -606l401 606h291l-598 -831l-92 -582h-262zM606 1563q-43 0 -71.5 28.5t-28.5 75.5q0 61 41.5 101t97.5 40q45 0 74 -28.5t29 -75.5q0 -61 -42.5 -101t-99.5 -40zM1077 1704q0 -61 -42 -101t-99 -40q-43 0 -71.5 28.5t-28.5 75.5
q0 61 41.5 101t97.5 40q45 0 73.5 -28.5t28.5 -75.5z" />
    <glyph glyph-name="tilde" unicode="&#x2dc;" horiz-adv-x="741" 
d="M874 1360q-18 -89 -86.5 -150t-146.5 -61q-22 0 -41 3t-35 9t-25 10.5t-22 12.5t-16 10q-4 2 -25.5 17.5t-40.5 23.5t-39 8q-32 0 -59.5 -24.5t-42.5 -63.5l-111 21q18 89 88 151t148 62q19 0 36.5 -2.5t29 -6t25 -9.5t19.5 -9.5t16.5 -10.5t12.5 -8q4 -3 20 -14t26 -17
t26.5 -12t32.5 -6q33 0 59.5 24t42.5 62z" />
    <glyph glyph-name="endash" unicode="&#x2013;" horiz-adv-x="923" 
d="M27 455l30 198h920l-31 -198h-919z" />
    <glyph glyph-name="emdash" unicode="&#x2014;" horiz-adv-x="1748" 
d="M53 455l31 198h1690l-31 -198h-1690z" />
    <glyph glyph-name="quoteleft" unicode="&#x2018;" horiz-adv-x="653" 
d="M246 938l264 475h207l-219 -475h-252z" />
    <glyph glyph-name="quoteright" unicode="&#x2019;" horiz-adv-x="657" 
d="M231 938l220 475h251l-262 -475h-209z" />
    <glyph glyph-name="quotedblleft" unicode="&#x201c;" horiz-adv-x="1030" 
d="M246 938l262 475h199l-220 -475h-241zM633 938l262 475h199l-220 -475h-241z" />
    <glyph glyph-name="quotedblright" unicode="&#x201d;" horiz-adv-x="1036" 
d="M231 938l222 475h241l-264 -475h-199zM618 938l220 475h243l-264 -475h-199z" />
    <glyph glyph-name="quotedblbase" unicode="&#x201e;" horiz-adv-x="1050" 
d="M43 -240l221 473h242l-264 -473h-199zM430 -240l219 473h244l-264 -473h-199z" />
    <glyph glyph-name="bullet" unicode="&#x2022;" horiz-adv-x="1114" 
d="M199 748q0 132 96.5 228.5t228.5 96.5t228 -96.5t96 -228.5t-96 -229t-228 -97t-228.5 97t-96.5 229z" />
    <glyph glyph-name="ellipsis" unicode="&#x2026;" horiz-adv-x="1812" 
d="M440 154q0 -77 -51 -124.5t-129 -47.5q-63 0 -100 34.5t-37 92.5q0 75 52.5 122.5t131.5 47.5q61 0 97 -34t36 -91zM1044 154q0 -77 -51 -124.5t-129 -47.5q-63 0 -100 34.5t-37 92.5q0 75 52.5 122.5t131.5 47.5q61 0 97 -34t36 -91zM1649 154q0 -76 -52 -124t-129 -48
q-63 0 -100 34.5t-37 92.5q0 75 53 122.5t132 47.5q60 0 96.5 -34t36.5 -91z" />
    <glyph glyph-name="guilsinglleft" unicode="&#x2039;" horiz-adv-x="667" 
d="M385 70l-235 426l370 424l113 -97l-281 -327l180 -330z" />
    <glyph glyph-name="guilsinglright" unicode="&#x203a;" horiz-adv-x="679" 
d="M109 168l280 328l-178 329l147 95l234 -424l-369 -426z" />
    <glyph glyph-name="Euro" unicode="&#x20ac;" horiz-adv-x="1198" 
d="M516 487q-6 -137 53.5 -214.5t171.5 -77.5q49 0 94 12t86 36t61 38.5t52 40.5q2 2 3.5 3t3.5 2.5t3 2.5q31 -91 58 -183q-44 -44 -70 -63q-143 -107 -342 -107q-202 0 -318 131.5t-122 378.5h-129l26 162q19 0 55 1t54 1q4 35 8 66l10 61h-108l27 162h131
q73 222 234.5 358t367.5 136q195 0 325 -117q-49 -105 -102 -207q-29 45 -89.5 81t-154.5 36q-109 0 -191.5 -71.5t-125.5 -215.5h420l-27 -162h-446l-11 -61l-8 -68h447l-27 -162h-420z" />
    <glyph glyph-name="trademark" unicode="&#x2122;" horiz-adv-x="1744" 
d="M1511 586l-38 622h-5l-194 -622h-127l-193 622h-6l-37 -622h-157l61 827h209l184 -596h6l183 596h211l59 -827h-156zM330 586v696h-226v131h607v-131h-226v-696h-155z" />
    <glyph glyph-name="dotlessi" horiz-adv-x="501" 
d="M100 2q-4 60 0 107t21 149l90 555q17 97 8 178h256q3 -76 0 -115t-16 -116l-90 -545q-23 -139 -13 -213h-256z" />
    </font>
</defs>
</svg>
