<?xml version="1.0" standalone="no"?>
<!DOCTYPE svg PUBLIC "-//W3C//DTD SVG 1.1//EN" "http://www.w3.org/Graphics/SVG/1.1/DTD/svg11.dtd" >
<svg xmlns="http://www.w3.org/2000/svg" xmlns:xlink="http://www.w3.org/1999/xlink" version="1.1">
<metadata>
Created by FontForge 20170731 at Fri Sep 18 17:18:55 2020
 By Aleksey,,,
2010 Erik Spiekermann, Christian Schwartz, Kris Sowersby published by FSI FontShop International GmbH
</metadata>
<defs>
<font id="FFUnitSlabPro-Light" horiz-adv-x="1126" >
  <font-face 
    font-family="FF Unit Slab Pro Light"
    font-weight="300"
    font-stretch="normal"
    units-per-em="2048"
    panose-1="2 1 5 4 4 1 1 1 1 2"
    ascent="1638"
    descent="-410"
    x-height="987"
    cap-height="1407"
    bbox="-834 -475 2613 2017"
    underline-thickness="102"
    underline-position="-214"
    unicode-range="U+0020-FB04"
  />
<missing-glyph horiz-adv-x="1040" 
d="M182 1407h676v-1407h-676v1407zM743 115v1177h-446v-1177h446z" />
    <glyph glyph-name="uniFB00" unicode="ff" horiz-adv-x="1169" 
d="M621 1329q-29 16 -65 27q-33 10 -71 10q-78 0 -109 -49q-32 -50 -32 -135v-195h434v197q0 81 20 139q20 57 54 93t82 51q50 16 104 16t105 -15q53 -16 92 -43l-39 -77q-66 38 -141 38q-81 0 -112 -49q-32 -50 -32 -135v-215h201v-90h-201v-805l170 -20v-72h-434v70
l131 18v809h-434v-805l148 -20v-72h-410v70l131 18v809h-119v90h119v176q0 84 19 140q20 57 54 93t81 51t102 15q107 0 186 -55z" />
    <glyph glyph-name="fi" unicode="fi" horiz-adv-x="1116" 
d="M1042 72v-72h-395v72l131 16v809h-434v-805l148 -20v-72h-410v70l131 18v809h-119v90h119v162q0 85 25 151q25 65 68 105q44 41 104 59q63 19 127 19q91 0 153 -25q55 -22 103 -55l-50 -84q-29 21 -81 43q-49 20 -115 20q-103 0 -153 -54q-50 -55 -50 -177v-164h567v-899
z" />
    <glyph glyph-name="fl" unicode="fl" horiz-adv-x="1122" 
d="M1042 72v-72h-395v72l131 16v1227q-34 23 -94 45t-129 22q-105 0 -158 -51t-53 -178v-166h205v-90h-205v-805l148 -20v-72h-410v70l131 18v809h-119v90h119v162q0 88 27 151q29 67 71 105q46 41 107 59q65 19 131 19q83 0 146 -27q66 -28 104 -55l30 67h82v-1380z" />
    <glyph glyph-name="uniFB03" unicode="ffi" horiz-adv-x="1683" 
d="M1104 1483q90 0 153 -25q58 -23 101 -55l-47 -84q-31 21 -84 43q-49 20 -113 20q-104 0 -153 -54q-50 -55 -50 -177v-164h568v-899l131 -16v-72h-396v72l132 16v809h-435v-805l148 -20v-72h-412v70l131 18v809h-434v-805l148 -20v-72h-410v70l131 18v809h-119v90h119v176
q0 84 19 140q20 57 54 93t81 51t102 15t101 -13q49 -14 89 -42l-38 -78q-29 16 -65 27q-33 10 -71 10q-78 0 -109 -49q-32 -50 -32 -135v-195h434v162q0 85 25 151q25 65 68 105q44 41 104 59q63 19 129 19z" />
    <glyph glyph-name="uniFB04" unicode="ffl" horiz-adv-x="1687" 
d="M1479 1468v-1380l131 -16v-72h-396v72l132 16v1227q-32 21 -96 45q-59 22 -128 22q-104 0 -157 -51q-54 -52 -54 -178v-166h203v-90h-203v-805l148 -20v-72h-412v70l131 18v809h-434v-805l148 -20v-72h-410v70l131 18v809h-119v90h119v176q0 84 19 140q20 57 54 93t81 51
t102 15t101 -13q49 -14 89 -42l-38 -78q-29 16 -65 27q-33 10 -71 10q-78 0 -109 -49q-32 -50 -32 -135v-195h434v162q0 88 27 151q28 66 73 105q48 42 107 59q65 19 131 19q84 0 147 -27q64 -27 103 -55l29 67h84z" />
    <glyph glyph-name=".notdef" horiz-adv-x="1040" 
d="M182 1407h676v-1407h-676v1407zM743 115v1177h-446v-1177h446z" />
    <glyph glyph-name=".null" horiz-adv-x="0" 
 />
    <glyph glyph-name="nonmarkingreturn" horiz-adv-x="438" 
 />
    <glyph glyph-name="space" unicode=" " horiz-adv-x="438" 
 />
    <glyph glyph-name="exclam" unicode="!" horiz-adv-x="528" 
d="M182 1407h160l-31 -1016h-98zM264 -16q-48 0 -79 32t-31 80t31 79q32 32 79 32t79 -32t32 -79q0 -46 -32 -80q-31 -32 -79 -32z" />
    <glyph glyph-name="quotedbl" unicode="&#x22;" horiz-adv-x="751" 
d="M168 1452h131l-14 -498h-103zM455 1452h129l-15 -498h-102z" />
    <glyph glyph-name="numbersign" unicode="#" 
d="M659 436h-280l-64 -436h-102l63 436h-184v113h201l51 342h-192v115h210l60 401h102l-59 -401h278l62 401h102l-61 -401h186v-115h-203l-51 -342h195v-113h-211l-66 -436h-102zM395 549h281l51 342h-281z" />
    <glyph glyph-name="dollar" unicode="$" 
d="M526 -20q-236 5 -360 112v254h90l37 -209q45 -34 102 -49q52 -14 131 -14v604q-83 34 -141 67q-59 33 -104 81q-44 47 -65 108q-21 62 -21 147q0 153 89 242q87 87 242 102v228h95v-228q91 -5 154 -24q73 -22 126 -53v-254h-88l-41 194q-33 16 -69 27q-31 9 -82 14v-541
q78 -34 139 -67q62 -34 108 -83q47 -50 70 -114q25 -69 25 -157q0 -71 -20 -136q-20 -64 -61 -114q-42 -51 -107 -86t-154 -45v-232h-95v226zM829 360q0 61 -14 100q-16 45 -41 74q-29 34 -65 56q-44 27 -88 47v-555q55 12 97 38q41 26 64 62q24 38 36 83q11 43 11 95z
M319 1090q0 -53 13 -95q12 -37 39 -68q28 -31 64 -54q33 -21 91 -46v500q-100 -12 -153 -73q-54 -62 -54 -164z" />
    <glyph glyph-name="percent" unicode="%" horiz-adv-x="1667" 
d="M123 973q0 163 79 258q80 96 220 96q142 0 221 -96q80 -97 80 -258q0 -162 -80 -257t-221 -95q-140 0 -220 95q-79 94 -79 257zM594 973q0 151 -45 214q-44 62 -127 62q-85 0 -128 -62q-44 -64 -44 -214q0 -151 44 -213t128 -62t128 62t44 213zM1544 334q0 -163 -79 -258
q-79 -96 -220 -96t-221 96q-80 97 -80 258q0 162 80 257t221 95q140 0 220 -95q79 -94 79 -257zM494 0h-105l787 1303h104zM1071 334q0 -151 45 -214t129 -63q82 0 127 63t45 214t-44 213q-43 61 -128 61q-84 0 -129 -61t-45 -213z" />
    <glyph glyph-name="ampersand" unicode="&#x26;" horiz-adv-x="1308" 
d="M868 666v79h359v-79l-123 -15q-16 -100 -44 -207q-27 -101 -77 -188l131 -164l131 -14v-78h-225l-115 145q-64 -74 -159 -120q-93 -45 -220 -45q-119 0 -200 31q-82 31 -135 86q-50 51 -75 124q-24 69 -24 146q0 79 23 143q24 67 62 115q43 54 96 93q56 41 124 79
q-81 97 -122 176q-39 75 -39 170q0 126 83 205t228 79q143 0 228 -75q87 -76 87 -211q0 -115 -79 -200q-79 -84 -210 -157l345 -440q34 67 51 144q17 75 28 163zM526 72q103 0 182 40q81 41 136 111l-389 502q-111 -62 -162 -142q-51 -81 -51 -206q0 -64 13 -117
q14 -56 46 -97q34 -44 88 -67q56 -24 137 -24zM371 1151q0 -68 33 -127q34 -60 94 -143l20 -27q106 67 156 131q49 62 49 150q0 198 -176 198q-80 0 -128 -49t-48 -133z" />
    <glyph glyph-name="quotesingle" unicode="'" horiz-adv-x="466" 
d="M168 1452h131l-14 -498h-103z" />
    <glyph glyph-name="parenleft" unicode="(" horiz-adv-x="698" 
d="M305 631q0 -179 17 -321q17 -141 53 -242q39 -108 96 -184q59 -79 147 -144l-38 -64q-101 52 -182 136q-80 83 -132 197q-55 120 -81 270q-27 153 -27 350t27 350q26 148 81 269q52 116 132 198q79 82 182 135l38 -63q-86 -64 -147 -145q-58 -77 -96 -183
q-36 -101 -53 -241q-17 -141 -17 -318z" />
    <glyph glyph-name="parenright" unicode=")" horiz-adv-x="698" 
d="M393 631q0 181 -15 318q-15 138 -52 241q-36 101 -98 183q-60 79 -148 145l39 63q101 -52 181 -135q79 -81 133 -198q55 -119 82 -269q28 -159 28 -350t-28 -350q-27 -152 -82 -270q-54 -115 -133 -197q-82 -85 -181 -136l-39 64q90 67 148 144q61 81 98 184t52 242
q15 138 15 321z" />
    <glyph glyph-name="asterisk" unicode="*" horiz-adv-x="915" 
d="M131 1196l268 -84l17 293h84l14 -293l268 82l27 -78l-266 -104l159 -252l-67 -45l-176 231l-178 -233l-68 47l158 252l-267 106z" />
    <glyph glyph-name="plus" unicode="+" 
d="M506 631h-334v104h334v367h117v-367h331v-104h-331v-367h-117v367z" />
    <glyph glyph-name="comma" unicode="," horiz-adv-x="491" 
d="M123 -164q47 21 86 60t39 94q-41 2 -78 25q-37 24 -37 83q0 50 32 80q33 31 75 31q52 0 86 -40t34 -112q0 -95 -50 -175q-49 -78 -163 -107z" />
    <glyph glyph-name="hyphen" unicode="-" horiz-adv-x="591" 
d="M111 610h370v-118h-370v118z" />
    <glyph glyph-name="period" unicode="." horiz-adv-x="487" 
d="M244 -16q-48 0 -80 32q-33 33 -33 82q0 47 33 80t80 33t80 -33q32 -32 32 -80q0 -50 -32 -82t-80 -32z" />
    <glyph glyph-name="slash" unicode="/" horiz-adv-x="739" 
d="M537 1554h116l-503 -1855h-119z" />
    <glyph glyph-name="zero" unicode="0" 
d="M98 700q0 365 118 546t347 181q233 0 349 -177q116 -178 116 -543q0 -727 -463 -727q-233 0 -350 177t-117 543zM883 696q0 326 -75 478q-75 151 -247 151q-171 0 -244 -149t-73 -469q0 -328 73 -477q73 -150 244 -150q172 0 247 147t75 469z" />
    <glyph glyph-name="one" unicode="1" 
d="M203 82l332 18v1131l-304 -154l-41 64l394 266h88v-1307l307 -18v-82h-776v82z" />
    <glyph glyph-name="two" unicode="2" 
d="M946 0h-805v111q198 171 317 309t186 254q66 114 89 207q23 94 23 170q0 139 -66 202q-67 64 -182 64q-88 0 -162 -31q-68 -28 -149 -86l-50 86q78 62 171 102q90 39 202 39q83 0 152 -21q70 -21 120 -68t78 -116q29 -72 29 -169q0 -87 -31 -195q-28 -99 -103 -222
q-69 -114 -191 -248q-122 -135 -289 -271h659z" />
    <glyph glyph-name="three" unicode="3" 
d="M487 -20q-111 0 -197 21q-83 20 -159 56l25 88q69 -29 151 -45q80 -16 174 -16q167 0 247 83q79 82 79 239q0 84 -23 144q-22 58 -64 92q-39 32 -103 48q-60 15 -136 15h-94v100h98q145 0 211 71q66 70 66 197q0 111 -62 178q-62 66 -186 66q-47 0 -88 -6q-40 -6 -78 -18
q-47 -15 -73 -27q-36 -16 -74 -37l-41 86q88 55 174 84q84 28 196 28q94 0 160 -26q72 -28 117 -73q50 -50 72 -107q24 -61 24 -134q0 -125 -60 -211t-173 -116q56 -10 111 -38q51 -26 90 -73q40 -48 61 -106q22 -60 22 -142q0 -199 -115 -310t-352 -111z" />
    <glyph glyph-name="four" unicode="4" 
d="M104 440l437 967h127l-447 -977h512v588l137 29v-617h160v-104h-160v-326h-137v326h-629v114z" />
    <glyph glyph-name="five" unicode="5" 
d="M905 1292h-540l-41 -428q31 10 73 16q46 7 92 7q98 0 184 -28q82 -27 143 -83q60 -56 93 -136q33 -81 33 -185q0 -220 -127 -347q-128 -128 -360 -128q-109 0 -186 20q-79 20 -146 51l27 88q62 -25 141 -41q69 -14 158 -14q185 0 267 96q83 97 83 271q0 176 -90 257
q-89 80 -242 80q-77 0 -136 -11q-66 -12 -124 -34l61 664h637v-115z" />
    <glyph glyph-name="six" unicode="6" 
d="M594 -20q-101 0 -182 36q-85 38 -145 110q-61 73 -95 182q-35 111 -35 255q0 202 49 349t142 252q92 104 224 167t300 96l27 -88q-127 -29 -231 -77q-100 -46 -175 -119t-119 -172q-45 -100 -63 -238q54 54 136 95q80 40 187 40q82 0 157 -27q73 -26 131 -83
q56 -54 89 -136q33 -81 33 -188q0 -112 -33 -197q-33 -86 -90 -143q-58 -58 -136 -86t-171 -28zM594 764q-98 0 -174 -36q-72 -34 -135 -89q-2 -30 -2 -43v-47q0 -242 84 -359q83 -116 231 -116q279 0 279 352q0 168 -76 253t-207 85z" />
    <glyph glyph-name="seven" unicode="7" 
d="M233 1122h-79v285h841v-125q-96 -116 -172 -247q-79 -136 -142 -299q-63 -162 -103 -351q-43 -199 -54 -403l-147 16q21 230 74 427q51 189 126 355q73 161 155 288q80 124 163 224h-633z" />
    <glyph glyph-name="eight" unicode="8" 
d="M565 -20q-205 0 -324 98q-120 99 -120 282q0 75 23 130q24 58 66 101q46 47 98 79q58 35 124 63q-71 32 -120 74q-47 40 -78 86q-29 44 -43 94q-13 48 -13 100q0 77 27 140q28 65 76 107q53 47 119 69q70 24 159 24q184 0 287 -89q102 -88 102 -242q0 -111 -63 -198
t-203 -153q97 -40 152 -78q62 -42 99 -90t54 -104q17 -57 17 -119q0 -89 -32 -159q-32 -71 -89 -117q-58 -48 -139 -73q-79 -25 -179 -25zM504 692q-119 -60 -181 -134q-63 -75 -63 -202q0 -147 83 -216q81 -68 224 -68q138 0 216 68q79 69 79 188q0 55 -10 96t-38 80
q-22 31 -75 70q-46 34 -118 67zM313 1104q0 -90 47 -158q46 -68 168 -123l76 -35q63 33 106 71q38 34 62 75q22 39 30 80q7 38 7 88q0 115 -65 175q-64 60 -183 60q-117 0 -182 -62q-66 -63 -66 -171z" />
    <glyph glyph-name="nine" unicode="9" 
d="M539 1427q100 0 181 -34q82 -34 144 -107q60 -71 95 -182q34 -109 34 -262q0 -201 -51 -348t-147 -252t-236 -168q-144 -65 -313 -97l-27 91q138 35 245 81q104 45 184 117q77 70 124 166q49 100 66 229q-59 -54 -137 -91q-81 -38 -179 -38q-82 0 -158 29q-77 29 -133 84
q-57 55 -91 137q-34 81 -34 189q0 111 33 197q34 87 91 143q58 57 138 87q77 29 171 29zM543 639q93 0 169 35q70 32 134 88q2 30 2 43v49q0 242 -83 361q-82 118 -230 118q-136 0 -209 -88q-74 -89 -74 -264q0 -171 80 -257q79 -85 211 -85z" />
    <glyph glyph-name="colon" unicode=":" horiz-adv-x="514" 
d="M256 580q-48 0 -80 32q-33 33 -33 80q0 46 33 81q33 34 80 34t80 -34q33 -35 33 -81q0 -47 -33 -80q-32 -32 -80 -32zM256 -16q-48 0 -80 32q-33 33 -33 82q0 47 33 80t80 33t80 -33t33 -80q0 -49 -33 -82q-32 -32 -80 -32z" />
    <glyph glyph-name="semicolon" unicode=";" horiz-adv-x="516" 
d="M256 580q-48 0 -80 32q-33 33 -33 80q0 46 33 81q33 34 80 34t80 -34q33 -35 33 -81q0 -47 -33 -80q-32 -32 -80 -32zM137 -164q47 21 86 60q39 38 37 94q-40 2 -77 25q-38 24 -38 83q0 50 32 80q33 31 75 31q54 0 88 -40q35 -41 35 -112q0 -95 -50 -175
q-49 -78 -163 -107z" />
    <glyph glyph-name="less" unicode="&#x3c;" 
d="M313 711l426 401l72 -72l-375 -356l375 -352l-72 -74l-426 401v52z" />
    <glyph glyph-name="equal" unicode="=" 
d="M168 922h790v-107h-790v107zM168 553h790v-107h-790v107z" />
    <glyph glyph-name="greater" unicode="&#x3e;" 
d="M811 659l-426 -401l-72 74l375 354l-375 354l72 72l426 -401v-52z" />
    <glyph glyph-name="question" unicode="?" horiz-adv-x="854" 
d="M311 565q0 65 12 108q14 49 30 77q20 34 46 57q7 6 27 23.5t31 27.5q29 24 58 51q24 23 44 54q20 32 28 65q9 38 9 90q0 98 -48 158q-47 59 -155 59q-51 0 -95 -10q-45 -10 -81 -29l-43 -174h-84v215q58 40 140 65q81 25 173 25q145 0 236 -73q92 -74 92 -232
q0 -74 -15 -125t-42 -90t-64 -70q-57 -48 -78 -65q-64 -51 -89 -92q-27 -44 -27 -117v-172h-105v174zM371 -16q-48 0 -79 32q-32 34 -32 80q0 47 32 79t79 32q48 0 78 -32t30 -79t-30 -80q-29 -32 -78 -32z" />
    <glyph glyph-name="at" unicode="@" horiz-adv-x="1640" 
d="M694 117q38 0 72 12t65 32q40 26 59 43q10 9 27.5 23.5t24.5 20.5l105 477q-42 47 -86 76q-45 30 -109 30q-62 0 -107 -32q-47 -33 -86 -107q-14 -27 -37 -89q-15 -42 -31 -103q-13 -50 -21 -107q-7 -49 -7 -100q0 -176 131 -176zM948 170q-52 -57 -124 -101
q-71 -44 -160 -44q-103 0 -167 70q-65 71 -65 208q0 113 31 235q29 113 94 216q111 168 285 168q86 0 136 -39t87 -84l53 104h92l-131 -600q-9 -41 -10 -58q-2 -32 -2 -46q0 -48 22 -79q21 -30 76 -30q117 0 186 122q68 120 68 345q0 150 -28 263q-28 114 -94 195
q-64 79 -168 121q-103 42 -252 42q-164 0 -290 -64q-124 -63 -205 -174q-82 -112 -122 -258q-41 -149 -41 -315q0 -295 126 -444q126 -148 403 -148q102 0 176 12q73 12 133 33l28 -82q-75 -23 -150 -39q-77 -16 -185 -16q-328 0 -487 176q-159 175 -159 510q0 182 51 350
q50 166 148 286q100 122 242 192q145 71 332 71q172 0 298 -53q124 -52 203 -146q81 -96 118 -225q38 -132 38 -287q0 -125 -26 -229q-26 -106 -74 -175q-50 -72 -119 -113q-68 -40 -158 -40q-104 0 -152 49q-50 51 -57 121z" />
    <glyph glyph-name="A" unicode="A" horiz-adv-x="1218" 
d="M827 461h-458l-109 -363l146 -20v-78h-394v78l127 18l404 1311h139l408 -1311l116 -18v-78h-411v78l143 18zM395 553h406l-131 428q-29 94 -44 169q-20 104 -26 136h-2q-9 -53 -29 -136q-15 -64 -47 -169z" />
    <glyph glyph-name="B" unicode="B" horiz-adv-x="1167" 
d="M639 92q164 0 230 80q67 81 67 223t-65 218q-65 75 -228 75h-254v-596h250zM639 778q136 0 186 68q49 67 49 188q0 62 -12 113q-11 48 -40 88q-26 36 -74 58q-49 22 -117 22h-242v-537h250zM633 1407q105 0 181 -29q74 -28 120 -79q43 -48 65 -117q21 -68 21 -148
q0 -109 -49 -183q-50 -76 -150 -106q56 -12 104 -39q46 -26 84 -72q34 -41 56 -106q20 -59 20 -141q0 -104 -31 -175q-32 -74 -89 -120q-56 -46 -139 -69t-177 -23h-547v78l146 12v1223l-146 16v78h531z" />
    <glyph glyph-name="C" unicode="C" horiz-adv-x="1077" 
d="M649 -20q-143 0 -245 48q-100 47 -165 139q-67 95 -96 225q-30 134 -30 306q0 168 30 303q30 134 96 231t164 145q102 50 240 50q100 0 188 -19t150 -67v-254h-88l-37 205q-48 23 -98 32q-51 9 -111 9q-111 0 -184 -42q-75 -43 -118 -123q-44 -83 -62 -197
q-19 -123 -19 -266q0 -145 19 -270q18 -116 62 -197q44 -80 119 -122t187 -42q131 0 230 45l34 198h82v-251q-67 -46 -156 -66q-87 -20 -192 -20z" />
    <glyph glyph-name="D" unicode="D" horiz-adv-x="1245" 
d="M590 92q116 0 192 36q75 35 121 110q46 76 64 187q18 114 18 269q0 168 -17 279q-17 114 -62 192q-42 74 -121 113q-75 37 -193 37h-203v-1223h201zM575 1407q147 0 253 -38t173 -123q70 -88 99 -220q30 -135 30 -330q0 -201 -33 -329q-34 -132 -105 -215
q-70 -82 -179 -117q-110 -35 -256 -35h-455v78l146 12v1223l-146 16v78h473z" />
    <glyph glyph-name="E" unicode="E" horiz-adv-x="1073" 
d="M815 555h-76l-24 137h-326v-600h475l27 193h88v-285h-877v78l146 12v1223l-146 16v78h852v-281h-88l-28 189h-449v-531h326l24 138h76v-367z" />
    <glyph glyph-name="F" unicode="F" horiz-adv-x="1019" 
d="M586 80v-80h-484v78l146 12v1225l-146 14v78h852v-283h-88l-28 191h-449v-541h326l24 144h76v-377h-76l-24 143h-326v-592z" />
    <glyph glyph-name="G" unicode="G" horiz-adv-x="1169" 
d="M680 582v80h354v-662h-88l-24 104q-51 -54 -137 -90q-81 -34 -183 -34q-248 0 -369 180q-120 178 -120 538q0 166 28 299q29 136 92 231q63 94 164 147q100 52 244 52q103 0 187 -20q88 -21 149 -68v-249h-88l-37 202q-48 23 -97 32q-50 9 -110 9q-115 0 -188 -45
q-74 -45 -117 -127q-42 -79 -60 -198q-18 -117 -18 -261q0 -142 19 -266q18 -114 59 -197q40 -80 109 -123q67 -42 163 -42q86 0 157 31q73 32 126 88v372z" />
    <glyph glyph-name="H" unicode="H" horiz-adv-x="1380" 
d="M848 78l143 12v608h-602v-608l146 -12v-78h-433v78l146 12v1223l-146 16v78h433v-78l-146 -16v-518h602v518l-143 16v78h430v-78l-145 -16v-1223l145 -12v-78h-430v78z" />
    <glyph glyph-name="I" unicode="I" horiz-adv-x="636" 
d="M102 78l146 12v1223l-146 16v78h433v-78l-146 -16v-1223l146 -12v-78h-433v78z" />
    <glyph glyph-name="J" unicode="J" horiz-adv-x="585" 
d="M365 197q0 -103 -17 -180q-17 -75 -52 -130q-35 -54 -94 -95q-58 -40 -143 -75l-41 72q55 33 91 60q37 28 65 69q27 39 39 93t12 134v1168l-145 16v78h430v-78l-145 -16v-1116z" />
    <glyph glyph-name="K" unicode="K" horiz-adv-x="1185" 
d="M102 78l146 12v1223l-146 16v78h433v-78l-146 -16v-1223l146 -12v-78h-433v78zM1180 78v-78h-248l-510 745l467 564l-150 20v78h410v-78l-135 -18l-447 -543l467 -678z" />
    <glyph glyph-name="L" unicode="L" horiz-adv-x="1009" 
d="M389 92h475l29 215h88v-307h-879v78l146 12v1223l-146 16v78h433v-78l-146 -16v-1221z" />
    <glyph glyph-name="M" unicode="M" horiz-adv-x="1542" 
d="M432 1407l262 -756q31 -90 44 -143q19 -78 24 -109h2l9 45q1 5 13 53q4 16 20 66q10 32 30 88l272 756h332v-78l-146 -16v-1221l146 -14v-78h-432v78l145 14v838q0 94 1 132q0 17 0.5 50t1.5 48q2 44 3 71q2 38 2 53h-2q-6 -24 -35 -128q-26 -91 -67 -204l-250 -682h-113
l-239 670q-24 67 -38 112q-19 60 -26 88q-3 13 -9.5 37.5t-9.5 36.5q-17 64 -18 70h-4q1 -34 5 -151q3 -83 3 -205v-836l146 -14v-78h-402v78l146 14v1221l-146 16v78h330z" />
    <glyph glyph-name="N" unicode="N" horiz-adv-x="1333" 
d="M848 1329v78h399v-78l-143 -16v-1313h-131l-477 924q-53 101 -94 188q-30 63 -56 137h-2q5 -60 10 -175q4 -92 4 -226v-758l144 -12v-78h-400v78l146 12v1223l-146 16v78h281l483 -938q36 -69 83 -170q35 -73 57 -141h2q-7 88 -11 161q-4 80 -4 199v795z" />
    <glyph glyph-name="O" unicode="O" horiz-adv-x="1232" 
d="M621 -20q-259 0 -384 180q-124 179 -124 538q0 354 128 542q127 187 375 187q249 0 376 -185q128 -187 128 -535q0 -362 -120 -545q-119 -182 -379 -182zM616 76q194 0 273 151q80 152 80 465q0 321 -82 479q-83 160 -271 160q-186 0 -269 -156q-83 -157 -83 -470
q0 -318 81 -474q80 -155 271 -155z" />
    <glyph glyph-name="P" unicode="P" horiz-adv-x="1089" 
d="M618 666q269 0 269 327q0 159 -66 242q-66 82 -217 82h-215v-651h229zM612 1407q216 0 319 -104t103 -304q0 -208 -101 -316q-102 -110 -312 -110h-232v-483l197 -10v-80h-484v78l146 12v1223l-146 16v78h510z" />
    <glyph glyph-name="Q" unicode="Q" horiz-adv-x="1232" 
d="M1120 707q0 -312 -95 -499q-94 -186 -310 -210l442 -109l-45 -131l-643 234q-173 63 -265 231q-91 167 -91 475q0 354 128 542q127 187 375 187q249 0 376 -185q128 -187 128 -535zM616 72q194 0 273 153q80 154 80 467q0 321 -82 479q-83 160 -271 160q-186 0 -269 -156
q-83 -157 -83 -470q0 -319 81 -476t271 -157z" />
    <glyph glyph-name="R" unicode="R" horiz-adv-x="1202" 
d="M610 719q152 0 212 81q61 82 61 224q0 68 -15 121q-16 56 -47 91q-32 37 -87 58q-54 21 -132 21h-213v-596h221zM1186 78v-78h-258l-142 412q-40 120 -94 168q-53 47 -145 47h-158v-537l146 -12v-78h-433v78l146 12v1223l-146 16v78h510q91 0 169 -23t132 -68
q57 -47 86 -118q31 -74 31 -170q0 -161 -79 -253t-222 -113v-5q60 -17 112 -67q53 -51 87 -150l121 -350z" />
    <glyph glyph-name="S" unicode="S" horiz-adv-x="997" 
d="M473 -20q-244 0 -371 112v254h91l36 -209q45 -34 104 -49q53 -14 132 -14q87 0 143 22q58 23 92 63q37 43 51 91q15 51 15 110q0 70 -21 117q-22 49 -57 81q-34 31 -90 60q-49 25 -121 54q-90 35 -147 68q-66 38 -109 82q-44 46 -67 109q-23 64 -23 150q0 166 105 256
t280 90q100 0 179 -21q82 -22 143 -58v-254h-88l-41 194q-36 19 -85 32q-43 11 -110 11q-126 0 -191 -62q-67 -64 -67 -179q0 -63 16 -105q17 -44 50 -74q36 -33 82 -55q47 -23 116 -51q84 -35 154 -71q72 -38 120 -84q51 -49 77 -116q28 -72 28 -167q0 -76 -25 -149
t-76 -124q-55 -55 -132 -84q-80 -30 -193 -30z" />
    <glyph glyph-name="T" unicode="T" horiz-adv-x="1085" 
d="M315 78l158 12v1225h-303l-27 -254h-88v346h977v-346h-88l-29 254h-303v-1225l158 -12v-78h-455v78z" />
    <glyph glyph-name="U" unicode="U" horiz-adv-x="1306" 
d="M348 1407v-989q0 -174 60 -253t184 -79q64 0 113 13q54 14 92 34q39 20 73 45q35 26 58 47v1088l-146 16v78h287v-1317l143 -12v-78h-249l-25 137q-57 -56 -152 -108q-89 -49 -206 -49q-82 0 -151 21q-66 20 -118 72q-50 50 -77 130q-27 79 -27 196v914l-146 16v78h287z
" />
    <glyph glyph-name="V" unicode="V" horiz-adv-x="1210" 
d="M668 0h-136l-393 1311l-127 18v78h418v-78l-143 -18l256 -885q39 -135 51 -205q8 -45 18 -100h4q0 5 7 40q3 14 12 59q5 25 20 86q13 52 33 122l258 881l-143 20v78h395v-78l-131 -18z" />
    <glyph glyph-name="W" unicode="W" horiz-adv-x="1710" 
d="M1698 1329l-133 -18l-275 -1311h-162l-204 872q-13 56 -23 107q-11 53 -18 102q-1 8 -6.5 41t-7.5 49q-6 56 -7 72h-4q-4 -27 -9 -73q-4 -40 -12 -91q-7 -49 -18 -102q-15 -77 -22 -105l-207 -872h-162l-289 1311l-127 18v78h416v-78l-145 -18l176 -826q26 -117 40 -206
q12 -77 19 -158h4q16 115 25 169q17 108 41 206l215 911h127l217 -907q23 -100 39 -201q11 -69 26 -178h2q12 88 28 170q7 35 21 108.5t19 100.5l168 811l-141 18v78h389v-78z" />
    <glyph glyph-name="X" unicode="X" horiz-adv-x="1243" 
d="M31 76l129 14l391 658l-318 563l-129 18v78h418v-78l-135 -18l252 -469l256 469l-141 18v78h387v-78l-125 -18l-311 -543l376 -678l131 -14v-76h-424v76l140 14l-318 574l-329 -574l155 -14v-76h-405v76z" />
    <glyph glyph-name="Y" unicode="Y" horiz-adv-x="1161" 
d="M360 78l148 12v467l-361 754l-124 18v78h430v-78l-152 -18l217 -469q25 -54 48 -107q21 -48 32 -90q11 41 31 87q4 9 13 28.5t18 40.5t18 41l215 469l-145 18v78h391v-78l-131 -18l-359 -756v-465l148 -12v-78h-437v78z" />
    <glyph glyph-name="Z" unicode="Z" horiz-adv-x="1019" 
d="M90 96l690 1221h-534l-31 -203h-88v293h803v-98l-692 -1219h567l31 211h90v-301h-836v96z" />
    <glyph glyph-name="bracketleft" unicode="[" horiz-adv-x="622" 
d="M317 -225l218 -17v-77h-347v1855h347v-78l-218 -16v-1667z" />
    <glyph glyph-name="backslash" unicode="\" horiz-adv-x="739" 
d="M84 1554h117l506 -1855h-117z" />
    <glyph glyph-name="bracketright" unicode="]" horiz-adv-x="622" 
d="M307 1442l-219 16v78h346v-1855h-346v77l219 17v1667z" />
    <glyph glyph-name="asciicircum" unicode="^" horiz-adv-x="962" 
d="M420 1450h121l293 -530h-109l-244 399l-243 -399h-111z" />
    <glyph glyph-name="underscore" unicode="_" horiz-adv-x="606" 
d="M-6 -164h618v-98h-618v98z" />
    <glyph glyph-name="grave" unicode="`" horiz-adv-x="1116" 
d="M696 1126l-379 193l74 123l344 -254z" />
    <glyph glyph-name="a" unicode="a" horiz-adv-x="962" 
d="M383 76q85 0 141 32q55 31 101 85v307h-88q-171 0 -247 -46q-77 -47 -77 -173q0 -112 46 -158q47 -47 124 -47zM895 4q-28 -12 -64 -18q-35 -6 -63 -6q-127 0 -137 122q-45 -48 -107 -85t-159 -37q-133 0 -209 69t-76 219q0 170 106 242t334 72h105v123q0 84 -36 141
t-132 57q-81 0 -153 -21q-67 -20 -142 -57l-39 80q71 42 164 73q90 30 196 30q137 0 206 -69t69 -224v-551q0 -33 6 -51q7 -20 20 -29q15 -11 38 -12q32 -2 61 -2z" />
    <glyph glyph-name="b" unicode="b" horiz-adv-x="1030" 
d="M170 1368l-133 21v79h264v-604q52 59 127 102q74 42 160 42q74 0 135 -27q60 -26 107 -87q46 -60 72 -158q26 -99 26 -240q0 -139 -26 -240q-25 -96 -73 -160q-47 -63 -112 -89q-66 -27 -146 -27q-91 0 -163 42t-119 95l-29 -117h-90v1368zM555 76q123 0 178 96
q55 95 55 311q0 117 -12 197q-12 77 -40 129q-27 49 -69 72q-41 22 -100 22q-83 0 -147 -38q-63 -37 -119 -89v-575q50 -48 118 -88q64 -37 136 -37z" />
    <glyph glyph-name="c" unicode="c" horiz-adv-x="866" 
d="M489 -20q-84 0 -155 28q-72 28 -123 90q-52 62 -80 159q-29 99 -29 237q0 135 29 234q28 97 81 160q52 63 124 91q73 29 156 29q88 0 160 -25q67 -23 122 -72v-188h-92l-29 149q-36 26 -70 37q-41 13 -91 13q-125 0 -188 -99q-62 -97 -62 -327q0 -124 17 -200
q18 -83 52 -131q36 -51 86 -72q51 -21 119 -21q70 0 129 22q57 21 111 58l47 -64q-65 -50 -134 -78q-75 -30 -180 -30z" />
    <glyph glyph-name="d" unicode="d" horiz-adv-x="1064" 
d="M729 117q-46 -52 -120 -95q-72 -42 -160 -42q-80 0 -143 28t-109 92q-47 65 -70 162q-25 103 -25 238q0 137 27 233t74 158t111 89q67 28 141 28q86 0 150 -37q67 -39 118 -90v487l-133 21v79h264v-1376l133 -20v-72h-237zM467 78q75 0 141 39q63 37 115 86v575
q-58 58 -116 93q-56 34 -134 34q-121 0 -176 -93q-55 -92 -55 -314q0 -122 14 -198q15 -80 42 -130t71 -71t98 -21z" />
    <glyph glyph-name="e" unicode="e" horiz-adv-x="931" 
d="M502 -20q-93 0 -164 26q-75 28 -127 87q-53 61 -83 159q-30 99 -30 242q0 136 29 237q28 97 80 160q51 62 121 89q72 28 153 28q172 0 264 -112q93 -113 93 -366v-51h-602q2 -221 69 -314t219 -93q80 0 139 22q61 23 113 60l47 -66q-71 -56 -141 -81q-76 -27 -180 -27z
M479 922q-111 0 -171 -82q-59 -82 -70 -275h462q0 190 -49 273q-49 84 -172 84z" />
    <glyph glyph-name="f" unicode="f" horiz-adv-x="604" 
d="M514 72v-72h-432v70l131 18v809h-119v90h119v197q0 83 19 139q20 57 54 93t81 51q50 16 104 16q53 0 104 -15q55 -16 93 -43l-39 -77q-64 38 -142 38q-80 0 -111 -49q-32 -50 -32 -135v-215h201v-90h-201v-805z" />
    <glyph glyph-name="g" unicode="g" horiz-adv-x="940" 
d="M471 -432q-106 0 -176 20q-75 22 -122 58q-49 38 -71 87q-22 48 -22 107q0 89 49 144q49 56 111 90q-50 17 -75 55q-26 40 -26 86q0 72 38 125q37 51 83 90q-61 38 -97 102q-38 67 -38 158q0 156 95 237q94 81 251 81q83 0 139 -21h293v-78l-168 -18q38 -35 59 -89
t21 -114q0 -153 -94 -234q-95 -81 -248 -81q-37 0 -76 6q-37 6 -71 18q-34 -35 -54 -70q-20 -34 -20 -77q0 -29 21 -50q22 -22 69 -22h213q159 0 244 -70q86 -71 86 -217q0 -151 -104 -237t-310 -86zM313 57q-47 -38 -75 -89q-29 -53 -29 -126q0 -42 14 -74q15 -35 45 -59
q29 -23 81 -39q46 -14 122 -14q154 0 221 58q68 59 68 165q0 88 -50 133t-147 45h-250zM469 459q213 0 213 235q0 122 -51 175t-162 53q-100 0 -155 -58q-54 -57 -54 -182q0 -119 56 -171t153 -52z" />
    <glyph glyph-name="h" unicode="h" horiz-adv-x="1120" 
d="M358 860q68 65 147 106q81 42 169 42q117 0 183 -63q67 -64 67 -195v-662l127 -18v-70h-260v717q0 95 -37 136q-38 42 -113 42q-69 0 -146 -36q-76 -36 -137 -89v-682l134 -16v-72h-396v72l131 16v1280l-133 21v79h264v-608z" />
    <glyph glyph-name="i" unicode="i" horiz-adv-x="563" 
d="M492 72v-72h-396v72l131 16v795l-133 18v86h264v-899zM276 1206q-43 0 -70 29q-28 30 -28 72q0 41 28 71q27 29 70 29q42 0 72 -28q29 -27 29 -72q0 -43 -29 -72t-72 -29z" />
    <glyph glyph-name="j" unicode="j" horiz-adv-x="509" 
d="M49 -348q44 27 73 52q31 26 48 59q20 39 27 79q8 48 8 109v932l-133 18v86h264v-1007q0 -93 -17 -158t-48 -109q-32 -46 -77 -75q-51 -33 -104 -58zM254 1206q-42 0 -69 29t-27 72t27 71q27 29 69 29q45 0 73 -28q27 -27 27 -72q0 -43 -27 -72t-73 -29z" />
    <glyph glyph-name="k" unicode="k" horiz-adv-x="1013" 
d="M705 891l-125 14v82h362v-84l-123 -16l-297 -322l346 -475l125 -18v-72h-211l-397 545zM358 88l134 -16v-72h-396v72l131 16v1280l-133 21v79h264v-1380z" />
    <glyph glyph-name="l" unicode="l" horiz-adv-x="569" 
d="M227 1368l-133 21v79h264v-1380l134 -16v-72h-396v72l131 16v1280z" />
    <glyph glyph-name="m" unicode="m" horiz-adv-x="1630" 
d="M649 1008q92 0 153 -38q60 -38 83 -118q69 71 139 112q74 44 162 44q116 0 181 -63t65 -195v-666l129 -18v-66h-261v709q0 97 -34 141q-34 45 -113 45q-69 0 -134 -36q-62 -34 -124 -89v-682l129 -18v-70h-260v709q0 95 -35 141q-34 45 -113 45q-70 0 -134 -36
q-62 -34 -124 -89v-682l134 -18v-70h-396v70l131 18v795l-133 20v84h240l18 -133q69 69 137 110q73 44 160 44z" />
    <glyph glyph-name="n" unicode="n" horiz-adv-x="1120" 
d="M791 717q0 95 -37 136q-38 42 -113 42q-71 0 -146 -37q-79 -39 -137 -88v-682l134 -18v-70h-396v70l131 18v795l-133 20v84h240l18 -133q68 68 148 110q83 44 174 44q117 0 183 -63q67 -64 67 -195v-662l127 -18v-70h-260v717z" />
    <glyph glyph-name="o" unicode="o" horiz-adv-x="995" 
d="M500 -20q-88 0 -160 28q-74 29 -128 90q-54 62 -84 159t-30 237q0 136 30 234t82 160t125 91t159 29q84 0 160 -29t128 -90q55 -64 84 -159q31 -101 31 -234q0 -137 -30 -236q-30 -98 -82 -161q-52 -62 -126 -91q-72 -28 -159 -28zM498 68q134 0 196 96q62 97 62 325
q0 230 -62 330q-62 99 -196 99q-135 0 -197 -97q-61 -95 -61 -325q0 -233 62 -330q62 -98 196 -98z" />
    <glyph glyph-name="p" unicode="p" horiz-adv-x="1073" 
d="M338 858q51 59 130 105q76 45 163 45q73 0 136 -27q62 -27 106 -87q45 -62 70 -159q26 -101 26 -241q0 -268 -98 -392q-97 -122 -257 -122q-95 0 -158 36q-68 39 -112 90v-436l131 -18v-66h-395v66l131 18v1213l-131 20v84h237zM600 76q124 0 176 96q53 97 53 311
q0 119 -12 200q-12 79 -38 130t-67 71q-42 21 -102 21q-81 0 -147 -39q-67 -40 -119 -90v-575q50 -48 118 -88q64 -37 138 -37z" />
    <glyph glyph-name="q" unicode="q" horiz-adv-x="1017" 
d="M756 987h98v-1317l131 -18v-66h-393v66l131 18v441q-46 -46 -115 -89q-68 -42 -155 -42q-80 0 -143 28q-62 28 -110 92q-46 63 -72 162q-26 101 -26 238t27 233t74 158t111 89q67 28 141 28q86 0 153 -37q70 -39 121 -97zM469 78q75 0 140 39q63 38 114 86v577
q-60 57 -116 91t-134 34q-121 0 -176 -93q-55 -92 -55 -314q0 -122 14 -198q15 -82 43 -130q29 -50 72 -71q44 -21 98 -21z" />
    <glyph glyph-name="r" unicode="r" horiz-adv-x="714" 
d="M526 72v-72h-440v70l133 18v795l-133 20v84h238l22 -168q38 46 58 68q26 28 65 59q35 27 75 42q43 16 87 16q25 0 39 -7l-19 -141q-24 6 -53 6q-72 0 -130 -35q-57 -35 -118 -94v-641z" />
    <glyph glyph-name="s" unicode="s" horiz-adv-x="823" 
d="M387 -20q-94 0 -166 19q-74 20 -125 54v199h90l31 -152q37 -16 76 -25q37 -9 96 -9q111 0 163 48t52 136q0 46 -11 75q-12 31 -37 55t-68 42q-52 22 -101 37q-52 16 -106 41q-51 23 -85 56q-36 35 -57 82q-20 46 -20 116q0 51 18 97t56 81t93 55q57 21 132 21
q83 0 154 -17q69 -17 120 -45v-194h-88l-33 141q-33 17 -69 21q-50 6 -78 6q-85 0 -137 -41q-51 -41 -51 -115q0 -79 46 -116t150 -70q61 -18 115 -41q52 -22 94 -58q41 -35 65 -87q23 -50 23 -132q0 -142 -93 -211t-249 -69z" />
    <glyph glyph-name="t" unicode="t" horiz-adv-x="616" 
d="M76 987h119v260l131 31v-291h204v-90h-204v-713q0 -110 104 -110q27 0 59 8t56 20l22 -77q-32 -21 -79 -34q-40 -11 -103 -11q-41 0 -74 10q-35 10 -60 33q-27 24 -41 59q-15 38 -15 92v723h-119v90z" />
    <glyph glyph-name="u" unicode="u" horiz-adv-x="1107" 
d="M621 901v86h264v-889l133 -20v-78h-238l-18 123q-65 -64 -141 -103q-77 -40 -164 -40q-119 0 -187 64q-69 64 -69 198v641l-131 18v86h264v-715q0 -98 38 -142t115 -44q68 0 137 33q66 31 128 86v678z" />
    <glyph glyph-name="v" unicode="v" horiz-adv-x="972" 
d="M606 903v84h348v-84l-108 -16l-299 -887h-133l-295 889l-101 14v84h361v-84l-119 -16l164 -522q22 -72 42 -148q17 -64 28 -135h2q13 79 27 132q27 100 44 153l168 522z" />
    <glyph glyph-name="w" unicode="w" horiz-adv-x="1404" 
d="M1047 903v84h342v-84l-105 -16l-235 -887h-129l-172 631q-18 62 -29 123q-14 75 -17 104h-2q-11 -69 -17 -101q-13 -71 -28 -126l-166 -631h-133l-239 889l-99 14v84h361v-84l-127 -16l131 -518q14 -66 16 -75q2 -11 7.5 -37t7.5 -39t5.5 -34t4.5 -29l6 -36h4q0 13 4 37
q2 9 5.5 29.5t5.5 31.5q4 23 14 73q4 20 16 68l170 629h125l168 -618q13 -43 19 -75q7 -36 15 -76q3 -16 11 -62q5 -30 6 -37h2q2 14 6 38q5 27 12 63q3 14 7.5 40t6.5 35q8 43 15 70l136 524z" />
    <glyph glyph-name="x" unicode="x" horiz-adv-x="1007" 
d="M395 72v-72h-360v72l117 16l284 428l-237 371l-107 16v84h365v-84l-113 -16l172 -287h2l178 289l-108 14v84h330v-84l-113 -16l-232 -357l285 -440l115 -18v-72h-391v72l133 16l-221 354h-5l-227 -354z" />
    <glyph glyph-name="y" unicode="y" horiz-adv-x="966" 
d="M606 903v84h348v-84l-106 -16l-285 -907q-35 -110 -68 -174q-35 -67 -81 -113q-45 -45 -102 -72q-54 -26 -132 -47l-33 100q70 18 120 44q47 24 87 64q35 35 64 91q24 47 47 127h-55l-289 889l-103 14v84h361v-84l-121 -16l172 -557q22 -74 39 -146q18 -77 25 -123h2
q15 75 27 119q18 66 42 150l172 559z" />
    <glyph glyph-name="z" unicode="z" horiz-adv-x="837" 
d="M80 98l530 801h-374l-27 -143h-86v231h618v-104l-528 -795h438l23 154h84v-242h-678v98z" />
    <glyph glyph-name="braceleft" unicode="{" horiz-adv-x="712" 
d="M74 649q102 0 145 40t43 138v478q0 62 20 107q21 47 53 72q37 29 79 40q45 12 98 12h129v-82h-115q-74 0 -104 -38q-31 -39 -31 -118v-473q0 -56 -13 -92q-13 -37 -36 -61q-22 -23 -50 -39q-27 -15 -59 -23v-4q34 -8 59 -21q27 -14 50 -38q22 -23 36 -63q13 -36 13 -93
v-473q0 -79 31 -118q30 -38 104 -38h115v-81h-129q-55 0 -98 13t-79 41q-33 26 -53 71t-20 106v479q0 98 -43 137q-44 39 -145 39v82z" />
    <glyph glyph-name="bar" unicode="|" horiz-adv-x="505" 
d="M195 1554h114v-1855h-114v1855z" />
    <glyph glyph-name="braceright" unicode="}" horiz-adv-x="712" 
d="M639 567q-101 0 -145 -39q-43 -39 -43 -137v-479q0 -61 -20 -106t-53 -71q-36 -28 -79 -41t-96 -13h-131v81h114q75 0 105 38q31 39 31 118v473q0 57 13 93q14 40 36 63q23 24 50 38q26 13 58 21v4q-30 8 -58 23q-28 16 -50 39q-23 24 -36 61q-13 36 -13 92v473
q0 79 -31 118q-30 38 -105 38h-114v82h131q51 0 96 -12q42 -11 79 -40q32 -25 53 -72q20 -45 20 -107v-478q0 -98 43 -138t145 -40v-82z" />
    <glyph glyph-name="asciitilde" unicode="~" horiz-adv-x="1007" 
d="M141 596q44 93 99 142q52 46 125 46q46 0 82 -16q31 -14 72 -35q12 -6 34 -18t32 -17q31 -16 64 -16q47 0 74 34q25 32 55 81l88 -49q-47 -97 -99 -143t-124 -46q-49 0 -85 16q-31 14 -72 35q-12 6 -33.5 18t-31.5 17q-32 17 -65 17q-44 0 -71 -34q-29 -37 -56 -81z" />
    <glyph glyph-name="uni00A0" unicode="&#xa0;" horiz-adv-x="438" 
 />
    <glyph glyph-name="exclamdown" unicode="&#xa1;" horiz-adv-x="528" 
d="M213 604h98l31 -1018h-160zM264 1010q47 0 79 -32t32 -79q0 -46 -32 -80q-31 -33 -79 -33t-79 33q-31 32 -31 80t31 79q32 32 79 32z" />
    <glyph glyph-name="cent" unicode="&#xa2;" 
d="M551 -16q-78 8 -141 42q-65 36 -110 95q-46 61 -72 153q-25 90 -25 220q0 129 26 217q27 93 73 153q45 59 110 95q63 35 139 45v229h94v-227q76 -4 139 -29q59 -23 113 -66v-188h-94l-27 149q-25 18 -59 32q-28 11 -72 16v-848q63 1 122 23q49 18 105 57l50 -64
q-57 -47 -121 -74q-63 -27 -156 -32v-228h-94v230zM346 496q0 -200 52 -295q53 -97 153 -121v835q-101 -23 -153 -120q-52 -98 -52 -299z" />
    <glyph glyph-name="sterling" unicode="&#xa3;" 
d="M145 764h134q-22 71 -37 149q-15 76 -15 152q0 88 31 159q29 67 83 113q53 46 123 68q69 22 150 22q109 0 185 -25t137 -63v-229h-86l-37 184q-42 18 -83 29q-46 12 -112 12q-116 0 -182 -69q-65 -68 -65 -203q0 -75 13 -147q11 -61 32 -152h385v-96h-361q14 -57 28 -136
q11 -60 11 -124q0 -85 -37 -160q-37 -76 -125 -131h555l29 182h80v-299h-811v119q98 56 142 122q44 65 44 162q0 60 -15 126q-16 71 -36 139h-160v96z" />
    <glyph glyph-name="currency" unicode="&#xa4;" 
d="M195 705q0 79 15 144q15 64 44 116l-152 165l76 78l144 -155q96 90 241 90t240 -90l145 155l76 -78l-154 -165q28 -51 45 -116q17 -66 17 -144q0 -76 -17 -144q-17 -66 -45 -117l154 -163l-76 -78l-145 155q-95 -90 -240 -90t-241 90l-144 -155l-76 78l152 163
q-29 53 -44 117q-15 66 -15 144zM793 705q0 185 -58 263q-57 76 -170 76q-117 0 -174 -76t-57 -263t57 -263q56 -75 174 -75q114 0 170 75q58 78 58 263z" />
    <glyph glyph-name="yen" unicode="&#xa5;" 
d="M119 823h248l-226 488l-127 18v78h430v-78l-151 -18l213 -467q26 -57 45 -107q19 -49 29 -92q12 43 30 91q18 46 45 108l207 467l-145 18v78h393v-78l-131 -18l-225 -488h247v-94h-290l-80 -174v-14h370v-97h-370v-354l147 -12v-78h-436v78l147 12v354h-370v97h370v16
l-79 172h-291v94z" />
    <glyph glyph-name="brokenbar" unicode="&#xa6;" horiz-adv-x="503" 
d="M195 508h114v-809h-114v809zM195 1554h114v-809h-114v809z" />
    <glyph glyph-name="section" unicode="&#xa7;" horiz-adv-x="1067" 
d="M131 528q0 107 58 175q59 70 157 104q-64 39 -99 97q-34 56 -34 149q0 57 20 103t62 85q40 37 100 58q63 22 137 22q95 0 167 -18q69 -17 124 -48v-194h-90l-33 141q-64 31 -161 31q-100 0 -153 -47q-52 -46 -52 -125q0 -43 12 -75q12 -31 43 -56q30 -24 84 -47
q43 -18 133 -49q65 -21 135 -52q64 -28 105 -65t66 -94q24 -55 24 -136q0 -106 -59 -172q-60 -67 -160 -100q65 -44 100 -105t35 -153q0 -139 -94 -211t-252 -72q-91 0 -169 23q-80 23 -130 55v199h90l31 -152q26 -11 80 -27q40 -12 100 -12q110 0 165 49q54 48 54 140
q0 46 -13 79t-44 61q-30 27 -81 50t-124 47q-61 19 -139 53q-62 27 -105 66q-41 36 -66 92q-24 52 -24 131zM612 266q95 22 146 73q53 53 53 138q0 57 -16 93q-18 40 -51 66q-36 28 -87 50q-56 24 -125 47l-81 29q-93 -17 -147 -72q-54 -56 -54 -147q0 -49 12 -84
q12 -36 42 -61q32 -27 76 -47q51 -23 114 -44z" />
    <glyph glyph-name="dieresis" unicode="&#xa8;" horiz-adv-x="1116" 
d="M377 1137q-42 0 -69 27t-27 71q0 42 27 69t69 27q41 0 68 -27q28 -28 28 -69q0 -43 -28 -71q-27 -27 -68 -27zM737 1137q-41 0 -68 27q-28 28 -28 71q0 41 28 69q27 27 68 27q42 0 69 -27q28 -28 28 -69q0 -43 -28 -71q-27 -27 -69 -27z" />
    <glyph glyph-name="copyright" unicode="&#xa9;" horiz-adv-x="1488" 
d="M541 713q0 -184 46 -279q47 -96 177 -96q89 0 149 33l27 149h68v-201q-43 -27 -112 -43q-62 -14 -132 -14q-182 0 -269 119t-87 330q0 102 21 186q21 83 65 144q45 62 109 94t157 32q67 0 128 -17q64 -18 107 -52v-193h-71l-29 154q-26 15 -62 23q-34 8 -71 8
q-127 0 -174 -97t-47 -280zM743 47q123 0 223 47q99 46 168 135q67 86 105 211q37 121 37 275q0 153 -37 274q-38 125 -105 211q-69 88 -168 135q-100 47 -223 47q-121 0 -221 -47q-97 -46 -167 -135q-67 -86 -105 -211q-37 -121 -37 -274q0 -154 37 -275q38 -125 105 -211
q70 -89 167 -135q100 -47 221 -47zM743 -27q-140 0 -255 53q-113 52 -195 149q-83 97 -126 234q-44 138 -44 306q0 167 44 305q43 136 126 234q83 99 195 150q113 52 255 52q143 0 256 -52q116 -53 196 -150q81 -98 126 -234t45 -305t-45 -306t-126 -234q-79 -95 -196 -149
q-115 -53 -256 -53z" />
    <glyph glyph-name="ordfeminine" unicode="&#xaa;" horiz-adv-x="925" 
d="M393 473q76 0 134 35q56 34 91 78v270h-100q-78 0 -128 -10q-53 -11 -85 -34q-34 -24 -48 -62q-15 -39 -15 -97q0 -97 37 -138q37 -42 114 -42zM625 500q-39 -42 -99 -80q-62 -39 -151 -39q-125 0 -193 65q-69 66 -69 201q0 152 94 221q96 70 307 70h104v104
q0 81 -31 128q-32 49 -122 49q-73 0 -141 -21q-71 -22 -131 -55l-39 78q68 40 151 70t180 30q129 0 194 -63q64 -63 64 -197v-508q0 -59 25 -75q23 -15 92 -13l12 -59q-31 -14 -57 -19q-30 -6 -57 -6q-58 0 -94 31q-34 30 -39 88z" />
    <glyph glyph-name="guillemotleft" unicode="&#xab;" horiz-adv-x="964" 
d="M483 133l-69 -55l-303 428l303 428l69 -57l-221 -371zM836 133l-70 -55l-303 428l303 428l70 -57l-222 -371z" />
    <glyph glyph-name="logicalnot" unicode="&#xac;" 
d="M762 702h-516v107h633v-395h-117v288z" />
    <glyph glyph-name="uni00AD" unicode="&#xad;" horiz-adv-x="591" 
d="M111 610h370v-118h-370v118z" />
    <glyph glyph-name="registered" unicode="&#xae;" horiz-adv-x="1132" 
d="M113 928q0 125 32 220q32 96 94 165q59 66 143 103q82 36 183 36t185 -36q85 -36 144 -103q60 -67 93 -165q33 -97 33 -220q0 -122 -33 -220t-93 -164q-61 -68 -144 -103q-82 -35 -185 -35t-183 35q-82 36 -143 103t-94 164q-32 95 -32 220zM549 940q65 0 89 29t24 88
q0 53 -24 80q-23 26 -89 26h-66v-223h66zM823 702v-45h-137l-63 142q-21 45 -39 66q-19 22 -58 22h-43v-176l52 -9v-45h-197v45l53 9v452l-53 6v48h233q85 0 136 -36t51 -122q0 -69 -36 -107t-101 -45v-4q28 -6 52 -27q21 -18 44 -63l49 -104zM936 928q0 219 -98 336
q-99 118 -273 118t-271 -118t-97 -336t97 -336q98 -119 271 -119q174 0 273 119q98 117 98 336z" />
    <glyph glyph-name="macron" unicode="&#xaf;" horiz-adv-x="1116" 
d="M317 1331h480v-104h-480v104z" />
    <glyph glyph-name="degree" unicode="&#xb0;" horiz-adv-x="780" 
d="M92 1087q0 77 23 140q23 62 62 104q40 43 94 67q52 23 118 23q133 0 217 -88q84 -89 84 -246q0 -79 -22 -139t-63 -104t-95 -66t-119 -22q-134 0 -217 87q-82 86 -82 244zM569 1081q0 137 -47 193q-46 55 -133 55t-133 -56q-47 -58 -47 -179q0 -136 48 -191t134 -55
t132 55t46 178z" />
    <glyph glyph-name="plusminus" unicode="&#xb1;" 
d="M506 674h-334v104h334v324h117v-324h331v-104h-331v-293h-117v293zM172 258h782v-104h-782v104z" />
    <glyph glyph-name="twosuperior" unicode="&#xb2;" horiz-adv-x="739" 
d="M631 516h-557v111q137 115 205 181q78 75 124 138q45 62 62 112q16 48 16 99q0 85 -43 125q-44 41 -119 41q-62 0 -109 -17q-48 -18 -97 -49l-37 68q51 42 119 70q64 26 143 26q122 0 198 -64t76 -198q0 -63 -23 -120q-24 -61 -75 -125q-52 -66 -132 -137
q-86 -77 -196 -159h445v-102z" />
    <glyph glyph-name="threesuperior" unicode="&#xb3;" horiz-adv-x="727" 
d="M303 504q-78 0 -141 18q-66 19 -111 45l27 76q42 -21 98 -37q49 -14 115 -14q111 0 161 44t50 140q0 97 -56 135q-55 37 -151 37h-80v86h76q99 0 142 39q44 39 44 115q0 64 -38 102q-37 37 -124 37q-66 0 -111 -17q-52 -20 -93 -44l-39 69q56 37 113 61q59 25 147 25
q125 0 197 -60q73 -61 73 -161q0 -79 -43 -131q-45 -54 -121 -76q79 -12 136 -68q59 -57 59 -153q0 -123 -80 -195q-81 -73 -250 -73z" />
    <glyph glyph-name="acute" unicode="&#xb4;" horiz-adv-x="1116" 
d="M381 1188l344 254l72 -123l-377 -193z" />
    <glyph glyph-name="mu" unicode="&#xb5;" horiz-adv-x="1114" 
d="M207 -414v1297l-133 18v86h264v-721q0 -180 154 -180q69 0 138 33q66 31 128 86v678l-131 18v86h264v-889l133 -20v-78h-238l-18 123q-65 -64 -135 -103q-71 -40 -154 -40q-53 0 -85 14q-34 15 -56 37v-445h-131z" />
    <glyph glyph-name="paragraph" unicode="&#xb6;" horiz-adv-x="1122" 
d="M995 1329l-143 -20v-1487h-115v1487h-168v-1487h-112v921h-31q-161 0 -248 90q-86 89 -86 242q0 160 86 246t248 86h569v-78z" />
    <glyph glyph-name="periodcentered" unicode="&#xb7;" horiz-adv-x="487" 
d="M244 526q-47 0 -80 33t-33 80q0 49 33 82t80 33t80 -33q32 -32 32 -82q0 -48 -32 -80q-33 -33 -80 -33z" />
    <glyph glyph-name="cedilla" unicode="&#xb8;" horiz-adv-x="1116" 
d="M543 -422q-46 0 -84 14q-44 16 -70 37l39 62q30 -18 53 -26q27 -9 62 -9q43 0 60 20q18 21 18 62q0 84 -76 84q-27 0 -46 -3q-24 -4 -36 -7l78 215h82l-58 -140q76 0 118 -42t42 -107q0 -68 -42 -114t-140 -46z" />
    <glyph glyph-name="onesuperior" unicode="&#xb9;" horiz-adv-x="665" 
d="M102 590l191 16v645l-184 -88l-35 58l262 186h82v-801l182 -16v-74h-498v74z" />
    <glyph glyph-name="ordmasculine" unicode="&#xba;" horiz-adv-x="927" 
d="M104 852q0 126 27 214q26 87 74 145q46 56 113 82t147 26q78 0 145 -26t113 -82q48 -58 74 -145q26 -85 26 -214q0 -131 -26 -216q-27 -88 -74 -146q-44 -55 -113 -81q-67 -26 -145 -26q-80 0 -147 26q-69 26 -113 81q-47 58 -74 146t-27 216zM690 852q0 114 -14 181
q-15 74 -42 117q-27 44 -71 62q-46 19 -98 19q-55 0 -99 -19q-42 -18 -71 -62q-27 -42 -43 -117q-14 -67 -14 -181t14 -181q16 -75 43 -117q29 -44 71 -62q44 -19 99 -19q52 0 98 19q44 18 71 62q27 43 42 117q14 67 14 181z" />
    <glyph glyph-name="guillemotright" unicode="&#xbb;" horiz-adv-x="964" 
d="M702 506l-221 371l70 57l305 -428l-305 -428l-70 55zM350 506l-221 371l70 57l303 -428l-303 -428l-70 55z" />
    <glyph glyph-name="onequarter" unicode="&#xbc;" horiz-adv-x="1765" 
d="M102 590l191 16v645l-184 -88l-35 58l262 186h82v-801l182 -16v-74h-498v74zM1274 1411h106l-868 -1479h-106zM989 197l285 587h121l-289 -594h328v381l122 25v-406h107v-90h-107v-209h-122v209h-445v97z" />
    <glyph glyph-name="onehalf" unicode="&#xbd;" horiz-adv-x="1781" 
d="M102 590l191 16v645l-184 -88l-35 58l262 186h82v-801l182 -16v-74h-498v74zM1274 1411h106l-868 -1479h-106zM1673 -109h-555v111q129 109 204 181t124 139q44 60 61 111t17 99q0 85 -43 125q-44 41 -119 41q-62 0 -109 -17q-49 -18 -96 -48l-37 67q50 42 118 70
q64 27 142 27q121 0 198 -65t77 -197q0 -60 -24 -120q-24 -61 -75 -125q-52 -66 -132 -137q-92 -82 -195 -159h444v-103z" />
    <glyph glyph-name="threequarters" unicode="&#xbe;" horiz-adv-x="1773" 
d="M307 504q-78 0 -141 18q-66 19 -111 45l29 76q41 -21 96 -37q49 -14 117 -14q111 0 161 44t50 140q0 98 -56 135t-153 37h-80v86h78q97 0 141 39q43 39 43 115q0 64 -38 102q-37 37 -124 37q-66 0 -110 -17q-55 -21 -94 -44l-39 69q56 37 113 61q59 25 149 25
q125 0 197 -60q71 -59 71 -161q0 -78 -42 -131q-43 -54 -120 -76q80 -12 136 -68q57 -57 57 -153q0 -123 -80 -195q-81 -73 -250 -73zM1284 1411h105l-869 -1479h-104zM997 197l285 585h121l-289 -592h328v381l123 23v-404h106v-90h-106v-209h-123v209h-445v97z" />
    <glyph glyph-name="questiondown" unicode="&#xbf;" horiz-adv-x="815" 
d="M545 428q0 -70 -11 -110q-12 -45 -31 -75q-22 -35 -46 -58q-25 -24 -58 -50q-29 -24 -58 -51q-26 -24 -44 -53q-19 -30 -28 -67t-9 -89q0 -98 48 -158q47 -59 155 -59q51 0 95 10q45 10 81 29l43 172h84v-213q-59 -42 -140 -67t-173 -25q-145 0 -236 75q-92 75 -92 232
q0 74 15 125t42 90q28 40 63 71q21 18 77 64q63 51 90 92q28 43 28 117v172h105v-174zM485 1008q47 0 79 -32t32 -79q0 -46 -32 -80q-32 -33 -79 -33t-78 33q-32 34 -32 80q0 47 32 79t78 32z" />
    <glyph glyph-name="Agrave" unicode="&#xc0;" horiz-adv-x="1218" 
d="M827 461h-458l-109 -363l146 -20v-78h-394v78l127 18l404 1311h139l408 -1311l116 -18v-78h-411v78l143 18zM395 553h406l-131 428q-29 94 -44 169q-20 104 -26 136h-2q-9 -53 -29 -136q-15 -64 -47 -169zM760 1493l-379 190l74 123l344 -252z" />
    <glyph glyph-name="Aacute" unicode="&#xc1;" horiz-adv-x="1218" 
d="M827 461h-458l-109 -363l146 -20v-78h-394v78l127 18l404 1311h139l408 -1311l116 -18v-78h-411v78l143 18zM395 553h406l-131 428q-29 94 -44 169q-20 104 -26 136h-2q-9 -53 -29 -136q-15 -64 -47 -169zM420 1565l344 254l72 -123l-377 -193z" />
    <glyph glyph-name="Acircumflex" unicode="&#xc2;" horiz-adv-x="1218" 
d="M827 461h-458l-109 -363l146 -20v-78h-394v78l127 18l404 1311h139l408 -1311l116 -18v-78h-411v78l143 18zM395 553h406l-131 428q-29 94 -44 169q-20 104 -26 136h-2q-9 -53 -29 -136q-15 -64 -47 -169zM332 1546l233 256h84l236 -256l-43 -47l-234 176l-233 -176z" />
    <glyph glyph-name="Atilde" unicode="&#xc3;" horiz-adv-x="1218" 
d="M827 461h-458l-109 -363l146 -20v-78h-394v78l127 18l404 1311h139l408 -1311l116 -18v-78h-411v78l143 18zM395 553h406l-131 428q-29 94 -44 169q-20 104 -26 136h-2q-9 -53 -29 -136q-15 -64 -47 -169zM913 1669q-67 -151 -184 -151q-34 0 -64 12q-35 14 -57 25
q-44 22 -53 26q-27 12 -53 12q-38 0 -63 -22q-26 -23 -48 -55l-65 43q67 151 182 151q36 0 66 -12q25 -10 57 -26q18 -9 52 -25q28 -13 54 -13q37 0 62 23q25 24 47 57z" />
    <glyph glyph-name="Adieresis" unicode="&#xc4;" horiz-adv-x="1218" 
d="M827 461h-458l-109 -363l146 -20v-78h-394v78l127 18l404 1311h139l408 -1311l116 -18v-78h-411v78l143 18zM395 553h406l-131 428q-29 94 -44 169q-20 104 -26 136h-2q-9 -53 -29 -136q-15 -64 -47 -169zM430 1516q-42 0 -69 28t-27 70q0 41 27 68q28 28 69 28t69 -28
q27 -27 27 -68q0 -42 -27 -70t-69 -28zM791 1516q-42 0 -69 28q-28 30 -28 70t28 68t69 28q40 0 68 -28t28 -68t-28 -70q-27 -28 -68 -28z" />
    <glyph glyph-name="Aring" unicode="&#xc5;" horiz-adv-x="1218" 
d="M827 461h-458l-109 -363l146 -20v-78h-394v78l127 18l404 1311h139l408 -1311l116 -18v-78h-411v78l143 18zM395 553h406l-131 428q-29 94 -44 169q-20 104 -26 136h-2q-9 -53 -29 -136q-15 -64 -47 -169zM608 1481q-88 0 -136 55q-48 56 -48 133q0 79 48 136t136 57
q90 0 138 -57q49 -58 49 -136q0 -76 -49 -133q-48 -55 -138 -55zM608 1554q92 0 92 115q0 117 -92 117q-90 0 -90 -117q0 -115 90 -115z" />
    <glyph glyph-name="AE" unicode="&#xc6;" horiz-adv-x="1757" 
d="M668 1329v78h970v-281h-88l-26 189h-451v-531h326l26 138h74v-367h-74l-26 137h-326v-600h475l27 193h88v-285h-875v78l146 12v371h-473l-199 -363l146 -20v-78h-396v78l127 18l674 1217zM510 553h424v631q0 77 4 137h-4z" />
    <glyph glyph-name="Ccedilla" unicode="&#xc7;" horiz-adv-x="1077" 
d="M592 -422q-46 0 -84 14q-44 16 -70 37l39 62q30 -18 53 -26q27 -9 62 -9q43 0 60 20q18 21 18 62q0 84 -76 84q-26 0 -46 -3q-24 -4 -36 -7l61 172q-245 23 -352 207q-108 186 -108 507q0 168 30 303q30 134 96 231t164 145q102 50 240 50q100 0 188 -19t150 -67v-254
h-88l-37 205q-48 23 -98 32q-51 9 -111 9q-111 0 -184 -42q-75 -43 -118 -123q-44 -83 -62 -197q-19 -123 -19 -266q0 -145 19 -270q18 -116 62 -197q44 -80 119 -122t187 -42q131 0 230 45l34 198h82v-251q-67 -45 -155 -66q-86 -20 -191 -20l-37 -93q76 0 118 -42t42 -107
q0 -68 -42 -114t-140 -46z" />
    <glyph glyph-name="Egrave" unicode="&#xc8;" horiz-adv-x="1073" 
d="M750 1493l-379 190l73 123l344 -252zM815 555h-76l-24 137h-326v-600h475l27 193h88v-285h-877v78l146 12v1223l-146 16v78h852v-281h-88l-28 189h-449v-531h326l24 138h76v-367z" />
    <glyph glyph-name="Eacute" unicode="&#xc9;" horiz-adv-x="1073" 
d="M373 1565l344 254l71 -123l-376 -193zM815 555h-76l-24 137h-326v-600h475l27 193h88v-285h-877v78l146 12v1223l-146 16v78h852v-281h-88l-28 189h-449v-531h326l24 138h76v-367z" />
    <glyph glyph-name="Ecircumflex" unicode="&#xca;" horiz-adv-x="1073" 
d="M281 1546l233 256h84l236 -256l-43 -47l-234 176l-233 -176zM815 555h-76l-24 137h-326v-600h475l27 193h88v-285h-877v78l146 12v1223l-146 16v78h852v-281h-88l-28 189h-449v-531h326l24 138h76v-367z" />
    <glyph glyph-name="Edieresis" unicode="&#xcb;" horiz-adv-x="1073" 
d="M815 555h-76l-24 137h-326v-600h475l27 193h88v-285h-877v78l146 12v1223l-146 16v78h852v-281h-88l-28 189h-449v-531h326l24 138h76v-367zM377 1516q-42 0 -69 28t-27 70q0 41 27 68q28 28 69 28q40 0 68 -28t28 -68t-28 -70q-27 -28 -68 -28zM737 1516q-41 0 -68 28
q-28 30 -28 70t28 68t68 28q41 0 69 -28t28 -68t-28 -70q-27 -28 -69 -28z" />
    <glyph glyph-name="Igrave" unicode="&#xcc;" horiz-adv-x="636" 
d="M102 78l146 12v1223l-146 16v78h433v-78l-146 -16v-1223l146 -12v-78h-433v78zM489 1493l-378 190l73 123l344 -252z" />
    <glyph glyph-name="Iacute" unicode="&#xcd;" horiz-adv-x="636" 
d="M102 78l146 12v1223l-146 16v78h433v-78l-146 -16v-1223l146 -12v-78h-433v78zM113 1565l344 254l71 -123l-376 -193z" />
    <glyph glyph-name="Icircumflex" unicode="&#xce;" horiz-adv-x="636" 
d="M102 78l146 12v1223l-146 16v78h433v-78l-146 -16v-1223l146 -12v-78h-433v78zM45 1546l234 256h83l236 -256l-43 -47l-233 176l-234 -176z" />
    <glyph glyph-name="Idieresis" unicode="&#xcf;" horiz-adv-x="636" 
d="M102 78l146 12v1223l-146 16v78h433v-78l-146 -16v-1223l146 -12v-78h-433v78zM141 1516q-41 0 -68 28q-28 30 -28 70t28 68t68 28q41 0 69 -28t28 -68t-28 -70q-27 -28 -69 -28zM502 1516q-42 0 -69 28t-27 70q0 41 27 68q28 28 69 28q40 0 68 -28t28 -68t-28 -70
q-27 -28 -68 -28z" />
    <glyph glyph-name="Eth" unicode="&#xd0;" horiz-adv-x="1245" 
d="M102 772h146v541l-146 16v78h473q147 0 253 -38t173 -123q70 -88 99 -220q30 -135 30 -330q0 -201 -33 -329q-34 -132 -105 -215q-70 -82 -179 -117q-110 -35 -256 -35h-455v78l146 12v590h-146v92zM590 92q116 0 192 36q75 35 121 110q46 76 64 187q18 114 18 269
q0 168 -17 279q-17 114 -62 192q-42 74 -121 113q-75 37 -193 37h-203v-543h287v-92h-287v-588h201z" />
    <glyph glyph-name="Ntilde" unicode="&#xd1;" horiz-adv-x="1333" 
d="M969 1669q-67 -151 -185 -151q-34 0 -64 12t-56 25q-36 18 -54 26q-27 12 -53 12q-37 0 -62 -22q-29 -25 -49 -55l-65 43q67 151 182 151q37 0 67 -12q20 -8 56 -26q18 -9 52 -25q28 -13 55 -13q36 0 61 23q25 24 47 57zM848 1329v78h399v-78l-143 -16v-1313h-131
l-477 924q-53 101 -94 188q-30 63 -56 137h-2q5 -60 10 -175q4 -92 4 -226v-758l144 -12v-78h-400v78l146 12v1223l-146 16v78h281l483 -938q36 -69 83 -170q35 -73 57 -141h2q-7 88 -11 161q-4 80 -4 199v795z" />
    <glyph glyph-name="Ograve" unicode="&#xd2;" horiz-adv-x="1232" 
d="M786 1493l-378 190l73 123l344 -252zM621 -20q-259 0 -384 180q-124 179 -124 538q0 354 128 542q127 187 375 187q249 0 376 -185q128 -187 128 -535q0 -362 -120 -545q-119 -182 -379 -182zM616 76q194 0 273 151q80 152 80 465q0 321 -82 479q-83 160 -271 160
q-186 0 -269 -156q-83 -157 -83 -470q0 -318 81 -474q80 -155 271 -155z" />
    <glyph glyph-name="Oacute" unicode="&#xd3;" horiz-adv-x="1232" 
d="M408 1565l344 254l71 -123l-377 -193zM621 -20q-259 0 -384 180q-124 179 -124 538q0 354 128 542q127 187 375 187q249 0 376 -185q128 -187 128 -535q0 -362 -120 -545q-119 -182 -379 -182zM616 76q194 0 273 151q80 152 80 465q0 321 -82 479q-83 160 -271 160
q-186 0 -269 -156q-83 -157 -83 -470q0 -318 81 -474q80 -155 271 -155z" />
    <glyph glyph-name="Ocircumflex" unicode="&#xd4;" horiz-adv-x="1232" 
d="M340 1546l233 256h84l236 -256l-43 -47l-234 176l-233 -176zM621 -20q-259 0 -384 180q-124 179 -124 538q0 354 128 542q127 187 375 187q249 0 376 -185q128 -187 128 -535q0 -362 -120 -545q-119 -182 -379 -182zM616 76q194 0 273 151q80 152 80 465q0 321 -82 479
q-83 160 -271 160q-186 0 -269 -156q-83 -157 -83 -470q0 -318 81 -474q80 -155 271 -155z" />
    <glyph glyph-name="Otilde" unicode="&#xd5;" horiz-adv-x="1232" 
d="M911 1669q-67 -151 -184 -151q-34 0 -64 12q-35 14 -57 25q-44 22 -53 26q-27 12 -53 12q-38 0 -63 -22q-26 -23 -48 -55l-65 43q67 151 182 151q36 0 66 -12q25 -10 57 -26q18 -9 52 -25q28 -13 54 -13q37 0 62 23q25 24 47 57zM621 -20q-259 0 -384 180
q-124 179 -124 538q0 354 128 542q127 187 375 187q249 0 376 -185q128 -187 128 -535q0 -362 -120 -545q-119 -182 -379 -182zM616 76q194 0 273 151q80 152 80 465q0 321 -82 479q-83 160 -271 160q-186 0 -269 -156q-83 -157 -83 -470q0 -318 81 -474q80 -155 271 -155z
" />
    <glyph glyph-name="Odieresis" unicode="&#xd6;" horiz-adv-x="1232" 
d="M436 1516q-41 0 -68 28q-28 30 -28 70t28 68t68 28q41 0 69 -28q27 -27 27 -68q0 -42 -27 -70t-69 -28zM797 1516q-42 0 -69 28q-28 30 -28 70t28 68t69 28q40 0 68 -28t28 -68t-28 -70q-27 -28 -68 -28zM621 -20q-259 0 -384 180q-124 179 -124 538q0 354 128 542
q127 187 375 187q249 0 376 -185q128 -187 128 -535q0 -362 -120 -545q-119 -182 -379 -182zM616 76q194 0 273 151q80 152 80 465q0 321 -82 479q-83 160 -271 160q-186 0 -269 -156q-83 -157 -83 -470q0 -318 81 -474q80 -155 271 -155z" />
    <glyph glyph-name="multiply" unicode="&#xd7;" 
d="M301 1032l262 -278l264 278l78 -76l-266 -280l266 -283l-78 -76l-264 279l-264 -279l-78 76l268 283l-268 280z" />
    <glyph glyph-name="Oslash" unicode="&#xd8;" horiz-adv-x="1232" 
d="M621 -20q-192 0 -314 102l-106 -184l-86 55l123 207v2q-125 176 -125 536q0 354 128 542q127 187 375 187q182 0 302 -104l110 186l86 -53l-125 -213q131 -185 131 -536q0 -362 -120 -545q-119 -182 -379 -182zM616 76q194 0 273 151q80 152 80 465q0 266 -58 420
l-540 -922q84 -114 245 -114zM264 705q0 -261 53 -408l539 920q-84 114 -240 114q-186 0 -269 -156q-83 -157 -83 -470z" />
    <glyph glyph-name="Ugrave" unicode="&#xd9;" horiz-adv-x="1306" 
d="M788 1493l-378 190l73 123l344 -252zM348 1407v-989q0 -174 60 -253t184 -79q64 0 113 13q54 14 92 34q39 20 73 45q35 26 58 47v1088l-146 16v78h287v-1317l143 -12v-78h-249l-25 137q-57 -56 -152 -108q-89 -49 -206 -49q-82 0 -151 21q-66 20 -118 72q-50 50 -77 130
q-27 79 -27 196v914l-146 16v78h287z" />
    <glyph glyph-name="Uacute" unicode="&#xda;" horiz-adv-x="1306" 
d="M428 1565l344 254l72 -123l-377 -193zM348 1407v-989q0 -174 60 -253t184 -79q64 0 113 13q54 14 92 34q39 20 73 45q35 26 58 47v1088l-146 16v78h287v-1317l143 -12v-78h-249l-25 137q-57 -56 -152 -108q-89 -49 -206 -49q-82 0 -151 21q-66 20 -118 72q-50 50 -77 130
q-27 79 -27 196v914l-146 16v78h287z" />
    <glyph glyph-name="Ucircumflex" unicode="&#xdb;" horiz-adv-x="1306" 
d="M342 1546l233 256h84l236 -256l-43 -47l-234 176l-233 -176zM348 1407v-989q0 -174 60 -253t184 -79q64 0 113 13q54 14 92 34q39 20 73 45q35 26 58 47v1088l-146 16v78h287v-1317l143 -12v-78h-249l-25 137q-57 -56 -152 -108q-89 -49 -206 -49q-82 0 -151 21
q-66 20 -118 72q-50 50 -77 130q-27 79 -27 196v914l-146 16v78h287z" />
    <glyph glyph-name="Udieresis" unicode="&#xdc;" horiz-adv-x="1306" 
d="M348 1407v-989q0 -174 60 -253t184 -79q64 0 113 13q54 14 92 34q39 20 73 45q35 26 58 47v1088l-146 16v78h287v-1317l143 -12v-78h-249l-25 137q-57 -56 -152 -108q-89 -49 -206 -49q-82 0 -151 21q-66 20 -118 72q-50 50 -77 130q-27 79 -27 196v914l-146 16v78h287z
M428 1516q-42 0 -69 28t-27 70q0 41 27 68q28 28 69 28t69 -28q27 -27 27 -68q0 -42 -27 -70t-69 -28zM788 1516q-41 0 -68 28q-28 30 -28 70t28 68t68 28q41 0 69 -28t28 -68t-28 -70q-27 -28 -69 -28z" />
    <glyph glyph-name="Yacute" unicode="&#xdd;" horiz-adv-x="1161" 
d="M360 78l148 12v467l-361 754l-124 18v78h430v-78l-152 -18l217 -469q25 -54 48 -107q21 -48 32 -90q11 41 31 87q4 9 13 28.5t18 40.5t18 41l215 469l-145 18v78h391v-78l-131 -18l-359 -756v-465l148 -12v-78h-437v78zM373 1565l344 254l71 -123l-376 -193z" />
    <glyph glyph-name="Thorn" unicode="&#xde;" horiz-adv-x="1089" 
d="M614 395q273 0 273 322q0 158 -67 239q-66 80 -220 80h-211v-641h225zM387 1126h223q214 0 319 -102t105 -301q0 -207 -103 -313q-104 -107 -313 -107h-229v-213l197 -10v-80h-484v78l146 12v1223l-146 16v78h433v-78l-146 -16z" />
    <glyph glyph-name="germandbls" unicode="&#xdf;" horiz-adv-x="1099" 
d="M82 0v72l131 18v795l-131 20v82h131v68q0 190 98 298q99 109 279 109q159 0 238 -73t79 -191q0 -81 -41 -137q-37 -51 -89 -98q-40 -36 -89 -78q-41 -35 -41 -76q0 -25 9 -43q9 -17 29 -36t49 -36q30 -18 69 -45q10 -7 37.5 -27t42.5 -31q39 -29 73 -69q33 -39 54 -90
q20 -49 20 -121q0 -91 -26 -152q-27 -62 -72 -103q-44 -40 -105 -58q-60 -18 -125 -18q-89 0 -139 17q-58 20 -94 44l39 84q47 -22 84 -34q45 -15 108 -15q85 0 144 52t59 167q0 52 -15 89q-16 39 -41 69q-25 29 -59 54q-37 27 -65 46q-88 55 -139 110q-49 52 -49 130
q0 63 37 106q34 39 84 83q48 42 84 88q38 49 38 122q0 76 -46 128t-142 52q-133 0 -189 -86q-55 -85 -55 -244v-1042h-264z" />
    <glyph glyph-name="agrave" unicode="&#xe0;" horiz-adv-x="962" 
d="M383 76q85 0 141 32q55 31 101 85v307h-88q-171 0 -247 -46q-77 -47 -77 -173q0 -112 46 -158q47 -47 124 -47zM895 4q-28 -12 -64 -18q-35 -6 -63 -6q-127 0 -137 122q-45 -48 -107 -85t-159 -37q-133 0 -209 69t-76 219q0 170 106 242t334 72h105v123q0 84 -36 141
t-132 57q-81 0 -153 -21q-67 -20 -142 -57l-39 80q71 42 164 73q90 30 196 30q137 0 206 -69t69 -224v-551q0 -33 6 -51q7 -20 20 -29q15 -11 38 -12q32 -2 61 -2zM618 1126l-378 193l73 123l344 -254z" />
    <glyph glyph-name="aacute" unicode="&#xe1;" horiz-adv-x="962" 
d="M383 76q85 0 141 32q55 31 101 85v307h-88q-171 0 -247 -46q-77 -47 -77 -173q0 -112 46 -158q47 -47 124 -47zM895 4q-28 -12 -64 -18q-35 -6 -63 -6q-127 0 -137 122q-45 -48 -107 -85t-159 -37q-133 0 -209 69t-76 219q0 170 106 242t334 72h105v123q0 84 -36 141
t-132 57q-81 0 -153 -21q-67 -20 -142 -57l-39 80q71 42 164 73q90 30 196 30q137 0 206 -69t69 -224v-551q0 -33 6 -51q7 -20 20 -29q15 -11 38 -12q32 -2 61 -2zM252 1188l344 254l72 -123l-377 -193z" />
    <glyph glyph-name="acircumflex" unicode="&#xe2;" horiz-adv-x="962" 
d="M383 76q85 0 141 32q55 31 101 85v307h-88q-171 0 -247 -46q-77 -47 -77 -173q0 -112 46 -158q47 -47 124 -47zM895 4q-28 -12 -64 -18q-35 -6 -63 -6q-127 0 -137 122q-45 -48 -107 -85t-159 -37q-133 0 -209 69t-76 219q0 170 106 242t334 72h105v123q0 84 -36 141
t-132 57q-81 0 -153 -21q-67 -20 -142 -57l-39 80q71 42 164 73q90 30 196 30q137 0 206 -69t69 -224v-551q0 -33 6 -51q7 -20 20 -29q15 -11 38 -12q32 -2 61 -2zM184 1180l234 256h84l235 -256l-43 -45l-233 176l-234 -176z" />
    <glyph glyph-name="atilde" unicode="&#xe3;" horiz-adv-x="962" 
d="M383 76q85 0 141 32q55 31 101 85v307h-88q-171 0 -247 -46q-77 -47 -77 -173q0 -112 46 -158q47 -47 124 -47zM895 4q-28 -12 -64 -18q-35 -6 -63 -6q-127 0 -137 122q-45 -48 -107 -85t-159 -37q-133 0 -209 69t-76 219q0 170 106 242t334 72h105v123q0 84 -36 141
t-132 57q-81 0 -153 -21q-67 -20 -142 -57l-39 80q71 42 164 73q90 30 196 30q137 0 206 -69t69 -224v-551q0 -33 6 -51q7 -20 20 -29q15 -11 38 -12q32 -2 61 -2zM754 1309q-68 -154 -185 -154q-34 0 -64 12q-20 8 -56 26t-54 26q-27 12 -53 12q-35 0 -62 -22t-49 -56
l-65 43q69 154 182 154q34 0 67 -13t56 -26q30 -17 52 -27q25 -12 55 -12q38 0 61 22q24 22 47 58z" />
    <glyph glyph-name="adieresis" unicode="&#xe4;" horiz-adv-x="962" 
d="M383 76q85 0 141 32q55 31 101 85v307h-88q-171 0 -247 -46q-77 -47 -77 -173q0 -112 46 -158q47 -47 124 -47zM895 4q-28 -12 -64 -18q-35 -6 -63 -6q-127 0 -137 122q-45 -48 -107 -85t-159 -37q-133 0 -209 69t-76 219q0 170 106 242t334 72h105v123q0 84 -36 141
t-132 57q-81 0 -153 -21q-67 -20 -142 -57l-39 80q71 42 164 73q90 30 196 30q137 0 206 -69t69 -224v-551q0 -33 6 -51q7 -20 20 -29q15 -11 38 -12q32 -2 61 -2zM281 1137q-42 0 -69 27q-28 28 -28 71q0 41 28 69q27 27 69 27q41 0 68 -27q28 -28 28 -69q0 -43 -28 -71
q-27 -27 -68 -27zM641 1137q-42 0 -69 27t-27 71q0 42 27 69t69 27t69 -27t27 -69q0 -44 -27 -71t-69 -27z" />
    <glyph glyph-name="aring" unicode="&#xe5;" horiz-adv-x="962" 
d="M383 76q85 0 141 32q55 31 101 85v307h-88q-171 0 -247 -46q-77 -47 -77 -173q0 -112 46 -158q47 -47 124 -47zM895 4q-28 -12 -64 -18q-35 -6 -63 -6q-127 0 -137 122q-45 -48 -107 -85t-159 -37q-133 0 -209 69t-76 219q0 170 106 242t334 72h105v123q0 84 -36 141
t-132 57q-81 0 -153 -21q-67 -20 -142 -57l-39 80q71 42 164 73q90 30 196 30q137 0 206 -69t69 -224v-551q0 -33 6 -51q7 -20 20 -29q15 -11 38 -12q32 -2 61 -2zM449 1122q-89 0 -137 57t-48 134q0 79 48 136q47 56 137 56q91 0 138 -56q48 -57 48 -136q0 -77 -48 -134
t-138 -57zM449 1196q92 0 92 117t-92 117q-91 0 -91 -117t91 -117z" />
    <glyph glyph-name="ae" unicode="&#xe6;" horiz-adv-x="1454" 
d="M1024 -20q-115 0 -197 39q-86 41 -137 135q-24 -40 -54 -67q-35 -32 -77 -55q-39 -22 -93 -38q-46 -14 -101 -14q-133 0 -209 69t-76 219q0 170 107 235q108 66 333 66h105v136q0 84 -36 141t-132 57q-81 0 -153 -21q-67 -20 -142 -57l-39 80q71 42 164 73q90 30 196 30
q99 0 155 -40t83 -116q45 77 118 117q72 39 165 39q172 0 264 -109t92 -364v-52h-604q2 -220 70 -315q69 -96 221 -96q79 0 138 22q61 23 113 60l48 -66q-70 -56 -142 -81q-76 -27 -180 -27zM1001 922q-110 0 -172 -80q-60 -78 -71 -273h465q0 189 -49 271t-173 82zM383 76
q83 0 148 38q66 38 112 95q-9 49 -14 136q-4 71 -4 140h-88q-83 0 -147 -8q-58 -7 -100 -32q-41 -25 -59 -64q-18 -41 -18 -105q0 -107 46 -153q47 -47 124 -47z" />
    <glyph glyph-name="ccedilla" unicode="&#xe7;" horiz-adv-x="866" 
d="M461 -422q-46 0 -84 14q-44 16 -70 37l39 62q30 -18 53 -26q27 -9 62 -9q43 0 60 20q18 21 18 62q0 84 -76 84q-27 0 -46 -3q-24 -4 -36 -7l61 170q-77 6 -138 38t-107 96q-47 66 -70 155q-25 97 -25 223q0 135 29 234q28 97 81 160q52 63 124 91q73 29 156 29
q88 0 160 -25q67 -23 122 -72v-188h-92l-29 149q-36 26 -70 37q-41 13 -91 13q-125 0 -188 -99q-62 -97 -62 -327q0 -124 17 -200q18 -83 52 -131q36 -51 86 -72q51 -21 119 -21q70 0 129 22q57 21 111 58l47 -64q-57 -46 -123 -74q-65 -27 -160 -32l-37 -95q76 0 118 -42
t42 -107q0 -68 -42 -114t-140 -46z" />
    <glyph glyph-name="egrave" unicode="&#xe8;" horiz-adv-x="931" 
d="M502 -20q-93 0 -164 26q-75 28 -127 87q-53 61 -83 159q-30 99 -30 242q0 136 29 237q28 97 80 160q51 62 121 89q72 28 153 28q172 0 264 -112q93 -113 93 -366v-51h-602q2 -221 69 -314t219 -93q80 0 139 22q61 23 113 60l47 -66q-71 -56 -141 -81q-76 -27 -180 -27z
M479 922q-111 0 -171 -82q-59 -82 -70 -275h462q0 190 -49 273q-49 84 -172 84zM649 1126l-379 193l74 123l344 -254z" />
    <glyph glyph-name="eacute" unicode="&#xe9;" horiz-adv-x="931" 
d="M283 1188l344 254l71 -123l-376 -193zM502 -20q-93 0 -164 26q-75 28 -127 87q-53 61 -83 159q-30 99 -30 242q0 136 29 237q28 97 80 160q51 62 121 89q72 28 153 28q172 0 264 -112q93 -113 93 -366v-51h-602q2 -221 69 -314t219 -93q80 0 139 22q61 23 113 60l47 -66
q-71 -56 -141 -81q-76 -27 -180 -27zM479 922q-111 0 -171 -82q-59 -82 -70 -275h462q0 190 -49 273q-49 84 -172 84z" />
    <glyph glyph-name="ecircumflex" unicode="&#xea;" horiz-adv-x="931" 
d="M203 1180l233 256h84l236 -256l-43 -45l-234 176l-233 -176zM502 -20q-93 0 -164 26q-75 28 -127 87q-53 61 -83 159q-30 99 -30 242q0 136 29 237q28 97 80 160q51 62 121 89q72 28 153 28q172 0 264 -112q93 -113 93 -366v-51h-602q2 -221 69 -314t219 -93q80 0 139 22
q61 23 113 60l47 -66q-71 -56 -141 -81q-76 -27 -180 -27zM479 922q-111 0 -171 -82q-59 -82 -70 -275h462q0 190 -49 273q-49 84 -172 84z" />
    <glyph glyph-name="edieresis" unicode="&#xeb;" horiz-adv-x="931" 
d="M299 1137q-42 0 -69 27t-27 71q0 42 27 69t69 27t69 -27t27 -69q0 -44 -27 -71t-69 -27zM659 1137q-41 0 -68 27q-28 28 -28 71q0 41 28 69q27 27 68 27q42 0 69 -27q28 -28 28 -69q0 -43 -28 -71q-27 -27 -69 -27zM502 -20q-93 0 -164 26q-75 28 -127 87q-53 61 -83 159
q-30 99 -30 242q0 136 29 237q28 97 80 160q51 62 121 89q72 28 153 28q172 0 264 -112q93 -113 93 -366v-51h-602q2 -221 69 -314t219 -93q80 0 139 22q61 23 113 60l47 -66q-71 -56 -141 -81q-76 -27 -180 -27zM479 922q-111 0 -171 -82q-59 -82 -70 -275h462
q0 190 -49 273q-49 84 -172 84z" />
    <glyph glyph-name="igrave" unicode="&#xec;" horiz-adv-x="563" 
d="M492 72v-72h-396v72l131 16v795l-133 18v86h264v-899zM432 1126l-379 193l74 123l344 -254z" />
    <glyph glyph-name="iacute" unicode="&#xed;" horiz-adv-x="563" 
d="M106 1188l345 254l71 -123l-377 -193zM492 72v-72h-396v72l131 16v795l-133 18v86h264v-899z" />
    <glyph glyph-name="icircumflex" unicode="&#xee;" horiz-adv-x="563" 
d="M8 1180l234 256h84l235 -256l-43 -45l-233 176l-234 -176zM492 72v-72h-396v72l131 16v795l-133 18v86h264v-899z" />
    <glyph glyph-name="idieresis" unicode="&#xef;" horiz-adv-x="563" 
d="M106 1137q-41 0 -68 27q-28 28 -28 71q0 41 28 69q27 27 68 27q42 0 69 -27q28 -28 28 -69q0 -43 -28 -71q-27 -27 -69 -27zM467 1137q-42 0 -69 27t-27 71q0 42 27 69t69 27t69 -27t27 -69q0 -44 -27 -71t-69 -27zM492 72v-72h-396v72l131 16v795l-133 18v86h264v-899z
" />
    <glyph glyph-name="eth" unicode="&#xf0;" horiz-adv-x="987" 
d="M252 1167l211 111q-40 33 -95 70q-28 19 -108 65l41 80q82 -42 138 -77q65 -40 120 -87l209 111l37 -70l-182 -96q132 -128 199 -305q67 -178 67 -432q0 -157 -29 -265q-28 -106 -81 -171q-52 -64 -125 -93q-71 -28 -160 -28q-87 0 -159 27q-71 27 -125 88
q-51 59 -82 157q-30 96 -30 235q0 134 28 235q26 95 78 159q50 62 118 89t147 27q80 0 145 -31t109 -92q-29 106 -78 192q-50 86 -121 157l-237 -125zM494 68q66 0 110 20q48 22 79 70q31 50 48 129q17 82 17 196q0 116 -17 201q-16 82 -49 131q-33 50 -80 71
q-46 21 -110 21q-69 0 -113 -20q-49 -22 -78 -69q-31 -50 -46 -128q-15 -80 -15 -198q0 -123 16 -202q16 -80 48 -130t80 -71t110 -21z" />
    <glyph glyph-name="ntilde" unicode="&#xf1;" horiz-adv-x="1120" 
d="M791 717q0 95 -37 136q-38 42 -113 42q-71 0 -146 -37q-79 -39 -137 -88v-682l134 -18v-70h-396v70l131 18v795l-133 20v84h240l18 -133q68 68 148 110q83 44 174 44q117 0 183 -63q67 -64 67 -195v-662l127 -18v-70h-260v717zM858 1309q-68 -154 -184 -154q-35 0 -65 12
q-20 8 -56 26q-44 22 -53 26q-27 12 -54 12q-35 0 -62 -22q-25 -20 -48 -56l-66 43q69 154 183 154q34 0 66 -13q33 -13 56 -26q24 -13 53 -27q26 -12 54 -12q38 0 61 22q26 25 48 58z" />
    <glyph glyph-name="ograve" unicode="&#xf2;" horiz-adv-x="995" 
d="M500 -20q-88 0 -160 28q-74 29 -128 90q-54 62 -84 159t-30 237q0 136 30 234t82 160t125 91t159 29q84 0 160 -29t128 -90q55 -64 84 -159q31 -101 31 -234q0 -137 -30 -236q-30 -98 -82 -161q-52 -62 -126 -91q-72 -28 -159 -28zM498 68q134 0 196 96q62 97 62 325
q0 230 -62 330q-62 99 -196 99q-135 0 -197 -97q-61 -95 -61 -325q0 -233 62 -330q62 -98 196 -98zM670 1126l-379 193l74 123l344 -254z" />
    <glyph glyph-name="oacute" unicode="&#xf3;" horiz-adv-x="995" 
d="M291 1188l344 254l72 -123l-377 -193zM500 -20q-88 0 -160 28q-74 29 -128 90q-54 62 -84 159t-30 237q0 136 30 234t82 160t125 91t159 29q84 0 160 -29t128 -90q55 -64 84 -159q31 -101 31 -234q0 -137 -30 -236q-30 -98 -82 -161q-52 -62 -126 -91q-72 -28 -159 -28z
M498 68q134 0 196 96q62 97 62 325q0 230 -62 330q-62 99 -196 99q-135 0 -197 -97q-61 -95 -61 -325q0 -233 62 -330q62 -98 196 -98z" />
    <glyph glyph-name="ocircumflex" unicode="&#xf4;" horiz-adv-x="995" 
d="M223 1180l234 256h84l235 -256l-43 -45l-233 176l-234 -176zM500 -20q-88 0 -160 28q-74 29 -128 90q-54 62 -84 159t-30 237q0 136 30 234t82 160t125 91t159 29q84 0 160 -29t128 -90q55 -64 84 -159q31 -101 31 -234q0 -137 -30 -236q-30 -98 -82 -161
q-52 -62 -126 -91q-72 -28 -159 -28zM498 68q134 0 196 96q62 97 62 325q0 230 -62 330q-62 99 -196 99q-135 0 -197 -97q-61 -95 -61 -325q0 -233 62 -330q62 -98 196 -98z" />
    <glyph glyph-name="otilde" unicode="&#xf5;" horiz-adv-x="995" 
d="M500 -20q-88 0 -160 28q-74 29 -128 90q-54 62 -84 159t-30 237q0 136 30 234t82 160t125 91t159 29q84 0 160 -29t128 -90q55 -64 84 -159q31 -101 31 -234q0 -137 -30 -236q-30 -98 -82 -161q-52 -62 -126 -91q-72 -28 -159 -28zM498 68q134 0 196 96q62 97 62 325
q0 230 -62 330q-62 99 -196 99q-135 0 -197 -97q-61 -95 -61 -325q0 -233 62 -330q62 -98 196 -98zM795 1309q-68 -154 -185 -154q-34 0 -64 12q-25 10 -57 26q-44 22 -53 26q-27 12 -53 12q-35 0 -62 -22t-49 -56l-65 43q69 154 182 154q35 0 67 -13q33 -13 56 -26
q30 -17 52 -27q26 -12 55 -12q38 0 61 22q24 22 47 58z" />
    <glyph glyph-name="odieresis" unicode="&#xf6;" horiz-adv-x="995" 
d="M319 1137q-41 0 -68 27q-28 28 -28 71q0 41 28 69q27 27 68 27q42 0 69 -27q28 -28 28 -69q0 -43 -28 -71q-27 -27 -69 -27zM680 1137q-42 0 -69 27t-27 71q0 42 27 69t69 27t69 -27t27 -69q0 -44 -27 -71t-69 -27zM500 -20q-88 0 -160 28q-74 29 -128 90q-54 62 -84 159
t-30 237q0 136 30 234t82 160t125 91t159 29q84 0 160 -29t128 -90q55 -64 84 -159q31 -101 31 -234q0 -137 -30 -236q-30 -98 -82 -161q-52 -62 -126 -91q-72 -28 -159 -28zM498 68q134 0 196 96q62 97 62 325q0 230 -62 330q-62 99 -196 99q-135 0 -197 -97
q-61 -95 -61 -325q0 -233 62 -330q62 -98 196 -98z" />
    <glyph glyph-name="divide" unicode="&#xf7;" 
d="M172 735h782v-104h-782v104zM563 922q-44 0 -74 30t-30 76t30 76q31 31 74 31q44 0 75 -31q30 -30 30 -76t-30 -76t-75 -30zM563 231q-43 0 -74 31q-30 30 -30 76q0 45 30 75q29 29 74 29q46 0 75 -29q30 -30 30 -75q0 -46 -30 -76q-31 -31 -75 -31z" />
    <glyph glyph-name="oslash" unicode="&#xf8;" horiz-adv-x="995" 
d="M129 -68l90 158q-58 63 -89 160q-32 101 -32 244q0 136 30 234t82 160t125 91t159 29q124 0 221 -62l84 146l80 -48l-95 -159q53 -62 83 -158t30 -231q0 -137 -30 -236q-30 -98 -82 -161q-52 -62 -126 -91q-72 -28 -159 -28q-121 0 -207 53l-84 -148zM240 496
q0 -194 45 -293l379 653q-67 62 -166 62q-135 0 -197 -97q-61 -95 -61 -325zM498 68q134 0 196 96q62 97 62 325q0 179 -39 275l-375 -645q28 -27 69 -40q34 -11 87 -11z" />
    <glyph glyph-name="ugrave" unicode="&#xf9;" horiz-adv-x="1107" 
d="M621 901v86h264v-889l133 -20v-78h-238l-18 123q-65 -64 -141 -103q-77 -40 -164 -40q-119 0 -187 64q-69 64 -69 198v641l-131 18v86h264v-715q0 -98 38 -142t115 -44q68 0 137 33q66 31 128 86v678zM698 1126l-379 193l74 123l344 -254z" />
    <glyph glyph-name="uacute" unicode="&#xfa;" horiz-adv-x="1107" 
d="M330 1188l344 254l71 -123l-376 -193zM621 901v86h264v-889l133 -20v-78h-238l-18 123q-65 -64 -141 -103q-77 -40 -164 -40q-119 0 -187 64q-69 64 -69 198v641l-131 18v86h264v-715q0 -98 38 -142t115 -44q68 0 137 33q66 31 128 86v678z" />
    <glyph glyph-name="ucircumflex" unicode="&#xfb;" horiz-adv-x="1107" 
d="M262 1180l234 256h84l235 -256l-43 -45l-233 176l-234 -176zM621 901v86h264v-889l133 -20v-78h-238l-18 123q-65 -64 -141 -103q-77 -40 -164 -40q-119 0 -187 64q-69 64 -69 198v641l-131 18v86h264v-715q0 -98 38 -142t115 -44q68 0 137 33q66 31 128 86v678z" />
    <glyph glyph-name="udieresis" unicode="&#xfc;" horiz-adv-x="1107" 
d="M348 1137q-41 0 -68 27q-28 28 -28 71q0 41 28 69q27 27 68 27q42 0 69 -27t27 -69q0 -44 -27 -71t-69 -27zM709 1137q-42 0 -69 27q-28 28 -28 71q0 41 28 69q27 27 69 27q41 0 68 -27q28 -28 28 -69q0 -43 -28 -71q-27 -27 -68 -27zM621 901v86h264v-889l133 -20v-78
h-238l-18 123q-65 -64 -141 -103q-77 -40 -164 -40q-119 0 -187 64q-69 64 -69 198v641l-131 18v86h264v-715q0 -98 38 -142t115 -44q68 0 137 33q66 31 128 86v678z" />
    <glyph glyph-name="yacute" unicode="&#xfd;" horiz-adv-x="966" 
d="M606 903v84h348v-84l-106 -16l-285 -907q-35 -110 -68 -174q-35 -67 -81 -113q-45 -45 -102 -72q-54 -26 -132 -47l-33 100q70 18 120 44q47 24 87 64q35 35 64 91q24 47 47 127h-55l-289 889l-103 14v84h361v-84l-121 -16l172 -557q22 -74 39 -146q18 -77 25 -123h2
q15 75 27 119q18 66 42 150l172 559zM299 1188l344 254l72 -123l-377 -193z" />
    <glyph glyph-name="thorn" unicode="&#xfe;" horiz-adv-x="1030" 
d="M557 78q123 0 177 96t54 309q0 117 -12 197q-12 77 -40 129q-27 49 -69 72q-41 22 -100 22q-83 0 -148 -38q-66 -38 -118 -89v-573q53 -53 119 -89t137 -36zM301 864q51 58 126 102q72 42 161 42q74 0 135 -27q60 -26 107 -87q46 -60 72 -158q26 -99 26 -240
q0 -268 -98 -393q-96 -123 -259 -123q-93 0 -158 37q-67 38 -112 89v-436l131 -18v-66h-395v66l133 18v1698l-133 21v79h264v-604z" />
    <glyph glyph-name="ydieresis" unicode="&#xff;" horiz-adv-x="966" 
d="M606 903v84h348v-84l-106 -16l-285 -907q-35 -110 -68 -174q-35 -67 -81 -113q-45 -45 -102 -72q-54 -26 -132 -47l-33 100q70 18 120 44q47 24 87 64q35 35 64 91q24 47 47 127h-55l-289 889l-103 14v84h361v-84l-121 -16l172 -557q22 -74 39 -146q18 -77 25 -123h2
q15 75 27 119q18 66 42 150l172 559zM309 1137q-41 0 -68 27q-28 28 -28 71q0 41 28 69q27 27 68 27q42 0 69 -27q28 -28 28 -69q0 -43 -28 -71q-27 -27 -69 -27zM670 1137q-42 0 -69 27q-28 28 -28 71q0 41 28 69q27 27 69 27q41 0 68 -27q28 -28 28 -69q0 -43 -28 -71
q-27 -27 -68 -27z" />
    <glyph glyph-name="Amacron" unicode="&#x100;" horiz-adv-x="1218" 
d="M827 461h-458l-109 -363l146 -20v-78h-394v78l127 18l404 1311h139l408 -1311l116 -18v-78h-411v78l143 18zM395 553h406l-131 428q-29 94 -44 169q-20 104 -26 136h-2q-9 -53 -29 -136q-15 -64 -47 -169zM371 1653h479v-105h-479v105z" />
    <glyph glyph-name="amacron" unicode="&#x101;" horiz-adv-x="962" 
d="M383 76q85 0 141 32q55 31 101 85v307h-88q-171 0 -247 -46q-77 -47 -77 -173q0 -112 46 -158q47 -47 124 -47zM895 4q-28 -12 -64 -18q-35 -6 -63 -6q-127 0 -137 122q-45 -48 -107 -85t-159 -37q-133 0 -209 69t-76 219q0 170 106 242t334 72h105v123q0 84 -36 141
t-132 57q-81 0 -153 -21q-67 -20 -142 -57l-39 80q71 42 164 73q90 30 196 30q137 0 206 -69t69 -224v-551q0 -33 6 -51q7 -20 20 -29q15 -11 38 -12q32 -2 61 -2zM221 1331h479v-104h-479v104z" />
    <glyph glyph-name="Abreve" unicode="&#x102;" horiz-adv-x="1218" 
d="M827 461h-458l-109 -363l146 -20v-78h-394v78l127 18l404 1311h139l408 -1311l116 -18v-78h-411v78l143 18zM395 553h406l-131 428q-29 94 -44 169q-20 104 -26 136h-2q-9 -53 -29 -136q-15 -64 -47 -169zM608 1511q-52 0 -94 20t-72 50q-31 30 -50 71q-20 41 -27 83
l79 22q22 -58 58 -94q35 -35 106 -35q73 0 108 35q33 33 56 94l82 -22q-9 -39 -29 -83q-18 -40 -49 -71q-30 -30 -73 -50t-95 -20z" />
    <glyph glyph-name="abreve" unicode="&#x103;" horiz-adv-x="962" 
d="M383 76q85 0 141 32q55 31 101 85v307h-88q-171 0 -247 -46q-77 -47 -77 -173q0 -112 46 -158q47 -47 124 -47zM895 4q-28 -12 -64 -18q-35 -6 -63 -6q-127 0 -137 122q-45 -48 -107 -85t-159 -37q-133 0 -209 69t-76 219q0 170 106 242t334 72h105v123q0 84 -36 141
t-132 57q-81 0 -153 -21q-67 -20 -142 -57l-39 80q71 42 164 73q90 30 196 30q137 0 206 -69t69 -224v-551q0 -33 6 -51q7 -20 20 -29q15 -11 38 -12q32 -2 61 -2zM459 1155q-52 0 -94 20t-72 50q-31 31 -50 70q-21 44 -28 83l80 23q22 -59 57 -94t107 -35t107 35t57 94
l82 -23q-9 -39 -29 -83q-17 -38 -49 -70q-30 -30 -73 -50t-95 -20z" />
    <glyph glyph-name="Aogonek" unicode="&#x104;" horiz-adv-x="1218" 
d="M985 -422q-79 0 -128 37q-50 38 -50 115q0 71 45 137q44 64 111 133h-168v78l143 18l-111 365h-458l-109 -363l146 -20v-78h-394v78l127 18l404 1311h139l408 -1311l116 -18v-78h-145q-23 -27 -64 -80q-26 -34 -42 -65q-13 -27 -22 -58q-7 -25 -7 -55q0 -34 18 -57
t55 -23q35 0 61 10q24 9 60 29l31 -61q-29 -22 -69 -42q-42 -20 -97 -20zM395 553h406l-131 428q-29 94 -44 169q-20 104 -26 136h-2q-9 -53 -29 -136q-15 -64 -47 -169z" />
    <glyph glyph-name="aogonek" unicode="&#x105;" horiz-adv-x="962" 
d="M737 -422q-79 0 -128 37q-50 38 -50 115q0 67 44 134q43 65 118 122q-84 23 -90 116q-45 -48 -107 -85t-159 -37q-133 0 -209 69t-76 219q0 170 106 242t334 72h105v123q0 84 -36 141t-132 57q-81 0 -153 -21q-67 -20 -142 -57l-39 80q71 42 164 73q90 30 196 30
q137 0 206 -69t69 -224v-551q0 -33 6 -51q7 -20 20 -29q15 -11 38 -12q32 -2 61 -2l12 -66q-48 -16 -89 -45t-69 -64q-30 -38 -44 -76q-15 -41 -15 -77q0 -34 18 -57t56 -23q34 0 60 10q24 9 60 29l31 -61q-30 -24 -68 -42q-42 -20 -98 -20zM383 76q85 0 141 32
q55 31 101 85v307h-88q-171 0 -247 -46q-77 -47 -77 -173q0 -112 46 -158q47 -47 124 -47z" />
    <glyph glyph-name="Cacute" unicode="&#x106;" horiz-adv-x="1077" 
d="M649 -20q-143 0 -245 48q-100 47 -165 139q-67 95 -96 225q-30 134 -30 306q0 168 30 303q30 134 96 231t164 145q102 50 240 50q100 0 188 -19t150 -67v-254h-88l-37 205q-48 23 -98 32q-51 9 -111 9q-111 0 -184 -42q-75 -43 -118 -123q-44 -83 -62 -197
q-19 -123 -19 -266q0 -145 19 -270q18 -116 62 -197q44 -80 119 -122t187 -42q131 0 230 45l34 198h82v-251q-67 -46 -156 -66q-87 -20 -192 -20zM440 1565l344 254l72 -123l-377 -193z" />
    <glyph glyph-name="cacute" unicode="&#x107;" horiz-adv-x="866" 
d="M289 1188l344 254l72 -123l-377 -193zM489 -20q-84 0 -155 28q-72 28 -123 90q-52 62 -80 159q-29 99 -29 237q0 135 29 234q28 97 81 160q52 63 124 91q73 29 156 29q88 0 160 -25q67 -23 122 -72v-188h-92l-29 149q-36 26 -70 37q-41 13 -91 13q-125 0 -188 -99
q-62 -97 -62 -327q0 -124 17 -200q18 -83 52 -131q36 -51 86 -72q51 -21 119 -21q70 0 129 22q57 21 111 58l47 -64q-65 -50 -134 -78q-75 -30 -180 -30z" />
    <glyph glyph-name="Ccircumflex" unicode="&#x108;" horiz-adv-x="1077" 
d="M362 1546l234 256h84l235 -256l-43 -47l-233 176l-233 -176zM649 -20q-143 0 -245 48q-100 47 -165 139q-67 95 -96 225q-30 134 -30 306q0 168 30 303q30 134 96 231t164 145q102 50 240 50q100 0 188 -19t150 -67v-254h-88l-37 205q-48 23 -98 32q-51 9 -111 9
q-111 0 -184 -42q-75 -43 -118 -123q-44 -83 -62 -197q-19 -123 -19 -266q0 -145 19 -270q18 -116 62 -197q44 -80 119 -122t187 -42q131 0 230 45l34 198h82v-251q-67 -46 -156 -66q-87 -20 -192 -20z" />
    <glyph glyph-name="ccircumflex" unicode="&#x109;" horiz-adv-x="866" 
d="M211 1180l233 256h84l236 -256l-43 -45l-234 176l-233 -176zM489 -20q-84 0 -155 28q-72 28 -123 90q-52 62 -80 159q-29 99 -29 237q0 135 29 234q28 97 81 160q52 63 124 91q73 29 156 29q88 0 160 -25q67 -23 122 -72v-188h-92l-29 149q-36 26 -70 37q-41 13 -91 13
q-125 0 -188 -99q-62 -97 -62 -327q0 -124 17 -200q18 -83 52 -131q36 -51 86 -72q51 -21 119 -21q70 0 129 22q57 21 111 58l47 -64q-65 -50 -134 -78q-75 -30 -180 -30z" />
    <glyph glyph-name="Cdotaccent" unicode="&#x10a;" horiz-adv-x="1077" 
d="M649 -20q-143 0 -245 48q-100 47 -165 139q-67 95 -96 225q-30 134 -30 306q0 168 30 303q30 134 96 231t164 145q102 50 240 50q100 0 188 -19t150 -67v-254h-88l-37 205q-48 23 -98 32q-51 9 -111 9q-111 0 -184 -42q-75 -43 -118 -123q-44 -83 -62 -197
q-19 -123 -19 -266q0 -145 19 -270q18 -116 62 -197q44 -80 119 -122t187 -42q131 0 230 45l34 198h82v-251q-67 -46 -156 -66q-87 -20 -192 -20zM639 1520q-42 0 -69 28t-27 70t27 70t69 28t70 -28t28 -70t-28 -70t-70 -28z" />
    <glyph glyph-name="cdotaccent" unicode="&#x10b;" horiz-adv-x="866" 
d="M489 -20q-84 0 -155 28q-72 28 -123 90q-52 62 -80 159q-29 99 -29 237q0 135 29 234q28 97 81 160q52 63 124 91q73 29 156 29q88 0 160 -25q67 -23 122 -72v-188h-92l-29 149q-36 26 -70 37q-41 13 -91 13q-125 0 -188 -99q-62 -97 -62 -327q0 -124 17 -200
q18 -83 52 -131q36 -51 86 -72q51 -21 119 -21q70 0 129 22q57 21 111 58l47 -64q-65 -50 -134 -78q-75 -30 -180 -30zM487 1206q-43 0 -70 29q-28 30 -28 72q0 41 28 71q27 29 70 29q42 0 72 -28q29 -27 29 -72q0 -43 -29 -72t-72 -29z" />
    <glyph glyph-name="Ccaron" unicode="&#x10c;" horiz-adv-x="1077" 
d="M362 1753l44 47l233 -176l233 176l43 -47l-235 -256h-84zM649 -20q-143 0 -245 48q-100 47 -165 139q-67 95 -96 225q-30 134 -30 306q0 168 30 303q30 134 96 231t164 145q102 50 240 50q100 0 188 -19t150 -67v-254h-88l-37 205q-48 23 -98 32q-51 9 -111 9
q-111 0 -184 -42q-75 -43 -118 -123q-44 -83 -62 -197q-19 -123 -19 -266q0 -145 19 -270q18 -116 62 -197q44 -80 119 -122t187 -42q131 0 230 45l34 198h82v-251q-67 -46 -156 -66q-87 -20 -192 -20z" />
    <glyph glyph-name="ccaron" unicode="&#x10d;" horiz-adv-x="866" 
d="M254 1440l233 -176l234 176l43 -47l-236 -256h-84l-233 256zM489 -20q-84 0 -155 28q-72 28 -123 90q-52 62 -80 159q-29 99 -29 237q0 135 29 234q28 97 81 160q52 63 124 91q73 29 156 29q88 0 160 -25q67 -23 122 -72v-188h-92l-29 149q-36 26 -70 37q-41 13 -91 13
q-125 0 -188 -99q-62 -97 -62 -327q0 -124 17 -200q18 -83 52 -131q36 -51 86 -72q51 -21 119 -21q70 0 129 22q57 21 111 58l47 -64q-65 -50 -134 -78q-75 -30 -180 -30z" />
    <glyph glyph-name="Dcaron" unicode="&#x10e;" horiz-adv-x="1245" 
d="M330 1753l43 47l233 -176l234 176l43 -47l-236 -256h-84zM590 92q116 0 192 36q75 35 121 110q46 76 64 187q18 114 18 269q0 168 -17 279q-17 114 -62 192q-42 74 -121 113q-75 37 -193 37h-203v-1223h201zM575 1407q147 0 253 -38t173 -123q70 -88 99 -220
q30 -135 30 -330q0 -201 -33 -329q-34 -132 -105 -215q-70 -82 -179 -117q-110 -35 -256 -35h-455v78l146 12v1223l-146 16v78h473z" />
    <glyph glyph-name="dcaron" unicode="&#x10f;" horiz-adv-x="1064" 
d="M729 117q-46 -52 -120 -95q-72 -42 -160 -42q-80 0 -143 28t-109 92q-47 65 -70 162q-25 103 -25 238q0 137 27 233t74 158t111 89q67 28 141 28q86 0 150 -37q67 -39 118 -90v487l-133 21v79h264v-1376l133 -20v-72h-237zM467 78q75 0 141 39q63 37 115 86v575
q-58 58 -116 93q-56 34 -134 34q-121 0 -176 -93q-55 -92 -55 -314q0 -122 14 -198q15 -80 42 -130t71 -71t98 -21zM987 1108v360h141l-51 -360h-90z" />
    <glyph glyph-name="Dcroat" unicode="&#x110;" horiz-adv-x="1245" 
d="M102 772h146v541l-146 16v78h473q147 0 253 -38t173 -123q70 -88 99 -220q30 -135 30 -330q0 -201 -33 -329q-34 -132 -105 -215q-70 -82 -179 -117q-110 -35 -256 -35h-455v78l146 12v590h-146v92zM590 92q116 0 192 36q75 35 121 110q46 76 64 187q18 114 18 269
q0 168 -17 279q-17 114 -62 192q-42 74 -121 113q-75 37 -193 37h-203v-543h287v-92h-287v-588h201z" />
    <glyph glyph-name="dcroat" unicode="&#x111;" horiz-adv-x="1064" 
d="M446 1245h277v123l-133 21v79h264v-223h133v-78h-133v-1075l133 -20v-72h-237l-21 117q-46 -52 -120 -95q-72 -42 -160 -42q-80 0 -143 28t-109 92q-47 65 -70 162q-25 103 -25 238q0 137 27 233t74 158t111 89q67 28 141 28q86 0 150 -37q67 -39 118 -90v286h-277v78z
M467 78q75 0 141 39q63 37 115 86v575q-58 58 -116 93q-56 34 -134 34q-121 0 -176 -93q-55 -92 -55 -314q0 -122 14 -198q15 -80 42 -130t71 -71t98 -21z" />
    <glyph glyph-name="Emacron" unicode="&#x112;" horiz-adv-x="1073" 
d="M815 555h-76l-24 137h-326v-600h475l27 193h88v-285h-877v78l146 12v1223l-146 16v78h852v-281h-88l-28 189h-449v-531h326l24 138h76v-367zM311 1653h480v-105h-480v105z" />
    <glyph glyph-name="emacron" unicode="&#x113;" horiz-adv-x="931" 
d="M502 -20q-93 0 -164 26q-75 28 -127 87q-53 61 -83 159q-30 99 -30 242q0 136 29 237q28 97 80 160q51 62 121 89q72 28 153 28q172 0 264 -112q93 -113 93 -366v-51h-602q2 -221 69 -314t219 -93q80 0 139 22q61 23 113 60l47 -66q-71 -56 -141 -81q-76 -27 -180 -27z
M479 922q-111 0 -171 -82q-59 -82 -70 -275h462q0 190 -49 273q-49 84 -172 84zM240 1331h479v-104h-479v104z" />
    <glyph glyph-name="Ebreve" unicode="&#x114;" horiz-adv-x="1073" 
d="M815 555h-76l-24 137h-326v-600h475l27 193h88v-285h-877v78l146 12v1223l-146 16v78h852v-281h-88l-28 189h-449v-531h326l24 138h76v-367zM557 1511q-52 0 -94 20t-72 50q-31 30 -50 71q-21 44 -28 83l80 22q22 -58 58 -94q35 -35 106 -35q73 0 108 35q33 33 56 94
l82 -22q-9 -39 -29 -83q-18 -40 -49 -71q-30 -30 -73 -50t-95 -20z" />
    <glyph glyph-name="ebreve" unicode="&#x115;" horiz-adv-x="931" 
d="M502 -20q-93 0 -164 26q-75 28 -127 87q-53 61 -83 159q-30 99 -30 242q0 136 29 237q28 97 80 160q51 62 121 89q72 28 153 28q172 0 264 -112q93 -113 93 -366v-51h-602q2 -221 69 -314t219 -93q80 0 139 22q61 23 113 60l47 -66q-71 -56 -141 -81q-76 -27 -180 -27z
M479 922q-111 0 -171 -82q-59 -82 -70 -275h462q0 190 -49 273q-49 84 -172 84zM489 1155q-52 0 -94 20q-41 19 -71 50q-33 33 -51 70q-20 41 -27 83l80 23q22 -59 57 -94t106 -35q73 0 108 35q33 33 56 94l82 -23q-11 -44 -28 -83q-16 -36 -50 -70q-31 -31 -72 -50
q-43 -20 -96 -20z" />
    <glyph glyph-name="Edotaccent" unicode="&#x116;" horiz-adv-x="1073" 
d="M549 1520q-42 0 -69 28t-27 70t27 70t69 28q41 0 69 -28q29 -29 29 -70t-29 -70q-28 -28 -69 -28zM815 555h-76l-24 137h-326v-600h475l27 193h88v-285h-877v78l146 12v1223l-146 16v78h852v-281h-88l-28 189h-449v-531h326l24 138h76v-367z" />
    <glyph glyph-name="edotaccent" unicode="&#x117;" horiz-adv-x="931" 
d="M502 -20q-93 0 -164 26q-75 28 -127 87q-53 61 -83 159q-30 99 -30 242q0 136 29 237q28 97 80 160q51 62 121 89q72 28 153 28q172 0 264 -112q93 -113 93 -366v-51h-602q2 -221 69 -314t219 -93q80 0 139 22q61 23 113 60l47 -66q-71 -56 -141 -81q-76 -27 -180 -27z
M479 922q-111 0 -171 -82q-59 -82 -70 -275h462q0 190 -49 273q-49 84 -172 84zM479 1206q-43 0 -70 29q-28 30 -28 72q0 41 28 71q27 29 70 29q42 0 72 -28q29 -27 29 -72q0 -43 -29 -72t-72 -29z" />
    <glyph glyph-name="Eogonek" unicode="&#x118;" horiz-adv-x="1073" 
d="M815 555h-76l-24 137h-326v-600h475l27 193h88v-285h-105q-6 -8 -63 -80q-26 -34 -42 -65t-23 -58q-7 -25 -7 -55q0 -33 19 -57q18 -23 55 -23q34 0 60 10q27 11 61 29l31 -61q-29 -22 -69 -42q-42 -20 -97 -20q-79 0 -128 37q-50 38 -50 115q0 71 45 137q46 68 110 133
h-674v78l146 12v1223l-146 16v78h852v-281h-88l-28 189h-449v-531h326l24 138h76v-367z" />
    <glyph glyph-name="eogonek" unicode="&#x119;" horiz-adv-x="931" 
d="M592 -422q-78 0 -127 37t-49 115q0 66 39 129q40 65 104 123q-14 -2 -29 -2h-28q-93 0 -164 26q-75 28 -127 87q-53 61 -83 159q-30 99 -30 242q0 136 29 237q28 97 80 160q51 62 121 89q72 28 153 28q172 0 264 -112q93 -113 93 -366v-51h-602q2 -221 69 -314t219 -93
q80 0 139 22q61 23 113 60l45 -68q-63 -43 -107 -74q-49 -35 -92 -78q-40 -40 -65 -88t-25 -104q0 -34 20 -57t56 -23q35 0 61 10q24 9 60 29l29 -61q-28 -22 -69 -42q-42 -20 -97 -20zM479 922q-111 0 -171 -82q-59 -82 -70 -275h462q0 190 -49 273q-49 84 -172 84z" />
    <glyph glyph-name="Ecaron" unicode="&#x11a;" horiz-adv-x="1073" 
d="M276 1753l43 47l234 -176l233 176l43 -47l-235 -256h-84zM815 555h-76l-24 137h-326v-600h475l27 193h88v-285h-877v78l146 12v1223l-146 16v78h852v-281h-88l-28 189h-449v-531h326l24 138h76v-367z" />
    <glyph glyph-name="ecaron" unicode="&#x11b;" horiz-adv-x="931" 
d="M256 1440l233 -176l234 176l43 -47l-236 -256h-84l-233 256zM502 -20q-93 0 -164 26q-75 28 -127 87q-53 61 -83 159q-30 99 -30 242q0 136 29 237q28 97 80 160q51 62 121 89q72 28 153 28q172 0 264 -112q93 -113 93 -366v-51h-602q2 -221 69 -314t219 -93q80 0 139 22
q61 23 113 60l47 -66q-71 -56 -141 -81q-76 -27 -180 -27zM479 922q-111 0 -171 -82q-59 -82 -70 -275h462q0 190 -49 273q-49 84 -172 84z" />
    <glyph glyph-name="Gcircumflex" unicode="&#x11c;" horiz-adv-x="1169" 
d="M356 1546l234 256h84l235 -256l-43 -47l-233 176l-234 -176zM680 582v80h354v-662h-88l-24 104q-51 -54 -137 -90q-81 -34 -183 -34q-248 0 -369 180q-120 178 -120 538q0 166 28 299q29 136 92 231q63 94 164 147q100 52 244 52q103 0 187 -20q88 -21 149 -68v-249h-88
l-37 202q-48 23 -97 32q-50 9 -110 9q-115 0 -188 -45q-74 -45 -117 -127q-42 -79 -60 -198q-18 -117 -18 -261q0 -142 19 -266q18 -114 59 -197q40 -80 109 -123q67 -42 163 -42q86 0 157 31q73 32 126 88v372z" />
    <glyph glyph-name="gcircumflex" unicode="&#x11d;" horiz-adv-x="940" 
d="M215 1180l234 256h83l236 -256l-43 -45l-233 176l-234 -176zM471 -432q-106 0 -176 20q-75 22 -122 58q-49 38 -71 87q-22 48 -22 107q0 89 49 144q49 56 111 90q-50 17 -75 55q-26 40 -26 86q0 72 38 125q37 51 83 90q-61 38 -97 102q-38 67 -38 158q0 156 95 237
q94 81 251 81q83 0 139 -21h293v-78l-168 -18q38 -35 59 -89t21 -114q0 -153 -94 -234q-95 -81 -248 -81q-37 0 -76 6q-37 6 -71 18q-34 -35 -54 -70q-20 -34 -20 -77q0 -29 21 -50q22 -22 69 -22h213q159 0 244 -70q86 -71 86 -217q0 -151 -104 -237t-310 -86zM313 57
q-47 -38 -75 -89q-29 -53 -29 -126q0 -42 14 -74q15 -35 45 -59q29 -23 81 -39q46 -14 122 -14q154 0 221 58q68 59 68 165q0 88 -50 133t-147 45h-250zM469 459q213 0 213 235q0 122 -51 175t-162 53q-100 0 -155 -58q-54 -57 -54 -182q0 -119 56 -171t153 -52z" />
    <glyph glyph-name="Gbreve" unicode="&#x11e;" horiz-adv-x="1169" 
d="M633 1511q-52 0 -94 20t-72 50q-31 30 -50 71q-21 44 -28 83l80 22q22 -59 57 -94t107 -35t107 35t57 94l82 -22q-9 -39 -29 -83q-18 -40 -49 -71q-30 -30 -73 -50t-95 -20zM680 582v80h354v-662h-88l-24 104q-51 -54 -137 -90q-81 -34 -183 -34q-248 0 -369 180
q-120 178 -120 538q0 166 28 299q29 136 92 231q63 94 164 147q100 52 244 52q103 0 187 -20q88 -21 149 -68v-249h-88l-37 202q-48 23 -97 32q-50 9 -110 9q-115 0 -188 -45q-74 -45 -117 -127q-42 -79 -60 -198q-18 -117 -18 -261q0 -142 19 -266q18 -114 59 -197
q40 -80 109 -123q67 -42 163 -42q86 0 157 31q73 32 126 88v372z" />
    <glyph glyph-name="gbreve" unicode="&#x11f;" horiz-adv-x="940" 
d="M471 -432q-106 0 -176 20q-75 22 -122 58q-49 38 -71 87q-22 48 -22 107q0 89 49 144q49 56 111 90q-50 17 -75 55q-26 40 -26 86q0 72 38 125q37 51 83 90q-61 38 -97 102q-38 67 -38 158q0 156 95 237q94 81 251 81q83 0 139 -21h293v-78l-168 -18q38 -35 59 -89
t21 -114q0 -153 -94 -234q-95 -81 -248 -81q-37 0 -76 6q-37 6 -71 18q-34 -35 -54 -70q-20 -34 -20 -77q0 -29 21 -50q22 -22 69 -22h213q159 0 244 -70q86 -71 86 -217q0 -151 -104 -237t-310 -86zM313 57q-47 -38 -75 -89q-29 -53 -29 -126q0 -42 14 -74q15 -35 45 -59
q29 -23 81 -39q46 -14 122 -14q154 0 221 58q68 59 68 165q0 88 -50 133t-147 45h-250zM469 459q213 0 213 235q0 122 -51 175t-162 53q-100 0 -155 -58q-54 -57 -54 -182q0 -119 56 -171t153 -52zM489 1155q-52 0 -94 20q-41 19 -71 50q-33 33 -51 70q-20 41 -27 83l80 23
q22 -59 57 -94t106 -35q73 0 108 35q33 33 56 94l82 -23q-11 -44 -28 -83q-16 -36 -50 -70q-31 -31 -72 -50q-43 -20 -96 -20z" />
    <glyph glyph-name="Gdotaccent" unicode="&#x120;" horiz-adv-x="1169" 
d="M633 1520q-42 0 -69 28t-27 70t27 70t69 28q41 0 69 -28q29 -29 29 -70t-29 -70q-28 -28 -69 -28zM680 582v80h354v-662h-88l-24 104q-51 -54 -137 -90q-81 -34 -183 -34q-248 0 -369 180q-120 178 -120 538q0 166 28 299q29 136 92 231q63 94 164 147q100 52 244 52
q103 0 187 -20q88 -21 149 -68v-249h-88l-37 202q-48 23 -97 32q-50 9 -110 9q-115 0 -188 -45q-74 -45 -117 -127q-42 -79 -60 -198q-18 -117 -18 -261q0 -142 19 -266q18 -114 59 -197q40 -80 109 -123q67 -42 163 -42q86 0 157 31q73 32 126 88v372z" />
    <glyph glyph-name="gdotaccent" unicode="&#x121;" horiz-adv-x="940" 
d="M471 -432q-106 0 -176 20q-75 22 -122 58q-49 38 -71 87q-22 48 -22 107q0 89 49 144q49 56 111 90q-50 17 -75 55q-26 40 -26 86q0 72 38 125q37 51 83 90q-61 38 -97 102q-38 67 -38 158q0 156 95 237q94 81 251 81q83 0 139 -21h293v-78l-168 -18q38 -35 59 -89
t21 -114q0 -153 -94 -234q-95 -81 -248 -81q-37 0 -76 6q-37 6 -71 18q-34 -35 -54 -70q-20 -34 -20 -77q0 -29 21 -50q22 -22 69 -22h213q159 0 244 -70q86 -71 86 -217q0 -151 -104 -237t-310 -86zM313 57q-47 -38 -75 -89q-29 -53 -29 -126q0 -42 14 -74q15 -35 45 -59
q29 -23 81 -39q46 -14 122 -14q154 0 221 58q68 59 68 165q0 88 -50 133t-147 45h-250zM469 459q213 0 213 235q0 122 -51 175t-162 53q-100 0 -155 -58q-54 -57 -54 -182q0 -119 56 -171t153 -52zM492 1206q-44 0 -71 29q-28 30 -28 72q0 41 28 71q27 29 71 29q41 0 71 -28
q29 -27 29 -72q0 -43 -29 -72t-71 -29z" />
    <glyph glyph-name="Gcommaaccent" unicode="&#x122;" horiz-adv-x="1169" 
d="M526 -418q45 16 87 45q42 28 42 76q-35 1 -72 23q-36 21 -36 73q0 47 30 74t70 27q47 0 81 -34t34 -99q0 -87 -50 -151q-49 -62 -161 -91zM680 582v80h354v-662h-88l-24 104q-51 -54 -137 -90q-81 -34 -183 -34q-248 0 -369 180q-120 178 -120 538q0 166 28 299
q29 136 92 231q63 94 164 147q100 52 244 52q103 0 187 -20q88 -21 149 -68v-249h-88l-37 202q-48 23 -97 32q-50 9 -110 9q-115 0 -188 -45q-74 -45 -117 -127q-42 -79 -60 -198q-18 -117 -18 -261q0 -142 19 -266q18 -114 59 -197q40 -80 109 -123q67 -42 163 -42
q86 0 157 31q73 32 126 88v372z" />
    <glyph glyph-name="gcommaaccent" unicode="&#x123;" horiz-adv-x="940" 
d="M610 1450q-42 -15 -88 -44q-43 -27 -43 -75q43 -5 74 -24q35 -21 35 -74q0 -46 -29 -73t-70 -27q-46 0 -80 34t-34 101q0 88 49 150t162 91zM471 -432q-106 0 -176 20q-75 22 -122 58q-49 38 -71 87q-22 48 -22 107q0 89 49 144q49 56 111 90q-50 17 -75 55
q-26 40 -26 86q0 72 38 125q37 51 83 90q-61 38 -97 102q-38 67 -38 158q0 156 95 237q94 81 251 81q83 0 139 -21h293v-78l-168 -18q38 -35 59 -89t21 -114q0 -153 -94 -234q-95 -81 -248 -81q-37 0 -76 6q-37 6 -71 18q-34 -35 -54 -70q-20 -34 -20 -77q0 -29 21 -50
q22 -22 69 -22h213q159 0 244 -70q86 -71 86 -217q0 -151 -104 -237t-310 -86zM313 57q-47 -38 -75 -89q-29 -53 -29 -126q0 -42 14 -74q15 -35 45 -59q29 -23 81 -39q46 -14 122 -14q154 0 221 58q68 59 68 165q0 88 -50 133t-147 45h-250zM469 459q213 0 213 235
q0 122 -51 175t-162 53q-100 0 -155 -58q-54 -57 -54 -182q0 -119 56 -171t153 -52z" />
    <glyph glyph-name="Hcircumflex" unicode="&#x124;" horiz-adv-x="1380" 
d="M848 78l143 12v608h-602v-608l146 -12v-78h-433v78l146 12v1223l-146 16v78h433v-78l-146 -16v-518h602v518l-143 16v78h430v-78l-145 -16v-1223l145 -12v-78h-430v78zM414 1546l233 256h84l236 -256l-43 -47l-234 176l-233 -176z" />
    <glyph glyph-name="hcircumflex" unicode="&#x125;" horiz-adv-x="1120" 
d="M358 860q68 65 147 106q81 42 169 42q117 0 183 -63q67 -64 67 -195v-662l127 -18v-70h-260v717q0 95 -37 136q-38 42 -113 42q-69 0 -146 -36q-76 -36 -137 -89v-682l134 -16v-72h-396v72l131 16v1280l-133 21v79h264v-608zM12 1567l234 256h84l235 -256l-43 -47
l-233 176l-234 -176z" />
    <glyph glyph-name="Hbar" unicode="&#x126;" horiz-adv-x="1380" 
d="M102 1110h146v203l-146 16v78h433v-78l-146 -16v-203h602v203l-143 16v78h430v-78l-145 -16v-203h145v-88h-145v-932l145 -12v-78h-430v78l143 12v608h-602v-608l146 -12v-78h-433v78l146 12v932h-146v88zM991 795v227h-602v-227h602z" />
    <glyph glyph-name="hbar" unicode="&#x127;" horiz-adv-x="1120" 
d="M94 1245h133v123l-133 21v79h264v-223h277v-78h-277v-307q68 65 147 106q81 42 169 42q117 0 183 -63q67 -64 67 -195v-662l127 -18v-70h-260v717q0 95 -37 136q-38 42 -113 42q-69 0 -146 -36q-76 -36 -137 -89v-682l134 -16v-72h-396v72l131 16v1079h-133v78z" />
    <glyph glyph-name="Itilde" unicode="&#x128;" horiz-adv-x="636" 
d="M102 78l146 12v1223l-146 16v78h433v-78l-146 -16v-1223l146 -12v-78h-433v78zM614 1669q-67 -151 -184 -151q-34 0 -64 12q-35 14 -57 25q-44 22 -53 26q-27 12 -53 12q-38 0 -63 -22q-26 -23 -48 -55l-65 43q67 151 182 151q36 0 66 -12q25 -10 57 -26q18 -9 52 -25
q28 -13 54 -13q37 0 62 23q25 24 47 57z" />
    <glyph glyph-name="itilde" unicode="&#x129;" horiz-adv-x="563" 
d="M492 72v-72h-396v72l131 16v795l-133 18v86h264v-899zM580 1309q-68 -154 -185 -154q-34 0 -64 12q-25 10 -57 26q-44 22 -53 26q-27 12 -53 12q-36 0 -63 -22q-25 -20 -48 -56l-65 43q69 154 182 154q34 0 67 -13t56 -26q30 -17 52 -27q25 -12 54 -12q39 0 62 22
q24 22 47 58z" />
    <glyph glyph-name="Imacron" unicode="&#x12a;" horiz-adv-x="636" 
d="M102 78l146 12v1223l-146 16v78h433v-78l-146 -16v-1223l146 -12v-78h-433v78zM82 1653h479v-105h-479v105z" />
    <glyph glyph-name="imacron" unicode="&#x12b;" horiz-adv-x="563" 
d="M53 1331h418v-104h-418v104zM492 72v-72h-396v72l131 16v795l-133 18v86h264v-899z" />
    <glyph glyph-name="Ibreve" unicode="&#x12c;" horiz-adv-x="636" 
d="M102 78l146 12v1223l-146 16v78h433v-78l-146 -16v-1223l146 -12v-78h-433v78zM319 1511q-52 0 -94 20q-40 19 -71 50q-32 32 -51 71q-20 41 -27 83l80 22q22 -59 57 -94t106 -35q73 0 108 35q33 33 56 94l82 -22q-11 -44 -28 -83q-17 -38 -50 -71q-31 -31 -72 -50
q-43 -20 -96 -20z" />
    <glyph glyph-name="ibreve" unicode="&#x12d;" horiz-adv-x="563" 
d="M492 72v-72h-396v72l131 16v795l-133 18v86h264v-899zM285 1155q-53 0 -95 20q-41 19 -71 50q-31 31 -50 70q-21 44 -28 83l80 23q22 -59 57 -94t107 -35t107 35t57 94l81 -23q-11 -44 -28 -83q-17 -38 -49 -70q-30 -30 -73 -50t-95 -20z" />
    <glyph glyph-name="Iogonek" unicode="&#x12e;" horiz-adv-x="636" 
d="M102 78l146 12v1223l-146 16v78h433v-78l-146 -16v-1223l146 -12v-78h-134q-6 -8 -63 -80q-26 -34 -42 -65t-23 -58q-7 -25 -7 -55q0 -33 19 -57q18 -23 55 -23q34 0 60 10q27 11 61 29l31 -61q-28 -22 -69 -42q-42 -20 -97 -20q-79 0 -128 37q-51 39 -51 115
q0 70 46 137q46 68 110 133h-201v78z" />
    <glyph glyph-name="iogonek" unicode="&#x12f;" horiz-adv-x="563" 
d="M299 -422q-79 0 -128 37q-50 38 -50 115q0 71 45 137q46 68 110 133h-180v72l131 16v795l-133 18v86h264v-899l134 -16v-72h-117q-23 -27 -64 -80q-26 -34 -42 -65q-13 -27 -22 -58q-7 -25 -7 -55q0 -34 18 -57t55 -23q35 0 61 10q24 9 60 29l31 -61q-29 -22 -69 -42
q-42 -20 -97 -20zM276 1206q-43 0 -70 29q-28 30 -28 72q0 41 28 71q27 29 70 29q42 0 72 -28q29 -27 29 -72q0 -43 -29 -72t-72 -29z" />
    <glyph glyph-name="Idotaccent" unicode="&#x130;" horiz-adv-x="636" 
d="M102 78l146 12v1223l-146 16v78h433v-78l-146 -16v-1223l146 -12v-78h-433v78zM322 1520q-42 0 -69 28q-28 30 -28 70t28 70q27 28 69 28q41 0 69 -28q29 -29 29 -70t-29 -70q-28 -28 -69 -28z" />
    <glyph glyph-name="dotlessi" unicode="&#x131;" horiz-adv-x="563" 
d="M492 72v-72h-396v72l131 16v795l-133 18v86h264v-899z" />
    <glyph glyph-name="IJ" unicode="&#x132;" horiz-adv-x="1222" 
d="M102 78l146 12v1223l-146 16v78h433v-78l-146 -16v-1223l146 -12v-78h-433v78zM1001 197q0 -107 -16 -180q-17 -75 -52 -130q-35 -54 -94 -95q-58 -40 -143 -75l-41 72q51 30 90 60t66 69t39 93t12 134v1168l-145 16v78h430v-78l-146 -16v-1116z" />
    <glyph glyph-name="ij" unicode="&#x133;" horiz-adv-x="1075" 
d="M492 72v-72h-396v72l131 16v795l-133 18v86h264v-899zM276 1206q-43 0 -70 29q-28 30 -28 72q0 41 28 71q27 29 70 29q42 0 72 -28q29 -27 29 -72q0 -43 -29 -72t-72 -29zM612 -348q44 27 73 52q31 26 48 59q20 39 27 79q8 48 8 109v932l-133 18v86h264v-1007
q0 -97 -16 -158q-17 -65 -48 -109q-31 -45 -78 -75q-51 -33 -104 -58zM817 1206q-41 0 -68 29q-28 30 -28 72q0 41 28 71q27 29 68 29q45 0 73 -28t28 -72q0 -42 -28 -72q-27 -29 -73 -29z" />
    <glyph glyph-name="Jcircumflex" unicode="&#x134;" horiz-adv-x="585" 
d="M18 1546l234 256h84l235 -256l-43 -47l-233 176l-234 -176zM365 197q0 -103 -17 -180q-17 -75 -52 -130q-35 -54 -94 -95q-58 -40 -143 -75l-41 72q55 33 91 60q37 28 65 69q27 39 39 93t12 134v1168l-145 16v78h430v-78l-145 -16v-1116z" />
    <glyph glyph-name="jcircumflex" unicode="&#x135;" horiz-adv-x="509" 
d="M49 -348q44 27 73 52q31 26 48 59q20 39 27 79q8 48 8 109v932l-133 18v86h264v-1007q0 -93 -17 -158t-48 -109q-32 -46 -77 -75q-51 -33 -104 -58zM-4 1180l233 256h84l236 -256l-43 -45l-234 176l-233 -176z" />
    <glyph glyph-name="Kcommaaccent" unicode="&#x136;" horiz-adv-x="1185" 
d="M524 -418q45 16 87 45q42 28 42 76q-35 1 -72 23q-36 21 -36 73q0 48 29 74q30 27 71 27q47 0 81 -34t34 -99q0 -87 -50 -151q-49 -62 -161 -91zM102 78l146 12v1223l-146 16v78h433v-78l-146 -16v-1223l146 -12v-78h-433v78zM1180 78v-78h-248l-510 745l467 564l-150 20
v78h410v-78l-135 -18l-447 -543l467 -678z" />
    <glyph glyph-name="kcommaaccent" unicode="&#x137;" horiz-adv-x="1013" 
d="M428 -418q45 16 87 45q42 28 42 76q-36 1 -73 23q-35 20 -35 73q0 48 29 74q30 27 71 27q47 0 81 -34t34 -99q0 -86 -51 -151q-49 -63 -160 -91zM705 891l-125 14v82h362v-84l-123 -16l-297 -322l346 -475l125 -18v-72h-211l-397 545zM358 88l134 -16v-72h-396v72l131 16
v1280l-133 21v79h264v-1380z" />
    <glyph glyph-name="kgreenlandic" unicode="&#x138;" horiz-adv-x="1013" 
d="M705 891l-125 14v82h362v-84l-123 -16l-293 -322l346 -475l121 -18v-72h-211l-397 545zM492 72v-72h-396v72l131 16v795l-133 18v86h264v-899z" />
    <glyph glyph-name="Lacute" unicode="&#x139;" horiz-adv-x="1009" 
d="M172 1565l344 254l72 -123l-377 -193zM389 92h475l29 215h88v-307h-879v78l146 12v1223l-146 16v78h433v-78l-146 -16v-1221z" />
    <glyph glyph-name="lacute" unicode="&#x13a;" horiz-adv-x="569" 
d="M86 1585l344 254l72 -123l-377 -192zM227 1368l-133 21v79h264v-1380l134 -16v-72h-396v72l131 16v1280z" />
    <glyph glyph-name="Lcommaaccent" unicode="&#x13b;" horiz-adv-x="1009" 
d="M436 -418q45 16 87 45q42 28 42 76q-35 1 -72 23q-36 21 -36 73q0 48 29 74q30 27 71 27q47 0 81 -34t34 -99q0 -87 -50 -151q-49 -62 -161 -91zM389 92h475l29 215h88v-307h-879v78l146 12v1223l-146 16v78h433v-78l-146 -16v-1221z" />
    <glyph glyph-name="lcommaaccent" unicode="&#x13c;" horiz-adv-x="569" 
d="M178 -418q45 16 87 45t42 76q-36 1 -73 23q-35 20 -35 73q0 48 29 74q30 27 71 27q47 0 81 -34t34 -99q0 -87 -50 -151q-49 -62 -161 -91zM227 1368l-133 21v79h264v-1380l134 -16v-72h-396v72l131 16v1280z" />
    <glyph glyph-name="Lcaron" unicode="&#x13d;" horiz-adv-x="1009" 
d="M389 92h475l29 215h88v-307h-879v78l146 12v1223l-146 16v78h433v-78l-146 -16v-1221zM713 1049v360h141l-51 -360h-90z" />
    <glyph glyph-name="lcaron" unicode="&#x13e;" horiz-adv-x="569" 
d="M227 1368l-133 21v79h264v-1380l134 -16v-72h-396v72l131 16v1280zM494 1108v360h141l-51 -360h-90z" />
    <glyph glyph-name="Ldot" unicode="&#x13f;" horiz-adv-x="1009" 
d="M805 629q-42 0 -69 28q-27 29 -27 70t27 70q27 28 69 28q41 0 69 -28q29 -29 29 -70t-29 -70q-28 -28 -69 -28zM389 92h475l29 215h88v-307h-879v78l146 12v1223l-146 16v78h433v-78l-146 -16v-1221z" />
    <glyph glyph-name="ldot" unicode="&#x140;" horiz-adv-x="612" 
d="M227 1368l-133 21v79h264v-1380l134 -16v-72h-396v72l131 16v1280zM588 668q-44 0 -71 28q-28 30 -28 72t28 72q27 28 71 28q42 0 71 -27t29 -73q0 -43 -29 -72q-28 -28 -71 -28z" />
    <glyph glyph-name="Lslash" unicode="&#x141;" horiz-adv-x="1009" 
d="M102 637l146 53v623l-146 16v78h433v-78l-146 -16v-574l305 111v-94l-305 -113v-551h475l29 215h88v-307h-879v78l146 12v504l-146 -51v94z" />
    <glyph glyph-name="lslash" unicode="&#x142;" horiz-adv-x="577" 
d="M63 694l168 86v588l-131 21v79h265v-626l178 92v-98l-178 -93v-655l131 -16v-72h-396v72l131 16v594l-168 -86v98z" />
    <glyph glyph-name="Nacute" unicode="&#x143;" horiz-adv-x="1333" 
d="M465 1565l344 254l72 -123l-377 -193zM848 1329v78h399v-78l-143 -16v-1313h-131l-477 924q-53 101 -94 188q-30 63 -56 137h-2q5 -60 10 -175q4 -92 4 -226v-758l144 -12v-78h-400v78l146 12v1223l-146 16v78h281l483 -938q36 -69 83 -170q35 -73 57 -141h2
q-7 88 -11 161q-4 80 -4 199v795z" />
    <glyph glyph-name="nacute" unicode="&#x144;" horiz-adv-x="1120" 
d="M367 1188l344 254l71 -123l-376 -193zM791 717q0 95 -37 136q-38 42 -113 42q-71 0 -146 -37q-79 -39 -137 -88v-682l134 -18v-70h-396v70l131 18v795l-133 20v84h240l18 -133q68 68 148 110q83 44 174 44q117 0 183 -63q67 -64 67 -195v-662l127 -18v-70h-260v717z" />
    <glyph glyph-name="Ncommaaccent" unicode="&#x145;" horiz-adv-x="1333" 
d="M557 -418q45 16 87 45q42 28 42 76q-36 1 -73 23q-35 20 -35 73q0 48 29 74q30 27 71 27q47 0 81 -34t34 -99q0 -86 -51 -151q-49 -63 -160 -91zM848 1329v78h399v-78l-143 -16v-1313h-131l-477 924q-53 101 -94 188q-30 63 -56 137h-2q5 -60 10 -175q4 -92 4 -226v-758
l144 -12v-78h-400v78l146 12v1223l-146 16v78h281l483 -938q36 -69 83 -170q35 -73 57 -141h2q-7 88 -11 161q-4 80 -4 199v795z" />
    <glyph glyph-name="ncommaaccent" unicode="&#x146;" horiz-adv-x="1120" 
d="M455 -418q45 16 87 45q42 28 42 76q-36 1 -73 23q-36 21 -36 73q0 47 30 74t70 27q47 0 81 -34t34 -99q0 -87 -50 -151q-49 -62 -161 -91zM791 717q0 95 -37 136q-38 42 -113 42q-71 0 -146 -37q-79 -39 -137 -88v-682l134 -18v-70h-396v70l131 18v795l-133 20v84h240
l18 -133q68 68 148 110q83 44 174 44q117 0 183 -63q67 -64 67 -195v-662l127 -18v-70h-260v717z" />
    <glyph glyph-name="Ncaron" unicode="&#x147;" horiz-adv-x="1333" 
d="M397 1753l43 47l234 -176l233 176l43 -47l-235 -256h-84zM848 1329v78h399v-78l-143 -16v-1313h-131l-477 924q-53 101 -94 188q-30 63 -56 137h-2q5 -60 10 -175q4 -92 4 -226v-758l144 -12v-78h-400v78l146 12v1223l-146 16v78h281l483 -938q36 -69 83 -170
q35 -73 57 -141h2q-7 88 -11 161q-4 80 -4 199v795z" />
    <glyph glyph-name="ncaron" unicode="&#x148;" horiz-adv-x="1120" 
d="M330 1440l233 -176l234 176l43 -47l-236 -256h-84l-233 256zM791 717q0 95 -37 136q-38 42 -113 42q-71 0 -146 -37q-79 -39 -137 -88v-682l134 -18v-70h-396v70l131 18v795l-133 20v84h240l18 -133q68 68 148 110q83 44 174 44q117 0 183 -63q67 -64 67 -195v-662
l127 -18v-70h-260v717z" />
    <glyph glyph-name="napostrophe" unicode="&#x149;" horiz-adv-x="1120" 
d="M-106 1063q45 17 87 45t42 76q-38 2 -73 22q-36 21 -36 74q0 47 30 74q29 26 70 26q48 0 81 -33q34 -34 34 -100q0 -86 -50 -150q-49 -62 -161 -91zM791 717q0 95 -37 136q-38 42 -113 42q-71 0 -146 -37q-79 -39 -137 -88v-682l134 -18v-70h-396v70l131 18v795l-133 20
v84h240l18 -133q68 68 148 110q83 44 174 44q117 0 183 -63q67 -64 67 -195v-662l127 -18v-70h-260v717z" />
    <glyph glyph-name="Eng" unicode="&#x14a;" horiz-adv-x="1333" 
d="M496 924q-53 101 -94 188q-30 63 -56 137h-2q5 -60 10 -175q4 -92 4 -226v-758l144 -12v-78h-400v78l146 12v1223l-146 16v78h281l483 -938q36 -69 83 -170q35 -73 57 -141h2q-7 88 -11 161q-4 80 -4 199v795l-145 16v78h399v-78l-143 -16v-1174q0 -99 -17 -181
q-17 -81 -53 -139q-39 -63 -95 -107q-59 -47 -142 -81l-39 74q79 44 143 118q63 72 70 185z" />
    <glyph glyph-name="eng" unicode="&#x14b;" horiz-adv-x="1083" 
d="M635 -348q44 27 73 52q31 26 48 59q19 36 26 79q9 54 9 109v766q0 95 -37 136q-38 42 -113 42q-71 0 -146 -37q-79 -39 -137 -88v-682l134 -18v-70h-396v70l131 18v795l-133 20v84h240l18 -133q68 68 148 110q83 44 174 44q117 0 183 -63q67 -64 67 -195v-770
q0 -93 -17 -158t-48 -109q-31 -45 -78 -75q-55 -36 -105 -58z" />
    <glyph glyph-name="Omacron" unicode="&#x14c;" horiz-adv-x="1232" 
d="M377 1653h479v-105h-479v105zM621 -20q-259 0 -384 180q-124 179 -124 538q0 354 128 542q127 187 375 187q249 0 376 -185q128 -187 128 -535q0 -362 -120 -545q-119 -182 -379 -182zM616 76q194 0 273 151q80 152 80 465q0 321 -82 479q-83 160 -271 160
q-186 0 -269 -156q-83 -157 -83 -470q0 -318 81 -474q80 -155 271 -155z" />
    <glyph glyph-name="omacron" unicode="&#x14d;" horiz-adv-x="995" 
d="M260 1331h479v-104h-479v104zM500 -20q-88 0 -160 28q-74 29 -128 90q-54 62 -84 159t-30 237q0 136 30 234t82 160t125 91t159 29q84 0 160 -29t128 -90q55 -64 84 -159q31 -101 31 -234q0 -137 -30 -236q-30 -98 -82 -161q-52 -62 -126 -91q-72 -28 -159 -28zM498 68
q134 0 196 96q62 97 62 325q0 230 -62 330q-62 99 -196 99q-135 0 -197 -97q-61 -95 -61 -325q0 -233 62 -330q62 -98 196 -98z" />
    <glyph glyph-name="Obreve" unicode="&#x14e;" horiz-adv-x="1232" 
d="M614 1511q-52 0 -94 20q-41 19 -71 50q-32 32 -51 71q-20 41 -27 83l80 22q22 -59 57 -94t106 -35q73 0 108 35q33 33 56 94l82 -22q-9 -39 -29 -83q-18 -40 -49 -71t-72 -50q-43 -20 -96 -20zM621 -20q-259 0 -384 180q-124 179 -124 538q0 354 128 542q127 187 375 187
q249 0 376 -185q128 -187 128 -535q0 -362 -120 -545q-119 -182 -379 -182zM616 76q194 0 273 151q80 152 80 465q0 321 -82 479q-83 160 -271 160q-186 0 -269 -156q-83 -157 -83 -470q0 -318 81 -474q80 -155 271 -155z" />
    <glyph glyph-name="obreve" unicode="&#x14f;" horiz-adv-x="995" 
d="M500 -20q-88 0 -160 28q-74 29 -128 90q-54 62 -84 159t-30 237q0 136 30 234t82 160t125 91t159 29q84 0 160 -29t128 -90q55 -64 84 -159q31 -101 31 -234q0 -137 -30 -236q-30 -98 -82 -161q-52 -62 -126 -91q-72 -28 -159 -28zM498 68q134 0 196 96q62 97 62 325
q0 230 -62 330q-62 99 -196 99q-135 0 -197 -97q-61 -95 -61 -325q0 -233 62 -330q62 -98 196 -98zM498 1155q-53 0 -95 20q-40 19 -71 50t-50 70q-21 44 -28 83l80 23q22 -59 57 -94t107 -35t107 35t57 94l81 -23q-11 -44 -28 -83q-17 -38 -49 -70q-30 -30 -73 -50t-95 -20
z" />
    <glyph glyph-name="Ohungarumlaut" unicode="&#x150;" horiz-adv-x="1232" 
d="M702 1522l183 372l123 -73l-234 -340zM387 1522l182 372l121 -73l-231 -340zM621 -20q-259 0 -384 180q-124 179 -124 538q0 354 128 542q127 187 375 187q249 0 376 -185q128 -187 128 -535q0 -362 -120 -545q-119 -182 -379 -182zM616 76q194 0 273 151q80 152 80 465
q0 321 -82 479q-83 160 -271 160q-186 0 -269 -156q-83 -157 -83 -470q0 -318 81 -474q80 -155 271 -155z" />
    <glyph glyph-name="ohungarumlaut" unicode="&#x151;" horiz-adv-x="995" 
d="M614 1135l183 372l123 -75l-234 -338zM299 1135l182 372l121 -75l-231 -338zM500 -20q-88 0 -160 28q-74 29 -128 90q-54 62 -84 159t-30 237q0 136 30 234t82 160t125 91t159 29q84 0 160 -29t128 -90q55 -64 84 -159q31 -101 31 -234q0 -137 -30 -236q-30 -98 -82 -161
q-52 -62 -126 -91q-72 -28 -159 -28zM498 68q134 0 196 96q62 97 62 325q0 230 -62 330q-62 99 -196 99q-135 0 -197 -97q-61 -95 -61 -325q0 -233 62 -330q62 -98 196 -98z" />
    <glyph glyph-name="OE" unicode="&#x152;" horiz-adv-x="1679" 
d="M688 0q-146 0 -256 35q-109 35 -179 117q-72 85 -106 215q-34 132 -34 329q0 195 30 330q29 132 99 220q67 85 173 123t255 38h891v-281h-88l-27 189h-451v-531h326l27 138h75v-367h-75l-27 137h-326v-600h475l27 193h88v-285h-897zM856 1315h-203q-119 0 -194 -37
q-77 -38 -120 -113q-43 -76 -61 -192q-18 -117 -18 -279q0 -149 19 -269q18 -112 62 -187q44 -74 121 -110q76 -36 193 -36h201v1223z" />
    <glyph glyph-name="oe" unicode="&#x153;" horiz-adv-x="1587" 
d="M1157 -20q-115 0 -200 42q-86 42 -136 140q-50 -95 -134 -139q-82 -43 -187 -43q-88 0 -160 28q-74 29 -128 90q-54 62 -84 159t-30 237q0 136 30 234t82 160t125 91t159 29q105 0 191 -43q87 -44 140 -140q50 99 130 141q81 42 184 42q172 0 264 -112t92 -366v-51h-604
q1 -220 70 -314q67 -93 219 -93q81 0 140 22q63 24 114 60l47 -66q-69 -55 -143 -81q-76 -27 -181 -27zM498 68q134 0 196 96q62 97 62 325q0 230 -62 330q-62 99 -196 99q-135 0 -197 -97q-61 -95 -61 -325q0 -233 62 -330q62 -98 196 -98zM1135 922q-111 0 -171 -82
q-61 -83 -71 -275h465q0 188 -50 273q-50 84 -173 84z" />
    <glyph glyph-name="Racute" unicode="&#x154;" horiz-adv-x="1202" 
d="M393 1565l344 254l72 -123l-377 -193zM610 719q152 0 212 81q61 82 61 224q0 68 -15 121q-16 56 -47 91q-32 37 -87 58q-54 21 -132 21h-213v-596h221zM1186 78v-78h-258l-142 412q-40 120 -94 168q-53 47 -145 47h-158v-537l146 -12v-78h-433v78l146 12v1223l-146 16v78
h510q91 0 169 -23t132 -68q57 -47 86 -118q31 -74 31 -170q0 -161 -79 -253t-222 -113v-5q60 -17 112 -67q53 -51 87 -150l121 -350z" />
    <glyph glyph-name="racute" unicode="&#x155;" horiz-adv-x="714" 
d="M211 1188l344 254l72 -123l-377 -193zM526 72v-72h-440v70l133 18v795l-133 20v84h238l22 -168q38 46 58 68q26 28 65 59q35 27 75 42q43 16 87 16q25 0 39 -7l-19 -141q-24 6 -53 6q-72 0 -130 -35q-57 -35 -118 -94v-641z" />
    <glyph glyph-name="Rcommaaccent" unicode="&#x156;" horiz-adv-x="1202" 
d="M504 -418q45 16 87 45q42 28 42 76q-36 1 -73 23q-36 21 -36 73q0 47 30 74t71 27q47 0 81 -34q33 -33 33 -99q0 -87 -50 -151q-49 -62 -161 -91zM610 719q152 0 212 81q61 82 61 224q0 68 -15 121q-16 56 -47 91q-32 37 -87 58q-54 21 -132 21h-213v-596h221zM1186 78
v-78h-258l-142 412q-40 120 -94 168q-53 47 -145 47h-158v-537l146 -12v-78h-433v78l146 12v1223l-146 16v78h510q91 0 169 -23t132 -68q57 -47 86 -118q31 -74 31 -170q0 -161 -79 -253t-222 -113v-5q60 -17 112 -67q53 -51 87 -150l121 -350z" />
    <glyph glyph-name="rcommaaccent" unicode="&#x157;" horiz-adv-x="714" 
d="M164 -418q45 16 87 45t42 76q-36 1 -73 23q-36 21 -36 73q0 47 30 74t71 27q47 0 81 -34q33 -33 33 -99q0 -87 -50 -151q-49 -62 -161 -91zM526 72v-72h-440v70l133 18v795l-133 20v84h238l22 -168q38 46 58 68q26 28 65 59q35 27 75 42q43 16 87 16q25 0 39 -7l-19 -141
q-24 6 -53 6q-72 0 -130 -35q-57 -35 -118 -94v-641z" />
    <glyph glyph-name="Rcaron" unicode="&#x158;" horiz-adv-x="1202" 
d="M295 1753l43 47l233 -176l234 176l43 -47l-236 -256h-84zM610 719q152 0 212 81q61 82 61 224q0 68 -15 121q-16 56 -47 91q-32 37 -87 58q-54 21 -132 21h-213v-596h221zM1186 78v-78h-258l-142 412q-40 120 -94 168q-53 47 -145 47h-158v-537l146 -12v-78h-433v78
l146 12v1223l-146 16v78h510q91 0 169 -23t132 -68q57 -47 86 -118q31 -74 31 -170q0 -161 -79 -253t-222 -113v-5q60 -17 112 -67q53 -51 87 -150l121 -350z" />
    <glyph glyph-name="rcaron" unicode="&#x159;" horiz-adv-x="714" 
d="M176 1440l234 -176l233 176l43 -47l-235 -256h-84l-234 256zM526 72v-72h-440v70l133 18v795l-133 20v84h238l22 -168q38 46 58 68q26 28 65 59q35 27 75 42q43 16 87 16q25 0 39 -7l-19 -141q-24 6 -53 6q-72 0 -130 -35q-57 -35 -118 -94v-641z" />
    <glyph glyph-name="Sacute" unicode="&#x15a;" horiz-adv-x="997" 
d="M473 -20q-244 0 -371 112v254h91l36 -209q45 -34 104 -49q53 -14 132 -14q87 0 143 22q58 23 92 63q37 43 51 91q15 51 15 110q0 70 -21 117q-22 49 -57 81q-34 31 -90 60q-49 25 -121 54q-90 35 -147 68q-66 38 -109 82q-44 46 -67 109q-23 64 -23 150q0 166 105 256
t280 90q100 0 179 -21q82 -22 143 -58v-254h-88l-41 194q-36 19 -85 32q-43 11 -110 11q-126 0 -191 -62q-67 -64 -67 -179q0 -63 16 -105q17 -44 50 -74q36 -33 82 -55q47 -23 116 -51q84 -35 154 -71q72 -38 120 -84q51 -49 77 -116q28 -72 28 -167q0 -76 -25 -149
t-76 -124q-55 -55 -132 -84q-80 -30 -193 -30zM311 1565l344 254l72 -123l-377 -193z" />
    <glyph glyph-name="sacute" unicode="&#x15b;" horiz-adv-x="823" 
d="M227 1188l344 254l72 -123l-377 -193zM387 -20q-94 0 -166 19q-74 20 -125 54v199h90l31 -152q37 -16 76 -25q37 -9 96 -9q111 0 163 48t52 136q0 46 -11 75q-12 31 -37 55t-68 42q-52 22 -101 37q-52 16 -106 41q-51 23 -85 56q-36 35 -57 82q-20 46 -20 116q0 51 18 97
t56 81t93 55q57 21 132 21q83 0 154 -17q69 -17 120 -45v-194h-88l-33 141q-33 17 -69 21q-50 6 -78 6q-85 0 -137 -41q-51 -41 -51 -115q0 -79 46 -116t150 -70q61 -18 115 -41q52 -22 94 -58q41 -35 65 -87q23 -50 23 -132q0 -142 -93 -211t-249 -69z" />
    <glyph glyph-name="Scircumflex" unicode="&#x15c;" horiz-adv-x="997" 
d="M244 1546l233 256h84l236 -256l-43 -47l-234 176l-233 -176zM473 -20q-244 0 -371 112v254h91l36 -209q45 -34 104 -49q53 -14 132 -14q87 0 143 22q58 23 92 63q37 43 51 91q15 51 15 110q0 70 -21 117q-22 49 -57 81q-34 31 -90 60q-49 25 -121 54q-90 35 -147 68
q-66 38 -109 82q-44 46 -67 109q-23 64 -23 150q0 166 105 256t280 90q100 0 179 -21q82 -22 143 -58v-254h-88l-41 194q-36 19 -85 32q-43 11 -110 11q-126 0 -191 -62q-67 -64 -67 -179q0 -63 16 -105q17 -44 50 -74q36 -33 82 -55q47 -23 116 -51q84 -35 154 -71
q72 -38 120 -84q51 -49 77 -116q28 -72 28 -167q0 -76 -25 -149t-76 -124q-55 -55 -132 -84q-80 -30 -193 -30z" />
    <glyph glyph-name="scircumflex" unicode="&#x15d;" horiz-adv-x="823" 
d="M150 1180l233 256h84l235 -256l-43 -45l-233 176l-233 -176zM387 -20q-94 0 -166 19q-74 20 -125 54v199h90l31 -152q37 -16 76 -25q37 -9 96 -9q111 0 163 48t52 136q0 46 -11 75q-12 31 -37 55t-68 42q-52 22 -101 37q-52 16 -106 41q-51 23 -85 56q-36 35 -57 82
q-20 46 -20 116q0 51 18 97t56 81t93 55q57 21 132 21q83 0 154 -17q69 -17 120 -45v-194h-88l-33 141q-33 17 -69 21q-50 6 -78 6q-85 0 -137 -41q-51 -41 -51 -115q0 -79 46 -116t150 -70q61 -18 115 -41q52 -22 94 -58q41 -35 65 -87q23 -50 23 -132q0 -142 -93 -211
t-249 -69z" />
    <glyph glyph-name="Scedilla" unicode="&#x15e;" horiz-adv-x="997" 
d="M449 -422q-46 0 -84 14q-44 16 -70 37l39 62q30 -18 53 -26q27 -9 62 -9q43 0 60 20t17 62q0 84 -75 84q-27 0 -47 -3q-21 -3 -35 -7l61 170q-109 5 -186 30q-81 26 -142 80v254h91l36 -209q45 -34 104 -49q53 -14 132 -14q87 0 143 22q58 23 92 63q37 43 51 91
q15 51 15 110q0 70 -21 117q-22 49 -57 81q-34 31 -90 60q-49 25 -121 54q-90 35 -147 68q-66 38 -109 82q-44 46 -67 109q-23 64 -23 150q0 166 105 256t280 90q100 0 179 -21q82 -22 143 -58v-254h-88l-41 194q-36 19 -85 32q-43 11 -110 11q-126 0 -191 -62
q-67 -64 -67 -179q0 -63 16 -105q17 -44 50 -74q36 -33 82 -55q47 -23 116 -51q84 -35 154 -71q72 -38 120 -84q51 -49 77 -116q28 -72 28 -167q0 -78 -22 -144q-22 -67 -71 -120q-47 -51 -122 -85q-70 -31 -176 -36l-37 -95q76 0 118 -42t42 -107q0 -68 -42 -114t-140 -46z
" />
    <glyph glyph-name="scedilla" unicode="&#x15f;" horiz-adv-x="823" 
d="M377 -422q-46 0 -84 14q-44 16 -70 37l39 62q30 -18 53 -26q27 -9 62 -9q43 0 60 20q18 21 18 62q0 84 -76 84q-27 0 -46 -3q-24 -4 -36 -7l59 168q-165 6 -260 73v199h90l31 -152q37 -16 76 -25q37 -9 96 -9q111 0 163 48t52 136q0 46 -11 75q-12 31 -37 55t-68 42
q-52 22 -101 37q-52 16 -106 41q-51 23 -85 56q-36 35 -57 82q-20 46 -20 116q0 51 18 97t56 81t93 55q57 21 132 21q83 0 154 -17q69 -17 120 -45v-194h-88l-33 141q-33 17 -69 21q-50 6 -78 6q-85 0 -137 -41q-51 -41 -51 -115q0 -79 46 -116t150 -70q61 -18 115 -41
q52 -22 94 -58q41 -35 65 -87q23 -50 23 -132q0 -130 -79 -199t-212 -79l-39 -95q76 0 118 -42t42 -107q0 -68 -42 -114t-140 -46z" />
    <glyph glyph-name="Scaron" unicode="&#x160;" horiz-adv-x="997" 
d="M244 1753l43 47l233 -176l234 176l43 -47l-236 -256h-84zM473 -20q-244 0 -371 112v254h91l36 -209q45 -34 104 -49q53 -14 132 -14q87 0 143 22q58 23 92 63q37 43 51 91q15 51 15 110q0 70 -21 117q-22 49 -57 81q-34 31 -90 60q-49 25 -121 54q-90 35 -147 68
q-66 38 -109 82q-44 46 -67 109q-23 64 -23 150q0 166 105 256t280 90q100 0 179 -21q82 -22 143 -58v-254h-88l-41 194q-36 19 -85 32q-43 11 -110 11q-126 0 -191 -62q-67 -64 -67 -179q0 -63 16 -105q17 -44 50 -74q36 -33 82 -55q47 -23 116 -51q84 -35 154 -71
q72 -38 120 -84q51 -49 77 -116q28 -72 28 -167q0 -76 -25 -149t-76 -124q-55 -55 -132 -84q-80 -30 -193 -30z" />
    <glyph glyph-name="scaron" unicode="&#x161;" horiz-adv-x="823" 
d="M193 1440l233 -176l233 176l43 -47l-235 -256h-84l-233 256zM387 -20q-94 0 -166 19q-74 20 -125 54v199h90l31 -152q37 -16 76 -25q37 -9 96 -9q111 0 163 48t52 136q0 46 -11 75q-12 31 -37 55t-68 42q-52 22 -101 37q-52 16 -106 41q-51 23 -85 56q-36 35 -57 82
q-20 46 -20 116q0 51 18 97t56 81t93 55q57 21 132 21q83 0 154 -17q69 -17 120 -45v-194h-88l-33 141q-33 17 -69 21q-50 6 -78 6q-85 0 -137 -41q-51 -41 -51 -115q0 -79 46 -116t150 -70q61 -18 115 -41q52 -22 94 -58q41 -35 65 -87q23 -50 23 -132q0 -142 -93 -211
t-249 -69z" />
    <glyph glyph-name="Tcommaaccent" unicode="&#x162;" horiz-adv-x="1085" 
d="M315 78l158 12v1225h-303l-27 -254h-88v346h977v-346h-88l-29 254h-303v-1225l158 -12v-78h-180l-45 -113q76 0 118 -42t42 -107q0 -68 -42 -114t-141 -46q-46 0 -84 14q-42 15 -69 37l39 62q30 -18 53 -26q27 -9 61 -9q44 0 61 20t17 62q0 84 -76 84q-26 0 -46 -3
q-24 -4 -36 -7l68 188h-195v78z" />
    <glyph glyph-name="tcommaaccent" unicode="&#x163;" horiz-adv-x="616" 
d="M342 -422q-46 0 -84 14q-44 16 -70 37l39 62q29 -18 54 -26q27 -9 61 -9q43 0 60 20q18 21 18 62q0 84 -76 84q-26 0 -46 -3q-24 -4 -36 -7l62 174q-58 12 -94 56q-35 42 -35 132v723h-119v90h119v260l131 31v-291h204v-90h-204v-713q0 -110 104 -110q27 0 59 8t56 20
l22 -77q-31 -20 -72 -32q-39 -11 -94 -13l-36 -93q75 0 117 -42t42 -107q0 -68 -42 -114t-140 -46z" />
    <glyph glyph-name="Tcaron" unicode="&#x164;" horiz-adv-x="1085" 
d="M268 1753l43 47l234 -176l233 176l43 -47l-235 -256h-84zM315 78l158 12v1225h-303l-27 -254h-88v346h977v-346h-88l-29 254h-303v-1225l158 -12v-78h-455v78z" />
    <glyph glyph-name="tcaron" unicode="&#x165;" horiz-adv-x="616" 
d="M76 987h119v260l131 31v-291h204v-90h-204v-713q0 -110 104 -110q27 0 59 8t56 20l22 -77q-32 -21 -79 -34q-40 -11 -103 -11q-41 0 -74 10q-35 10 -60 33q-27 24 -41 59q-15 38 -15 92v723h-119v90zM446 1130v361h142l-51 -361h-91z" />
    <glyph glyph-name="Tbar" unicode="&#x166;" horiz-adv-x="1085" 
d="M213 815h260v500h-303l-27 -254h-88v346h977v-346h-88l-29 254h-303v-500h260v-88h-260v-637l158 -12v-78h-455v78l158 12v637h-260v88z" />
    <glyph glyph-name="tbar" unicode="&#x167;" horiz-adv-x="616" 
d="M76 596h119v301h-119v90h119v260l131 31v-291h204v-90h-204v-301h204v-84h-204v-328q0 -110 104 -110q27 0 59 8t56 20l22 -77q-32 -21 -79 -34q-40 -11 -103 -11q-41 0 -74 10q-35 10 -60 33q-27 24 -41 59q-15 38 -15 92v338h-119v84z" />
    <glyph glyph-name="Utilde" unicode="&#x168;" horiz-adv-x="1306" 
d="M348 1407v-989q0 -174 60 -253t184 -79q64 0 113 13q54 14 92 34q39 20 73 45q35 26 58 47v1088l-146 16v78h287v-1317l143 -12v-78h-249l-25 137q-57 -56 -152 -108q-89 -49 -206 -49q-82 0 -151 21q-66 20 -118 72q-50 50 -77 130q-27 79 -27 196v914l-146 16v78h287z
M922 1669q-67 -151 -185 -151q-34 0 -64 12q-35 14 -57 25q-44 22 -53 26q-27 12 -53 12q-38 0 -63 -22q-26 -23 -48 -55l-65 43q67 151 182 151q37 0 67 -12q20 -8 56 -26q18 -9 52 -25q28 -13 54 -13q37 0 62 23q25 24 47 57z" />
    <glyph glyph-name="utilde" unicode="&#x169;" horiz-adv-x="1107" 
d="M621 901v86h264v-889l133 -20v-78h-238l-18 123q-65 -64 -141 -103q-77 -40 -164 -40q-119 0 -187 64q-69 64 -69 198v641l-131 18v86h264v-715q0 -98 38 -142t115 -44q68 0 137 33q66 31 128 86v678zM834 1309q-68 -154 -185 -154q-34 0 -64 12q-25 10 -57 26
q-44 22 -53 26q-27 12 -53 12q-36 0 -63 -22q-25 -20 -48 -56l-65 43q69 154 182 154q34 0 67 -13t56 -26q30 -17 52 -27q25 -12 54 -12q39 0 62 22q24 22 47 58z" />
    <glyph glyph-name="Umacron" unicode="&#x16a;" horiz-adv-x="1306" 
d="M348 1407v-989q0 -174 60 -253t184 -79q64 0 113 13q54 14 92 34q39 20 73 45q35 26 58 47v1088l-146 16v78h287v-1317l143 -12v-78h-249l-25 137q-57 -56 -152 -108q-89 -49 -206 -49q-82 0 -151 21q-66 20 -118 72q-50 50 -77 130q-27 79 -27 196v914l-146 16v78h287z
M369 1653h479v-105h-479v105z" />
    <glyph glyph-name="umacron" unicode="&#x16b;" horiz-adv-x="1107" 
d="M621 901v86h264v-889l133 -20v-78h-238l-18 123q-65 -64 -141 -103q-77 -40 -164 -40q-119 0 -187 64q-69 64 -69 198v641l-131 18v86h264v-715q0 -98 38 -142t115 -44q68 0 137 33q66 31 128 86v678zM289 1331h479v-104h-479v104z" />
    <glyph glyph-name="Ubreve" unicode="&#x16c;" horiz-adv-x="1306" 
d="M348 1407v-989q0 -174 60 -253t184 -79q64 0 113 13q54 14 92 34q39 20 73 45q35 26 58 47v1088l-146 16v78h287v-1317l143 -12v-78h-249l-25 137q-57 -56 -152 -108q-89 -49 -206 -49q-82 0 -151 21q-66 20 -118 72q-50 50 -77 130q-27 79 -27 196v914l-146 16v78h287z
M606 1511q-52 0 -94 20t-72 50t-50 71q-21 44 -28 83l80 22q22 -58 58 -94q35 -35 106 -35q73 0 108 35q33 33 56 94l82 -22q-9 -39 -29 -83q-18 -40 -49 -71q-30 -30 -73 -50t-95 -20z" />
    <glyph glyph-name="ubreve" unicode="&#x16d;" horiz-adv-x="1107" 
d="M621 901v86h264v-889l133 -20v-78h-238l-18 123q-65 -64 -141 -103q-77 -40 -164 -40q-119 0 -187 64q-69 64 -69 198v641l-131 18v86h264v-715q0 -98 38 -142t115 -44q68 0 137 33q66 31 128 86v678zM518 1155q-52 0 -94 20t-72 50q-31 31 -50 70q-21 44 -28 83l80 23
q22 -58 58 -94q35 -35 106 -35q73 0 108 35q33 33 56 94l82 -23q-9 -39 -29 -83q-17 -38 -49 -70q-30 -30 -73 -50t-95 -20z" />
    <glyph glyph-name="Uring" unicode="&#x16e;" horiz-adv-x="1306" 
d="M348 1407v-989q0 -174 60 -253t184 -79q64 0 113 13q54 14 92 34q39 20 73 45q35 26 58 47v1088l-146 16v78h287v-1317l143 -12v-78h-249l-25 137q-57 -56 -152 -108q-89 -49 -206 -49q-82 0 -151 21q-66 20 -118 72q-50 50 -77 130q-27 79 -27 196v914l-146 16v78h287z
M610 1481q-88 0 -136 55q-48 56 -48 133q0 79 48 136t136 57q91 0 139 -57t48 -136q0 -77 -48 -133q-48 -55 -139 -55zM610 1554q92 0 92 115q0 117 -92 117q-90 0 -90 -117q0 -115 90 -115z" />
    <glyph glyph-name="uring" unicode="&#x16f;" horiz-adv-x="1107" 
d="M526 1122q-88 0 -136 57t-48 134q0 79 48 136q47 56 136 56q92 0 139 -56q48 -57 48 -136q0 -77 -48 -134t-139 -57zM526 1196q92 0 92 117t-92 117q-90 0 -90 -117t90 -117zM621 901v86h264v-889l133 -20v-78h-238l-18 123q-65 -64 -141 -103q-77 -40 -164 -40
q-119 0 -187 64q-69 64 -69 198v641l-131 18v86h264v-715q0 -98 38 -142t115 -44q68 0 137 33q66 31 128 86v678z" />
    <glyph glyph-name="Uhungarumlaut" unicode="&#x170;" horiz-adv-x="1306" 
d="M705 1522l182 372l123 -73l-234 -340zM389 1522l182 372l121 -73l-231 -340zM348 1407v-989q0 -174 60 -253t184 -79q64 0 113 13q54 14 92 34q39 20 73 45q35 26 58 47v1088l-146 16v78h287v-1317l143 -12v-78h-249l-25 137q-57 -56 -152 -108q-89 -49 -206 -49
q-82 0 -151 21q-66 20 -118 72q-50 50 -77 130q-27 79 -27 196v914l-146 16v78h287z" />
    <glyph glyph-name="uhungarumlaut" unicode="&#x171;" horiz-adv-x="1107" 
d="M621 901v86h264v-889l133 -20v-78h-238l-18 123q-65 -64 -141 -103q-77 -40 -164 -40q-119 0 -187 64q-69 64 -69 198v641l-131 18v86h264v-715q0 -98 38 -142t115 -44q68 0 137 33q66 31 128 86v678zM633 1135l182 372l123 -75l-233 -338zM317 1135l183 372l121 -75
l-232 -338z" />
    <glyph glyph-name="Uogonek" unicode="&#x172;" horiz-adv-x="1306" 
d="M348 1407v-989q0 -174 60 -253t184 -79q64 0 113 13q54 14 92 34q39 20 73 45q35 26 58 47v1088l-146 16v78h287v-1317l143 -12v-78h-153q-23 -27 -64 -80q-26 -34 -42 -65q-13 -27 -22 -58q-7 -25 -7 -55q0 -34 18 -57t55 -23q35 0 61 10q24 9 60 29l31 -61
q-29 -22 -69 -42q-42 -20 -97 -20q-79 0 -128 37q-50 38 -50 115q0 72 45 138t113 134l-25 135q-57 -56 -152 -108q-89 -49 -206 -49q-82 0 -151 21q-66 20 -118 72q-50 50 -77 130q-27 79 -27 196v914l-146 16v78h287z" />
    <glyph glyph-name="uogonek" unicode="&#x173;" horiz-adv-x="1107" 
d="M621 901v86h264v-889l133 -20v-78h-139q-23 -27 -64 -80q-26 -34 -42 -65q-13 -27 -22 -58q-8 -29 -8 -55q0 -33 19 -57q18 -23 55 -23q35 0 61 10q24 9 60 29l31 -61q-29 -22 -69 -42q-42 -20 -97 -20q-79 0 -128 37q-50 38 -50 115q0 71 45 137q46 68 110 133l-18 123
q-65 -64 -141 -103q-77 -40 -164 -40q-119 0 -187 64q-69 64 -69 198v641l-131 18v86h264v-715q0 -98 38 -142t115 -44q68 0 137 33q66 31 128 86v678z" />
    <glyph glyph-name="Wcircumflex" unicode="&#x174;" horiz-adv-x="1710" 
d="M580 1546l233 256h84l236 -256l-43 -47l-234 176l-233 -176zM1698 1329l-133 -18l-275 -1311h-162l-204 872q-13 56 -23 107q-11 53 -18 102q-1 8 -6.5 41t-7.5 49q-6 56 -7 72h-4q-4 -27 -9 -73q-4 -40 -12 -91q-7 -49 -18 -102q-15 -77 -22 -105l-207 -872h-162
l-289 1311l-127 18v78h416v-78l-145 -18l176 -826q26 -117 40 -206q12 -77 19 -158h4q16 115 25 169q17 108 41 206l215 911h127l217 -907q23 -100 39 -201q11 -69 26 -178h2q12 88 28 170q7 35 21 108.5t19 100.5l168 811l-141 18v78h389v-78z" />
    <glyph glyph-name="wcircumflex" unicode="&#x175;" horiz-adv-x="1404" 
d="M426 1180l233 256h84l236 -256l-43 -45l-234 176l-233 -176zM1047 903v84h342v-84l-105 -16l-235 -887h-129l-172 631q-18 62 -29 123q-14 75 -17 104h-2q-11 -69 -17 -101q-13 -71 -28 -126l-166 -631h-133l-239 889l-99 14v84h361v-84l-127 -16l131 -518q14 -66 16 -75
q2 -11 7.5 -37t7.5 -39t5.5 -34t4.5 -29l6 -36h4q0 13 4 37q2 9 5.5 29.5t5.5 31.5q4 23 14 73q4 20 16 68l170 629h125l168 -618q13 -43 19 -75q7 -36 15 -76q3 -16 11 -62q5 -30 6 -37h2q2 14 6 38q5 27 12 63q3 14 7.5 40t6.5 35q8 43 15 70l136 524z" />
    <glyph glyph-name="Ycircumflex" unicode="&#x176;" horiz-adv-x="1161" 
d="M360 78l148 12v467l-361 754l-124 18v78h430v-78l-152 -18l217 -469q25 -54 48 -107q21 -48 32 -90q11 41 31 87q4 9 13 28.5t18 40.5t18 41l215 469l-145 18v78h391v-78l-131 -18l-359 -756v-465l148 -12v-78h-437v78zM303 1546l234 256h84l235 -256l-43 -47l-233 176
l-234 -176z" />
    <glyph glyph-name="ycircumflex" unicode="&#x177;" horiz-adv-x="966" 
d="M606 903v84h348v-84l-106 -16l-285 -907q-35 -110 -68 -174q-35 -67 -81 -113q-45 -45 -102 -72q-54 -26 -132 -47l-33 100q70 18 120 44q47 24 87 64q35 35 64 91q24 47 47 127h-55l-289 889l-103 14v84h361v-84l-121 -16l172 -557q22 -74 39 -146q18 -77 25 -123h2
q15 75 27 119q18 66 42 150l172 559zM211 1180l233 256h84l236 -256l-43 -45l-234 176l-233 -176z" />
    <glyph glyph-name="Ydieresis" unicode="&#x178;" horiz-adv-x="1161" 
d="M360 78l148 12v467l-361 754l-124 18v78h430v-78l-152 -18l217 -469q25 -54 48 -107q21 -48 32 -90q11 41 31 87q4 9 13 28.5t18 40.5t18 41l215 469l-145 18v78h391v-78l-131 -18l-359 -756v-465l148 -12v-78h-437v78zM401 1516q-41 0 -68 28q-28 30 -28 70t28 68t68 28
q41 0 69 -28t28 -68t-28 -70q-27 -28 -69 -28zM762 1516q-42 0 -69 28q-27 29 -27 70t27 68q28 28 69 28q40 0 68 -28t28 -68t-28 -70q-27 -28 -68 -28z" />
    <glyph glyph-name="Zacute" unicode="&#x179;" horiz-adv-x="1019" 
d="M319 1565l345 254l71 -123l-377 -193zM90 96l690 1221h-534l-31 -203h-88v293h803v-98l-692 -1219h567l31 211h90v-301h-836v96z" />
    <glyph glyph-name="zacute" unicode="&#x17a;" horiz-adv-x="837" 
d="M240 1188l344 254l71 -123l-376 -193zM80 98l530 801h-374l-27 -143h-86v231h618v-104l-528 -795h438l23 154h84v-242h-678v98z" />
    <glyph glyph-name="Zdotaccent" unicode="&#x17b;" horiz-adv-x="1019" 
d="M90 96l690 1221h-534l-31 -203h-88v293h803v-98l-692 -1219h567l31 211h90v-301h-836v96zM518 1520q-41 0 -68 28q-28 30 -28 70t28 70q27 28 68 28q42 0 70 -28t28 -70t-28 -70t-70 -28z" />
    <glyph glyph-name="zdotaccent" unicode="&#x17c;" horiz-adv-x="837" 
d="M80 98l530 801h-374l-27 -143h-86v231h618v-104l-528 -795h438l23 154h84v-242h-678v98zM442 1206q-43 0 -70 29q-28 30 -28 72q0 41 28 71q27 29 70 29q42 0 72 -28q29 -27 29 -72q0 -43 -29 -72t-72 -29z" />
    <glyph glyph-name="Zcaron" unicode="&#x17d;" horiz-adv-x="1019" 
d="M252 1753l43 47l233 -176l234 176l43 -47l-236 -256h-84zM90 96l690 1221h-534l-31 -203h-88v293h803v-98l-692 -1219h567l31 211h90v-301h-836v96z" />
    <glyph glyph-name="zcaron" unicode="&#x17e;" horiz-adv-x="837" 
d="M215 1440l234 -176l233 176l43 -47l-236 -256h-83l-234 256zM80 98l530 801h-374l-27 -143h-86v231h618v-104l-528 -795h438l23 154h84v-242h-678v98z" />
    <glyph glyph-name="longs" unicode="&#x17f;" horiz-adv-x="604" 
d="M344 92l170 -20v-72h-432v72l131 18v795l-131 20v82h131v197q0 83 19 139q20 57 54 93t81 51q50 16 104 16q53 0 104 -15q55 -16 93 -43l-39 -77q-64 38 -142 38q-80 0 -111 -49q-32 -50 -32 -135v-1110z" />
    <glyph glyph-name="uni018F" unicode="&#x18f;" horiz-adv-x="1155" 
d="M551 1427q114 0 203 -37q88 -37 154 -124q65 -87 100 -225q34 -136 34 -336q0 -203 -32 -337q-33 -139 -95 -225q-62 -87 -151 -125q-88 -38 -203 -38q-230 0 -341 163t-111 508v72h786q-1 312 -91 456q-88 142 -272 142q-104 0 -192 -36q-87 -36 -154 -87l-47 78
q44 32 85 58t94 48q48 20 108 33q57 12 125 12zM565 76q161 0 243 130t87 423h-639q0 -285 75 -419t234 -134z" />
    <glyph glyph-name="florin" unicode="&#x192;" 
d="M266 881h166l29 268q17 154 85 216t179 62q107 0 190 -55l-45 -84q-36 19 -63 29q-29 10 -72 10q-65 0 -99 -39q-33 -38 -44 -133l-29 -274h230v-95h-238l-123 -1200h-131l121 1200h-156v95z" />
    <glyph glyph-name="uni01B5" unicode="&#x1b5;" horiz-adv-x="1019" 
d="M188 782h289l303 535h-534l-31 -203h-88v293h803v-98l-299 -527h239v-92h-292l-340 -600h567l31 211h90v-301h-836v96l336 594h-238v92z" />
    <glyph glyph-name="uni01B6" unicode="&#x1b6;" horiz-adv-x="837" 
d="M168 573h225l217 326h-374l-27 -143h-86v231h618v-104l-206 -310h174v-81h-228l-268 -404h438l23 154h84v-242h-678v98l260 394h-172v81z" />
    <glyph glyph-name="Aringacute" unicode="&#x1fa;" horiz-adv-x="1218" 
d="M827 461h-458l-109 -363l146 -20v-78h-394v78l127 18l387 1256q-48 22 -75 68t-27 104q0 79 48 136q47 56 136 56q91 0 138 -56q49 -58 49 -136q0 -54 -25 -101q-23 -43 -72 -67l392 -1260l116 -18v-78h-411v78l143 18zM395 553h406l-131 428q-29 94 -44 169
q-20 104 -26 136h-2q-9 -53 -29 -136q-15 -64 -47 -169zM401 1763l344 254l72 -123l-377 -192zM608 1409q92 0 92 115q0 116 -92 116q-90 0 -90 -116q0 -115 90 -115z" />
    <glyph glyph-name="aringacute" unicode="&#x1fb;" horiz-adv-x="962" 
d="M383 76q85 0 141 32q55 31 101 85v307h-88q-171 0 -247 -46q-77 -47 -77 -173q0 -112 46 -158q47 -47 124 -47zM895 4q-28 -12 -64 -18q-35 -6 -63 -6q-127 0 -137 122q-45 -48 -107 -85t-159 -37q-133 0 -209 69t-76 219q0 170 106 242t334 72h105v123q0 84 -36 141
t-132 57q-81 0 -153 -21q-67 -20 -142 -57l-39 80q71 42 164 73q90 30 196 30q137 0 206 -69t69 -224v-551q0 -33 6 -51q7 -20 20 -29q15 -11 38 -12q32 -2 61 -2zM449 1067q-90 0 -137 56q-48 57 -48 134q0 80 48 137q47 56 137 56q91 0 138 -56q48 -57 48 -137
q0 -77 -48 -134q-47 -56 -138 -56zM449 1141q92 0 92 116q0 117 -92 117q-91 0 -91 -117q0 -116 91 -116zM240 1520l344 254l71 -123l-376 -193z" />
    <glyph glyph-name="AEacute" unicode="&#x1fc;" horiz-adv-x="1757" 
d="M979 1565l344 254l72 -123l-377 -193zM668 1329v78h970v-281h-88l-26 189h-451v-531h326l26 138h74v-367h-74l-26 137h-326v-600h475l27 193h88v-285h-875v78l146 12v371h-473l-199 -363l146 -20v-78h-396v78l127 18l674 1217zM510 553h424v631q0 77 4 137h-4z" />
    <glyph glyph-name="aeacute" unicode="&#x1fd;" horiz-adv-x="1454" 
d="M555 1188l344 254l72 -123l-377 -193zM1024 -20q-115 0 -197 39q-86 41 -137 135q-24 -40 -54 -67q-35 -32 -77 -55q-39 -22 -93 -38q-46 -14 -101 -14q-133 0 -209 69t-76 219q0 170 107 235q108 66 333 66h105v136q0 84 -36 141t-132 57q-81 0 -153 -21
q-67 -20 -142 -57l-39 80q71 42 164 73q90 30 196 30q99 0 155 -40t83 -116q45 77 118 117q72 39 165 39q172 0 264 -109t92 -364v-52h-604q2 -220 70 -315q69 -96 221 -96q79 0 138 22q61 23 113 60l48 -66q-70 -56 -142 -81q-76 -27 -180 -27zM1001 922q-110 0 -172 -80
q-60 -78 -71 -273h465q0 189 -49 271t-173 82zM383 76q83 0 148 38q66 38 112 95q-9 49 -14 136q-4 71 -4 140h-88q-83 0 -147 -8q-58 -7 -100 -32q-41 -25 -59 -64q-18 -41 -18 -105q0 -107 46 -153q47 -47 124 -47z" />
    <glyph glyph-name="Oslashacute" unicode="&#x1fe;" horiz-adv-x="1232" 
d="M621 -20q-192 0 -314 102l-106 -184l-86 55l123 207v2q-125 176 -125 536q0 354 128 542q127 187 375 187q182 0 302 -104l110 186l86 -53l-125 -213q131 -185 131 -536q0 -362 -120 -545q-119 -182 -379 -182zM616 76q194 0 273 151q80 152 80 465q0 266 -58 420
l-540 -922q84 -114 245 -114zM264 705q0 -261 53 -408l539 920q-84 114 -240 114q-186 0 -269 -156q-83 -157 -83 -470zM408 1565l344 254l71 -123l-377 -193z" />
    <glyph glyph-name="oslashacute" unicode="&#x1ff;" horiz-adv-x="995" 
d="M129 -68l90 158q-58 63 -89 160q-32 101 -32 244q0 136 30 234t82 160t125 91t159 29q124 0 221 -62l84 146l80 -48l-95 -159q53 -62 83 -158t30 -231q0 -137 -30 -236q-30 -98 -82 -161q-52 -62 -126 -91q-72 -28 -159 -28q-121 0 -207 53l-84 -148zM240 496
q0 -194 45 -293l379 653q-67 62 -166 62q-135 0 -197 -97q-61 -95 -61 -325zM498 68q134 0 196 96q62 97 62 325q0 179 -39 275l-375 -645q28 -27 69 -40q34 -11 87 -11zM289 1188l344 254l72 -123l-377 -193z" />
    <glyph glyph-name="Scommaaccent" unicode="&#x218;" horiz-adv-x="997" 
d="M381 -418q45 16 87 45t42 76q-36 1 -73 23q-36 21 -36 73q0 47 30 74t71 27q47 0 81 -34q33 -33 33 -99q0 -87 -50 -151q-49 -63 -160 -91zM473 -20q-244 0 -371 112v254h91l36 -209q45 -34 104 -49q53 -14 132 -14q87 0 143 22q58 23 92 63q37 43 51 91q15 51 15 110
q0 70 -21 117q-22 49 -57 81q-34 31 -90 60q-49 25 -121 54q-90 35 -147 68q-66 38 -109 82q-44 46 -67 109q-23 64 -23 150q0 166 105 256t280 90q100 0 179 -21q82 -22 143 -58v-254h-88l-41 194q-36 19 -85 32q-43 11 -110 11q-126 0 -191 -62q-67 -64 -67 -179
q0 -63 16 -105q17 -44 50 -74q36 -33 82 -55q47 -23 116 -51q84 -35 154 -71q72 -38 120 -84q51 -49 77 -116q28 -72 28 -167q0 -76 -25 -149t-76 -124q-55 -55 -132 -84q-80 -30 -193 -30z" />
    <glyph glyph-name="scommaaccent" unicode="&#x219;" horiz-adv-x="823" 
d="M287 -418q45 16 87 45t42 76q-36 1 -73 23q-36 21 -36 73q0 47 30 74t71 27q46 0 80 -34t34 -99q0 -87 -50 -151q-49 -62 -161 -91zM387 -20q-94 0 -166 19q-74 20 -125 54v199h90l31 -152q37 -16 76 -25q37 -9 96 -9q111 0 163 48t52 136q0 46 -11 75q-12 31 -37 55
t-68 42q-52 22 -101 37q-52 16 -106 41q-51 23 -85 56q-36 35 -57 82q-20 46 -20 116q0 51 18 97t56 81t93 55q57 21 132 21q83 0 154 -17q69 -17 120 -45v-194h-88l-33 141q-33 17 -69 21q-50 6 -78 6q-85 0 -137 -41q-51 -41 -51 -115q0 -79 46 -116t150 -70
q61 -18 115 -41q52 -22 94 -58q41 -35 65 -87q23 -50 23 -132q0 -142 -93 -211t-249 -69z" />
    <glyph glyph-name="uni021A" unicode="&#x21a;" horiz-adv-x="1085" 
d="M428 -418q45 16 87 45q42 28 42 76q-36 1 -73 23q-35 20 -35 73q0 48 29 74q30 27 71 27q47 0 81 -34t34 -99q0 -86 -51 -151q-49 -63 -160 -91zM315 78l158 12v1225h-303l-27 -254h-88v346h977v-346h-88l-29 254h-303v-1225l158 -12v-78h-455v78z" />
    <glyph glyph-name="uni021B" unicode="&#x21b;" horiz-adv-x="616" 
d="M221 -418q45 16 87 45t42 76q-35 1 -72 23q-36 21 -36 73q0 48 29 74q30 27 71 27q47 0 81 -34t34 -99q0 -87 -50 -151q-49 -62 -161 -91zM76 987h119v260l131 31v-291h204v-90h-204v-713q0 -110 104 -110q27 0 59 8t56 20l22 -77q-32 -21 -79 -34q-40 -11 -103 -11
q-41 0 -74 10q-35 10 -60 33q-27 24 -41 59q-15 38 -15 92v723h-119v90z" />
    <glyph glyph-name="dotlessj" unicode="&#x237;" horiz-adv-x="509" 
d="M49 -348q44 27 73 52q31 26 48 59q20 39 27 79q8 48 8 109v932l-133 18v86h264v-1007q0 -93 -17 -158t-48 -109q-32 -46 -77 -75q-51 -33 -104 -58z" />
    <glyph glyph-name="uni0259" unicode="&#x259;" horiz-adv-x="931" 
d="M434 1008q90 0 164 -27q75 -28 127 -87q53 -61 83 -159q30 -99 30 -241q0 -137 -29 -238q-28 -97 -80 -160q-51 -62 -122 -89t-152 -27q-89 0 -153 26q-67 28 -112 84q-43 55 -68 149q-24 91 -24 218v51h604q-1 110 -18 188q-17 79 -52 126q-37 49 -90 71t-130 22
q-80 0 -139 -22q-64 -24 -113 -59l-47 65q71 56 141 81q79 28 180 28zM457 66q112 0 172 81t71 275h-464q0 -189 49 -272q49 -84 172 -84z" />
    <glyph glyph-name="uni02BB" unicode="&#x2bb;" horiz-adv-x="471" 
d="M244 993q-52 0 -86 39q-35 40 -35 109q0 96 44 173q43 76 157 109l26 -67q-47 -23 -80 -59q-32 -35 -32 -89q15 -1 37 -8q20 -6 36 -19q17 -13 27 -33q10 -19 10 -48q0 -47 -32 -77t-72 -30z" />
    <glyph glyph-name="afii57929" unicode="&#x2bc;" horiz-adv-x="471" 
d="M227 1423q51 0 86 -38t35 -109q0 -94 -44 -171t-157 -112l-26 68q49 24 80 59q32 36 32 90q-14 0 -37 7q-20 6 -36 19q-16 14 -27 33q-10 19 -10 48q0 47 32 77q30 29 72 29z" />
    <glyph glyph-name="circumflex" unicode="&#x2c6;" horiz-adv-x="1116" 
d="M281 1180l233 256h84l236 -256l-43 -45l-234 176l-233 -176z" />
    <glyph glyph-name="caron" unicode="&#x2c7;" horiz-adv-x="1116" 
d="M324 1440l233 -176l234 176l43 -47l-236 -256h-84l-233 256z" />
    <glyph glyph-name="breve" unicode="&#x2d8;" horiz-adv-x="1116" 
d="M557 1155q-52 0 -94 20t-72 50q-31 31 -50 70q-21 44 -28 83l80 23q22 -58 58 -94q35 -35 106 -35q73 0 108 35q33 33 56 94l82 -23q-9 -39 -29 -83q-17 -38 -49 -70q-30 -30 -73 -50t-95 -20z" />
    <glyph glyph-name="dotaccent" unicode="&#x2d9;" horiz-adv-x="1116" 
d="M557 1206q-44 0 -71 29t-27 72t27 71q27 29 71 29q42 0 72 -28q28 -27 28 -72q0 -44 -28 -72q-29 -29 -72 -29z" />
    <glyph glyph-name="ring" unicode="&#x2da;" horiz-adv-x="1116" 
d="M557 1122q-88 0 -136 57t-48 134q0 79 48 136q47 56 136 56q91 0 138 -56q48 -57 48 -136q0 -77 -48 -134t-138 -57zM557 1196q92 0 92 117t-92 117q-90 0 -90 -117t90 -117z" />
    <glyph glyph-name="ogonek" unicode="&#x2db;" horiz-adv-x="1116" 
d="M563 -422q-79 0 -128 37q-50 38 -50 115q0 78 54 150q57 76 132 151h95q-52 -61 -76 -93q-34 -47 -50 -74q-21 -38 -28 -63q-8 -30 -8 -59q0 -34 18 -57t56 -23q34 0 60 10q24 9 60 29l31 -61q-29 -22 -69 -42q-42 -20 -97 -20z" />
    <glyph glyph-name="tilde" unicode="&#x2dc;" horiz-adv-x="1116" 
d="M854 1309q-68 -154 -184 -154q-35 0 -65 12q-20 8 -56 26q-44 22 -53 26q-27 12 -54 12q-35 0 -62 -22q-25 -20 -48 -56l-66 43q69 154 183 154q33 0 66 -13t56 -26q24 -13 53 -27q26 -12 54 -12q38 0 61 22q24 22 47 58z" />
    <glyph glyph-name="hungarumlaut" unicode="&#x2dd;" horiz-adv-x="1116" 
d="M616 1135l183 372l123 -75l-234 -338zM301 1135l182 372l121 -75l-231 -338z" />
    <glyph glyph-name="gravecomb" unicode="&#x300;" horiz-adv-x="2" 
d="M-326 1126l-379 193l74 123l344 -254z" />
    <glyph glyph-name="acutecomb" unicode="&#x301;" horiz-adv-x="2" 
d="M-705 1188l345 254l71 -123l-377 -193z" />
    <glyph glyph-name="uni0302" unicode="&#x302;" horiz-adv-x="2" 
d="M-772 1180l233 256h84l236 -256l-43 -45l-234 176l-233 -176z" />
    <glyph glyph-name="tildecomb" unicode="&#x303;" horiz-adv-x="2" 
d="M-201 1309q-68 -154 -184 -154q-35 0 -65 12q-20 8 -56 26q-44 22 -53 26q-27 12 -53 12q-36 0 -63 -22q-25 -20 -48 -56l-65 43q69 154 182 154q34 0 66 -13q36 -15 57 -26q30 -17 52 -27q25 -12 54 -12q39 0 62 22q24 22 47 58z" />
    <glyph glyph-name="uni0304" unicode="&#x304;" horiz-adv-x="2" 
d="M-797 1360h480v-105h-480v105z" />
    <glyph glyph-name="uni0306" unicode="&#x306;" horiz-adv-x="2" 
d="M-557 1137q-55 0 -94 19q-42 20 -72 50q-31 30 -50 71q-21 44 -28 83l80 22q22 -59 57 -94t107 -35t107 35t57 94l82 -22q-9 -39 -29 -83q-18 -40 -49 -71q-30 -30 -73 -50q-41 -19 -95 -19z" />
    <glyph glyph-name="uni0307" unicode="&#x307;" horiz-adv-x="2" 
d="M-285 1206q-43 0 -70 29q-28 30 -28 72q0 41 28 71q27 29 70 29q42 0 72 -28q29 -27 29 -72q0 -43 -29 -72t-72 -29z" />
    <glyph glyph-name="uni0308" unicode="&#x308;" horiz-adv-x="2" 
d="M-737 1137q-42 0 -69 27q-28 28 -28 71q0 41 28 69q27 27 69 27q41 0 68 -27q28 -28 28 -69q0 -43 -28 -71q-27 -27 -68 -27zM-377 1137q-41 0 -68 27q-28 28 -28 71q0 41 28 69q27 27 68 27q42 0 69 -27t27 -69q0 -44 -27 -71t-69 -27z" />
    <glyph glyph-name="uni030A" unicode="&#x30a;" horiz-adv-x="2" 
d="M-557 1122q-88 0 -136 57t-48 134q0 79 48 136q47 56 136 56q91 0 138 -56q48 -57 48 -136q0 -77 -48 -134t-138 -57zM-557 1196q92 0 92 117t-92 117q-90 0 -90 -117t90 -117z" />
    <glyph glyph-name="uni030B" unicode="&#x30b;" horiz-adv-x="2" 
d="M-498 1167l183 373l122 -76l-233 -338zM-813 1167l182 373l121 -76l-231 -338z" />
    <glyph glyph-name="uni030C" unicode="&#x30c;" horiz-adv-x="2" 
d="M-623 1440l234 -176l233 176l43 -47l-235 -256h-84l-234 256z" />
    <glyph glyph-name="uni0312" unicode="&#x312;" horiz-adv-x="2" 
d="M-129 1579q-49 -22 -86 -59q-39 -39 -39 -95q41 -2 78 -25q37 -24 37 -83q0 -50 -32 -80q-33 -31 -75 -31q-52 0 -86 40q-35 41 -35 112q0 93 51 175q49 78 162 107z" />
    <glyph glyph-name="uni0313" unicode="&#x313;" horiz-adv-x="2" 
d="M-367 1034q47 21 86 60t39 94q-40 1 -77 25t-37 83q0 50 31 80q33 31 75 31q52 0 86 -40q35 -41 35 -112q0 -95 -50 -175q-49 -78 -163 -107z" />
    <glyph glyph-name="uni0326" unicode="&#x326;" horiz-adv-x="2" 
d="M-242 2q51 0 86 -38t35 -109q0 -94 -44 -171t-157 -112l-26 68q49 24 80 59q32 36 32 90q-18 0 -37 6t-36 20t-27 32q-10 19 -10 49q0 46 32 76t72 30z" />
    <glyph glyph-name="uni0327" unicode="&#x327;" horiz-adv-x="2" 
d="M-571 -422q-46 0 -84 14q-44 16 -70 37l39 62q30 -18 53 -26q27 -9 62 -9q43 0 60 20t17 62q0 84 -75 84q-27 0 -46 -3q-24 -4 -36 -7l78 215h81l-57 -140q76 0 118 -42t42 -107q0 -68 -42 -114t-140 -46z" />
    <glyph glyph-name="uni0328" unicode="&#x328;" horiz-adv-x="2" 
d="M-551 -422q-79 0 -128 37q-50 38 -50 115q0 78 54 150q57 76 132 151h94q-45 -53 -75 -93q-34 -47 -50 -74q-21 -38 -28 -63q-8 -30 -8 -59q0 -34 18 -57t55 -23q35 0 61 10q24 9 60 29l31 -61q-29 -22 -69 -42q-42 -20 -97 -20z" />
    <glyph glyph-name="uni037E" unicode="&#x37e;" horiz-adv-x="516" 
d="M256 580q-48 0 -80 32q-33 33 -33 80q0 46 33 81q33 34 80 34t80 -34q33 -35 33 -81q0 -47 -33 -80q-32 -32 -80 -32zM137 -164q47 21 86 60q39 38 37 94q-40 2 -77 25q-38 24 -38 83q0 50 32 80q33 31 75 31q54 0 88 -40q35 -41 35 -112q0 -95 -50 -175
q-49 -78 -163 -107z" />
    <glyph glyph-name="tonos" unicode="&#x384;" horiz-adv-x="1116" 
d="M555 1427h150l-191 -301h-82z" />
    <glyph glyph-name="dieresistonos" unicode="&#x385;" horiz-adv-x="1134" 
d="M578 1436h131l-138 -293h-82zM772 1137q-34 0 -60 24t-26 64q0 35 25 62q24 26 61 26q35 0 61 -26q25 -25 25 -62q0 -40 -25 -64t-61 -24zM362 1137q-34 0 -60 24t-26 64q0 35 25 62q24 26 61 26q35 0 61 -26t26 -62q0 -40 -26 -64q-25 -24 -61 -24z" />
    <glyph glyph-name="Alphatonos" unicode="&#x386;" horiz-adv-x="1218" 
d="M827 461h-458l-109 -363l146 -20v-78h-394v78l127 18l404 1311h139l408 -1311l116 -18v-78h-411v78l143 18zM395 553h406l-131 428q-29 94 -44 169q-20 104 -26 136h-2q-9 -53 -29 -136q-15 -64 -47 -169zM127 1411h149l-190 -301h-82z" />
    <glyph glyph-name="anoteleia" unicode="&#x387;" horiz-adv-x="487" 
d="M244 526q-47 0 -80 33t-33 80q0 49 33 82t80 33t80 -33q32 -32 32 -82q0 -48 -32 -80q-33 -33 -80 -33z" />
    <glyph glyph-name="Epsilontonos" unicode="&#x388;" horiz-adv-x="1073" 
d="M815 555h-76l-24 137h-326v-600h475l27 193h88v-285h-877v78l146 12v1223l-146 16v78h852v-281h-88l-28 189h-449v-531h326l24 138h76v-367zM-135 1411h149l-190 -301h-82z" />
    <glyph glyph-name="Etatonos" unicode="&#x389;" horiz-adv-x="1380" 
d="M848 78l143 12v608h-602v-608l146 -12v-78h-433v78l146 12v1223l-146 16v78h433v-78l-146 -16v-518h602v518l-143 16v78h430v-78l-145 -16v-1223l145 -12v-78h-430v78zM-135 1411h149l-190 -301h-82z" />
    <glyph glyph-name="Iotatonos" unicode="&#x38a;" horiz-adv-x="636" 
d="M102 78l146 12v1223l-146 16v78h433v-78l-146 -16v-1223l146 -12v-78h-433v78zM-135 1411h149l-190 -301h-82z" />
    <glyph glyph-name="Omicrontonos" unicode="&#x38c;" horiz-adv-x="1232" 
d="M621 -20q-259 0 -384 180q-124 179 -124 538q0 354 128 542q127 187 375 187q249 0 376 -185q128 -187 128 -535q0 -362 -120 -545q-119 -182 -379 -182zM616 76q194 0 273 151q80 152 80 465q0 321 -82 479q-83 160 -271 160q-186 0 -269 -156q-83 -157 -83 -470
q0 -318 81 -474q80 -155 271 -155zM-20 1411h149l-190 -301h-82z" />
    <glyph glyph-name="Upsilontonos" unicode="&#x38e;" horiz-adv-x="1161" 
d="M360 78l148 12v467l-361 754l-124 18v78h430v-78l-152 -18l217 -469q25 -54 48 -107q21 -48 32 -90q11 41 31 87q4 9 13 28.5t18 40.5t18 41l215 469l-145 18v78h391v-78l-131 -18l-359 -756v-465l148 -12v-78h-437v78zM-166 1411h150l-191 -301h-82z" />
    <glyph glyph-name="Omegatonos" unicode="&#x38f;" horiz-adv-x="1236" 
d="M129 236h88l19 -125h198v182q-66 18 -126 59q-55 38 -101 105q-44 64 -68 149q-24 86 -24 195q0 150 33 262q34 117 99 198q63 79 157 123q92 43 214 43q120 0 213 -43q96 -44 159 -123q64 -81 99 -198q33 -112 33 -262q0 -109 -24 -195q-24 -85 -68 -149
q-46 -67 -101 -105q-60 -41 -126 -59v-182h198l19 125h88v-236h-412v348q58 15 107 45q47 29 86 83q37 52 58 131q22 83 22 194q0 113 -19 216q-18 97 -59 167q-40 68 -108 107q-67 38 -165 38q-97 0 -165 -38t-110 -107q-40 -66 -59 -167q-18 -97 -18 -216q0 -111 22 -194
q21 -79 58 -131q38 -53 87 -83q48 -29 108 -45v-348h-412v236zM-20 1411h149l-190 -301h-82z" />
    <glyph glyph-name="iotadieresistonos" unicode="&#x390;" horiz-adv-x="542" 
d="M207 883l-133 18v86h264v-823q0 -33 6 -51t22 -29q15 -11 38 -12q32 -2 61 -2l10 -66q-29 -12 -62 -18q-35 -6 -63 -6q-66 0 -104 34q-39 35 -39 115v754zM309 1436h131l-137 -293h-82zM504 1137q-36 0 -61 24t-25 64q0 37 24 62q24 26 62 26q34 0 60 -26t26 -62
q0 -40 -26 -64t-60 -24zM94 1137q-34 0 -60 24t-26 64q0 35 25 62q24 26 61 26q35 0 61 -26q25 -25 25 -62q0 -40 -25 -64t-61 -24z" />
    <glyph glyph-name="Alpha" unicode="&#x391;" horiz-adv-x="1218" 
d="M827 461h-458l-109 -363l146 -20v-78h-394v78l127 18l404 1311h139l408 -1311l116 -18v-78h-411v78l143 18zM395 553h406l-131 428q-29 94 -44 169q-20 104 -26 136h-2q-9 -53 -29 -136q-15 -64 -47 -169z" />
    <glyph glyph-name="Beta" unicode="&#x392;" horiz-adv-x="1167" 
d="M639 92q164 0 230 80q67 81 67 223t-65 218q-65 75 -228 75h-254v-596h250zM639 778q136 0 186 68q49 67 49 188q0 62 -12 113q-11 48 -40 88q-26 36 -74 58q-49 22 -117 22h-242v-537h250zM633 1407q105 0 181 -29q74 -28 120 -79q43 -48 65 -117q21 -68 21 -148
q0 -109 -49 -183q-50 -76 -150 -106q56 -12 104 -39q46 -26 84 -72q34 -41 56 -106q20 -59 20 -141q0 -104 -31 -175q-32 -74 -89 -120q-56 -46 -139 -69t-177 -23h-547v78l146 12v1223l-146 16v78h531z" />
    <glyph glyph-name="Gamma" unicode="&#x393;" horiz-adv-x="980" 
d="M102 78l146 12v1225l-146 14v78h822v-344h-88l-27 252h-420v-1223l197 -12v-80h-484v78z" />
    <glyph glyph-name="uni0394" unicode="&#x394;" horiz-adv-x="1177" 
d="M96 78l424 1329h137l426 -1329v-78h-987v78zM926 104l-277 877q-28 89 -45 169q-12 54 -26 136h-5q-12 -71 -29 -136q-19 -71 -48 -169l-269 -877h699z" />
    <glyph glyph-name="Epsilon" unicode="&#x395;" horiz-adv-x="1073" 
d="M815 555h-76l-24 137h-326v-600h475l27 193h88v-285h-877v78l146 12v1223l-146 16v78h852v-281h-88l-28 189h-449v-531h326l24 138h76v-367z" />
    <glyph glyph-name="Zeta" unicode="&#x396;" horiz-adv-x="1019" 
d="M90 96l690 1221h-534l-31 -203h-88v293h803v-98l-692 -1219h567l31 211h90v-301h-836v96z" />
    <glyph glyph-name="Eta" unicode="&#x397;" horiz-adv-x="1380" 
d="M848 78l143 12v608h-602v-608l146 -12v-78h-433v78l146 12v1223l-146 16v78h433v-78l-146 -16v-518h602v518l-143 16v78h430v-78l-145 -16v-1223l145 -12v-78h-430v78z" />
    <glyph glyph-name="Theta" unicode="&#x398;" horiz-adv-x="1232" 
d="M621 -20q-259 0 -384 180q-124 179 -124 538q0 354 128 542q127 187 375 187q249 0 376 -185q128 -187 128 -535q0 -362 -120 -545q-119 -182 -379 -182zM616 76q194 0 273 151q80 152 80 465q0 321 -82 479q-83 160 -271 160q-186 0 -269 -156q-83 -157 -83 -470
q0 -318 81 -474q80 -155 271 -155zM420 784h393v-102h-393v102z" />
    <glyph glyph-name="Iota" unicode="&#x399;" horiz-adv-x="636" 
d="M102 78l146 12v1223l-146 16v78h433v-78l-146 -16v-1223l146 -12v-78h-433v78z" />
    <glyph glyph-name="Kappa" unicode="&#x39a;" horiz-adv-x="1185" 
d="M102 78l146 12v1223l-146 16v78h433v-78l-146 -16v-1223l146 -12v-78h-433v78zM1180 78v-78h-248l-510 745l467 564l-150 20v78h410v-78l-135 -18l-447 -543l467 -678z" />
    <glyph glyph-name="Lambda" unicode="&#x39b;" horiz-adv-x="1198" 
d="M12 78l127 18l398 1311h135l395 -1311l121 -18v-78h-412v78l139 18l-254 885q-15 49 -32 118q-15 61 -20 87q-3 15 -6.5 36t-4.5 24q-5 24 -6 40h-4q-2 -6 -8 -40q-3 -14 -12 -59q-11 -54 -19 -86q-14 -57 -33 -120l-256 -883l143 -20v-78h-391v78z" />
    <glyph glyph-name="Mu" unicode="&#x39c;" horiz-adv-x="1542" 
d="M432 1407l262 -756q31 -90 44 -143q19 -78 24 -109h2l9 45q1 5 13 53q4 16 20 66q10 32 30 88l272 756h332v-78l-146 -16v-1221l146 -14v-78h-432v78l145 14v838q0 94 1 132q0 17 0.5 50t1.5 48q2 44 3 71q2 38 2 53h-2q-6 -24 -35 -128q-26 -91 -67 -204l-250 -682h-113
l-239 670q-24 67 -38 112q-19 60 -26 88q-3 13 -9.5 37.5t-9.5 36.5q-17 64 -18 70h-4q1 -34 5 -151q3 -83 3 -205v-836l146 -14v-78h-402v78l146 14v1221l-146 16v78h330z" />
    <glyph glyph-name="Nu" unicode="&#x39d;" horiz-adv-x="1333" 
d="M848 1329v78h399v-78l-143 -16v-1313h-131l-477 924q-53 101 -94 188q-30 63 -56 137h-2q5 -60 10 -175q4 -92 4 -226v-758l144 -12v-78h-400v78l146 12v1223l-146 16v78h281l483 -938q36 -69 83 -170q35 -73 57 -141h2q-7 88 -11 161q-4 80 -4 199v795z" />
    <glyph glyph-name="Xi" unicode="&#x39e;" horiz-adv-x="1054" 
d="M111 1407h831v-299h-88l-27 180h-602l-26 -180h-88v299zM256 791h541v-115h-541v115zM104 311h89l26 -192h615l26 192h88v-311h-844v311z" />
    <glyph glyph-name="Omicron" unicode="&#x39f;" horiz-adv-x="1232" 
d="M621 -20q-259 0 -384 180q-124 179 -124 538q0 354 128 542q127 187 375 187q249 0 376 -185q128 -187 128 -535q0 -362 -120 -545q-119 -182 -379 -182zM616 76q194 0 273 151q80 152 80 465q0 321 -82 479q-83 160 -271 160q-186 0 -269 -156q-83 -157 -83 -470
q0 -318 81 -474q80 -155 271 -155z" />
    <glyph glyph-name="Pi" unicode="&#x3a0;" horiz-adv-x="1368" 
d="M102 78l146 12v1223l-146 16v78h1164v-78l-146 -16v-1223l146 -12v-78h-428v78l141 12v1217h-590v-1217l141 -12v-78h-428v78z" />
    <glyph glyph-name="Rho" unicode="&#x3a1;" horiz-adv-x="1089" 
d="M618 666q269 0 269 327q0 159 -66 242q-66 82 -217 82h-215v-651h229zM612 1407q216 0 319 -104t103 -304q0 -208 -101 -316q-102 -110 -312 -110h-232v-483l197 -10v-80h-484v78l146 12v1223l-146 16v78h510z" />
    <glyph glyph-name="Sigma" unicode="&#x3a3;" horiz-adv-x="968" 
d="M84 80l381 641l-379 561v125h772v-281h-88l-27 189h-516l363 -535v-61l-363 -600h533l28 192h86v-311h-790v80z" />
    <glyph glyph-name="Tau" unicode="&#x3a4;" horiz-adv-x="1085" 
d="M315 78l158 12v1225h-303l-27 -254h-88v346h977v-346h-88l-29 254h-303v-1225l158 -12v-78h-455v78z" />
    <glyph glyph-name="Upsilon" unicode="&#x3a5;" horiz-adv-x="1161" 
d="M360 78l148 12v467l-361 754l-124 18v78h430v-78l-152 -18l217 -469q25 -54 48 -107q21 -48 32 -90q11 41 31 87q4 9 13 28.5t18 40.5t18 41l215 469l-145 18v78h391v-78l-131 -18l-359 -756v-465l148 -12v-78h-437v78z" />
    <glyph glyph-name="Phi" unicode="&#x3a6;" horiz-adv-x="1419" 
d="M463 78l176 12v186q-547 15 -547 447q0 213 141 330q142 117 406 125v135l-166 16v78h473v-78l-166 -16v-135q263 -7 406 -123q141 -114 141 -326q0 -441 -547 -453v-186l176 -12v-78h-493v78zM780 367q199 6 299 86q99 79 99 266q0 189 -101 275t-297 93v-720zM639 1087
q-195 -7 -297 -91q-100 -82 -100 -269q0 -189 99 -271q100 -83 298 -89v720z" />
    <glyph glyph-name="Chi" unicode="&#x3a7;" horiz-adv-x="1243" 
d="M31 76l129 14l391 658l-318 563l-129 18v78h418v-78l-135 -18l252 -469l256 469l-141 18v78h387v-78l-125 -18l-311 -543l376 -678l131 -14v-76h-424v76l140 14l-318 574l-329 -574l155 -14v-76h-405v76z" />
    <glyph glyph-name="Psi" unicode="&#x3a8;" horiz-adv-x="1402" 
d="M461 78l172 12v336q-80 1 -167 24q-79 21 -142 71q-61 49 -99 131q-37 80 -37 200v461l-137 16v78h277v-543q0 -93 25 -156q26 -65 68 -106t97 -60q59 -21 115 -22v793l-113 18v76h365v-76l-113 -18v-793q58 1 115 20q55 18 98 55q44 38 69 100t25 155v557h271v-78
l-131 -16v-457q0 -120 -37 -201q-38 -83 -100 -132q-64 -50 -143 -72q-85 -24 -167 -25v-336l174 -12v-78h-485v78z" />
    <glyph glyph-name="uni03A9" unicode="&#x3a9;" horiz-adv-x="1236" 
d="M129 236h88l19 -125h198v182q-66 18 -126 59q-55 38 -101 105q-44 64 -68 149q-24 86 -24 195q0 150 33 262q34 117 99 198q63 79 157 123q92 43 214 43q120 0 213 -43q96 -44 159 -123q64 -81 99 -198q33 -112 33 -262q0 -109 -24 -195q-24 -85 -68 -149
q-46 -67 -101 -105q-60 -41 -126 -59v-182h198l19 125h88v-236h-412v348q58 15 107 45q47 29 86 83q37 52 58 131q22 83 22 194q0 113 -19 216q-18 97 -59 167q-40 68 -108 107q-67 38 -165 38q-97 0 -165 -38t-110 -107q-40 -66 -59 -167q-18 -97 -18 -216q0 -111 22 -194
q21 -79 58 -131q38 -53 87 -83q48 -29 108 -45v-348h-412v236z" />
    <glyph glyph-name="Iotadieresis" unicode="&#x3aa;" horiz-adv-x="636" 
d="M102 78l146 12v1223l-146 16v78h433v-78l-146 -16v-1223l146 -12v-78h-433v78zM141 1516q-41 0 -68 27q-28 28 -28 71q0 40 28 68t68 28q41 0 69 -28t28 -68q0 -43 -28 -71q-27 -27 -69 -27zM502 1516q-42 0 -69 27t-27 71q0 41 27 68q28 28 69 28q40 0 68 -28t28 -68
q0 -43 -28 -71q-27 -27 -68 -27z" />
    <glyph glyph-name="Upsilondieresis" unicode="&#x3ab;" horiz-adv-x="1161" 
d="M360 78l148 12v467l-361 754l-124 18v78h430v-78l-152 -18l217 -469q25 -54 48 -107q21 -48 32 -90q11 41 31 87q4 9 13 28.5t18 40.5t18 41l215 469l-145 18v78h391v-78l-131 -18l-359 -756v-465l148 -12v-78h-437v78zM399 1516q-41 0 -68 27q-28 28 -28 71q0 40 28 68
t68 28q41 0 69 -28t28 -68q0 -43 -28 -71q-27 -27 -69 -27zM760 1516q-42 0 -69 27t-27 71q0 41 27 68q28 28 69 28q40 0 68 -28t28 -68q0 -43 -28 -71q-27 -27 -68 -27z" />
    <glyph glyph-name="alphatonos" unicode="&#x3ac;" horiz-adv-x="1054" 
d="M446 -20q-79 0 -141 28t-108 92q-47 65 -70 162q-25 103 -25 238q0 137 27 233t74 158t110 89q65 28 140 28q86 0 153 -37q70 -39 121 -94l25 110h98v-823q0 -33 6 -51q6 -19 21 -29q15 -11 38 -12q32 -2 60 -2l12 -66q-29 -12 -62 -18q-35 -6 -63 -6q-120 0 -135 110
l-2 25q-45 -49 -117 -93q-69 -42 -162 -42zM463 78q77 0 142 39q63 38 114 86v575q-57 57 -115 93q-55 34 -133 34q-121 0 -175 -93t-54 -314q0 -120 13 -198q13 -79 41 -130q27 -50 70 -71q42 -21 97 -21zM586 1427h149l-190 -301h-82z" />
    <glyph glyph-name="epsilontonos" unicode="&#x3ad;" horiz-adv-x="894" 
d="M90 264q0 91 53 164q51 70 146 98q-81 22 -125 84q-43 61 -43 133q0 69 26 117q27 49 73 82q45 32 108 49t133 17q80 0 159 -14q78 -14 168 -58v-188h-92l-30 137q-34 15 -83 26t-118 11q-111 0 -161 -44t-50 -135q0 -92 48 -134t138 -42h135v-88h-133q-99 0 -157 -50
t-58 -163q0 -56 22 -95q21 -38 56 -59q36 -22 82 -31q47 -9 98 -9q78 0 148 19t137 63l45 -66q-73 -56 -155 -83q-86 -28 -199 -28q-61 0 -133 13q-66 12 -119 44t-86 87t-33 143zM557 1427h150l-191 -301h-82z" />
    <glyph glyph-name="etatonos" unicode="&#x3ae;" horiz-adv-x="1056" 
d="M207 883l-133 20v84h239l19 -133q63 66 137 110t158 44q117 0 180 -63t63 -195v-664l127 -18v-68h-258v717q0 96 -33 136q-34 42 -114 42q-60 0 -127 -37q-66 -37 -127 -90v-768h-131v883zM598 1427h150l-191 -301h-82z" />
    <glyph glyph-name="iotatonos" unicode="&#x3af;" horiz-adv-x="542" 
d="M207 883l-133 18v86h264v-823q0 -33 6 -51t22 -29q15 -11 38 -12q32 -2 61 -2l10 -66q-29 -12 -62 -18q-35 -6 -63 -6q-66 0 -104 34q-39 35 -39 115v754zM360 1427h150l-191 -301h-81z" />
    <glyph glyph-name="upsilondieresistonos" unicode="&#x3b0;" horiz-adv-x="1087" 
d="M201 883l-131 18v86h264v-649q0 -137 46 -199q46 -63 165 -63q118 0 162 62q45 63 45 198v547l-131 18v86h397v-86l-133 -18v-561q0 -160 -81 -251t-259 -91t-261 92t-83 250v561zM578 1436h131l-138 -293h-82zM772 1137q-34 0 -60 24t-26 64q0 35 25 62q24 26 61 26
q35 0 61 -26q25 -25 25 -62q0 -40 -25 -64t-61 -24zM362 1137q-34 0 -60 24t-26 64q0 35 25 62q24 26 61 26q35 0 61 -26t26 -62q0 -40 -26 -64q-25 -24 -61 -24z" />
    <glyph glyph-name="alpha" unicode="&#x3b1;" horiz-adv-x="1054" 
d="M446 -20q-79 0 -141 28t-108 92q-47 65 -70 162q-25 103 -25 238q0 137 27 233t74 158t110 89q65 28 140 28q86 0 153 -37q70 -39 121 -94l25 110h98v-823q0 -33 6 -51q6 -19 21 -29q15 -11 38 -12q32 -2 60 -2l12 -66q-29 -12 -62 -18q-35 -6 -63 -6q-120 0 -135 110
l-2 25q-45 -49 -117 -93q-69 -42 -162 -42zM463 78q77 0 142 39q63 38 114 86v575q-57 57 -115 93q-55 34 -133 34q-121 0 -175 -93t-54 -314q0 -120 13 -198q13 -79 41 -130q27 -50 70 -71q42 -21 97 -21z" />
    <glyph glyph-name="beta" unicode="&#x3b2;" horiz-adv-x="1026" 
d="M301 -414h-131v1489q0 189 93 289t253 100q74 0 137 -21t110 -65t72 -105q25 -62 25 -145q0 -112 -60 -199t-175 -116q135 -22 219 -125q84 -102 84 -278q0 -96 -26 -177q-25 -77 -76 -136q-49 -56 -124 -87q-74 -30 -167 -30q-58 0 -121 18q-64 18 -113 57v-469z
M301 145q51 -36 113 -55q60 -18 104 -18q130 0 199 87t69 246q0 84 -17 145q-18 64 -55 110t-98 72t-143 26h-51v92h61q62 0 105 23q47 25 76 63q31 40 47 89q16 48 16 103q0 50 -12 95q-11 42 -38 78q-25 35 -66 54q-39 19 -95 19q-110 0 -163 -77q-52 -76 -52 -216v-936z
" />
    <glyph glyph-name="gamma" unicode="&#x3b3;" horiz-adv-x="964" 
d="M129 885l-115 18v84h226l186 -622q25 -82 41 -148q17 -69 27 -135h2q8 69 25 132q27 100 44 153l160 522l-127 14v84h348v-84l-108 -16l-291 -887v-414h-131v414z" />
    <glyph glyph-name="delta" unicode="&#x3b4;" horiz-adv-x="989" 
d="M494 -20q-88 0 -160 28q-74 29 -128 90q-54 62 -84 159q-30 98 -30 235q0 195 103 328q102 131 315 169l-303 363v100h606v-225h-82l-24 137h-365l379 -446q74 -86 121 -189t47 -246q0 -133 -30 -228q-31 -97 -82 -157q-52 -61 -125 -90q-71 -28 -158 -28zM492 68
q131 0 194 94q64 96 64 315q0 122 -29 209q-28 85 -98 170l-56 68q-104 -22 -172 -62q-65 -38 -101 -94q-36 -55 -48 -125q-13 -75 -13 -151q0 -229 62 -327q61 -97 197 -97z" />
    <glyph glyph-name="epsilon" unicode="&#x3b5;" horiz-adv-x="894" 
d="M90 264q0 91 53 164q51 70 146 98q-81 22 -125 84q-43 61 -43 133q0 69 26 117q27 49 73 82q45 32 108 49t133 17q80 0 159 -14q78 -14 168 -58v-188h-92l-30 137q-34 15 -83 26t-118 11q-111 0 -161 -44t-50 -135q0 -92 48 -134t138 -42h135v-88h-133q-99 0 -157 -50
t-58 -163q0 -56 22 -95q21 -38 56 -59q36 -22 82 -31q47 -9 98 -9q78 0 148 19t137 63l45 -66q-73 -56 -155 -83q-86 -28 -199 -28q-61 0 -133 13q-66 12 -119 44t-86 87t-33 143z" />
    <glyph glyph-name="zeta" unicode="&#x3b6;" horiz-adv-x="802" 
d="M102 369q0 107 40 227t114 247q74 126 177 255q101 126 231 256h-398l-33 -127h-79v225h628v-102q-277 -272 -410 -519q-130 -241 -130 -460q0 -140 61 -198t178 -58h133q78 0 124 -36t46 -112q0 -78 -48 -162q-48 -85 -107 -155l-74 47q40 52 77 115q36 62 36 114
q0 41 -20 58q-19 16 -64 16h-92q-91 0 -160 20q-72 21 -123 66q-52 46 -79 115q-28 72 -28 168z" />
    <glyph glyph-name="eta" unicode="&#x3b7;" horiz-adv-x="1056" 
d="M207 883l-133 20v84h239l19 -133q63 66 137 110t158 44q117 0 180 -63t63 -195v-664l127 -18v-68h-258v717q0 96 -33 136q-34 42 -114 42q-60 0 -127 -37q-66 -37 -127 -90v-768h-131v883z" />
    <glyph glyph-name="theta" unicode="&#x3b8;" horiz-adv-x="997" 
d="M500 -20q-99 0 -171 42t-119 131t-69 229q-22 138 -22 339q0 202 22 340q23 142 69 230q47 90 118 131q72 42 170 42q99 0 171 -42q71 -41 118 -131q46 -88 69 -230q23 -144 23 -340q0 -195 -23 -339q-22 -140 -69 -229q-48 -90 -117 -131q-72 -42 -170 -42zM745 778
q-1 151 -14 269q-12 109 -40 185q-27 71 -75 107q-47 35 -118 35t-118 -35t-74 -107q-28 -76 -40 -185q-13 -118 -14 -269h493zM500 68q73 0 118 35q48 37 75 113q28 80 40 195q12 119 12 281h-493q0 -162 12 -281q12 -115 40 -195q27 -76 75 -113q45 -35 121 -35z" />
    <glyph glyph-name="iota" unicode="&#x3b9;" horiz-adv-x="542" 
d="M207 883l-133 18v86h264v-823q0 -33 6 -51t22 -29q15 -11 38 -12q32 -2 61 -2l10 -66q-29 -12 -62 -18q-35 -6 -63 -6q-66 0 -104 34q-39 35 -39 115v754z" />
    <glyph glyph-name="kappa" unicode="&#x3ba;" horiz-adv-x="950" 
d="M207 883l-133 20v84h264v-471l334 375l-125 14v82h352v-84l-113 -16l-319 -361l338 -434l121 -20v-72h-201l-387 498v-498h-131v883z" />
    <glyph glyph-name="lambda" unicode="&#x3bb;" horiz-adv-x="978" 
d="M18 74l109 14l287 899h20l-82 277q-15 45 -33 76q-18 30 -55 30q-32 0 -64 -8q-27 -7 -65 -25l-33 76q49 25 100 40q45 13 95 13q73 0 113 -38q38 -37 61 -111l340 -1186q6 -23 15 -35t26 -18q15 -5 44 -7q18 -1 69 -1l12 -66q-19 -9 -63 -17q-38 -7 -74 -7
q-67 0 -101 31t-57 110l-152 536q-28 98 -40 152q-16 72 -23 121h-2q-4 -35 -19 -125q-12 -75 -34 -148l-189 -657h-205v74z" />
    <glyph glyph-name="uni03BC" unicode="&#x3bc;" horiz-adv-x="1114" 
d="M207 -414v1297l-133 18v86h264v-721q0 -180 154 -180q69 0 138 33q66 31 128 86v678l-131 18v86h264v-889l133 -20v-78h-238l-18 123q-65 -64 -135 -103q-71 -40 -154 -40q-53 0 -85 14q-34 15 -56 37v-445h-131z" />
    <glyph glyph-name="nu" unicode="&#x3bd;" horiz-adv-x="964" 
d="M129 885l-115 18v84h226l186 -622q25 -82 41 -148q17 -69 27 -135h2q8 69 25 132q27 100 44 153l160 522l-127 14v84h348v-84l-108 -16l-291 -887h-131z" />
    <glyph glyph-name="xi" unicode="&#x3be;" horiz-adv-x="825" 
d="M98 399q0 88 28 161q26 67 72 120q42 48 97 76q52 25 98 35q-47 6 -86 28q-43 22 -79 62q-32 36 -54 94q-20 53 -20 127q0 99 28 167q27 66 77 111q47 42 112 64q60 20 133 20q98 0 166 -24q67 -24 121 -70v-188h-93l-28 149q-34 22 -74 33q-37 10 -92 10q-44 0 -83 -13
q-41 -13 -69 -45q-29 -32 -47 -84t-18 -130q0 -143 70 -206q69 -62 186 -62h133v-93h-144q-139 0 -217 -85q-77 -84 -77 -248q0 -134 57 -214q57 -79 211 -79h104q78 0 124 -36t46 -112q0 -78 -48 -162q-48 -85 -107 -155l-74 47q33 44 76 115q37 61 37 114q0 41 -20 58
q-19 16 -64 16h-76q-202 0 -304 102t-102 297z" />
    <glyph glyph-name="omicron" unicode="&#x3bf;" horiz-adv-x="995" 
d="M500 -20q-88 0 -160 28q-74 29 -128 90q-54 62 -84 159t-30 237q0 136 30 234t82 160t125 91t159 29q84 0 160 -29t128 -90q55 -64 84 -159q31 -101 31 -234q0 -137 -30 -236q-30 -98 -82 -161q-52 -62 -126 -91q-72 -28 -159 -28zM498 68q134 0 196 96q62 97 62 325
q0 230 -62 330q-62 99 -196 99q-135 0 -197 -97q-61 -95 -61 -325q0 -233 62 -330q62 -98 196 -98z" />
    <glyph glyph-name="pi" unicode="&#x3c0;" horiz-adv-x="1075" 
d="M215 891h-139v96h923v-78l-141 -20v-721q0 -63 28 -79q26 -15 99 -13l10 -66q-27 -11 -62 -19q-32 -7 -63 -7q-66 0 -104 35q-39 36 -39 116v756h-379v-891h-133v891z" />
    <glyph glyph-name="rho" unicode="&#x3c1;" horiz-adv-x="987" 
d="M262 -414h-131v916q0 136 27 234q28 99 75 157q49 60 119 87q72 28 154 28q191 0 287 -137q96 -136 96 -377q0 -86 -15 -178t-56 -165q-42 -75 -117 -123t-197 -48q-62 0 -125 20q-67 21 -117 61v-475zM262 152q58 -42 117 -61q60 -19 108 -19q93 0 145 39q53 39 78 98
q24 57 32 133q8 78 8 143q0 225 -58 326q-56 98 -186 98q-65 0 -110 -19q-44 -19 -75 -66q-30 -47 -45 -121q-14 -70 -14 -185v-366z" />
    <glyph glyph-name="sigma1" unicode="&#x3c2;" horiz-adv-x="866" 
d="M453 27q-189 35 -270 145q-81 111 -81 322q0 135 29 234q28 97 81 160q52 63 124 91q73 29 156 29q88 0 160 -25q67 -23 122 -72v-188h-92l-29 149q-36 26 -70 37q-41 13 -91 13q-125 0 -188 -99q-62 -97 -62 -327q0 -65 7 -118q8 -58 30 -104q23 -47 64 -81
q44 -36 114 -52l102 -24q84 -21 124 -50q42 -30 42 -94q0 -41 -13 -81q-12 -36 -35 -83q-21 -41 -50 -83q-27 -39 -58 -76l-71 45q29 44 38 58q15 25 34 64q18 37 26 61q10 29 10 52q0 44 -21 59q-20 14 -73 25z" />
    <glyph glyph-name="sigma" unicode="&#x3c3;" horiz-adv-x="1034" 
d="M500 -20q-88 0 -160 28q-75 29 -128 91q-54 63 -84 160t-30 235q0 129 30 222q30 94 82 153q53 61 126 89q75 29 162 29h483v-78l-162 -20h-94q85 -70 128 -177q44 -109 44 -229q0 -133 -30 -228q-31 -97 -82 -157q-53 -62 -126 -90q-72 -28 -159 -28zM498 68
q134 0 196 95t62 314q0 49 -6 101t-21 108t-39 108t-61 95h-107q-68 0 -120 -18t-89 -62t-55 -121q-18 -76 -18 -192q0 -233 62 -330q62 -98 196 -98z" />
    <glyph glyph-name="tau" unicode="&#x3c4;" horiz-adv-x="841" 
d="M340 891h-270v96h702v-78l-162 -18h-139v-707q0 -110 104 -110q30 0 62 8q30 8 55 20l21 -77q-32 -21 -79 -34q-40 -11 -104 -11q-78 0 -134 43t-56 151v717z" />
    <glyph glyph-name="upsilon" unicode="&#x3c5;" horiz-adv-x="1087" 
d="M201 883l-131 18v86h264v-649q0 -137 46 -199q46 -63 165 -63q118 0 162 62q45 63 45 198v547l-131 18v86h397v-86l-133 -18v-561q0 -160 -81 -251t-259 -91t-261 92t-83 250v561z" />
    <glyph glyph-name="phi" unicode="&#x3c6;" horiz-adv-x="1243" 
d="M686 -330l141 -18v-66h-411v66l141 18v314q-110 2 -195 30q-86 28 -144 90q-59 62 -89 158q-31 99 -31 234q0 80 15 157q16 81 48 141q34 64 89 116q54 51 139 89l51 -75q-60 -33 -101 -81q-41 -47 -63 -102q-23 -56 -30 -116q-8 -66 -8 -127q0 -227 78 -324t241 -102
v929q73 7 131 7q104 0 191 -28q82 -26 143 -89q59 -61 91 -159q32 -99 32 -234q0 -137 -31 -236q-30 -96 -89 -158t-144 -90t-195 -30v-314zM686 72q176 5 247 102q73 100 73 320q0 112 -15 192q-16 83 -51 130q-40 52 -98 75q-66 26 -156 27v-846z" />
    <glyph glyph-name="chi" unicode="&#x3c7;" horiz-adv-x="1062" 
d="M35 72l119 16l307 430l-262 369l-111 16v84h207l250 -387h4l192 289l-110 14v84h340v-84l-117 -16l-252 -357l309 -440l117 -18v-72h-213l-301 446h-2l-246 -358l135 -16v-72h-366v72z" />
    <glyph glyph-name="psi" unicode="&#x3c8;" horiz-adv-x="1355" 
d="M201 883l-131 18v86h264v-604q0 -83 16 -138t51 -93t87 -56q53 -18 124 -24v915h131v-915q71 6 124 24q52 18 87 56q37 40 52 93q16 55 16 138v604h264v-86l-131 -18v-506q0 -103 -29 -176q-28 -70 -82 -118q-52 -46 -129 -70q-73 -23 -172 -29v-314l142 -18v-66h-414v66
l141 18v314q-101 6 -173 29q-79 25 -130 70q-55 49 -81 118q-27 72 -27 176v506z" />
    <glyph glyph-name="omega" unicode="&#x3c9;" horiz-adv-x="1247" 
d="M414 -20q-93 0 -151 36q-60 38 -96 103q-36 66 -51 155q-16 96 -16 197q0 88 14 170q14 79 45 147q32 68 86 121t136 90l53 -75q-60 -34 -100 -83q-38 -47 -60 -106q-19 -51 -27 -124q-7 -62 -7 -138q0 -112 7 -183q8 -80 26 -126q19 -48 56 -73q35 -23 91 -23
q64 0 102 54q37 53 37 138v442h129v-442q0 -85 37 -138q37 -54 102 -54q57 0 92 23q36 24 55 73q18 46 26 126q8 82 8 183q0 68 -8 138q-8 73 -27 124q-21 58 -59 106q-38 49 -99 83l51 75q86 -38 139 -90q54 -53 86 -121q32 -69 44 -147q12 -79 12 -170q0 -107 -15 -197
q-14 -86 -52 -155q-36 -65 -96 -103q-58 -36 -150 -36q-60 0 -119 31q-60 31 -90 116q-17 -45 -40 -71t-53 -45q-24 -15 -59 -24q-28 -7 -59 -7z" />
    <glyph glyph-name="iotadieresis" unicode="&#x3ca;" horiz-adv-x="542" 
d="M207 883l-133 18v86h264v-823q0 -33 6 -51t22 -29q15 -11 38 -12q32 -2 61 -2l10 -66q-29 -12 -62 -18q-35 -6 -63 -6q-66 0 -104 34q-39 35 -39 115v754zM94 1137q-41 0 -68 27q-28 28 -28 71q0 41 28 69q27 27 68 27q42 0 69 -27t27 -69q0 -44 -27 -71t-69 -27z
M455 1137q-42 0 -69 27q-28 28 -28 71q0 41 28 69q27 27 69 27q41 0 68 -27q28 -28 28 -69q0 -43 -28 -71q-27 -27 -68 -27z" />
    <glyph glyph-name="upsilondieresis" unicode="&#x3cb;" horiz-adv-x="1087" 
d="M201 883l-131 18v86h264v-649q0 -137 46 -199q46 -63 165 -63q118 0 162 62q45 63 45 198v547l-131 18v86h397v-86l-133 -18v-561q0 -160 -81 -251t-259 -91t-261 92t-83 250v561zM365 1137q-42 0 -69 27q-28 28 -28 71q0 41 28 69q27 27 69 27q41 0 68 -27
q28 -28 28 -69q0 -43 -28 -71q-27 -27 -68 -27zM725 1137q-42 0 -69 27t-27 71q0 42 27 69t69 27t69 -27t27 -69q0 -44 -27 -71t-69 -27z" />
    <glyph glyph-name="omicrontonos" unicode="&#x3cc;" horiz-adv-x="995" 
d="M500 -20q-88 0 -160 28q-74 29 -128 90q-54 62 -84 159t-30 237q0 136 30 234t82 160t125 91t159 29q84 0 160 -29t128 -90q55 -64 84 -159q31 -101 31 -234q0 -137 -30 -236q-30 -98 -82 -161q-52 -62 -126 -91q-72 -28 -159 -28zM498 68q134 0 196 96q62 97 62 325
q0 230 -62 330q-62 99 -196 99q-135 0 -197 -97q-61 -95 -61 -325q0 -233 62 -330q62 -98 196 -98zM575 1427h150l-190 -301h-82z" />
    <glyph glyph-name="upsilontonos" unicode="&#x3cd;" horiz-adv-x="1087" 
d="M201 883l-131 18v86h264v-649q0 -137 46 -199q46 -63 165 -63q118 0 162 62q45 63 45 198v547l-131 18v86h397v-86l-133 -18v-561q0 -160 -81 -251t-259 -91t-261 92t-83 250v561zM608 1427h150l-191 -301h-82z" />
    <glyph glyph-name="omegatonos" unicode="&#x3ce;" horiz-adv-x="1247" 
d="M414 -20q-93 0 -151 36q-60 38 -96 103q-36 66 -51 155q-16 96 -16 197q0 88 14 170q14 79 45 147q32 68 86 121t136 90l53 -75q-60 -34 -100 -83q-38 -47 -60 -106q-19 -51 -27 -124q-7 -62 -7 -138q0 -112 7 -183q8 -80 26 -126q19 -48 56 -73q35 -23 91 -23
q64 0 102 54q37 53 37 138v442h129v-442q0 -85 37 -138q37 -54 102 -54q57 0 92 23q36 24 55 73q18 46 26 126q8 82 8 183q0 68 -8 138q-8 73 -27 124q-21 58 -59 106q-38 49 -99 83l51 75q86 -38 139 -90q54 -53 86 -121q32 -69 44 -147q12 -79 12 -170q0 -107 -15 -197
q-14 -86 -52 -155q-36 -65 -96 -103q-58 -36 -150 -36q-60 0 -119 31q-60 31 -90 116q-17 -45 -40 -71t-53 -45q-24 -15 -59 -24q-28 -7 -59 -7zM700 1427h150l-191 -301h-81z" />
    <glyph glyph-name="uni0400" unicode="&#x400;" horiz-adv-x="1073" 
d="M815 555h-76l-24 137h-326v-600h475l27 193h88v-285h-877v78l146 12v1223l-146 16v78h852v-281h-88l-28 189h-449v-531h326l24 138h76v-367zM750 1493l-379 190l73 123l344 -252z" />
    <glyph glyph-name="afii10023" unicode="&#x401;" horiz-adv-x="1073" 
d="M815 555h-76l-24 137h-326v-600h475l27 193h88v-285h-877v78l146 12v1223l-146 16v78h852v-281h-88l-28 189h-449v-531h326l24 138h76v-367zM377 1516q-42 0 -69 27t-27 71q0 41 27 68q28 28 69 28q40 0 68 -28t28 -68q0 -43 -28 -71q-27 -27 -68 -27zM737 1516
q-41 0 -68 27q-28 28 -28 71q0 40 28 68t68 28q41 0 69 -28t28 -68q0 -43 -28 -71q-27 -27 -69 -27z" />
    <glyph glyph-name="afii10051" unicode="&#x402;" horiz-adv-x="1380" 
d="M1114 436q0 172 -57 246t-176 74q-115 0 -180 -37q-67 -38 -113 -78v-545l67 -4v-92h-352v80l146 14v1221h-293l-27 -254h-88v346h987v-315h-88l-27 223h-325v-580q53 51 130 89q78 38 187 38q84 0 148 -19t110 -68q45 -48 69 -126q23 -75 23 -194q0 -117 -19 -194
q-20 -81 -62 -133q-44 -54 -112 -90q-73 -38 -169 -61l-29 82q64 26 116 58q48 30 78 72q29 41 43 102q13 58 13 145z" />
    <glyph glyph-name="afii10052" unicode="&#x403;" horiz-adv-x="964" 
d="M389 1315v-1225l152 -14v-76h-437v76l146 14v1225l-148 16v76h830v-346h-88l-27 254h-428zM461 1565l344 254l72 -123l-377 -193z" />
    <glyph glyph-name="afii10053" unicode="&#x404;" horiz-adv-x="1085" 
d="M649 -20q-143 0 -245 48q-100 47 -165 139q-67 95 -96 225q-30 134 -30 306q0 168 30 303q30 134 96 231t164 145q102 50 240 50q100 0 188 -19t150 -67v-254h-88l-37 205q-46 22 -98 33q-49 10 -111 10q-106 0 -178 -39t-117 -112q-43 -71 -65 -182t-23 -242h541v-98
h-541q1 -139 23 -251q22 -113 65 -185q44 -73 118 -113q72 -39 181 -39q131 0 230 45l34 198h82v-251q-67 -46 -156 -66q-87 -20 -192 -20z" />
    <glyph glyph-name="afii10054" unicode="&#x405;" horiz-adv-x="997" 
d="M473 -20q-244 0 -371 112v254h91l36 -209q45 -34 104 -49q53 -14 132 -14q87 0 143 22q58 23 92 63q37 43 51 91q15 51 15 110q0 70 -21 117q-22 49 -57 81q-34 31 -90 60q-49 25 -121 54q-90 35 -147 68q-66 38 -109 82q-44 46 -67 109q-23 64 -23 150q0 166 105 256
t280 90q100 0 179 -21q82 -22 143 -58v-254h-88l-41 194q-36 19 -85 32q-43 11 -110 11q-126 0 -191 -62q-67 -64 -67 -179q0 -63 16 -105q17 -44 50 -74q36 -33 82 -55q47 -23 116 -51q84 -35 154 -71q72 -38 120 -84q51 -49 77 -116q28 -72 28 -167q0 -76 -25 -149
t-76 -124q-55 -55 -132 -84q-80 -30 -193 -30z" />
    <glyph glyph-name="afii10055" unicode="&#x406;" horiz-adv-x="636" 
d="M102 78l146 12v1223l-146 16v78h433v-78l-146 -16v-1223l146 -12v-78h-433v78z" />
    <glyph glyph-name="afii10056" unicode="&#x407;" horiz-adv-x="636" 
d="M168 1516q-38 0 -64 25t-26 65q0 41 25 66q26 26 65 26q35 0 63 -26q27 -26 27 -66t-27 -65q-26 -25 -63 -25zM467 1516q-40 0 -65 25t-25 65q0 41 25 66q26 26 65 26q35 0 63 -26q27 -26 27 -66t-27 -65q-26 -25 -63 -25zM102 78l146 12v1223l-146 16v78h433v-78
l-146 -16v-1223l146 -12v-78h-433v78z" />
    <glyph glyph-name="afii10057" unicode="&#x408;" horiz-adv-x="585" 
d="M365 197q0 -103 -17 -180q-17 -75 -52 -130q-35 -54 -94 -95q-58 -40 -143 -75l-41 72q55 33 91 60q37 28 65 69q27 39 39 93t12 134v1168l-145 16v78h430v-78l-145 -16v-1116z" />
    <glyph glyph-name="afii10058" unicode="&#x409;" horiz-adv-x="1679" 
d="M700 78l146 12v1227h-359l-41 -590q-17 -228 -49 -369q-33 -143 -82 -225q-49 -81 -110 -111t-133 -30h-25q-7 0 -27 2l-14 115q90 1 151 32q60 30 98 120q37 88 60 248q23 159 39 417l25 387l-148 16v78h899v-78l-145 -16v-506h127q117 0 217 -19q96 -18 158 -64
q63 -46 96 -123t33 -191q0 -106 -35 -184t-96 -127q-62 -50 -147 -74q-89 -25 -185 -25h-453v78zM1145 88q157 0 240 84q83 85 83 244q0 168 -79 235q-80 68 -230 68h-174v-631h160z" />
    <glyph glyph-name="afii10059" unicode="&#x40a;" horiz-adv-x="1800" 
d="M1270 88q160 0 239 82q80 83 80 242q0 167 -77 232t-226 65h-174v-621h158zM827 78l146 12v610h-584v-610l146 -12v-78h-433v78l146 12v1223l-146 16v78h433v-78l-146 -16v-518h584v518l-146 16v78h430v-78l-145 -16v-516h174q228 0 340 -89q111 -88 111 -302
q0 -109 -34 -184q-35 -78 -95 -126q-58 -47 -146 -72q-84 -24 -184 -24h-451v78z" />
    <glyph glyph-name="afii10060" unicode="&#x40b;" horiz-adv-x="1429" 
d="M588 735q53 51 130 89q78 38 187 38q85 0 148 -20q65 -21 110 -69t69 -127q23 -76 23 -195v-357l146 -14v-80h-432v80l145 14v338q0 175 -56 249q-57 75 -177 75q-115 0 -180 -37q-67 -38 -113 -78q0 -182 1 -273t1 -272l33 -3q11 -1 32 -1v-92h-352v80l146 14v1221h-293
l-27 -254h-88v346h987v-315h-88l-27 223h-325v-580z" />
    <glyph glyph-name="afii10061" unicode="&#x40c;" horiz-adv-x="1185" 
d="M102 78l146 12v1223l-146 16v78h433v-78l-146 -16v-1223l146 -12v-78h-433v78zM1180 78v-78h-248l-510 745l467 564l-150 20v78h410v-78l-135 -18l-447 -543l467 -678zM535 1565l344 254l71 -123l-377 -193z" />
    <glyph glyph-name="uni040D" unicode="&#x40d;" horiz-adv-x="1376" 
d="M102 78l146 12v1223l-146 16v78h433v-78l-146 -16v-826q0 -77 -7 -157q-8 -92 -19 -144h12q33 77 54 124q31 70 60 126l512 971h273v-78l-146 -16v-1223l146 -12v-78h-430v78l145 12v817q0 84 7 162q8 85 18 152l-13 2q-45 -119 -110 -246l-518 -977h-271v78zM858 1493
l-379 190l74 123l344 -252z" />
    <glyph glyph-name="afii10062" unicode="&#x40e;" horiz-adv-x="1175" 
d="M616 1505q-127 -4 -200 53q-72 57 -88 148l116 23q10 -72 56 -105q45 -33 118 -33q72 0 121 33q50 33 62 105l102 -23q-17 -96 -86 -146q-70 -50 -201 -55zM127 1313l-127 18v76h418v-76l-144 -18l263 -588q60 -135 85 -213q20 -62 27 -96h4q15 79 70 256l211 639
l-143 20v76h395v-76l-131 -18l-357 -1020q-36 -99 -64 -153q-30 -58 -70 -96q-36 -34 -86 -50q-45 -14 -111 -14l-17 114q48 4 89 14q40 10 65 29q28 21 46 54q21 37 38 90z" />
    <glyph glyph-name="afii10145" unicode="&#x40f;" horiz-adv-x="1333" 
d="M604 -350l19 350h-521v80l146 14v1223l-146 14v76h433v-76l-146 -14v-1221h557v1221l-145 14v76h432v-76l-146 -14v-1225l146 -12v-80h-520l18 -350h-127z" />
    <glyph glyph-name="afii10017" unicode="&#x410;" horiz-adv-x="1218" 
d="M827 461h-458l-109 -363l146 -20v-78h-394v78l127 18l404 1311h139l408 -1311l116 -18v-78h-411v78l143 18zM395 553h406l-131 428q-29 94 -44 169q-20 104 -26 136h-2q-9 -53 -29 -136q-15 -64 -47 -169z" />
    <glyph glyph-name="afii10018" unicode="&#x411;" horiz-adv-x="1146" 
d="M578 88q156 0 242 84q85 84 85 244q0 168 -82 235q-83 68 -231 68h-203v-631h189zM248 92q0 410 1 613t1 612l-148 14v76h873v-346h-88l-29 254h-469v-508h203q229 0 345 -92t116 -305q0 -106 -35 -184q-35 -79 -97 -127q-64 -50 -149 -74q-89 -25 -186 -25h-484v80z" />
    <glyph glyph-name="afii10019" unicode="&#x412;" horiz-adv-x="1167" 
d="M639 92q164 0 230 80q67 81 67 223t-65 218q-65 75 -228 75h-254v-596h250zM639 778q136 0 186 68q49 67 49 188q0 62 -12 113q-11 48 -40 88q-26 36 -74 58q-49 22 -117 22h-242v-537h250zM633 1407q105 0 181 -29q74 -28 120 -79q43 -48 65 -117q21 -68 21 -148
q0 -109 -49 -183q-50 -76 -150 -106q56 -12 104 -39q46 -26 84 -72q34 -41 56 -106q20 -59 20 -141q0 -104 -31 -175q-32 -74 -89 -120q-56 -46 -139 -69t-177 -23h-547v78l146 12v1223l-146 16v78h531z" />
    <glyph glyph-name="afii10020" unicode="&#x413;" horiz-adv-x="964" 
d="M389 1315v-1225l152 -14v-76h-437v76l146 14v1225l-148 16v76h830v-346h-88l-27 254h-428z" />
    <glyph glyph-name="afii10021" unicode="&#x414;" horiz-adv-x="1271" 
d="M127 0l-29 -297h-88v393h140q34 51 69 126q37 80 65 176q29 98 52 231q24 137 31 291l18 389l-149 14v84h905v-84l-146 -14v-1213h181v-393h-89l-26 297h-934zM475 938q-11 -189 -34 -324q-25 -146 -53 -241q-32 -110 -59 -170q-28 -63 -55 -107h580q0 407 1 609t1 608
h-358z" />
    <glyph glyph-name="afii10022" unicode="&#x415;" horiz-adv-x="1073" 
d="M815 555h-76l-24 137h-326v-600h475l27 193h88v-285h-877v78l146 12v1223l-146 16v78h852v-281h-88l-28 189h-449v-531h326l24 138h76v-367z" />
    <glyph glyph-name="afii10024" unicode="&#x416;" horiz-adv-x="1599" 
d="M586 78l145 12v1223l-145 16v78h430v-78l-146 -16v-1223l146 -12v-78h-430v78zM1581 78v-78h-233l-424 743l376 568l-126 20v76h382v-76l-122 -18l-375 -543l399 -680zM141 90l404 676l-379 547l-123 18v76h383v-76l-127 -20l379 -568l-426 -743h-232v78z" />
    <glyph glyph-name="afii10025" unicode="&#x417;" horiz-adv-x="983" 
d="M297 672v94q25 0 38 -1t36 -1q155 0 241 75t86 238q0 60 -14 103q-16 48 -45 82t-79 54q-47 19 -114 19q-62 0 -106 -10q-46 -11 -90 -33l-41 -198h-88v254q127 79 323 79q206 0 304 -97t98 -257q0 -70 -24 -124q-25 -57 -60 -97q-39 -45 -82 -74q-46 -31 -88 -51
q66 -11 119 -34q57 -25 96 -65q40 -42 63 -104q23 -63 23 -145q0 -89 -30 -162q-31 -77 -86 -127q-59 -54 -141 -83q-86 -30 -196 -30q-107 0 -201 23q-90 22 -155 70v249h90l37 -200q52 -27 104 -36q51 -9 117 -9q86 0 143 23q60 24 98 65q37 40 55 93q17 50 17 112
q0 147 -85 226t-265 79h-98z" />
    <glyph glyph-name="afii10026" unicode="&#x418;" horiz-adv-x="1376" 
d="M102 78l146 12v1223l-146 16v78h433v-78l-146 -16v-826q0 -77 -7 -157q-8 -92 -19 -144h12q33 77 54 124q31 70 60 126l512 971h273v-78l-146 -16v-1223l146 -12v-78h-430v78l145 12v817q0 84 7 162q8 85 18 152l-13 2q-45 -119 -110 -246l-518 -977h-271v78z" />
    <glyph glyph-name="afii10027" unicode="&#x419;" horiz-adv-x="1376" 
d="M709 1505q-127 -4 -200 53q-73 58 -89 148l119 23q11 -72 55 -105q45 -33 119 -33q72 0 120 33t60 105l104 -23q-17 -97 -87 -146q-72 -51 -201 -55zM102 78l146 12v1223l-146 16v78h433v-78l-146 -16v-826q0 -77 -7 -157q-8 -92 -19 -144h12q33 77 54 124q31 70 60 126
l512 971h273v-78l-146 -16v-1223l146 -12v-78h-430v78l145 12v817q0 84 7 162q8 85 18 152l-13 2q-45 -119 -110 -246l-518 -977h-271v78z" />
    <glyph glyph-name="afii10028" unicode="&#x41a;" horiz-adv-x="1185" 
d="M102 78l146 12v1223l-146 16v78h433v-78l-146 -16v-1223l146 -12v-78h-433v78zM1180 78v-78h-248l-510 745l467 564l-150 20v78h410v-78l-135 -18l-447 -543l467 -678z" />
    <glyph glyph-name="afii10029" unicode="&#x41b;" horiz-adv-x="1236" 
d="M702 78l146 12v1227h-371l-28 -428q-5 -68 -14 -176q-14 -161 -17 -189q-16 -146 -47 -250q-28 -96 -75 -164q-45 -64 -102 -91q-58 -27 -128 -27h-23q-7 0 -23 2l-14 115q81 0 138 30q56 29 94 120q36 84 59 249q22 158 39 418l24 387l-149 16v78h922v-78l-146 -16
v-1223l146 -12v-78h-431v78z" />
    <glyph glyph-name="afii10030" unicode="&#x41c;" horiz-adv-x="1542" 
d="M432 1407l262 -756q31 -90 44 -143q19 -78 24 -109h2l9 45q1 5 13 53q4 16 20 66q10 32 30 88l272 756h332v-78l-146 -16v-1221l146 -14v-78h-432v78l145 14v838q0 94 1 132q0 17 0.5 50t1.5 48q2 44 3 71q2 38 2 53h-2q-6 -24 -35 -128q-26 -91 -67 -204l-250 -682h-113
l-239 670q-24 67 -38 112q-19 60 -26 88q-3 13 -9.5 37.5t-9.5 36.5q-17 64 -18 70h-4q1 -34 5 -151q3 -83 3 -205v-836l146 -14v-78h-402v78l146 14v1221l-146 16v78h330z" />
    <glyph glyph-name="afii10031" unicode="&#x41d;" horiz-adv-x="1380" 
d="M848 78l143 12v608h-602v-608l146 -12v-78h-433v78l146 12v1223l-146 16v78h433v-78l-146 -16v-518h602v518l-143 16v78h430v-78l-145 -16v-1223l145 -12v-78h-430v78z" />
    <glyph glyph-name="afii10032" unicode="&#x41e;" horiz-adv-x="1232" 
d="M621 -20q-259 0 -384 180q-124 179 -124 538q0 354 128 542q127 187 375 187q249 0 376 -185q128 -187 128 -535q0 -362 -120 -545q-119 -182 -379 -182zM616 76q194 0 273 151q80 152 80 465q0 321 -82 479q-83 160 -271 160q-186 0 -269 -156q-83 -157 -83 -470
q0 -318 81 -474q80 -155 271 -155z" />
    <glyph glyph-name="afii10033" unicode="&#x41f;" horiz-adv-x="1355" 
d="M821 78l146 12v1223h-578v-1223l146 -12v-78h-433v78l146 12v1223l-146 16v78h1151v-78l-145 -16v-1223l145 -12v-78h-432v78z" />
    <glyph glyph-name="afii10034" unicode="&#x420;" horiz-adv-x="1089" 
d="M618 666q269 0 269 327q0 159 -66 242q-66 82 -217 82h-215v-651h229zM612 1407q216 0 319 -104t103 -304q0 -208 -101 -316q-102 -110 -312 -110h-232v-483l197 -10v-80h-484v78l146 12v1223l-146 16v78h510z" />
    <glyph glyph-name="afii10035" unicode="&#x421;" horiz-adv-x="1077" 
d="M649 -20q-143 0 -245 48q-100 47 -165 139q-67 95 -96 225q-30 134 -30 306q0 168 30 303q30 134 96 231t164 145q102 50 240 50q100 0 188 -19t150 -67v-254h-88l-37 205q-48 23 -98 32q-51 9 -111 9q-111 0 -184 -42q-75 -43 -118 -123q-44 -83 -62 -197
q-19 -123 -19 -266q0 -145 19 -270q18 -116 62 -197q44 -80 119 -122t187 -42q131 0 230 45l34 198h82v-251q-67 -46 -156 -66q-87 -20 -192 -20z" />
    <glyph glyph-name="afii10036" unicode="&#x422;" horiz-adv-x="1085" 
d="M315 78l158 12v1225h-303l-27 -254h-88v346h977v-346h-88l-29 254h-303v-1225l158 -12v-78h-455v78z" />
    <glyph glyph-name="afii10037" unicode="&#x423;" horiz-adv-x="1175" 
d="M127 1313l-127 18v76h418v-76l-144 -18l263 -588q60 -135 85 -213q20 -62 27 -96h4q15 79 70 256l211 639l-143 20v76h395v-76l-131 -18l-357 -1020q-36 -99 -64 -153q-30 -58 -70 -96q-36 -34 -86 -50q-45 -14 -111 -14l-17 114q48 4 89 14q40 10 65 29q28 21 46 54
q21 37 38 90z" />
    <glyph glyph-name="afii10038" unicode="&#x424;" horiz-adv-x="1472" 
d="M524 66l146 14v129q-134 1 -251 27q-109 24 -183 81q-73 57 -113 153q-39 94 -39 241q0 143 44 239q43 94 122 150q77 55 185 79q100 22 235 27v119l-146 14v80h426v-80l-145 -14v-119q146 -5 246 -27q109 -24 184 -80t115 -152q39 -95 39 -240q0 -147 -43 -240
q-43 -94 -121 -151q-74 -54 -186 -79q-106 -23 -234 -28v-129l145 -14v-76h-426v76zM225 715q0 -115 28 -197q27 -79 83 -129t139 -72q84 -23 195 -24v827q-108 -5 -183 -24q-82 -21 -140 -67q-59 -47 -90 -123q-32 -78 -32 -191zM1247 696q0 121 -27 202q-27 80 -83 129
q-57 49 -139 70q-80 20 -193 25v-827q100 1 181 24q80 22 139 69t90 122q32 78 32 186z" />
    <glyph glyph-name="afii10039" unicode="&#x425;" horiz-adv-x="1243" 
d="M31 76l129 14l391 658l-318 563l-129 18v78h418v-78l-135 -18l252 -469l256 469l-141 18v78h387v-78l-125 -18l-311 -543l376 -678l131 -14v-76h-424v76l140 14l-318 574l-329 -574l155 -14v-76h-405v76z" />
    <glyph glyph-name="afii10040" unicode="&#x426;" horiz-adv-x="1349" 
d="M102 0v80l146 14v1223l-146 14v76h433v-76l-146 -14v-1221h557v1221l-145 14v76h432v-76l-146 -14v-1223h183v-391h-88l-29 297h-1051z" />
    <glyph glyph-name="afii10041" unicode="&#x427;" horiz-adv-x="1247" 
d="M193 1313l-146 16v78h432v-78l-145 -16v-348q0 -175 57 -251q57 -77 182 -77q111 0 176 34q70 37 111 68v574l-145 16v78h430v-78l-146 -16v-1223l146 -12v-78h-449v78l164 12v555q-51 -43 -129 -78q-79 -35 -188 -35q-81 0 -145 21t-110 70q-48 51 -71 128
q-24 80 -24 195v367z" />
    <glyph glyph-name="afii10042" unicode="&#x428;" horiz-adv-x="1767" 
d="M102 80l146 12v1223l-146 16v76h420v-76l-133 -16v-1219h424v1217l-133 16v78h407v-78l-133 -16v-1217h424v1219l-133 16v76h418v-76l-143 -16v-1223l143 -12v-80h-1561v80z" />
    <glyph glyph-name="afii10043" unicode="&#x429;" horiz-adv-x="1781" 
d="M102 0v80l146 12v1223l-146 16v76h420v-76l-133 -16v-1219h424v1217l-133 16v78h407v-78l-133 -16v-1217h424v1219l-133 16v76h418v-76l-143 -16v-1221h182v-391h-88l-29 297h-1483z" />
    <glyph glyph-name="afii10044" unicode="&#x42a;" horiz-adv-x="1273" 
d="M737 88q161 0 243 84q83 85 83 244q0 167 -80 235t-229 68h-195v-631h178zM717 1407v-74l-158 -16v-510h195q228 0 343 -92q113 -91 113 -305q0 -109 -34 -184q-35 -77 -97 -127t-147 -74q-89 -25 -187 -25h-471v80l146 12v1223h-264l-27 -254h-88v346h676z" />
    <glyph glyph-name="afii10045" unicode="&#x42b;" horiz-adv-x="1634" 
d="M559 88q157 0 229 84t72 244q0 168 -70 235q-71 68 -217 68h-184v-631h170zM573 807q217 0 326 -92t109 -305q0 -206 -119 -308t-322 -102h-465v80l146 12v1223l-146 16v76h445v-74l-158 -16v-510h184zM1102 78l145 12v1223l-145 16v78h430v-78l-146 -16v-1223l146 -12
v-78h-430v78z" />
    <glyph glyph-name="afii10046" unicode="&#x42c;" horiz-adv-x="1103" 
d="M567 88q159 0 242 84q82 83 82 244q0 167 -80 235t-229 68h-193v-631h178zM584 807q229 0 342 -92q112 -91 112 -305q0 -109 -34 -184q-35 -77 -97 -127q-63 -51 -146 -74q-89 -25 -186 -25h-473v80l146 12v1223l-146 16v76h445v-74l-158 -16v-510h195z" />
    <glyph glyph-name="afii10047" unicode="&#x42d;" horiz-adv-x="1091" 
d="M305 760h522q-5 142 -25 247q-21 107 -68 180q-46 71 -120 109q-73 37 -180 37q-121 0 -217 -45l-35 -196h-82v251q65 43 155 64q84 20 198 20q277 0 402 -176q124 -175 124 -532q0 -167 -32 -306q-31 -135 -98 -234q-64 -95 -169 -149q-103 -53 -242 -53q-94 0 -191 22
q-90 20 -153 69v254h88l37 -209q91 -41 215 -41q107 0 180 40q74 41 120 116q47 77 68 186q20 105 25 248h-522v98z" />
    <glyph glyph-name="afii10048" unicode="&#x42e;" horiz-adv-x="1765" 
d="M1157 -20q-469 0 -481 679h-287v-569l146 -12v-78h-433v78l146 12v1223l-146 16v78h433v-78l-146 -16v-557h289q7 324 127 498q119 173 348 173q249 0 374 -185q126 -186 126 -535q0 -362 -118 -544q-119 -183 -378 -183zM1163 76q186 0 262 151t76 465q0 321 -79 479
q-80 160 -267 160q-175 0 -254 -156q-80 -157 -80 -470q0 -317 83 -474q82 -155 259 -155z" />
    <glyph glyph-name="afii10049" unicode="&#x42f;" horiz-adv-x="1202" 
d="M590 610q-28 -40 -65 -106q-20 -36 -86 -159q-41 -77 -93 -179q-15 -29 -43 -84.5t-41 -81.5h-229v80l121 12q14 24 40 71.5t39 70.5q45 79 82 143q43 73 80 133q43 69 76 113q-151 27 -227 118t-76 267q0 104 35 182q34 76 96 124q61 48 146 70q87 23 186 23h467v-78
l-146 -14v-1223l146 -14v-78h-443v76l158 14v520h-223zM639 1319q-161 0 -243 -79q-83 -80 -83 -232q0 -168 80 -239t242 -71h178v621h-174z" />
    <glyph glyph-name="afii10065" unicode="&#x430;" horiz-adv-x="962" 
d="M383 76q85 0 141 32q55 31 101 85v307h-88q-171 0 -247 -46q-77 -47 -77 -173q0 -112 46 -158q47 -47 124 -47zM895 4q-28 -12 -64 -18q-35 -6 -63 -6q-127 0 -137 122q-45 -48 -107 -85t-159 -37q-133 0 -209 69t-76 219q0 170 106 242t334 72h105v123q0 84 -36 141
t-132 57q-81 0 -153 -21q-67 -20 -142 -57l-39 80q71 42 164 73q90 30 196 30q137 0 206 -69t69 -224v-551q0 -33 6 -51q7 -20 20 -29q15 -11 38 -12q32 -2 61 -2z" />
    <glyph glyph-name="afii10066" unicode="&#x431;" horiz-adv-x="995" 
d="M500 -20q-91 0 -165 25t-127 89q-52 63 -81 172q-29 110 -29 273q0 160 13 301q11 124 40 229q27 99 73 166t114 111q79 48 174 68q109 23 217 30l37 82h72l-29 -195q-112 -5 -219 -19q-109 -15 -195 -63q-53 -30 -87 -75q-31 -41 -54 -101q-19 -50 -32 -120
q-10 -55 -17 -136l12 2q39 85 125 129q85 43 178 43q185 0 281 -118q96 -119 96 -394q0 -137 -30 -232q-31 -96 -82 -155t-126 -86q-71 -26 -159 -26zM498 68q69 0 116 20q50 21 80 69q31 50 46 125q16 82 16 191q0 117 -15 199q-15 83 -43 133q-29 52 -74 74t-110 22
q-140 0 -207 -96q-67 -95 -67 -326q0 -113 15 -193q15 -78 47 -127t80 -70t116 -21z" />
    <glyph glyph-name="afii10067" unicode="&#x432;" horiz-adv-x="978" 
d="M432 88q74 0 138 8q59 7 103 31q42 23 63 60q22 39 22 98q0 106 -65 141t-183 35h-160v-373h82zM510 549q86 0 139 47t53 139q0 80 -47 122t-149 42h-156v-350h160zM516 987q318 0 318 -229q0 -94 -54 -156q-51 -58 -127 -86q39 -6 72 -18q41 -15 78 -42q36 -26 61 -70
t25 -103q0 -93 -37 -148q-38 -57 -101 -86q-67 -31 -153 -40q-88 -9 -188 -9h-326v74l137 16v807l-137 16v74h432z" />
    <glyph glyph-name="afii10068" unicode="&#x433;" horiz-adv-x="808" 
d="M358 895l2 -807l152 -14v-74h-426v74l141 14v809l-133 16v74h676v-291h-86l-25 199h-301z" />
    <glyph glyph-name="afii10069" unicode="&#x434;" horiz-adv-x="1024" 
d="M129 0l-27 -238h-86v330h119q81 99 128 300q46 197 52 505l-131 14v76h627v-895h162v-330h-86l-29 238h-729zM418 711q-12 -133 -30 -232q-20 -108 -38 -171q-23 -79 -44 -125q-23 -51 -48 -91h422v803h-250z" />
    <glyph glyph-name="afii10070" unicode="&#x435;" horiz-adv-x="931" 
d="M502 -20q-93 0 -164 26q-75 28 -127 87q-53 61 -83 159q-30 99 -30 242q0 136 29 237q28 97 80 160q51 62 121 89q72 28 153 28q172 0 264 -112q93 -113 93 -366v-51h-602q2 -221 69 -314t219 -93q80 0 139 22q61 23 113 60l47 -66q-71 -56 -141 -81q-76 -27 -180 -27z
M479 922q-111 0 -171 -82q-59 -82 -70 -275h462q0 190 -49 273q-49 84 -172 84z" />
    <glyph glyph-name="afii10072" unicode="&#x436;" horiz-adv-x="1363" 
d="M573 508l-358 -508h-195v72l105 18l321 442l-264 355l-123 16v84h193zM1090 891l-136 14v82h353v-84l-103 -16l-282 -350l321 -447l103 -18v-72h-199l-356 508zM508 911v76h242v-899l120 -16v-72h-372v72l120 16v809z" />
    <glyph glyph-name="afii10073" unicode="&#x437;" horiz-adv-x="860" 
d="M389 541q94 0 143 55q50 56 50 141q0 86 -45 134q-46 49 -150 49q-50 0 -93 -9q-37 -8 -69 -28l-26 -150h-88v189q52 43 121 64q72 22 167 22q168 0 243 -63t75 -171q0 -93 -46 -157t-130 -103v-2q105 -15 165 -72t60 -161q0 -72 -28 -131q-25 -54 -79 -93
q-49 -36 -120 -56q-67 -19 -152 -19q-124 0 -194 33q-75 35 -125 85l47 68q47 -38 111 -66q63 -28 159 -28q122 0 181 55q61 56 61 154q0 85 -62 129q-61 43 -174 43h-115v88h113z" />
    <glyph glyph-name="afii10074" unicode="&#x438;" horiz-adv-x="1122" 
d="M74 911v76h260v-661q0 -47 -3 -89q-4 -52 -7 -77q4 6 12.5 23.5t14.5 27.5q4 8 17 32.5t21 38.5q2 4 41 76q26 49 39 70l328 559h118v-897l132 -14v-76h-259v510q0 81 5 168q1 18 2.5 47.5t3 51.5t2.5 40q-3 -5 -13.5 -24.5l-17.5 -32.5q-22 -43 -42 -76
q-8 -14 -24.5 -43t-24.5 -42q-34 -58 -50 -87l-305 -512h-117v897z" />
    <glyph glyph-name="afii10075" unicode="&#x439;" horiz-adv-x="1122" 
d="M567 1133q-63 0 -109 18t-78 50t-50 72q-21 47 -27 83l109 22q12 -71 50 -115t109 -44t112 44q39 42 56 115l92 -22q-7 -42 -27 -83t-51 -72q-32 -32 -78 -50q-47 -18 -108 -18zM74 911v76h260v-661q0 -47 -3 -89q-4 -52 -7 -77q4 6 12.5 23.5t14.5 27.5q4 8 17 32.5
t21 38.5q2 4 41 76q26 49 39 70l328 559h118v-897l132 -14v-76h-259v510q0 81 5 168q1 18 2.5 47.5t3 51.5t2.5 40q-3 -5 -13.5 -24.5l-17.5 -32.5q-22 -43 -42 -76q-8 -14 -24.5 -43t-24.5 -42q-34 -58 -50 -87l-305 -512h-117v897z" />
    <glyph glyph-name="afii10076" unicode="&#x43a;" horiz-adv-x="1001" 
d="M709 891l-125 14v82h362v-84l-123 -16l-309 -352l354 -445l117 -18v-72h-211l-395 508zM84 911v76h266v-899l131 -16v-72h-395v72l133 16l-2 809z" />
    <glyph glyph-name="afii10077" unicode="&#x43b;" horiz-adv-x="1015" 
d="M377 412q-12 -117 -40 -202q-26 -78 -70 -130q-43 -50 -96 -71q-54 -21 -122 -21h-20l-17 104q66 0 112 21q47 21 78 68q32 49 50 129q20 89 31 200l36 387l-143 14v76h635v-897l131 -14v-76h-262v895h-252z" />
    <glyph glyph-name="afii10078" unicode="&#x43c;" horiz-adv-x="1310" 
d="M393 987l178 -450q10 -27 26.5 -69.5t22.5 -58.5q16 -44 29 -98h4q12 47 36 107q45 116 52 133l177 436h307v-76l-142 -14v-807l142 -12v-78h-271v530q0 128 3 204q3 65 8 132h-4q-18 -62 -49 -148q-32 -89 -62 -157l-162 -362h-100l-152 333q-20 42 -39 92
q-16 42 -33 92q-23 66 -28 83q-16 50 -19 67h-4q4 -52 6 -136q3 -165 3 -200v-440l131 -12v-78h-373v78l141 12v807l-141 14v76h313z" />
    <glyph glyph-name="afii10079" unicode="&#x43d;" horiz-adv-x="1134" 
d="M84 911v76h266v-438h436v350l-120 16v72h383v-72l-131 -16v-809l133 -14v-76h-265v457h-436v-369l121 -16v-72h-385v72l133 16l-2 809z" />
    <glyph glyph-name="afii10080" unicode="&#x43e;" horiz-adv-x="995" 
d="M500 -20q-88 0 -160 28q-74 29 -128 90q-54 62 -84 159t-30 237q0 136 30 234t82 160t125 91t159 29q84 0 160 -29t128 -90q55 -64 84 -159q31 -101 31 -234q0 -137 -30 -236q-30 -98 -82 -161q-52 -62 -126 -91q-72 -28 -159 -28zM498 68q134 0 196 96q62 97 62 325
q0 230 -62 330q-62 99 -196 99q-135 0 -197 -97q-61 -95 -61 -325q0 -233 62 -330q62 -98 196 -98z" />
    <glyph glyph-name="afii10081" unicode="&#x43f;" horiz-adv-x="1132" 
d="M84 911v76h963v-72l-132 -16v-809l132 -14v-76h-265v893h-434v-805l121 -16v-72h-385v72l133 16v809z" />
    <glyph glyph-name="afii10082" unicode="&#x440;" horiz-adv-x="1073" 
d="M338 858q51 59 130 105q76 45 163 45q73 0 136 -27q62 -27 106 -87q45 -62 70 -159q26 -101 26 -241q0 -268 -98 -392q-97 -122 -257 -122q-95 0 -158 36q-68 39 -112 90v-436l131 -18v-66h-395v66l131 18v1213l-131 20v84h237zM600 76q124 0 176 96q53 97 53 311
q0 119 -12 200q-12 79 -38 130t-67 71q-42 21 -102 21q-81 0 -147 -39q-67 -40 -119 -90v-575q50 -48 118 -88q64 -37 138 -37z" />
    <glyph glyph-name="afii10083" unicode="&#x441;" horiz-adv-x="866" 
d="M489 -20q-84 0 -155 28q-72 28 -123 90q-52 62 -80 159q-29 99 -29 237q0 135 29 234q28 97 81 160q52 63 124 91q73 29 156 29q88 0 160 -25q67 -23 122 -72v-188h-92l-29 149q-36 26 -70 37q-41 13 -91 13q-125 0 -188 -99q-62 -97 -62 -327q0 -124 17 -200
q18 -83 52 -131q36 -51 86 -72q51 -21 119 -21q70 0 129 22q57 21 111 58l47 -64q-65 -50 -134 -78q-75 -30 -180 -30z" />
    <glyph glyph-name="afii10084" unicode="&#x442;" horiz-adv-x="907" 
d="M137 696h-88v291h809v-291h-86l-24 203h-228v-811l142 -14v-74h-416v74l143 14v811h-229z" />
    <glyph glyph-name="afii10085" unicode="&#x443;" horiz-adv-x="968" 
d="M612 903v84h351v-84l-109 -16l-285 -907q-35 -110 -68 -174q-35 -67 -81 -113q-45 -45 -102 -72q-54 -26 -132 -47l-30 100q68 18 119 44q47 24 87 64q37 37 63 91q25 51 48 127h-57l-283 889l-115 14v84h226l192 -657q22 -74 39 -146q18 -77 25 -123h2q15 75 27 119
q18 66 42 150l172 559z" />
    <glyph glyph-name="afii10086" unicode="&#x444;" horiz-adv-x="1312" 
d="M594 45q-62 -61 -184 -61q-71 0 -129 26q-60 27 -103 86q-41 57 -66 157q-24 97 -24 239q0 114 21 208q22 98 62 161q43 67 107 103q63 35 150 35q43 0 85 -12q41 -12 79 -45v426l-131 21v79h256v-528q41 28 87 45q45 16 99 16q67 0 124 -22q59 -23 102 -81
q45 -61 70 -157q26 -101 26 -247q0 -265 -91 -386q-92 -122 -251 -122q-86 0 -164 59v-371l133 -18v-70h-389v70l131 18v371zM870 74q113 0 167 97q55 99 55 312q0 112 -13 200q-12 80 -38 131q-27 52 -65 72q-40 21 -93 21q-55 0 -90 -12q-32 -11 -74 -37v-727
q35 -34 68 -45q35 -12 83 -12zM442 909q-115 0 -168 -96q-53 -97 -53 -309q0 -119 15 -200q15 -82 42 -131q28 -51 65 -73t87 -22q52 0 88 10q37 10 76 39v731q-40 31 -73 41t-79 10z" />
    <glyph glyph-name="afii10087" unicode="&#x445;" horiz-adv-x="956" 
d="M381 72v-72h-361v72l117 16l275 428l-228 371l-106 16v84h190l221 -383h5l176 285l-109 14v84h332v-84l-113 -16l-233 -357l274 -440l115 -18v-72h-207l-262 442h-4l-215 -354z" />
    <glyph glyph-name="afii10088" unicode="&#x446;" horiz-adv-x="1118" 
d="M86 0v72l131 16v809l-133 14v76h264v-891h420v803l-121 16v72h383v-72l-131 -16v-803h162v-334h-86l-29 238h-860z" />
    <glyph glyph-name="afii10089" unicode="&#x447;" horiz-adv-x="1036" 
d="M557 915v72h393v-72l-131 -16v-811l133 -16v-72h-413v72l149 16v365q-46 -39 -119 -63q-69 -23 -149 -23q-56 0 -102 15q-45 15 -80 48q-36 35 -55 85q-19 51 -19 128v256l-127 19v69h258v-325q0 -58 12 -95q12 -36 33 -59q22 -23 49 -32q29 -9 64 -9q68 0 126 16t109 56
v360z" />
    <glyph glyph-name="afii10090" unicode="&#x448;" horiz-adv-x="1474" 
d="M551 911v76h252v-891h323v803l-120 16v72h383v-72l-132 -16v-809l132 -14v-76h-1303v72l131 16v809l-133 14v76h264v-891h324v801z" />
    <glyph glyph-name="afii10091" unicode="&#x449;" horiz-adv-x="1474" 
d="M86 0v72l131 16v809l-133 14v76h264v-891h324v801l-121 14v76h252v-891h323v803l-120 16v72h383v-72l-132 -16v-803h162v-334h-88l-26 238h-1219z" />
    <glyph glyph-name="afii10092" unicode="&#x44a;" horiz-adv-x="1038" 
d="M588 88q135 0 199 55q65 56 65 160q0 109 -57 149q-56 40 -174 40h-142v-404h109zM610 987v-72l-131 -16v-319h144q105 0 175 -18t113 -52q44 -35 62 -87t18 -122q0 -162 -108 -231q-110 -70 -291 -70h-379v74l135 16l-2 809h-196l-25 -203h-86v291h571z" />
    <glyph glyph-name="afii10093" unicode="&#x44b;" horiz-adv-x="1339" 
d="M870 915v72h383v-72l-131 -16v-809l133 -14v-76h-264v899zM410 88q151 0 216 50q64 49 64 165q0 108 -50 149q-49 40 -167 40h-121v-404h58zM473 580q104 0 173 -18t109 -52q39 -33 56 -87q16 -51 16 -122q0 -91 -30 -150q-30 -58 -88 -93q-56 -34 -140 -46
q-82 -12 -184 -12h-301v74l137 16v807l-137 16v74h399v-72l-131 -16v-319h121z" />
    <glyph glyph-name="afii10094" unicode="&#x44c;" horiz-adv-x="911" 
d="M426 88q155 0 226 49q73 50 73 166q0 109 -57 149q-56 40 -174 40h-142v-404h74zM494 580q104 0 175 -18q70 -18 113 -52q44 -35 62 -87t18 -122q0 -89 -33 -148t-91 -93q-56 -33 -141 -47q-79 -13 -181 -13h-332v74l137 16v807l-137 16v74h399v-72l-131 -16v-319h142z
" />
    <glyph glyph-name="afii10095" unicode="&#x44d;" horiz-adv-x="886" 
d="M383 -20q-113 0 -187 40q-69 37 -124 89l49 67q54 -40 110 -71t142 -31q125 0 194 89t80 292h-354v88h354q-1 106 -18 178q-16 72 -47 116q-30 43 -78 62q-49 19 -111 19q-45 0 -93 -10q-44 -9 -77 -27l-26 -148h-88v191q49 41 122 63q69 21 170 21q89 0 162 -26
q71 -25 121 -84q48 -57 76 -154q26 -91 26 -234q0 -141 -30 -242q-29 -98 -84 -165q-52 -63 -128 -94q-72 -29 -161 -29z" />
    <glyph glyph-name="afii10096" unicode="&#x44e;" horiz-adv-x="1429" 
d="M942 -20q-86 0 -152 26q-70 27 -119 84q-51 58 -79 148q-30 93 -31 219h-213v-369l133 -16v-72h-395v72l133 16l-2 809l-133 14v76h264v-438h213q11 246 112 352q102 107 265 107q85 0 158 -29q71 -28 124 -90q52 -61 82 -160q29 -96 29 -235q0 -138 -27 -235
q-26 -95 -79 -160q-50 -62 -123 -91q-71 -28 -160 -28zM942 68q70 0 115 22q47 23 77 74q29 50 43 131q13 77 13 194q0 231 -58 329q-59 100 -192 100q-125 0 -182 -98q-58 -99 -58 -326q0 -110 16 -196q15 -79 46 -132q30 -50 76 -75q43 -23 104 -23z" />
    <glyph glyph-name="afii10097" unicode="&#x44f;" horiz-adv-x="1001" 
d="M498 416l-240 -416h-207v70l109 22l227 334q-122 22 -185 91t-63 192q0 87 34 140q36 57 93 85q60 30 142 42q76 11 178 11h332v-74l-138 -16v-807l138 -16v-74h-269v416h-151zM584 899q-152 0 -230 -42t-78 -146q0 -111 63 -160q62 -49 179 -49h131v397h-65z" />
    <glyph glyph-name="uni0450" unicode="&#x450;" horiz-adv-x="931" 
d="M502 -20q-93 0 -164 26q-75 28 -127 87q-53 61 -83 159q-30 99 -30 242q0 136 29 237q28 97 80 160q51 62 121 89q72 28 153 28q172 0 264 -112q93 -113 93 -366v-51h-602q2 -221 69 -314t219 -93q80 0 139 22q61 23 113 60l47 -66q-71 -56 -141 -81q-76 -27 -180 -27z
M479 922q-111 0 -171 -82q-59 -82 -70 -275h462q0 190 -49 273q-49 84 -172 84zM647 1126l-379 193l74 123l344 -254z" />
    <glyph glyph-name="afii10071" unicode="&#x451;" horiz-adv-x="931" 
d="M502 -20q-93 0 -164 26q-75 28 -127 87q-53 61 -83 159q-30 99 -30 242q0 136 29 237q28 97 80 160q51 62 121 89q72 28 153 28q172 0 264 -112q93 -113 93 -366v-51h-602q2 -221 69 -314t219 -93q80 0 139 22q61 23 113 60l47 -66q-71 -56 -141 -81q-76 -27 -180 -27z
M479 922q-111 0 -171 -82q-59 -82 -70 -275h462q0 190 -49 273q-49 84 -172 84zM287 1137q-42 0 -69 27q-28 28 -28 71q0 41 28 69q27 27 69 27q41 0 68 -27q28 -28 28 -69q0 -43 -28 -71q-27 -27 -68 -27zM647 1137q-41 0 -68 27q-28 28 -28 71q0 41 28 69q27 27 68 27
q42 0 69 -27t27 -69q0 -44 -27 -71t-69 -27z" />
    <glyph glyph-name="afii10099" unicode="&#x452;" horiz-adv-x="1107" 
d="M90 987h137v381l-133 21v79h264v-481h326v-92h-326v-369q66 66 147 108t169 42q72 0 120 -21t76 -68t40 -128q12 -79 12 -201v-74q0 -96 -16 -168q-15 -66 -45 -113t-76 -78q-53 -36 -107 -61l-43 72q41 26 73 51q29 23 48 58q19 34 26 77q9 52 9 107v145q0 54 -6 126
q-4 52 -20 90q-16 37 -45 55q-30 18 -79 18q-71 0 -146 -37q-78 -38 -137 -90v-348l131 -16v-72h-393v72l131 16v807h-137v92z" />
    <glyph glyph-name="afii10100" unicode="&#x453;" horiz-adv-x="808" 
d="M358 895l2 -807l152 -14v-74h-426v74l141 14v809l-133 16v74h676v-291h-86l-25 199h-301zM360 1188l345 254l71 -123l-377 -193z" />
    <glyph glyph-name="afii10101" unicode="&#x454;" horiz-adv-x="866" 
d="M485 -20q-84 0 -155 28q-72 28 -123 90q-52 62 -80 159q-29 99 -29 237q0 135 29 234q28 96 80 160q50 62 123 91t155 29q92 0 162 -26t123 -73v-186h-88l-27 149q-63 48 -170 48q-118 0 -181 -89q-61 -86 -66 -294h366v-88h-366q5 -111 23 -179q19 -71 54 -115
q36 -45 84 -64t113 -19q71 0 128 22q56 22 110 58l47 -64q-65 -50 -133 -78q-74 -30 -179 -30z" />
    <glyph glyph-name="afii10102" unicode="&#x455;" horiz-adv-x="823" 
d="M387 -20q-94 0 -166 19q-74 20 -125 54v199h90l31 -152q37 -16 76 -25q37 -9 96 -9q111 0 163 48t52 136q0 46 -11 75q-12 31 -37 55t-68 42q-52 22 -101 37q-52 16 -106 41q-51 23 -85 56q-36 35 -57 82q-20 46 -20 116q0 51 18 97t56 81t93 55q57 21 132 21
q83 0 154 -17q69 -17 120 -45v-194h-88l-33 141q-33 17 -69 21q-50 6 -78 6q-85 0 -137 -41q-51 -41 -51 -115q0 -79 46 -116t150 -70q61 -18 115 -41q52 -22 94 -58q41 -35 65 -87q23 -50 23 -132q0 -142 -93 -211t-249 -69z" />
    <glyph glyph-name="afii10103" unicode="&#x456;" horiz-adv-x="563" 
d="M492 72v-72h-396v72l131 16v795l-133 18v86h264v-899zM276 1206q-43 0 -70 29q-28 30 -28 72q0 41 28 71q27 29 70 29q42 0 72 -28q29 -27 29 -72q0 -43 -29 -72t-72 -29z" />
    <glyph glyph-name="afii10104" unicode="&#x457;" horiz-adv-x="563" 
d="M147 1165q-38 0 -64 26t-26 64q0 41 26 67t62 26q38 0 66 -26q27 -26 27 -67q0 -39 -27 -64q-28 -26 -64 -26zM436 1165q-37 0 -65 26q-27 25 -27 64q0 41 26 67t64 26q39 0 65 -26q25 -25 25 -67q0 -39 -25 -64q-26 -26 -63 -26zM492 72v-72h-396v72l131 16v795l-133 18
v86h264v-899z" />
    <glyph glyph-name="afii10105" unicode="&#x458;" horiz-adv-x="509" 
d="M49 -348q44 27 73 52q31 26 48 59q20 39 27 79q8 48 8 109v932l-133 18v86h264v-1007q0 -93 -17 -158t-48 -109q-32 -46 -77 -75q-51 -33 -104 -58zM254 1206q-42 0 -69 29t-27 72t27 71q27 29 69 29q45 0 73 -28q27 -27 27 -72q0 -43 -27 -72t-73 -29z" />
    <glyph glyph-name="afii10106" unicode="&#x459;" horiz-adv-x="1327" 
d="M858 88q154 0 219 49q66 49 66 166q0 108 -50 149q-49 40 -167 40h-135v-404h67zM659 895h-239l-41 -412q-15 -145 -40 -236q-26 -96 -65 -153q-40 -59 -94 -82q-56 -24 -127 -24h-24l-17 104q66 0 112 21q47 21 78 68q32 48 51 129t30 200l36 387l-143 14v76h744v-72
l-129 -14v-321h137q100 0 169 -18q68 -18 108 -52t58 -87q17 -50 17 -122q0 -89 -30 -148t-87 -93q-55 -33 -138 -47q-78 -13 -183 -13h-183v895z" />
    <glyph glyph-name="afii10107" unicode="&#x45a;" horiz-adv-x="1437" 
d="M1036 563q100 0 167 -16q71 -17 110 -50q41 -35 59 -84q19 -52 19 -120q0 -160 -100 -227q-99 -66 -283 -66h-240v469h-418v-381l121 -16v-72h-385v72l133 16l-2 809l-133 14v76h266v-426h418v336l-135 16v74h397v-72l-131 -16v-336h137zM1001 88q137 0 194 51
q56 50 56 156q0 105 -51 143q-50 37 -164 37h-137v-387h102z" />
    <glyph glyph-name="afii10108" unicode="&#x45b;" horiz-adv-x="1107" 
d="M90 987h137v381l-133 21v79h264v-481h326v-92h-326v-371q66 66 147 108t169 42q116 0 182 -63t66 -195v-328l129 -18v-70h-260v383q0 95 -37 136q-38 42 -113 42q-69 0 -146 -36q-76 -36 -137 -89v-348l131 -16v-72h-393v72l131 16v807h-137v92z" />
    <glyph glyph-name="afii10109" unicode="&#x45c;" horiz-adv-x="1001" 
d="M709 891l-125 14v82h362v-84l-123 -16l-309 -352l354 -445l117 -18v-72h-211l-395 508zM84 911v76h266v-899l131 -16v-72h-395v72l133 16l-2 809zM418 1188l344 254l72 -123l-377 -193z" />
    <glyph glyph-name="uni045D" unicode="&#x45d;" horiz-adv-x="1122" 
d="M74 911v76h260v-661q0 -47 -3 -89q-4 -52 -7 -77q4 6 12.5 23.5t14.5 27.5q4 8 17 32.5t21 38.5q2 4 41 76q26 49 39 70l328 559h118v-897l132 -14v-76h-259v510q0 81 5 168q1 18 2.5 47.5t3 51.5t2.5 40q-3 -5 -13.5 -24.5l-17.5 -32.5q-22 -43 -42 -76
q-8 -14 -24.5 -43t-24.5 -42q-34 -58 -50 -87l-305 -512h-117v897zM668 1126l-379 193l73 123l345 -254z" />
    <glyph glyph-name="afii10110" unicode="&#x45e;" horiz-adv-x="968" 
d="M481 1133q-63 0 -109 18t-78 50t-50 72q-21 47 -27 83l107 22q15 -74 51 -115q38 -44 110 -44q71 0 112 44q39 42 54 115l94 -22q-11 -46 -29 -83q-20 -41 -51 -72q-32 -32 -77 -50t-107 -18zM612 903v84h351v-84l-109 -16l-285 -907q-35 -110 -68 -174q-35 -67 -81 -113
q-45 -45 -102 -72q-54 -26 -132 -47l-30 100q68 18 119 44q47 24 87 64q37 37 63 91q25 51 48 127h-57l-283 889l-115 14v84h226l192 -657q22 -74 39 -146q18 -77 25 -123h2q15 75 27 119q18 66 42 150l172 559z" />
    <glyph glyph-name="afii10193" unicode="&#x45f;" horiz-adv-x="1114" 
d="M494 -309l20 309h-428v72l131 16v809l-133 14v76h264v-891h420v803l-121 16v72h383v-72l-131 -16v-809l133 -14v-76h-430l19 -309h-127z" />
    <glyph glyph-name="afii10146" unicode="&#x462;" horiz-adv-x="1277" 
d="M758 733q122 0 203 -17q85 -18 142 -60t84 -111t27 -176q0 -104 -34 -173t-97 -114q-62 -44 -146 -63q-83 -19 -185 -19h-473v80l145 12v963h-268l-27 -256h-88v348h383v168l-145 16v76h442v-74l-158 -16v-170h404v-266h-88l-27 174h-289v-322h195zM743 88q155 0 240 65
q84 65 84 222q0 82 -20 132q-21 53 -60 83q-41 32 -97 43q-58 12 -132 12h-195v-557h180z" />
    <glyph glyph-name="afii10194" unicode="&#x463;" horiz-adv-x="1038" 
d="M799 731h-86l-25 168h-209v-330h144q107 0 175 -16q71 -17 113 -50q45 -35 62 -86q18 -53 18 -122q0 -79 -27 -136q-26 -55 -80 -92q-55 -37 -126 -52q-74 -15 -166 -15h-379v74l135 16v809h-198l-25 -203h-86v291h309v385l-131 21v75h262v-481h320v-256zM588 88
q135 0 199 52q65 53 65 157q0 109 -57 146q-58 38 -174 38h-142v-393h109z" />
    <glyph glyph-name="afii10147" unicode="&#x472;" horiz-adv-x="1232" 
d="M621 -20q-259 0 -384 180q-124 179 -124 538q0 354 128 542q127 187 375 187q249 0 376 -185q128 -187 128 -535q0 -362 -120 -545q-119 -182 -379 -182zM616 76q190 0 269 143q79 144 84 443h-705q5 -297 86 -441q82 -145 266 -145zM616 1331q-180 0 -262 -142
q-82 -143 -90 -429h703q-7 286 -90 429q-82 142 -261 142z" />
    <glyph glyph-name="afii10195" unicode="&#x473;" horiz-adv-x="995" 
d="M500 -20q-88 0 -160 28q-74 29 -128 90q-54 62 -84 159t-30 237q0 136 30 234t82 160t125 91t159 29q84 0 160 -29t128 -90q55 -64 84 -160q31 -102 31 -235q0 -138 -30 -235q-30 -98 -82 -160t-126 -91q-72 -28 -159 -28zM498 68q130 0 192 89t66 300h-516
q5 -214 66 -300q63 -89 192 -89zM498 918q-126 0 -190 -87q-62 -84 -68 -288h514q-6 200 -69 287q-64 88 -187 88z" />
    <glyph glyph-name="afii10148" unicode="&#x474;" horiz-adv-x="1214" 
d="M893 1126q28 92 55 146q28 55 64 90q33 32 79 46q42 13 99 13h37v-129q-104 2 -148 -40q-45 -42 -73 -140l-338 -1112h-136l-393 1313l-127 18v76h418v-76l-143 -18l239 -830q44 -151 63 -240q17 -76 23 -122h4q0 5 7 40q3 14 12 59q5 25 20 86q14 57 33 120z" />
    <glyph glyph-name="afii10196" unicode="&#x475;" horiz-adv-x="970" 
d="M637 639q27 100 55 167q27 65 64 110q36 43 81 61q47 18 107 18h10q1 0 23 -2v-119q-57 2 -89 -9q-39 -13 -61 -38q-25 -28 -42 -68q-13 -30 -35 -100l-203 -659h-133l-295 889l-101 14v84h361v-84l-119 -16l164 -522q26 -86 41 -149q17 -71 27 -134h2q12 77 26 132
q20 81 43 153z" />
    <glyph glyph-name="afii10050" unicode="&#x490;" horiz-adv-x="911" 
d="M389 1315v-1225l152 -14v-76h-437v76l146 14v1225l-148 16v76h695l26 256h88v-348h-522z" />
    <glyph glyph-name="afii10098" unicode="&#x491;" horiz-adv-x="788" 
d="M358 895l2 -807l152 -14v-74h-426v74l141 14v809l-133 16v74h551l23 197h88v-289h-398z" />
    <glyph glyph-name="uni0492" unicode="&#x492;" horiz-adv-x="964" 
d="M389 727v-637l152 -14v-76h-437v76l146 14v637h-182v88h182v500l-148 16v76h830v-346h-88l-27 254h-428v-500h338v-88h-338z" />
    <glyph glyph-name="uni0493" unicode="&#x493;" horiz-adv-x="808" 
d="M358 473l2 -385l152 -14v-74h-426v74l141 14v385h-151v84h151v340l-133 16v74h676v-291h-86l-25 199h-301v-338h193v-84h-193z" />
    <glyph glyph-name="uni0496" unicode="&#x496;" horiz-adv-x="1718" 
d="M1348 0l-424 743l376 568l-126 20v76h382v-76l-122 -18l-375 -543l397 -676h182v-391h-88l-28 297h-174zM586 78l145 12v1223l-145 16v78h430v-78l-146 -16v-1223l146 -12v-78h-430v78zM141 90l404 676l-379 547l-123 18v76h383v-76l-127 -20l379 -568l-426 -743h-232v78
z" />
    </font>
</defs>
</svg>
