<?xml version="1.0" standalone="no"?>
<!DOCTYPE svg PUBLIC "-//W3C//DTD SVG 1.1//EN" "http://www.w3.org/Graphics/SVG/1.1/DTD/svg11.dtd" >
<svg xmlns="http://www.w3.org/2000/svg" xmlns:xlink="http://www.w3.org/1999/xlink" version="1.1">
<metadata>
Created by FontForge 20170731 at Fri Sep 18 17:19:02 2020
 By Aleksey,,,
2010 Erik Spiekermann, Christian Schwartz, Kris Sowersby published by FSI FontShop International GmbH
</metadata>
<defs>
<font id="FFUnitSlabPro-UltraItalic" horiz-adv-x="1126" >
  <font-face 
    font-family="FF Unit Slab Pro Ultra"
    font-weight="900"
    font-style="italic"
    font-stretch="normal"
    units-per-em="2048"
    panose-1="2 1 11 4 3 1 1 1 1 2"
    ascent="1638"
    descent="-410"
    x-height="1073"
    cap-height="1427"
    bbox="-956 -604 2884 2273"
    underline-thickness="204"
    underline-position="-214"
    slope="-12"
    unicode-range="U+0020-FB04"
  />
<missing-glyph horiz-adv-x="1026" 
d="M-55 1427h1136v-1427h-1136v1427zM786 295v838h-546v-838h546z" />
    <glyph glyph-name="uniFB00" unicode="ff" horiz-adv-x="1200" 
d="M387 -41q-17 -86 -59 -147q-46 -66 -102 -108q-61 -45 -125 -70q-62 -24 -130 -37l-100 180q61 40 88 87q26 45 43 130l160 821h-92l55 258h86l10 53q23 108 62 181q38 70 94 114q55 43 126 61q67 17 156 17q140 0 248 -51q54 44 127 62q72 18 160 18q86 0 152 -18
t131 -52l-82 -215q-37 18 -60 22q-27 5 -63 5q-60 0 -87 -29q-28 -29 -38 -80l-19 -88h158l-55 -258h-152l-153 -805q-16 -84 -60 -147q-47 -68 -101 -108q-58 -43 -125 -69q-68 -26 -130 -38l-100 180q61 40 88 87q26 45 43 130l149 770h-139zM756 1155q13 60 20 84
q-13 0 -19 1t-20 1q-60 0 -87 -29q-28 -29 -38 -79l-12 -60h139z" />
    <glyph glyph-name="fi" unicode="fi" horiz-adv-x="1140" 
d="M993 373q-5 -17 -6 -34q-2 -24 -2 -34q0 -19 9 -29t38 -10h33l-43 -241q-60 -27 -117 -39q-62 -13 -104 -13q-60 0 -105 17q-42 16 -70 44t-41 63q-14 37 -14 75q0 63 13 123l110 520h-143l-164 -858q-17 -86 -59 -147q-46 -66 -102 -108q-61 -45 -125 -70
q-68 -26 -130 -38l-100 181q61 40 88 87q26 45 43 130l160 823h-92l55 258h86l16 82q22 105 67 180q43 70 104 115q56 41 136 60q75 18 158 18q95 0 189 -20q92 -20 157 -52l-82 -260q-36 17 -88 26q-53 9 -106 9q-65 0 -103 -26q-36 -24 -51 -91l-8 -41h541z" />
    <glyph glyph-name="fl" unicode="fl" horiz-adv-x="1142" 
d="M995 373q-5 -17 -6 -34q-2 -24 -2 -34q0 -19 9 -29t38 -10h33l-43 -241q-60 -27 -117 -39q-62 -13 -104 -13q-60 0 -105 17q-42 16 -70 44t-41 63q-14 37 -14 75q0 63 13 123l198 936q-4 3 -21 8q-13 4 -36 4q-58 0 -80 -26q-23 -27 -33 -76l-14 -68h94l-55 -258h-88
l-164 -858q-17 -86 -59 -147q-46 -66 -102 -108q-61 -45 -125 -70q-68 -26 -130 -38l-100 181q61 40 88 87q26 45 43 130l160 823h-92l55 258h86l16 82q22 107 62 180q39 72 91 115q50 41 119 60q66 18 144 18q82 0 148 -22q62 -21 112 -54l92 53h240z" />
    <glyph glyph-name="uniFB03" unicode="ffi" horiz-adv-x="1669" 
d="M659 1499q81 0 137 -14q60 -15 119 -43q61 46 139 66t167 20q94 0 188 -20t158 -52l-82 -260q-36 17 -88 26q-53 9 -107 9q-64 0 -102 -26q-36 -24 -51 -91l-9 -41h541l-147 -700q-5 -17 -6 -34q0 -2 -1.5 -14.5t-1.5 -19.5q0 -17 10 -29q9 -10 38 -10h32l-43 -241
q-61 -27 -116 -39q-62 -13 -105 -13q-59 0 -104 17q-43 17 -71 44q-28 28 -41 63t-13 75q0 68 12 123l111 520h-144l-153 -805q-16 -84 -60 -147q-47 -68 -101 -108q-58 -43 -125 -69q-68 -26 -130 -38l-100 180q61 40 88 87q26 45 43 130l149 770h-139l-164 -856
q-17 -86 -59 -147q-46 -66 -102 -108q-61 -45 -125 -70q-62 -24 -130 -37l-100 180q61 40 88 87q26 45 43 130l160 821h-92l55 258h86l10 53q23 108 62 181q38 70 94 114q55 43 126 61q67 17 156 17zM756 1155q3 15 9 43q2 11 13 41q-13 0 -20 1t-21 1q-60 0 -87 -29
q-28 -29 -38 -79l-12 -60h139z" />
    <glyph glyph-name="uniFB04" unicode="ffl" horiz-adv-x="1671" 
d="M926 10q-16 -84 -60 -147q-47 -68 -101 -108q-58 -43 -125 -69q-68 -26 -130 -38l-100 180q61 40 88 87q26 45 43 130l149 770h-139l-164 -856q-17 -86 -59 -147q-46 -66 -102 -108q-61 -45 -125 -70q-62 -24 -130 -37l-100 180q61 40 88 87q26 45 43 130l160 821h-92
l55 258h86l10 53q23 108 62 181q38 70 94 114q55 43 126 61q67 17 156 17q74 0 132 -13q54 -12 114 -38q50 43 120 62q66 18 146 18q82 0 148 -22q64 -21 113 -54l92 53h239l-239 -1132q-5 -17 -6 -34q-2 -24 -2 -34q0 -19 9 -29t38 -10h32l-43 -241q-61 -27 -116 -39
q-62 -13 -105 -13q-59 0 -104 17q-43 17 -71 44q-28 28 -41 63t-13 75q0 68 12 123l199 936q-3 2 -22 8q-13 4 -36 4q-57 0 -79 -26q-23 -27 -33 -76l-15 -68h95l-56 -258h-88zM756 1155q13 60 20 84q-13 0 -19 1t-20 1q-60 0 -87 -29q-28 -29 -38 -79l-12 -60h139z" />
    <glyph glyph-name=".notdef" horiz-adv-x="1026" 
d="M-55 1427h1136v-1427h-1136v1427zM786 295v838h-546v-838h546z" />
    <glyph glyph-name=".null" horiz-adv-x="0" 
 />
    <glyph glyph-name="nonmarkingreturn" horiz-adv-x="389" 
 />
    <glyph glyph-name="space" unicode=" " horiz-adv-x="389" 
 />
    <glyph glyph-name="exclam" unicode="!" horiz-adv-x="593" 
d="M262 1427h447l-306 -968h-292zM2 193q0 46 16 85q15 37 47 69q29 29 69 47t87 18t87 -18q41 -18 70 -47q30 -30 46 -69t16 -85t-16 -85q-16 -40 -46 -70q-29 -29 -70 -47q-40 -18 -87 -18t-87 18t-69 47q-31 31 -47 70t-16 85z" />
    <glyph glyph-name="quotedbl" unicode="&#x22;" horiz-adv-x="1013" 
d="M258 1427h393l-182 -620h-295zM735 1427h393l-182 -620h-295z" />
    <glyph glyph-name="numbersign" unicode="#" 
d="M184 1071h193l90 354h219l-90 -354h149l91 354h219l-90 -354h137l-31 -254h-170l-47 -190h150l-31 -254h-182l-95 -373h-219l94 373h-149l-94 -373h-219l94 373h-146l31 254h178l47 190h-159zM485 627h150l47 190h-150z" />
    <glyph glyph-name="dollar" unicode="$" 
d="M68 420h270v-158q24 -10 58 -21q26 -8 63 -8q65 0 100 32t35 95q0 37 -10 61q-10 25 -32 47q-23 23 -56 43q-34 21 -84 48q-127 69 -192 164q-64 94 -64 240q0 113 31 197q32 86 88 145t135 94t170 47l53 250h317l-57 -266q63 -16 124 -44q60 -28 105 -61l-80 -281h-268
v132q-17 8 -40 12q-21 4 -46 4q-62 0 -93 -27q-32 -27 -32 -90q0 -24 6 -45q6 -20 24 -40q19 -21 48 -41q25 -18 78 -50q71 -43 129 -89q53 -41 91 -94q36 -49 54 -110q19 -63 19 -135q0 -96 -26 -182q-26 -85 -78 -149t-132 -106q-79 -42 -188 -54l-53 -248h-318l55 262
q-91 18 -157 51q-65 33 -113 68z" />
    <glyph glyph-name="percent" unicode="%" horiz-adv-x="1890" 
d="M520 1343q155 0 244 -79q90 -80 90 -228q0 -57 -11 -108q-13 -61 -31 -106q-19 -49 -47 -92q-26 -40 -58 -66q-62 -48 -124 -67q-63 -19 -151 -19q-155 0 -244 79q-90 79 -90 228q0 53 12 108q14 66 30 106q19 49 47 92q25 39 59 66q62 48 124 67q63 19 150 19zM436 770
q14 0 28 6q11 5 23 25q14 26 26 61q13 39 24 81q9 36 16 83q6 40 6 68q0 57 -43 57q-14 0 -28 -6q-11 -5 -23 -25q-14 -26 -26 -61q-10 -29 -23 -81q-12 -46 -17 -83q-6 -40 -6 -68q0 -57 43 -57zM1417 -27q-152 0 -243 80t-91 228q0 53 12 108q14 66 30 106q19 49 47 92
q25 39 59 66q62 48 124 67q63 19 150 19q153 0 244 -80q90 -79 90 -227q0 -57 -11 -108q-13 -61 -31 -106q-19 -49 -47 -92q-27 -42 -58 -67q-60 -47 -124 -66q-66 -20 -151 -20zM641 0h-328l983 1317h328zM1501 547q-13 0 -27 -6q-13 -6 -24 -25q-14 -26 -26 -61
q-10 -29 -23 -81q-12 -46 -17 -83q-6 -41 -6 -68q0 -57 43 -57q15 0 28 6t24 25q11 21 25 61q14 39 24 81q9 36 16 83q6 40 6 67q0 58 -43 58z" />
    <glyph glyph-name="ampersand" unicode="&#x26;" horiz-adv-x="1325" 
d="M559 238q55 0 111 24l-207 348q-36 -33 -50 -84t-14 -90q0 -92 41 -145t119 -53zM645 1063q0 -34 8 -66q7 -30 23 -53l16 -26q59 34 88 75t29 105q0 49 -14 71q-16 25 -56 25q-46 0 -70 -36t-24 -95zM1161 532q-8 -30 -22 -61q-17 -38 -31 -63q-22 -40 -34 -58
q-19 -29 -32 -43l23 -39l135 -32l-49 -236h-328l-37 66q-25 -20 -59 -35q-37 -17 -81 -30q-37 -11 -92 -20q-51 -8 -95 -8q-99 0 -185 26q-83 25 -145 75q-61 50 -96 123q-35 75 -35 172q0 94 27 166q28 74 72 124q50 57 111 92q65 38 142 66q-22 52 -36 110q-13 55 -13 103
q0 87 28 168q26 76 83 134q54 56 139 89q84 33 199 33q97 0 169 -24q69 -23 120 -69q48 -43 72 -104q24 -60 24 -129q0 -141 -92 -233q-93 -93 -257 -145l129 -224q25 38 44 118q17 70 28 157h336l-51 -236z" />
    <glyph glyph-name="quotesingle" unicode="'" horiz-adv-x="536" 
d="M258 1427h393l-182 -620h-295z" />
    <glyph glyph-name="parenleft" unicode="(" horiz-adv-x="759" 
d="M459 -348q-121 61 -196 126q-77 66 -122 143q-43 74 -62 167q-18 90 -18 197q0 68 11 161q13 108 27 180q20 104 41 181q24 90 48 168q43 134 103 244q56 104 136 179q81 77 182 122q105 47 243 71l51 -241q-51 -20 -107 -56q-46 -30 -84 -80q-40 -53 -71 -122
q-34 -75 -68 -187q-25 -79 -44 -159q-20 -84 -39 -176q-14 -69 -27 -173q-10 -80 -10 -147q0 -138 35 -221q37 -87 108 -142z" />
    <glyph glyph-name="parenright" unicode=")" horiz-adv-x="759" 
d="M332 1591q118 -60 195 -126t122 -143q45 -76 63 -167q17 -85 17 -197q0 -77 -10 -161q-11 -95 -28 -180q-20 -104 -41 -181q-24 -90 -48 -168q-44 -136 -102 -243q-58 -106 -136 -180q-79 -74 -184 -121q-111 -49 -241 -72l-52 242q58 22 108 55q46 30 84 80
q39 51 71 123q31 70 67 186q23 72 44 157q20 84 39 176q17 81 28 173q10 80 10 149q0 135 -36 221q-37 88 -107 142z" />
    <glyph glyph-name="asterisk" unicode="*" horiz-adv-x="1034" 
d="M293 1368l242 -137l92 266l229 -61l-51 -273l280 -8l11 -235l-277 -35l82 -267l-223 -88l-119 252l-227 -159l-150 186l205 190l-223 170z" />
    <glyph glyph-name="plus" unicode="+" 
d="M397 557h-323l65 315h324l78 361h327l-77 -361h323l-65 -315h-324l-80 -369h-328z" />
    <glyph glyph-name="comma" unicode="," horiz-adv-x="559" 
d="M-45 -152q53 11 86 28q36 19 58 38q23 20 37 42q15 24 22 40q-65 23 -105 79q-41 58 -41 128q0 49 18 89t47 68q31 30 67 44q40 16 81 16q99 0 163 -66q65 -67 65 -186q0 -84 -30 -163q-30 -80 -89 -143q-62 -67 -151 -109q-90 -43 -214 -58z" />
    <glyph glyph-name="hyphen" unicode="-" horiz-adv-x="686" 
d="M98 774h557l-77 -373h-558z" />
    <glyph glyph-name="period" unicode="." horiz-adv-x="569" 
d="M14 197q0 45 18 86q19 43 47 71q30 30 71 48q40 18 88 18t88 -18t70 -48q28 -28 47 -71q18 -40 18 -86q0 -47 -18 -87q-19 -43 -47 -71q-30 -30 -70 -48t-88 -18t-88 18q-41 18 -71 48q-28 28 -47 71q-18 40 -18 87z" />
    <glyph glyph-name="slash" unicode="/" horiz-adv-x="860" 
d="M743 1581h310l-934 -1913h-307z" />
    <glyph glyph-name="zero" unicode="0" 
d="M508 240q30 0 51 14q23 15 39 53q12 26 26 79q17 64 33 130q25 104 38 158q23 98 35 163q19 103 25 143q9 65 9 101q0 102 -74 107q-27 0 -51 -16q-23 -15 -39 -52q-12 -26 -26 -79q-17 -64 -33 -130q-30 -122 -38 -157q-23 -98 -35 -163q-19 -100 -25 -144
q-9 -64 -9 -101q0 -104 74 -106zM510 -27q-236 0 -350 130q-115 132 -115 366q0 99 18 217q17 114 52 234q34 117 76 213q41 94 96 155q79 86 176 126q98 40 225 40q236 0 350 -130q115 -132 115 -366q0 -98 -18 -217q-17 -112 -52 -233q-34 -117 -76 -213t-96 -156
q-79 -86 -176 -126q-98 -40 -225 -40z" />
    <glyph glyph-name="one" unicode="1" 
d="M104 260l242 31l137 639l-198 -68l-76 228l500 335h286l-243 -1134l211 -31l-56 -260h-858z" />
    <glyph glyph-name="two" unicode="2" 
d="M922 0h-951l64 295q314 235 474 416q159 180 159 303q0 59 -36 86q-35 26 -93 26q-66 0 -129 -15q-62 -15 -117 -40l-88 234q79 62 193 106q113 43 251 43q100 0 184 -26t142 -74t92 -122q33 -72 33 -167q0 -108 -51 -210q-50 -101 -142 -197t-212 -181
q-127 -89 -261 -160h557z" />
    <glyph glyph-name="three" unicode="3" 
d="M88 383q60 -27 130 -51q67 -23 169 -23q60 0 100 14q41 14 62 35q23 23 31 52q8 30 8 61q0 46 -31 83q-30 36 -106 36h-150l61 276h134q88 0 129 42q41 43 41 108q0 52 -30 80q-29 28 -116 28q-74 0 -123 -14q-61 -17 -98 -31l-68 267q65 44 172 76q108 32 222 32
q96 0 177 -22q83 -23 143 -69q61 -47 95 -114q35 -68 35 -157q0 -143 -83 -237q-82 -92 -218 -130q103 -34 166 -112q61 -76 61 -183q0 -98 -33 -177q-34 -82 -103 -145t-171 -99t-239 -36q-85 0 -151 12q-75 14 -121 29q-51 17 -99 41q-42 21 -82 45z" />
    <glyph glyph-name="four" unicode="4" 
d="M61 563l465 864h389l-466 -868h145l90 363l387 67l-90 -430h127l-66 -297h-124l-56 -262h-381l56 262h-537z" />
    <glyph glyph-name="five" unicode="5" 
d="M1098 1110h-453l-67 -229q14 2 30 2q84 0 158 -24q73 -24 129 -71q55 -46 87 -117q32 -72 32 -167q0 -120 -32 -216q-32 -97 -99 -165q-77 -78 -192 -114t-251 -36q-73 0 -148 13q-73 13 -124 32q-57 22 -97 43q-42 23 -69 45l80 279q69 -39 144 -60q79 -22 159 -22
q55 0 95 10q43 11 67 33q25 23 35 55q10 31 10 72q0 148 -197 148q-60 0 -127 -13q-63 -12 -125 -30l234 849h788z" />
    <glyph glyph-name="six" unicode="6" 
d="M63 483q0 225 85 420q86 198 251 330q124 100 293 156q164 54 404 65v-276q-143 -17 -233 -43q-93 -27 -167 -80q-51 -37 -97 -88q-47 -51 -75 -123q39 33 96 57q55 23 138 23q72 0 136 -26q61 -25 106 -76t70 -122q26 -73 26 -163q0 -118 -36 -220t-104 -179
q-69 -78 -168 -121q-102 -44 -229 -44q-104 0 -194 30q-93 31 -157 92q-68 65 -106 159q-39 96 -39 229zM600 647q-49 0 -75 -16q-27 -17 -54 -39q-10 -43 -13 -92q-3 -45 -3 -88q0 -170 102 -170q43 0 69 23q28 25 44 61q15 34 23 84q7 43 7 94q0 78 -23 110q-24 33 -77 33
z" />
    <glyph glyph-name="seven" unicode="7" 
d="M125 37q40 197 124 373q82 171 183 310q103 141 208 242q100 96 200 168h-355l-75 -120h-269l88 417h994l-72 -333q-65 -54 -150 -151q-87 -99 -174 -238q-85 -136 -169 -325q-81 -182 -132 -407z" />
    <glyph glyph-name="eight" unicode="8" 
d="M27 373q0 139 83 219q82 79 226 100q-67 50 -113 132q-47 83 -47 177q0 106 37 189q38 85 105 142q69 59 166 90q99 32 218 32q108 0 196 -31q82 -29 141 -83q56 -51 86 -121q30 -69 30 -150q0 -70 -25 -123q-24 -50 -63 -88q-36 -34 -87 -60q-48 -24 -93 -36
q94 -60 139 -147t45 -185t-30 -182q-30 -85 -93 -146q-61 -59 -163 -95q-98 -34 -236 -34q-111 0 -211 28q-94 26 -165 79q-67 50 -107 126q-39 75 -39 167zM539 571q-69 -23 -101 -73q-32 -49 -32 -123q0 -61 33 -100t104 -39q78 0 119 50q40 49 40 115q0 30 -7 50
q-8 22 -21 35q-16 16 -36 29q-16 11 -50 30zM555 1024q0 -45 23 -76t57 -47l41 -18q66 23 90 67q25 47 25 115q0 49 -27 85t-78 36q-65 0 -98 -46t-33 -116z" />
    <glyph glyph-name="nine" unicode="9" 
d="M1128 944q0 -225 -85 -420q-86 -197 -250 -329q-124 -100 -293 -156q-168 -55 -404 -66v277q140 15 233 42q90 26 167 81q51 37 97 88q47 51 75 123q-41 -35 -96 -58q-53 -22 -138 -22q-74 0 -136 25t-107 76q-43 49 -69 122t-26 164q0 117 36 219t104 179q70 79 167 121
q102 44 230 44q104 0 194 -30q93 -31 157 -92q68 -65 106 -158q38 -94 38 -230zM592 780q47 0 75 17q27 17 54 39q10 43 13 92q3 45 3 88q0 170 -102 170q-42 0 -69 -24q-29 -26 -44 -60t-23 -84q-7 -43 -7 -94q0 -79 23 -111q24 -33 77 -33z" />
    <glyph glyph-name="colon" unicode=":" horiz-adv-x="548" 
d="M-20 197q0 48 17 86q19 43 47 71q30 30 71 48q40 18 88 18q47 0 88 -18q40 -18 70 -48t48 -71q17 -38 17 -86q0 -49 -17 -87q-18 -41 -48 -71t-70 -48q-41 -18 -88 -18t-88 18t-71 48q-28 28 -47 71q-17 38 -17 87zM82 737q0 48 17 86q20 45 47 72q30 30 71 48t88 18
t88 -18t71 -48q27 -27 47 -72q17 -38 17 -86q0 -49 -17 -87q-18 -41 -47 -70q-31 -31 -71 -49q-38 -17 -88 -17t-88 17q-40 18 -71 49q-29 29 -47 70q-17 38 -17 87z" />
    <glyph glyph-name="semicolon" unicode=";" horiz-adv-x="559" 
d="M-78 -152q53 11 86 28q39 20 59 38q21 18 36 42t22 40q-65 23 -105 79t-40 128q0 51 17 89q18 40 47 68q31 29 68 44q40 16 81 16q97 0 162 -66q65 -67 65 -186q0 -84 -30 -163q-30 -80 -89 -143q-63 -68 -150 -109q-90 -43 -214 -58zM92 737q0 45 18 86q20 45 47 72
q30 30 70 48q41 18 88 18t88 -18t71 -48q27 -27 47 -72q18 -40 18 -86q0 -47 -18 -87q-18 -41 -47 -70q-31 -31 -71 -49q-38 -17 -88 -17t-88 17t-70 49q-29 29 -47 70q-18 40 -18 87z" />
    <glyph glyph-name="less" unicode="&#x3c;" 
d="M174 645l41 191l655 399l144 -248l-455 -285l330 -313l-207 -231z" />
    <glyph glyph-name="equal" unicode="=" 
d="M213 1108h934l-68 -315h-934zM109 616h933l-67 -315h-934z" />
    <glyph glyph-name="greater" unicode="&#x3e;" 
d="M174 406l455 284l-330 314l207 231l508 -487l-41 -191l-656 -399z" />
    <glyph glyph-name="question" unicode="?" horiz-adv-x="952" 
d="M322 621q12 73 24 109q16 46 34 74t45 50q21 17 60 41q76 46 108 85q30 38 30 101q0 12 -2 36q-1 14 -12 32q-8 14 -25 23q-18 10 -47 10q-20 0 -39 -4l-60 -121h-264l68 311q77 39 172 63q92 23 221 23q180 0 290 -83q109 -82 109 -249q0 -88 -19 -149q-20 -65 -57 -112
q-38 -49 -90 -83q-51 -33 -120 -61q-54 -23 -88 -54q-33 -31 -46 -90l-26 -116h-293zM199 193q0 46 16 85t46 69q29 29 70 47t87 18t87 -18q40 -18 69 -47q32 -32 47 -69q16 -39 16 -85t-16 -85t-47 -70q-29 -29 -69 -47q-41 -18 -87 -18t-87 18t-70 47q-29 30 -46 70
q-16 39 -16 85z" />
    <glyph glyph-name="at" unicode="@" horiz-adv-x="1789" 
d="M831 215q24 0 42 14q7 5 34 27l94 418q-14 16 -22 24q-13 13 -39 13q-28 0 -48 -15t-36 -59q-6 -16 -23 -72q-15 -52 -26 -95q-16 -66 -21 -98q-8 -51 -8 -79q0 -45 15 -62q15 -16 38 -16zM948 147q-24 -37 -56 -74q-26 -30 -58 -51q-30 -19 -68 -30q-36 -10 -84 -10
q-107 0 -172 65q-66 66 -66 217q0 72 12 152q13 85 32 155q20 73 55 143q35 69 75 111q53 58 115 76q65 19 119 19q72 0 125 -28q50 -26 88 -77l59 82h248l-131 -565q-9 -45 -11 -60q-3 -23 -3 -41q0 -22 15 -37q16 -16 44 -16q32 0 69 23q35 22 64 75q28 51 48 140
q20 88 20 213q0 142 -36 241q-35 98 -102 158q-64 58 -162 86q-95 27 -216 27q-151 0 -274 -67t-208 -180q-88 -117 -133 -263q-47 -152 -47 -314q0 -165 47 -265q46 -98 123 -151q78 -53 172 -68q96 -15 195 -15q109 0 190 17q89 19 162 46l66 -182q-85 -43 -191 -72
q-103 -28 -256 -28q-155 0 -291 35q-138 36 -247 122q-109 87 -174 228q-64 140 -64 354q0 207 67 393q66 183 189 318t295 213q170 77 383 77q181 0 323 -43q145 -44 244 -131q102 -90 154 -222q53 -135 53 -314q0 -180 -45 -304q-44 -123 -116 -202q-71 -79 -157 -113
q-88 -35 -174 -35q-128 0 -203 42q-76 43 -106 130z" />
    <glyph glyph-name="A" unicode="A" horiz-adv-x="1361" 
d="M752 373h-320l-47 -105l88 -32l-51 -236h-500l51 236l90 32l574 1159h461l78 -1159l88 -32l-52 -236h-596l52 236l88 32zM549 621h190l-4 108q-5 77 -6 163q-2 103 2 183h-4q-25 -97 -58 -182q-35 -90 -69 -162z" />
    <glyph glyph-name="B" unicode="B" horiz-adv-x="1206" 
d="M555 266q61 0 88 7q28 7 49 36q12 18 20 38q8 22 16 50q5 16 11 53q4 23 4 44q0 44 -24 73t-88 29h-58l-69 -330h51zM680 862q47 0 72 11q27 12 41 32q22 32 34 84q13 55 13 88q0 39 -21 62q-21 22 -59 22h-68l-63 -299h51zM829 1427q84 0 154 -19q74 -20 125 -58
q54 -40 84 -101q31 -64 31 -143q0 -152 -80 -252q-79 -98 -225 -121q90 -23 157 -94q66 -69 66 -176q0 -90 -27 -180q-27 -89 -80 -150q-62 -69 -167 -101q-107 -32 -271 -32h-674l49 236l119 32l189 891l-105 33l51 235h604z" />
    <glyph glyph-name="C" unicode="C" horiz-adv-x="1114" 
d="M588 236q23 0 50 3q29 3 46 13l88 168h279l-78 -346q-43 -27 -99 -48q-49 -18 -108 -31t-109 -17q-58 -5 -96 -5q-99 0 -190 24q-95 25 -162 79q-71 57 -112 145q-42 90 -42 221q0 100 18 218q19 127 50 233q34 117 82 216q50 104 114 169q91 95 209 136q116 40 275 40
q120 0 227 -35q104 -34 176 -94l-71 -311h-273v151q-33 27 -80 27q-39 0 -74 -17q-40 -19 -73 -83q-23 -42 -50 -122q-35 -105 -53 -178q-23 -92 -40 -196q-17 -102 -17 -174q0 -90 24 -138t89 -48z" />
    <glyph glyph-name="D" unicode="D" horiz-adv-x="1286" 
d="M-78 0l49 236l119 32l189 891l-105 33l51 235h602q453 0 453 -479q0 -104 -18 -223q-18 -116 -53 -230q-36 -115 -84 -207q-51 -96 -113 -153q-152 -135 -453 -135h-637zM692 1161l-190 -893h84q52 0 81 13q27 12 50 53q12 18 27 65q12 37 33 109q16 53 34 132
q19 80 29 139q14 82 20 128q8 64 8 101q0 93 -26 122q-28 31 -76 31h-74z" />
    <glyph glyph-name="E" unicode="E" horiz-adv-x="1097" 
d="M911 516h-204l-17 84h-117l-71 -334h196l86 172h256l-92 -438h-1026l49 236l119 32l189 891l-105 33l51 235h1004l-88 -409h-254l-6 143h-189l-63 -303h119l49 82h204z" />
    <glyph glyph-name="F" unicode="F" horiz-adv-x="1081" 
d="M649 236l-49 -236h-678l49 236l119 32l189 891l-105 33l51 235h1004l-92 -423h-252l-4 157h-189l-71 -346h118l47 78h205l-90 -424h-205l-16 80h-117l-59 -281z" />
    <glyph glyph-name="G" unicode="G" horiz-adv-x="1200" 
d="M55 442q0 100 18 218q19 127 50 233q34 117 82 216q50 104 114 169q91 95 209 136q116 40 275 40q120 0 239 -35q118 -35 189 -94l-72 -311h-268v155q-18 12 -37 17q-21 6 -47 6q-49 0 -92 -17q-46 -19 -80 -83q-23 -42 -50 -122q-35 -105 -53 -178q-23 -92 -40 -196
q-17 -102 -17 -174q0 -90 33 -122q34 -32 84 -32q30 0 50 11q5 3 15.5 8.5t14.5 7.5l51 248l-98 30l57 254h496l-174 -827h-252l-33 106q-36 -58 -115 -96q-77 -37 -162 -37q-183 0 -285 121q-102 122 -102 348z" />
    <glyph glyph-name="H" unicode="H" horiz-adv-x="1427" 
d="M692 236l119 32l70 328h-308l-69 -328l102 -32l-49 -236h-635l49 236l119 32l189 891l-105 33l51 235h635l-51 -235l-117 -33l-63 -297h307l63 297l-104 33l51 235h635l-51 -235l-117 -33l-188 -891l102 -32l-49 -236h-635z" />
    <glyph glyph-name="I" unicode="I" horiz-adv-x="706" 
d="M-29 236l119 32l189 891l-105 33l51 235h635l-51 -235l-117 -33l-188 -891l102 -32l-49 -236h-635z" />
    <glyph glyph-name="J" unicode="J" horiz-adv-x="706" 
d="M467 96q-27 -121 -77 -205q-49 -82 -119 -135q-71 -54 -154 -89q-84 -35 -185 -66l-73 223q43 22 76 45q34 24 55 55q23 34 38 81q13 41 31 122l220 1032l-105 33l51 235h635l-51 -235l-117 -33z" />
    <glyph glyph-name="K" unicode="K" horiz-adv-x="1376" 
d="M-29 236l119 32l189 891l-105 33l51 235h635l-51 -235l-117 -33l-188 -891l102 -32l-49 -236h-635zM1276 238l-49 -238h-436l-183 709l381 450l-82 33l47 235h519l-48 -235l-90 -33l-325 -375l151 -516z" />
    <glyph glyph-name="L" unicode="L" horiz-adv-x="1099" 
d="M502 266h186l103 199h256l-99 -465h-1026l49 236l119 32l189 891l-105 33l51 235h635l-51 -235l-117 -33z" />
    <glyph glyph-name="M" unicode="M" horiz-adv-x="1689" 
d="M385 268l102 -32l-49 -236h-516l49 236l119 32l189 891l-105 33l51 235h629l21 -372q3 -57 5 -176q2 -90 -3 -156h4q17 61 45 147q29 87 75 185l177 372h665l-51 -235l-117 -33l-188 -891l102 -32l-49 -236h-635l49 236l119 32l80 383q18 80 47 200q23 97 47 169h-4
q-25 -63 -73 -187q-38 -99 -85 -184l-200 -370h-320l-35 370q-10 117 -6 208q4 77 2 163h-4q-2 -13 -8.5 -66.5t-11.5 -90.5q-10 -84 -37 -214z" />
    <glyph glyph-name="N" unicode="N" horiz-adv-x="1357" 
d="M946 1192l49 235h516l-49 -235l-119 -33l-245 -1159h-348l-179 539q-33 101 -52 183q-17 74 -19 157h-4q-4 -37 -9 -72q-4 -31 -9 -74q-4 -34 -14 -86q-3 -15 -10.5 -51t-11.5 -57l-57 -271l102 -32l-49 -236h-516l49 236l119 32l189 891l-105 33l51 235h516l144 -501
q25 -85 40 -166q12 -65 17 -146h4q5 67 17 146q12 83 32 164l54 235z" />
    <glyph glyph-name="O" unicode="O" horiz-adv-x="1236" 
d="M561 -27q-245 0 -375 130q-131 131 -131 386q0 109 18 226q19 124 50 225q35 114 79 201q47 92 103 151q78 81 184 122q104 40 240 40q246 0 374 -125t128 -375q0 -99 -17 -221q-17 -121 -49 -232q-34 -116 -82 -213q-52 -104 -114 -163q-157 -152 -408 -152zM561 236
q28 0 52 15q23 14 40 42q20 30 38 83q21 61 39 128q18 66 37 152q16 72 31 157q14 78 21 139q8 67 8 103q0 78 -28 107q-29 30 -80 30q-58 0 -96 -53q-19 -25 -38 -81q-21 -62 -38 -129q-16 -64 -36 -154q-16 -72 -31 -157q-11 -60 -20 -139q-7 -59 -7 -100q0 -79 29 -111
t79 -32z" />
    <glyph glyph-name="P" unicode="P" horiz-adv-x="1173" 
d="M643 750q54 0 79 11q29 13 50 34q12 15 24 46q11 30 19 68q10 50 13 75q6 50 6 67q0 110 -103 110h-39l-88 -411h39zM764 1427q110 0 193 -20q88 -21 149 -66q61 -44 95 -116q34 -71 34 -176q0 -69 -11 -129q-12 -66 -33 -126q-21 -59 -53 -113q-30 -51 -73 -87
q-68 -59 -167 -85t-243 -26h-106l-45 -215l102 -32l-49 -236h-635l49 236l119 32l189 891l-105 33l51 235h539z" />
    <glyph glyph-name="Q" unicode="Q" horiz-adv-x="1236" 
d="M1231 954q0 -67 -8 -155q-7 -72 -25 -166q-17 -82 -47 -173q-29 -86 -69 -159q-42 -76 -92 -132t-116 -95l314 -56l-133 -327l-699 309q-156 69 -228 188q-73 120 -73 301q0 109 18 226q19 124 50 225q35 114 79 201q47 92 103 151q78 81 184 122q104 40 240 40
q246 0 374 -125t128 -375zM561 236q28 0 52 15q23 14 40 42q20 30 38 83q21 61 39 128q18 66 37 152q16 72 31 157q14 78 21 139q8 67 8 103q0 78 -28 107q-29 30 -80 30q-58 0 -96 -53q-19 -25 -38 -81q-21 -62 -38 -129q-16 -64 -36 -154q-16 -72 -31 -157
q-11 -60 -20 -139q-7 -59 -7 -100q0 -79 29 -111t79 -32z" />
    <glyph glyph-name="R" unicode="R" horiz-adv-x="1316" 
d="M678 799q35 0 65 8q28 7 52 39q9 14 23 48q11 28 19 62q4 18 11 64q4 27 4 49q0 51 -24 72q-23 20 -64 20h-72l-76 -362h62zM1217 236l-50 -236h-448l-51 412q-10 83 -27 110t-53 27h-25l-59 -281l102 -32l-49 -236h-635l49 236l119 32l189 891l-105 33l51 235h576
q250 0 363 -94q114 -95 114 -262q0 -97 -27 -169q-29 -76 -72 -124q-46 -51 -107 -81q-60 -30 -128 -36v-4q71 -29 106 -77q32 -44 48 -150l22 -164z" />
    <glyph glyph-name="S" unicode="S" horiz-adv-x="1056" 
d="M45 420h270v-158q19 -9 56 -21q26 -8 65 -8q66 0 101 32q34 31 34 95q0 37 -10 60q-11 25 -32 46q-23 23 -56 43q-50 30 -84 50q-118 66 -181 162t-63 242q0 128 41 222q39 90 112 152q70 59 168 88q99 29 212 29q124 0 238 -34q119 -36 196 -95l-80 -281h-268v132
q-17 8 -40 12q-21 4 -46 4q-60 0 -94 -32q-33 -32 -33 -85q0 -22 6 -43q5 -17 22 -41q14 -19 44 -43q27 -22 73 -49q71 -43 129 -89q53 -41 91 -94q37 -51 55 -110q18 -60 18 -135q0 -107 -32 -200q-31 -89 -96 -156q-66 -67 -163 -104q-100 -38 -233 -38q-184 0 -298 43
q-112 42 -187 97z" />
    <glyph glyph-name="T" unicode="T" horiz-adv-x="1239" 
d="M874 236l-49 -236h-635l50 236l116 32l189 893h-80l-80 -219h-264l104 485h1166l-103 -485h-264l12 219h-75l-189 -893z" />
    <glyph glyph-name="U" unicode="U" horiz-adv-x="1329" 
d="M750 1427l-213 -1007q-7 -33 -7 -49q0 -47 27 -64q26 -16 64 -16q29 0 58 8q25 7 48 20l176 840l-104 33l51 235h524l-248 -1155l103 -36l-49 -236h-385l-29 121q-48 -42 -72 -61q-37 -29 -73 -47q-35 -17 -86 -29q-49 -11 -107 -11q-141 0 -227 83t-86 255q0 86 20 172
l144 676l-105 33l51 235h525z" />
    <glyph glyph-name="V" unicode="V" horiz-adv-x="1318" 
d="M918 1192l51 235h504l-52 -235l-90 -33l-565 -1159h-440l-68 1159l-88 33l51 235h594l-51 -235l-88 -33l18 -461q4 -64 2 -143q-2 -71 -16 -162h4q25 97 48 159q21 58 59 142l215 465z" />
    <glyph glyph-name="W" unicode="W" horiz-adv-x="1869" 
d="M969 444q0 105 1 159q2 105 5 157h-4q-20 -89 -37 -151q-22 -79 -51 -167l-156 -442h-442l-23 1159l-88 33l51 235h596l-51 -235l-88 -33l2 -399q0 -100 -9 -176q-15 -131 -18 -160h2q2 9 9.5 39t10.5 46q11 48 19 79q2 9 23 81q8 28 29 91l223 667h377l-17 -665
q-1 -68 -7 -172q-5 -81 -15 -166h2q10 54 15 79q3 15 17 78q9 43 22 83q15 49 34 96l155 399l-88 33l52 235h503l-51 -235l-90 -33l-477 -1159h-432z" />
    <glyph glyph-name="X" unicode="X" horiz-adv-x="1339" 
d="M459 764l-180 395l-84 33l51 235h624l-43 -235l-84 -33l76 -196l142 196l-74 33l51 235h532l-51 -235l-90 -33l-377 -473l189 -418l98 -32l-51 -236h-643l51 236l96 32l-96 238l-156 -238l88 -32l-51 -236h-553l47 236l105 32z" />
    <glyph glyph-name="Y" unicode="Y" horiz-adv-x="1255" 
d="M850 1192l51 235h508l-51 -235l-88 -33l-422 -637l-53 -254l102 -32l-49 -236h-635l49 236l119 32l53 254l-176 637l-84 33l51 235h584l-49 -235l-84 -33l29 -129q12 -62 13 -66q7 -44 8 -56q2 -18 4 -52q1 -18 -1 -57q3 11 16 53q5 16 21 50q7 15 31 55q21 35 45 71
l86 131z" />
    <glyph glyph-name="Z" unicode="Z" horiz-adv-x="1056" 
d="M-20 272l673 889h-161l-70 -143h-272l88 409h962l-57 -266l-676 -895h176l84 172h272l-94 -438h-985z" />
    <glyph glyph-name="bracketleft" unicode="[" horiz-adv-x="739" 
d="M342 1573h561l-57 -256l-180 -21l-285 -1339l172 -20l-53 -256h-561z" />
    <glyph glyph-name="backslash" unicode="\" horiz-adv-x="831" 
d="M668 -332h-293l-119 1913h293z" />
    <glyph glyph-name="bracketright" unicode="]" horiz-adv-x="739" 
d="M428 -319h-561l57 256l180 20l285 1339l-172 21l53 256h561z" />
    <glyph glyph-name="asciicircum" unicode="^" horiz-adv-x="1048" 
d="M551 1427h299l190 -581h-356l-47 225l-133 -225h-377z" />
    <glyph glyph-name="underscore" unicode="_" horiz-adv-x="786" 
d="M-123 -88h795l-64 -295h-794z" />
    <glyph glyph-name="grave" unicode="`" horiz-adv-x="1116" 
d="M369 1327l182 281l360 -289l-129 -182z" />
    <glyph glyph-name="a" unicode="a" horiz-adv-x="1107" 
d="M604 829q-30 0 -44 -10q-16 -11 -32 -45q-14 -32 -32 -94q-18 -61 -29 -119q-16 -84 -21 -120q-8 -62 -8 -97q0 -42 12 -60t37 -18q19 0 34 9t32 26l109 498q-5 6 -22 20q-13 10 -36 10zM555 121q-44 -75 -116 -112q-71 -36 -148 -36q-106 0 -178 80q-72 79 -72 250
q0 81 12 176t36 186q25 95 55 171q32 80 69 129q55 71 128 103t144 32q81 0 143 -28q61 -27 107 -93l64 94h309l-147 -700q-6 -22 -7 -34q-2 -24 -2 -34q0 -17 10 -29q9 -10 37 -10h33l-43 -241q-68 -27 -122 -39q-57 -13 -99 -13q-92 0 -147 43q-55 44 -66 105z" />
    <glyph glyph-name="b" unicode="b" horiz-adv-x="1122" 
d="M510 248q30 0 47 11q19 13 35 46q15 29 30 87q12 48 28 123q15 73 23 127q9 63 9 101q0 43 -12 58q-11 14 -39 14q-37 0 -72 -35l-106 -501q7 -11 21 -21q13 -10 36 -10zM600 983q44 63 108 90t130 27q105 0 174 -80t69 -250q0 -82 -15 -177q-14 -90 -41 -186
q-27 -98 -59 -171q-37 -85 -71 -130q-55 -72 -126 -102q-73 -31 -153 -31q-77 0 -139 37q-63 38 -102 103l-58 -113h-317l260 1229l-76 28l54 248h473z" />
    <glyph glyph-name="c" unicode="c" horiz-adv-x="888" 
d="M41 379q0 76 13 153q14 85 37 157q27 87 57 145q35 68 77 116q67 78 161 114q93 36 210 36q113 0 199 -28q80 -26 135 -75l-62 -278h-221v129q-11 6 -16 10t-23 4q-29 0 -55 -26q-27 -27 -45 -93q-2 -6 -9.5 -31t-12.5 -44q-10 -37 -25 -104q-17 -75 -22 -106
q-9 -52 -9 -87q0 -66 37 -90q39 -25 94 -25q44 0 86 8q35 7 80 25l72 -223q-53 -39 -132 -66t-194 -27q-86 0 -169 25q-77 23 -137 74q-57 48 -92 126q-34 75 -34 181z" />
    <glyph glyph-name="d" unicode="d" horiz-adv-x="1107" 
d="M604 829q-30 0 -44 -10q-16 -11 -32 -45q-14 -32 -32 -94q-18 -61 -29 -119q-16 -84 -21 -120q-8 -62 -8 -97q0 -42 12 -60t37 -18q19 0 34 9t32 26l109 498q-5 6 -22 20q-13 10 -36 10zM750 1229l-76 28l53 248h473l-239 -1132q-6 -22 -7 -34q-2 -24 -2 -34
q0 -17 10 -29q9 -10 37 -10h33l-43 -241q-68 -27 -122 -39q-57 -13 -99 -13q-92 0 -147 43q-55 44 -66 105q-44 -75 -116 -112q-71 -36 -148 -36q-106 0 -178 80q-72 79 -72 250q0 81 12 176t36 186q25 95 55 171q32 80 69 129q55 71 128 103t144 32q65 0 123 -23
q57 -23 94 -71z" />
    <glyph glyph-name="e" unicode="e" horiz-adv-x="995" 
d="M41 395q0 97 17 178q19 91 47 162q30 75 69 136q42 65 82 102q79 78 172 102q95 25 203 25q81 0 148 -23q68 -23 115 -63t75 -100q26 -56 26 -128q0 -108 -38 -179t-109 -111q-76 -43 -178 -60q-106 -18 -242 -24v-19q0 -71 29 -103t112 -32q54 0 111 15q54 14 137 55
l43 -240q-58 -46 -164 -80q-108 -35 -225 -35q-207 0 -319 104q-111 103 -111 318zM520 836q-22 -32 -42 -91q-18 -53 -29 -139q122 7 174 53q51 45 51 144q0 84 -64 84q-51 0 -90 -51z" />
    <glyph glyph-name="f" unicode="f" horiz-adv-x="671" 
d="M866 1243q-38 18 -59 22q-27 5 -64 5q-60 0 -87 -29q-28 -29 -38 -80l-18 -88h158l-56 -258h-151l-164 -858q-17 -86 -59 -147q-46 -66 -102 -108q-61 -45 -125 -70q-68 -26 -130 -38l-100 181q61 40 88 87q26 45 43 130l160 823h-92l55 258h86l16 82q22 107 62 180
q39 72 94 115q53 41 126 60q71 18 157 18q85 0 151 -18t131 -52z" />
    <glyph glyph-name="g" unicode="g" horiz-adv-x="1083" 
d="M610 827q-30 0 -47 -10q-19 -11 -35 -45q-13 -25 -29 -84q-18 -65 -29 -117q-14 -62 -21 -118q-9 -68 -9 -93q0 -42 12 -60q11 -17 37 -17q19 0 37 9q20 10 35 25l107 480q-5 7 -22 20q-13 10 -36 10zM520 98q-37 -45 -94 -61q-59 -17 -125 -17q-54 0 -102 20
q-49 21 -82 59q-36 42 -55 102t-19 145q0 74 12 162q11 84 35 172q22 83 54 160q31 74 69 125q55 72 131 103q78 32 148 32q80 0 139 -28q58 -27 110 -93l64 94h309l-231 -1096q-40 -191 -154 -285q-113 -93 -328 -93q-116 0 -230 27q-109 26 -194 69l89 254q52 -27 117 -45
q68 -19 134 -19q42 0 78 9q30 8 51 24q20 16 32 40q13 26 20 54z" />
    <glyph glyph-name="h" unicode="h" horiz-adv-x="1128" 
d="M184 1257l54 248h473l-115 -540q47 64 106 99q60 36 152 36q110 0 172 -67q61 -65 61 -185q0 -32 -4 -56q-1 -3 -4.5 -25.5t-5.5 -35.5l-76 -358q-5 -17 -6 -34q-2 -24 -2 -34q0 -19 9 -29t38 -10h33l-43 -241q-60 -27 -117 -39q-62 -13 -104 -13q-60 0 -105 17
q-42 16 -70 44t-41 63q-14 37 -14 75q0 63 13 123l86 401q2 14 3 20t1 17q0 53 -43 53q-51 0 -84 -32l-160 -754h-391l260 1229z" />
    <glyph glyph-name="i" unicode="i" horiz-adv-x="610" 
d="M463 373q-5 -17 -6 -34q-2 -24 -2 -34q0 -19 9 -29t38 -10h33l-43 -241q-60 -27 -117 -39q-62 -13 -105 -13q-59 0 -104 17q-43 16 -71 44t-41 63t-13 75q0 68 12 123l105 489l-76 29l55 260h473zM457 1135q-46 0 -84 16q-41 17 -68 46q-29 30 -45 69q-16 38 -16 82
t16 82q16 37 45 68q27 29 68 46q40 17 84 17q42 0 82 -17q39 -16 67 -46q29 -31 45 -68q17 -40 17 -82t-17 -82q-17 -39 -45 -69t-67 -46q-38 -16 -82 -16z" />
    <glyph glyph-name="j" unicode="j" horiz-adv-x="557" 
d="M74 813l55 260h473l-229 -1081q-22 -103 -62 -175q-41 -74 -98 -118q-64 -50 -138 -79q-77 -30 -181 -58l-58 202q34 16 61 40q20 17 38 50q16 28 26 65q12 43 23 91l166 774zM449 1135q-46 0 -84 16q-41 17 -68 46q-29 30 -45 69q-16 38 -16 82t16 82q16 37 45 68
q27 29 68 46q40 17 84 17q41 0 81 -17q41 -17 68 -46q29 -31 45 -68q16 -38 16 -82t-16 -82q-17 -39 -45 -69q-27 -29 -68 -46q-38 -16 -81 -16z" />
    <glyph glyph-name="k" unicode="k" horiz-adv-x="1146" 
d="M391 0h-391l260 1229l-76 28l54 248h473zM1239 1073l-340 -483l62 -262q7 -37 22 -49q16 -13 51 -13h27v-229q-44 -27 -104 -46q-57 -18 -119 -18q-48 0 -89 12q-42 12 -71 40q-32 30 -53 77q-22 48 -37 127l-62 342l336 502h377z" />
    <glyph glyph-name="l" unicode="l" horiz-adv-x="589" 
d="M442 373q-5 -17 -6 -34q-2 -24 -2 -34q0 -19 9 -29t38 -10h33l-43 -241q-60 -27 -117 -39q-62 -13 -104 -13q-60 0 -105 17q-42 16 -70 44t-41 63q-14 37 -14 75q0 63 13 123l198 934l-75 28l53 248h473z" />
    <glyph glyph-name="m" unicode="m" horiz-adv-x="1626" 
d="M1495 373q-5 -17 -6 -34q-2 -24 -2 -34q0 -19 9 -29t38 -10h33l-43 -241q-60 -27 -117 -39q-62 -13 -104 -13q-60 0 -105 17q-44 17 -71 44q-28 28 -41 63t-13 75q0 68 12 123l86 412q1 3 2.5 8t1.5 6q1 4 1 12q0 29 -15 41t-31 12q-39 0 -67 -28l-160 -758h-393l149 707
q1 4 2.5 9.5t1.5 7.5q1 5 1 13q0 29 -15 39q-14 10 -31 10q-21 0 -35 -8q-11 -6 -30 -20l-162 -758h-391l166 784l-76 29l55 260h396v-129q52 65 133 111q80 45 176 45q75 0 133 -35t80 -117q50 59 126 106q74 46 173 46q103 0 164 -64q59 -62 59 -180q0 -51 -12 -108z" />
    <glyph glyph-name="n" unicode="n" horiz-adv-x="1128" 
d="M90 813l55 260h396v-129q133 156 313 156q110 0 172 -67q61 -65 61 -185q0 -32 -4 -56q-1 -3 -4.5 -25.5t-5.5 -35.5l-76 -358q-5 -17 -6 -34q-2 -24 -2 -34q0 -19 9 -29t38 -10h33l-43 -241q-60 -27 -117 -39q-62 -13 -104 -13q-60 0 -105 17q-42 16 -70 44t-41 63
q-14 37 -14 75q0 63 13 123l86 401q2 14 3 20t1 17q0 53 -43 53q-51 0 -84 -32l-160 -754h-391l166 784z" />
    <glyph glyph-name="o" unicode="o" horiz-adv-x="1062" 
d="M1022 684q0 -91 -17 -180q-18 -97 -52 -180q-35 -87 -81 -158q-47 -72 -104 -113q-60 -43 -132 -61q-74 -19 -163 -19q-203 0 -318 106q-114 105 -114 312q0 91 17 179q19 98 52 180q38 93 79 156q48 73 106 112q59 42 132 62q72 20 163 20q204 0 318 -105t114 -311z
M653 788q0 45 -13 59q-14 15 -42 15q-18 0 -33 -6q-14 -5 -26 -27q-12 -23 -22 -52q-8 -23 -28 -88q-9 -29 -27 -108q-6 -24 -25 -114q-7 -31 -18 -101q-7 -43 -7 -71q0 -86 53 -86q18 0 33 6q14 5 26 27q13 23 35 94q20 66 43 162q22 92 36 170q15 83 15 120z" />
    <glyph glyph-name="p" unicode="p" horiz-adv-x="1122" 
d="M508 240q30 0 47 11q19 13 35 46q15 29 30 87q12 48 28 123q15 73 23 127q9 63 9 101q0 43 -12 58q-11 14 -39 14q-37 0 -72 -35l-106 -502q6 -8 21 -20q13 -10 36 -10zM444 -147l-51 -240h-559l51 240l88 18l193 913l-76 29l55 260h396v-127q46 74 116 113q73 41 172 41
q105 0 179 -81q73 -80 73 -249q0 -82 -15 -177q-14 -90 -41 -186q-27 -98 -59 -171q-37 -85 -71 -130q-55 -72 -126 -102q-73 -31 -153 -31q-74 0 -127 31q-49 29 -77 100l-50 -233z" />
    <glyph glyph-name="q" unicode="q" horiz-adv-x="1077" 
d="M604 829q-30 0 -44 -10q-16 -11 -32 -45q-14 -32 -32 -94q-18 -61 -29 -119q-16 -84 -21 -120q-8 -62 -8 -97q0 -42 12 -60t37 -18q19 0 34 9t32 26l109 498q-5 6 -22 20q-13 10 -36 10zM506 80q-40 -48 -88 -77q-50 -30 -127 -30q-106 0 -178 80q-72 79 -72 250
q0 81 12 176t36 186q25 95 55 171q32 80 69 129q55 71 128 103t144 32q81 0 143 -28q61 -27 107 -93l64 94h309l-258 -1202l82 -18l-51 -240h-559l51 240l88 18z" />
    <glyph glyph-name="r" unicode="r" horiz-adv-x="813" 
d="M541 856q37 110 129 172t204 62l-59 -396q-71 4 -159 -1q-81 -5 -126 -25l-139 -668h-391l166 784l-76 29l55 260h396v-217z" />
    <glyph glyph-name="s" unicode="s" horiz-adv-x="894" 
d="M20 317h273l2 -98q16 -9 45 -14q24 -4 43 -4q82 0 82 71q0 45 -29 68q-30 24 -106 53q-71 27 -119 59q-50 34 -75 70q-27 39 -39 87q-11 44 -11 110q0 98 35 171t94 119q58 45 139 68t172 23q134 0 228 -27q92 -26 161 -74l-49 -231h-252v88q-18 8 -35 12t-44 4
q-41 0 -67 -18t-26 -55q0 -19 3 -32q3 -14 17 -26q12 -11 42 -25q33 -16 78 -32q76 -28 124 -57q50 -30 80 -68q31 -39 44 -82q14 -47 14 -100q0 -199 -120 -301q-121 -103 -347 -103q-146 0 -241 29q-90 28 -156 70z" />
    <glyph glyph-name="t" unicode="t" horiz-adv-x="731" 
d="M133 1073h90l51 238l406 63l-64 -301h166l-53 -258h-168l-100 -465q-1 -7 -3 -17q-1 -5 -1 -14q0 -51 59 -51q24 0 44 1t58 3l-30 -245q-61 -24 -121 -39q-61 -15 -143 -15q-55 0 -109 13q-46 11 -86 40q-35 25 -57 72q-21 45 -21 113q0 14 2 48q1 19 10 60l105 496h-88z
" />
    <glyph glyph-name="u" unicode="u" horiz-adv-x="1122" 
d="M70 813l55 260h473l-152 -713q-2 -10 -3 -18q-1 -5 -1 -16q0 -56 45 -56q39 0 80 29l164 774h391l-147 -700q-5 -17 -6 -34q-2 -24 -2 -34q0 -19 9 -29t38 -10h33l-43 -241q-64 -27 -120 -40q-54 -12 -102 -12q-91 0 -144 41q-52 40 -69 99q-61 -70 -133 -106
q-68 -34 -157 -34q-112 0 -175 69t-63 194q0 65 14 124l90 424z" />
    <glyph glyph-name="v" unicode="v" horiz-adv-x="987" 
d="M1100 1073l-547 -1073h-385l-53 780l-74 33l55 260h381l10 -422q0 -60 -1 -86q-2 -48 -4 -73q-2 -23 -6 -71q-5 -56 -7 -77h2q16 80 36 157q19 74 54 148l195 424h344z" />
    <glyph glyph-name="w" unicode="w" horiz-adv-x="1527" 
d="M539 0h-367l-57 778l-74 35l55 260h375l12 -389q4 -78 0 -145q-6 -84 -14 -150h4q15 83 33 147q15 53 49 142l154 395h340l4 -395q2 -78 -4 -141q-2 -24 -7.5 -73.5t-7.5 -74.5h4q2 13 16 79q10 48 15 71t21 69q14 40 28 72l180 393h342l-505 -1073h-367l-12 305
q-3 51 -5 154q-1 50 1 141h-4q-15 -70 -35 -144q-18 -68 -51 -149z" />
    <glyph glyph-name="x" unicode="x" horiz-adv-x="1069" 
d="M442 276h-4l-176 -276h-364l411 563l-90 221l-82 29l53 260h347l88 -272h4l168 272h354l-401 -559l79 -203q9 -19 26 -33q15 -12 50 -12h37v-227q-46 -30 -102 -47q-63 -19 -117 -19q-101 0 -155 49q-53 48 -83 134z" />
    <glyph glyph-name="y" unicode="y" horiz-adv-x="987" 
d="M586 0q-50 -102 -105 -174q-56 -73 -120 -119q-67 -48 -138 -73t-157 -37l-129 309q63 4 120 9q59 5 105 18q47 14 82 38q34 24 57 68h-135l-51 741l-74 33l55 260h381l10 -438q0 -60 -1 -86q-2 -50 -4 -74q-2 -23 -6 -71q-4 -52 -7 -76h2q15 76 36 156q20 76 54 149
l195 440h344z" />
    <glyph glyph-name="z" unicode="z" horiz-adv-x="962" 
d="M18 254l478 573h-117l-68 -112h-233l76 358h829l-47 -264l-477 -563h133l49 114h254l-74 -360h-852z" />
    <glyph glyph-name="braceleft" unicode="{" horiz-adv-x="761" 
d="M381 -319q-69 0 -129 15q-62 15 -104 49q-45 36 -68 86q-25 55 -25 124q0 39 13 104l67 324q6 27 6 47q0 47 -27 65q-26 17 -83 17l49 231q77 0 108 20t43 79l86 397q21 101 57 165t84 102q49 39 107 53q56 14 127 14h234l-60 -268h-55q-60 0 -81 -21t-36 -84l-69 -326
q-27 -121 -100 -182q-70 -58 -169 -63v-4q70 -7 120 -57q48 -48 48 -119q0 -19 -3 -40q-6 -41 -7 -47l-63 -309q-7 -33 -7 -45q0 -32 19 -46q17 -13 61 -13h56l-58 -268h-141z" />
    <glyph glyph-name="bar" unicode="|" horiz-adv-x="530" 
d="M346 1581h285l-408 -1913h-284z" />
    <glyph glyph-name="braceright" unicode="}" horiz-adv-x="761" 
d="M410 1573q69 0 129 -15q58 -15 103 -50q47 -37 69 -86q24 -52 24 -124q0 -47 -12 -104l-68 -324q-6 -29 -6 -47q0 -45 28 -64q27 -18 83 -18l-49 -231q-78 0 -109 -20t-43 -78l-86 -398q-23 -100 -57 -165q-34 -64 -83 -102q-47 -37 -108 -52q-56 -14 -127 -14h-233
l59 268h56q60 0 80 20q21 21 36 84l70 326q27 122 99 182q71 59 169 64v4q-71 7 -120 56q-48 48 -48 120q0 19 3 40q5 36 7 46l64 309q6 27 6 45q0 33 -18 46q-19 14 -62 14h-55l57 268h142z" />
    <glyph glyph-name="asciitilde" unicode="~" horiz-adv-x="1107" 
d="M41 559q78 153 173 248q94 94 204 94q64 0 105 -14q49 -17 78 -32q7 -4 29.5 -15t32.5 -17q25 -14 58 -14q58 0 115 94l247 -143q-80 -156 -172 -247q-95 -93 -202 -93q-65 0 -106 14q-49 17 -78 32q-11 6 -31.5 16.5t-30.5 15.5q-27 14 -62 14q-55 0 -112 -96z" />
    <glyph glyph-name="uni00A0" unicode="&#xa0;" horiz-adv-x="389" 
 />
    <glyph glyph-name="exclamdown" unicode="&#xa1;" horiz-adv-x="593" 
d="M328 -354h-447l305 968h293zM588 881q0 -43 -17 -85q-17 -40 -46 -70q-29 -29 -69 -47q-38 -17 -87 -17t-87 17q-41 18 -70 47q-30 30 -46 70q-16 39 -16 85t16 85t46 69q29 29 70 47q40 18 87 18t87 -18t69 -47q30 -30 46 -69q17 -42 17 -85z" />
    <glyph glyph-name="cent" unicode="&#xa2;" 
d="M133 379q0 76 13 153q14 85 37 157q26 82 58 145q36 71 76 116q96 108 248 137l60 275h317l-61 -289q81 -27 141 -76l-61 -278h-222v129q-11 6 -16 10t-23 4q-29 0 -55 -26q-27 -27 -45 -93q-1 -3 -8.5 -29t-12.5 -46q-16 -57 -26 -104q-17 -75 -22 -106q-9 -52 -9 -87
q0 -66 37 -90q39 -25 94 -25q44 0 86 8q35 7 80 25l72 -223q-49 -34 -103 -54q-57 -21 -141 -32l-51 -248h-317l61 286q-93 44 -151 134q-56 87 -56 227z" />
    <glyph glyph-name="sterling" unicode="&#xa3;" 
d="M772 1180q-43 0 -70 -18q-28 -18 -42 -47q-15 -30 -21 -68q-6 -39 -6 -84v-45q0 -16 2 -60h305l-53 -250h-242q-7 -89 -65 -174q-57 -84 -177 -137h312l69 104h265l-84 -401h-975l65 309q97 46 154 124q55 76 55 173v2h-164l54 250h96q-2 50 -3 77t-1 81q0 209 128 323
q129 115 390 115q148 0 247 -30t171 -81l-66 -313h-244l-14 133q-36 12 -40 13q-16 4 -46 4z" />
    <glyph glyph-name="currency" unicode="&#xa4;" 
d="M504 221q-49 0 -86 10q-40 11 -74 27l-129 -117l-203 275l148 129q-2 20 -2 26v29q0 34 3 68q4 46 7 71q6 46 18 86q13 44 27 76l-104 137l278 260l98 -127q49 18 89 22q48 5 98 5q49 0 86 -10q38 -10 73 -27l130 117l202 -274l-147 -130q2 -20 2 -28v-27q0 -33 -3 -67
q-4 -50 -7 -72q-5 -40 -19 -86q-15 -51 -26 -76l104 -137l-279 -260l-98 127q-49 -18 -89 -22q-48 -5 -97 -5zM549 467q22 0 37 7t29 32q13 22 27 72q14 49 26 127q9 50 11 77q3 34 3 62q0 64 -13 86t-42 22q-22 0 -37 -7t-31 -32q-15 -24 -27 -71q-12 -45 -24 -127
q-9 -49 -11 -78q-3 -35 -3 -62q0 -64 13 -86t42 -22z" />
    <glyph glyph-name="yen" unicode="&#xa5;" 
d="M143 922h111l-66 237l-63 33l51 235h533l-50 -235l-75 -33l28 -129q2 -9 7 -32t7 -34q6 -41 7 -56q2 -34 2 -52q0 -17 -2 -57q8 32 15 53q7 22 20 50q15 31 29 55q30 50 44 71l86 131l-77 33l51 235h483l-51 -235l-76 -33l-158 -237h129l-47 -217h-225l-61 -93h268
l-47 -217h-307l-27 -127l102 -32l-49 -236h-592l50 236l118 32l27 127h-307l47 217h262l-27 93h-217z" />
    <glyph glyph-name="brokenbar" unicode="&#xa6;" horiz-adv-x="530" 
d="M115 496h284l-176 -828h-284zM346 1581h285l-176 -827h-285z" />
    <glyph glyph-name="section" unicode="&#xa7;" horiz-adv-x="1116" 
d="M840 180q41 -70 41 -176q0 -98 -35 -171t-96 -119q-59 -45 -147 -68q-87 -23 -183 -23q-135 0 -225 34q-94 35 -160 81l53 244h252v-95q33 -24 84 -24q42 0 62 19q22 20 22 52q0 22 -7 37q-7 16 -33 37q-24 19 -76 48q-58 32 -134 71q-71 36 -115 75q-43 38 -71 84
q-25 40 -38 91q-11 43 -11 96q0 115 58 194t167 109q-41 70 -41 176q0 98 35 171t96 119q62 47 146 69t184 22q135 0 225 -34q97 -37 160 -80l-54 -244h-251v94q-36 25 -84 25q-41 0 -63 -20q-21 -20 -21 -52q0 -22 7 -37q7 -16 33 -37t75 -48q58 -32 134 -71
q139 -73 187 -158q49 -86 49 -188q0 -114 -58 -193q-59 -80 -167 -110zM410 621q-11 -6 -17 -20q-6 -13 -6 -38q0 -32 17 -53q18 -22 65 -51l209 -123q10 6 16 19q6 14 6 38q0 32 -17 53q-19 24 -65 52z" />
    <glyph glyph-name="dieresis" unicode="&#xa8;" horiz-adv-x="1116" 
d="M422 1155q-78 0 -133 52q-56 53 -56 130q0 79 53 134t128 55q38 0 73 -15q37 -16 61 -40q26 -26 41 -60q15 -35 15 -74q0 -40 -14 -71q-16 -36 -40 -58q-26 -24 -58 -39q-31 -14 -70 -14zM864 1155q-40 0 -72 14q-34 15 -60 39q-24 22 -40 58q-14 31 -14 71q0 79 50 134
t126 55q80 0 137 -55q56 -54 56 -134q0 -76 -54 -130q-52 -52 -129 -52z" />
    <glyph glyph-name="copyright" unicode="&#xa9;" horiz-adv-x="1486" 
d="M688 555q0 -45 11 -67q11 -23 46 -23q34 0 62 14l59 105h228l-58 -244q-30 -23 -70 -36q-38 -13 -83 -22q-51 -11 -85 -13q-42 -3 -79 -3q-73 0 -138 18q-67 19 -113 56q-50 41 -76 101q-27 63 -27 151q0 75 11 141q12 75 31 136q19 65 45 117t54 87q40 43 80 68
q41 25 88 41q43 14 91 19q52 5 87 5q47 0 95 -6q47 -6 91 -18q42 -12 79 -30q38 -19 57 -38l-52 -219h-219l-4 96q-11 6 -21 10q-13 5 -28 5q-27 0 -49 -20q-21 -19 -43 -79q-14 -43 -23 -78t-22 -93q-11 -48 -18 -96q-7 -45 -7 -85zM694 106q138 0 237 41q96 40 167 134
q43 55 79 131q37 78 60 158q25 86 38 170t13 165q0 207 -111 329t-327 122q-138 0 -237 -41q-97 -40 -167 -133q-41 -52 -78 -131q-39 -82 -61 -159q-25 -86 -38 -170t-13 -165q0 -206 112 -329q111 -122 326 -122zM694 -27q-149 0 -263 43q-115 43 -193 120t-119 185
q-41 109 -41 236q0 91 15 186q14 87 43 186q26 88 68 172q42 85 89 144q95 120 243 182t314 62q149 0 263 -43q116 -44 194 -120t118 -184q41 -109 41 -237q0 -91 -15 -186q-13 -85 -43 -185q-27 -90 -68 -173q-42 -85 -89 -144q-95 -121 -242 -182q-148 -62 -315 -62z" />
    <glyph glyph-name="ordfeminine" unicode="&#xaa;" horiz-adv-x="1050" 
d="M586 1102q-26 0 -40 -10q-16 -11 -32 -45q-7 -17 -25 -75q-11 -35 -26 -108q-17 -79 -22 -112q-9 -56 -9 -90q0 -40 15 -55t38 -15q31 0 62 31l96 452q-9 12 -21 19q-14 8 -36 8zM551 461q-50 -60 -114 -97q-59 -34 -130 -34q-51 0 -92 17q-45 19 -75 54q-32 38 -51 94
t-19 132q0 73 12 157q11 78 32 163q19 78 45 145q23 60 50 102q60 90 130 120q68 29 142 29t128 -24q56 -25 102 -84l57 82h283l-133 -623q-6 -20 -7 -30q-2 -22 -2 -31q0 -16 10 -26q9 -9 33 -9h31l-39 -221q-62 -24 -110 -36q-43 -11 -93 -11q-85 0 -132 37q-48 37 -58 94
z" />
    <glyph glyph-name="guillemotleft" unicode="&#xab;" horiz-adv-x="1224" 
d="M539 197l-230 -136l-289 467l455 467l205 -151l-258 -316zM1053 197l-230 -136l-288 467l454 467l205 -151l-258 -316z" />
    <glyph glyph-name="logicalnot" unicode="&#xac;" 
d="M664 608h-537l68 316h864l-131 -611h-328z" />
    <glyph glyph-name="uni00AD" unicode="&#xad;" horiz-adv-x="686" 
d="M98 774h557l-77 -373h-558z" />
    <glyph glyph-name="registered" unicode="&#xae;" horiz-adv-x="1097" 
d="M651 977q27 0 37 16q11 15 15 34q6 26 6 42q0 35 -35 35h-31l-29 -127h37zM872 770l-24 -117h-201l-14 160q-1 20 -7 35q-5 12 -22 12h-14l-17 -80l27 -10l-25 -117h-245l24 117l35 10l68 318l-31 10l25 117h274q93 0 134 -37q42 -37 42 -109q0 -73 -39 -113
q-38 -39 -88 -44v-4q22 -10 40 -31q17 -20 22 -66l4 -41zM586 492q182 0 286 149q31 48 47 85q21 49 36 100q18 63 24 105q8 56 8 101q0 153 -80 239q-79 85 -231 85q-182 0 -287 -150q-28 -44 -46 -85q-24 -56 -37 -100q-16 -56 -23 -105q-9 -63 -9 -101q0 -152 80 -238
q79 -85 232 -85zM573 377q-101 0 -184 33q-82 33 -138 92q-57 60 -87 139q-31 82 -31 176q0 136 41 259q40 120 111 208q78 94 176 139q102 47 227 47q104 0 184 -32q83 -33 139 -92q57 -60 87 -141t30 -175q0 -136 -41 -259q-41 -122 -110 -208q-78 -94 -176 -139
q-102 -47 -228 -47z" />
    <glyph glyph-name="macron" unicode="&#xaf;" horiz-adv-x="1116" 
d="M379 1491h584l-62 -285h-584z" />
    <glyph glyph-name="degree" unicode="&#xb0;" horiz-adv-x="784" 
d="M150 1016q0 121 50 226q50 104 128 155q90 57 223 57q67 0 124 -19q56 -19 101 -59q44 -39 69 -97q25 -57 25 -136q0 -45 -9 -94q-10 -54 -26 -96q-18 -47 -42 -87q-21 -36 -56 -69q-53 -47 -122 -71t-146 -24q-142 0 -230 79q-89 80 -89 235zM481 899q17 0 34 7
q18 8 30 28q23 33 39 99q16 64 16 132q0 50 -17 70t-46 20q-31 0 -48 -16q-13 -11 -26 -41q-15 -35 -22 -63q-9 -34 -15 -74q-6 -39 -6 -72q0 -55 16 -72q16 -18 45 -18z" />
    <glyph glyph-name="plusminus" unicode="&#xb1;" 
d="M473 791h-323l65 305h324l57 276h328l-58 -276h324l-66 -305h-323l-60 -277h-327zM63 387h975l-65 -309h-975z" />
    <glyph glyph-name="twosuperior" unicode="&#xb2;" horiz-adv-x="800" 
d="M737 516h-702l57 256q129 67 213 119t123 86q43 37 56 65q14 30 14 60t-18 51t-62 21q-26 0 -75 -9q-38 -7 -79 -26l-84 186q66 52 158 87q90 34 205 34q153 0 225 -76t72 -196q0 -79 -33 -139t-94 -109t-152 -90q-87 -39 -205 -78h437z" />
    <glyph glyph-name="threesuperior" unicode="&#xb3;" horiz-adv-x="743" 
d="M117 815q39 -22 103 -43q60 -20 122 -20q44 0 72 14q30 15 30 55q0 29 -15 42q-16 14 -69 14h-122l47 200h114q84 0 84 60q0 23 -16 38q-17 15 -76 15q-53 0 -87 -9q-27 -7 -64 -20l-50 211q49 26 122 49q80 25 180 25q134 0 224 -61q89 -60 89 -185q0 -87 -55 -149
q-56 -64 -154 -80q71 -22 120 -73q48 -49 48 -130q0 -73 -28 -124t-77 -82q-50 -32 -117 -45q-66 -13 -151 -13q-114 0 -195 27q-79 26 -141 65z" />
    <glyph glyph-name="acute" unicode="&#xb4;" horiz-adv-x="1116" 
d="M358 1319l410 293l154 -285l-459 -190z" />
    <glyph glyph-name="mu" unicode="&#xb5;" horiz-adv-x="1142" 
d="M90 813l55 260h473l-151 -713q-1 -10 -3 -18q-1 -5 -1 -16q0 -56 45 -56q39 0 80 29l164 774h391l-148 -700q-5 -17 -6 -34q-2 -24 -2 -34q0 -19 9 -29t38 -10h33l-43 -241q-64 -27 -120 -40q-54 -12 -101 -12q-92 0 -145 41q-51 39 -68 99q-35 -53 -89 -86
q-53 -32 -114 -43l-78 -371h-393l250 1171z" />
    <glyph glyph-name="paragraph" unicode="&#xb6;" horiz-adv-x="1454" 
d="M1065 -178h-309l293 1384h-117l-293 -1384h-307l176 831h-4q-78 0 -144 25q-61 23 -106 70q-43 45 -67 104q-23 57 -23 131q0 216 141 330t387 114h824l-52 -235l-116 -33z" />
    <glyph glyph-name="periodcentered" unicode="&#xb7;" horiz-adv-x="569" 
d="M76 623q0 48 17 86q19 43 47 71q30 30 71 48t88 18t88 -18t71 -48q28 -28 47 -71q17 -38 17 -86q0 -49 -17 -87q-19 -43 -47 -71q-30 -30 -71 -48t-88 -18t-88 18t-71 48q-28 28 -47 71q-17 38 -17 87z" />
    <glyph glyph-name="cedilla" unicode="&#xb8;" horiz-adv-x="1116" 
d="M262 -283q14 -10 49 -25q25 -11 68 -11q44 0 61 16q19 17 19 45q0 49 -80 49q-13 0 -35 -2q-7 -1 -17 -3l-10 -1l109 215l10 20h160l-61 -112q60 -10 98 -50q39 -41 39 -110q0 -108 -73 -167q-72 -59 -193 -60q-74 0 -123 15q-48 15 -84 38z" />
    <glyph glyph-name="onesuperior" unicode="&#xb9;" horiz-adv-x="698" 
d="M96 727l178 21l60 282l-158 -49l-49 168l373 278h239l-145 -679l143 -21l-45 -211h-641z" />
    <glyph glyph-name="ordmasculine" unicode="&#xba;" horiz-adv-x="952" 
d="M463 330q-187 0 -290 94t-103 281q0 65 10 131q11 73 31 137q22 72 49 128q28 59 63 103q61 76 147 108q84 31 197 31q187 0 290 -94q104 -95 104 -280q0 -62 -12 -131q-15 -86 -30 -138q-18 -63 -49 -128q-28 -59 -63 -103q-61 -77 -147 -108q-84 -31 -197 -31z
M571 1130q-13 0 -30 -9q-15 -8 -31 -38q-15 -36 -31 -93q-17 -60 -36 -137q-11 -46 -28 -141q-12 -69 -12 -102q0 -40 15 -54q14 -13 41 -13q13 0 30 9q15 8 31 38q15 34 31 92q18 66 36 138q10 41 28 141q12 67 12 102q0 41 -15 54q-14 13 -41 13z" />
    <glyph glyph-name="guillemotright" unicode="&#xbb;" horiz-adv-x="1224" 
d="M672 860l229 135l289 -467l-455 -467l-205 152l258 315zM158 860l229 135l289 -467l-455 -467l-205 152l258 315z" />
    <glyph glyph-name="onequarter" unicode="&#xbc;" horiz-adv-x="2093" 
d="M1423 1411h330l-1081 -1479h-330zM1149 279l311 524h283l-303 -535h129l55 258l311 54l-67 -312h112l-45 -213h-112l-35 -164h-299l35 164h-422zM96 727l178 21l60 282l-158 -49l-49 168l373 278h239l-145 -679l143 -21l-45 -211h-641z" />
    <glyph glyph-name="onehalf" unicode="&#xbd;" horiz-adv-x="2080" 
d="M1423 1411h330l-1081 -1479h-330zM96 727l178 21l60 282l-158 -49l-49 168l373 278h239l-145 -679l143 -21l-45 -211h-641zM1874 -109h-703l58 256q129 67 213 119t123 86q42 36 56 66q13 27 13 59q0 31 -17 51q-18 21 -63 21q-31 0 -74 -8q-34 -6 -79 -27l-84 186
q66 52 158 87q90 34 204 34q154 0 226 -76q71 -75 71 -196q0 -80 -32 -138q-33 -60 -95 -110t-151 -90q-87 -39 -205 -78h436z" />
    <glyph glyph-name="threequarters" unicode="&#xbe;" horiz-adv-x="2076" 
d="M117 815q39 -22 103 -43q60 -20 122 -20q44 0 72 14q30 15 30 55q0 29 -15 42q-16 14 -69 14h-122l47 200h114q84 0 84 60q0 23 -16 38q-17 15 -76 15q-53 0 -87 -9q-27 -7 -64 -20l-50 211q49 26 122 49q80 25 180 25q134 0 224 -61q89 -60 89 -185q0 -87 -55 -149
q-56 -64 -154 -80q71 -22 120 -73q48 -49 48 -130q0 -73 -28 -124t-77 -82q-50 -32 -117 -45q-66 -13 -151 -13q-114 0 -195 27q-79 26 -141 65zM1407 1411h330l-1082 -1479h-329zM1133 279l311 524h282l-303 -535h129l56 258l311 54l-68 -312h113l-45 -213h-113l-34 -164
h-299l34 164h-422z" />
    <glyph glyph-name="questiondown" unicode="&#xbf;" horiz-adv-x="952" 
d="M664 453q-11 -70 -25 -110q-16 -46 -34 -74q-19 -29 -46 -50q-24 -19 -59 -41q-76 -46 -108 -85q-30 -38 -30 -101q0 -5 0.5 -11t1.5 -13.5t1 -11.5q1 -16 11 -32q8 -14 25 -23q18 -10 48 -10q15 0 38 5l60 120h264l-68 -311q-73 -37 -172 -62q-96 -24 -221 -24
q-180 0 -290 83q-109 82 -109 249q0 88 19 149q20 65 57 112q38 49 90 83q49 32 121 61q50 22 87 55q34 31 46 89l26 116h293zM786 881q0 -46 -16 -85q-16 -40 -46 -70q-29 -29 -70 -47q-38 -17 -87 -17t-87 17q-40 18 -69 47q-30 30 -46 70q-17 42 -17 85t17 85
q16 39 46 69q29 29 69 47t87 18t87 -18q41 -18 70 -47q30 -30 46 -69t16 -85z" />
    <glyph glyph-name="Agrave" unicode="&#xc0;" horiz-adv-x="1361" 
d="M752 373h-320l-47 -105l88 -32l-51 -236h-500l51 236l90 32l574 1159h461l78 -1159l88 -32l-52 -236h-596l52 236l88 32zM549 621h190l-4 108q-5 77 -6 163q-2 103 2 183h-4q-25 -97 -58 -182q-35 -90 -69 -162zM608 1671l183 281l360 -289l-129 -182z" />
    <glyph glyph-name="Aacute" unicode="&#xc1;" horiz-adv-x="1361" 
d="M752 373h-320l-47 -105l88 -32l-51 -236h-500l51 236l90 32l574 1159h461l78 -1159l88 -32l-52 -236h-596l52 236l88 32zM549 621h190l-4 108q-5 77 -6 163q-2 103 2 183h-4q-25 -97 -58 -182q-35 -90 -69 -162zM598 1663l410 293l153 -285l-459 -190z" />
    <glyph glyph-name="Acircumflex" unicode="&#xc2;" horiz-adv-x="1361" 
d="M752 373h-320l-47 -105l88 -32l-51 -236h-500l51 236l90 32l574 1159h461l78 -1159l88 -32l-52 -236h-596l52 236l88 32zM549 621h190l-4 108q-5 77 -6 163q-2 103 2 183h-4q-25 -97 -58 -182q-35 -90 -69 -162zM553 1642l274 281h222l194 -281l-125 -149l-211 154
l-266 -154z" />
    <glyph glyph-name="Atilde" unicode="&#xc3;" horiz-adv-x="1361" 
d="M752 373h-320l-47 -105l88 -32l-51 -236h-500l51 236l90 32l574 1159h461l78 -1159l88 -32l-52 -236h-596l52 236l88 32zM549 621h190l-4 108q-5 77 -6 163q-2 103 2 183h-4q-25 -97 -58 -182q-35 -90 -69 -162zM518 1642q46 121 127 182q79 60 158 60q48 0 80 -11
q39 -14 62 -25q9 -5 26 -12.5t25 -11.5q24 -12 48 -12q31 0 56 19t49 53l164 -129q-49 -121 -127 -181q-79 -61 -156 -61q-46 0 -80 12q-46 16 -63 24q-38 18 -52 25q-22 11 -49 11q-30 0 -56 -18q-24 -17 -48 -54z" />
    <glyph glyph-name="Adieresis" unicode="&#xc4;" horiz-adv-x="1361" 
d="M752 373h-320l-47 -105l88 -32l-51 -236h-500l51 236l90 32l574 1159h461l78 -1159l88 -32l-52 -236h-596l52 236l88 32zM549 621h190l-4 108q-5 77 -6 163q-2 103 2 183h-4q-25 -97 -58 -182q-35 -90 -69 -162zM694 1495q-78 0 -133 52t-55 130q0 81 52 134
q53 55 128 55q40 0 74 -15q35 -15 60 -40q26 -26 41 -60q16 -37 16 -74q0 -38 -15 -71q-16 -36 -40 -58q-26 -24 -58 -39q-31 -14 -70 -14zM1137 1495q-41 0 -73 14q-33 14 -59 39q-24 22 -40 58q-15 33 -15 71q0 79 50 134t126 55q81 0 138 -55q55 -54 55 -134
q0 -77 -53 -130q-52 -52 -129 -52z" />
    <glyph glyph-name="Aring" unicode="&#xc5;" horiz-adv-x="1361" 
d="M752 373h-320l-47 -105l88 -32l-51 -236h-500l51 236l90 32l574 1159h461l78 -1159l88 -32l-52 -236h-596l52 236l88 32zM549 621h190l-4 108q-5 77 -6 163q-2 103 2 183h-4q-25 -97 -58 -182q-35 -90 -69 -162zM647 1776q23 108 98 160q77 53 187 53q113 0 176 -63
t63 -161q0 -30 -6 -63q-23 -111 -96 -162t-180 -51q-117 0 -182 62q-66 63 -66 161q0 30 6 64zM891 1628q59 0 82 105q6 24 6 45q0 33 -13 52t-42 19q-36 0 -55 -26q-18 -25 -29 -78q-6 -24 -6 -47q0 -32 14 -50q15 -20 43 -20z" />
    <glyph glyph-name="AE" unicode="&#xc6;" horiz-adv-x="1804" 
d="M831 438h-319l-109 -170l89 -32l-52 -236h-518l51 236l90 32l572 891l-105 33l52 235h1353l-88 -409h-254l-6 143h-188l-64 -303h119l49 82h205l-90 -424h-205l-16 84h-117l-72 -334h197l86 172h256l-92 -438h-1026l49 236l119 32zM672 686h213l35 162q19 97 38 169
q40 156 46 179h-5z" />
    <glyph glyph-name="Ccedilla" unicode="&#xc7;" horiz-adv-x="1114" 
d="M289 -283q15 -10 49 -25q25 -11 67 -11q45 0 62 16q18 17 18 45q0 49 -80 49q-12 0 -34 -2q-7 -1 -17 -3l-10 -1l98 197q-78 12 -150 44q-70 32 -123 87q-54 57 -83 137q-31 85 -31 192q0 100 18 218q19 127 50 233q34 117 82 216q50 104 114 169q91 95 209 136
q116 40 275 40q120 0 227 -35q104 -34 176 -94l-71 -311h-273v151q-33 27 -80 27q-39 0 -74 -17q-40 -19 -73 -83q-23 -42 -50 -122q-35 -105 -53 -178q-23 -92 -40 -196q-17 -102 -17 -174q0 -90 24 -138t89 -48q23 0 50 3q29 3 46 13l88 168h279l-78 -346
q-85 -54 -187 -76q-110 -24 -190 -25l-35 -65q60 -10 98 -50q39 -41 39 -110q0 -108 -72 -167q-72 -58 -194 -60q-74 0 -123 15q-48 15 -84 38z" />
    <glyph glyph-name="Egrave" unicode="&#xc8;" horiz-adv-x="1097" 
d="M911 516h-204l-17 84h-117l-71 -334h196l86 172h256l-92 -438h-1026l49 236l119 32l189 891l-105 33l51 235h1004l-88 -409h-254l-6 143h-189l-63 -303h119l49 82h204zM492 1671l182 281l360 -289l-129 -182z" />
    <glyph glyph-name="Eacute" unicode="&#xc9;" horiz-adv-x="1097" 
d="M911 516h-204l-17 84h-117l-71 -334h196l86 172h256l-92 -438h-1026l49 236l119 32l189 891l-105 33l51 235h1004l-88 -409h-254l-6 143h-189l-63 -303h119l49 82h204zM520 1663l410 293l153 -285l-458 -190z" />
    <glyph glyph-name="Ecircumflex" unicode="&#xca;" horiz-adv-x="1097" 
d="M911 516h-204l-17 84h-117l-71 -334h196l86 172h256l-92 -438h-1026l49 236l119 32l189 891l-105 33l51 235h1004l-88 -409h-254l-6 143h-189l-63 -303h119l49 82h204zM416 1642l274 281h221l195 -281l-125 -149l-211 154l-266 -154z" />
    <glyph glyph-name="Edieresis" unicode="&#xcb;" horiz-adv-x="1097" 
d="M911 516h-204l-17 84h-117l-71 -334h196l86 172h256l-92 -438h-1026l49 236l119 32l189 891l-105 33l51 235h1004l-88 -409h-254l-6 143h-189l-63 -303h119l49 82h204zM545 1511q-77 0 -133 53t-56 130q0 79 53 134q53 54 128 54q41 0 73 -14q37 -16 61 -40
q26 -26 41 -61q15 -34 15 -73q0 -41 -14 -72q-15 -34 -40 -57q-25 -24 -59 -39q-33 -15 -69 -15zM987 1511q-39 0 -73 15q-33 14 -59 39q-25 23 -40 57q-14 31 -14 72q0 79 50 134q49 54 126 54q81 0 137 -54q55 -54 55 -134q0 -77 -53 -130t-129 -53z" />
    <glyph glyph-name="Igrave" unicode="&#xcc;" horiz-adv-x="706" 
d="M-29 236l119 32l189 891l-105 33l51 235h635l-51 -235l-117 -33l-188 -891l102 -32l-49 -236h-635zM315 1671l183 281l360 -289l-129 -182z" />
    <glyph glyph-name="Iacute" unicode="&#xcd;" horiz-adv-x="706" 
d="M-29 236l119 32l189 891l-105 33l51 235h635l-51 -235l-117 -33l-188 -891l102 -32l-49 -236h-635zM305 1663l410 293l153 -285l-458 -190z" />
    <glyph glyph-name="Icircumflex" unicode="&#xce;" horiz-adv-x="706" 
d="M-29 236l119 32l189 891l-105 33l51 235h635l-51 -235l-117 -33l-188 -891l102 -32l-49 -236h-635zM225 1642l275 281h221l194 -281l-124 -149l-211 154l-267 -154z" />
    <glyph glyph-name="Idieresis" unicode="&#xcf;" horiz-adv-x="706" 
d="M-29 236l119 32l189 891l-105 33l51 235h635l-51 -235l-117 -33l-188 -891l102 -32l-49 -236h-635zM365 1495q-79 0 -134 52t-55 130q0 81 52 134q53 55 128 55q40 0 74 -15q35 -15 60 -40q26 -26 41 -60q16 -37 16 -74q0 -38 -15 -71q-17 -37 -39 -58q-25 -24 -59 -39
q-31 -14 -69 -14zM807 1495q-41 0 -73 14q-33 14 -59 39q-24 22 -40 58q-14 31 -14 71q0 79 50 134t126 55q80 0 137 -55q55 -54 55 -134q0 -77 -53 -130q-52 -52 -129 -52z" />
    <glyph glyph-name="Eth" unicode="&#xd0;" horiz-adv-x="1286" 
d="M111 842h100l68 317l-105 33l51 235h602q453 0 453 -479q0 -104 -18 -222q-16 -107 -54 -230q-35 -115 -84 -208q-51 -98 -112 -153q-72 -66 -176 -100q-107 -35 -258 -35h-656l49 236l119 32l68 320h-103zM692 1161l-67 -319h127l-56 -254h-127l-67 -320h84q52 0 81 13
q27 12 50 53q12 18 27 65q12 37 33 109q16 53 34 132q19 80 29 139q14 82 20 128q8 64 8 101q0 93 -26 122q-28 31 -76 31h-74z" />
    <glyph glyph-name="Ntilde" unicode="&#xd1;" horiz-adv-x="1357" 
d="M946 1192l49 235h516l-49 -235l-119 -33l-245 -1159h-348l-179 539q-33 101 -52 183q-17 74 -19 157h-4q-4 -37 -9 -72q-4 -31 -9 -74q-4 -34 -14 -86q-3 -15 -10.5 -51t-11.5 -57l-57 -271l102 -32l-49 -236h-516l49 236l119 32l189 891l-105 33l51 235h516l144 -501
q25 -85 40 -166q12 -65 17 -146h4q5 67 17 146q12 83 32 164l54 235zM528 1642q46 121 127 182q80 60 158 60q48 0 80 -11q39 -14 62 -25q9 -5 26.5 -12.5t25.5 -11.5q24 -12 48 -12q30 0 55 19t49 53l164 -129q-49 -121 -127 -181q-79 -61 -156 -61q-44 0 -79 12
q-50 17 -64 24q-38 18 -52 25q-22 11 -48 11q-31 0 -57 -18q-24 -17 -48 -54z" />
    <glyph glyph-name="Ograve" unicode="&#xd2;" horiz-adv-x="1236" 
d="M561 -27q-245 0 -375 130q-131 131 -131 386q0 109 18 226q19 124 50 225q35 114 79 201q47 92 103 151q78 81 184 122q104 40 240 40q246 0 374 -125t128 -375q0 -99 -17 -221q-17 -121 -49 -232q-34 -116 -82 -213q-52 -104 -114 -163q-157 -152 -408 -152zM561 236
q28 0 52 15q23 14 40 42q20 30 38 83q21 61 39 128q18 66 37 152q16 72 31 157q14 78 21 139q8 67 8 103q0 78 -28 107q-29 30 -80 30q-58 0 -96 -53q-19 -25 -38 -81q-21 -62 -38 -129q-16 -64 -36 -154q-16 -72 -31 -157q-11 -60 -20 -139q-7 -59 -7 -100q0 -79 29 -111
t79 -32zM545 1671l182 281l360 -289l-129 -182z" />
    <glyph glyph-name="Oacute" unicode="&#xd3;" horiz-adv-x="1236" 
d="M561 -27q-245 0 -375 130q-131 131 -131 386q0 109 18 226q19 124 50 225q35 114 79 201q47 92 103 151q78 81 184 122q104 40 240 40q246 0 374 -125t128 -375q0 -99 -17 -221q-17 -121 -49 -232q-34 -116 -82 -213q-52 -104 -114 -163q-157 -152 -408 -152zM561 236
q28 0 52 15q23 14 40 42q20 30 38 83q21 61 39 128q18 66 37 152q16 72 31 157q14 78 21 139q8 67 8 103q0 78 -28 107q-29 30 -80 30q-58 0 -96 -53q-19 -25 -38 -81q-21 -62 -38 -129q-16 -64 -36 -154q-16 -72 -31 -157q-11 -60 -20 -139q-7 -59 -7 -100q0 -79 29 -111
t79 -32zM535 1663l409 293l154 -285l-459 -190z" />
    <glyph glyph-name="Ocircumflex" unicode="&#xd4;" horiz-adv-x="1236" 
d="M561 -27q-245 0 -375 130q-131 131 -131 386q0 109 18 226q19 124 50 225q35 114 79 201q47 92 103 151q78 81 184 122q104 40 240 40q246 0 374 -125t128 -375q0 -99 -17 -221q-17 -121 -49 -232q-34 -116 -82 -213q-52 -104 -114 -163q-157 -152 -408 -152zM561 236
q28 0 52 15q23 14 40 42q20 30 38 83q21 61 39 128q18 66 37 152q16 72 31 157q14 78 21 139q8 67 8 103q0 78 -28 107q-29 30 -80 30q-58 0 -96 -53q-19 -25 -38 -81q-21 -62 -38 -129q-16 -64 -36 -154q-16 -72 -31 -157q-11 -60 -20 -139q-7 -59 -7 -100q0 -79 29 -111
t79 -32zM469 1642l274 281h222l194 -281l-125 -149l-211 154l-266 -154z" />
    <glyph glyph-name="Otilde" unicode="&#xd5;" horiz-adv-x="1236" 
d="M561 -27q-245 0 -375 130q-131 131 -131 386q0 109 18 226q19 124 50 225q35 114 79 201q47 92 103 151q78 81 184 122q104 40 240 40q246 0 374 -125t128 -375q0 -99 -17 -221q-17 -121 -49 -232q-34 -116 -82 -213q-52 -104 -114 -163q-157 -152 -408 -152zM561 236
q28 0 52 15q23 14 40 42q20 30 38 83q21 61 39 128q18 66 37 152q16 72 31 157q14 78 21 139q8 67 8 103q0 78 -28 107q-29 30 -80 30q-58 0 -96 -53q-19 -25 -38 -81q-21 -62 -38 -129q-16 -64 -36 -154q-16 -72 -31 -157q-11 -60 -20 -139q-7 -59 -7 -100q0 -79 29 -111
t79 -32zM414 1642q46 121 127 182q80 60 157 60q48 0 80 -11q43 -15 63 -25q9 -5 26 -12.5t25 -11.5q24 -12 48 -12q30 0 55 19t49 53l164 -129q-49 -121 -127 -181q-79 -61 -155 -61q-46 0 -80 12q-50 17 -64 24q-38 18 -52 25q-22 11 -48 11q-30 0 -56 -18
q-24 -17 -48 -54z" />
    <glyph glyph-name="Odieresis" unicode="&#xd6;" horiz-adv-x="1236" 
d="M561 -27q-245 0 -375 130q-131 131 -131 386q0 109 18 226q19 124 50 225q35 114 79 201q47 92 103 151q78 81 184 122q104 40 240 40q246 0 374 -125t128 -375q0 -99 -17 -221q-17 -121 -49 -232q-34 -116 -82 -213q-52 -104 -114 -163q-157 -152 -408 -152zM561 236
q28 0 52 15q23 14 40 42q20 30 38 83q21 61 39 128q18 66 37 152q16 72 31 157q14 78 21 139q8 67 8 103q0 78 -28 107q-29 30 -80 30q-58 0 -96 -53q-19 -25 -38 -81q-21 -62 -38 -129q-16 -64 -36 -154q-16 -72 -31 -157q-11 -60 -20 -139q-7 -59 -7 -100q0 -79 29 -111
t79 -32zM610 1495q-78 0 -133 52t-55 130q0 81 52 134q53 55 128 55q40 0 74 -15q35 -15 60 -40q26 -26 41 -60q16 -37 16 -74q0 -38 -15 -71q-16 -36 -40 -58q-26 -24 -58 -39q-31 -14 -70 -14zM1053 1495q-41 0 -73 14q-33 14 -59 39q-24 22 -40 58q-15 33 -15 71
q0 79 50 134t126 55q81 0 138 -55q55 -54 55 -134q0 -77 -53 -130q-52 -52 -129 -52z" />
    <glyph glyph-name="multiply" unicode="&#xd7;" 
d="M51 444l336 291l-213 287l236 209l215 -291l336 291l176 -234l-336 -292l213 -287l-236 -209l-215 289l-334 -289z" />
    <glyph glyph-name="Oslash" unicode="&#xd8;" horiz-adv-x="1236" 
d="M145 154q-90 128 -90 335q0 109 18 226q19 124 50 225q35 114 79 201q47 92 103 151q78 81 184 122q104 40 240 40q182 0 301 -72l148 205l139 -100l-162 -225q76 -121 76 -308q0 -99 -17 -221q-17 -121 -49 -232q-34 -116 -82 -213q-52 -104 -114 -163
q-157 -152 -408 -152q-173 0 -291 66l-151 -209l-135 100zM596 1114q-20 -33 -40 -89q-26 -73 -43 -133q-21 -75 -39 -159q-18 -83 -30 -164l392 545q-16 38 -50 58t-67 20q-38 0 -67 -16q-28 -15 -56 -62zM561 236q38 0 67 16t56 61q18 29 38 82q15 39 40 121q17 54 38 144
q15 64 29 153l-378 -524q22 -30 50 -41q30 -12 60 -12z" />
    <glyph glyph-name="Ugrave" unicode="&#xd9;" horiz-adv-x="1329" 
d="M750 1427l-213 -1007q-7 -33 -7 -49q0 -47 27 -64q26 -16 64 -16q29 0 58 8q25 7 48 20l176 840l-104 33l51 235h524l-248 -1155l103 -36l-49 -236h-385l-29 121q-48 -42 -72 -61q-37 -29 -73 -47q-35 -17 -86 -29q-49 -11 -107 -11q-141 0 -227 83t-86 255q0 86 20 172
l144 676l-105 33l51 235h525zM582 1671l182 281l360 -289l-129 -182z" />
    <glyph glyph-name="Uacute" unicode="&#xda;" horiz-adv-x="1329" 
d="M750 1427l-213 -1007q-7 -33 -7 -49q0 -47 27 -64q26 -16 64 -16q29 0 58 8q25 7 48 20l176 840l-104 33l51 235h524l-248 -1155l103 -36l-49 -236h-385l-29 121q-48 -42 -72 -61q-37 -29 -73 -47q-35 -17 -86 -29q-49 -11 -107 -11q-141 0 -227 83t-86 255q0 86 20 172
l144 676l-105 33l51 235h525zM614 1663l410 293l154 -285l-459 -190z" />
    <glyph glyph-name="Ucircumflex" unicode="&#xdb;" horiz-adv-x="1329" 
d="M750 1427l-213 -1007q-7 -33 -7 -49q0 -47 27 -64q26 -16 64 -16q29 0 58 8q25 7 48 20l176 840l-104 33l51 235h524l-248 -1155l103 -36l-49 -236h-385l-29 121q-48 -42 -72 -61q-37 -29 -73 -47q-35 -17 -86 -29q-49 -11 -107 -11q-141 0 -227 83t-86 255q0 86 20 172
l144 676l-105 33l51 235h525zM510 1642l274 281h222l194 -281l-125 -149l-211 154l-266 -154z" />
    <glyph glyph-name="Udieresis" unicode="&#xdc;" horiz-adv-x="1329" 
d="M750 1427l-213 -1007q-7 -33 -7 -49q0 -47 27 -64q26 -16 64 -16q29 0 58 8q25 7 48 20l176 840l-104 33l51 235h524l-248 -1155l103 -36l-49 -236h-385l-29 121q-48 -42 -72 -61q-37 -29 -73 -47q-35 -17 -86 -29q-49 -11 -107 -11q-141 0 -227 83t-86 255q0 86 20 172
l144 676l-105 33l51 235h525zM670 1495q-78 0 -133 52q-56 53 -56 130q0 79 53 134t128 55q38 0 73 -15q37 -16 61 -40q26 -26 41 -60t15 -74t-14 -71q-16 -36 -40 -58q-25 -24 -59 -39q-31 -14 -69 -14zM1112 1495q-41 0 -73 14q-33 14 -59 39q-24 22 -40 58q-14 31 -14 71
q0 79 50 134t126 55q80 0 137 -55q55 -54 55 -134q0 -77 -53 -130q-52 -52 -129 -52z" />
    <glyph glyph-name="Yacute" unicode="&#xdd;" horiz-adv-x="1255" 
d="M850 1192l51 235h508l-51 -235l-88 -33l-422 -637l-53 -254l102 -32l-49 -236h-635l49 236l119 32l53 254l-176 637l-84 33l51 235h584l-49 -235l-84 -33l29 -129q12 -62 13 -66q7 -44 8 -56q2 -18 4 -52q1 -18 -1 -57q3 11 16 53q5 16 21 50q7 15 31 55q21 35 45 71
l86 131zM633 1663l409 293l154 -285l-459 -190z" />
    <glyph glyph-name="Thorn" unicode="&#xde;" horiz-adv-x="1206" 
d="M647 559q64 0 109 45t45 160q0 70 -31 92q-30 21 -78 21h-59l-68 -318h82zM680 1122h145q198 0 290 -90q91 -90 91 -260q0 -112 -40 -207q-41 -97 -111 -151q-70 -53 -161 -77q-92 -24 -189 -24h-193l-10 -47l141 -30l-51 -236h-670l49 236l119 32l189 891l-105 33
l51 235h635l-51 -235l-119 -33z" />
    <glyph glyph-name="germandbls" unicode="&#xdf;" horiz-adv-x="1179" 
d="M387 -43q-17 -86 -59 -147q-46 -66 -102 -108q-61 -45 -125 -70q-62 -24 -130 -37l-100 180q61 40 88 87q26 45 43 130l154 792l-86 31l55 258h86l8 43q22 108 70 189q47 80 115 128q69 50 157 72q90 23 193 23q206 0 326 -90t120 -252q0 -95 -37 -154q-35 -56 -81 -99
t-81 -68q-36 -26 -36 -60q0 -28 22 -60q21 -31 51 -86q36 -72 57 -130q25 -69 25 -156q0 -193 -103 -296q-104 -104 -312 -104q-84 0 -153 25q-67 24 -97 53l63 215q16 -10 42 -18q27 -8 61 -8q52 0 78 29q28 31 28 83t-16 93q-18 45 -37 85q-18 37 -37 91q-16 45 -16 106
q0 66 34 122q31 51 77 112q48 63 77 114q35 61 35 133q0 41 -20 72t-72 31q-65 0 -93 -40q-29 -41 -45 -116z" />
    <glyph glyph-name="agrave" unicode="&#xe0;" horiz-adv-x="1107" 
d="M604 829q-30 0 -44 -10q-16 -11 -32 -45q-14 -32 -32 -94q-18 -61 -29 -119q-16 -84 -21 -120q-8 -62 -8 -97q0 -42 12 -60t37 -18q19 0 34 9t32 26l109 498q-5 6 -22 20q-13 10 -36 10zM555 121q-44 -75 -116 -112q-71 -36 -148 -36q-106 0 -178 80q-72 79 -72 250
q0 81 12 176t36 186q25 95 55 171q32 80 69 129q55 71 128 103t144 32q81 0 143 -28q61 -27 107 -93l64 94h309l-147 -700q-6 -22 -7 -34q-2 -24 -2 -34q0 -17 10 -29q9 -10 37 -10h33l-43 -241q-68 -27 -122 -39q-57 -13 -99 -13q-92 0 -147 43q-55 44 -66 105zM440 1327
l183 281l360 -289l-129 -182z" />
    <glyph glyph-name="aacute" unicode="&#xe1;" horiz-adv-x="1107" 
d="M604 829q-30 0 -44 -10q-16 -11 -32 -45q-14 -32 -32 -94q-18 -61 -29 -119q-16 -84 -21 -120q-8 -62 -8 -97q0 -42 12 -60t37 -18q19 0 34 9t32 26l109 498q-5 6 -22 20q-13 10 -36 10zM555 121q-44 -75 -116 -112q-71 -36 -148 -36q-106 0 -178 80q-72 79 -72 250
q0 81 12 176t36 186q25 95 55 171q32 80 69 129q55 71 128 103t144 32q81 0 143 -28q61 -27 107 -93l64 94h309l-147 -700q-6 -22 -7 -34q-2 -24 -2 -34q0 -17 10 -29q9 -10 37 -10h33l-43 -241q-68 -27 -122 -39q-57 -13 -99 -13q-92 0 -147 43q-55 44 -66 105zM430 1319
l410 293l153 -285l-458 -190z" />
    <glyph glyph-name="acircumflex" unicode="&#xe2;" horiz-adv-x="1107" 
d="M604 829q-30 0 -44 -10q-16 -11 -32 -45q-14 -32 -32 -94q-18 -61 -29 -119q-16 -84 -21 -120q-8 -62 -8 -97q0 -42 12 -60t37 -18q19 0 34 9t32 26l109 498q-5 6 -22 20q-13 10 -36 10zM555 121q-44 -75 -116 -112q-71 -36 -148 -36q-106 0 -178 80q-72 79 -72 250
q0 81 12 176t36 186q25 95 55 171q32 80 69 129q55 71 128 103t144 32q81 0 143 -28q61 -27 107 -93l64 94h309l-147 -700q-6 -22 -7 -34q-2 -24 -2 -34q0 -17 10 -29q9 -10 37 -10h33l-43 -241q-68 -27 -122 -39q-57 -13 -99 -13q-92 0 -147 43q-55 44 -66 105zM365 1288
l274 281h221l195 -281l-125 -149l-211 153l-266 -153z" />
    <glyph glyph-name="atilde" unicode="&#xe3;" horiz-adv-x="1107" 
d="M604 829q-30 0 -44 -10q-16 -11 -32 -45q-14 -32 -32 -94q-18 -61 -29 -119q-16 -84 -21 -120q-8 -62 -8 -97q0 -42 12 -60t37 -18q19 0 34 9t32 26l109 498q-5 6 -22 20q-13 10 -36 10zM555 121q-44 -75 -116 -112q-71 -36 -148 -36q-106 0 -178 80q-72 79 -72 250
q0 81 12 176t36 186q25 95 55 171q32 80 69 129q55 71 128 103t144 32q81 0 143 -28q61 -27 107 -93l64 94h309l-147 -700q-6 -22 -7 -34q-2 -24 -2 -34q0 -17 10 -29q9 -10 37 -10h33l-43 -241q-68 -27 -122 -39q-57 -13 -99 -13q-92 0 -147 43q-55 44 -66 105zM311 1290
q46 120 127 181t158 61q48 0 80 -11q39 -14 62 -25q9 -5 26 -13t25 -12q22 -11 49 -11q30 0 55 19t49 53l164 -129q-49 -121 -127 -181q-79 -61 -156 -61q-48 0 -80 11q-38 13 -63 25q-38 18 -52 25q-22 11 -48 11q-30 0 -57 -19q-25 -18 -48 -53z" />
    <glyph glyph-name="adieresis" unicode="&#xe4;" horiz-adv-x="1107" 
d="M604 829q-30 0 -44 -10q-16 -11 -32 -45q-14 -32 -32 -94q-18 -61 -29 -119q-16 -84 -21 -120q-8 -62 -8 -97q0 -42 12 -60t37 -18q19 0 34 9t32 26l109 498q-5 6 -22 20q-13 10 -36 10zM555 121q-44 -75 -116 -112q-71 -36 -148 -36q-106 0 -178 80q-72 79 -72 250
q0 81 12 176t36 186q25 95 55 171q32 80 69 129q55 71 128 103t144 32q81 0 143 -28q61 -27 107 -93l64 94h309l-147 -700q-6 -22 -7 -34q-2 -24 -2 -34q0 -17 10 -29q9 -10 37 -10h33l-43 -241q-68 -27 -122 -39q-57 -13 -99 -13q-92 0 -147 43q-55 44 -66 105zM494 1155
q-79 0 -134 52t-55 130q0 81 52 134q53 55 128 55q39 0 74 -15q37 -16 61 -40q25 -25 40 -60q16 -37 16 -74q0 -38 -15 -71q-17 -37 -39 -58q-25 -24 -59 -39q-31 -14 -69 -14zM936 1155q-41 0 -73 14q-33 14 -59 39q-24 22 -40 58q-14 31 -14 71q0 79 50 134t126 55
q80 0 137 -55q55 -54 55 -134q0 -77 -53 -130q-52 -52 -129 -52z" />
    <glyph glyph-name="aring" unicode="&#xe5;" horiz-adv-x="1107" 
d="M604 829q-30 0 -44 -10q-16 -11 -32 -45q-14 -32 -32 -94q-18 -61 -29 -119q-16 -84 -21 -120q-8 -62 -8 -97q0 -42 12 -60t37 -18q19 0 34 9t32 26l109 498q-5 6 -22 20q-13 10 -36 10zM555 121q-44 -75 -116 -112q-71 -36 -148 -36q-106 0 -178 80q-72 79 -72 250
q0 81 12 176t36 186q25 95 55 171q32 80 69 129q55 71 128 103t144 32q81 0 143 -28q61 -27 107 -93l64 94h309l-147 -700q-6 -22 -7 -34q-2 -24 -2 -34q0 -17 10 -29q9 -10 37 -10h33l-43 -241q-68 -27 -122 -39q-57 -13 -99 -13q-92 0 -147 43q-55 44 -66 105zM473 1446
q23 109 98 161q76 52 187 52q113 0 176 -63t63 -160q0 -31 -6 -64q-23 -111 -96 -162t-180 -51q-117 0 -183 63q-65 62 -65 160q0 30 6 64zM717 1298q59 0 82 105q6 24 6 45q0 33 -13 52q-14 20 -42 20q-36 0 -55 -27q-18 -25 -29 -78q-7 -28 -7 -47q0 -31 15 -50
q15 -20 43 -20z" />
    <glyph glyph-name="ae" unicode="&#xe6;" horiz-adv-x="1427" 
d="M412 225q32 0 55 29l43 197h-31q-35 0 -59 -15q-25 -16 -39 -38q-15 -24 -21 -51t-6 -54q0 -36 16 -52t42 -16zM903 -27q-95 0 -174 33q-81 34 -133 109q-61 -76 -139 -109t-164 -33q-138 0 -221 77q-82 76 -82 224q0 97 32 167q31 68 93 112q59 42 150 62t204 20h78
q7 29 12 56q4 23 4 36q0 90 -100 90q-68 0 -136 -23q-71 -24 -132 -57l-91 244q88 55 191 87q104 32 219 32q164 0 254 -78q123 78 295 78q81 0 148 -23q68 -23 115 -63t75 -100q26 -56 26 -128q0 -187 -136 -266q-137 -80 -431 -80v-22q0 -90 29 -125t112 -35q54 0 111 15
q54 14 137 55l43 -240q-58 -46 -164 -80q-108 -35 -225 -35zM952 836q-23 -34 -42 -76q-18 -41 -29 -125q60 4 104 12q40 7 70 27q26 18 39 49q12 30 12 80q0 84 -64 84q-51 0 -90 -51z" />
    <glyph glyph-name="ccedilla" unicode="&#xe7;" horiz-adv-x="888" 
d="M152 -283q14 -10 49 -25q25 -11 67 -11q45 0 62 16q18 17 18 45q0 49 -80 49q-13 0 -35 -2q-7 -1 -16 -2.5t-10 -1.5l106 211q-122 34 -197 129t-75 254q0 76 13 153q14 85 37 157q27 87 57 145q35 68 77 116q67 78 161 114q93 36 210 36q113 0 199 -28q80 -26 135 -75
l-62 -278h-221v129q-11 6 -16 10t-23 4q-29 0 -55 -26q-27 -27 -45 -93q-2 -6 -9.5 -31t-12.5 -44q-10 -37 -25 -104q-17 -75 -22 -106q-9 -52 -9 -87q0 -66 37 -90q39 -25 94 -25q44 0 86 8q35 7 80 25l72 -223q-53 -39 -132 -66t-194 -27h-14l-35 -65q60 -10 98 -50
q39 -41 39 -110q0 -108 -73 -167q-72 -59 -193 -60q-73 0 -123 15q-48 15 -84 38z" />
    <glyph glyph-name="egrave" unicode="&#xe8;" horiz-adv-x="995" 
d="M41 395q0 97 17 178q19 91 47 162q30 75 69 136q42 65 82 102q79 78 172 102q95 25 203 25q81 0 148 -23q68 -23 115 -63t75 -100q26 -56 26 -128q0 -108 -38 -179t-109 -111q-76 -43 -178 -60q-106 -18 -242 -24v-19q0 -71 29 -103t112 -32q54 0 111 15q54 14 137 55
l43 -240q-58 -46 -164 -80q-108 -35 -225 -35q-207 0 -319 104q-111 103 -111 318zM520 836q-22 -32 -42 -91q-18 -53 -29 -139q122 7 174 53q51 45 51 144q0 84 -64 84q-51 0 -90 -51zM385 1327l182 281l361 -289l-129 -182z" />
    <glyph glyph-name="eacute" unicode="&#xe9;" horiz-adv-x="995" 
d="M41 395q0 97 17 178q19 91 47 162q30 75 69 136q42 65 82 102q79 78 172 102q95 25 203 25q81 0 148 -23q68 -23 115 -63t75 -100q26 -56 26 -128q0 -108 -38 -179t-109 -111q-76 -43 -178 -60q-106 -18 -242 -24v-19q0 -71 29 -103t112 -32q54 0 111 15q54 14 137 55
l43 -240q-58 -46 -164 -80q-108 -35 -225 -35q-207 0 -319 104q-111 103 -111 318zM520 836q-22 -32 -42 -91q-18 -53 -29 -139q122 7 174 53q51 45 51 144q0 84 -64 84q-51 0 -90 -51zM375 1319l409 293l154 -285l-459 -190z" />
    <glyph glyph-name="ecircumflex" unicode="&#xea;" horiz-adv-x="995" 
d="M41 395q0 97 17 178q19 91 47 162q30 75 69 136q42 65 82 102q79 78 172 102q95 25 203 25q81 0 148 -23q68 -23 115 -63t75 -100q26 -56 26 -128q0 -108 -38 -179t-109 -111q-76 -43 -178 -60q-106 -18 -242 -24v-19q0 -71 29 -103t112 -32q54 0 111 15q54 14 137 55
l43 -240q-58 -46 -164 -80q-108 -35 -225 -35q-207 0 -319 104q-111 103 -111 318zM520 836q-22 -32 -42 -91q-18 -53 -29 -139q122 7 174 53q51 45 51 144q0 84 -64 84q-51 0 -90 -51zM307 1288l275 281h221l194 -281l-125 -149l-211 153l-266 -153z" />
    <glyph glyph-name="edieresis" unicode="&#xeb;" horiz-adv-x="995" 
d="M41 395q0 97 17 178q19 91 47 162q30 75 69 136q42 65 82 102q79 78 172 102q95 25 203 25q81 0 148 -23q68 -23 115 -63t75 -100q26 -56 26 -128q0 -108 -38 -179t-109 -111q-76 -43 -178 -60q-106 -18 -242 -24v-19q0 -71 29 -103t112 -32q54 0 111 15q54 14 137 55
l43 -240q-58 -46 -164 -80q-108 -35 -225 -35q-207 0 -319 104q-111 103 -111 318zM520 836q-22 -32 -42 -91q-18 -53 -29 -139q122 7 174 53q51 45 51 144q0 84 -64 84q-51 0 -90 -51zM430 1155q-78 0 -133 52t-55 130q0 81 52 134q53 55 128 55q40 0 74 -15q35 -15 60 -40
q26 -26 41 -60q15 -35 15 -74q0 -40 -14 -71q-16 -36 -40 -58q-26 -24 -58 -39q-31 -14 -70 -14zM872 1155q-40 0 -72 14q-34 15 -60 39q-24 22 -40 58q-14 31 -14 71q0 79 50 134t126 55q80 0 137 -55q56 -54 56 -134q0 -76 -54 -130q-52 -52 -129 -52z" />
    <glyph glyph-name="igrave" unicode="&#xec;" horiz-adv-x="610" 
d="M463 373q-5 -17 -6 -34q-2 -24 -2 -34q0 -19 9 -29t38 -10h33l-43 -241q-60 -27 -117 -39q-62 -13 -105 -13q-59 0 -104 17q-43 16 -71 44t-41 63t-13 75q0 68 12 123l105 489l-76 29l55 260h473zM168 1327l182 281l361 -289l-129 -182z" />
    <glyph glyph-name="iacute" unicode="&#xed;" horiz-adv-x="610" 
d="M463 373q-5 -17 -6 -34q-2 -24 -2 -34q0 -19 9 -29t38 -10h33l-43 -241q-60 -27 -117 -39q-62 -13 -105 -13q-59 0 -104 17q-43 16 -71 44t-41 63t-13 75q0 68 12 123l105 489l-76 29l55 260h473zM158 1319l409 293l154 -285l-459 -190z" />
    <glyph glyph-name="icircumflex" unicode="&#xee;" horiz-adv-x="610" 
d="M463 373q-5 -17 -6 -34q-2 -24 -2 -34q0 -19 9 -29t38 -10h33l-43 -241q-60 -27 -117 -39q-62 -13 -105 -13q-59 0 -104 17q-43 16 -71 44t-41 63t-13 75q0 68 12 123l105 489l-76 29l55 260h473zM90 1288l275 281h221l194 -281l-125 -149l-211 153l-266 -153z" />
    <glyph glyph-name="idieresis" unicode="&#xef;" horiz-adv-x="610" 
d="M463 373q-5 -17 -6 -34q-2 -24 -2 -34q0 -19 9 -29t38 -10h33l-43 -241q-60 -27 -117 -39q-62 -13 -105 -13q-59 0 -104 17q-43 16 -71 44t-41 63t-13 75q0 68 12 123l105 489l-76 29l55 260h473zM215 1155q-78 0 -133 52t-55 130q0 81 52 134q53 55 128 55q39 0 74 -15
t60 -40q26 -26 41 -60q15 -35 15 -74q0 -40 -14 -71q-16 -36 -40 -58q-26 -24 -58 -39q-31 -14 -70 -14zM657 1155q-40 0 -72 14q-35 15 -60 39q-24 22 -40 58q-14 31 -14 71q0 79 50 134t126 55q80 0 137 -55q56 -54 56 -134q0 -76 -54 -130q-52 -52 -129 -52z" />
    <glyph glyph-name="eth" unicode="&#xf0;" horiz-adv-x="1060" 
d="M467 1565q82 -37 165 -88q69 -42 142 -105l215 94l53 -127l-165 -73q74 -95 114 -212q41 -120 41 -270q0 -94 -12 -190q-11 -89 -37 -183q-25 -91 -58 -161q-36 -76 -77 -123q-67 -81 -161 -118q-93 -36 -210 -36q-223 0 -331 114q-107 113 -107 312q0 122 38 233
q36 105 91 185q61 87 142 124q84 38 179 38q49 0 98 -15q51 -15 79 -42q-4 51 -26 108q-21 56 -56 109l-287 -127l-53 127l256 112q-32 36 -73 69q-29 23 -73 50zM465 209q24 0 38 11q17 13 32 44q2 5 25 70q16 45 34 111q18 64 29 121q12 60 12 100q0 79 -53 79
q-24 0 -38 -11q-17 -13 -32 -44q-10 -18 -27 -69q-8 -25 -32 -112q-18 -64 -29 -121q-12 -60 -12 -99q0 -80 53 -80z" />
    <glyph glyph-name="ntilde" unicode="&#xf1;" horiz-adv-x="1128" 
d="M90 813l55 260h396v-129q133 156 313 156q110 0 172 -67q61 -65 61 -185q0 -32 -4 -56q-1 -3 -4.5 -25.5t-5.5 -35.5l-76 -358q-5 -17 -6 -34q-2 -24 -2 -34q0 -19 9 -29t38 -10h33l-43 -241q-60 -27 -117 -39q-62 -13 -104 -13q-60 0 -105 17q-42 16 -70 44t-41 63
q-14 37 -14 75q0 63 13 123l86 401q2 14 3 20t1 17q0 53 -43 53q-51 0 -84 -32l-160 -754h-391l166 784zM276 1290q46 120 127 181t158 61q48 0 80 -11q39 -14 62 -25q9 -5 26.5 -13t25.5 -12q22 -11 48 -11q30 0 55 19t49 53l164 -129q-49 -121 -127 -181q-79 -61 -156 -61
q-47 0 -79 11q-42 15 -64 25q-38 18 -52 25q-22 11 -48 11q-30 0 -57 -19q-25 -18 -48 -53z" />
    <glyph glyph-name="ograve" unicode="&#xf2;" horiz-adv-x="1062" 
d="M1022 684q0 -91 -17 -180q-18 -97 -52 -180q-35 -87 -81 -158q-47 -72 -104 -113q-60 -43 -132 -61q-74 -19 -163 -19q-203 0 -318 106q-114 105 -114 312q0 91 17 179q19 98 52 180q38 93 79 156q48 73 106 112q59 42 132 62q72 20 163 20q204 0 318 -105t114 -311z
M653 788q0 45 -13 59q-14 15 -42 15q-18 0 -33 -6q-14 -5 -26 -27q-12 -23 -22 -52q-8 -23 -28 -88q-9 -29 -27 -108q-6 -24 -25 -114q-7 -31 -18 -101q-7 -43 -7 -71q0 -86 53 -86q18 0 33 6q14 5 26 27q13 23 35 94q20 66 43 162q22 92 36 170q15 83 15 120zM418 1327
l182 281l361 -289l-130 -182z" />
    <glyph glyph-name="oacute" unicode="&#xf3;" horiz-adv-x="1062" 
d="M1022 684q0 -91 -17 -180q-18 -97 -52 -180q-35 -87 -81 -158q-47 -72 -104 -113q-60 -43 -132 -61q-74 -19 -163 -19q-203 0 -318 106q-114 105 -114 312q0 91 17 179q19 98 52 180q38 93 79 156q48 73 106 112q59 42 132 62q72 20 163 20q204 0 318 -105t114 -311z
M653 788q0 45 -13 59q-14 15 -42 15q-18 0 -33 -6q-14 -5 -26 -27q-12 -23 -22 -52q-8 -23 -28 -88q-9 -29 -27 -108q-6 -24 -25 -114q-7 -31 -18 -101q-7 -43 -7 -71q0 -86 53 -86q18 0 33 6q14 5 26 27q13 23 35 94q20 66 43 162q22 92 36 170q15 83 15 120zM387 1319
l410 293l153 -285l-458 -190z" />
    <glyph glyph-name="ocircumflex" unicode="&#xf4;" horiz-adv-x="1062" 
d="M1022 684q0 -91 -17 -180q-18 -97 -52 -180q-35 -87 -81 -158q-47 -72 -104 -113q-60 -43 -132 -61q-74 -19 -163 -19q-203 0 -318 106q-114 105 -114 312q0 91 17 179q19 98 52 180q38 93 79 156q48 73 106 112q59 42 132 62q72 20 163 20q204 0 318 -105t114 -311z
M653 788q0 45 -13 59q-14 15 -42 15q-18 0 -33 -6q-14 -5 -26 -27q-12 -23 -22 -52q-8 -23 -28 -88q-9 -29 -27 -108q-6 -24 -25 -114q-7 -31 -18 -101q-7 -43 -7 -71q0 -86 53 -86q18 0 33 6q14 5 26 27q13 23 35 94q20 66 43 162q22 92 36 170q15 83 15 120zM319 1288
l275 281h221l195 -281l-125 -149l-211 153l-266 -153z" />
    <glyph glyph-name="otilde" unicode="&#xf5;" horiz-adv-x="1062" 
d="M1022 684q0 -91 -17 -180q-18 -97 -52 -180q-35 -87 -81 -158q-47 -72 -104 -113q-60 -43 -132 -61q-74 -19 -163 -19q-203 0 -318 106q-114 105 -114 312q0 91 17 179q19 98 52 180q38 93 79 156q48 73 106 112q59 42 132 62q72 20 163 20q204 0 318 -105t114 -311z
M653 788q0 45 -13 59q-14 15 -42 15q-18 0 -33 -6q-14 -5 -26 -27q-12 -23 -22 -52q-8 -23 -28 -88q-9 -29 -27 -108q-6 -24 -25 -114q-7 -31 -18 -101q-7 -43 -7 -71q0 -86 53 -86q18 0 33 6q14 5 26 27q13 23 35 94q20 66 43 162q22 92 36 170q15 83 15 120zM285 1290
q46 120 127 181t157 61q48 0 80 -11q43 -15 63 -25q9 -5 26 -13t25 -12q22 -11 48 -11q30 0 55 19t49 53l164 -129q-49 -121 -127 -181q-79 -61 -155 -61q-48 0 -80 11q-42 15 -64 25q-38 18 -52 25q-22 11 -48 11q-29 0 -56 -19q-25 -18 -48 -53z" />
    <glyph glyph-name="odieresis" unicode="&#xf6;" horiz-adv-x="1062" 
d="M1022 684q0 -91 -17 -180q-18 -97 -52 -180q-35 -87 -81 -158q-47 -72 -104 -113q-60 -43 -132 -61q-74 -19 -163 -19q-203 0 -318 106q-114 105 -114 312q0 91 17 179q19 98 52 180q38 93 79 156q48 73 106 112q59 42 132 62q72 20 163 20q204 0 318 -105t114 -311z
M653 788q0 45 -13 59q-14 15 -42 15q-18 0 -33 -6q-14 -5 -26 -27q-12 -23 -22 -52q-8 -23 -28 -88q-9 -29 -27 -108q-6 -24 -25 -114q-7 -31 -18 -101q-7 -43 -7 -71q0 -86 53 -86q18 0 33 6q14 5 26 27q13 23 35 94q20 66 43 162q22 92 36 170q15 83 15 120zM463 1155
q-78 0 -133 52q-56 53 -56 130q0 79 53 134t128 55q39 0 73 -15q37 -16 61 -40q26 -26 41 -60q15 -35 15 -74q0 -40 -14 -71q-16 -36 -40 -58q-25 -24 -59 -39q-31 -14 -69 -14zM905 1155q-40 0 -72 14q-35 15 -60 39q-24 22 -40 58q-14 31 -14 71q0 79 50 134t126 55
q80 0 137 -55q55 -54 55 -134q0 -77 -53 -130q-52 -52 -129 -52z" />
    <glyph glyph-name="divide" unicode="&#xf7;" 
d="M139 872h975l-65 -315h-975zM512 66q-42 0 -76 15t-62 43q-29 29 -43 63q-16 38 -16 77q0 37 16 75q14 33 43 62q27 27 62 42q37 16 76 16q36 0 76 -16q35 -14 63 -42q27 -27 43 -62q17 -37 17 -75q0 -40 -17 -77t-43 -63q-30 -30 -63 -43q-38 -15 -76 -15zM672 971
q-42 0 -76 15t-62 43q-30 30 -44 64q-15 36 -15 76q0 39 15 75q14 33 44 63q27 27 62 42t76 15q38 0 76 -15q35 -14 63 -42q26 -26 43 -63q16 -35 16 -75q0 -41 -16 -76q-18 -39 -43 -64q-30 -30 -63 -43q-37 -15 -76 -15z" />
    <glyph glyph-name="oslash" unicode="&#xf8;" horiz-adv-x="1062" 
d="M121 117q-80 101 -80 274q0 91 17 179q19 98 52 180q38 93 79 156q48 73 106 112q59 42 132 62q72 20 163 20q131 0 231 -47l146 194l129 -100l-150 -197q76 -104 76 -266q0 -91 -17 -180q-18 -97 -52 -180q-35 -87 -81 -158q-47 -72 -104 -113q-60 -43 -132 -61
q-74 -19 -163 -19q-137 0 -227 43l-146 -192l-125 98zM455 754q-30 -69 -53 -146q-21 -71 -33 -159l290 389q-16 16 -32 22q-17 6 -29 6q-42 0 -80 -24q-35 -22 -63 -88zM465 203q43 0 80 24q35 22 63 88q24 56 49 141q24 81 35 154l-286 -381q14 -14 30 -20q17 -6 29 -6z
" />
    <glyph glyph-name="ugrave" unicode="&#xf9;" horiz-adv-x="1122" 
d="M70 813l55 260h473l-152 -713q-2 -10 -3 -18q-1 -5 -1 -16q0 -56 45 -56q39 0 80 29l164 774h391l-147 -700q-5 -17 -6 -34q-2 -24 -2 -34q0 -19 9 -29t38 -10h33l-43 -241q-64 -27 -120 -40q-54 -12 -102 -12q-91 0 -144 41q-52 40 -69 99q-61 -70 -133 -106
q-68 -34 -157 -34q-112 0 -175 69t-63 194q0 65 14 124l90 424zM414 1327l182 281l360 -289l-129 -182z" />
    <glyph glyph-name="uacute" unicode="&#xfa;" horiz-adv-x="1122" 
d="M70 813l55 260h473l-152 -713q-2 -10 -3 -18q-1 -5 -1 -16q0 -56 45 -56q39 0 80 29l164 774h391l-147 -700q-5 -17 -6 -34q-2 -24 -2 -34q0 -19 9 -29t38 -10h33l-43 -241q-64 -27 -120 -40q-54 -12 -102 -12q-91 0 -144 41q-52 40 -69 99q-61 -70 -133 -106
q-68 -34 -157 -34q-112 0 -175 69t-63 194q0 65 14 124l90 424zM444 1319l410 293l154 -285l-459 -190z" />
    <glyph glyph-name="ucircumflex" unicode="&#xfb;" horiz-adv-x="1122" 
d="M70 813l55 260h473l-152 -713q-2 -10 -3 -18q-1 -5 -1 -16q0 -56 45 -56q39 0 80 29l164 774h391l-147 -700q-5 -17 -6 -34q-2 -24 -2 -34q0 -19 9 -29t38 -10h33l-43 -241q-64 -27 -120 -40q-54 -12 -102 -12q-91 0 -144 41q-52 40 -69 99q-61 -70 -133 -106
q-68 -34 -157 -34q-112 0 -175 69t-63 194q0 65 14 124l90 424zM356 1288l275 281h221l195 -281l-125 -149l-211 153l-267 -153z" />
    <glyph glyph-name="udieresis" unicode="&#xfc;" horiz-adv-x="1122" 
d="M70 813l55 260h473l-152 -713q-2 -10 -3 -18q-1 -5 -1 -16q0 -56 45 -56q39 0 80 29l164 774h391l-147 -700q-5 -17 -6 -34q-2 -24 -2 -34q0 -19 9 -29t38 -10h33l-43 -241q-64 -27 -120 -40q-54 -12 -102 -12q-91 0 -144 41q-52 40 -69 99q-61 -70 -133 -106
q-68 -34 -157 -34q-112 0 -175 69t-63 194q0 65 14 124l90 424zM481 1155q-78 0 -133 52t-55 130q0 81 52 134q53 55 128 55q39 0 74 -15t60 -40q26 -26 41 -60q16 -37 16 -74q0 -38 -15 -71q-16 -36 -40 -58q-26 -24 -58 -39q-31 -14 -70 -14zM924 1155q-41 0 -73 14
q-33 14 -59 39q-24 22 -40 58q-15 33 -15 71q0 79 50 134t126 55q81 0 138 -55q55 -54 55 -134q0 -77 -53 -130q-52 -52 -129 -52z" />
    <glyph glyph-name="yacute" unicode="&#xfd;" horiz-adv-x="987" 
d="M586 0q-50 -102 -105 -174q-56 -73 -120 -119q-67 -48 -138 -73t-157 -37l-129 309q63 4 120 9q59 5 105 18q47 14 82 38q34 24 57 68h-135l-51 741l-74 33l55 260h381l10 -438q0 -60 -1 -86q-2 -50 -4 -74q-2 -23 -6 -71q-4 -52 -7 -76h2q15 76 36 156q20 76 54 149
l195 440h344zM395 1319l410 293l153 -285l-458 -190z" />
    <glyph glyph-name="thorn" unicode="&#xfe;" horiz-adv-x="1122" 
d="M682 743q0 43 -12 58q-11 14 -39 14q-37 0 -72 -35l-108 -510q6 -8 21 -20q13 -10 36 -10q30 0 47 11q19 13 35 46q15 29 30 88q4 16 29 126q15 64 24 130q9 63 9 102zM184 1257l54 248h473l-111 -522q44 63 108 90t130 27q105 0 174 -80t69 -250q0 -82 -15 -177
q-14 -90 -41 -186q-27 -98 -59 -171q-37 -85 -71 -130q-55 -72 -126 -102q-73 -31 -153 -31q-74 0 -127 31q-49 29 -77 100l-50 -233l82 -18l-51 -240h-559l51 240l88 18l287 1358z" />
    <glyph glyph-name="ydieresis" unicode="&#xff;" horiz-adv-x="987" 
d="M586 0q-50 -102 -105 -174q-56 -73 -120 -119q-67 -48 -138 -73t-157 -37l-129 309q63 4 120 9q59 5 105 18q47 14 82 38q34 24 57 68h-135l-51 741l-74 33l55 260h381l10 -438q0 -60 -1 -86q-2 -50 -4 -74q-2 -23 -6 -71q-4 -52 -7 -76h2q15 76 36 156q20 76 54 149
l195 440h344zM430 1155q-78 0 -133 52t-55 130q0 81 52 134q53 55 128 55q40 0 74 -15q35 -15 60 -40q26 -26 41 -60q15 -35 15 -74q0 -40 -14 -71q-16 -36 -40 -58q-26 -24 -58 -39q-31 -14 -70 -14zM872 1155q-40 0 -72 14q-34 15 -60 39q-24 22 -40 58q-14 31 -14 71
q0 79 50 134t126 55q80 0 137 -55q56 -54 56 -134q0 -76 -54 -130q-52 -52 -129 -52z" />
    <glyph glyph-name="Amacron" unicode="&#x100;" horiz-adv-x="1361" 
d="M752 373h-320l-47 -105l88 -32l-51 -236h-500l51 236l90 32l574 1159h461l78 -1159l88 -32l-52 -236h-596l52 236l88 32zM549 621h190l-4 108q-5 77 -6 163q-2 103 2 183h-4q-25 -97 -58 -182q-35 -90 -69 -162zM649 1812h584l-62 -284h-583z" />
    <glyph glyph-name="amacron" unicode="&#x101;" horiz-adv-x="1107" 
d="M604 829q-30 0 -44 -10q-16 -11 -32 -45q-14 -32 -32 -94q-18 -61 -29 -119q-16 -84 -21 -120q-8 -62 -8 -97q0 -42 12 -60t37 -18q19 0 34 9t32 26l109 498q-5 6 -22 20q-13 10 -36 10zM555 121q-44 -75 -116 -112q-71 -36 -148 -36q-106 0 -178 80q-72 79 -72 250
q0 81 12 176t36 186q25 95 55 171q32 80 69 129q55 71 128 103t144 32q81 0 143 -28q61 -27 107 -93l64 94h309l-147 -700q-6 -22 -7 -34q-2 -24 -2 -34q0 -17 10 -29q9 -10 37 -10h33l-43 -241q-68 -27 -122 -39q-57 -13 -99 -13q-92 0 -147 43q-55 44 -66 105zM465 1491
h584l-62 -285h-584z" />
    <glyph glyph-name="Abreve" unicode="&#x102;" horiz-adv-x="1361" 
d="M752 373h-320l-47 -105l88 -32l-51 -236h-500l51 236l90 32l574 1159h461l78 -1159l88 -32l-52 -236h-596l52 236l88 32zM549 621h190l-4 108q-5 77 -6 163q-2 103 2 183h-4q-25 -97 -58 -182q-35 -90 -69 -162zM893 1503q-97 0 -162 34t-107 85t-60 114q-17 58 -15 119
l262 39q6 -43 29 -71q22 -27 69 -27q48 0 72 27q25 29 41 71l260 -45q-10 -58 -42 -120q-32 -61 -82 -112t-118 -82q-69 -32 -147 -32z" />
    <glyph glyph-name="abreve" unicode="&#x103;" horiz-adv-x="1107" 
d="M604 829q-30 0 -44 -10q-16 -11 -32 -45q-14 -32 -32 -94q-18 -61 -29 -119q-16 -84 -21 -120q-8 -62 -8 -97q0 -42 12 -60t37 -18q19 0 34 9t32 26l109 498q-5 6 -22 20q-13 10 -36 10zM555 121q-44 -75 -116 -112q-71 -36 -148 -36q-106 0 -178 80q-72 79 -72 250
q0 81 12 176t36 186q25 95 55 171q32 80 69 129q55 71 128 103t144 32q81 0 143 -28q61 -27 107 -93l64 94h309l-147 -700q-6 -22 -7 -34q-2 -24 -2 -34q0 -17 10 -29q9 -10 37 -10h33l-43 -241q-68 -27 -122 -39q-57 -13 -99 -13q-92 0 -147 43q-55 44 -66 105zM705 1159
q-97 0 -162 34q-67 35 -108 85q-40 49 -59 114q-18 61 -16 119l263 39q6 -45 28 -71q22 -27 70 -27t72 27q25 29 41 71l260 -45q-10 -59 -42 -121q-30 -59 -82 -111q-50 -51 -118 -82q-69 -32 -147 -32z" />
    <glyph glyph-name="Aogonek" unicode="&#x104;" horiz-adv-x="1361" 
d="M803 -479q-111 0 -166 56t-55 155q0 90 57 156q58 67 137 112h-160l52 236l88 32l-4 105h-320l-47 -105l88 -32l-51 -236h-500l51 236l90 32l574 1159h461l78 -1159l88 -32l-52 -236h-198q-83 -65 -108 -100q-27 -39 -27 -80q0 -20 9 -35q8 -14 36 -14q29 0 50 9
q25 11 38 19l43 -190q-41 -41 -106 -65q-62 -23 -146 -23zM549 621h190l-4 108q-5 77 -6 163q-2 103 2 183h-4q-25 -97 -58 -182q-35 -90 -69 -162z" />
    <glyph glyph-name="aogonek" unicode="&#x105;" horiz-adv-x="1107" 
d="M698 -479q-111 0 -166 56t-55 155q0 85 53 150t132 112q-95 39 -107 127q-44 -75 -116 -112q-71 -36 -148 -36q-106 0 -178 80q-72 79 -72 250q0 81 12 176t36 186q25 95 55 171q32 80 69 129q55 71 128 103t144 32q81 0 143 -28q61 -27 107 -93l64 94h309l-147 -700
q-6 -22 -7 -34q-2 -24 -2 -34q0 -17 10 -29q9 -10 37 -10h33l-43 -241q-116 -34 -166 -92q-49 -56 -49 -113q0 -20 9 -35q8 -14 36 -14q29 0 50 9q25 11 38 19l43 -190q-41 -41 -105 -65q-62 -23 -147 -23zM604 829q-30 0 -44 -10q-16 -11 -32 -45q-14 -32 -32 -94
q-18 -61 -29 -119q-16 -84 -21 -120q-8 -62 -8 -97q0 -42 12 -60t37 -18q19 0 34 9t32 26l109 498q-5 6 -22 20q-13 10 -36 10z" />
    <glyph glyph-name="Cacute" unicode="&#x106;" horiz-adv-x="1114" 
d="M588 236q23 0 50 3q29 3 46 13l88 168h279l-78 -346q-43 -27 -99 -48q-49 -18 -108 -31t-109 -17q-58 -5 -96 -5q-99 0 -190 24q-95 25 -162 79q-71 57 -112 145q-42 90 -42 221q0 100 18 218q19 127 50 233q34 117 82 216q50 104 114 169q91 95 209 136q116 40 275 40
q120 0 227 -35q104 -34 176 -94l-71 -311h-273v151q-33 27 -80 27q-39 0 -74 -17q-40 -19 -73 -83q-23 -42 -50 -122q-35 -105 -53 -178q-23 -92 -40 -196q-17 -102 -17 -174q0 -90 24 -138t89 -48zM553 1663l410 293l153 -285l-459 -190z" />
    <glyph glyph-name="cacute" unicode="&#x107;" horiz-adv-x="888" 
d="M41 379q0 76 13 153q14 85 37 157q27 87 57 145q35 68 77 116q67 78 161 114q93 36 210 36q113 0 199 -28q80 -26 135 -75l-62 -278h-221v129q-11 6 -16 10t-23 4q-29 0 -55 -26q-27 -27 -45 -93q-2 -6 -9.5 -31t-12.5 -44q-10 -37 -25 -104q-17 -75 -22 -106
q-9 -52 -9 -87q0 -66 37 -90q39 -25 94 -25q44 0 86 8q35 7 80 25l72 -223q-53 -39 -132 -66t-194 -27q-86 0 -169 25q-77 23 -137 74q-57 48 -92 126q-34 75 -34 181zM383 1319l410 293l153 -285l-459 -190z" />
    <glyph glyph-name="Ccircumflex" unicode="&#x108;" horiz-adv-x="1114" 
d="M588 236q23 0 50 3q29 3 46 13l88 168h279l-78 -346q-43 -27 -99 -48q-49 -18 -108 -31t-109 -17q-58 -5 -96 -5q-99 0 -190 24q-95 25 -162 79q-71 57 -112 145q-42 90 -42 221q0 100 18 218q19 127 50 233q34 117 82 216q50 104 114 169q91 95 209 136q116 40 275 40
q120 0 227 -35q104 -34 176 -94l-71 -311h-273v151q-33 27 -80 27q-39 0 -74 -17q-40 -19 -73 -83q-23 -42 -50 -122q-35 -105 -53 -178q-23 -92 -40 -196q-17 -102 -17 -174q0 -90 24 -138t89 -48zM487 1642l275 281h221l195 -281l-125 -149l-211 154l-267 -154z" />
    <glyph glyph-name="ccircumflex" unicode="&#x109;" horiz-adv-x="888" 
d="M41 379q0 76 13 153q14 85 37 157q27 87 57 145q35 68 77 116q67 78 161 114q93 36 210 36q113 0 199 -28q80 -26 135 -75l-62 -278h-221v129q-11 6 -16 10t-23 4q-29 0 -55 -26q-27 -27 -45 -93q-2 -6 -9.5 -31t-12.5 -44q-10 -37 -25 -104q-17 -75 -22 -106
q-9 -52 -9 -87q0 -66 37 -90q39 -25 94 -25q44 0 86 8q35 7 80 25l72 -223q-53 -39 -132 -66t-194 -27q-86 0 -169 25q-77 23 -137 74q-57 48 -92 126q-34 75 -34 181zM279 1288l274 281h221l195 -281l-125 -149l-211 153l-266 -153z" />
    <glyph glyph-name="Cdotaccent" unicode="&#x10a;" horiz-adv-x="1114" 
d="M588 236q23 0 50 3q29 3 46 13l88 168h279l-78 -346q-43 -27 -99 -48q-49 -18 -108 -31t-109 -17q-58 -5 -96 -5q-99 0 -190 24q-95 25 -162 79q-71 57 -112 145q-42 90 -42 221q0 100 18 218q19 127 50 233q34 117 82 216q50 104 114 169q91 95 209 136q116 40 275 40
q120 0 227 -35q104 -34 176 -94l-71 -311h-273v151q-33 27 -80 27q-39 0 -74 -17q-40 -19 -73 -83q-23 -42 -50 -122q-35 -105 -53 -178q-23 -92 -40 -196q-17 -102 -17 -174q0 -90 24 -138t89 -48zM834 1509q-48 0 -89 18t-71 48t-48 71q-18 40 -18 87q0 45 18 86t48 71
t71 48t89 18t88 -18q41 -18 71 -48t48 -71t18 -86q0 -47 -18 -87q-18 -41 -48 -71t-71 -48q-40 -18 -88 -18z" />
    <glyph glyph-name="cdotaccent" unicode="&#x10b;" horiz-adv-x="888" 
d="M41 379q0 76 13 153q14 85 37 157q27 87 57 145q35 68 77 116q67 78 161 114q93 36 210 36q113 0 199 -28q80 -26 135 -75l-62 -278h-221v129q-11 6 -16 10t-23 4q-29 0 -55 -26q-27 -27 -45 -93q-2 -6 -9.5 -31t-12.5 -44q-10 -37 -25 -104q-17 -75 -22 -106
q-9 -52 -9 -87q0 -66 37 -90q39 -25 94 -25q44 0 86 8q35 7 80 25l72 -223q-53 -39 -132 -66t-194 -27q-86 0 -169 25q-77 23 -137 74q-57 48 -92 126q-34 75 -34 181zM653 1135q-46 0 -84 16q-39 16 -67 46t-45 69q-17 40 -17 82t17 82q16 37 45 68q28 30 67 46
q40 17 84 17q42 0 82 -17q41 -17 68 -46q29 -31 45 -68q16 -38 16 -82t-16 -82q-16 -39 -45 -69q-27 -29 -68 -46q-38 -16 -82 -16z" />
    <glyph glyph-name="Ccaron" unicode="&#x10c;" horiz-adv-x="1114" 
d="M588 236q23 0 50 3q29 3 46 13l88 168h279l-78 -346q-43 -27 -99 -48q-49 -18 -108 -31t-109 -17q-58 -5 -96 -5q-99 0 -190 24q-95 25 -162 79q-71 57 -112 145q-42 90 -42 221q0 100 18 218q19 127 50 233q34 117 82 216q50 104 114 169q91 95 209 136q116 40 275 40
q120 0 227 -35q104 -34 176 -94l-71 -311h-273v151q-33 27 -80 27q-39 0 -74 -17q-40 -19 -73 -83q-23 -42 -50 -122q-35 -105 -53 -178q-23 -92 -40 -196q-17 -102 -17 -174q0 -90 24 -138t89 -48zM1182 1812l-275 -280h-221l-194 280l124 150l211 -154l267 154z" />
    <glyph glyph-name="ccaron" unicode="&#x10d;" horiz-adv-x="888" 
d="M41 379q0 76 13 153q14 85 37 157q27 87 57 145q35 68 77 116q67 78 161 114q93 36 210 36q113 0 199 -28q80 -26 135 -75l-62 -278h-221v129q-11 6 -16 10t-23 4q-29 0 -55 -26q-27 -27 -45 -93q-2 -6 -9.5 -31t-12.5 -44q-10 -37 -25 -104q-17 -75 -22 -106
q-9 -52 -9 -87q0 -66 37 -90q39 -25 94 -25q44 0 86 8q35 7 80 25l72 -223q-53 -39 -132 -66t-194 -27q-86 0 -169 25q-77 23 -137 74q-57 48 -92 126q-34 75 -34 181zM1012 1448l-275 -281h-221l-194 281l124 149l211 -153l267 153z" />
    <glyph glyph-name="Dcaron" unicode="&#x10e;" horiz-adv-x="1286" 
d="M-78 0l49 236l119 32l189 891l-105 33l51 235h602q453 0 453 -479q0 -104 -18 -223q-18 -116 -53 -230q-36 -115 -84 -207q-51 -96 -113 -153q-152 -135 -453 -135h-637zM692 1161l-190 -893h84q52 0 81 13q27 12 50 53q12 18 27 65q12 37 33 109q16 53 34 132
q19 80 29 139q14 82 20 128q8 64 8 101q0 93 -26 122q-28 31 -76 31h-74zM1161 1792l-274 -281h-221l-195 281l125 150l211 -154l266 154z" />
    <glyph glyph-name="dcaron" unicode="&#x10f;" horiz-adv-x="1107" 
d="M604 829q-30 0 -44 -10q-16 -11 -32 -45q-14 -32 -32 -94q-18 -61 -29 -119q-16 -84 -21 -120q-8 -62 -8 -97q0 -42 12 -60t37 -18q19 0 34 9t32 26l109 498q-5 6 -22 20q-13 10 -36 10zM750 1229l-76 28l53 248h473l-239 -1132q-6 -22 -7 -34q-2 -24 -2 -34
q0 -17 10 -29q9 -10 37 -10h33l-43 -241q-68 -27 -122 -39q-57 -13 -99 -13q-92 0 -147 43q-55 44 -66 105q-44 -75 -116 -112q-71 -36 -148 -36q-106 0 -178 80q-72 79 -72 250q0 81 12 176t36 186q25 95 55 171q32 80 69 129q55 71 128 103t144 32q65 0 123 -23
q57 -23 94 -71zM1597 1505l-157 -375h-240l80 375h317z" />
    <glyph glyph-name="Dcroat" unicode="&#x110;" horiz-adv-x="1286" 
d="M111 842h100l68 317l-105 33l51 235h602q453 0 453 -479q0 -104 -18 -222q-16 -107 -54 -230q-35 -115 -84 -208q-51 -98 -112 -153q-72 -66 -176 -100q-107 -35 -258 -35h-656l49 236l119 32l68 320h-103zM692 1161l-67 -319h127l-56 -254h-127l-67 -320h84q52 0 81 13
q27 12 50 53q12 18 27 65q12 37 33 109q16 53 34 132q19 80 29 139q14 82 20 128q8 64 8 101q0 93 -26 122q-28 31 -76 31h-74z" />
    <glyph glyph-name="dcroat" unicode="&#x111;" horiz-adv-x="1107" 
d="M530 1249h224l8 41l-76 29l41 186h473l-55 -256h92l-33 -149h-90l-153 -727q-6 -22 -7 -34q-2 -24 -2 -34q0 -17 10 -29q9 -10 37 -10h33l-43 -241q-68 -27 -122 -39q-57 -13 -99 -13q-92 0 -147 43q-55 44 -66 105q-44 -75 -116 -112q-71 -36 -148 -36q-106 0 -178 80
q-72 79 -72 250q0 89 11 170q12 87 33 172q20 81 52 157q30 72 68 122q55 71 128 103t144 32q65 0 123 -23q57 -23 94 -71l27 135h-223zM596 788q-30 0 -44 -10q-16 -11 -32 -45q-18 -41 -32 -87q-11 -36 -26 -104q-12 -53 -18 -107q-6 -52 -6 -91q0 -42 12 -60t37 -18
q19 0 34 9t32 26l100 457q-6 8 -21 20q-13 10 -36 10z" />
    <glyph glyph-name="Emacron" unicode="&#x112;" horiz-adv-x="1097" 
d="M911 516h-204l-17 84h-117l-71 -334h196l86 172h256l-92 -438h-1026l49 236l119 32l189 891l-105 33l51 235h1004l-88 -409h-254l-6 143h-189l-63 -303h119l49 82h204zM512 1812h584l-62 -284h-583z" />
    <glyph glyph-name="emacron" unicode="&#x113;" horiz-adv-x="995" 
d="M41 395q0 97 17 178q19 91 47 162q30 75 69 136q42 65 82 102q79 78 172 102q95 25 203 25q81 0 148 -23q68 -23 115 -63t75 -100q26 -56 26 -128q0 -108 -38 -179t-109 -111q-76 -43 -178 -60q-106 -18 -242 -24v-19q0 -71 29 -103t112 -32q54 0 111 15q54 14 137 55
l43 -240q-58 -46 -164 -80q-108 -35 -225 -35q-207 0 -319 104q-111 103 -111 318zM520 836q-22 -32 -42 -91q-18 -53 -29 -139q122 7 174 53q51 45 51 144q0 84 -64 84q-51 0 -90 -51zM389 1491h584l-62 -285h-583z" />
    <glyph glyph-name="Ebreve" unicode="&#x114;" horiz-adv-x="1097" 
d="M911 516h-204l-17 84h-117l-71 -334h196l86 172h256l-92 -438h-1026l49 236l119 32l189 891l-105 33l51 235h1004l-88 -409h-254l-6 143h-189l-63 -303h119l49 82h204zM735 1503q-97 0 -162 34t-107 85q-40 49 -59 114q-18 61 -16 119l262 39q6 -43 29 -71q23 -27 70 -27
t71 27q25 29 41 71l260 -45q-10 -58 -42 -120q-32 -61 -82 -112q-51 -51 -117 -82q-69 -32 -148 -32z" />
    <glyph glyph-name="ebreve" unicode="&#x115;" horiz-adv-x="995" 
d="M41 395q0 97 17 178q19 91 47 162q30 75 69 136q42 65 82 102q79 78 172 102q95 25 203 25q81 0 148 -23q68 -23 115 -63t75 -100q26 -56 26 -128q0 -108 -38 -179t-109 -111q-76 -43 -178 -60q-106 -18 -242 -24v-19q0 -71 29 -103t112 -32q54 0 111 15q54 14 137 55
l43 -240q-58 -46 -164 -80q-108 -35 -225 -35q-207 0 -319 104q-111 103 -111 318zM520 836q-22 -32 -42 -91q-18 -53 -29 -139q122 7 174 53q51 45 51 144q0 84 -64 84q-51 0 -90 -51zM670 1159q-97 0 -162 34q-67 35 -108 85q-40 49 -59 114q-17 58 -15 119l262 39
q6 -45 28 -71q22 -27 70 -27t72 27q25 29 41 71l260 -45q-10 -59 -42 -121q-30 -59 -82 -111q-51 -51 -118 -82q-69 -32 -147 -32z" />
    <glyph glyph-name="Edotaccent" unicode="&#x116;" horiz-adv-x="1097" 
d="M911 516h-204l-17 84h-117l-71 -334h196l86 172h256l-92 -438h-1026l49 236l119 32l189 891l-105 33l51 235h1004l-88 -409h-254l-6 143h-189l-63 -303h119l49 82h204zM741 1489q-50 0 -88 17q-41 18 -71 48t-48 71t-18 87t18 86q19 43 48 72q30 30 71 48q38 17 88 17
t88 -17q43 -19 72 -48t48 -72q18 -40 18 -86t-18 -87t-48 -71q-29 -29 -72 -48q-38 -17 -88 -17z" />
    <glyph glyph-name="edotaccent" unicode="&#x117;" horiz-adv-x="995" 
d="M41 395q0 97 17 178q19 91 47 162q30 75 69 136q42 65 82 102q79 78 172 102q95 25 203 25q81 0 148 -23q68 -23 115 -63t75 -100q26 -56 26 -128q0 -108 -38 -179t-109 -111q-76 -43 -178 -60q-106 -18 -242 -24v-19q0 -71 29 -103t112 -32q54 0 111 15q54 14 137 55
l43 -240q-58 -46 -164 -80q-108 -35 -225 -35q-207 0 -319 104q-111 103 -111 318zM520 836q-22 -32 -42 -91q-18 -53 -29 -139q122 7 174 53q51 45 51 144q0 84 -64 84q-51 0 -90 -51zM645 1135q-46 0 -84 16q-39 16 -67 46t-45 69q-17 40 -17 82t17 82q16 37 45 68
q28 30 67 46q40 17 84 17q42 0 82 -17q41 -17 68 -46q29 -31 45 -68q16 -38 16 -82t-16 -82q-16 -39 -45 -69q-27 -29 -68 -46q-38 -16 -82 -16z" />
    <glyph glyph-name="Eogonek" unicode="&#x118;" horiz-adv-x="1097" 
d="M629 -479q-111 0 -166 56t-55 155q0 90 57 156q58 67 137 112h-680l49 236l119 32l189 891l-105 33l51 235h1004l-88 -409h-254l-6 143h-189l-63 -303h119l49 82h204l-90 -424h-204l-17 84h-117l-71 -334h196l86 172h256l-92 -438h-108q-83 -65 -108 -100
q-27 -39 -27 -80q0 -20 9 -35q8 -14 36 -14q29 0 50 9q25 11 38 19l43 -190q-41 -41 -106 -65q-62 -23 -146 -23z" />
    <glyph glyph-name="eogonek" unicode="&#x119;" horiz-adv-x="995" 
d="M489 -479q-110 0 -165 56q-56 58 -56 155q0 77 44 138q43 59 110 105q-187 11 -284 114t-97 306q0 97 17 178q19 91 47 162q30 75 69 136q42 65 82 102q79 78 172 102q95 25 203 25q81 0 148 -23q68 -23 115 -63t75 -100q26 -56 26 -128q0 -108 -38 -179t-109 -111
q-76 -43 -178 -60q-106 -18 -242 -24v-19q0 -71 29 -103t112 -32q54 0 111 15q54 14 137 55l43 -240q-140 -70 -219 -135q-76 -63 -76 -133q0 -20 9 -35q8 -14 36 -14q29 0 50 9q25 11 38 19l43 -190q-41 -41 -105 -65q-62 -23 -147 -23zM520 836q-22 -32 -42 -91
q-18 -53 -29 -139q122 7 174 53q51 45 51 144q0 84 -64 84q-51 0 -90 -51z" />
    <glyph glyph-name="Ecaron" unicode="&#x11a;" horiz-adv-x="1097" 
d="M911 516h-204l-17 84h-117l-71 -334h196l86 172h256l-92 -438h-1026l49 236l119 32l189 891l-105 33l51 235h1004l-88 -409h-254l-6 143h-189l-63 -303h119l49 82h204zM1124 1792l-274 -281h-221l-195 281l125 150l211 -154l266 154z" />
    <glyph glyph-name="ecaron" unicode="&#x11b;" horiz-adv-x="995" 
d="M41 395q0 97 17 178q19 91 47 162q30 75 69 136q42 65 82 102q79 78 172 102q95 25 203 25q81 0 148 -23q68 -23 115 -63t75 -100q26 -56 26 -128q0 -108 -38 -179t-109 -111q-76 -43 -178 -60q-106 -18 -242 -24v-19q0 -71 29 -103t112 -32q54 0 111 15q54 14 137 55
l43 -240q-58 -46 -164 -80q-108 -35 -225 -35q-207 0 -319 104q-111 103 -111 318zM520 836q-22 -32 -42 -91q-18 -53 -29 -139q122 7 174 53q51 45 51 144q0 84 -64 84q-51 0 -90 -51zM1024 1448l-274 -281h-222l-194 281l125 149l211 -153l266 153z" />
    <glyph glyph-name="Gcircumflex" unicode="&#x11c;" horiz-adv-x="1200" 
d="M55 442q0 100 18 218q19 127 50 233q34 117 82 216q50 104 114 169q91 95 209 136q116 40 275 40q120 0 239 -35q118 -35 189 -94l-72 -311h-268v155q-18 12 -37 17q-21 6 -47 6q-49 0 -92 -17q-46 -19 -80 -83q-23 -42 -50 -122q-35 -105 -53 -178q-23 -92 -40 -196
q-17 -102 -17 -174q0 -90 33 -122q34 -32 84 -32q30 0 50 11q5 3 15.5 8.5t14.5 7.5l51 248l-98 30l57 254h496l-174 -827h-252l-33 106q-36 -58 -115 -96q-77 -37 -162 -37q-183 0 -285 121q-102 122 -102 348zM469 1642l274 281h222l194 -281l-125 -149l-211 154
l-266 -154z" />
    <glyph glyph-name="gcircumflex" unicode="&#x11d;" horiz-adv-x="1083" 
d="M610 827q-30 0 -47 -10q-19 -11 -35 -45q-13 -25 -29 -84q-18 -65 -29 -117q-14 -62 -21 -118q-9 -68 -9 -93q0 -42 12 -60q11 -17 37 -17q19 0 37 9q20 10 35 25l107 480q-5 7 -22 20q-13 10 -36 10zM520 98q-37 -45 -94 -61q-59 -17 -125 -17q-54 0 -102 20
q-49 21 -82 59q-36 42 -55 102t-19 145q0 74 12 162q11 84 35 172q22 83 54 160q31 74 69 125q55 72 131 103q78 32 148 32q80 0 139 -28q58 -27 110 -93l64 94h309l-231 -1096q-40 -191 -154 -285q-113 -93 -328 -93q-116 0 -230 27q-109 26 -194 69l89 254q52 -27 117 -45
q68 -19 134 -19q42 0 78 9q30 8 51 24q20 16 32 40q13 26 20 54zM389 1288l275 281h221l194 -281l-125 -149l-211 153l-266 -153z" />
    <glyph glyph-name="Gbreve" unicode="&#x11e;" horiz-adv-x="1200" 
d="M55 442q0 100 18 218q19 127 50 233q34 117 82 216q50 104 114 169q91 95 209 136q116 40 275 40q120 0 239 -35q118 -35 189 -94l-72 -311h-268v155q-18 12 -37 17q-21 6 -47 6q-49 0 -92 -17q-46 -19 -80 -83q-23 -42 -50 -122q-35 -105 -53 -178q-23 -92 -40 -196
q-17 -102 -17 -174q0 -90 33 -122q34 -32 84 -32q30 0 50 11q5 3 15.5 8.5t14.5 7.5l51 248l-98 30l57 254h496l-174 -827h-252l-33 106q-36 -58 -115 -96q-77 -37 -162 -37q-183 0 -285 121q-102 122 -102 348zM809 1503q-97 0 -162 34t-107 85t-60 114q-17 58 -15 119
l262 39q6 -43 29 -71q22 -27 69 -27q48 0 72 27q25 29 41 71l260 -45q-10 -58 -42 -120q-32 -61 -82 -112t-118 -82q-69 -32 -147 -32z" />
    <glyph glyph-name="gbreve" unicode="&#x11f;" horiz-adv-x="1083" 
d="M610 827q-30 0 -47 -10q-19 -11 -35 -45q-13 -25 -29 -84q-18 -65 -29 -117q-14 -62 -21 -118q-9 -68 -9 -93q0 -42 12 -60q11 -17 37 -17q19 0 37 9q20 10 35 25l107 480q-5 7 -22 20q-13 10 -36 10zM520 98q-37 -45 -94 -61q-59 -17 -125 -17q-54 0 -102 20
q-49 21 -82 59q-36 42 -55 102t-19 145q0 74 12 162q11 84 35 172q22 83 54 160q31 74 69 125q55 72 131 103q78 32 148 32q80 0 139 -28q58 -27 110 -93l64 94h309l-231 -1096q-40 -191 -154 -285q-113 -93 -328 -93q-116 0 -230 27q-109 26 -194 69l89 254q52 -27 117 -45
q68 -19 134 -19q42 0 78 9q30 8 51 24q20 16 32 40q13 26 20 54zM711 1159q-97 0 -162 34q-67 35 -108 85q-40 49 -59 114q-17 58 -15 119l262 39q6 -45 28 -71q23 -27 70 -27q48 0 72 27q25 29 41 71l260 -45q-10 -59 -42 -121q-30 -59 -82 -111q-50 -51 -118 -82
q-69 -32 -147 -32z" />
    <glyph glyph-name="Gdotaccent" unicode="&#x120;" horiz-adv-x="1200" 
d="M55 442q0 100 18 218q19 127 50 233q34 117 82 216q50 104 114 169q91 95 209 136q116 40 275 40q120 0 239 -35q118 -35 189 -94l-72 -311h-268v155q-18 12 -37 17q-21 6 -47 6q-49 0 -92 -17q-46 -19 -80 -83q-23 -42 -50 -122q-35 -105 -53 -178q-23 -92 -40 -196
q-17 -102 -17 -174q0 -90 33 -122q34 -32 84 -32q30 0 50 11q5 3 15.5 8.5t14.5 7.5l51 248l-98 30l57 254h496l-174 -827h-252l-33 106q-36 -58 -115 -96q-77 -37 -162 -37q-183 0 -285 121q-102 122 -102 348zM836 1509q-48 0 -88 18q-43 19 -72 48q-30 30 -48 71
q-18 40 -18 87q0 45 18 86t48 71q29 29 72 48q40 18 88 18t88 -18q41 -18 71 -48t48 -71t18 -86q0 -47 -18 -87q-18 -41 -48 -71t-71 -48t-88 -18z" />
    <glyph glyph-name="gdotaccent" unicode="&#x121;" horiz-adv-x="1083" 
d="M610 827q-30 0 -47 -10q-19 -11 -35 -45q-13 -25 -29 -84q-18 -65 -29 -117q-14 -62 -21 -118q-9 -68 -9 -93q0 -42 12 -60q11 -17 37 -17q19 0 37 9q20 10 35 25l107 480q-5 7 -22 20q-13 10 -36 10zM520 98q-37 -45 -94 -61q-59 -17 -125 -17q-54 0 -102 20
q-49 21 -82 59q-36 42 -55 102t-19 145q0 74 12 162q11 84 35 172q22 83 54 160q31 74 69 125q55 72 131 103q78 32 148 32q80 0 139 -28q58 -27 110 -93l64 94h309l-231 -1096q-40 -191 -154 -285q-113 -93 -328 -93q-116 0 -230 27q-109 26 -194 69l89 254q52 -27 117 -45
q68 -19 134 -19q42 0 78 9q30 8 51 24q20 16 32 40q13 26 20 54zM709 1135q-46 0 -84 16q-41 17 -68 46q-29 30 -45 69q-16 38 -16 82t16 82q16 37 45 68q27 29 68 46q40 17 84 17q42 0 82 -17q39 -16 67 -46q29 -31 45 -68q17 -40 17 -82t-17 -82q-17 -39 -45 -69t-67 -46
q-38 -16 -82 -16z" />
    <glyph glyph-name="Gcommaaccent" unicode="&#x122;" horiz-adv-x="1200" 
d="M55 442q0 100 18 218q19 127 50 233q34 117 82 216q50 104 114 169q91 95 209 136q116 40 275 40q120 0 239 -35q118 -35 189 -94l-72 -311h-268v155q-18 12 -37 17q-21 6 -47 6q-49 0 -92 -17q-46 -19 -80 -83q-23 -42 -50 -122q-35 -105 -53 -178q-23 -92 -40 -196
q-17 -102 -17 -174q0 -90 33 -122q34 -32 84 -32q30 0 50 11q5 3 15.5 8.5t14.5 7.5l51 248l-98 30l57 254h496l-174 -827h-252l-33 106q-36 -58 -115 -96q-77 -37 -162 -37q-183 0 -285 121q-102 122 -102 348zM246 -479q158 11 188 76q-66 16 -101 59q-36 44 -36 102
q0 38 15 73q14 33 42 56q27 22 62 36q36 14 73 14q87 0 147 -54q58 -52 58 -151q0 -69 -25 -129q-25 -61 -80 -108q-53 -46 -136 -73q-79 -26 -195 -26z" />
    <glyph glyph-name="gcommaaccent" unicode="&#x123;" horiz-adv-x="1083" 
d="M610 827q-30 0 -47 -10q-19 -11 -35 -45q-13 -25 -29 -84q-18 -65 -29 -117q-14 -62 -21 -118q-9 -68 -9 -93q0 -42 12 -60q11 -17 37 -17q19 0 37 9q20 10 35 25l107 480q-5 7 -22 20q-13 10 -36 10zM520 98q-37 -45 -94 -61q-59 -17 -125 -17q-54 0 -102 20
q-49 21 -82 59q-36 42 -55 102t-19 145q0 74 12 162q11 84 35 172q22 83 54 160q31 74 69 125q55 72 131 103q78 32 148 32q80 0 139 -28q58 -27 110 -93l64 94h309l-231 -1096q-40 -191 -154 -285q-113 -93 -328 -93q-116 0 -230 27q-109 26 -194 69l89 254q52 -27 117 -45
q68 -19 134 -19q42 0 78 9q30 8 51 24q20 16 32 40q13 26 20 54zM954 1575q-158 -11 -188 -76q66 -16 101 -59q36 -44 36 -103q0 -40 -15 -73q-15 -34 -42 -56t-62 -36q-33 -13 -73 -13q-88 0 -147 53q-58 52 -58 152q0 69 25 129q25 61 80 108q51 44 137 72q82 27 194 27z
" />
    <glyph glyph-name="Hcircumflex" unicode="&#x124;" horiz-adv-x="1427" 
d="M692 236l119 32l70 328h-308l-69 -328l102 -32l-49 -236h-635l49 236l119 32l189 891l-105 33l51 235h635l-51 -235l-117 -33l-63 -297h307l63 297l-104 33l51 235h635l-51 -235l-117 -33l-188 -891l102 -32l-49 -236h-635zM594 1642l274 281h222l194 -281l-125 -149
l-211 154l-266 -154z" />
    <glyph glyph-name="hcircumflex" unicode="&#x125;" horiz-adv-x="1128" 
d="M184 1257l54 248h473l-115 -540q47 64 106 99q60 36 152 36q110 0 172 -67q61 -65 61 -185q0 -32 -4 -56q-1 -3 -4.5 -25.5t-5.5 -35.5l-76 -358q-5 -17 -6 -34q-2 -24 -2 -34q0 -19 9 -29t38 -10h33l-43 -241q-60 -27 -117 -39q-62 -13 -104 -13q-60 0 -105 17
q-42 16 -70 44t-41 63q-14 37 -14 75q0 63 13 123l86 401q2 14 3 20t1 17q0 53 -43 53q-51 0 -84 -32l-160 -754h-391l260 1229zM174 1700l275 280h221l194 -280l-125 -150l-211 154l-266 -154z" />
    <glyph glyph-name="Hbar" unicode="&#x126;" horiz-adv-x="1427" 
d="M147 1077h113l19 82l-105 33l51 235h635l-51 -235l-117 -33l-18 -82h307l18 82l-104 33l51 235h635l-51 -235l-117 -33l-18 -82h116l-36 -178h-117l-133 -631l102 -32l-49 -236h-635l49 236l119 32l57 267h-307l-57 -267l102 -32l-49 -236h-635l49 236l119 32l133 631
h-112zM920 780l24 119h-307l-25 -119h308z" />
    <glyph glyph-name="hbar" unicode="&#x127;" horiz-adv-x="1128" 
d="M182 1249h80l8 33l-75 29l43 194h473l-54 -256h232l-33 -149h-231l-37 -178q47 64 106 99q60 36 152 36q110 0 172 -67q61 -65 61 -185q0 -32 -4 -56q-1 -3 -4.5 -25.5t-5.5 -35.5l-68 -315q-5 -17 -6 -34q-2 -24 -2 -34q0 -19 9 -29t38 -10h33l-43 -241
q-60 -27 -117 -39q-62 -13 -104 -13q-60 0 -105 17q-42 16 -70 44t-41 63q-14 37 -14 75q0 63 13 123l78 358q2 14 3 20t1 17q0 53 -43 53q-51 0 -84 -32l-152 -711h-391l231 1100h-81z" />
    <glyph glyph-name="Itilde" unicode="&#x128;" horiz-adv-x="706" 
d="M-29 236l119 32l189 891l-105 33l51 235h635l-51 -235l-117 -33l-188 -891l102 -32l-49 -236h-635zM205 1642q46 121 127 182q79 60 157 60q48 0 80 -11q43 -15 63 -25q9 -5 26 -12.5t25 -11.5q24 -12 48 -12q30 0 55 19q27 21 50 53l163 -129q-49 -121 -127 -181
q-79 -61 -155 -61q-45 0 -80 12q-50 17 -64 24q-38 18 -52 25q-22 11 -48 11q-31 0 -56 -18q-24 -17 -48 -54z" />
    <glyph glyph-name="itilde" unicode="&#x129;" horiz-adv-x="610" 
d="M463 373q-5 -17 -6 -34q-2 -24 -2 -34q0 -19 9 -29t38 -10h33l-43 -241q-60 -27 -117 -39q-62 -13 -105 -13q-59 0 -104 17q-43 16 -71 44t-41 63t-13 75q0 68 12 123l105 489l-76 29l55 260h473zM55 1290q46 120 127 181t158 61q48 0 80 -11q39 -14 62 -25q9 -5 26 -13
t25 -12q22 -11 49 -11q30 0 55 19t49 53l164 -129q-49 -121 -127 -181q-79 -61 -156 -61q-48 0 -80 11q-38 13 -63 25q-38 18 -52 25q-22 11 -48 11q-30 0 -57 -19q-25 -18 -48 -53z" />
    <glyph glyph-name="Imacron" unicode="&#x12a;" horiz-adv-x="706" 
d="M-29 236l119 32l189 891l-105 33l51 235h635l-51 -235l-117 -33l-188 -891l102 -32l-49 -236h-635zM336 1812h584l-62 -284h-584z" />
    <glyph glyph-name="imacron" unicode="&#x12b;" horiz-adv-x="610" 
d="M193 1491h542l-61 -285h-543zM463 373q-5 -17 -6 -34q-2 -24 -2 -34q0 -19 9 -29t38 -10h33l-43 -241q-60 -27 -117 -39q-62 -13 -105 -13q-59 0 -104 17q-43 16 -71 44t-41 63t-13 75q0 68 12 123l105 489l-76 29l55 260h473z" />
    <glyph glyph-name="Ibreve" unicode="&#x12c;" horiz-adv-x="706" 
d="M-29 236l119 32l189 891l-105 33l51 235h635l-51 -235l-117 -33l-188 -891l102 -32l-49 -236h-635zM582 1503q-97 0 -162 34q-67 35 -108 85q-40 49 -59 114q-17 58 -15 119l262 39q6 -45 28 -71q22 -27 70 -27t72 27q25 29 41 71l260 -45q-10 -58 -42 -120
q-31 -61 -82 -112t-118 -82q-69 -32 -147 -32z" />
    <glyph glyph-name="ibreve" unicode="&#x12d;" horiz-adv-x="610" 
d="M463 373q-5 -17 -6 -34q-2 -24 -2 -34q0 -19 9 -29t38 -10h33l-43 -241q-60 -27 -117 -39q-62 -13 -105 -13q-59 0 -104 17q-43 16 -71 44t-41 63t-13 75q0 68 12 123l105 489l-76 29l55 260h473zM414 1159q-97 0 -162 34q-67 35 -108 85q-40 49 -59 114q-17 58 -15 119
l262 39q6 -45 28 -71q22 -27 70 -27t72 27q25 29 41 71l260 -45q-10 -59 -42 -121q-30 -59 -82 -111q-51 -51 -118 -82q-69 -32 -147 -32z" />
    <glyph glyph-name="Iogonek" unicode="&#x12e;" horiz-adv-x="706" 
d="M-29 236l119 32l189 891l-105 33l51 235h635l-51 -235l-117 -33l-188 -891l102 -32l-49 -236h-170q-81 -63 -107 -100q-28 -40 -28 -80q0 -20 9 -35q8 -14 36 -14q29 0 50 9q25 11 38 19l43 -190q-41 -41 -105 -65q-62 -23 -147 -23q-111 0 -166 56t-55 155q0 90 57 156
t138 112h-228z" />
    <glyph glyph-name="iogonek" unicode="&#x12f;" horiz-adv-x="610" 
d="M457 1135q-46 0 -84 16q-41 17 -68 46q-29 30 -45 69q-16 38 -16 82t16 82q16 37 45 68q27 29 68 46q40 17 84 17q42 0 82 -17q39 -16 67 -46q29 -31 45 -68q17 -40 17 -82t-17 -82q-17 -39 -45 -69t-67 -46q-38 -16 -82 -16zM164 -6q-63 28 -93 77q-30 48 -30 101
q0 68 12 123l105 489l-76 29l55 260h473l-147 -700q-5 -17 -6 -34q-2 -24 -2 -34q0 -19 9 -29t38 -10h33l-43 -241q-116 -34 -166 -92t-50 -113q0 -18 10 -35q8 -14 36 -14q29 0 50 9q25 11 38 19l43 -190q-41 -41 -106 -65q-62 -23 -146 -23q-111 0 -166 56t-55 155
q0 85 53 150q54 66 131 112z" />
    <glyph glyph-name="Idotaccent" unicode="&#x130;" horiz-adv-x="706" 
d="M-29 236l119 32l189 891l-105 33l51 235h635l-51 -235l-117 -33l-188 -891l102 -32l-49 -236h-635zM586 1489q-50 0 -88 17q-43 19 -72 48q-30 30 -48 71t-18 87t18 86q19 43 48 72t72 48q38 17 88 17t88 -17q41 -18 71 -48q31 -31 49 -72q17 -38 17 -86q0 -49 -17 -87
q-18 -40 -49 -71q-30 -30 -71 -48q-38 -17 -88 -17z" />
    <glyph glyph-name="dotlessi" unicode="&#x131;" horiz-adv-x="610" 
d="M463 373q-5 -17 -6 -34q-2 -24 -2 -34q0 -19 9 -29t38 -10h33l-43 -241q-60 -27 -117 -39q-62 -13 -105 -13q-59 0 -104 17q-43 16 -71 44t-41 63t-13 75q0 68 12 123l105 489l-76 29l55 260h473z" />
    <glyph glyph-name="IJ" unicode="&#x132;" horiz-adv-x="1413" 
d="M-29 236l119 32l189 891l-105 33l51 235h635l-51 -235l-117 -33l-188 -891l102 -32l-49 -236h-635zM1174 96q-27 -121 -77 -205q-49 -82 -119 -135t-155 -89q-87 -37 -184 -66l-74 223q47 23 77 45q32 23 54 55q23 34 38 81q16 52 32 122l219 1032l-104 33l51 235h635
l-51 -235l-117 -33z" />
    <glyph glyph-name="ij" unicode="&#x133;" horiz-adv-x="1167" 
d="M463 373q-5 -17 -6 -34q-2 -24 -2 -34q0 -19 9 -29t38 -10h33l-43 -241q-60 -27 -117 -39q-62 -13 -105 -13q-59 0 -104 17q-43 16 -71 44t-41 63t-13 75q0 68 12 123l105 489l-76 29l55 260h473zM457 1135q-46 0 -84 16q-41 17 -68 46q-29 30 -45 69q-16 38 -16 82
t16 82q16 37 45 68q27 29 68 46q40 17 84 17q42 0 82 -17q39 -16 67 -46q29 -31 45 -68q17 -40 17 -82t-17 -82q-17 -39 -45 -69t-67 -46q-38 -16 -82 -16zM684 813l55 260h473l-229 -1081q-23 -106 -61 -175q-40 -72 -99 -118q-64 -50 -138 -79q-77 -30 -181 -58l-58 202
q34 16 61 40q22 19 39 50q14 25 25 65q12 43 23 91l166 774zM1059 1135q-46 0 -84 16q-41 17 -68 46q-29 30 -45 69q-16 38 -16 82t16 82q16 37 45 68q27 29 68 46q40 17 84 17q42 0 82 -17q39 -16 67 -46q29 -31 45 -68q17 -40 17 -82t-17 -82q-17 -39 -45 -69t-67 -46
q-38 -16 -82 -16z" />
    <glyph glyph-name="Jcircumflex" unicode="&#x134;" horiz-adv-x="706" 
d="M467 96q-27 -121 -77 -205q-49 -82 -119 -135q-71 -54 -154 -89q-84 -35 -185 -66l-73 223q43 22 76 45q34 24 55 55q23 34 38 81q13 41 31 122l220 1032l-105 33l51 235h635l-51 -235l-117 -33zM219 1642l275 281h221l194 -281l-125 -149l-211 154l-266 -154z" />
    <glyph glyph-name="jcircumflex" unicode="&#x135;" horiz-adv-x="557" 
d="M74 813l55 260h473l-229 -1081q-22 -103 -62 -175q-41 -74 -98 -118q-64 -50 -138 -79q-77 -30 -181 -58l-58 202q34 16 61 40q20 17 38 50q16 28 26 65q12 43 23 91l166 774zM78 1288l274 281h221l195 -281l-125 -149l-211 153l-266 -153z" />
    <glyph glyph-name="Kcommaaccent" unicode="&#x136;" horiz-adv-x="1376" 
d="M-29 236l119 32l189 891l-105 33l51 235h635l-51 -235l-117 -33l-188 -891l102 -32l-49 -236h-635zM1276 238l-49 -238h-436l-183 709l381 450l-82 33l47 235h519l-48 -235l-90 -33l-325 -375l151 -516zM297 -479q158 11 188 76q-66 16 -101 59q-36 44 -36 102
q0 36 16 73q14 33 42 56q27 23 61 36q36 14 74 14q86 0 146 -54q58 -52 58 -151q0 -69 -25 -129q-25 -61 -80 -108q-53 -46 -136 -73q-79 -26 -195 -26z" />
    <glyph glyph-name="kcommaaccent" unicode="&#x137;" horiz-adv-x="1146" 
d="M391 0h-391l260 1229l-76 28l54 248h473zM1239 1073l-340 -483l62 -262q7 -37 22 -49q16 -13 51 -13h27v-229q-44 -27 -104 -46q-57 -18 -119 -18q-48 0 -89 12q-42 12 -71 40q-32 30 -53 77q-22 48 -37 127l-62 342l336 502h377zM215 -479q158 11 188 76q-66 16 -101 59
q-36 44 -36 102q0 36 16 73q14 33 42 56q27 23 61 36q36 14 74 14q86 0 146 -54q59 -53 59 -151q0 -66 -26 -129q-25 -61 -80 -108q-53 -46 -136 -73q-79 -26 -195 -26z" />
    <glyph glyph-name="kgreenlandic" unicode="&#x138;" horiz-adv-x="1146" 
d="M391 0h-391l168 797l-76 28l53 248h473zM1239 1073l-340 -483l62 -262q7 -37 22 -49q16 -13 51 -13h27v-229q-44 -27 -104 -46q-57 -18 -119 -18q-48 0 -89 12q-42 12 -71 40q-32 30 -53 77q-22 48 -37 127l-62 342l336 502h377z" />
    <glyph glyph-name="Lacute" unicode="&#x139;" horiz-adv-x="1099" 
d="M502 266h186l103 199h256l-99 -465h-1026l49 236l119 32l189 891l-105 33l51 235h635l-51 -235l-117 -33zM336 1663l409 293l154 -285l-459 -190z" />
    <glyph glyph-name="lacute" unicode="&#x13a;" horiz-adv-x="589" 
d="M442 373q-5 -17 -6 -34q-2 -24 -2 -34q0 -19 9 -29t38 -10h33l-43 -241q-60 -27 -117 -39q-62 -13 -104 -13q-60 0 -105 17q-42 16 -70 44t-41 63q-14 37 -14 75q0 63 13 123l198 934l-75 28l53 248h473zM233 1737l410 293l154 -285l-459 -191z" />
    <glyph glyph-name="Lcommaaccent" unicode="&#x13b;" horiz-adv-x="1099" 
d="M502 266h186l103 199h256l-99 -465h-1026l49 236l119 32l189 891l-105 33l51 235h635l-51 -235l-117 -33zM168 -479q158 11 188 76q-66 16 -101 59q-36 44 -36 102q0 38 15 73q14 33 42 56q27 22 62 36q36 14 74 14q86 0 146 -54q58 -52 58 -151q0 -69 -25 -129
q-25 -61 -80 -108q-53 -46 -136 -73q-79 -26 -195 -26z" />
    <glyph glyph-name="lcommaaccent" unicode="&#x13c;" horiz-adv-x="589" 
d="M442 373q-5 -17 -6 -34q-2 -24 -2 -34q0 -19 9 -29t38 -10h33l-43 -241q-60 -27 -117 -39q-62 -13 -104 -13q-60 0 -105 17q-42 16 -70 44t-41 63q-14 37 -14 75q0 63 13 123l198 934l-75 28l53 248h473zM-53 -479q158 11 188 76q-66 16 -101 59q-36 44 -36 102
q0 38 15 73q14 33 42 56q27 22 62 36q36 14 73 14q87 0 147 -54q58 -52 58 -151q0 -69 -25 -129q-25 -61 -80 -108q-53 -46 -136 -73q-79 -26 -195 -26z" />
    <glyph glyph-name="Lcaron" unicode="&#x13d;" horiz-adv-x="1099" 
d="M502 266h186l103 199h256l-99 -465h-1026l49 236l119 32l189 891l-105 33l51 235h635l-51 -235l-117 -33zM1253 1430l-157 -375h-240l80 375h317z" />
    <glyph glyph-name="lcaron" unicode="&#x13e;" horiz-adv-x="589" 
d="M442 373q-5 -17 -6 -34q-2 -24 -2 -34q0 -19 9 -29t38 -10h33l-43 -241q-60 -27 -117 -39q-62 -13 -104 -13q-60 0 -105 17q-42 16 -70 44t-41 63q-14 37 -14 75q0 63 13 123l198 934l-75 28l53 248h473zM1079 1505l-157 -375h-240l80 375h317z" />
    <glyph glyph-name="Ldot" unicode="&#x13f;" horiz-adv-x="1099" 
d="M502 266h186l103 199h256l-99 -465h-1026l49 236l119 32l189 891l-105 33l51 235h635l-51 -235l-117 -33zM967 594q-50 0 -88 17q-43 19 -72 48q-30 30 -48 71q-18 40 -18 87q0 45 18 86q19 43 48 72t72 48q38 17 88 17t88 -17q41 -18 71 -48q31 -31 49 -72
q17 -38 17 -86q0 -49 -17 -87q-18 -40 -49 -71q-30 -30 -71 -48q-38 -17 -88 -17z" />
    <glyph glyph-name="ldot" unicode="&#x140;" horiz-adv-x="989" 
d="M442 373q-5 -17 -6 -34q-2 -24 -2 -34q0 -19 9 -29t38 -10h33l-43 -241q-60 -27 -117 -39q-62 -13 -104 -13q-60 0 -105 17q-42 16 -70 44t-41 63q-14 37 -14 75q0 63 13 123l198 934l-75 28l53 248h473zM819 537q-46 0 -84 16q-39 16 -67 46t-45 69q-17 40 -17 82
q0 41 17 81q17 39 45 69t67 46q40 17 84 17q42 0 82 -17q41 -17 68 -46q29 -30 45 -69q16 -38 16 -81q0 -44 -16 -82q-16 -39 -45 -69q-27 -29 -68 -46q-38 -16 -82 -16z" />
    <glyph glyph-name="Lslash" unicode="&#x141;" horiz-adv-x="1099" 
d="M53 657l127 43l99 459l-105 33l51 235h635l-51 -235l-117 -33l-74 -348l250 86l-47 -225l-252 -84l-67 -322h186l103 199h256l-99 -465h-1026l49 236l119 32l43 207l-127 -43z" />
    <glyph glyph-name="lslash" unicode="&#x142;" horiz-adv-x="606" 
d="M53 774l101 45l88 410l-76 28l53 248h473l-114 -536l131 59l-52 -250l-133 -61l-71 -344q-6 -22 -7 -34q-2 -24 -2 -34q0 -17 10 -29q9 -10 38 -10h32l-43 -241q-61 -27 -116 -39q-62 -13 -105 -13q-59 0 -104 17q-44 16 -71 44q-28 28 -41 63t-13 75q0 68 12 123l57 272
l-98 -43z" />
    <glyph glyph-name="Nacute" unicode="&#x143;" horiz-adv-x="1357" 
d="M946 1192l49 235h516l-49 -235l-119 -33l-245 -1159h-348l-179 539q-33 101 -52 183q-17 74 -19 157h-4q-4 -37 -9 -72q-4 -31 -9 -74q-4 -34 -14 -86q-3 -15 -10.5 -51t-11.5 -57l-57 -271l102 -32l-49 -236h-516l49 236l119 32l189 891l-105 33l51 235h516l144 -501
q25 -85 40 -166q12 -65 17 -146h4q5 67 17 146q12 83 32 164l54 235zM649 1663l410 293l153 -285l-458 -190z" />
    <glyph glyph-name="nacute" unicode="&#x144;" horiz-adv-x="1128" 
d="M90 813l55 260h396v-129q133 156 313 156q110 0 172 -67q61 -65 61 -185q0 -32 -4 -56q-1 -3 -4.5 -25.5t-5.5 -35.5l-76 -358q-5 -17 -6 -34q-2 -24 -2 -34q0 -19 9 -29t38 -10h33l-43 -241q-60 -27 -117 -39q-62 -13 -104 -13q-60 0 -105 17q-42 16 -70 44t-41 63
q-14 37 -14 75q0 63 13 123l86 401q2 14 3 20t1 17q0 53 -43 53q-51 0 -84 -32l-160 -754h-391l166 784zM399 1319l410 293l154 -285l-459 -190z" />
    <glyph glyph-name="Ncommaaccent" unicode="&#x145;" horiz-adv-x="1357" 
d="M946 1192l49 235h516l-49 -235l-119 -33l-245 -1159h-348l-179 539q-33 101 -52 183q-17 74 -19 157h-4q-4 -37 -9 -72q-4 -31 -9 -74q-4 -34 -14 -86q-3 -15 -10.5 -51t-11.5 -57l-57 -271l102 -32l-49 -236h-516l49 236l119 32l189 891l-105 33l51 235h516l144 -501
q25 -85 40 -166q12 -65 17 -146h4q5 67 17 146q12 83 32 164l54 235zM317 -479q159 11 189 76q-67 17 -102 59t-35 102q0 38 15 73q14 33 42 56q27 23 61 36q36 14 74 14q87 0 147 -54q58 -52 58 -151q0 -66 -26 -129q-25 -61 -80 -108q-53 -46 -136 -73q-79 -26 -194 -26z
" />
    <glyph glyph-name="ncommaaccent" unicode="&#x146;" horiz-adv-x="1128" 
d="M90 813l55 260h396v-129q133 156 313 156q110 0 172 -67q61 -65 61 -185q0 -32 -4 -56q-1 -3 -4.5 -25.5t-5.5 -35.5l-76 -358q-5 -17 -6 -34q-2 -24 -2 -34q0 -19 9 -29t38 -10h33l-43 -241q-60 -27 -117 -39q-62 -13 -104 -13q-60 0 -105 17q-42 16 -70 44t-41 63
q-14 37 -14 75q0 63 13 123l86 401q2 14 3 20t1 17q0 53 -43 53q-51 0 -84 -32l-160 -754h-391l166 784zM182 -479q159 11 189 76q-67 17 -102 59q-36 44 -36 102q0 36 16 73q14 33 42 56q27 23 61 36q36 14 74 14q86 0 146 -54q59 -53 59 -151q0 -66 -26 -129
q-25 -61 -80 -108q-53 -46 -136 -73q-79 -26 -194 -26z" />
    <glyph glyph-name="Ncaron" unicode="&#x147;" horiz-adv-x="1357" 
d="M946 1192l49 235h516l-49 -235l-119 -33l-245 -1159h-348l-179 539q-33 101 -52 183q-17 74 -19 157h-4q-4 -37 -9 -72q-4 -31 -9 -74q-4 -34 -14 -86q-3 -15 -10.5 -51t-11.5 -57l-57 -271l102 -32l-49 -236h-516l49 236l119 32l189 891l-105 33l51 235h516l144 -501
q25 -85 40 -166q12 -65 17 -146h4q5 67 17 146q12 83 32 164l54 235zM1278 1792l-274 -281h-222l-194 281l125 150l211 -154l266 154z" />
    <glyph glyph-name="ncaron" unicode="&#x148;" horiz-adv-x="1128" 
d="M90 813l55 260h396v-129q133 156 313 156q110 0 172 -67q61 -65 61 -185q0 -32 -4 -56q-1 -3 -4.5 -25.5t-5.5 -35.5l-76 -358q-5 -17 -6 -34q-2 -24 -2 -34q0 -19 9 -29t38 -10h33l-43 -241q-60 -27 -117 -39q-62 -13 -104 -13q-60 0 -105 17q-42 16 -70 44t-41 63
q-14 37 -14 75q0 63 13 123l86 401q2 14 3 20t1 17q0 53 -43 53q-51 0 -84 -32l-160 -754h-391l166 784zM1028 1448l-274 -281h-222l-194 281l125 149l211 -153l266 153z" />
    <glyph glyph-name="napostrophe" unicode="&#x149;" horiz-adv-x="1333" 
d="M295 813l55 260h395v-129q134 156 314 156q110 0 172 -67q61 -65 61 -185q0 -32 -4 -56q-1 -3 -4.5 -25.5t-5.5 -35.5l-76 -358q-5 -17 -6 -34q-2 -24 -2 -34q0 -19 9 -29t38 -10h33l-43 -241q-60 -27 -117 -39q-62 -13 -104 -13q-60 0 -105 17q-42 16 -70 44t-41 63
q-14 37 -14 75q0 63 13 123l86 401q2 14 3 20t1 17q0 53 -43 53q-51 0 -84 -32l-160 -754h-391l166 784zM88 1188q158 11 188 76q-66 16 -101 59q-36 43 -36 102q0 36 16 73q14 33 42 56q27 23 61 36q36 14 74 14q86 0 146 -54q59 -53 59 -151q0 -66 -26 -129
q-25 -61 -80 -108q-51 -44 -136 -72q-83 -27 -195 -27z" />
    <glyph glyph-name="Eng" unicode="&#x14a;" horiz-adv-x="1357" 
d="M571 539q-35 99 -53 183q-16 76 -18 157h-4q-4 -37 -9 -72q-4 -31 -9 -74q-4 -34 -14 -86q-3 -15 -10.5 -51t-11.5 -57l-57 -271l102 -32l-49 -236h-516l49 236l119 32l189 891l-105 33l51 235h516l144 -501q25 -85 40 -166q12 -65 17 -146h4q5 67 17 146q12 83 32 164
l54 235l-103 33l49 235h516l-49 -235l-119 -33l-225 -1063q-27 -121 -77 -205q-50 -83 -118 -135q-70 -53 -155 -89q-87 -37 -184 -66l-74 223q46 21 84 39q34 16 64 43q29 26 48 59t31 90z" />
    <glyph glyph-name="eng" unicode="&#x14b;" horiz-adv-x="1128" 
d="M674 696q2 14 3 20t1 17q0 53 -43 53q-51 0 -84 -32l-160 -754h-391l166 784l-76 29l55 260h396v-129q133 156 313 156q110 0 172 -67q61 -65 61 -185q0 -32 -4 -56q-1 -3 -4.5 -25.5t-5.5 -35.5l-155 -739q-22 -103 -62 -175q-41 -74 -98 -118q-64 -50 -138 -79
q-75 -30 -182 -58l-57 202q34 16 61 40q24 21 40 50q16 28 26 65q6 23 20 91z" />
    <glyph glyph-name="Omacron" unicode="&#x14c;" horiz-adv-x="1236" 
d="M561 -27q-245 0 -375 130q-131 131 -131 386q0 109 18 226q19 124 50 225q35 114 79 201q47 92 103 151q78 81 184 122q104 40 240 40q246 0 374 -125t128 -375q0 -99 -17 -221q-17 -121 -49 -232q-34 -116 -82 -213q-52 -104 -114 -163q-157 -152 -408 -152zM561 236
q28 0 52 15q23 14 40 42q20 30 38 83q21 61 39 128q18 66 37 152q16 72 31 157q14 78 21 139q8 67 8 103q0 78 -28 107q-29 30 -80 30q-58 0 -96 -53q-19 -25 -38 -81q-21 -62 -38 -129q-16 -64 -36 -154q-16 -72 -31 -157q-11 -60 -20 -139q-7 -59 -7 -100q0 -79 29 -111
t79 -32zM545 1812h583l-61 -284h-584z" />
    <glyph glyph-name="omacron" unicode="&#x14d;" horiz-adv-x="1062" 
d="M1022 684q0 -91 -17 -180q-18 -97 -52 -180q-35 -87 -81 -158q-47 -72 -104 -113q-60 -43 -132 -61q-74 -19 -163 -19q-203 0 -318 106q-114 105 -114 312q0 91 17 179q19 98 52 180q38 93 79 156q48 73 106 112q59 42 132 62q72 20 163 20q204 0 318 -105t114 -311z
M653 788q0 45 -13 59q-14 15 -42 15q-18 0 -33 -6q-14 -5 -26 -27q-12 -23 -22 -52q-8 -23 -28 -88q-9 -29 -27 -108q-6 -24 -25 -114q-7 -31 -18 -101q-7 -43 -7 -71q0 -86 53 -86q18 0 33 6q14 5 26 27q13 23 35 94q20 66 43 162q22 92 36 170q15 83 15 120zM422 1491h584
l-62 -285h-584z" />
    <glyph glyph-name="Obreve" unicode="&#x14e;" horiz-adv-x="1236" 
d="M561 -27q-245 0 -375 130q-131 131 -131 386q0 109 18 226q19 124 50 225q35 114 79 201q47 92 103 151q78 81 184 122q104 40 240 40q246 0 374 -125t128 -375q0 -99 -17 -221q-17 -121 -49 -232q-34 -116 -82 -213q-52 -104 -114 -163q-157 -152 -408 -152zM561 236
q28 0 52 15q23 14 40 42q20 30 38 83q21 61 39 128q18 66 37 152q16 72 31 157q14 78 21 139q8 67 8 103q0 78 -28 107q-29 30 -80 30q-58 0 -96 -53q-19 -25 -38 -81q-21 -62 -38 -129q-16 -64 -36 -154q-16 -72 -31 -157q-11 -60 -20 -139q-7 -59 -7 -100q0 -79 29 -111
t79 -32zM809 1503q-97 0 -162 34t-107 85t-60 114q-17 58 -15 119l262 39q6 -43 29 -71q22 -27 69 -27q48 0 72 27q25 29 41 71l260 -45q-10 -58 -42 -120q-32 -61 -82 -112t-118 -82q-69 -32 -147 -32z" />
    <glyph glyph-name="obreve" unicode="&#x14f;" horiz-adv-x="1062" 
d="M1022 684q0 -91 -17 -180q-18 -97 -52 -180q-35 -87 -81 -158q-47 -72 -104 -113q-60 -43 -132 -61q-74 -19 -163 -19q-203 0 -318 106q-114 105 -114 312q0 91 17 179q19 98 52 180q38 93 79 156q48 73 106 112q59 42 132 62q72 20 163 20q204 0 318 -105t114 -311z
M653 788q0 45 -13 59q-14 15 -42 15q-18 0 -33 -6q-14 -5 -26 -27q-12 -23 -22 -52q-8 -23 -28 -88q-9 -29 -27 -108q-6 -24 -25 -114q-7 -31 -18 -101q-7 -43 -7 -71q0 -86 53 -86q18 0 33 6q14 5 26 27q13 23 35 94q20 66 43 162q22 92 36 170q15 83 15 120zM662 1159
q-97 0 -162 34q-67 35 -108 85q-40 49 -59 114q-18 61 -16 119l263 39q6 -45 28 -71q22 -27 70 -27t72 27q25 29 41 71l260 -45q-10 -59 -42 -121q-30 -59 -82 -111q-51 -51 -118 -82q-69 -32 -147 -32z" />
    <glyph glyph-name="Ohungarumlaut" unicode="&#x150;" horiz-adv-x="1236" 
d="M561 -27q-245 0 -375 130q-131 131 -131 386q0 109 18 226q19 124 50 225q35 114 79 201q47 92 103 151q78 81 184 122q104 40 240 40q246 0 374 -125t128 -375q0 -99 -17 -221q-17 -121 -49 -232q-34 -116 -82 -213q-52 -104 -114 -163q-157 -152 -408 -152zM561 236
q28 0 52 15q23 14 40 42q20 30 38 83q21 61 39 128q18 66 37 152q16 72 31 157q14 78 21 139q8 67 8 103q0 78 -28 107q-29 30 -80 30q-58 0 -96 -53q-19 -25 -38 -81q-21 -62 -38 -129q-16 -64 -36 -154q-16 -72 -31 -157q-11 -60 -20 -139q-7 -59 -7 -100q0 -79 29 -111
t79 -32zM453 1599l288 449l254 -137l-377 -422zM872 1599l287 449l256 -137l-379 -422z" />
    <glyph glyph-name="ohungarumlaut" unicode="&#x151;" horiz-adv-x="1062" 
d="M1022 684q0 -91 -17 -180q-18 -97 -52 -180q-35 -87 -81 -158q-47 -72 -104 -113q-60 -43 -132 -61q-74 -19 -163 -19q-203 0 -318 106q-114 105 -114 312q0 91 17 179q19 98 52 180q38 93 79 156q48 73 106 112q59 42 132 62q72 20 163 20q204 0 318 -105t114 -311z
M653 788q0 45 -13 59q-14 15 -42 15q-18 0 -33 -6q-14 -5 -26 -27q-12 -23 -22 -52q-8 -23 -28 -88q-9 -29 -27 -108q-6 -24 -25 -114q-7 -31 -18 -101q-7 -43 -7 -71q0 -86 53 -86q18 0 33 6q14 5 26 27q13 23 35 94q20 66 43 162q22 92 36 170q15 83 15 120zM328 1288
l288 449l254 -138l-376 -421zM748 1288l286 449l256 -138l-379 -421z" />
    <glyph glyph-name="OE" unicode="&#x152;" horiz-adv-x="1652" 
d="M508 0q-453 0 -453 479q0 97 19 222q18 115 53 231q35 115 84 208q50 95 113 152q73 67 176 101t258 34h1026l-88 -409h-254l-6 143h-189l-63 -303h119l49 82h204l-90 -424h-204l-17 84h-117l-71 -334h196l86 172h256l-92 -438h-995zM834 1159h-84q-54 0 -81 -12
q-29 -13 -51 -53q-11 -17 -27 -66q-15 -46 -33 -108q-14 -49 -34 -133q-15 -64 -28 -139q-17 -100 -21 -129q-8 -64 -8 -99q0 -93 27 -123q28 -31 75 -31h76z" />
    <glyph glyph-name="oe" unicode="&#x153;" horiz-adv-x="1546" 
d="M590 1100q93 0 167 -34q76 -35 115 -93q61 60 145 94q81 33 195 33q75 0 138 -23q62 -23 105 -63q44 -41 68 -100q23 -56 23 -128q0 -108 -38 -179t-109 -111q-76 -43 -178 -60q-106 -18 -242 -24v-19q0 -71 29 -103t112 -32q54 0 111 15q54 14 137 55l43 -240
q-58 -46 -164 -80q-108 -35 -225 -35q-97 0 -167 32q-67 31 -114 79q-18 -22 -48 -42q-34 -22 -65 -35q-37 -15 -76 -24q-45 -10 -79 -10q-203 0 -318 106q-114 105 -114 312q0 91 17 179q19 98 52 180q38 93 79 156q48 73 106 112q59 42 132 62q72 20 163 20zM653 788
q0 45 -13 59q-14 15 -42 15q-18 0 -33 -6q-14 -5 -26 -27q-12 -23 -22 -52q-8 -23 -28 -88q-9 -29 -27 -108q-6 -24 -25 -114q-7 -31 -18 -101q-7 -43 -7 -71q0 -86 53 -86q18 0 33 6q14 5 26 27q13 23 35 94q20 66 43 162q22 92 36 170q15 83 15 120zM1071 836
q-22 -32 -42 -91q-20 -57 -30 -139q123 8 175 53q51 45 51 144q0 84 -64 84q-51 0 -90 -51z" />
    <glyph glyph-name="Racute" unicode="&#x154;" horiz-adv-x="1316" 
d="M678 799q35 0 65 8q28 7 52 39q9 14 23 48q11 28 19 62q4 18 11 64q4 27 4 49q0 51 -24 72q-23 20 -64 20h-72l-76 -362h62zM1217 236l-50 -236h-448l-51 412q-10 83 -27 110t-53 27h-25l-59 -281l102 -32l-49 -236h-635l49 236l119 32l189 891l-105 33l51 235h576
q250 0 363 -94q114 -95 114 -262q0 -97 -27 -169q-29 -76 -72 -124q-46 -51 -107 -81q-60 -30 -128 -36v-4q71 -29 106 -77q32 -44 48 -150l22 -164zM532 1663l410 293l154 -285l-459 -190z" />
    <glyph glyph-name="racute" unicode="&#x155;" horiz-adv-x="813" 
d="M541 856q37 110 129 172t204 62l-59 -396q-71 4 -159 -1q-81 -5 -126 -25l-139 -668h-391l166 784l-76 29l55 260h396v-217zM334 1319l409 293l154 -285l-459 -190z" />
    <glyph glyph-name="Rcommaaccent" unicode="&#x156;" horiz-adv-x="1316" 
d="M678 799q35 0 65 8q28 7 52 39q9 14 23 48q11 28 19 62q4 18 11 64q4 27 4 49q0 51 -24 72q-23 20 -64 20h-72l-76 -362h62zM1217 236l-50 -236h-448l-51 412q-10 83 -27 110t-53 27h-25l-59 -281l102 -32l-49 -236h-635l49 236l119 32l189 891l-105 33l51 235h576
q250 0 363 -94q114 -95 114 -262q0 -97 -27 -169q-29 -76 -72 -124q-46 -51 -107 -81q-60 -30 -128 -36v-4q71 -29 106 -77q32 -44 48 -150l22 -164zM262 -479q159 11 189 76q-67 17 -102 59q-36 44 -36 102q0 36 16 73q14 33 42 56q27 23 61 36q36 14 74 14q86 0 146 -54
q59 -53 59 -151q0 -66 -26 -129q-25 -61 -80 -108q-53 -46 -136 -73q-79 -26 -195 -26z" />
    <glyph glyph-name="rcommaaccent" unicode="&#x157;" horiz-adv-x="813" 
d="M541 856q37 110 129 172t204 62l-59 -396q-71 4 -159 -1q-81 -5 -126 -25l-139 -668h-391l166 784l-76 29l55 260h396v-217zM-102 -479q158 11 188 76q-66 16 -101 59q-36 44 -36 102q0 38 15 73q14 33 42 56q27 22 62 36q36 14 73 14q87 0 147 -54q58 -52 58 -151
q0 -69 -25 -129q-25 -61 -80 -108q-53 -45 -137 -73q-79 -26 -194 -26z" />
    <glyph glyph-name="Rcaron" unicode="&#x158;" horiz-adv-x="1316" 
d="M678 799q35 0 65 8q28 7 52 39q9 14 23 48q11 28 19 62q4 18 11 64q4 27 4 49q0 51 -24 72q-23 20 -64 20h-72l-76 -362h62zM1217 236l-50 -236h-448l-51 412q-10 83 -27 110t-53 27h-25l-59 -281l102 -32l-49 -236h-635l49 236l119 32l189 891l-105 33l51 235h576
q250 0 363 -94q114 -95 114 -262q0 -97 -27 -169q-29 -76 -72 -124q-46 -51 -107 -81q-60 -30 -128 -36v-4q71 -29 106 -77q32 -44 48 -150l22 -164zM1161 1792l-274 -281h-221l-195 281l125 150l211 -154l266 154z" />
    <glyph glyph-name="rcaron" unicode="&#x159;" horiz-adv-x="813" 
d="M541 856q37 110 129 172t204 62l-59 -396q-71 4 -159 -1q-81 -5 -126 -25l-139 -668h-391l166 784l-76 29l55 260h396v-217zM963 1448l-275 -281h-221l-195 281l125 149l211 -153l266 153z" />
    <glyph glyph-name="Sacute" unicode="&#x15a;" horiz-adv-x="1056" 
d="M45 420h270v-158q19 -9 56 -21q26 -8 65 -8q66 0 101 32q34 31 34 95q0 37 -10 60q-11 25 -32 46q-23 23 -56 43q-50 30 -84 50q-118 66 -181 162t-63 242q0 128 41 222q39 90 112 152q70 59 168 88q99 29 212 29q124 0 238 -34q119 -36 196 -95l-80 -281h-268v132
q-17 8 -40 12q-21 4 -46 4q-60 0 -94 -32q-33 -32 -33 -85q0 -22 6 -43q5 -17 22 -41q14 -19 44 -43q27 -22 73 -49q71 -43 129 -89q53 -41 91 -94q37 -51 55 -110q18 -60 18 -135q0 -107 -32 -200q-31 -89 -96 -156q-66 -67 -163 -104q-100 -38 -233 -38q-184 0 -298 43
q-112 42 -187 97zM473 1663l410 293l153 -285l-458 -190z" />
    <glyph glyph-name="sacute" unicode="&#x15b;" horiz-adv-x="894" 
d="M20 317h273l2 -98q16 -9 45 -14q24 -4 43 -4q82 0 82 71q0 45 -29 68q-30 24 -106 53q-71 27 -119 59q-50 34 -75 70q-27 39 -39 87q-11 44 -11 110q0 98 35 171t94 119q58 45 139 68t172 23q134 0 228 -27q92 -26 161 -74l-49 -231h-252v88q-18 8 -35 12t-44 4
q-41 0 -67 -18t-26 -55q0 -19 3 -32q3 -14 17 -26q12 -11 42 -25q33 -16 78 -32q76 -28 124 -57q50 -30 80 -68q31 -39 44 -82q14 -47 14 -100q0 -199 -120 -301q-121 -103 -347 -103q-146 0 -241 29q-90 28 -156 70zM305 1319l410 293l153 -285l-458 -190z" />
    <glyph glyph-name="Scircumflex" unicode="&#x15c;" horiz-adv-x="1056" 
d="M45 420h270v-158q19 -9 56 -21q26 -8 65 -8q66 0 101 32q34 31 34 95q0 37 -10 60q-11 25 -32 46q-23 23 -56 43q-50 30 -84 50q-118 66 -181 162t-63 242q0 128 41 222q39 90 112 152q70 59 168 88q99 29 212 29q124 0 238 -34q119 -36 196 -95l-80 -281h-268v132
q-17 8 -40 12q-21 4 -46 4q-60 0 -94 -32q-33 -32 -33 -85q0 -22 6 -43q5 -17 22 -41q14 -19 44 -43q27 -22 73 -49q71 -43 129 -89q53 -41 91 -94q37 -51 55 -110q18 -60 18 -135q0 -107 -32 -200q-31 -89 -96 -156q-66 -67 -163 -104q-100 -38 -233 -38q-184 0 -298 43
q-112 42 -187 97zM387 1642l275 281h221l194 -281l-125 -149l-211 154l-266 -154z" />
    <glyph glyph-name="scircumflex" unicode="&#x15d;" horiz-adv-x="894" 
d="M20 317h273l2 -98q16 -9 45 -14q24 -4 43 -4q82 0 82 71q0 45 -29 68q-30 24 -106 53q-71 27 -119 59q-50 34 -75 70q-27 39 -39 87q-11 44 -11 110q0 98 35 171t94 119q58 45 139 68t172 23q134 0 228 -27q92 -26 161 -74l-49 -231h-252v88q-18 8 -35 12t-44 4
q-41 0 -67 -18t-26 -55q0 -19 3 -32q3 -14 17 -26q12 -11 42 -25q33 -16 78 -32q76 -28 124 -57q50 -30 80 -68q31 -39 44 -82q14 -47 14 -100q0 -199 -120 -301q-121 -103 -347 -103q-146 0 -241 29q-90 28 -156 70zM240 1288l274 281h221l195 -281l-125 -149l-211 153
l-266 -153z" />
    <glyph glyph-name="Scedilla" unicode="&#x15e;" horiz-adv-x="1056" 
d="M166 -283q14 -10 49 -25q25 -11 68 -11q44 0 61 16q18 17 18 45q0 49 -79 49q-13 0 -35 -2q-7 -1 -17 -3l-10 -1l98 197q-120 16 -202 52t-137 79l65 307h270v-158q19 -9 56 -21q26 -8 65 -8q66 0 101 32q34 31 34 95q0 37 -10 60q-11 25 -32 46q-23 23 -56 43
q-50 30 -84 50q-118 66 -181 162t-63 242q0 128 41 222q39 90 112 152q70 59 168 88q99 29 212 29q124 0 238 -34q119 -36 196 -95l-80 -281h-268v132q-17 8 -40 12q-21 4 -46 4q-60 0 -94 -32q-33 -32 -33 -85q0 -22 6 -43q5 -17 22 -41q14 -19 44 -43q27 -22 73 -49
q71 -43 129 -89q53 -41 91 -94q37 -51 55 -110q18 -60 18 -135q0 -103 -31 -198q-29 -88 -94 -156q-63 -66 -161 -104q-100 -39 -230 -40l-35 -65q61 -11 99 -50t38 -110q0 -108 -72 -167q-72 -58 -194 -60q-73 0 -123 15q-48 15 -84 38z" />
    <glyph glyph-name="scedilla" unicode="&#x15f;" horiz-adv-x="894" 
d="M113 -283q14 -10 49 -25q25 -11 67 -11q45 0 62 16q18 17 18 45q0 49 -80 49q-12 0 -34 -2q-7 -1 -17 -3l-10 -1l98 195q-101 11 -168 34q-65 23 -118 58l40 245h273l2 -98q16 -9 45 -14q24 -4 43 -4q82 0 82 71q0 45 -29 68q-30 24 -106 53q-71 27 -119 59
q-50 34 -75 70q-27 39 -39 87q-11 44 -11 110q0 98 35 171t94 119q58 45 139 68t172 23q134 0 228 -27q92 -26 161 -74l-49 -231h-252v88q-18 8 -35 12t-44 4q-41 0 -67 -18t-26 -55q0 -19 3 -32q3 -14 17 -26q12 -11 42 -25q33 -16 78 -32q76 -28 124 -57q50 -30 80 -68
q31 -39 44 -82q14 -47 14 -100q0 -190 -109 -291q-108 -100 -315 -111l-35 -67q60 -10 98 -50q39 -41 39 -110q0 -108 -72 -167q-72 -58 -194 -60q-74 0 -123 15q-48 15 -84 38z" />
    <glyph glyph-name="Scaron" unicode="&#x160;" horiz-adv-x="1056" 
d="M45 420h270v-158q19 -9 56 -21q26 -8 65 -8q66 0 101 32q34 31 34 95q0 37 -10 60q-11 25 -32 46q-23 23 -56 43q-50 30 -84 50q-118 66 -181 162t-63 242q0 128 41 222q39 90 112 152q70 59 168 88q99 29 212 29q124 0 238 -34q119 -36 196 -95l-80 -281h-268v132
q-17 8 -40 12q-21 4 -46 4q-60 0 -94 -32q-33 -32 -33 -85q0 -22 6 -43q5 -17 22 -41q14 -19 44 -43q27 -22 73 -49q71 -43 129 -89q53 -41 91 -94q37 -51 55 -110q18 -60 18 -135q0 -107 -32 -200q-31 -89 -96 -156q-66 -67 -163 -104q-100 -38 -233 -38q-184 0 -298 43
q-112 42 -187 97zM1102 1792l-275 -281h-221l-194 281l125 150l211 -154l266 154z" />
    <glyph glyph-name="scaron" unicode="&#x161;" horiz-adv-x="894" 
d="M20 317h273l2 -98q16 -9 45 -14q24 -4 43 -4q82 0 82 71q0 45 -29 68q-30 24 -106 53q-71 27 -119 59q-50 34 -75 70q-27 39 -39 87q-11 44 -11 110q0 98 35 171t94 119q58 45 139 68t172 23q134 0 228 -27q92 -26 161 -74l-49 -231h-252v88q-18 8 -35 12t-44 4
q-41 0 -67 -18t-26 -55q0 -19 3 -32q3 -14 17 -26q12 -11 42 -25q33 -16 78 -32q76 -28 124 -57q50 -30 80 -68q31 -39 44 -82q14 -47 14 -100q0 -199 -120 -301q-121 -103 -347 -103q-146 0 -241 29q-90 28 -156 70zM954 1448l-274 -281h-221l-195 281l125 149l211 -153
l266 153z" />
    <glyph glyph-name="Tcommaaccent" unicode="&#x162;" horiz-adv-x="1239" 
d="M272 -283q12 -8 50 -25q25 -11 67 -11q45 0 62 16q18 17 18 45q0 49 -80 49q-13 0 -35 -2q-7 -1 -16 -2.5t-10 -1.5l108 215h-246l50 236l116 32l189 893h-80l-80 -219h-264l104 485h1166l-103 -485h-264l12 219h-75l-189 -893l102 -32l-49 -236h-231l-49 -92
q60 -10 98 -50q39 -41 39 -110q0 -108 -73 -167q-72 -59 -193 -60q-74 0 -123 15q-48 15 -84 38z" />
    <glyph glyph-name="tcommaaccent" unicode="&#x163;" horiz-adv-x="731" 
d="M35 -283q14 -10 49 -25q25 -11 68 -11q44 0 61 16q18 17 18 45q0 49 -79 49q-13 0 -35 -2q-5 0 -10 -1l-10 -2t-7 -1l105 207q-65 22 -105 74q-39 51 -39 145q0 14 2 48q1 19 10 60l105 496h-88l53 258h90l51 238l406 63l-64 -301h166l-53 -258h-168l-100 -465
q-1 -7 -3 -17q-1 -5 -1 -14q0 -51 59 -51q24 0 44 1t58 3l-30 -245q-51 -20 -115 -37q-59 -16 -131 -17l-35 -65q61 -11 99 -50t38 -110q0 -108 -72 -167q-72 -58 -194 -60q-74 0 -123 15q-48 15 -84 38z" />
    <glyph glyph-name="Tcaron" unicode="&#x164;" horiz-adv-x="1239" 
d="M874 236l-49 -236h-635l50 236l116 32l189 893h-80l-80 -219h-264l104 485h1166l-103 -485h-264l12 219h-75l-189 -893zM1200 1792l-274 -281h-221l-195 281l125 150l211 -154l266 154z" />
    <glyph glyph-name="tcaron" unicode="&#x165;" horiz-adv-x="731" 
d="M133 1073h90l51 238l406 63l-64 -301h166l-53 -258h-168l-100 -465q-1 -7 -3 -17q-1 -5 -1 -14q0 -51 59 -51q24 0 44 1t58 3l-30 -245q-61 -24 -121 -39q-61 -15 -143 -15q-55 0 -109 13q-46 11 -86 40q-35 25 -57 72q-21 45 -21 113q0 14 2 48q1 19 10 60l105 496h-88z
M1110 1532l-158 -375h-239l80 375h317z" />
    <glyph glyph-name="Tbar" unicode="&#x166;" horiz-adv-x="1239" 
d="M244 821h229l72 340h-80l-80 -219h-264l104 485h1166l-103 -485h-264l12 219h-75l-72 -340h231l-51 -248h-233l-64 -305l102 -32l-49 -236h-635l50 236l116 32l64 305h-227z" />
    <glyph glyph-name="tbar" unicode="&#x167;" horiz-adv-x="731" 
d="M45 647h88l35 168h-88l53 258h90l51 238l406 63l-64 -301h166l-53 -258h-168l-37 -168h170l-43 -213h-172l-18 -84q-1 -7 -3 -17q-1 -5 -1 -14q0 -51 59 -51q24 0 44 1t58 3l-30 -245q-61 -24 -121 -39q-61 -15 -143 -15q-55 0 -109 13q-46 11 -86 40q-35 25 -57 72
q-21 45 -21 113q0 14 2 48q1 19 10 60l25 115h-86z" />
    <glyph glyph-name="Utilde" unicode="&#x168;" horiz-adv-x="1329" 
d="M750 1427l-213 -1007q-7 -33 -7 -49q0 -47 27 -64q26 -16 64 -16q29 0 58 8q25 7 48 20l176 840l-104 33l51 235h524l-248 -1155l103 -36l-49 -236h-385l-29 121q-48 -42 -72 -61q-37 -29 -73 -47q-35 -17 -86 -29q-49 -11 -107 -11q-141 0 -227 83t-86 255q0 86 20 172
l144 676l-105 33l51 235h525zM494 1642q46 121 127 182q79 60 157 60q48 0 80 -11q43 -15 63 -25q9 -5 26 -12.5t25 -11.5q24 -12 48 -12q30 0 55 19t49 53l164 -129q-49 -121 -127 -181q-79 -61 -155 -61q-46 0 -80 12q-50 17 -64 24q-38 18 -52 25q-22 11 -48 11
q-30 0 -56 -18t-49 -54z" />
    <glyph glyph-name="utilde" unicode="&#x169;" horiz-adv-x="1122" 
d="M70 813l55 260h473l-152 -713q-2 -10 -3 -18q-1 -5 -1 -16q0 -56 45 -56q39 0 80 29l164 774h391l-147 -700q-5 -17 -6 -34q-2 -24 -2 -34q0 -19 9 -29t38 -10h33l-43 -241q-64 -27 -120 -40q-54 -12 -102 -12q-91 0 -144 41q-52 40 -69 99q-61 -70 -133 -106
q-68 -34 -157 -34q-112 0 -175 69t-63 194q0 65 14 124l90 424zM301 1290q46 120 127 181t158 61q48 0 80 -11q39 -14 62 -25q9 -5 26 -13t25 -12q22 -11 48 -11q31 0 56 19t49 53l164 -129q-49 -121 -127 -181q-79 -61 -156 -61q-48 0 -80 11q-38 13 -63 25q-4 2 -24 11
t-29 14q-22 11 -48 11q-29 0 -56 -19q-25 -18 -48 -53z" />
    <glyph glyph-name="Umacron" unicode="&#x16a;" horiz-adv-x="1329" 
d="M750 1427l-213 -1007q-7 -33 -7 -49q0 -47 27 -64q26 -16 64 -16q29 0 58 8q25 7 48 20l176 840l-104 33l51 235h524l-248 -1155l103 -36l-49 -236h-385l-29 121q-48 -42 -72 -61q-37 -29 -73 -47q-35 -17 -86 -29q-49 -11 -107 -11q-141 0 -227 83t-86 255q0 86 20 172
l144 676l-105 33l51 235h525zM625 1812h583l-61 -284h-584z" />
    <glyph glyph-name="umacron" unicode="&#x16b;" horiz-adv-x="1122" 
d="M70 813l55 260h473l-152 -713q-2 -10 -3 -18q-1 -5 -1 -16q0 -56 45 -56q39 0 80 29l164 774h391l-147 -700q-5 -17 -6 -34q-2 -24 -2 -34q0 -19 9 -29t38 -10h33l-43 -241q-64 -27 -120 -40q-54 -12 -102 -12q-91 0 -144 41q-52 40 -69 99q-61 -70 -133 -106
q-68 -34 -157 -34q-112 0 -175 69t-63 194q0 65 14 124l90 424zM461 1491h583l-61 -285h-584z" />
    <glyph glyph-name="Ubreve" unicode="&#x16c;" horiz-adv-x="1329" 
d="M750 1427l-213 -1007q-7 -33 -7 -49q0 -47 27 -64q26 -16 64 -16q29 0 58 8q25 7 48 20l176 840l-104 33l51 235h524l-248 -1155l103 -36l-49 -236h-385l-29 121q-48 -42 -72 -61q-37 -29 -73 -47q-35 -17 -86 -29q-49 -11 -107 -11q-141 0 -227 83t-86 255q0 86 20 172
l144 676l-105 33l51 235h525zM868 1503q-96 0 -161 34q-67 35 -108 85q-40 49 -59 114q-18 61 -16 119l262 39q6 -43 29 -71q23 -27 70 -27t71 27q25 29 41 71l260 -45q-10 -58 -42 -120q-33 -64 -81 -112q-50 -51 -118 -82q-69 -32 -148 -32z" />
    <glyph glyph-name="ubreve" unicode="&#x16d;" horiz-adv-x="1122" 
d="M70 813l55 260h473l-152 -713q-2 -10 -3 -18q-1 -5 -1 -16q0 -56 45 -56q39 0 80 29l164 774h391l-147 -700q-5 -17 -6 -34q-2 -24 -2 -34q0 -19 9 -29t38 -10h33l-43 -241q-64 -27 -120 -40q-54 -12 -102 -12q-91 0 -144 41q-52 40 -69 99q-61 -70 -133 -106
q-68 -34 -157 -34q-112 0 -175 69t-63 194q0 65 14 124l90 424zM678 1159q-97 0 -162 34t-107 85t-60 114q-17 58 -15 119l262 39q6 -43 29 -71q23 -27 69 -27q48 0 72 27q25 29 41 71l260 -45q-10 -59 -42 -121q-30 -59 -82 -111q-51 -51 -118 -82q-69 -32 -147 -32z" />
    <glyph glyph-name="Uring" unicode="&#x16e;" horiz-adv-x="1329" 
d="M750 1427l-213 -1007q-7 -33 -7 -49q0 -47 27 -64q26 -16 64 -16q29 0 58 8q25 7 48 20l176 840l-104 33l51 235h524l-248 -1155l103 -36l-49 -236h-385l-29 121q-48 -42 -72 -61q-37 -29 -73 -47q-35 -17 -86 -29q-49 -11 -107 -11q-141 0 -227 83t-86 255q0 86 20 172
l144 676l-105 33l51 235h525zM621 1776q23 108 98 160q77 53 186 53q113 0 176 -63q64 -64 64 -161q0 -30 -6 -63q-22 -110 -97 -162q-74 -51 -180 -51q-117 0 -182 62q-66 63 -66 161q0 24 7 64zM864 1628q60 0 82 105q6 24 6 45q0 33 -13 52t-42 19q-35 0 -54 -26
q-19 -27 -30 -78q-6 -24 -6 -47q0 -32 14 -50q15 -20 43 -20z" />
    <glyph glyph-name="uring" unicode="&#x16f;" horiz-adv-x="1122" 
d="M70 813l55 260h473l-152 -713q-2 -10 -3 -18q-1 -5 -1 -16q0 -56 45 -56q39 0 80 29l164 774h391l-147 -700q-5 -17 -6 -34q-2 -24 -2 -34q0 -19 9 -29t38 -10h33l-43 -241q-64 -27 -120 -40q-54 -12 -102 -12q-91 0 -144 41q-52 40 -69 99q-61 -70 -133 -106
q-68 -34 -157 -34q-112 0 -175 69t-63 194q0 65 14 124l90 424zM455 1446q23 109 98 161q76 52 186 52q113 0 176 -63q64 -64 64 -160q0 -31 -6 -64q-23 -111 -96 -162t-181 -51q-116 0 -182 63q-65 62 -65 160q0 30 6 64zM698 1298q60 0 82 105q6 24 6 45q0 33 -13 52
q-14 20 -42 20q-35 0 -54 -27t-30 -78q-6 -24 -6 -47q0 -32 14 -50q15 -20 43 -20z" />
    <glyph glyph-name="Uhungarumlaut" unicode="&#x170;" horiz-adv-x="1329" 
d="M750 1427l-213 -1007q-7 -33 -7 -49q0 -47 27 -64q26 -16 64 -16q29 0 58 8q25 7 48 20l176 840l-104 33l51 235h524l-248 -1155l103 -36l-49 -236h-385l-29 121q-48 -42 -72 -61q-37 -29 -73 -47q-35 -17 -86 -29q-49 -11 -107 -11q-141 0 -227 83t-86 255q0 86 20 172
l144 676l-105 33l51 235h525zM492 1599l288 449l254 -137l-377 -422zM911 1599l287 449l256 -137l-379 -422z" />
    <glyph glyph-name="uhungarumlaut" unicode="&#x171;" horiz-adv-x="1122" 
d="M70 813l55 260h473l-152 -713q-2 -10 -3 -18q-1 -5 -1 -16q0 -56 45 -56q39 0 80 29l164 774h391l-147 -700q-5 -17 -6 -34q-2 -24 -2 -34q0 -19 9 -29t38 -10h33l-43 -241q-64 -27 -120 -40q-54 -12 -102 -12q-91 0 -144 41q-52 40 -69 99q-61 -70 -133 -106
q-68 -34 -157 -34q-112 0 -175 69t-63 194q0 65 14 124l90 424zM346 1288l289 449l254 -138l-377 -421zM766 1288l287 449l256 -138l-379 -421z" />
    <glyph glyph-name="Uogonek" unicode="&#x172;" horiz-adv-x="1329" 
d="M815 -479q-111 0 -166 56t-55 155q0 93 58 158q60 68 141 112l-27 119q-48 -42 -72 -61q-37 -29 -73 -47q-35 -17 -86 -29q-49 -11 -107 -11q-141 0 -227 83t-86 255q0 86 20 172l144 676l-105 33l51 235h525l-213 -1007q-7 -33 -7 -49q0 -47 27 -64q26 -16 64 -16
q29 0 58 8q25 7 48 20l176 840l-104 33l51 235h524l-248 -1155l103 -36l-49 -236h-154q-81 -63 -107 -100q-28 -40 -28 -80q0 -20 9 -35q8 -14 36 -14q29 0 50 9q25 11 38 19l43 -190q-41 -41 -105 -65q-62 -23 -147 -23z" />
    <glyph glyph-name="uogonek" unicode="&#x173;" horiz-adv-x="1122" 
d="M676 -6q-48 18 -72 49q-24 30 -35 70q-61 -70 -133 -106q-68 -34 -157 -34q-112 0 -175 69t-63 194q0 65 14 124l90 424l-75 29l55 260h473l-152 -713q-2 -10 -3 -18q-1 -5 -1 -16q0 -56 45 -56q39 0 80 29l164 774h391l-147 -700q-5 -17 -6 -34q-2 -24 -2 -34
q0 -19 9 -29t38 -10h33l-43 -241q-116 -34 -166 -92t-50 -113q0 -18 10 -35q8 -14 36 -14q29 0 50 9q25 11 38 19l43 -190q-41 -41 -106 -65q-62 -23 -146 -23q-111 0 -166 56t-55 155q0 85 53 150q54 66 131 112z" />
    <glyph glyph-name="Wcircumflex" unicode="&#x174;" horiz-adv-x="1869" 
d="M969 444q0 105 1 159q2 105 5 157h-4q-20 -89 -37 -151q-22 -79 -51 -167l-156 -442h-442l-23 1159l-88 33l51 235h596l-51 -235l-88 -33l2 -399q0 -100 -9 -176q-15 -131 -18 -160h2q2 9 9.5 39t10.5 46q11 48 19 79q2 9 23 81q8 28 29 91l223 667h377l-17 -665
q-1 -68 -7 -172q-5 -81 -15 -166h2q10 54 15 79q3 15 17 78q9 43 22 83q15 49 34 96l155 399l-88 33l52 235h503l-51 -235l-90 -33l-477 -1159h-432zM840 1642l274 281h221l195 -281l-125 -149l-211 154l-266 -154z" />
    <glyph glyph-name="wcircumflex" unicode="&#x175;" horiz-adv-x="1527" 
d="M539 0h-367l-57 778l-74 35l55 260h375l12 -389q4 -78 0 -145q-6 -84 -14 -150h4q15 83 33 147q15 53 49 142l154 395h340l4 -395q2 -78 -4 -141q-2 -24 -7.5 -73.5t-7.5 -74.5h4q2 13 16 79q10 48 15 71t21 69q14 40 28 72l180 393h342l-505 -1073h-367l-12 305
q-3 51 -5 154q-1 50 1 141h-4q-15 -70 -35 -144q-18 -68 -51 -149zM565 1288l275 281h221l194 -281l-125 -149l-210 153l-267 -153z" />
    <glyph glyph-name="Ycircumflex" unicode="&#x176;" horiz-adv-x="1255" 
d="M850 1192l51 235h508l-51 -235l-88 -33l-422 -637l-53 -254l102 -32l-49 -236h-635l49 236l119 32l53 254l-176 637l-84 33l51 235h584l-49 -235l-84 -33l29 -129q12 -62 13 -66q7 -44 8 -56q2 -18 4 -52q1 -18 -1 -57q3 11 16 53q5 16 21 50q7 15 31 55q21 35 45 71
l86 131zM541 1642l274 281h221l195 -281l-125 -149l-211 154l-266 -154z" />
    <glyph glyph-name="ycircumflex" unicode="&#x177;" horiz-adv-x="987" 
d="M586 0q-50 -102 -105 -174q-56 -73 -120 -119q-67 -48 -138 -73t-157 -37l-129 309q63 4 120 9q59 5 105 18q47 14 82 38q34 24 57 68h-135l-51 741l-74 33l55 260h381l10 -438q0 -60 -1 -86q-2 -50 -4 -74q-2 -23 -6 -71q-4 -52 -7 -76h2q15 76 36 156q20 76 54 149
l195 440h344zM307 1288l275 281h221l194 -281l-125 -149l-210 153l-267 -153z" />
    <glyph glyph-name="Ydieresis" unicode="&#x178;" horiz-adv-x="1255" 
d="M850 1192l51 235h508l-51 -235l-88 -33l-422 -637l-53 -254l102 -32l-49 -236h-635l49 236l119 32l53 254l-176 637l-84 33l51 235h584l-49 -235l-84 -33l29 -129q12 -62 13 -66q7 -44 8 -56q2 -18 4 -52q1 -18 -1 -57q3 11 16 53q5 16 21 50q7 15 31 55q21 35 45 71
l86 131zM668 1495q-78 0 -133 52q-56 53 -56 130q0 81 52 134q53 55 128 55q40 0 74 -15q37 -16 61 -40q26 -26 41 -60t15 -74t-14 -71q-16 -36 -40 -58q-25 -24 -59 -39q-31 -14 -69 -14zM1110 1495q-41 0 -73 14q-33 14 -59 39q-24 22 -40 58q-14 31 -14 71q0 79 50 134
t126 55q80 0 137 -55q55 -54 55 -134q0 -77 -53 -130q-52 -52 -129 -52z" />
    <glyph glyph-name="Zacute" unicode="&#x179;" horiz-adv-x="1056" 
d="M-20 272l673 889h-161l-70 -143h-272l88 409h962l-57 -266l-676 -895h176l84 172h272l-94 -438h-985zM492 1663l409 293l154 -285l-459 -190z" />
    <glyph glyph-name="zacute" unicode="&#x17a;" horiz-adv-x="962" 
d="M18 254l478 573h-117l-68 -112h-233l76 358h829l-47 -264l-477 -563h133l49 114h254l-74 -360h-852zM373 1319l409 293l154 -285l-459 -190z" />
    <glyph glyph-name="Zdotaccent" unicode="&#x17b;" horiz-adv-x="1056" 
d="M-20 272l673 889h-161l-70 -143h-272l88 409h962l-57 -266l-676 -895h176l84 172h272l-94 -438h-985zM772 1489q-50 0 -88 17q-43 19 -72 48q-30 30 -48 71q-17 38 -17 87q0 48 17 86q19 43 48 72t72 48q38 17 88 17t88 -17q43 -19 72 -48t48 -72q17 -38 17 -86
q0 -49 -17 -87q-18 -41 -48 -71q-29 -29 -72 -48q-38 -17 -88 -17z" />
    <glyph glyph-name="zdotaccent" unicode="&#x17c;" horiz-adv-x="962" 
d="M18 254l478 573h-117l-68 -112h-233l76 358h829l-47 -264l-477 -563h133l49 114h254l-74 -360h-852zM604 1135q-46 0 -84 16q-39 16 -67 46q-29 30 -45 69q-17 40 -17 82t17 82q16 37 45 68q28 30 67 46q40 17 84 17q42 0 82 -17q41 -17 68 -46q29 -31 45 -68
q16 -38 16 -82t-16 -82q-17 -39 -45 -69q-27 -29 -68 -46q-38 -16 -82 -16z" />
    <glyph glyph-name="Zcaron" unicode="&#x17d;" horiz-adv-x="1056" 
d="M-20 272l673 889h-161l-70 -143h-272l88 409h962l-57 -266l-676 -895h176l84 172h272l-94 -438h-985zM1122 1792l-274 -281h-221l-195 281l125 150l211 -154l266 154z" />
    <glyph glyph-name="zcaron" unicode="&#x17e;" horiz-adv-x="962" 
d="M18 254l478 573h-117l-68 -112h-233l76 358h829l-47 -264l-477 -563h133l49 114h254l-74 -360h-852zM1001 1448l-274 -281h-221l-195 281l125 149l211 -153l266 153z" />
    <glyph glyph-name="longs" unicode="&#x17f;" horiz-adv-x="671" 
d="M387 -43q-17 -86 -59 -147q-46 -66 -102 -108q-61 -45 -125 -70q-68 -26 -130 -38l-100 181q61 40 88 87q26 45 43 130l154 792l-86 31l55 258h86l16 82q22 107 62 180q39 72 94 115q53 41 126 60q71 18 157 18q85 0 151 -18t131 -52l-82 -215q-38 18 -59 22q-27 5 -64 5
q-60 0 -87 -29q-28 -29 -38 -80z" />
    <glyph glyph-name="uni018F" unicode="&#x18f;" horiz-adv-x="1140" 
d="M29 416q0 129 30 240t99 192h555v26q0 112 -44 179q-43 65 -143 65q-65 0 -134 -19q-66 -18 -142 -61l-70 265q34 31 82 57q50 27 111 48q67 23 131 34q69 12 145 12q243 0 364 -136q122 -137 122 -419q0 -115 -19 -232q-18 -113 -51 -208q-33 -97 -75 -173
q-44 -79 -87 -130q-95 -108 -209 -146q-112 -37 -227 -37q-202 0 -321 113q-117 111 -117 330zM655 457q13 50 16 63q6 25 13 74h-217q-28 -45 -40 -110q-11 -58 -11 -115q0 -133 80 -133q63 0 97 61q33 58 62 160z" />
    <glyph glyph-name="florin" unicode="&#x192;" 
d="M254 868h119l51 244q23 109 66 175q43 65 102 104q55 36 123 50q64 13 131 13q112 0 171 -22q61 -23 89 -39l-96 -267q-19 11 -44 20t-61 9q-30 0 -48 -14q-19 -15 -30 -56l-47 -217h183l-60 -278h-182l-207 -979h-408l207 979h-118z" />
    <glyph glyph-name="uni01B5" unicode="&#x1b5;" horiz-adv-x="1056" 
d="M162 862h264l227 299h-161l-70 -143h-272l88 409h962l-57 -266l-225 -299h120l-49 -244h-256l-266 -352h176l84 172h272l-94 -438h-985l60 272l262 346h-129z" />
    <glyph glyph-name="uni01B6" unicode="&#x1b6;" horiz-adv-x="962" 
d="M111 633h223l162 194h-117l-68 -112h-233l76 358h829l-47 -264l-150 -176h103l-33 -189h-229l-168 -198h133l49 114h254l-74 -360h-852l49 254l158 190h-98z" />
    <glyph glyph-name="Aringacute" unicode="&#x1fa;" horiz-adv-x="1361" 
d="M618 1583q23 109 99 161t186 52q114 0 176 -62q64 -64 64 -161q0 -31 -6 -64q-12 -60 -39 -98l78 -1143l88 -32l-52 -236h-596l52 236l88 32l-4 105h-320l-47 -105l88 -32l-51 -236h-500l51 236l90 32l570 1151q-12 26 -16 47q-5 27 -5 54q0 28 6 63zM639 1980l410 293
l153 -284l-459 -191zM549 621h190l-4 108q-5 77 -6 163q-2 103 2 183h-4q-25 -97 -58 -182q-35 -90 -69 -162zM862 1436q60 0 82 104q6 24 6 45q0 33 -13 52q-14 20 -42 20q-35 0 -54 -27t-30 -78q-6 -24 -6 -47q0 -32 14 -50q15 -19 43 -19z" />
    <glyph glyph-name="aringacute" unicode="&#x1fb;" horiz-adv-x="1107" 
d="M604 829q-30 0 -44 -10q-16 -11 -32 -45q-14 -32 -32 -94q-18 -61 -29 -119q-16 -84 -21 -120q-8 -62 -8 -97q0 -42 12 -60t37 -18q19 0 34 9t32 26l109 498q-5 6 -22 20q-13 10 -36 10zM555 121q-44 -75 -116 -112q-71 -36 -148 -36q-106 0 -178 80q-72 79 -72 250
q0 81 12 176t36 186q25 95 55 171q32 80 69 129q55 71 128 103t144 32q81 0 143 -28q61 -27 107 -93l64 94h309l-147 -700q-6 -22 -7 -34q-2 -24 -2 -34q0 -17 10 -29q9 -10 37 -10h33l-43 -241q-68 -27 -122 -39q-57 -13 -99 -13q-92 0 -147 43q-55 44 -66 105zM461 1397
q23 109 98 161q76 52 186 52q114 0 177 -63t63 -161q0 -30 -6 -63q-23 -111 -96 -162t-181 -51q-117 0 -182 62t-65 161q0 29 6 64zM705 1249q59 0 81 105q7 28 7 45q0 32 -14 52q-13 19 -42 19q-35 0 -54 -26q-19 -27 -30 -78q-6 -24 -6 -47q0 -32 14 -50q15 -20 44 -20z
M504 1796l409 293l154 -285l-459 -190z" />
    <glyph glyph-name="AEacute" unicode="&#x1fc;" horiz-adv-x="1804" 
d="M831 438h-319l-109 -170l89 -32l-52 -236h-518l51 236l90 32l572 891l-105 33l52 235h1353l-88 -409h-254l-6 143h-188l-64 -303h119l49 82h205l-90 -424h-205l-16 84h-117l-72 -334h197l86 172h256l-92 -438h-1026l49 236l119 32zM672 686h213l35 162q19 97 38 169
q40 156 46 179h-5zM1079 1663l410 293l153 -285l-458 -190z" />
    <glyph glyph-name="aeacute" unicode="&#x1fd;" horiz-adv-x="1427" 
d="M412 225q32 0 55 29l43 197h-31q-35 0 -59 -15q-25 -16 -39 -38q-15 -24 -21 -51t-6 -54q0 -36 16 -52t42 -16zM903 -27q-95 0 -174 33q-81 34 -133 109q-61 -76 -139 -109t-164 -33q-138 0 -221 77q-82 76 -82 224q0 97 32 167q31 68 93 112q59 42 150 62t204 20h78
q7 29 12 56q4 23 4 36q0 90 -100 90q-68 0 -136 -23q-71 -24 -132 -57l-91 244q88 55 191 87q104 32 219 32q164 0 254 -78q123 78 295 78q81 0 148 -23q68 -23 115 -63t75 -100q26 -56 26 -128q0 -187 -136 -266q-137 -80 -431 -80v-22q0 -90 29 -125t112 -35q54 0 111 15
q54 14 137 55l43 -240q-58 -46 -164 -80q-108 -35 -225 -35zM952 836q-23 -34 -42 -76q-18 -41 -29 -125q60 4 104 12q40 7 70 27q26 18 39 49q12 30 12 80q0 84 -64 84q-51 0 -90 -51zM606 1319l410 293l153 -285l-458 -190z" />
    <glyph glyph-name="Oslashacute" unicode="&#x1fe;" horiz-adv-x="1236" 
d="M145 154q-90 128 -90 335q0 109 18 226q19 124 50 225q35 114 79 201q47 92 103 151q78 81 184 122q104 40 240 40q182 0 301 -72l148 205l139 -100l-162 -225q76 -121 76 -308q0 -99 -17 -221q-17 -121 -49 -232q-34 -116 -82 -213q-52 -104 -114 -163
q-157 -152 -408 -152q-173 0 -291 66l-151 -209l-135 100zM596 1114q-20 -33 -40 -89q-26 -73 -43 -133q-21 -75 -39 -159q-18 -83 -30 -164l392 545q-16 38 -50 58t-67 20q-38 0 -67 -16q-28 -15 -56 -62zM561 236q38 0 67 16t56 61q18 29 38 82q15 39 40 121q17 54 38 144
q15 64 29 153l-378 -524q22 -30 50 -41q30 -12 60 -12zM518 1663l410 293l153 -285l-458 -190z" />
    <glyph glyph-name="oslashacute" unicode="&#x1ff;" horiz-adv-x="1062" 
d="M121 117q-80 101 -80 274q0 91 17 179q19 98 52 180q38 93 79 156q48 73 106 112q59 42 132 62q72 20 163 20q131 0 231 -47l146 194l129 -100l-150 -197q76 -104 76 -266q0 -91 -17 -180q-18 -97 -52 -180q-35 -87 -81 -158q-47 -72 -104 -113q-60 -43 -132 -61
q-74 -19 -163 -19q-137 0 -227 43l-146 -192l-125 98zM455 754q-30 -69 -53 -146q-21 -71 -33 -159l290 389q-16 16 -32 22q-17 6 -29 6q-42 0 -80 -24q-35 -22 -63 -88zM465 203q43 0 80 24q35 22 63 88q24 56 49 141q24 81 35 154l-286 -381q14 -14 30 -20q17 -6 29 -6z
M432 1319l410 293l153 -285l-458 -190z" />
    <glyph glyph-name="Scommaaccent" unicode="&#x218;" horiz-adv-x="1056" 
d="M45 420h270v-158q19 -9 56 -21q26 -8 65 -8q66 0 101 32q34 31 34 95q0 37 -10 60q-11 25 -32 46q-23 23 -56 43q-50 30 -84 50q-118 66 -181 162t-63 242q0 128 41 222q39 90 112 152q70 59 168 88q99 29 212 29q124 0 238 -34q119 -36 196 -95l-80 -281h-268v132
q-17 8 -40 12q-21 4 -46 4q-60 0 -94 -32q-33 -32 -33 -85q0 -22 6 -43q5 -17 22 -41q14 -19 44 -43q27 -22 73 -49q71 -43 129 -89q53 -41 91 -94q37 -51 55 -110q18 -60 18 -135q0 -107 -32 -200q-31 -89 -96 -156q-66 -67 -163 -104q-100 -38 -233 -38q-184 0 -298 43
q-112 42 -187 97zM141 -479q159 11 189 76q-67 17 -102 59t-35 102q0 38 15 73q14 33 42 56q27 23 61 36q36 14 74 14q86 0 146 -54q59 -53 59 -151q0 -66 -26 -129q-25 -61 -80 -108q-53 -46 -136 -73q-79 -26 -194 -26z" />
    <glyph glyph-name="scommaaccent" unicode="&#x219;" horiz-adv-x="894" 
d="M20 317h273l2 -98q16 -9 45 -14q24 -4 43 -4q82 0 82 71q0 45 -29 68q-30 24 -106 53q-71 27 -119 59q-50 34 -75 70q-27 39 -39 87q-11 44 -11 110q0 98 35 171t94 119q58 45 139 68t172 23q134 0 228 -27q92 -26 161 -74l-49 -231h-252v88q-18 8 -35 12t-44 4
q-41 0 -67 -18t-26 -55q0 -19 3 -32q3 -14 17 -26q12 -11 42 -25q33 -16 78 -32q76 -28 124 -57q50 -30 80 -68q31 -39 44 -82q14 -47 14 -100q0 -199 -120 -301q-121 -103 -347 -103q-146 0 -241 29q-90 28 -156 70zM86 -479q158 11 188 76q-66 16 -101 59q-36 44 -36 102
q0 36 16 73q14 33 42 56q27 23 61 36q36 14 74 14q86 0 146 -54q59 -53 59 -151q0 -66 -26 -129q-25 -61 -80 -108q-53 -46 -136 -73q-79 -26 -195 -26z" />
    <glyph glyph-name="uni021A" unicode="&#x21a;" horiz-adv-x="1239" 
d="M874 236l-49 -236h-635l50 236l116 32l189 893h-80l-80 -219h-264l104 485h1166l-103 -485h-264l12 219h-75l-189 -893zM236 -479q158 11 188 76q-66 16 -101 59q-36 44 -36 102q0 38 15 73q14 33 42 56q27 22 62 36q36 14 73 14q87 0 147 -54q58 -52 58 -151
q0 -66 -26 -129q-26 -62 -79 -108q-53 -45 -137 -73q-79 -26 -194 -26z" />
    <glyph glyph-name="uni021B" unicode="&#x21b;" horiz-adv-x="731" 
d="M133 1073h90l51 238l406 63l-64 -301h166l-53 -258h-168l-100 -465q-1 -7 -3 -17q-1 -5 -1 -14q0 -51 59 -51q24 0 44 1t58 3l-30 -245q-61 -24 -121 -39q-61 -15 -143 -15q-55 0 -109 13q-46 11 -86 40q-35 25 -57 72q-21 45 -21 113q0 14 2 48q1 19 10 60l105 496h-88z
M-4 -479q158 11 188 76q-66 16 -101 59q-36 44 -36 102q0 38 15 73q14 33 42 56q27 22 62 36q36 14 74 14q86 0 146 -54q58 -52 58 -151q0 -69 -25 -129q-25 -61 -80 -108q-53 -46 -136 -73q-79 -26 -195 -26z" />
    <glyph glyph-name="dotlessj" unicode="&#x237;" horiz-adv-x="557" 
d="M74 813l55 260h473l-229 -1081q-22 -103 -62 -175q-41 -74 -98 -118q-64 -50 -138 -79q-77 -30 -181 -58l-58 202q34 16 61 40q20 17 38 50q16 28 26 65q12 43 23 91l166 774z" />
    <glyph glyph-name="uni0259" unicode="&#x259;" horiz-adv-x="995" 
d="M954 678q0 -97 -17 -178q-19 -91 -47 -162q-30 -75 -69 -136q-42 -65 -82 -102q-79 -78 -172 -102q-95 -25 -202 -25q-82 0 -149 23q-68 23 -115 63q-45 38 -74 99q-27 57 -27 129q0 108 38 179q38 72 109 112q73 41 179 59q115 19 241 25v18q0 72 -28 103
q-29 32 -113 32q-54 0 -111 -15q-54 -14 -137 -55l-43 240q58 46 164 80q108 35 225 35q208 0 320 -104q110 -103 110 -318zM475 238q23 33 42 90q20 57 30 139q-122 -7 -174 -53q-51 -45 -51 -144q0 -84 63 -84q50 0 90 52z" />
    <glyph glyph-name="uni02BB" unicode="&#x2bb;" horiz-adv-x="538" 
d="M662 1366q-54 -11 -87 -27q-36 -17 -58 -35q-24 -19 -37 -40q-14 -21 -21 -39q64 -23 104 -79q41 -58 41 -128q0 -51 -17 -89q-19 -42 -47 -69q-31 -29 -68 -44q-38 -15 -81 -15q-99 0 -163 65t-64 187q0 83 30 161q31 80 89 141q60 63 150 106q93 44 214 59z" />
    <glyph glyph-name="afii57929" unicode="&#x2bc;" horiz-adv-x="538" 
d="M147 936q52 11 86 27q39 19 59 35q24 19 37 40t21 39q-64 23 -104 79q-41 58 -41 128q0 51 17 89q19 42 47 69q31 29 68 44t81 15q99 0 163 -65t64 -187q0 -84 -30 -162q-31 -80 -89 -141q-60 -63 -150 -106t-214 -58z" />
    <glyph glyph-name="circumflex" unicode="&#x2c6;" horiz-adv-x="1116" 
d="M295 1288l274 281h222l194 -281l-125 -149l-211 153l-266 -153z" />
    <glyph glyph-name="caron" unicode="&#x2c7;" horiz-adv-x="1116" 
d="M985 1448l-274 -281h-222l-194 281l125 149l211 -153l266 153z" />
    <glyph glyph-name="breve" unicode="&#x2d8;" horiz-adv-x="1116" 
d="M618 1159q-96 0 -161 34q-67 35 -108 85q-40 49 -59 114q-18 61 -16 119l263 39q6 -45 28 -71q23 -27 70 -27q48 0 72 27q25 29 41 71l260 -45q-10 -59 -42 -121q-30 -59 -82 -111q-50 -51 -118 -82q-69 -32 -148 -32z" />
    <glyph glyph-name="dotaccent" unicode="&#x2d9;" horiz-adv-x="1116" 
d="M637 1135q-46 0 -84 16q-41 17 -68 46q-29 30 -45 69q-16 38 -16 82t16 82q16 37 45 68q27 29 68 46q40 17 84 17q42 0 82 -17q39 -16 67 -46q29 -31 45 -68q17 -40 17 -82t-17 -82q-17 -39 -45 -69t-67 -46q-38 -16 -82 -16z" />
    <glyph glyph-name="ring" unicode="&#x2da;" horiz-adv-x="1116" 
d="M381 1446q23 109 98 161q76 52 187 52q113 0 176 -63t63 -160q0 -31 -6 -64q-23 -111 -96 -162t-180 -51q-117 0 -183 63q-65 62 -65 160q0 30 6 64zM625 1298q59 0 82 105q6 24 6 45q0 32 -14 52t-42 20q-35 0 -54 -27t-30 -78q-6 -24 -6 -47q0 -31 15 -50
q15 -20 43 -20z" />
    <glyph glyph-name="ogonek" unicode="&#x2db;" horiz-adv-x="1116" 
d="M459 -479q-111 0 -166 56t-55 155q0 50 19 92q19 43 52 80q31 35 75 65q41 28 89 51h225q-55 -41 -81 -64q-32 -27 -50 -50q-17 -22 -25 -43q-7 -20 -7 -43q0 -20 9 -35q8 -14 36 -14q29 0 50 9q25 11 38 19l43 -190q-41 -41 -106 -65q-62 -23 -146 -23z" />
    <glyph glyph-name="tilde" unicode="&#x2dc;" horiz-adv-x="1116" 
d="M242 1290q46 120 127 181t157 61q48 0 80 -11q43 -15 63 -25q9 -5 26 -13t25 -12q22 -11 48 -11q30 0 55 19t49 53l164 -129q-49 -121 -127 -181q-79 -61 -155 -61q-48 0 -80 11q-42 15 -64 25q-38 18 -52 25q-22 11 -48 11q-29 0 -56 -19q-25 -18 -48 -53z" />
    <glyph glyph-name="hungarumlaut" unicode="&#x2dd;" horiz-adv-x="1116" 
d="M158 1288l288 449l254 -138l-376 -421zM578 1288l286 449l256 -138l-379 -421z" />
    <glyph glyph-name="gravecomb" unicode="&#x300;" horiz-adv-x="2" 
d="M-643 1327l182 281l361 -289l-129 -182z" />
    <glyph glyph-name="acutecomb" unicode="&#x301;" horiz-adv-x="2" 
d="M-674 1319l410 293l153 -285l-458 -190z" />
    <glyph glyph-name="uni0302" unicode="&#x302;" horiz-adv-x="2" 
d="M-741 1288l274 281h221l195 -281l-125 -149l-211 153l-266 -153z" />
    <glyph glyph-name="tildecomb" unicode="&#x303;" horiz-adv-x="2" 
d="M-776 1290q46 120 127 181t157 61q48 0 80 -11q43 -15 63 -25q9 -5 26 -13t25 -12q22 -11 48 -11q30 0 55 19q27 21 50 53l163 -129q-49 -121 -127 -181q-79 -61 -155 -61q-48 0 -80 11q-42 15 -64 25q-38 18 -52 25q-22 11 -48 11q-29 0 -56 -19q-25 -18 -48 -53z" />
    <glyph glyph-name="uni0304" unicode="&#x304;" horiz-adv-x="2" 
d="M-735 1491h583l-61 -285h-584z" />
    <glyph glyph-name="uni0306" unicode="&#x306;" horiz-adv-x="2" 
d="M-496 1167q-96 0 -161 34q-67 35 -108 85q-40 49 -59 114q-18 61 -16 120l262 39q6 -44 29 -72q23 -27 70 -27t71 27q25 28 41 72l261 -46q-10 -58 -42 -120q-32 -61 -82 -112t-118 -82q-69 -32 -148 -32z" />
    <glyph glyph-name="uni0307" unicode="&#x307;" horiz-adv-x="2" 
d="M-152 1135q-46 0 -84 16q-39 16 -67 46q-29 30 -45 69q-17 40 -17 82t17 82q16 37 45 68q28 30 67 46q40 17 84 17q42 0 82 -17q41 -17 68 -46q29 -31 45 -68q16 -38 16 -82t-16 -82q-17 -39 -45 -69q-27 -29 -68 -46q-38 -16 -82 -16z" />
    <glyph glyph-name="uni0308" unicode="&#x308;" horiz-adv-x="2" 
d="M-692 1155q-78 0 -133 52q-56 53 -56 130q0 79 53 134t128 55q39 0 73 -15q37 -16 61 -40q26 -26 41 -60q15 -35 15 -74q0 -40 -14 -71q-16 -36 -40 -58q-25 -24 -59 -39q-31 -14 -69 -14zM-250 1155q-41 0 -73 14q-33 14 -59 39q-24 22 -40 58q-14 31 -14 71
q0 79 50 134t126 55q80 0 137 -55q55 -54 55 -134q0 -77 -53 -130q-52 -52 -129 -52z" />
    <glyph glyph-name="uni030A" unicode="&#x30a;" horiz-adv-x="2" 
d="M-733 1446q23 109 98 161q76 52 186 52q114 0 177 -63t63 -160q0 -31 -6 -64q-23 -111 -96 -162q-74 -51 -181 -51q-116 0 -182 63q-65 62 -65 160q0 30 6 64zM-489 1298q59 0 81 105q7 28 7 45q0 32 -14 52t-42 20q-35 0 -54 -27t-30 -78q-6 -24 -6 -47q0 -31 15 -50
q15 -20 43 -20z" />
    <glyph glyph-name="uni030B" unicode="&#x30b;" horiz-adv-x="2" 
d="M-956 1247l288 449l254 -137l-377 -422zM-537 1247l287 449l256 -137l-379 -422z" />
    <glyph glyph-name="uni030C" unicode="&#x30c;" horiz-adv-x="2" 
d="M41 1448l-274 -281h-222l-194 281l125 149l211 -153l266 153z" />
    <glyph glyph-name="uni0312" unicode="&#x312;" horiz-adv-x="2" 
d="M-104 1706q-53 -11 -86 -28q-39 -20 -59 -38q-23 -20 -37 -42q-14 -21 -21 -39q64 -23 104 -79q41 -58 41 -128q0 -51 -17 -89q-19 -42 -47 -69q-31 -29 -68 -44q-38 -15 -81 -15q-99 0 -163 65t-64 186q0 84 30 163q31 81 89 144q61 66 150 108q93 44 214 59z" />
    <glyph glyph-name="uni0313" unicode="&#x313;" horiz-adv-x="2" 
d="M-602 856q53 11 86 28q36 19 58 38q23 20 37 42q15 24 22 40q-66 24 -105 78q-41 58 -41 128q0 48 18 89q19 42 47 69q31 30 67 44q37 15 81 15q99 0 163 -65q65 -67 65 -186q0 -84 -30 -163q-31 -81 -89 -144q-60 -65 -151 -108q-93 -44 -214 -59z" />
    <glyph glyph-name="uni0326" unicode="&#x326;" horiz-adv-x="2" 
d="M-639 -418q52 11 86 27q33 16 58 36q24 19 37 40q16 25 22 39q-66 24 -105 78q-41 58 -41 128q0 48 18 89q19 42 47 69q31 30 67 44q38 15 81 15q99 0 163 -65q65 -67 65 -186q0 -84 -30 -162q-31 -81 -89 -142q-60 -63 -151 -106q-87 -42 -214 -57z" />
    <glyph glyph-name="uni0327" unicode="&#x327;" horiz-adv-x="2" 
d="M-852 -283q14 -10 49 -25q25 -11 68 -11q44 0 61 16q19 17 19 45q0 49 -80 49q-13 0 -35 -2q-7 -1 -17 -3l-10 -1l109 215l10 20h160l-62 -112q61 -11 99 -50q39 -41 39 -110q0 -108 -73 -167q-72 -58 -194 -60q-73 0 -122 15q-48 15 -84 38z" />
    <glyph glyph-name="uni0328" unicode="&#x328;" horiz-adv-x="2" 
d="M-655 -479q-111 0 -166 56q-56 58 -56 155q0 47 20 92q19 43 52 80q31 35 75 65q41 28 89 51h225q-55 -41 -81 -64q-32 -27 -50 -50q-17 -22 -25 -43q-8 -22 -8 -43q0 -18 10 -35q8 -14 35 -14q30 0 51 9q25 11 38 19l43 -190q-41 -41 -106 -65q-62 -23 -146 -23z" />
    <glyph glyph-name="uni037E" unicode="&#x37e;" horiz-adv-x="559" 
d="M-78 -152q53 11 86 28q39 20 59 38q21 18 36 42t22 40q-65 23 -105 79t-40 128q0 51 17 89q18 40 47 68q31 29 68 44q40 16 81 16q97 0 162 -66q65 -67 65 -186q0 -84 -30 -163q-30 -80 -89 -143q-63 -68 -150 -109q-90 -43 -214 -58zM92 737q0 45 18 86q20 45 47 72
q30 30 70 48q41 18 88 18t88 -18t71 -48q27 -27 47 -72q18 -40 18 -86q0 -47 -18 -87q-18 -41 -47 -70q-31 -31 -71 -49q-38 -17 -88 -17t-88 17t-70 49q-29 29 -47 70q-18 40 -18 87z" />
    <glyph glyph-name="tonos" unicode="&#x384;" horiz-adv-x="1116" 
d="M311 1167l176 379h355l-289 -379h-242z" />
    <glyph glyph-name="dieresistonos" unicode="&#x385;" horiz-adv-x="1116" 
d="M1094 1157q-70 0 -115 45t-45 111q0 69 43 115q44 47 106 47q71 0 121 -47q49 -46 49 -115q0 -66 -47 -111q-46 -45 -112 -45zM578 1167l110 379h299l-231 -379h-178zM393 1157q-69 0 -114 45q-46 46 -46 111q0 69 42 115q42 47 108 47q71 0 121 -47q49 -46 49 -115
q0 -66 -47 -111q-46 -45 -113 -45z" />
    <glyph glyph-name="Alphatonos" unicode="&#x386;" horiz-adv-x="1361" 
d="M752 373h-320l-47 -105l88 -32l-51 -236h-500l51 236l90 32l574 1159h461l78 -1159l88 -32l-52 -236h-596l52 236l88 32zM549 621h190l-4 108q-5 77 -6 163q-2 103 2 183h-4q-25 -97 -58 -182q-35 -90 -69 -162zM-55 1051l176 379h354l-289 -379h-241z" />
    <glyph glyph-name="anoteleia" unicode="&#x387;" horiz-adv-x="569" 
d="M76 623q0 48 17 86q19 43 47 71q30 30 71 48t88 18t88 -18t71 -48q28 -28 47 -71q17 -38 17 -86q0 -49 -17 -87q-19 -43 -47 -71q-30 -30 -71 -48t-88 -18t-88 18t-71 48q-28 28 -47 71q-17 38 -17 87z" />
    <glyph glyph-name="Epsilontonos" unicode="&#x388;" horiz-adv-x="1097" 
d="M911 516h-204l-17 84h-117l-71 -334h196l86 172h256l-92 -438h-1026l49 236l119 32l189 891l-105 33l51 235h1004l-88 -409h-254l-6 143h-189l-63 -303h119l49 82h204zM-362 1051l176 379h354l-289 -379h-241z" />
    <glyph glyph-name="Etatonos" unicode="&#x389;" horiz-adv-x="1427" 
d="M692 236l119 32l70 328h-308l-69 -328l102 -32l-49 -236h-635l49 236l119 32l189 891l-105 33l51 235h635l-51 -235l-117 -33l-63 -297h307l63 297l-104 33l51 235h635l-51 -235l-117 -33l-188 -891l102 -32l-49 -236h-635zM-362 1051l176 379h354l-289 -379h-241z" />
    <glyph glyph-name="Iotatonos" unicode="&#x38a;" horiz-adv-x="706" 
d="M-29 236l119 32l189 891l-105 33l51 235h635l-51 -235l-117 -33l-188 -891l102 -32l-49 -236h-635zM-362 1051l176 379h354l-289 -379h-241z" />
    <glyph glyph-name="Omicrontonos" unicode="&#x38c;" horiz-adv-x="1236" 
d="M561 -27q-245 0 -375 130q-131 131 -131 386q0 109 18 226q19 124 50 225q35 114 79 201q47 92 103 151q78 81 184 122q104 40 240 40q246 0 374 -125t128 -375q0 -99 -17 -221q-17 -121 -49 -232q-34 -116 -82 -213q-52 -104 -114 -163q-157 -152 -408 -152zM561 236
q28 0 52 15q23 14 40 42q20 30 38 83q21 61 39 128q18 66 37 152q16 72 31 157q14 78 21 139q8 67 8 103q0 78 -28 107q-29 30 -80 30q-58 0 -96 -53q-19 -25 -38 -81q-21 -62 -38 -129q-16 -64 -36 -154q-16 -72 -31 -157q-11 -60 -20 -139q-7 -59 -7 -100q0 -79 29 -111
t79 -32zM-260 1051l176 379h354l-288 -379h-242z" />
    <glyph glyph-name="Upsilontonos" unicode="&#x38e;" horiz-adv-x="1255" 
d="M850 1192l51 235h508l-51 -235l-88 -33l-422 -637l-53 -254l102 -32l-49 -236h-635l49 236l119 32l53 254l-176 637l-84 33l51 235h584l-49 -235l-84 -33l29 -129q12 -62 13 -66q7 -44 8 -56q2 -18 4 -52q1 -18 -1 -57q3 11 16 53q5 16 21 50q7 15 31 55q21 35 45 71
l86 131zM-383 1051l176 379h354l-288 -379h-242z" />
    <glyph glyph-name="Omegatonos" unicode="&#x38f;" horiz-adv-x="1292" 
d="M1042 428q-32 -34 -73 -63q-42 -29 -99 -52l-8 -34h96l48 63h170l-72 -342h-545l88 416q29 5 59 38q32 35 48 97q2 9 28 127q14 65 27 139q13 76 20 133q9 76 9 107q0 55 -22 96q-21 39 -87 39q-62 0 -97 -56q-36 -57 -69 -182q-27 -104 -49 -214q-20 -99 -20 -173
q0 -68 17 -101t40 -50l-88 -416h-508l72 342h143l20 -63h105l6 28q-54 26 -95 69q-40 41 -66 92t-38 105q-12 55 -12 111q0 67 10 134q11 72 30 143q20 75 49 138q30 66 71 122q96 133 222 183q127 50 286 50q228 0 356 -129q127 -128 127 -354q0 -166 -48 -301
q-48 -134 -151 -242zM-260 1051l176 378h354l-288 -378h-242z" />
    <glyph glyph-name="iotadieresistonos" unicode="&#x390;" horiz-adv-x="610" 
d="M463 373q-5 -17 -6 -34q-2 -24 -2 -34q0 -19 9 -29t38 -10h33l-43 -241q-60 -27 -117 -39q-62 -13 -105 -13q-59 0 -104 17q-43 16 -71 44t-41 63t-13 75q0 68 12 123l105 489l-76 29l55 260h473zM827 1157q-69 0 -114 45t-45 111q0 69 43 115q44 47 106 47q71 0 121 -47
q49 -46 49 -115q0 -66 -47 -111q-46 -45 -113 -45zM311 1167l111 379h299l-232 -379h-178zM127 1157q-70 0 -115 45t-45 111q0 69 42 115q42 47 108 47q71 0 121 -47q49 -46 49 -115q0 -66 -47 -111q-46 -45 -113 -45z" />
    <glyph glyph-name="Alpha" unicode="&#x391;" horiz-adv-x="1361" 
d="M752 373h-320l-47 -105l88 -32l-51 -236h-500l51 236l90 32l574 1159h461l78 -1159l88 -32l-52 -236h-596l52 236l88 32zM549 621h190l-4 108q-5 77 -6 163q-2 103 2 183h-4q-25 -97 -58 -182q-35 -90 -69 -162z" />
    <glyph glyph-name="Beta" unicode="&#x392;" horiz-adv-x="1206" 
d="M555 266q61 0 88 7q28 7 49 36q12 18 20 38q8 22 16 50q5 16 11 53q4 23 4 44q0 44 -24 73t-88 29h-58l-69 -330h51zM680 862q47 0 72 11q27 12 41 32q22 32 34 84q13 55 13 88q0 39 -21 62q-21 22 -59 22h-68l-63 -299h51zM829 1427q84 0 154 -19q74 -20 125 -58
q54 -40 84 -101q31 -64 31 -143q0 -152 -80 -252q-79 -98 -225 -121q90 -23 157 -94q66 -69 66 -176q0 -90 -27 -180q-27 -89 -80 -150q-62 -69 -167 -101q-107 -32 -271 -32h-674l49 236l119 32l189 891l-105 33l51 235h604z" />
    <glyph glyph-name="Gamma" unicode="&#x393;" horiz-adv-x="1052" 
d="M649 236l-49 -236h-678l49 236l119 32l189 891l-105 33l51 235h979l-102 -485h-264l12 219h-158l-188 -893z" />
    <glyph glyph-name="uni0394" unicode="&#x394;" horiz-adv-x="1312" 
d="M754 305l-68 477q-8 50 -6 137q1 85 12 168h-4q-24 -88 -44 -149q-27 -80 -62 -152l-232 -481h404zM590 1427h461l127 -1159l-58 -268h-1167l59 268z" />
    <glyph glyph-name="Epsilon" unicode="&#x395;" horiz-adv-x="1097" 
d="M911 516h-204l-17 84h-117l-71 -334h196l86 172h256l-92 -438h-1026l49 236l119 32l189 891l-105 33l51 235h1004l-88 -409h-254l-6 143h-189l-63 -303h119l49 82h204z" />
    <glyph glyph-name="Zeta" unicode="&#x396;" horiz-adv-x="1056" 
d="M-20 272l673 889h-161l-70 -143h-272l88 409h962l-57 -266l-676 -895h176l84 172h272l-94 -438h-985z" />
    <glyph glyph-name="Eta" unicode="&#x397;" horiz-adv-x="1427" 
d="M692 236l119 32l70 328h-308l-69 -328l102 -32l-49 -236h-635l49 236l119 32l189 891l-105 33l51 235h635l-51 -235l-117 -33l-63 -297h307l63 297l-104 33l51 235h635l-51 -235l-117 -33l-188 -891l102 -32l-49 -236h-635z" />
    <glyph glyph-name="Theta" unicode="&#x398;" horiz-adv-x="1269" 
d="M575 -27q-244 0 -381 130q-139 131 -139 386q0 109 18 226q19 124 50 225q35 114 79 201q47 92 103 151q78 81 184 122q104 40 256 40q245 0 382 -125t137 -375q0 -96 -19 -221q-18 -118 -54 -232q-37 -116 -88 -213q-54 -102 -118 -163q-78 -77 -175 -114
q-99 -38 -235 -38zM561 236q29 0 61 18t48 45q18 28 39 82q22 57 42 127q25 85 41 151q17 69 34 156q19 99 25 138q9 63 9 102q0 77 -37 107t-88 30q-46 0 -69 -17q-26 -19 -43 -45q-20 -30 -38 -81q-21 -61 -38 -126q-16 -63 -36 -151q-16 -69 -31 -156q-11 -62 -20 -138
q-7 -59 -7 -99q0 -79 29 -111t79 -32zM604 856h156l-53 -252h-156z" />
    <glyph glyph-name="Iota" unicode="&#x399;" horiz-adv-x="706" 
d="M-29 236l119 32l189 891l-105 33l51 235h635l-51 -235l-117 -33l-188 -891l102 -32l-49 -236h-635z" />
    <glyph glyph-name="Kappa" unicode="&#x39a;" horiz-adv-x="1376" 
d="M-29 236l119 32l189 891l-105 33l51 235h635l-51 -235l-117 -33l-188 -891l102 -32l-49 -236h-635zM1276 238l-49 -238h-436l-183 709l381 450l-82 33l47 235h519l-48 -235l-90 -33l-325 -375l151 -516z" />
    <glyph glyph-name="Lambda" unicode="&#x39b;" horiz-adv-x="1323" 
d="M477 236l-51 -236h-504l51 236l90 32l566 1159h440l68 -1159l88 -32l-51 -236h-594l51 236l88 32l-19 461q-4 64 -2 143q1 64 17 162h-4q-24 -93 -48 -158q-23 -63 -59 -143l-215 -465z" />
    <glyph glyph-name="Mu" unicode="&#x39c;" horiz-adv-x="1689" 
d="M385 268l102 -32l-49 -236h-516l49 236l119 32l189 891l-105 33l51 235h629l21 -372q3 -57 5 -176q2 -90 -3 -156h4q17 61 45 147q29 87 75 185l177 372h665l-51 -235l-117 -33l-188 -891l102 -32l-49 -236h-635l49 236l119 32l80 383q18 80 47 200q23 97 47 169h-4
q-25 -63 -73 -187q-38 -99 -85 -184l-200 -370h-320l-35 370q-10 117 -6 208q4 77 2 163h-4q-2 -13 -8.5 -66.5t-11.5 -90.5q-10 -84 -37 -214z" />
    <glyph glyph-name="Nu" unicode="&#x39d;" horiz-adv-x="1357" 
d="M946 1192l49 235h516l-49 -235l-119 -33l-245 -1159h-348l-179 539q-33 101 -52 183q-17 74 -19 157h-4q-4 -37 -9 -72q-4 -31 -9 -74q-4 -34 -14 -86q-3 -15 -10.5 -51t-11.5 -57l-57 -271l102 -32l-49 -236h-516l49 236l119 32l189 891l-105 33l51 235h516l144 -501
q25 -85 40 -166q12 -65 17 -146h4q5 67 17 146q12 83 32 164l54 235z" />
    <glyph glyph-name="Xi" unicode="&#x39e;" horiz-adv-x="1093" 
d="M258 874h727l-63 -292h-725zM471 1126l-68 -141h-253l94 442h981l-97 -442h-243l-6 141h-408zM793 463h247l-96 -463h-1003l98 463h254v-156h422z" />
    <glyph glyph-name="Omicron" unicode="&#x39f;" horiz-adv-x="1236" 
d="M561 -27q-245 0 -375 130q-131 131 -131 386q0 109 18 226q19 124 50 225q35 114 79 201q47 92 103 151q78 81 184 122q104 40 240 40q246 0 374 -125t128 -375q0 -99 -17 -221q-17 -121 -49 -232q-34 -116 -82 -213q-52 -104 -114 -163q-157 -152 -408 -152zM561 236
q28 0 52 15q23 14 40 42q20 30 38 83q21 61 39 128q18 66 37 152q16 72 31 157q14 78 21 139q8 67 8 103q0 78 -28 107q-29 30 -80 30q-58 0 -96 -53q-19 -25 -38 -81q-21 -62 -38 -129q-16 -64 -36 -154q-16 -72 -31 -157q-11 -60 -20 -139q-7 -59 -7 -100q0 -79 29 -111
t79 -32z" />
    <glyph glyph-name="Pi" unicode="&#x3a0;" horiz-adv-x="1398" 
d="M692 1159l-188 -891l86 -32l-49 -236h-619l49 236l119 32l189 891l-105 33l51 235h1327l-51 -235l-117 -33l-188 -891l102 -32l-49 -236h-618l49 236l102 32l189 891h-279z" />
    <glyph glyph-name="Rho" unicode="&#x3a1;" horiz-adv-x="1173" 
d="M643 750q54 0 79 11q29 13 50 34q12 15 24 46q11 30 19 68q10 50 13 75q6 50 6 67q0 110 -103 110h-39l-88 -411h39zM764 1427q110 0 193 -20q88 -21 149 -66q61 -44 95 -116q34 -71 34 -176q0 -69 -11 -129q-12 -66 -33 -126q-21 -59 -53 -113q-30 -51 -73 -87
q-68 -59 -167 -85t-243 -26h-106l-45 -215l102 -32l-49 -236h-635l49 236l119 32l189 891l-105 33l51 235h539z" />
    <glyph glyph-name="Sigma" unicode="&#x3a3;" horiz-adv-x="1032" 
d="M156 1106l69 321h951l-89 -409h-253l-7 143h-217l172 -325l-41 -164l-342 -365h269l77 156h248l-96 -463h-971l62 270l395 416z" />
    <glyph glyph-name="Tau" unicode="&#x3a4;" horiz-adv-x="1239" 
d="M874 236l-49 -236h-635l50 236l116 32l189 893h-80l-80 -219h-264l104 485h1166l-103 -485h-264l12 219h-75l-189 -893z" />
    <glyph glyph-name="Upsilon" unicode="&#x3a5;" horiz-adv-x="1255" 
d="M850 1192l51 235h508l-51 -235l-88 -33l-422 -637l-53 -254l102 -32l-49 -236h-635l49 236l119 32l53 254l-176 637l-84 33l51 235h584l-49 -235l-84 -33l29 -129q12 -62 13 -66q7 -44 8 -56q2 -18 4 -52q1 -18 -1 -57q3 11 16 53q5 16 21 50q7 15 31 55q21 35 45 71
l86 131z" />
    <glyph glyph-name="Phi" unicode="&#x3a6;" horiz-adv-x="1611" 
d="M530 240l7 30q-258 15 -373 110t-115 251q0 117 39 211t122 162q82 67 210 106q126 38 305 43l4 21l-164 36l47 217h744l-47 -219l-174 -34l-7 -25q259 -17 374 -114q116 -98 116 -251q0 -109 -39 -200q-40 -93 -121 -161q-82 -68 -210 -109q-124 -39 -306 -44l-6 -30
l158 -50l-41 -190h-746l41 188zM442 653q0 -77 36 -115q36 -37 106 -42l92 432q-73 -5 -117 -31q-46 -28 -71 -67q-24 -38 -35 -87t-11 -90zM1223 784q0 74 -38 107q-37 32 -104 37l-92 -432q59 0 102 24q42 23 73 65q29 39 44 92t15 107z" />
    <glyph glyph-name="Chi" unicode="&#x3a7;" horiz-adv-x="1339" 
d="M459 764l-180 395l-84 33l51 235h624l-43 -235l-84 -33l76 -196l142 196l-74 33l51 235h532l-51 -235l-90 -33l-377 -473l189 -418l98 -32l-51 -236h-643l51 236l96 32l-96 238l-156 -238l88 -32l-51 -236h-553l47 236l105 32z" />
    <glyph glyph-name="Psi" unicode="&#x3a8;" horiz-adv-x="1753" 
d="M449 236l174 32l34 166q-91 6 -179 28q-84 21 -144 64q-62 44 -96 109q-35 67 -35 156q0 48 12 108l55 260l-84 33l52 235h491l-119 -559q-2 -8 -3 -24q-1 -11 -1 -25q0 -54 34 -81q37 -29 75 -40l96 461l-72 33l52 235h559l-52 -235l-86 -33l-98 -467q83 7 124 53
q40 44 58 129l117 553h483l-51 -235l-88 -33l-57 -266q-28 -134 -80 -222q-51 -88 -129 -140q-76 -51 -184 -74q-111 -24 -248 -25l-35 -164l160 -32l-49 -236h-736z" />
    <glyph glyph-name="uni03A9" unicode="&#x3a9;" horiz-adv-x="1292" 
d="M1042 428q-32 -34 -73 -63q-42 -29 -99 -52l-8 -34h96l48 63h170l-72 -342h-545l88 416q29 5 59 38q32 35 48 97q2 9 28 127q14 65 27 139q13 76 20 133q9 76 9 107q0 55 -22 96q-21 39 -87 39q-62 0 -97 -56q-36 -57 -69 -182q-27 -104 -49 -214q-20 -99 -20 -173
q0 -68 17 -101t40 -50l-88 -416h-508l72 342h143l20 -63h105l6 28q-54 26 -95 69q-40 41 -66 92t-38 105q-12 55 -12 111q0 67 10 134q11 72 30 143q20 75 49 138q30 66 71 122q96 133 222 183q127 50 286 50q228 0 356 -129q127 -128 127 -354q0 -166 -48 -301
q-48 -134 -151 -242z" />
    <glyph glyph-name="Iotadieresis" unicode="&#x3aa;" horiz-adv-x="706" 
d="M-29 236l119 32l189 891l-105 33l51 235h635l-51 -235l-117 -33l-188 -891l102 -32l-49 -236h-635zM362 1495q-78 0 -133 52t-55 130q0 81 52 134q53 55 128 55q40 0 74 -15q35 -15 60 -40q26 -26 41 -60q16 -37 16 -74q0 -38 -15 -71q-16 -36 -40 -58q-26 -24 -58 -39
q-31 -14 -70 -14zM805 1495q-41 0 -73 14q-33 14 -59 39q-24 22 -40 58q-15 33 -15 71q0 78 51 134q50 55 126 55q80 0 137 -55q55 -54 55 -134q0 -77 -53 -130q-52 -52 -129 -52z" />
    <glyph glyph-name="Upsilondieresis" unicode="&#x3ab;" horiz-adv-x="1255" 
d="M668 1495q-78 0 -133 52q-56 53 -56 130q0 81 52 134q53 55 128 55q40 0 74 -15q37 -16 61 -40q26 -26 41 -60t15 -74t-14 -71q-16 -36 -40 -58q-25 -24 -59 -39q-31 -14 -69 -14zM1110 1495q-41 0 -73 14q-33 14 -59 39q-24 22 -40 58q-14 31 -14 71q0 79 50 134t126 55
q80 0 137 -55q55 -54 55 -134q0 -77 -53 -130q-52 -52 -129 -52zM850 1192l51 235h508l-51 -235l-88 -33l-422 -637l-53 -254l102 -32l-49 -236h-635l49 236l119 32l53 254l-176 637l-84 33l51 235h584l-49 -235l-84 -33l29 -129q12 -62 13 -66q7 -44 8 -56q2 -18 4 -52
q1 -18 -1 -57q3 11 16 53q5 16 21 50q7 15 31 55q21 35 45 71l86 131z" />
    <glyph glyph-name="alphatonos" unicode="&#x3ac;" horiz-adv-x="1107" 
d="M604 829q-30 0 -44 -10q-16 -11 -32 -45q-14 -32 -32 -94q-18 -61 -29 -119q-16 -84 -21 -120q-8 -62 -8 -97q0 -42 12 -60t37 -18q19 0 34 9t32 26l109 498q-5 6 -22 20q-13 10 -36 10zM555 121q-44 -75 -116 -112q-71 -36 -148 -36q-106 0 -178 80q-72 79 -72 250
q0 81 12 176t36 186q25 95 55 171q32 80 69 129q55 71 128 103t144 32q81 0 143 -28q61 -27 107 -93l64 94h309l-147 -700q-6 -22 -7 -34q-2 -24 -2 -34q0 -17 10 -29q9 -10 37 -10h33l-43 -241q-68 -27 -122 -39q-57 -13 -99 -13q-92 0 -147 43q-55 44 -66 105zM598 1167
l176 379h354l-288 -379h-242z" />
    <glyph glyph-name="epsilontonos" unicode="&#x3ad;" horiz-adv-x="948" 
d="M487 737q0 -69 62 -69h131l-53 -232h-117q-43 0 -79 -26q-38 -27 -38 -80q0 -30 26 -51q25 -21 81 -21q34 0 66 3q27 3 66 11q12 3 74 21q20 6 91 31l47 -236q-118 -61 -221 -87q-109 -28 -215 -28q-72 0 -150 16q-74 15 -131 48t-92 86t-35 127q0 68 20 117q21 50 56 90
q33 37 81 65q47 27 97 45q-61 24 -102 77t-41 126q0 87 41 151q39 60 107 102q64 39 150 58q87 19 169 19q128 0 226 -21q101 -22 165 -53l-60 -276h-235v116q-11 3 -36 5q-13 1 -36 1q-52 0 -83 -37q-32 -38 -32 -98zM537 1167l176 379h354l-289 -379h-241z" />
    <glyph glyph-name="etatonos" unicode="&#x3ae;" horiz-adv-x="1128" 
d="M90 813l55 260h396v-129q133 156 313 156q110 0 172 -67q61 -65 61 -185q0 -32 -4 -56q-1 -3 -4.5 -25.5t-5.5 -35.5l-76 -358q-5 -17 -6 -34q-2 -24 -2 -34q0 -19 9 -29t38 -10h33l-43 -241q-60 -27 -117 -39q-62 -13 -104 -13q-60 0 -105 17q-42 16 -70 44t-41 63
q-14 37 -14 75q0 63 13 123l86 401q2 14 3 20t1 17q0 53 -43 53q-51 0 -84 -32l-160 -754h-391l166 784zM557 1167l176 379h354l-288 -379h-242z" />
    <glyph glyph-name="iotatonos" unicode="&#x3af;" horiz-adv-x="610" 
d="M463 373q-5 -17 -6 -34q-2 -24 -2 -34q0 -19 9 -29t38 -10h33l-43 -241q-60 -27 -117 -39q-62 -13 -105 -13q-59 0 -104 17q-43 16 -71 44t-41 63t-13 75q0 68 12 123l105 489l-76 29l55 260h473zM311 1167l176 379h355l-289 -379h-242z" />
    <glyph glyph-name="upsilondieresistonos" unicode="&#x3b0;" horiz-adv-x="1101" 
d="M449 279q0 -20 12 -41t43 -21q22 0 45 20t35 74l161 762h392l-146 -692q-22 -104 -57 -175q-38 -78 -97 -128q-60 -51 -146 -78q-85 -27 -204 -27q-198 0 -307 86q-108 86 -108 267q0 53 16 123l72 335l-76 29l55 260h473l-157 -747q0 -3 -1.5 -11t-2.5 -12
q-2 -16 -2 -24zM1055 1157q-70 0 -115 45t-45 111q0 69 43 115q44 47 106 47q71 0 121 -47q49 -46 49 -115q0 -66 -47 -111t-112 -45zM539 1167l110 379h299l-231 -379h-178zM354 1157q-69 0 -114 45t-45 111q0 69 42 115q42 47 107 47q71 0 121 -47q49 -46 49 -115
q0 -66 -47 -111q-46 -45 -113 -45z" />
    <glyph glyph-name="alpha" unicode="&#x3b1;" horiz-adv-x="1107" 
d="M604 829q-30 0 -44 -10q-16 -11 -32 -45q-14 -32 -32 -94q-18 -61 -29 -119q-16 -84 -21 -120q-8 -62 -8 -97q0 -42 12 -60t37 -18q19 0 34 9t32 26l109 498q-5 6 -22 20q-13 10 -36 10zM555 121q-44 -75 -116 -112q-71 -36 -148 -36q-106 0 -178 80q-72 79 -72 250
q0 81 12 176t36 186q25 95 55 171q32 80 69 129q55 71 128 103t144 32q81 0 143 -28q61 -27 107 -93l64 94h309l-147 -700q-6 -22 -7 -34q-2 -24 -2 -34q0 -17 10 -29q9 -10 37 -10h33l-43 -241q-68 -27 -122 -39q-57 -13 -99 -13q-92 0 -147 43q-55 44 -66 105z" />
    <glyph glyph-name="beta" unicode="&#x3b2;" horiz-adv-x="1114" 
d="M731 1311q-68 0 -119 -113q-36 -86 -66 -192q-31 -110 -54 -227q-22 -115 -36 -225q-14 -114 -14 -189q0 -12 2 -48q1 -22 12 -51q10 -26 26 -41q17 -16 46 -16q57 0 90 72q26 51 37 130q11 80 11 148q0 38 -9 70q-7 26 -21 41q-12 13 -30 18q-15 4 -35 4h-16l61 264h25
q39 0 68 30q29 31 47 72q17 39 28 87q11 47 11 78q0 88 -64 88zM299 1300q71 104 183 166t255 62q82 0 157 -18t133 -55q59 -38 93 -97q35 -61 35 -144q0 -151 -78 -241q-80 -93 -205 -144q97 -41 145 -107t48 -192q0 -122 -41 -225q-40 -101 -115 -176t-176 -115
q-103 -41 -225 -41q-214 0 -332 117q-119 117 -119 354q0 105 15 219q16 121 44 225q33 122 75 217q47 105 108 195z" />
    <glyph glyph-name="gamma" unicode="&#x3b3;" horiz-adv-x="970" 
d="M463 281q18 94 40 180q24 96 64 190l174 422h342l-526 -1073l-84 -387h-389l84 387l-53 780l-74 33l55 260h381l10 -428q2 -92 -6 -185q-8 -99 -22 -179h4z" />
    <glyph glyph-name="delta" unicode="&#x3b4;" horiz-adv-x="1062" 
d="M270 1264l52 241h813l-70 -313h-221v70h-154l201 -238q30 -36 53 -68q25 -35 42 -71q18 -39 27 -88t9 -113q0 -91 -17 -180q-18 -97 -52 -180q-35 -87 -81 -158q-47 -72 -104 -113q-60 -43 -132 -61q-74 -19 -163 -19q-203 0 -318 106q-114 105 -114 312q0 101 19 200
t68 191t127 161q81 72 198 106zM524 242q15 29 36 98q26 83 40 141q20 80 32 142q13 65 13 100q0 45 -6 78q-6 32 -33 67q-26 -13 -46 -39q-25 -33 -32 -43q-19 -34 -41 -103q-12 -37 -37 -140q-16 -66 -28 -142q-10 -64 -10 -106q0 -86 53 -86q17 0 34 5q14 4 25 28z" />
    <glyph glyph-name="epsilon" unicode="&#x3b5;" horiz-adv-x="948" 
d="M487 737q0 -69 62 -69h131l-53 -232h-117q-43 0 -79 -26q-38 -27 -38 -80q0 -30 26 -51q25 -21 81 -21q34 0 66 3q27 3 66 11q12 3 74 21q20 6 91 31l47 -236q-118 -61 -221 -87q-109 -28 -215 -28q-72 0 -150 16q-74 15 -131 48t-92 86t-35 127q0 68 20 117q21 50 56 90
q33 37 81 65q47 27 97 45q-61 24 -102 77t-41 126q0 87 41 151q39 60 107 102q64 39 150 58q87 19 169 19q128 0 226 -21q101 -22 165 -53l-60 -276h-235v116q-11 3 -36 5q-13 1 -36 1q-52 0 -83 -37q-32 -38 -32 -98z" />
    <glyph glyph-name="zeta" unicode="&#x3b6;" horiz-adv-x="917" 
d="M381 0q-72 0 -135 15t-112 52q-50 38 -76 92q-27 57 -27 140q0 89 30 187q29 94 86 196q53 94 132 192q81 100 167 179q29 28 72 65q48 42 61 53q45 40 54 47q45 35 57 44h-217l-49 -70h-231l67 313h838l-68 -309q-36 -29 -131 -113q-73 -64 -154 -147q-58 -60 -118 -132
q-65 -78 -103 -137q-43 -66 -71 -133q-27 -64 -27 -120q0 -67 37 -88t102 -21h47q111 0 184 -53q72 -53 72 -162q0 -63 -21 -126t-57 -123q-33 -56 -81 -116q-35 -44 -93 -106l-153 121q47 58 77 104q29 45 29 84q0 36 -25 54q-26 18 -73 18h-90z" />
    <glyph glyph-name="eta" unicode="&#x3b7;" horiz-adv-x="1128" 
d="M90 813l55 260h396v-129q133 156 313 156q110 0 172 -67q61 -65 61 -185q0 -32 -4 -56q-1 -3 -4.5 -25.5t-5.5 -35.5l-76 -358q-5 -17 -6 -34q-2 -24 -2 -34q0 -19 9 -29t38 -10h33l-43 -241q-60 -27 -117 -39q-62 -13 -104 -13q-60 0 -105 17q-42 16 -70 44t-41 63
q-14 37 -14 75q0 63 13 123l86 401q2 14 3 20t1 17q0 53 -43 53q-51 0 -84 -32l-160 -754h-391l166 784z" />
    <glyph glyph-name="theta" unicode="&#x3b8;" horiz-adv-x="1107" 
d="M580 285q32 93 68 250q33 143 50 305q-93 15 -174 43q-85 29 -148 70q-65 43 -104 99q-39 57 -39 130q0 74 28 139q26 62 81 110q51 45 132 71t183 26q238 0 340 -130q103 -132 103 -386q0 -115 -10 -224q-11 -120 -34 -226q-24 -113 -63 -214q-39 -103 -96 -188
q-39 -54 -85 -89q-51 -38 -102 -58q-53 -21 -112 -30q-63 -10 -113 -10q-220 0 -319 90q-98 89 -98 232q0 27 3 62q3 30 11 67l24 115l-75 28l55 260h473l-104 -491q-6 -35 -6 -64q0 -27 12 -45t49 -18q42 0 70 76zM602 1200q0 -70 33 -107q35 -39 80 -57q4 57 6 101
q2 58 2 88q0 50 -16 67q-17 19 -37 19q-41 0 -55 -35q-13 -33 -13 -76z" />
    <glyph glyph-name="iota" unicode="&#x3b9;" horiz-adv-x="610" 
d="M463 373q-5 -17 -6 -34q-2 -24 -2 -34q0 -19 9 -29t38 -10h33l-43 -241q-60 -27 -117 -39q-62 -13 -105 -13q-59 0 -104 17q-43 16 -71 44t-41 63t-13 75q0 68 12 123l105 489l-76 29l55 260h473z" />
    <glyph glyph-name="kappa" unicode="&#x3ba;" horiz-adv-x="1165" 
d="M946 311q7 -24 22 -35q13 -10 50 -10h63v-229q-39 -27 -92 -46q-51 -18 -98 -18q-122 0 -190 43t-103 162l-96 336l-111 -514h-391l166 784l-76 29l55 260h476l-97 -452l350 452h383l-399 -479z" />
    <glyph glyph-name="lambda" unicode="&#x3bb;" horiz-adv-x="1079" 
d="M-102 0l540 1073h105v119q0 26 -11 43q-10 16 -38 16q-26 0 -74 -8q-46 -8 -74 -18l-55 219q71 34 173 60q95 24 191 24q141 0 197 -77q55 -76 55 -218v-897q0 -24 7 -46q8 -24 47 -24h81v-231q-22 -12 -54 -24q-30 -11 -65 -19q-57 -13 -69 -14q-38 -5 -63 -5
q-128 0 -188 62q-60 61 -60 168v309q0 59 1 84q1 33 3 70l6 67q2 13 4.5 39.5t3.5 36.5h-2q-14 -72 -35 -151q-17 -65 -51 -144l-225 -514h-350z" />
    <glyph glyph-name="uni03BC" unicode="&#x3bc;" horiz-adv-x="1142" 
d="M90 813l55 260h473l-151 -713q-1 -10 -3 -18q-1 -5 -1 -16q0 -56 45 -56q39 0 80 29l164 774h391l-148 -700q-5 -17 -6 -34q-2 -24 -2 -34q0 -19 9 -29t38 -10h33l-43 -241q-64 -27 -120 -40q-54 -12 -101 -12q-92 0 -145 41q-51 39 -68 99q-35 -53 -89 -86
q-53 -32 -114 -43l-78 -371h-393l250 1171z" />
    <glyph glyph-name="nu" unicode="&#x3bd;" horiz-adv-x="987" 
d="M1100 1073l-547 -1073h-385l-53 780l-74 33l55 260h381l10 -422q0 -60 -1 -86q-2 -48 -4 -73q-2 -23 -6 -71q-5 -56 -7 -77h2q16 80 36 157q19 74 54 148l195 424h344z" />
    <glyph glyph-name="xi" unicode="&#x3be;" horiz-adv-x="931" 
d="M618 305q100 0 160 -59q62 -60 62 -158q0 -59 -22 -125q-21 -63 -57 -123q-33 -54 -81 -114q-42 -52 -92 -105l-154 121q50 62 77 103q30 47 30 83t-26 54q-25 18 -73 18h-18q-76 0 -144 16q-70 16 -126 57q-55 40 -89 105t-34 162q0 89 26 163q27 77 75 140
q49 64 113 109q62 44 142 65q-90 27 -144 101q-55 75 -55 182q0 90 39 168q38 76 110 136q70 58 171 91q100 33 223 33q115 0 204 -25q84 -23 140 -57l-69 -299h-222v106q-16 11 -38 14q-24 3 -37 3q-39 0 -68 -21t-48 -52q-20 -32 -29 -73q-9 -40 -9 -84q0 -46 37 -79
q38 -33 102 -33h166l-55 -266h-131q-45 0 -91 -16q-44 -15 -79 -44q-33 -27 -55 -71q-21 -42 -21 -95q0 -58 29 -95q28 -36 106 -36h55z" />
    <glyph glyph-name="omicron" unicode="&#x3bf;" horiz-adv-x="1062" 
d="M1022 684q0 -91 -17 -180q-18 -97 -52 -180q-35 -87 -81 -158q-47 -72 -104 -113q-60 -43 -132 -61q-74 -19 -163 -19q-203 0 -318 106q-114 105 -114 312q0 91 17 179q19 98 52 180q38 93 79 156q48 73 106 112q59 42 132 62q72 20 163 20q204 0 318 -105t114 -311z
M653 788q0 45 -13 59q-14 15 -42 15q-18 0 -33 -6q-14 -5 -26 -27q-12 -23 -22 -52q-8 -23 -28 -88q-9 -29 -27 -108q-6 -24 -25 -114q-7 -31 -18 -101q-7 -43 -7 -71q0 -86 53 -86q18 0 33 6q14 5 26 27q13 23 35 94q20 66 43 162q22 92 36 170q15 83 15 120z" />
    <glyph glyph-name="pi" unicode="&#x3c0;" horiz-adv-x="1214" 
d="M1016 373q-5 -17 -6 -34q-2 -24 -2 -34q0 -19 9 -29t38 -10h32l-43 -241q-61 -27 -116 -39q-62 -13 -105 -13q-59 0 -104 17q-43 16 -71 44t-41 63t-13 75q0 68 12 123l105 489h-127l-166 -784h-391l166 784h-125l59 289h1149l-55 -260l-121 -29z" />
    <glyph glyph-name="rho" unicode="&#x3c1;" horiz-adv-x="1077" 
d="M-102 -387l198 934q30 145 74 252q44 105 106 172q63 68 152 98q91 31 211 31q90 0 170 -25q74 -23 130 -76q54 -51 84 -130q30 -80 30 -187q0 -183 -53 -334q-53 -152 -134 -246q-56 -64 -143 -96q-89 -33 -188 -33q-34 0 -88 7q-38 5 -78 14l-82 -381h-389zM461 219
q35 0 60 12t42 54q14 34 34 101q13 43 32 127q12 55 23 132q10 73 10 117q0 42 -9 74q-7 26 -35 26q-43 0 -64 -55q-22 -57 -50 -193l-84 -391q3 -1 10 -2t10 -1q7 -1 21 -1z" />
    <glyph glyph-name="sigma1" unicode="&#x3c2;" horiz-adv-x="888" 
d="M430 371q0 -41 20 -66q21 -26 52 -33l37 -8q57 -12 92 -35q34 -22 55 -49t28 -56q7 -28 7 -56q0 -60 -22 -123q-19 -56 -56 -116q-32 -53 -80 -109q-30 -35 -92 -101l-156 121q47 58 77 104t30 84q0 25 -13 44t-53 30l-61 16q-131 35 -193 133q-61 97 -61 246
q0 75 13 150q13 74 38 151q24 72 59 140t74 112q67 78 161 114q93 36 210 36q113 0 199 -28q80 -26 135 -75l-62 -278h-221v129q-11 6 -16 10t-23 4q-29 0 -55 -26q-27 -27 -45 -93q-2 -6 -9.5 -31t-12.5 -44q-10 -37 -25 -104q-17 -75 -22 -106q-9 -52 -9 -87z" />
    <glyph glyph-name="sigma" unicode="&#x3c3;" horiz-adv-x="1095" 
d="M41 393q0 81 11 155q12 82 39 158q25 72 73 145q45 70 112 120q65 49 157 76q88 26 185 26h539l-55 -260l-111 -29h-47q35 -47 44 -102q9 -56 9 -92q0 -73 -11 -139q-13 -76 -37 -142q-26 -71 -66 -133q-40 -61 -99 -110q-113 -93 -317 -93q-198 0 -311 107
q-114 107 -115 313zM616 668q0 34 -3 61q-4 36 -7 55h-10q-48 0 -70 -39q-19 -30 -41 -93q-16 -44 -36 -130q-17 -69 -27 -135q-10 -63 -10 -106q0 -36 15 -54t38 -18q28 0 43 14q17 15 33 58q33 88 55 188q20 91 20 199z" />
    <glyph glyph-name="tau" unicode="&#x3c4;" horiz-adv-x="905" 
d="M676 784l-94 -434q-1 -7 -3 -17q-1 -5 -1 -14q0 -51 59 -51q24 0 44 1t58 3l-30 -245q-61 -24 -121 -39q-62 -15 -144 -15q-54 0 -108 13q-46 11 -86 40q-35 25 -57 72q-21 45 -21 113q0 14 2 48q1 19 10 60l99 465h-246l59 289h899l-55 -260l-141 -29h-123z" />
    <glyph glyph-name="upsilon" unicode="&#x3c5;" horiz-adv-x="1101" 
d="M449 279q0 -20 12 -41t43 -21q22 0 45 20t35 74l161 762h392l-146 -692q-22 -104 -57 -175q-38 -78 -97 -128q-60 -51 -146 -78q-85 -27 -204 -27q-198 0 -307 86q-108 86 -108 267q0 53 16 123l72 335l-76 29l55 260h473l-157 -747q0 -3 -1.5 -11t-2.5 -12
q-2 -16 -2 -24z" />
    <glyph glyph-name="phi" unicode="&#x3c6;" horiz-adv-x="1464" 
d="M850 207q54 0 79 31q22 27 44 100q17 57 33 126q11 46 29 134q17 81 22 121q8 59 8 84q0 59 -41 59q-14 0 -25 -10q-12 -10 -22 -55zM582 737q24 116 68 189q43 71 101 109t123 51q70 14 140 14q106 0 183 -36q78 -37 127 -96q51 -62 75 -141t24 -170q0 -92 -13 -174
q-14 -89 -43 -164q-30 -78 -78 -144q-49 -68 -120 -112q-65 -42 -162 -62q-92 -19 -206 -19l-80 -369h-379l80 373q-205 15 -292 114q-89 101 -89 283q0 82 11 158q12 81 36 161q23 77 66 150q42 72 100 121q38 32 81 61q45 30 101 56l146 -164q-14 -19 -30 -44
q-13 -20 -26 -53q-38 -104 -55 -163q-28 -96 -40 -154q-16 -79 -23 -130q-9 -70 -9 -91q0 -47 17 -64q16 -15 53 -20z" />
    <glyph glyph-name="chi" unicode="&#x3c7;" horiz-adv-x="1118" 
d="M840 311q12 -27 21 -35q11 -10 44 -10h58v-227q-37 -26 -98 -46q-60 -20 -111 -20q-64 0 -113 13q-46 12 -76 38t-51 64q-21 39 -39 90l-35 101h-4l-180 -279h-367l430 557l-112 229l-84 27l53 260h344l111 -293h4l211 293h358l-452 -559z" />
    <glyph glyph-name="psi" unicode="&#x3c8;" horiz-adv-x="1503" 
d="M690 1073h381l-186 -872q31 11 69 46q40 37 58 126l149 700h379l-149 -694q-23 -107 -66 -180q-44 -75 -111 -121q-69 -48 -160 -71t-216 -25l-80 -369h-379l80 373q-181 6 -281 94t-100 248q0 43 7 86q12 78 17 100l58 270l-76 29l55 260h461l-139 -651q-6 -30 -12 -63
q-5 -30 -5 -50q0 -63 20 -85q19 -21 40 -25z" />
    <glyph glyph-name="omega" unicode="&#x3c9;" horiz-adv-x="1474" 
d="M272 987q40 34 96 64q46 25 103 43l127 -170q-10 -15 -24 -33q-11 -14 -25 -41q-14 -26 -31 -76q-20 -60 -32 -108q-15 -60 -30 -123q-14 -58 -27 -119q-9 -43 -17 -97q-7 -49 -7 -57q0 -9 4 -39q3 -22 25 -22q14 0 21 6q9 7 16 24q8 20 15 47q9 35 18 76l86 400h381
l-86 -402q-9 -48 -11 -64q-4 -28 -4 -52q0 -35 29 -35q22 0 49 59q27 61 48 145q21 86 36 181q15 96 15 170q0 36 -9 85q-8 41 -30 75l131 170q84 -23 142 -68q55 -42 90 -98q32 -52 48 -121q15 -66 15 -135q0 -107 -26 -232q-25 -122 -84 -226q-58 -102 -152 -172
q-93 -69 -228 -69q-65 0 -110 14q-43 13 -73 36q-29 22 -48 50q-17 25 -33 56q-25 -32 -48 -56q-25 -27 -61 -50q-34 -22 -82 -36t-112 -14q-86 0 -150 29q-62 28 -104 79q-41 50 -62 118q-20 64 -20 145q0 84 11 165q13 94 38 177q26 84 71 167q43 78 111 134z" />
    <glyph glyph-name="iotadieresis" unicode="&#x3ca;" horiz-adv-x="610" 
d="M463 373q-5 -17 -6 -34q-2 -24 -2 -34q0 -19 9 -29t38 -10h33l-43 -241q-60 -27 -117 -39q-62 -13 -105 -13q-59 0 -104 17q-43 16 -71 44t-41 63t-13 75q0 68 12 123l105 489l-76 29l55 260h473zM213 1155q-78 0 -133 52t-55 130q0 81 52 134q53 55 128 55q39 0 74 -15
t60 -40q26 -26 41 -60q15 -35 15 -74q0 -40 -14 -71q-16 -36 -40 -58q-26 -24 -58 -39q-31 -14 -70 -14zM655 1155q-40 0 -72 14q-35 15 -60 39q-24 22 -40 58q-14 31 -14 71q0 79 50 134t126 55q80 0 137 -55q56 -54 56 -134q0 -76 -54 -130q-52 -52 -129 -52z" />
    <glyph glyph-name="upsilondieresis" unicode="&#x3cb;" horiz-adv-x="1101" 
d="M449 279q0 -20 12 -41t43 -21q22 0 45 20t35 74l161 762h392l-146 -692q-22 -104 -57 -175q-38 -78 -97 -128q-60 -51 -146 -78q-85 -27 -204 -27q-198 0 -307 86q-108 86 -108 267q0 53 16 123l72 335l-76 29l55 260h473l-157 -747q0 -3 -1.5 -11t-2.5 -12
q-2 -16 -2 -24zM498 1155q-78 0 -133 52q-56 53 -56 130q0 81 52 134q53 55 128 55q39 0 74 -15q37 -16 61 -40q26 -26 41 -60q15 -35 15 -74q0 -40 -14 -71q-16 -36 -40 -58q-25 -24 -59 -39q-31 -14 -69 -14zM940 1155q-41 0 -73 14q-33 14 -59 39q-24 22 -40 58
q-14 31 -14 71q0 79 50 134t126 55q80 0 137 -55q55 -54 55 -134q0 -77 -53 -130q-52 -52 -129 -52z" />
    <glyph glyph-name="omicrontonos" unicode="&#x3cc;" horiz-adv-x="1062" 
d="M1022 684q0 -91 -17 -180q-18 -97 -52 -180q-35 -87 -81 -158q-47 -72 -104 -113q-60 -43 -132 -61q-74 -19 -163 -19q-203 0 -318 106q-114 105 -114 312q0 91 17 179q19 98 52 180q38 93 79 156q48 73 106 112q59 42 132 62q72 20 163 20q204 0 318 -105t114 -311z
M653 788q0 45 -13 59q-14 15 -42 15q-18 0 -33 -6q-14 -5 -26 -27q-12 -23 -22 -52q-8 -23 -28 -88q-9 -29 -27 -108q-6 -24 -25 -114q-7 -31 -18 -101q-7 -43 -7 -71q0 -86 53 -86q18 0 33 6q14 5 26 27q13 23 35 94q20 66 43 162q22 92 36 170q15 83 15 120zM537 1167
l176 379h354l-289 -379h-241z" />
    <glyph glyph-name="upsilontonos" unicode="&#x3cd;" horiz-adv-x="1101" 
d="M449 279q0 -20 12 -41t43 -21q22 0 45 20t35 74l161 762h392l-146 -692q-22 -104 -57 -175q-38 -78 -97 -128q-60 -51 -146 -78q-85 -27 -204 -27q-198 0 -307 86q-108 86 -108 267q0 53 16 123l72 335l-76 29l55 260h473l-157 -747q0 -3 -1.5 -11t-2.5 -12
q-2 -16 -2 -24zM559 1167l176 379h355l-289 -379h-242z" />
    <glyph glyph-name="omegatonos" unicode="&#x3ce;" horiz-adv-x="1474" 
d="M272 987q40 34 96 64q46 25 103 43l127 -170q-10 -15 -24 -33q-11 -14 -25 -41q-14 -26 -31 -76q-20 -60 -32 -108q-15 -60 -30 -123q-14 -58 -27 -119q-9 -43 -17 -97q-7 -49 -7 -57q0 -9 4 -39q3 -22 25 -22q14 0 21 6q9 7 16 24q8 20 15 47q9 35 18 76l86 400h381
l-86 -402q-9 -48 -11 -64q-4 -28 -4 -52q0 -35 29 -35q22 0 49 59q27 61 48 145q21 86 36 181q15 96 15 170q0 36 -9 85q-8 41 -30 75l131 170q84 -23 142 -68q55 -42 90 -98q32 -52 48 -121q15 -66 15 -135q0 -107 -26 -232q-25 -122 -84 -226q-58 -102 -152 -172
q-93 -69 -228 -69q-65 0 -110 14q-43 13 -73 36q-29 22 -48 50q-17 25 -33 56q-25 -32 -48 -56q-25 -27 -61 -50q-34 -22 -82 -36t-112 -14q-86 0 -150 29q-62 28 -104 79q-41 50 -62 118q-20 64 -20 145q0 84 11 165q13 94 38 177q26 84 71 167q43 78 111 134zM721 1167
l176 379h354l-288 -379h-242z" />
    <glyph glyph-name="uni03D0" unicode="&#x3d0;" horiz-adv-x="1163" 
d="M819 1217q0 31 -16 62q-17 32 -66 32q-55 0 -82 -42q-26 -40 -41 -114l-176 -928q12 -2 25 -3q10 -1 29 -1q43 0 85 21t66 61q17 24 36 93q19 67 19 161q0 41 -8 70q-7 25 -20 41q-10 13 -29 18q-15 4 -35 4h-8l51 264h25q39 0 66 29q26 28 45 70t26 85q8 46 8 77z
M754 1528q82 0 158 -18q80 -19 138 -55q60 -37 97 -97q37 -59 37 -144q0 -152 -76 -241q-79 -93 -203 -144q97 -41 145 -107t48 -192q0 -71 -17 -141q-17 -69 -42 -125q-25 -57 -57 -102q-31 -44 -62 -72q-82 -72 -174 -93q-96 -22 -181 -22q-24 0 -90 6q-50 5 -80 15
l-76 -383h-391l291 1503q44 224 183 317q142 95 352 95z" />
    <glyph glyph-name="theta1" unicode="&#x3d1;" horiz-adv-x="1103" 
d="M59 471q0 50 8 136q9 93 23 174q16 93 42 192q25 98 63 187q40 95 85 162q50 75 109 118q66 46 131 67q66 21 160 21q97 0 178 -28q77 -27 130 -87q52 -60 79 -153q27 -94 27 -228q0 -105 -14 -237q-14 -131 -46 -252q-34 -129 -85 -238q-55 -117 -128 -199
q-52 -58 -133 -95q-84 -38 -231 -38q-199 0 -299 115q-99 114 -99 383zM571 352q4 19 24 111q6 28 36 170h-150q-24 -137 -39 -213q-14 -71 -14 -121q0 -90 49 -90q27 0 52 31q24 30 42 112zM606 1245q-14 -40 -34 -130q-21 -95 -48 -230h148q25 125 40 220q13 84 13 132
q0 43 -12 58q-13 16 -35 16q-25 0 -43 -13q-17 -12 -29 -53z" />
    <glyph glyph-name="uni0400" unicode="&#x400;" horiz-adv-x="1097" 
d="M911 516h-204l-17 84h-117l-71 -334h196l86 172h256l-92 -438h-1026l49 236l119 32l189 891l-105 33l51 235h1004l-88 -409h-254l-6 143h-189l-63 -303h119l49 82h204zM489 1671l183 281l360 -289l-129 -182z" />
    <glyph glyph-name="afii10023" unicode="&#x401;" horiz-adv-x="1097" 
d="M911 516h-204l-17 84h-117l-71 -334h196l86 172h256l-92 -438h-1026l49 236l119 32l189 891l-105 33l51 235h1004l-88 -409h-254l-6 143h-189l-63 -303h119l49 82h204zM543 1511q-77 0 -133 53t-56 130q0 79 53 134q53 54 128 54q41 0 73 -14q37 -16 61 -40
q26 -26 41 -61q15 -34 15 -73q0 -41 -14 -72q-15 -34 -40 -57q-25 -24 -59 -39q-33 -15 -69 -15zM985 1511q-39 0 -73 15q-33 14 -59 39q-25 23 -40 57q-14 31 -14 72q0 79 50 134q49 54 126 54q81 0 137 -54q55 -54 55 -134q0 -77 -53 -130t-129 -53z" />
    <glyph glyph-name="afii10051" unicode="&#x402;" horiz-adv-x="1536" 
d="M848 188q125 35 169 105t44 153q0 77 -26 108q-25 30 -87 30q-30 0 -67 -10t-68 -25l-117 -549h-526l51 236l117 32l192 906h-73l-80 -232h-264l104 485h1202l-94 -450h-264l4 197h-121l-76 -355q60 37 128 60q72 24 188 24q146 0 228 -76q83 -77 83 -247q0 -63 -4 -122
q-5 -69 -22 -134q-19 -70 -52 -131q-35 -64 -96 -113q-60 -49 -153 -79q-92 -30 -222 -30h-20q-5 0 -29 2z" />
    <glyph glyph-name="afii10052" unicode="&#x403;" horiz-adv-x="1028" 
d="M649 236l-49 -236h-678l49 236l119 32l189 891l-105 33l51 235h946l-102 -485h-264l12 219h-125l-188 -893zM494 1663l409 293l154 -285l-459 -190z" />
    <glyph glyph-name="afii10053" unicode="&#x404;" horiz-adv-x="1114" 
d="M584 236q22 0 52 3q31 3 48 13l88 168h279l-78 -346q-43 -27 -99 -48q-49 -18 -108 -31t-109 -17q-58 -5 -96 -5q-99 0 -190 24q-95 25 -162 79q-71 57 -112 145q-42 90 -42 221q0 100 18 218q19 127 50 233q34 117 82 216q50 104 114 169q91 95 209 136q116 40 275 40
q120 0 227 -35q104 -34 176 -94l-71 -311h-273v151q-33 27 -84 27q-39 0 -77 -17q-40 -18 -74 -83q-17 -33 -42 -101q-22 -62 -46 -145h323l-53 -256h-326q-7 -46 -12 -90q-4 -39 -4 -78q0 -89 26 -138q25 -48 91 -48z" />
    <glyph glyph-name="afii10054" unicode="&#x405;" horiz-adv-x="1056" 
d="M45 420h270v-158q19 -9 56 -21q26 -8 65 -8q66 0 101 32q34 31 34 95q0 37 -10 60q-11 25 -32 46q-23 23 -56 43q-50 30 -84 50q-118 66 -181 162t-63 242q0 128 41 222q39 90 112 152q70 59 168 88q99 29 212 29q124 0 238 -34q119 -36 196 -95l-80 -281h-268v132
q-17 8 -40 12q-21 4 -46 4q-60 0 -94 -32q-33 -32 -33 -85q0 -22 6 -43q5 -17 22 -41q14 -19 44 -43q27 -22 73 -49q71 -43 129 -89q53 -41 91 -94q37 -51 55 -110q18 -60 18 -135q0 -107 -32 -200q-31 -89 -96 -156q-66 -67 -163 -104q-100 -38 -233 -38q-184 0 -298 43
q-112 42 -187 97z" />
    <glyph glyph-name="afii10055" unicode="&#x406;" horiz-adv-x="706" 
d="M-29 236l119 32l189 891l-105 33l51 235h635l-51 -235l-117 -33l-188 -891l102 -32l-49 -236h-635z" />
    <glyph glyph-name="afii10056" unicode="&#x407;" horiz-adv-x="706" 
d="M332 1520q-78 0 -131 51q-54 52 -54 129q0 78 51 132q49 52 128 52t132 -52q54 -52 54 -132q0 -78 -52 -129t-128 -51zM803 1520q-79 0 -131 51q-54 52 -54 129q0 78 51 132q49 52 128 52t132 -52q54 -52 54 -132q0 -78 -52 -129q-53 -51 -128 -51zM-29 236l119 32
l189 891l-105 33l51 235h635l-51 -235l-117 -33l-188 -891l102 -32l-49 -236h-635z" />
    <glyph glyph-name="afii10057" unicode="&#x408;" horiz-adv-x="706" 
d="M467 96q-27 -121 -77 -205q-49 -82 -119 -135q-71 -54 -154 -89q-84 -35 -185 -66l-73 223q43 22 76 45q34 24 55 55q23 34 38 81q13 41 31 122l220 1032l-105 33l51 235h635l-51 -235l-117 -33z" />
    <glyph glyph-name="afii10058" unicode="&#x409;" horiz-adv-x="1744" 
d="M1221 924h100q121 0 198 -31q72 -29 116 -82q42 -51 56 -118q13 -64 13 -140q0 -50 -10 -106q-9 -52 -29 -116q-18 -60 -45 -110q-28 -53 -59 -84q-62 -62 -164 -100q-99 -37 -262 -37h-633l49 236l119 32l188 893h-143l-152 -575q-45 -169 -83 -285q-38 -115 -84 -185
q-47 -72 -107 -101q-59 -29 -152 -29q-61 0 -141 12l-47 360q49 -6 76 -6q45 0 87 17q38 16 75 66q34 47 70 142q35 94 69 240l80 342l-156 33l51 235h1139l-51 -235l-117 -33zM1106 266q61 0 88 7q28 7 49 36q11 15 22 48q9 25 20 72q8 35 15 73q7 40 7 53q0 45 -20 74
q-19 28 -91 28h-31l-82 -391h23z" />
    <glyph glyph-name="afii10059" unicode="&#x40a;" horiz-adv-x="1865" 
d="M1341 924h101q120 0 197 -31q74 -30 117 -82q41 -50 55 -118t14 -140q0 -50 -10 -106q-9 -52 -29 -116q-18 -60 -45 -110q-27 -51 -60 -84q-63 -63 -163 -100q-99 -37 -263 -37h-632l49 236l119 32l69 328h-287l-69 -328l102 -32l-49 -236h-635l49 236l119 32l189 891
l-105 33l51 235h635l-51 -235l-117 -33l-63 -297h286l64 297l-105 33l52 235h635l-52 -235l-116 -33zM1227 266q61 0 88 7q28 7 49 36q9 12 21 48q12 35 21 72q8 35 15 73q6 35 6 53q0 46 -19 74t-91 28h-31l-82 -391h23z" />
    </font>
</defs>
</svg>
