<?xml version="1.0" standalone="no"?>
<!DOCTYPE svg PUBLIC "-//W3C//DTD SVG 1.1//EN" "http://www.w3.org/Graphics/SVG/1.1/DTD/svg11.dtd" >
<svg xmlns="http://www.w3.org/2000/svg" xmlns:xlink="http://www.w3.org/1999/xlink" version="1.1">
<metadata>
Created by FontForge 20170731 at Fri Sep 18 17:18:58 2020
 By Aleksey,,,
2010 Erik Spiekermann, Christian Schwartz, Kris Sowersby published by FSI FontShop International GmbH
</metadata>
<defs>
<font id="FFUnitSlabPro-Bold" horiz-adv-x="1126" >
  <font-face 
    font-family="FF Unit Slab Pro"
    font-weight="700"
    font-stretch="normal"
    units-per-em="2048"
    panose-1="2 1 8 4 4 1 1 1 1 2"
    ascent="1638"
    descent="-410"
    x-height="1049"
    cap-height="1423"
    bbox="-938 -559 2810 2214"
    underline-thickness="143"
    underline-position="-214"
    unicode-range="U+0020-FB04"
  />
<missing-glyph horiz-adv-x="1067" 
d="M123 1423h821v-1423h-821v1423zM725 219v985h-383v-985h383z" />
    <glyph glyph-name="uniFB00" unicode="ff" horiz-adv-x="1316" 
d="M723 1257q-27 17 -64 24q-35 7 -75 7q-60 0 -87 -33q-28 -34 -28 -104v-102h295v118q0 175 81 263t240 88q90 0 147 -18q58 -18 97 -40l-72 -198q-23 12 -53 21q-28 9 -63 9q-48 0 -67 -26t-19 -86v-131h200v-201h-200v-678l151 -23v-147h-540v147l98 21v680h-295v-680
l98 -21v-147h-501v147l114 19v682h-106v201h106v75q0 109 28 184q26 71 77 115q49 43 117 61q65 17 151 17q73 0 134 -13q59 -13 122 -44z" />
    <glyph glyph-name="fi" unicode="fi" horiz-adv-x="1218" 
d="M1167 147v-147h-501v147l98 21v680h-295v-680l98 -21v-147h-501v147l114 21v680h-106v201h106v79q0 115 33 190q33 76 88 120q54 44 131 62q76 18 162 18q98 0 170 -21t143 -55l-86 -207q-43 20 -95 39q-50 18 -105 18q-79 0 -115 -32q-37 -33 -37 -117v-94h586v-881z
" />
    <glyph glyph-name="fl" unicode="fl" horiz-adv-x="1226" 
d="M1167 147v-147h-501v147l98 21v1096q-21 10 -67 22q-40 10 -83 10q-71 0 -107 -32q-38 -33 -38 -121v-94h162v-201h-162v-680l98 -21v-147h-501v147l114 21v680h-106v201h106v79q0 115 33 190q33 76 88 120q53 43 125 62q69 18 143 18q89 0 156 -21q69 -21 125 -51l39 53
h166v-1331z" />
    <glyph glyph-name="uniFB03" unicode="ffi" horiz-adv-x="1802" 
d="M1178 1518q96 0 170 -21q75 -21 145 -55l-86 -207q-43 20 -95 39q-50 18 -106 18q-78 0 -114 -32q-37 -33 -37 -117v-94h583v-881l115 -21v-147h-502v147l99 21v680h-295v-680l98 -21v-147h-487v147l98 21v680h-295v-680l98 -21v-147h-501v147l114 19v682h-106v201h106
v75q0 109 28 184q26 71 77 115q49 43 117 61q65 17 151 17q71 0 150 -18t143 -56l-123 -174q-30 18 -64 25q-40 8 -75 8q-60 0 -87 -33q-28 -34 -28 -104v-100h295v108q0 181 107 270q109 91 307 91z" />
    <glyph glyph-name="uniFB04" unicode="ffl" horiz-adv-x="1812" 
d="M1638 1499v-1331l115 -21v-147h-502v147l99 21v1096q-25 11 -61 22q-33 10 -75 10q-70 0 -114 -32q-45 -33 -45 -121v-94h162v-201h-162v-680l98 -21v-147h-487v147l98 21v680h-295v-680l98 -21v-147h-501v147l114 19v682h-106v201h106v75q0 109 28 184q26 71 77 115
q49 43 117 61q65 17 151 17q71 0 150 -18t143 -56l-123 -174q-30 18 -64 25q-40 8 -75 8q-60 0 -87 -33q-28 -34 -28 -104v-100h295v108q0 180 109 270q111 91 290 91q89 0 152 -21q66 -22 121 -51l39 53h163z" />
    <glyph glyph-name=".notdef" horiz-adv-x="1067" 
d="M123 1423h821v-1423h-821v1423zM725 219v985h-383v-985h383z" />
    <glyph glyph-name=".null" horiz-adv-x="0" 
 />
    <glyph glyph-name="nonmarkingreturn" horiz-adv-x="495" 
 />
    <glyph glyph-name="space" unicode=" " horiz-adv-x="495" 
 />
    <glyph glyph-name="exclam" unicode="!" horiz-adv-x="618" 
d="M137 1423h342l-71 -1001h-191zM313 -25q-33 0 -66 14t-56 37q-22 22 -36 55t-14 69q0 35 14 68t36 55q23 23 56 37t66 14q71 0 123 -52q51 -51 51 -122q0 -72 -51 -123q-52 -52 -123 -52z" />
    <glyph glyph-name="quotedbl" unicode="&#x22;" horiz-adv-x="950" 
d="M121 1450h289l-35 -602h-219zM539 1450h290l-34 -602h-222z" />
    <glyph glyph-name="numbersign" unicode="#" 
d="M614 408h-180l-55 -408h-191l56 408h-150v190h174l33 238h-154v190h179l55 395h190l-55 -395h180l56 395h188l-55 -395h145v-190h-170l-33 -238h150v-190h-174l-55 -408h-189zM459 598h180l33 238h-180z" />
    <glyph glyph-name="dollar" unicode="$" 
d="M461 -25q-111 4 -199 26q-84 21 -141 56v332h196l52 -205q32 -13 60 -17q33 -5 75 -5q211 0 211 192q0 48 -12 82q-13 37 -35 62q-23 26 -66 48q-46 24 -100 40q-112 34 -181 76q-76 46 -118 98q-46 57 -65 124t-19 156q0 179 94 276t248 124v252h219v-246q74 -6 144 -24
q73 -19 120 -44v-307h-199l-43 168q-27 11 -60 16q-35 5 -67 5q-85 0 -135 -38q-49 -37 -49 -124q0 -47 10 -77q11 -32 37 -57q30 -28 72 -48q44 -21 113 -42q97 -29 171 -68q72 -38 120 -93q48 -56 72 -131q24 -76 24 -183q0 -74 -20 -142q-21 -71 -59 -120
q-42 -55 -103 -91q-65 -38 -148 -56v-258h-219v243z" />
    <glyph glyph-name="percent" unicode="%" horiz-adv-x="1800" 
d="M90 985q0 173 95 265q94 91 249 91q154 0 248 -91t94 -265t-94 -264t-248 -90q-155 0 -249 90q-95 90 -95 264zM528 985q0 121 -20 164q-21 45 -74 45q-54 0 -75 -45t-21 -164t21 -164t75 -45q53 0 74 45q20 43 20 164zM1710 330q0 -174 -94 -264q-96 -91 -248 -91
t-248 91q-94 90 -94 264t94 264t248 90t248 -90t94 -264zM598 0h-207l811 1313h209zM1274 330q0 -121 20 -164q21 -45 74 -45t74 45q20 43 20 164t-20 164q-21 45 -74 45t-74 -45q-20 -43 -20 -164z" />
    <glyph glyph-name="ampersand" unicode="&#x26;" horiz-adv-x="1370" 
d="M901 641v150h406v-150l-95 -31q-22 -86 -54 -168q-29 -75 -79 -153l90 -109l131 -30v-150h-354l-67 80q-73 -49 -163 -78t-196 -29q-220 0 -348 104q-127 103 -127 298q0 134 65 225q65 90 199 162q-65 77 -94 163q-29 87 -29 167q0 78 28 146t80 114t125 72t165 26
q88 0 158 -24q73 -25 121 -67q50 -44 77 -107t27 -138q0 -123 -71 -206q-69 -81 -200 -148l254 -316q32 76 43 166zM553 160q112 0 207 61l-326 393q-49 -38 -67 -93q-19 -57 -19 -124q0 -110 47 -174q47 -63 158 -63zM471 1124q0 -49 22 -98q23 -50 58 -94l29 -35
q70 47 97 97q28 51 28 124q0 144 -117 144q-57 0 -87 -36t-30 -102z" />
    <glyph glyph-name="quotesingle" unicode="'" horiz-adv-x="530" 
d="M121 1450h289l-35 -602h-219z" />
    <glyph glyph-name="parenleft" unicode="(" horiz-adv-x="739" 
d="M399 627q0 -214 21 -355q22 -148 57 -233q39 -96 89 -150q53 -58 118 -102l-68 -143q-149 55 -248 148t-159 219t-84 281q-25 161 -25 333q0 171 25 333q24 157 84 281q60 125 159 218q101 94 248 149l68 -142q-63 -45 -118 -104q-50 -54 -89 -150q-35 -86 -57 -232
q-21 -141 -21 -351z" />
    <glyph glyph-name="parenright" unicode=")" horiz-adv-x="739" 
d="M340 627q0 210 -21 351q-22 146 -57 232q-39 96 -89 150q-53 57 -116 104l66 142q149 -55 249 -149q97 -91 158 -218q60 -124 84 -281q25 -163 25 -333q0 -172 -25 -333q-24 -155 -84 -281q-61 -128 -158 -219q-98 -92 -249 -148l-66 143q64 46 116 102q50 54 89 150
q35 85 57 233q21 141 21 355z" />
    <glyph glyph-name="asterisk" unicode="*" horiz-adv-x="1024" 
d="M141 1237l256 -70l21 275h186l21 -273l258 68l57 -176l-250 -105l146 -233l-152 -109l-172 211l-172 -211l-152 109l146 233l-250 105z" />
    <glyph glyph-name="plus" unicode="+" 
d="M442 586h-331v229h331v363h242v-363h332v-229h-332v-367h-242v367z" />
    <glyph glyph-name="comma" unicode="," horiz-adv-x="581" 
d="M102 -182q66 28 105 75t41 99q-56 11 -102 52q-46 42 -46 126q0 78 50 126t120 48q92 0 148 -62q57 -63 57 -171q0 -170 -86 -267q-86 -96 -246 -131z" />
    <glyph glyph-name="hyphen" unicode="-" horiz-adv-x="661" 
d="M94 707h471v-269h-471v269z" />
    <glyph glyph-name="period" unicode="." horiz-adv-x="583" 
d="M291 -25q-75 0 -130 55t-55 132q0 76 55 129t130 53q77 0 132 -53q54 -53 54 -129q0 -78 -54 -132q-55 -55 -132 -55z" />
    <glyph glyph-name="slash" unicode="/" horiz-adv-x="794" 
d="M520 1571h228l-504 -1888h-230z" />
    <glyph glyph-name="zero" unicode="0" 
d="M57 709q0 381 126 561t380 180q257 0 381 -178q125 -179 125 -559q0 -382 -125 -561t-379 -179q-255 0 -382 178q-126 177 -126 558zM745 707q0 149 -8 261q-8 108 -28 169q-21 64 -57 91t-89 27q-57 0 -90 -26q-34 -26 -55 -90q-22 -65 -29 -168q-8 -112 -8 -258
q0 -149 8 -261q7 -104 29 -169q21 -64 55 -90q35 -27 90 -27q53 0 89 27t57 89q20 61 28 167q8 112 8 258z" />
    <glyph glyph-name="one" unicode="1" 
d="M180 190l287 33v807l-238 -106l-82 155l416 344h203v-1200l260 -33v-190h-846v190z" />
    <glyph glyph-name="two" unicode="2" 
d="M991 0h-905v231q152 120 260 234q105 112 169 209q66 102 92 183q28 89 28 155q0 97 -44 144q-43 46 -140 46q-81 0 -149 -26q-66 -25 -142 -68l-90 182q45 34 85 58q49 29 103 51q52 21 119 37q59 14 131 14q221 0 335 -104q115 -105 115 -318q0 -89 -30 -188
q-28 -91 -98 -200q-63 -97 -172 -203q-99 -96 -255 -199h588v-238z" />
    <glyph glyph-name="three" unicode="3" 
d="M477 -27q-122 0 -220 25q-96 24 -173 57l45 199q61 -18 152 -35q74 -14 149 -14q136 0 185 62q51 65 51 175q0 106 -53 159q-52 52 -187 52h-107v209h117q118 0 161 49q44 50 44 140q0 78 -40 118q-41 41 -146 41q-83 0 -145 -17q-69 -19 -132 -46l-61 188q78 47 174 81
q95 34 231 34q201 0 316 -92q114 -92 114 -271q0 -135 -59 -209q-61 -76 -172 -110q136 -22 206 -118q68 -93 68 -222q0 -98 -27 -181q-28 -85 -90 -144q-64 -61 -161 -95q-100 -35 -240 -35z" />
    <glyph glyph-name="four" unicode="4" 
d="M66 516l362 907h281l-373 -915h307v487l301 47v-534h125v-217h-125v-291h-301v291h-577v225z" />
    <glyph glyph-name="five" unicode="5" 
d="M958 1184h-528l-27 -316q22 11 63 17q42 6 81 6q92 0 173 -24q83 -25 142 -72q61 -49 97 -126t36 -184q0 -123 -31 -216q-31 -92 -100 -160q-69 -67 -172 -101q-107 -35 -250 -35q-121 0 -211 23q-82 21 -159 53l57 197q135 -41 272 -41q144 0 206 59q63 60 63 189
q0 117 -60 172q-59 55 -198 55q-81 0 -137 -10q-60 -11 -125 -31l59 784h749v-239z" />
    <glyph glyph-name="six" unicode="6" 
d="M582 -27q-113 0 -209 35q-95 35 -161 107q-67 73 -102 182q-36 111 -36 262q0 188 45 337q44 147 140 259q93 110 242 184q149 75 347 113l51 -199q-101 -29 -187 -68t-144 -90q-62 -54 -101 -121q-42 -72 -64 -161q39 36 103 64q59 26 147 26q93 0 167 -25t129 -80
q53 -53 84 -138q30 -82 30 -195q0 -121 -37 -211q-39 -94 -101 -155q-64 -62 -153 -94q-90 -32 -190 -32zM578 690q-65 0 -104 -16q-37 -15 -79 -41q-4 -25 -4 -68v-63q0 -162 42 -250t153 -88q86 0 126 66q40 65 40 214q0 124 -40 185t-134 61z" />
    <glyph glyph-name="seven" unicode="7" 
d="M264 1061h-176v362h952v-256q-64 -69 -134 -178q-73 -114 -137 -266q-66 -157 -112 -343q-48 -193 -55 -405l-328 43q18 213 81 396q62 180 144 329t169 258q91 114 157 183h-530z" />
    <glyph glyph-name="eight" unicode="8" 
d="M557 -27q-140 0 -232 34q-95 35 -152 88q-59 54 -83 125t-24 145q0 125 73 202q73 78 191 129q-221 114 -221 369q0 99 33 168q34 72 96 120t145 72q87 25 184 25q205 0 327 -95t122 -270q0 -58 -20 -106q-21 -50 -53 -86q-37 -42 -77 -68q-43 -28 -92 -49
q285 -127 285 -385q0 -201 -133 -309q-135 -109 -369 -109zM481 616q-63 -46 -93 -99t-30 -144q0 -106 53 -159q52 -52 146 -52q105 0 153 50t48 136q0 78 -39 130q-40 54 -146 100zM391 1094q0 -62 29 -112q28 -49 115 -93l81 -43q39 27 63 54q23 26 37 57q12 27 17 64
q4 31 4 75q0 168 -174 168q-82 0 -127 -42t-45 -128z" />
    <glyph glyph-name="nine" unicode="9" 
d="M547 1450q116 0 209 -34q95 -35 160 -104q67 -71 103 -183q36 -111 36 -265q0 -376 -188 -596q-187 -219 -597 -297l-53 199q106 29 195 70q82 38 146 90q63 51 104 121q40 69 63 161q-39 -37 -102 -65q-61 -27 -150 -27q-88 0 -166 26q-76 25 -129 80q-54 55 -83 136
q-29 80 -29 196q0 123 36 211q38 92 102 155t152 94q90 32 191 32zM551 733q61 0 103 17q37 15 79 41q4 25 4 67v66q0 158 -42 247t-152 89q-83 0 -126 -67q-42 -66 -42 -214q0 -122 41 -184t135 -62z" />
    <glyph glyph-name="colon" unicode=":" horiz-adv-x="641" 
d="M319 549q-38 0 -70 14q-35 15 -60 40q-23 23 -39 60q-15 35 -15 72t15 70q16 35 39 58q25 25 60 40t70 15q39 0 73 -15q35 -15 60 -40t40 -58q14 -31 14 -70q0 -40 -14 -72q-15 -35 -40 -60t-60 -40q-32 -14 -73 -14zM319 -25q-75 0 -130 55q-54 54 -54 132q0 76 54 129
q55 53 130 53q78 0 133 -53q54 -53 54 -129q0 -78 -54 -132q-55 -55 -133 -55z" />
    <glyph glyph-name="semicolon" unicode=";" horiz-adv-x="630" 
d="M305 549q-39 0 -71 14q-34 15 -59 40t-40 60q-14 32 -14 72q0 39 14 70q15 33 40 58t59 40q35 15 71 15q39 0 73 -15t58 -40q24 -26 39 -58q14 -31 14 -70q0 -40 -14 -72q-15 -35 -39 -60t-58 -40q-32 -14 -73 -14zM125 -182q62 28 103 75q40 46 42 99q-55 10 -101 52
t-46 126q0 78 48 126t120 48q92 0 148 -62q57 -63 57 -171q0 -170 -86 -267q-86 -96 -244 -131z" />
    <glyph glyph-name="less" unicode="&#x3c;" 
d="M229 762l529 426l137 -172l-399 -322l399 -323l-137 -168l-529 426v133z" />
    <glyph glyph-name="equal" unicode="=" 
d="M121 1036h883v-229h-883v229zM121 582h883v-230h-883v230z" />
    <glyph glyph-name="greater" unicode="&#x3e;" 
d="M897 629l-530 -426l-138 170l400 323l-400 324l138 168l530 -426v-133z" />
    <glyph glyph-name="question" unicode="?" horiz-adv-x="909" 
d="M295 567q0 64 8 110q7 40 25 78q16 34 40 59q28 30 56 54q59 50 85 101q26 50 26 125q0 66 -33 110q-33 43 -111 43q-48 0 -92 -16l-47 -135h-178v252q66 44 159 73t205 29q86 0 158 -19q73 -19 128 -62t86 -111q32 -70 32 -166q0 -66 -14 -120t-38 -94q-26 -42 -66 -78
q-38 -33 -93 -73q-58 -38 -92 -75q-35 -38 -35 -107v-123h-209v145zM406 -25q-72 0 -122 52q-51 53 -51 123q0 69 51 122q50 52 122 52q70 0 122 -52t52 -122q0 -71 -52 -123t-122 -52z" />
    <glyph glyph-name="at" unicode="@" horiz-adv-x="1759" 
d="M788 190q38 0 79 21q45 23 65 41l94 432q-17 20 -49 36q-30 15 -68 15t-65 -17q-28 -18 -51 -69q-11 -22 -29 -78q-12 -36 -26 -99q-8 -33 -18 -102q-7 -46 -7 -85q0 -53 19 -73q20 -22 56 -22zM954 166q-55 -77 -128 -118q-71 -40 -148 -40q-106 0 -171 66
q-65 67 -65 207q0 61 10 143q10 80 29 143q20 66 53 132q32 64 74 112q50 55 115 81q64 26 135 26q72 0 125 -30q52 -30 90 -77l58 84h202l-129 -573q-9 -45 -11 -59q-3 -21 -3 -42q0 -27 16 -43t49 -16q41 0 78 20q39 21 71 71q32 49 51 132q20 85 20 205q0 290 -130 424
q-131 135 -399 135q-155 0 -277 -62q-123 -63 -207 -168q-86 -108 -129 -252q-44 -146 -44 -313q0 -166 41 -277q41 -110 113 -173q73 -64 170 -88q102 -25 208 -25q104 0 184 16q84 17 154 43l58 -145q-80 -36 -182 -61q-103 -25 -234 -25q-152 0 -284 40q-134 41 -234 127
q-100 87 -160 227q-60 141 -60 343q0 204 63 379q64 177 177 307q114 131 280 206q165 75 367 75q174 0 311 -49q139 -50 234 -142q96 -93 149 -231q52 -135 52 -311q0 -166 -39 -282q-38 -114 -104 -187q-65 -73 -146 -105q-80 -32 -168 -32q-129 0 -199 50t-86 132z" />
    <glyph glyph-name="A" unicode="A" horiz-adv-x="1298" 
d="M799 381h-387l-60 -209l148 -25v-147h-475v150l98 16l389 1257h276l394 -1253l92 -20v-150h-557v147l141 25zM463 563h287l-91 326q-16 61 -28 125q-13 69 -19 119h-4q-7 -56 -20 -117q-12 -54 -33 -127z" />
    <glyph glyph-name="B" unicode="B" horiz-adv-x="1243" 
d="M645 184q120 0 170 52q49 50 49 182q0 118 -47 173q-46 54 -158 54h-145v-461h131zM625 823q57 0 93 12t56 36q20 25 28 65q7 36 7 94q0 110 -39 160q-39 49 -156 49h-100v-416h111zM698 1423q121 0 199 -28q79 -28 129 -80t71 -120q21 -69 21 -148q0 -231 -215 -293
q58 -10 111 -35q49 -23 88 -68q37 -43 58 -106q22 -66 22 -152q0 -106 -33 -181q-34 -76 -91 -122q-60 -47 -139 -68q-85 -22 -180 -22h-676v150l140 28v1053l-140 29v163h635z" />
    <glyph glyph-name="C" unicode="C" horiz-adv-x="1130" 
d="M676 -27q-162 0 -277 50t-186 143q-70 92 -105 231q-34 135 -34 312q0 173 29 305q30 135 100 233t184 150q115 53 287 53q114 0 215 -26q98 -25 166 -72v-316h-209l-41 201q-26 15 -56 19q-40 6 -67 6q-80 0 -133 -30q-55 -32 -84 -95q-31 -69 -43 -169
q-12 -104 -12 -251q0 -155 11 -251q12 -106 42 -173t83 -99t134 -32q86 0 154 31l43 192h196v-315q-77 -43 -177 -69q-109 -28 -220 -28z" />
    <glyph glyph-name="D" unicode="D" horiz-adv-x="1304" 
d="M639 184q76 0 129 25q51 24 81 84t42 160t12 254q0 161 -11 255q-12 103 -41 161q-30 60 -80 86t-128 26h-129v-1051h125zM655 1423q144 0 251 -37q110 -38 180 -121q73 -87 109 -222q36 -137 36 -332q0 -209 -40 -344q-41 -139 -118 -220q-76 -81 -191 -114
q-114 -33 -261 -33h-558v150l140 28v1053l-140 29v163h592z" />
    <glyph glyph-name="E" unicode="E" horiz-adv-x="1132" 
d="M891 524h-148l-32 115h-197v-453h317l43 201h191v-387h-1002v150l140 28v1051l-140 33v161h979v-374h-194l-33 186h-301v-412h197l32 111h148v-410z" />
    <glyph glyph-name="F" unicode="F" horiz-adv-x="1083" 
d="M690 154v-154h-627v150l140 30v1049l-140 33v161h973v-381h-196l-33 193h-293v-428h195l32 121h150v-426h-150l-32 121h-195v-443z" />
    <glyph glyph-name="G" unicode="G" horiz-adv-x="1216" 
d="M688 571v164h420v-735h-180l-31 96q-61 -58 -127 -90q-68 -33 -182 -33q-264 0 -389 188t-125 548q0 358 142 549q142 192 456 192q113 0 215 -26q101 -26 170 -72v-297h-207l-43 178q-52 29 -121 29q-151 0 -214 -129q-62 -127 -62 -416q0 -154 11 -249q12 -105 37 -168
q25 -64 70 -94t113 -30q48 0 96 17q47 17 86 51v307z" />
    <glyph glyph-name="H" unicode="H" horiz-adv-x="1425" 
d="M784 150l127 28v453h-397v-453l127 -28v-150h-578v150l140 28v1053l-140 29v163h578v-163l-127 -29v-408h397v408l-127 29v163h578v-163l-139 -29v-1053l139 -28v-150h-578v150z" />
    <glyph glyph-name="I" unicode="I" horiz-adv-x="716" 
d="M63 150l140 28v1053l-140 29v163h590v-163l-139 -29v-1053l139 -28v-150h-590v150z" />
    <glyph glyph-name="J" unicode="J" horiz-adv-x="720" 
d="M518 166q0 -113 -35 -200q-34 -84 -96 -149q-63 -66 -145 -110t-181 -78l-77 156q50 33 95 65q42 30 71 70q28 38 43 91q14 49 14 128v1092l-144 29v163h594v-163l-139 -29v-1065z" />
    <glyph glyph-name="K" unicode="K" horiz-adv-x="1318" 
d="M63 150l140 28v1053l-140 29v163h590v-163l-139 -29v-1053l139 -28v-150h-590v150zM1296 150v-150h-360l-401 717l385 522l-125 21v163h471v-163l-131 -29l-316 -426l367 -637z" />
    <glyph glyph-name="L" unicode="L" horiz-adv-x="1085" 
d="M514 186h293l45 230h195v-416h-984v150l140 30v1049l-140 31v163h590v-163l-139 -31v-1043z" />
    <glyph glyph-name="M" unicode="M" horiz-adv-x="1638" 
d="M598 1423l135 -505q28 -100 42 -178q18 -99 22 -130h4q3 16 6.5 35.5t8.5 47t8 45.5q13 70 44 180l150 505h557v-163l-139 -29v-1051l139 -30v-150h-582v150l137 30v565q0 66 2 156q2 71 3 118q1 19 2.5 49t1.5 38q1 14 2.5 37.5t1.5 30.5h-4q-23 -110 -49 -206
q-18 -68 -58 -200l-162 -520h-213l-145 495q-19 65 -32 117q-10 41 -28 121q-16 69 -23 110q-3 18 -8 45.5t-7 37.5h-4q3 -55 4 -72q1 -43 3 -106q1 -20 1.5 -61.5t0.5 -62.5q1 -44 1 -129v-563l139 -30v-150h-496v150l138 30v1051l-138 29v163h535z" />
    <glyph glyph-name="N" unicode="N" horiz-adv-x="1378" 
d="M836 1260v163h489v-163l-131 -29v-1231h-250l-377 692q-52 96 -94 194q-40 93 -63 163h-4q8 -83 11 -195q3 -118 3 -242v-434l139 -28v-150h-496v150l138 28v1053l-138 29v163h441l330 -630q54 -109 92 -197q37 -86 61 -164h4q-8 72 -12 184q-4 100 -4 228v387z" />
    <glyph glyph-name="O" unicode="O" horiz-adv-x="1269" 
d="M637 -27q-140 0 -245 42t-176 131q-69 87 -106 229q-36 139 -36 334q0 389 144 565t419 176q277 0 418 -175t141 -562q0 -393 -140 -566q-141 -174 -419 -174zM639 162q65 0 107 26q44 27 71 90t39 167q12 105 12 266q0 158 -12 263q-12 106 -39 169t-71 90t-107 27
q-65 0 -108 -27t-70 -90t-39 -169q-12 -105 -12 -261q0 -161 12 -267q12 -107 39 -170q27 -64 70 -89t108 -25z" />
    <glyph glyph-name="P" unicode="P" horiz-adv-x="1179" 
d="M633 731q52 0 85 11q36 12 59 41t34 79q10 47 10 123q0 78 -10 125q-11 50 -34 78q-24 28 -61 40q-34 11 -91 11h-111v-508h119zM672 1423q239 0 350 -108t111 -320q0 -219 -107 -335q-106 -115 -356 -115h-156v-365l176 -30v-150h-627v150l140 30v1047l-140 33v163h609z
" />
    <glyph glyph-name="Q" unicode="Q" horiz-adv-x="1269" 
d="M1196 713q0 -136 -16 -244q-16 -107 -55 -196q-37 -85 -102 -142q-64 -57 -161 -84l373 -70l-102 -251l-662 251q-101 39 -177 98q-74 58 -124 144q-49 84 -73 206q-23 115 -23 284q0 389 144 565t419 176q277 0 418 -175t141 -562zM639 156q65 0 107 26q44 28 71 91
q27 65 39 171t12 267q0 158 -12 263q-12 106 -39 169t-71 90t-107 27q-65 0 -108 -27t-70 -90t-39 -169q-12 -105 -12 -261q0 -160 12 -268q12 -107 39 -172q27 -64 70 -91q42 -26 108 -26z" />
    <glyph glyph-name="R" unicode="R" horiz-adv-x="1310" 
d="M629 770q129 0 173 57q44 58 44 187q0 120 -47 173q-46 52 -170 52h-115v-469h115zM1290 150v-150h-379l-170 434q-20 55 -35 80q-19 31 -37 48t-41 25q-20 7 -50 7h-64v-416l133 -28v-150h-584v150l140 28v1053l-140 29v163h656q100 0 182 -24q79 -23 139 -75
q58 -50 89 -126q32 -78 32 -178q0 -163 -85 -252q-85 -90 -220 -106v-5q67 -15 115 -63q50 -50 90 -145l123 -283z" />
    <glyph glyph-name="S" unicode="S" horiz-adv-x="1032" 
d="M473 -27q-130 0 -233 23t-164 61v332h196l52 -205q32 -13 60 -17q33 -5 75 -5q211 0 211 192q0 48 -12 82q-13 37 -35 62q-23 26 -66 48q-46 24 -100 40q-114 35 -182 76q-74 44 -117 98q-46 57 -65 124t-19 156q0 106 35 185t97 128q63 49 149 73q87 24 190 24
q99 0 193 -18q91 -17 161 -54v-315h-199l-43 176q-27 11 -60 16q-35 5 -67 5q-85 0 -135 -38q-49 -37 -49 -124q0 -47 10 -77q11 -32 37 -57q30 -28 72 -48q44 -21 113 -42q97 -29 171 -68q72 -38 120 -93q48 -56 72 -131q24 -76 24 -183q0 -87 -28 -168q-27 -78 -87 -135
t-153 -90t-224 -33z" />
    <glyph glyph-name="T" unicode="T" horiz-adv-x="1204" 
d="M301 150l145 28v1061h-155l-35 -248h-203v432h1098v-432h-203l-35 248h-155v-1061l145 -28v-150h-602v150z" />
    <glyph glyph-name="U" unicode="U" horiz-adv-x="1384" 
d="M492 1423v-1007q0 -113 33 -160q34 -49 112 -49q77 0 132 23t105 61v940l-133 29v163h447v-1245l135 -28v-150h-397l-29 131q-37 -34 -73 -64q-37 -31 -76 -51q-32 -16 -90 -31q-48 -12 -109 -12q-75 0 -146 22q-65 20 -117 72q-50 51 -79 133q-29 84 -29 206v825
l-131 29v163h445z" />
    <glyph glyph-name="V" unicode="V" horiz-adv-x="1267" 
d="M784 0h-288l-371 1241l-100 19v163h559v-161l-129 -21l180 -692q8 -29 18 -73q2 -10 7.5 -29.5t7.5 -28.5q6 -28 9 -52q4 -37 7 -53h4q2 28 6 52q3 16 9 52q2 10 7.5 32.5t6.5 27.5l18 74l176 688l-123 23v161h455v-163l-100 -19z" />
    <glyph glyph-name="W" unicode="W" horiz-adv-x="1708" 
d="M1683 1260l-100 -19l-225 -1241h-297l-127 614q-27 122 -40 225q-9 74 -17 173h-5q-8 -78 -18 -177q-11 -101 -39 -223l-135 -612h-326l-227 1241l-102 19v163h542v-161l-129 -21l82 -496q18 -107 19 -112q11 -75 14 -98q7 -56 11 -95q4 -41 9 -98h5q12 119 25 201
q14 85 38 207l141 673h228l145 -669q22 -101 36 -197q16 -109 26 -215h4q7 109 20 210q9 75 31 202l82 485l-119 25v159h448v-163z" />
    <glyph glyph-name="X" unicode="X" horiz-adv-x="1304" 
d="M49 150l111 22l317 567l-289 500l-104 21v163h559v-161l-113 -17l189 -356l170 354l-121 19v161h459v-163l-113 -17l-266 -502l305 -569l104 -22v-150h-571v147l129 25l-211 406l-213 -406l131 -25v-147h-473v150z" />
    <glyph glyph-name="Y" unicode="Y" horiz-adv-x="1183" 
d="M299 150l143 28v406l-325 659l-92 17v163h550v-161l-126 -21l108 -235q29 -61 52 -119q19 -48 36 -107q8 38 13 55q8 25 18 51q2 6 6.5 17t8.5 20.5t8 18.5l32 72l105 231l-121 17v161h444v-163l-92 -17l-311 -655v-410l145 -28v-150h-602v150z" />
    <glyph glyph-name="Z" unicode="Z" horiz-adv-x="1089" 
d="M66 190l620 1049h-334l-35 -215h-202v399h901v-196l-621 -1045h375l43 219h203v-401h-950v190z" />
    <glyph glyph-name="bracketleft" unicode="[" horiz-adv-x="684" 
d="M420 -137l182 -19v-166h-455v1893h455v-166l-182 -19v-1523z" />
    <glyph glyph-name="backslash" unicode="\" horiz-adv-x="794" 
d="M47 1571h229l504 -1888h-227z" />
    <glyph glyph-name="bracketright" unicode="]" horiz-adv-x="684" 
d="M264 1386l-184 19v166h455v-1893h-455v166l184 19v1523z" />
    <glyph glyph-name="asciicircum" unicode="^" horiz-adv-x="1128" 
d="M436 1450h258l318 -604h-291l-158 295l-160 -295h-286z" />
    <glyph glyph-name="underscore" unicode="_" horiz-adv-x="755" 
d="M2 -111h752v-208h-752v208z" />
    <glyph glyph-name="grave" unicode="`" horiz-adv-x="1116" 
d="M725 1147l-444 209l137 239l389 -309z" />
    <glyph glyph-name="a" unicode="a" horiz-adv-x="1038" 
d="M459 166q45 0 75 15q29 14 54 38v254h-62q-94 0 -137 -33t-43 -131q0 -77 27 -110t86 -33zM987 20q-25 -15 -76 -31q-50 -16 -106 -16q-71 0 -121 24t-72 89q-15 -15 -45 -43q-23 -22 -52 -36q-31 -16 -66 -24q-42 -10 -89 -10q-61 0 -120 19q-56 18 -96 57
q-39 37 -62 99q-23 61 -23 145q0 175 111 255q110 79 362 79h56v51q0 84 -28 126q-27 40 -116 40q-78 0 -144 -21q-69 -22 -138 -55l-82 184q84 59 191 91t235 32q180 0 275 -77q96 -78 96 -267v-485q0 -54 16 -69t82 -13z" />
    <glyph glyph-name="b" unicode="b" horiz-adv-x="1085" 
d="M123 1305l-115 28v166h404v-555q41 44 109 87q70 44 161 44q69 0 131 -24q61 -24 108 -86q44 -59 72 -163q27 -102 27 -255q0 -179 -27 -291q-27 -115 -75 -175q-49 -62 -117 -85q-69 -23 -150 -23q-93 0 -161 40q-69 40 -115 91l-29 -104h-223v1305zM553 170
q90 0 123 83t33 277q0 179 -32 252q-31 72 -116 72q-47 0 -84 -15q-33 -13 -65 -40v-570q24 -24 59 -41q37 -18 82 -18z" />
    <glyph glyph-name="c" unicode="c" horiz-adv-x="925" 
d="M516 -27q-100 0 -185 31q-84 31 -144 98q-60 68 -93 172q-33 105 -33 252q0 157 37 261q38 107 100 170q64 65 148 92q82 26 184 26q106 0 184 -23q79 -23 136 -71v-254h-193l-30 150q-13 9 -39 14q-21 4 -49 4q-43 0 -72 -13q-31 -14 -52 -52t-33 -105q-11 -62 -11 -176
q0 -124 13 -193q13 -71 40 -111t65 -52q42 -13 93 -13q63 0 116 21q59 23 103 53l78 -160q-64 -58 -155 -89q-93 -32 -208 -32z" />
    <glyph glyph-name="d" unicode="d" horiz-adv-x="1116" 
d="M684 102q-50 -62 -112 -96q-60 -33 -148 -33q-82 0 -149 29q-65 28 -112 93t-72 169q-25 103 -25 256q0 156 27 262q27 105 77 172q51 68 118 94q69 27 148 27q43 0 76 -9q30 -8 58 -23t47 -31q7 -6 21 -18.5t21 -18.5v334l-112 26v164h403v-1331l113 -21v-147h-352z
M512 176q48 0 85 18q42 20 62 39v564q-34 31 -53 43q-27 18 -76 18q-44 0 -72 -17q-30 -18 -48 -58q-20 -45 -27 -106q-8 -70 -8 -163q0 -99 7 -159q7 -63 24 -104q16 -39 41 -57t65 -18z" />
    <glyph glyph-name="e" unicode="e" horiz-adv-x="985" 
d="M543 -27q-117 0 -212 31q-91 30 -152 97t-91 172q-31 109 -31 253q0 287 120 418t335 131q103 0 177 -26q77 -27 129 -87q53 -61 80 -158q28 -101 28 -239v-116h-559q0 -76 11 -123q12 -51 36 -84t66 -48q45 -16 106 -16q82 0 137 21q56 21 121 61l78 -164
q-76 -59 -167 -91q-90 -32 -212 -32zM514 901q-34 0 -60 -12q-24 -11 -43 -43q-16 -27 -29 -85q-11 -52 -13 -138h274q0 82 -6 136q-6 55 -21 86q-16 33 -39 44q-25 12 -63 12z" />
    <glyph glyph-name="f" unicode="f" horiz-adv-x="731" 
d="M623 147v-147h-557v147l114 21v680h-106v201h106v116q0 104 28 174q26 66 73 108q44 40 102 55q61 16 117 16q89 0 146 -18q58 -18 97 -40l-69 -198q-23 12 -53 21q-28 9 -64 9q-88 0 -88 -112v-131h203v-201h-203v-678z" />
    <glyph glyph-name="g" unicode="g" horiz-adv-x="1030" 
d="M492 -416q-114 0 -203 19q-83 18 -138 53t-79 84q-25 52 -25 108q0 84 46 129q47 46 116 74q-53 23 -85 67t-32 115q0 77 35 129t86 91q-57 39 -91 109q-34 69 -34 165q0 165 107 257q106 91 303 91q51 0 97 -7q52 -8 87 -19h305v-170l-123 -21q20 -28 31 -68
q10 -36 10 -75q0 -158 -97 -242q-98 -84 -319 -84q-84 0 -135 17q-37 -40 -37 -89q0 -59 76 -59h232q78 0 142 -16q67 -17 115 -54q49 -38 75 -95q28 -61 28 -140q0 -185 -125 -277t-368 -92zM332 10q-15 -20 -28 -50q-11 -25 -11 -62q0 -31 10 -55q11 -26 34 -45
q21 -17 61 -30q38 -12 96 -12q129 0 182 41t53 105q0 63 -32 86q-31 22 -113 22h-252zM496 551q72 0 102 44q31 45 31 136q0 93 -32 134q-31 40 -101 40q-64 0 -97 -41q-32 -39 -32 -137q0 -176 129 -176z" />
    <glyph glyph-name="h" unicode="h" horiz-adv-x="1181" 
d="M469 940q71 65 141 100t164 35q120 0 182 -73t62 -211v-623l112 -21v-147h-403v694q0 78 -21 112t-77 34q-43 0 -85 -17t-75 -43v-612l109 -21v-147h-512v147l114 21v1139l-114 28v164h403v-559z" />
    <glyph glyph-name="i" unicode="i" horiz-adv-x="632" 
d="M584 147v-147h-518v147l114 21v678l-114 28v175h403v-881zM315 1159q-69 0 -118 49q-50 50 -50 117q0 71 50 121q49 49 116 49q72 0 120 -49q48 -50 48 -119t-48 -119q-48 -49 -118 -49z" />
    <glyph glyph-name="j" unicode="j" horiz-adv-x="602" 
d="M2 -242q38 23 82 59q32 26 52 62t29 81q9 46 9 112v774l-115 28v175h404v-906q0 -126 -19 -218q-18 -85 -62 -148q-43 -61 -118 -104q-73 -42 -182 -81zM309 1159q-70 0 -118 49q-48 50 -48 117q0 71 48 121q48 49 118 49t119 -49t49 -119t-49 -119t-119 -49z" />
    <glyph glyph-name="k" unicode="k" horiz-adv-x="1130" 
d="M731 864l-94 15v170h424v-175l-117 -16l-209 -252l264 -438l99 -18v-150h-318l-309 537zM469 168l96 -21v-147h-499v147l114 21v1139l-114 28v164h403v-1331z" />
    <glyph glyph-name="l" unicode="l" horiz-adv-x="647" 
d="M186 1307l-120 28v164h409v-1331l119 -21v-147h-528v147l120 21v1139z" />
    <glyph glyph-name="m" unicode="m" horiz-adv-x="1701" 
d="M760 1075q176 0 227 -147q76 71 145 109q70 38 160 38q122 0 183 -72q61 -71 61 -212v-631l115 -21v-139h-404v690q0 79 -22 113q-23 35 -78 35q-70 0 -143 -56v-614l104 -21v-147h-395v690q0 77 -22 113q-21 35 -77 35q-38 0 -74 -15q-40 -17 -71 -41v-614l106 -21v-147
h-509v147l114 21v678l-114 28v175h364l27 -117q78 69 143 105q68 38 160 38z" />
    <glyph glyph-name="n" unicode="n" horiz-adv-x="1181" 
d="M727 694q0 78 -21 112t-77 34q-43 0 -84 -18q-43 -19 -76 -42v-612l109 -21v-147h-512v147l114 21v678l-114 28v175h364l27 -117q77 70 147 106q71 37 170 37q120 0 182 -73t62 -211v-623l112 -21v-147h-403v694z" />
    <glyph glyph-name="o" unicode="o" horiz-adv-x="1042" 
d="M520 -27q-107 0 -194 32q-86 32 -146 98q-59 65 -91 172t-32 253t32 251t91 170q61 67 146 97q83 29 194 29q107 0 195 -31q84 -30 145 -98q59 -67 91 -172q32 -107 32 -252t-32 -252q-32 -106 -91 -171q-60 -66 -145 -96t-195 -30zM522 150q46 0 75 20q29 21 46 66
t24 117q7 67 7 179q0 197 -32 281q-31 82 -122 82q-46 0 -75 -19t-46 -63q-15 -40 -23 -114q-7 -66 -7 -173q0 -109 7 -176q8 -77 24 -117q18 -45 47 -64t75 -19z" />
    <glyph glyph-name="p" unicode="p" horiz-adv-x="1136" 
d="M453 930q24 27 48 50q28 26 62 47q35 21 76 35q39 13 90 13q70 0 132 -25t109 -86q45 -59 73 -163q28 -106 28 -256q0 -167 -27 -275q-28 -112 -75 -173q-49 -64 -119 -90q-68 -25 -156 -25q-74 0 -131 23q-58 23 -100 65v-306l115 -20v-139h-519v139l115 20v1082
l-115 28v175h365zM608 170q91 0 121 83q31 85 31 275q0 99 -7 158q-8 64 -24 101q-17 39 -44 54t-69 15q-48 0 -86 -16q-37 -16 -67 -41v-570q24 -24 61 -41q39 -18 84 -18z" />
    <glyph glyph-name="q" unicode="q" horiz-adv-x="1079" 
d="M727 1049h223v-1285l103 -20v-139h-516v139l122 20v320q-41 -48 -93 -79q-55 -32 -136 -32q-80 0 -149 29t-115 93q-47 66 -74 168q-26 100 -26 255q0 161 28 266q28 104 79 171q51 66 118 93t145 27q89 0 143 -31q51 -29 105 -88zM514 174q48 0 84 16q37 16 61 39v570
q-30 25 -54 41q-27 18 -75 18q-44 0 -72 -17q-30 -18 -48 -59q-20 -45 -27 -106q-8 -70 -8 -164q0 -99 7 -159q7 -63 24 -104q16 -40 43 -58q25 -17 65 -17z" />
    <glyph glyph-name="r" unicode="r" horiz-adv-x="813" 
d="M618 147v-147h-552v147l114 21v678l-114 28v175h352l37 -170q101 192 288 192q27 0 43 -6l-36 -299q-20 9 -45 16q-23 6 -56 6q-55 0 -96 -14q-45 -15 -84 -43v-559z" />
    <glyph glyph-name="s" unicode="s" horiz-adv-x="890" 
d="M422 -27q-100 0 -193 19q-84 17 -153 53v272h192l35 -153q28 -12 47 -16q25 -5 62 -5q77 0 113 30t36 89q0 66 -42 97q-44 33 -148 61q-69 17 -127 44q-56 26 -94 64q-39 39 -59 94q-19 53 -19 132q0 144 100 232q101 89 293 89q107 0 181 -16t136 -47v-269h-186l-33 146
q-38 16 -102 16q-66 0 -103 -25q-36 -24 -36 -79q0 -26 9 -47q9 -20 30 -37q19 -15 59 -31q31 -12 94 -29q79 -22 134 -47q58 -27 98 -67t60 -100q19 -57 19 -142q0 -84 -29 -143q-30 -62 -83 -103q-51 -39 -127 -61q-74 -21 -164 -21z" />
    <glyph glyph-name="t" unicode="t" horiz-adv-x="735" 
d="M63 1049h111v254l291 49v-303h192v-201h-192v-561q0 -61 19 -84q20 -25 61 -25q29 0 54 6q19 4 42 15l43 -174q-37 -22 -96 -37q-60 -15 -146 -15q-122 0 -195 64t-73 207v604h-111v201z" />
    <glyph glyph-name="u" unicode="u" horiz-adv-x="1177" 
d="M604 874v175h395v-877l113 -20v-152h-352l-27 109q-74 -61 -144 -98q-73 -38 -175 -38q-50 0 -95 15q-44 15 -79 45q-34 30 -56 81q-20 47 -20 122v610l-115 28v175h404v-723q0 -73 26 -102t74 -29q37 0 78 15q39 15 78 44v592z" />
    <glyph glyph-name="v" unicode="v" horiz-adv-x="1077" 
d="M641 879v170h410v-175l-86 -16l-291 -858h-266l-302 860l-77 14v175h473v-170l-88 -17l121 -395q20 -63 28 -111q2 -11 21 -102h2q16 90 21 113q12 53 24 102l106 395z" />
    <glyph glyph-name="w" unicode="w" horiz-adv-x="1454" 
d="M1049 881v168h383v-175l-78 -16l-228 -858h-229l-115 420q-22 77 -39 160q-16 77 -24 133h-2q-6 -53 -21 -132q-16 -82 -37 -161l-108 -420h-223l-230 860l-75 14v175h454v-168l-94 -17l61 -280q11 -57 24 -131q7 -42 17 -117h4q5 54 19 120q19 89 31 140l116 453h203
l123 -449q19 -69 32 -149q4 -25 10.5 -64.5t8.5 -54.5h4q5 52 16 117q17 101 25 137l64 280z" />
    <glyph glyph-name="x" unicode="x" horiz-adv-x="1118" 
d="M475 141v-141h-424v147l86 17l252 366l-242 324l-81 20v175h489v-168l-88 -17l127 -198h4l125 198l-78 17v168h391v-175l-90 -18l-219 -313l268 -379l80 -17v-147h-502v141l105 17l-160 241h-4l-152 -241z" />
    <glyph glyph-name="y" unicode="y" horiz-adv-x="1062" 
d="M651 881v168h398v-175l-82 -16l-281 -858q-38 -112 -82 -184q-46 -75 -103 -122q-60 -49 -130 -74q-73 -26 -160 -42l-68 203q70 11 130 31q54 18 93 46q38 27 62 62q25 35 41 80h-76l-282 860l-82 14v175h475v-168l-96 -17l116 -418q15 -55 28 -118q11 -50 19 -121h2
q7 54 22 119q12 50 30 116l118 424z" />
    <glyph glyph-name="z" unicode="z" horiz-adv-x="915" 
d="M63 188l476 682h-226l-26 -133h-193v312h750v-187l-479 -684h264l22 133h199v-311h-787v188z" />
    <glyph glyph-name="braceleft" unicode="{" horiz-adv-x="710" 
d="M47 711q46 0 73 4q31 5 47 18q19 16 26 40q8 27 8 67v424q0 88 23 144q24 58 64 95t94 52q58 16 114 16h143v-172h-64q-59 0 -80 -26q-22 -27 -22 -97v-432q0 -106 -54 -156q-53 -49 -130 -61v-4q75 -12 130 -62q54 -49 54 -155v-433q0 -70 22 -97q21 -26 80 -26h64v-172
h-143q-56 0 -114 16q-54 15 -94 52t-64 95q-23 56 -23 145v426q0 81 -34 105q-35 24 -120 24v170z" />
    <glyph glyph-name="bar" unicode="|" horiz-adv-x="559" 
d="M176 1571h207v-1888h-207v1888z" />
    <glyph glyph-name="braceright" unicode="}" horiz-adv-x="710" 
d="M664 541q-86 0 -120 -24t-34 -105v-426q0 -86 -24 -145t-63 -95q-40 -37 -93 -52q-56 -16 -113 -16h-145v172h63q61 0 82 26q21 25 21 97v433q0 106 54 155q55 50 130 62v4q-77 12 -130 61q-54 50 -54 156v432q0 72 -21 97q-21 26 -82 26h-63v172h145q57 0 113 -16
q53 -15 93 -52q39 -36 63 -95q24 -58 24 -144v-424q0 -40 8 -67q7 -24 26 -40q16 -13 47 -18q27 -4 73 -4v-170z" />
    <glyph glyph-name="asciitilde" unicode="~" horiz-adv-x="1114" 
d="M100 573q52 128 128 204q75 75 171 75q58 0 98 -13q43 -14 76 -31q18 -9 66 -31q29 -13 66 -13q35 0 62 27q31 31 52 69l193 -104q-53 -129 -128 -203q-76 -74 -171 -74q-54 0 -98 14q-48 15 -76 30q-18 9 -66 31q-29 13 -63 13q-38 0 -65 -27q-29 -29 -52 -71z" />
    <glyph glyph-name="uni00A0" unicode="&#xa0;" horiz-adv-x="495" 
 />
    <glyph glyph-name="exclamdown" unicode="&#xa1;" horiz-adv-x="561" 
d="M188 629h191l72 -1002h-342zM285 1075q72 0 123 -51t51 -123t-51 -123t-123 -51q-73 0 -122 51q-50 52 -50 123t50 123q50 51 122 51z" />
    <glyph glyph-name="cent" unicode="&#xa2;" 
d="M502 -16q-84 16 -146 54q-65 40 -111 105q-46 66 -72 161q-26 96 -26 222q0 130 27 224q26 92 74 158q46 64 111 102q62 36 143 53v258h221v-252q140 -18 225 -88v-254h-190l-31 150q-13 9 -39 14q-21 4 -51 4q-42 0 -74 -13q-31 -13 -56 -52q-24 -38 -36 -105t-12 -176
q0 -126 14 -193q15 -71 43 -111q28 -39 70 -52q44 -13 94 -13q64 0 117 21q56 23 102 53l78 -160q-101 -88 -254 -112v-250h-221v252z" />
    <glyph glyph-name="sterling" unicode="&#xa3;" 
d="M104 836h97q-15 58 -24 112q-9 56 -9 105q0 181 122 289t345 108q121 0 213 -26q95 -27 158 -62v-297h-203l-41 172q-51 23 -127 23q-77 0 -120 -48q-42 -46 -42 -133q0 -68 10 -125q10 -60 25 -118h319v-211h-278q6 -52 6 -111q0 -87 -44 -163q-42 -72 -114 -113h424
l33 122h184v-360h-934v236q86 47 128 110t42 152q0 25 -5 60q-3 21 -13 67h-152v211z" />
    <glyph glyph-name="currency" unicode="&#xa4;" 
d="M141 711q0 128 35 219l-143 147l182 197l125 -135q44 32 102 49q55 16 121 16t121 -16q57 -17 100 -49l127 135l183 -197l-144 -147q35 -91 35 -219q0 -58 -8 -116q-7 -49 -27 -101l144 -148l-183 -196l-127 135q-43 -32 -100 -49q-59 -17 -121 -17t-121 17
q-58 17 -102 49l-125 -135l-182 196l143 148q-19 48 -26 101q-9 65 -9 116zM700 711q0 161 -28 223q-28 63 -109 63q-79 0 -108 -63q-29 -64 -29 -223q0 -158 29 -222q29 -63 108 -63q81 0 109 63q28 62 28 222z" />
    <glyph glyph-name="yen" unicode="&#xa5;" 
d="M88 874h193l-181 369l-77 17v163h530v-161l-121 -21l107 -233q33 -67 48 -119q3 -10 29 -109q2 11 7.5 32.5t5.5 22.5q2 10 14 52q4 15 21 57q3 6 8 20t10 26l10 24l103 231l-115 17v161h424v-163l-80 -17l-170 -369h201v-174h-283l-51 -112v-17h334v-174h-334v-219
l145 -28v-150h-590v150l146 28v219h-334v174h334v13l-57 116h-277v174z" />
    <glyph glyph-name="brokenbar" unicode="&#xa6;" horiz-adv-x="559" 
d="M176 498h207v-815h-207v815zM176 1571h207v-817h-207v817z" />
    <glyph glyph-name="section" unicode="&#xa7;" horiz-adv-x="1099" 
d="M96 489q0 95 45 161q46 67 125 106q-49 46 -73 106q-25 62 -25 144q0 73 26 134q26 60 75 105q51 46 124 70t170 24q107 0 181 -16q76 -16 137 -47v-268h-189l-33 145q-33 16 -100 16q-139 0 -139 -118q0 -37 12 -63t41 -47t76 -41q38 -16 117 -40q93 -29 149 -56
q65 -31 106 -72t62 -98t21 -136q0 -96 -47 -161q-48 -66 -123 -104q92 -97 92 -253q0 -158 -107 -248t-299 -90q-110 0 -184 17q-78 18 -135 48v270h188l31 -147q22 -10 47 -15q27 -5 61 -5q146 0 146 124q0 38 -12 65t-40 49t-74 41q-43 18 -112 40q-93 29 -149 56
q-63 30 -107 71q-41 39 -63 97q-21 57 -21 136zM682 330q82 27 82 110q0 34 -12 58t-41 44q-26 18 -77 40q-31 14 -122 47l-94 35q-37 -12 -62 -40q-24 -27 -24 -73q0 -33 10 -56t36 -43t71 -38q65 -26 116 -43z" />
    <glyph glyph-name="dieresis" unicode="&#xa8;" horiz-adv-x="1116" 
d="M346 1159q-62 0 -109 44t-47 110q0 63 46 111q45 46 106 46q66 0 112 -46t46 -111q0 -67 -46 -110q-47 -44 -108 -44zM772 1159q-64 0 -110 44t-46 110q0 64 44 111q43 46 108 46q66 0 112 -46t46 -111q0 -67 -46 -110q-47 -44 -108 -44z" />
    <glyph glyph-name="copyright" unicode="&#xa9;" horiz-adv-x="1499" 
d="M649 729q0 -82 6 -136q6 -51 22 -87q15 -32 39 -46q25 -14 60 -14q52 0 86 21l33 123h162v-234q-50 -29 -124 -48q-73 -19 -165 -19q-209 0 -297 113t-88 327q0 129 30 216q30 88 82 141q53 54 125 77q74 23 158 23q72 0 150 -23q77 -23 119 -59v-219h-160l-31 121
q-15 11 -35 16q-16 4 -39 4q-36 0 -62 -15t-41 -50q-16 -36 -23 -92q-7 -53 -7 -140zM750 80q132 0 229 47q96 47 160 133q63 85 93 206q30 120 30 265t-30 265q-30 121 -93 206q-64 86 -160 133q-97 47 -229 47q-133 0 -230 -47q-96 -47 -160 -133q-63 -85 -93 -206
q-29 -116 -29 -265t29 -265q30 -121 93 -206q64 -86 160 -133q97 -47 230 -47zM750 -31q-156 0 -280 55q-123 55 -205 153q-83 100 -125 240q-42 141 -42 314q0 174 42 315q41 139 125 239q83 100 205 154t280 54t279 -54q122 -54 205 -154q84 -100 125 -239
q42 -141 42 -315q0 -173 -42 -314q-42 -140 -125 -240q-82 -98 -205 -153q-124 -55 -279 -55z" />
    <glyph glyph-name="ordfeminine" unicode="&#xaa;" horiz-adv-x="968" 
d="M432 524q39 0 67 14q30 15 50 31v234h-37q-100 0 -134 -33t-34 -111q0 -71 18 -103t70 -32zM569 449q-36 -44 -82 -72q-51 -31 -127 -31q-147 0 -216 80q-68 78 -68 221q0 168 101 236q102 69 312 69h60v41q0 68 -22 104q-20 33 -93 33q-66 0 -127 -18q-58 -17 -119 -49
l-88 166q80 51 168 80q90 30 203 30q173 0 259 -69q85 -69 85 -236v-436q0 -48 15 -63t75 -15l13 -133q-26 -16 -71 -30q-42 -13 -97 -13q-67 0 -113 23t-68 82z" />
    <glyph glyph-name="guillemotleft" unicode="&#xab;" horiz-adv-x="1124" 
d="M565 143l-145 -116l-361 491l361 492l145 -115l-213 -377zM1012 143l-144 -116l-362 491l362 492l144 -115l-213 -377z" />
    <glyph glyph-name="logicalnot" unicode="&#xac;" 
d="M711 645h-537v227h778v-518h-241v291z" />
    <glyph glyph-name="uni00AD" unicode="&#xad;" horiz-adv-x="661" 
d="M94 707h471v-269h-471v269z" />
    <glyph glyph-name="registered" unicode="&#xae;" horiz-adv-x="1124" 
d="M80 920q0 129 35 232q34 101 98 171q62 68 153 105q88 36 197 36q107 0 196 -36t152 -105q65 -72 99 -171q34 -101 34 -232q0 -132 -34 -233q-34 -99 -99 -171q-62 -68 -152 -106q-87 -37 -196 -37q-110 0 -197 37q-92 39 -153 106q-64 70 -98 171q-35 103 -35 233z
M567 952q34 0 48 19t14 61q0 35 -15 53q-16 19 -49 19h-43v-152h45zM815 743v-94h-166l-53 148q-10 27 -21 43q-10 14 -32 14h-21v-102l33 -9v-94h-227v94l32 9v346l-32 10v94h266q93 0 140 -38q46 -37 46 -122q0 -70 -31 -102t-79 -37v-6q31 -6 49 -25q17 -18 33 -55
l26 -65zM920 920q0 209 -90 325q-89 115 -267 115q-180 0 -269 -115t-89 -325q0 -213 89 -328t269 -115q178 0 267 115q90 116 90 328z" />
    <glyph glyph-name="macron" unicode="&#xaf;" horiz-adv-x="1116" 
d="M274 1454h566v-209h-566v209z" />
    <glyph glyph-name="degree" unicode="&#xb0;" horiz-adv-x="856" 
d="M84 1085q0 172 92 267q91 94 250 94q164 0 255 -94t91 -269q0 -171 -92 -266q-91 -94 -252 -94q-162 0 -253 94t-91 268zM547 1081q0 108 -29 154q-28 45 -92 45q-62 0 -89 -46q-28 -48 -28 -147q0 -104 28 -152q27 -46 91 -46t91 46q28 48 28 146z" />
    <glyph glyph-name="plusminus" unicode="&#xb1;" 
d="M442 733h-331v223h331v289h242v-289h332v-223h-332v-280h-242v280zM111 340h905v-225h-905v225z" />
    <glyph glyph-name="twosuperior" unicode="&#xb2;" horiz-adv-x="751" 
d="M696 516h-655v184q95 75 170 142q80 71 114 110q43 50 63 90q20 42 20 82q0 121 -117 121q-55 0 -102 -19q-44 -18 -93 -44l-67 141q53 45 138 81t189 36q153 0 236 -71q82 -70 82 -208q0 -60 -23 -117q-22 -54 -69 -110q-46 -55 -121 -113q-71 -55 -176 -123h411v-182z
" />
    <glyph glyph-name="threesuperior" unicode="&#xb3;" horiz-adv-x="739" 
d="M315 504q-94 0 -163 20q-78 23 -125 47l36 154q46 -19 103 -34q49 -13 104 -13q91 0 125 31q33 30 33 92q0 57 -36 84q-35 26 -113 26h-89v154h91q68 0 98 25q29 24 29 71q0 49 -28 72q-26 22 -93 22q-59 0 -101 -16t-82 -39l-59 143q50 32 125 64q78 33 186 33
q140 0 219 -57q80 -57 80 -173q0 -85 -44 -135q-42 -48 -128 -71q102 -15 153 -74q52 -59 52 -142q0 -64 -19 -115t-64 -90q-44 -38 -116 -59q-69 -20 -174 -20z" />
    <glyph glyph-name="acute" unicode="&#xb4;" horiz-adv-x="1116" 
d="M313 1286l392 309l137 -239l-447 -209z" />
    <glyph glyph-name="mu" unicode="&#xb5;" horiz-adv-x="1181" 
d="M166 -395v1241l-113 28v175h404v-723q0 -73 25 -102t75 -29q37 0 78 15t76 44v592l-103 28v175h393v-877l113 -20v-152h-352l-27 109q-47 -71 -107 -103q-63 -33 -116 -33q-22 0 -44 5q-18 4 -24 10l13 -383h-291z" />
    <glyph glyph-name="paragraph" unicode="&#xb6;" horiz-adv-x="1325" 
d="M1212 1260l-139 -31v-1407h-229v1407h-148v-1407h-229v880h-10q-205 0 -307 97q-101 96 -101 264q0 91 32 161q31 68 89 112q60 46 137 66q79 21 176 21h729v-163z" />
    <glyph glyph-name="periodcentered" unicode="&#xb7;" horiz-adv-x="583" 
d="M291 473q-76 0 -130 54q-55 55 -55 132q0 76 55 129q56 54 130 54q76 0 132 -54q54 -52 54 -129q0 -78 -54 -132t-132 -54z" />
    <glyph glyph-name="cedilla" unicode="&#xb8;" horiz-adv-x="1116" 
d="M532 -455q-53 0 -101 14q-49 14 -75 35l43 111q20 -11 48 -19q27 -8 61 -8q39 0 58 14q18 14 18 48t-18 49q-17 14 -64 14q-23 0 -41 -3q-22 -4 -31 -7l64 232h133l-33 -121q74 -7 121 -54q45 -45 45 -110q0 -44 -11 -76q-12 -35 -37 -61t-70 -42q-46 -16 -110 -16z" />
    <glyph glyph-name="onesuperior" unicode="&#xb9;" horiz-adv-x="671" 
d="M82 655l164 25v457l-150 -60l-65 115l288 231h175v-743l153 -25v-139h-565v139z" />
    <glyph glyph-name="ordmasculine" unicode="&#xba;" horiz-adv-x="997" 
d="M86 844q0 258 112 378q110 117 302 117q95 0 170 -28t130 -89q54 -60 83 -154q28 -91 28 -224t-28 -224q-29 -94 -83 -154q-55 -61 -130 -89q-78 -29 -170 -29q-94 0 -172 29q-75 28 -130 89q-54 60 -83 154q-29 95 -29 224zM627 844q0 98 -6 161q-6 59 -22 98
q-15 36 -39 48t-60 12q-38 0 -62 -12t-39 -48q-14 -33 -20 -98q-6 -63 -6 -161t6 -161q6 -65 20 -98q15 -36 39 -48q26 -13 62 -13q34 0 60 13q24 12 39 48q16 39 22 98q6 63 6 161z" />
    <glyph glyph-name="guillemotright" unicode="&#xbb;" horiz-adv-x="1124" 
d="M772 518l-213 377l146 115l360 -492l-360 -491l-146 116zM324 518l-213 377l145 115l360 -492l-360 -491l-145 116z" />
    <glyph glyph-name="onequarter" unicode="&#xbc;" horiz-adv-x="1912" 
d="M82 655l164 25v457l-150 -60l-65 115l288 231h175v-743l153 -25v-139h-565v139zM1290 1411h223l-868 -1479h-225zM1085 242l261 557h225l-258 -555h198v260l232 37v-297h117v-172h-117v-181h-232v181h-426v170z" />
    <glyph glyph-name="onehalf" unicode="&#xbd;" horiz-adv-x="1943" 
d="M82 655l164 25v457l-150 -60l-65 115l288 231h175v-743l153 -25v-139h-565v139zM1290 1411h223l-868 -1479h-225zM1888 -109h-655v185q99 80 168 141q71 64 113 111q46 52 64 90q19 39 19 82q0 60 -27 90q-28 31 -89 31q-53 0 -101 -20q-44 -19 -92 -44l-69 141
q52 44 139 81q86 36 190 36q152 0 235 -71t83 -207q0 -60 -23 -117q-23 -56 -69 -111q-43 -52 -121 -112q-71 -55 -176 -123h411v-183z" />
    <glyph glyph-name="threequarters" unicode="&#xbe;" horiz-adv-x="1908" 
d="M315 504q-94 0 -163 20q-78 23 -125 47l36 154q46 -19 103 -34q49 -13 104 -13q91 0 125 31q33 30 33 92q0 57 -36 84q-35 26 -113 26h-89v154h91q68 0 98 25q29 24 29 71q0 49 -28 72q-26 22 -93 22q-59 0 -101 -16t-82 -39l-59 143q50 32 125 64q78 33 186 33
q140 0 219 -57q80 -57 80 -173q0 -85 -44 -135q-42 -48 -128 -71q102 -15 153 -74q52 -59 52 -142q0 -64 -19 -115t-64 -90q-44 -38 -116 -59q-69 -20 -174 -20zM1286 1411h223l-870 -1479h-223zM1081 242l258 557h228l-258 -555h198v260l232 37v-297h116v-172h-116v-181
h-232v181h-426v170z" />
    <glyph glyph-name="questiondown" unicode="&#xbf;" horiz-adv-x="872" 
d="M627 481q0 -63 -8 -109q-7 -39 -24 -77q-14 -30 -40 -58q-29 -31 -57 -55q-60 -51 -84 -100q-25 -52 -25 -125q0 -67 32 -111q31 -43 109 -43q53 0 93 17l47 135h180v-252q-70 -46 -161 -74q-90 -28 -204 -28q-87 0 -159 19q-73 19 -128 62q-56 43 -85 109
q-31 70 -31 166q0 69 12 122q12 52 39 94q28 43 67 78q38 33 93 73q34 21 52 35q25 19 40 38q18 23 26 47q9 27 9 62v121h207v-146zM516 1075q72 0 122 -51q50 -52 50 -123t-50 -123q-50 -51 -122 -51t-122 51q-50 52 -50 123t50 123q50 51 122 51z" />
    <glyph glyph-name="Agrave" unicode="&#xc0;" horiz-adv-x="1298" 
d="M799 381h-387l-60 -209l148 -25v-147h-475v150l98 16l389 1257h276l394 -1253l92 -20v-150h-557v147l141 25zM463 563h287l-91 326q-16 61 -28 125q-13 69 -19 119h-4q-7 -56 -20 -117q-12 -54 -33 -127zM829 1485l-444 209l137 237l389 -309z" />
    <glyph glyph-name="Aacute" unicode="&#xc1;" horiz-adv-x="1298" 
d="M799 381h-387l-60 -209l148 -25v-147h-475v150l98 16l389 1257h276l394 -1253l92 -20v-150h-557v147l141 25zM463 563h287l-91 326q-16 61 -28 125q-13 69 -19 119h-4q-7 -56 -20 -117q-12 -54 -33 -127zM385 1628l391 309l137 -237l-446 -209z" />
    <glyph glyph-name="Acircumflex" unicode="&#xc2;" horiz-adv-x="1298" 
d="M799 381h-387l-60 -209l148 -25v-147h-475v150l98 16l389 1257h276l394 -1253l92 -20v-150h-557v147l141 25zM463 563h287l-91 326q-16 61 -28 125q-13 69 -19 119h-4q-7 -56 -20 -117q-12 -54 -33 -127zM313 1589l252 287h166l250 -287l-84 -102l-254 149l-246 -149z
" />
    <glyph glyph-name="Atilde" unicode="&#xc3;" horiz-adv-x="1298" 
d="M799 381h-387l-60 -209l148 -25v-147h-475v150l98 16l389 1257h276l394 -1253l92 -20v-150h-557v147l141 25zM463 563h287l-91 326q-16 61 -28 125q-13 69 -19 119h-4q-7 -56 -20 -117q-12 -54 -33 -127zM1008 1747q-44 -108 -100 -164q-57 -57 -134 -57q-44 0 -74 11
q-38 14 -60 26q-9 5 -54 25q-25 11 -54 11q-39 0 -64 -19q-27 -21 -56 -54l-123 92q46 109 101 164q57 57 134 57q44 0 73 -11q38 -15 60 -26q11 -6 30.5 -14.5t24.5 -10.5q26 -12 54 -12q36 0 62 20q31 24 57 56z" />
    <glyph glyph-name="Adieresis" unicode="&#xc4;" horiz-adv-x="1298" 
d="M799 381h-387l-60 -209l148 -25v-147h-475v150l98 16l389 1257h276l394 -1253l92 -20v-150h-557v147l141 25zM463 563h287l-91 326q-16 61 -28 125q-13 69 -19 119h-4q-7 -56 -20 -117q-12 -54 -33 -127zM438 1507q-62 0 -109 44q-46 43 -46 110q0 65 45 112
q45 46 106 46q66 0 112 -46t46 -112q0 -67 -46 -110q-47 -44 -108 -44zM864 1507q-64 0 -110 44q-45 43 -45 110q0 65 44 112q43 46 107 46q66 0 112 -46t46 -112q0 -67 -46 -110q-47 -44 -108 -44z" />
    <glyph glyph-name="Aring" unicode="&#xc5;" horiz-adv-x="1298" 
d="M799 381h-387l-60 -209l148 -25v-147h-475v150l98 16l389 1257h276l394 -1253l92 -20v-150h-557v147l141 25zM463 563h287l-91 326q-16 61 -28 125q-13 69 -19 119h-4q-7 -56 -20 -117q-12 -54 -33 -127zM647 1473q-107 0 -171 66q-64 65 -64 171t64 171q65 67 171 67
t171 -67t65 -171t-65 -171q-64 -66 -171 -66zM647 1597q80 0 80 113q0 115 -80 115t-80 -115q0 -113 80 -113z" />
    <glyph glyph-name="AE" unicode="&#xc6;" horiz-adv-x="1794" 
d="M496 1262v161h1206v-374h-195l-32 186h-301v-412h196l33 111h147v-410h-147l-33 115h-196v-453h317l43 201h192v-387h-1003v150l139 28v232h-393l-113 -238l148 -25v-147h-479v150l98 16l512 1063zM557 592h305v485q0 91 4 156h-4z" />
    <glyph glyph-name="Ccedilla" unicode="&#xc7;" horiz-adv-x="1130" 
d="M608 -455q-53 0 -101 14q-49 14 -75 35l43 111q20 -11 48 -19q27 -8 61 -8q39 0 58 14q17 13 17 48t-17 49t-64 14q-23 0 -41 -3q-22 -4 -31 -7l51 189q-132 18 -221 74q-93 58 -151 149q-58 90 -85 219q-26 123 -26 285q0 173 29 305q30 135 100 233t184 150
q115 53 287 53q114 0 215 -26q98 -25 166 -72v-316h-209l-41 201q-26 15 -56 19q-40 6 -67 6q-80 0 -133 -30q-55 -32 -84 -95q-31 -69 -43 -169q-12 -104 -12 -251q0 -155 11 -251q12 -106 42 -173t83 -99t134 -32q86 0 154 31l43 192h196v-315q-70 -41 -172 -68
q-104 -28 -213 -29l-18 -69q74 -7 121 -54q45 -45 45 -110q0 -42 -12 -76q-12 -35 -37 -61q-25 -27 -69 -42q-46 -16 -110 -16z" />
    <glyph glyph-name="Egrave" unicode="&#xc8;" horiz-adv-x="1132" 
d="M762 1485l-445 209l138 237l389 -309zM891 524h-148l-32 115h-197v-453h317l43 201h191v-387h-1002v150l140 28v1051l-140 33v161h979v-374h-194l-33 186h-301v-412h197l32 111h148v-410z" />
    <glyph glyph-name="Eacute" unicode="&#xc9;" horiz-adv-x="1132" 
d="M330 1628l391 309l137 -237l-446 -209zM891 524h-148l-32 115h-197v-453h317l43 201h191v-387h-1002v150l140 28v1051l-140 33v161h979v-374h-194l-33 186h-301v-412h197l32 111h148v-410z" />
    <glyph glyph-name="Ecircumflex" unicode="&#xca;" horiz-adv-x="1132" 
d="M252 1604l252 286h166l250 -286l-84 -103l-254 150l-246 -150zM891 524h-148l-32 115h-197v-453h317l43 201h191v-387h-1002v150l140 28v1051l-140 33v161h979v-374h-194l-33 186h-301v-412h197l32 111h148v-410z" />
    <glyph glyph-name="Edieresis" unicode="&#xcb;" horiz-adv-x="1132" 
d="M891 524h-148l-32 115h-197v-453h317l43 201h191v-387h-1002v150l140 28v1051l-140 33v161h979v-374h-194l-33 186h-301v-412h197l32 111h148v-410zM377 1522q-63 0 -110 44q-46 43 -46 109q0 65 45 112q45 46 107 46q65 0 111 -46t46 -112t-46 -109q-47 -44 -107 -44z
M803 1522q-65 0 -111 44q-45 44 -45 109t44 112q43 46 108 46t111 -46t46 -112t-46 -109q-47 -44 -107 -44z" />
    <glyph glyph-name="Igrave" unicode="&#xcc;" horiz-adv-x="716" 
d="M63 150l140 28v1053l-140 29v163h590v-163l-139 -29v-1053l139 -28v-150h-590v150zM543 1485l-445 209l138 237l389 -309z" />
    <glyph glyph-name="Iacute" unicode="&#xcd;" horiz-adv-x="716" 
d="M63 150l140 28v1053l-140 29v163h590v-163l-139 -29v-1053l139 -28v-150h-590v150zM96 1628l391 309l138 -237l-447 -209z" />
    <glyph glyph-name="Icircumflex" unicode="&#xce;" horiz-adv-x="716" 
d="M63 150l140 28v1053l-140 29v163h590v-163l-139 -29v-1053l139 -28v-150h-590v150zM27 1589l252 287h165l250 -287l-84 -102l-254 149l-245 -149z" />
    <glyph glyph-name="Idieresis" unicode="&#xcf;" horiz-adv-x="716" 
d="M63 150l140 28v1053l-140 29v163h590v-163l-139 -29v-1053l139 -28v-150h-590v150zM150 1507q-63 0 -110 44q-46 43 -46 110q0 65 45 112q45 46 106 46q66 0 112 -46t46 -112q0 -67 -46 -110q-47 -44 -107 -44zM575 1507q-64 0 -110 44q-45 43 -45 110q0 65 44 112
q43 46 107 46q66 0 112 -46t46 -112q0 -67 -46 -110q-47 -44 -108 -44z" />
    <glyph glyph-name="Eth" unicode="&#xd0;" horiz-adv-x="1304" 
d="M63 819h140v412l-140 29v163h592q144 0 251 -37q110 -38 180 -121q73 -87 109 -222q36 -137 36 -332q0 -209 -40 -344q-41 -139 -118 -220q-76 -81 -191 -114q-114 -33 -261 -33h-558v150l140 28v455h-140v186zM639 184q76 0 129 25q51 24 81 84t42 160t12 254
q0 161 -11 255q-12 103 -41 161q-30 60 -80 86t-128 26h-129v-416h186v-186h-186v-449h125z" />
    <glyph glyph-name="Ntilde" unicode="&#xd1;" horiz-adv-x="1378" 
d="M1053 1747q-44 -108 -100 -164q-57 -57 -134 -57q-44 0 -74 11q-38 14 -60 26q-9 5 -54 25q-25 11 -53 11q-40 0 -65 -19q-27 -21 -56 -54l-123 92q46 109 101 164q57 57 134 57q44 0 73 -11q38 -15 60 -26q11 -6 30.5 -14.5t24.5 -10.5q25 -12 54 -12q36 0 62 20
q31 24 57 56zM836 1260v163h489v-163l-131 -29v-1231h-250l-377 692q-52 96 -94 194q-40 93 -63 163h-4q8 -83 11 -195q3 -118 3 -242v-434l139 -28v-150h-496v150l138 28v1053l-138 29v163h441l330 -630q54 -109 92 -197q37 -86 61 -164h4q-8 72 -12 184q-4 100 -4 228v387
z" />
    <glyph glyph-name="Ograve" unicode="&#xd2;" horiz-adv-x="1269" 
d="M817 1485l-444 209l137 237l389 -309zM637 -27q-140 0 -245 42t-176 131q-69 87 -106 229q-36 139 -36 334q0 389 144 565t419 176q277 0 418 -175t141 -562q0 -393 -140 -566q-141 -174 -419 -174zM639 162q65 0 107 26q44 27 71 90t39 167q12 105 12 266q0 158 -12 263
q-12 106 -39 169t-71 90t-107 27q-65 0 -108 -27t-70 -90t-39 -169q-12 -105 -12 -261q0 -161 12 -267q12 -107 39 -170q27 -64 70 -89t108 -25z" />
    <glyph glyph-name="Oacute" unicode="&#xd3;" horiz-adv-x="1269" 
d="M371 1628l391 309l137 -237l-446 -209zM637 -27q-140 0 -245 42t-176 131q-69 87 -106 229q-36 139 -36 334q0 389 144 565t419 176q277 0 418 -175t141 -562q0 -393 -140 -566q-141 -174 -419 -174zM639 162q65 0 107 26q44 27 71 90t39 167q12 105 12 266
q0 158 -12 263q-12 106 -39 169t-71 90t-107 27q-65 0 -108 -27t-70 -90t-39 -169q-12 -105 -12 -261q0 -161 12 -267q12 -107 39 -170q27 -64 70 -89t108 -25z" />
    <glyph glyph-name="Ocircumflex" unicode="&#xd4;" horiz-adv-x="1269" 
d="M301 1589l252 287h166l250 -287l-84 -102l-254 149l-246 -149zM637 -27q-140 0 -245 42t-176 131q-69 87 -106 229q-36 139 -36 334q0 389 144 565t419 176q277 0 418 -175t141 -562q0 -393 -140 -566q-141 -174 -419 -174zM639 162q65 0 107 26q44 27 71 90t39 167
q12 105 12 266q0 158 -12 263q-12 106 -39 169t-71 90t-107 27q-65 0 -108 -27t-70 -90t-39 -169q-12 -105 -12 -261q0 -161 12 -267q12 -107 39 -170q27 -64 70 -89t108 -25z" />
    <glyph glyph-name="Otilde" unicode="&#xd5;" horiz-adv-x="1269" 
d="M993 1747q-45 -110 -99 -164q-57 -57 -134 -57q-44 0 -74 11q-38 14 -60 26q-5 3 -55 25q-25 11 -53 11q-39 0 -64 -19q-30 -23 -57 -54l-123 92q45 107 102 164t134 57q44 0 73 -11q38 -15 60 -26q11 -6 31 -15t23 -10q25 -12 55 -12q36 0 62 20q29 22 56 56zM637 -27
q-140 0 -245 42t-176 131q-69 87 -106 229q-36 139 -36 334q0 389 144 565t419 176q277 0 418 -175t141 -562q0 -393 -140 -566q-141 -174 -419 -174zM639 162q66 0 108 26q43 27 70 90t39 167q12 105 12 266q0 158 -12 263q-12 106 -39 169t-70 90q-44 27 -108 27
q-65 0 -108 -27t-70 -90t-39 -169q-12 -105 -12 -261q0 -161 12 -267q12 -107 39 -170q27 -64 70 -89t108 -25z" />
    <glyph glyph-name="Odieresis" unicode="&#xd6;" horiz-adv-x="1269" 
d="M424 1507q-63 0 -110 44q-46 43 -46 110q0 65 45 112q45 46 107 46q65 0 111 -46q47 -47 47 -112q0 -66 -47 -110t-107 -44zM850 1507q-65 0 -111 44q-45 43 -45 110q0 65 44 112q43 46 108 46t111 -46q47 -47 47 -112q0 -66 -47 -110t-107 -44zM637 -27q-140 0 -245 42
t-176 131q-69 87 -106 229q-36 139 -36 334q0 389 144 565t419 176q277 0 418 -175t141 -562q0 -393 -140 -566q-141 -174 -419 -174zM639 162q65 0 107 26q44 27 71 90t39 167q12 105 12 266q0 158 -12 263q-12 106 -39 169t-71 90t-107 27q-65 0 -108 -27t-70 -90
t-39 -169q-12 -105 -12 -261q0 -161 12 -267q12 -107 39 -170q27 -64 70 -89t108 -25z" />
    <glyph glyph-name="multiply" unicode="&#xd7;" 
d="M285 1147l280 -287l279 287l153 -160l-278 -287l278 -282l-157 -164l-279 285l-278 -285l-156 160l283 284l-283 285z" />
    <glyph glyph-name="Oslash" unicode="&#xd8;" horiz-adv-x="1269" 
d="M637 -27q-173 0 -293 64l-123 -207l-145 94l135 228q-137 176 -137 557q0 389 144 565t419 176q177 0 301 -72l111 187l145 -92l-127 -216q129 -179 129 -544q0 -393 -140 -566q-141 -174 -419 -174zM399 713q0 -47 2 -123q1 -45 7 -105l403 680q-29 52 -71 73
q-44 22 -101 22q-64 0 -109 -27q-44 -26 -74 -90q-29 -61 -43 -169q-14 -109 -14 -261zM639 162q66 0 109 26q44 26 74 90q29 62 43 167q14 109 14 266q0 44 -2 114q-1 41 -7 101l-401 -676q29 -47 71 -68q40 -20 99 -20z" />
    <glyph glyph-name="Ugrave" unicode="&#xd9;" horiz-adv-x="1384" 
d="M838 1485l-445 209l137 237l390 -309zM492 1423v-1007q0 -113 33 -160q34 -49 112 -49q77 0 132 23t105 61v940l-133 29v163h447v-1245l135 -28v-150h-397l-29 131q-37 -34 -73 -64q-37 -31 -76 -51q-32 -16 -90 -31q-48 -12 -109 -12q-75 0 -146 22q-65 20 -117 72
q-50 51 -79 133q-29 84 -29 206v825l-131 29v163h445z" />
    <glyph glyph-name="Uacute" unicode="&#xda;" horiz-adv-x="1384" 
d="M420 1628l391 309l137 -237l-446 -209zM492 1423v-1007q0 -113 33 -160q34 -49 112 -49q77 0 132 23t105 61v940l-133 29v163h447v-1245l135 -28v-150h-397l-29 131q-37 -34 -73 -64q-37 -31 -76 -51q-32 -16 -90 -31q-48 -12 -109 -12q-75 0 -146 22q-65 20 -117 72
q-50 51 -79 133q-29 84 -29 206v825l-131 29v163h445z" />
    <glyph glyph-name="Ucircumflex" unicode="&#xdb;" horiz-adv-x="1384" 
d="M336 1589l252 287h166l250 -287l-84 -102l-254 149l-246 -149zM492 1423v-1007q0 -113 33 -160q34 -49 112 -49q77 0 132 23t105 61v940l-133 29v163h447v-1245l135 -28v-150h-397l-29 131q-37 -34 -73 -64q-37 -31 -76 -51q-32 -16 -90 -31q-48 -12 -109 -12
q-75 0 -146 22q-65 20 -117 72q-50 51 -79 133q-29 84 -29 206v825l-131 29v163h445z" />
    <glyph glyph-name="Udieresis" unicode="&#xdc;" horiz-adv-x="1384" 
d="M492 1423v-1007q0 -113 33 -160q34 -49 112 -49q77 0 132 23t105 61v940l-133 29v163h447v-1245l135 -28v-150h-397l-29 131q-37 -34 -73 -64q-37 -31 -76 -51q-32 -16 -90 -31q-48 -12 -109 -12q-75 0 -146 22q-65 20 -117 72q-50 51 -79 133q-29 84 -29 206v825
l-131 29v163h445zM453 1507q-63 0 -110 44q-46 43 -46 110q0 65 45 112q45 46 107 46q65 0 111 -46t46 -112q0 -67 -46 -110q-47 -44 -107 -44zM879 1507q-65 0 -111 44q-45 43 -45 110q0 65 44 112q43 46 107 46q66 0 112 -46t46 -112q0 -67 -46 -110q-47 -44 -107 -44z
" />
    <glyph glyph-name="Yacute" unicode="&#xdd;" horiz-adv-x="1183" 
d="M299 150l143 28v406l-325 659l-92 17v163h550v-161l-126 -21l108 -235q29 -61 52 -119q19 -48 36 -107q8 38 13 55q8 25 18 51q2 6 6.5 17t8.5 20.5t8 18.5l32 72l105 231l-121 17v161h444v-163l-92 -17l-311 -655v-410l145 -28v-150h-602v150zM356 1628l392 309
l137 -237l-447 -209z" />
    <glyph glyph-name="Thorn" unicode="&#xde;" horiz-adv-x="1185" 
d="M625 473q51 0 89 9q37 9 63 35q25 25 39 73q13 45 13 121q0 77 -13 122t-39 71q-27 27 -65 34q-43 8 -96 8h-102v-473h111zM514 1130h150q238 0 357 -99q118 -99 118 -310q0 -224 -113 -329q-112 -105 -362 -105h-150v-107l176 -30v-150h-627v150l140 30v1051l-140 29
v163h590v-163l-139 -29v-101z" />
    <glyph glyph-name="germandbls" unicode="&#xdf;" horiz-adv-x="1185" 
d="M66 0v149l114 19v678l-114 28v175h114v36q0 218 124 320t333 102q96 0 167 -25t122 -70q48 -42 74 -102t26 -124q0 -77 -31 -128q-32 -53 -67 -88q-28 -28 -68 -70q-31 -33 -31 -71q0 -35 34 -66q44 -41 93 -77q34 -28 68 -59q32 -29 57 -71t39 -89q15 -50 15 -113
q0 -100 -26 -173q-25 -71 -73 -119q-46 -46 -112 -67q-69 -22 -148 -22q-82 0 -145 22q-55 19 -92 46l39 174q20 -9 56 -19q35 -10 73 -10q67 0 108 32t41 110q0 40 -14 68q-16 32 -36 55q-21 24 -50 47q-28 22 -56 47q-58 49 -94 101q-35 50 -35 140q0 65 29 112
q27 45 65 87q32 37 64 83q29 43 29 99q0 61 -35 102q-34 40 -100 40q-78 0 -117 -51q-37 -49 -37 -158v-1100h-403z" />
    <glyph glyph-name="agrave" unicode="&#xe0;" horiz-adv-x="1038" 
d="M459 166q45 0 75 15q29 14 54 38v254h-62q-94 0 -137 -33t-43 -131q0 -77 27 -110t86 -33zM987 20q-25 -15 -76 -31q-50 -16 -106 -16q-71 0 -121 24t-72 89q-15 -15 -45 -43q-23 -22 -52 -36q-31 -16 -66 -24q-42 -10 -89 -10q-61 0 -120 19q-56 18 -96 57
q-39 37 -62 99q-23 61 -23 145q0 175 111 255q110 79 362 79h56v51q0 84 -28 126q-27 40 -116 40q-78 0 -144 -21q-69 -22 -138 -55l-82 184q84 59 191 91t235 32q180 0 275 -77q96 -78 96 -267v-485q0 -54 16 -69t82 -13zM664 1147l-445 209l137 239l389 -309z" />
    <glyph glyph-name="aacute" unicode="&#xe1;" horiz-adv-x="1038" 
d="M459 166q45 0 75 15q29 14 54 38v254h-62q-94 0 -137 -33t-43 -131q0 -77 27 -110t86 -33zM987 20q-25 -15 -76 -31q-50 -16 -106 -16q-71 0 -121 24t-72 89q-15 -15 -45 -43q-23 -22 -52 -36q-31 -16 -66 -24q-42 -10 -89 -10q-61 0 -120 19q-56 18 -96 57
q-39 37 -62 99q-23 61 -23 145q0 175 111 255q110 79 362 79h56v51q0 84 -28 126q-27 40 -116 40q-78 0 -144 -21q-69 -22 -138 -55l-82 184q84 59 191 91t235 32q180 0 275 -77q96 -78 96 -267v-485q0 -54 16 -69t82 -13zM225 1286l391 309l138 -239l-447 -209z" />
    <glyph glyph-name="acircumflex" unicode="&#xe2;" horiz-adv-x="1038" 
d="M459 166q45 0 75 15q29 14 54 38v254h-62q-94 0 -137 -33t-43 -131q0 -77 27 -110t86 -33zM987 20q-25 -15 -76 -31q-50 -16 -106 -16q-71 0 -121 24t-72 89q-15 -15 -45 -43q-23 -22 -52 -36q-31 -16 -66 -24q-42 -10 -89 -10q-61 0 -120 19q-56 18 -96 57
q-39 37 -62 99q-23 61 -23 145q0 175 111 255q110 79 362 79h56v51q0 84 -28 126q-27 40 -116 40q-78 0 -144 -21q-69 -22 -138 -55l-82 184q84 59 191 91t235 32q180 0 275 -77q96 -78 96 -267v-485q0 -54 16 -69t82 -13zM154 1253l251 287h166l250 -287l-84 -102l-254 147
l-245 -147z" />
    <glyph glyph-name="atilde" unicode="&#xe3;" horiz-adv-x="1038" 
d="M459 166q45 0 75 15q29 14 54 38v254h-62q-94 0 -137 -33t-43 -131q0 -77 27 -110t86 -33zM987 20q-25 -15 -76 -31q-50 -16 -106 -16q-71 0 -121 24t-72 89q-15 -15 -45 -43q-23 -22 -52 -36q-31 -16 -66 -24q-42 -10 -89 -10q-61 0 -120 19q-56 18 -96 57
q-39 37 -62 99q-23 61 -23 145q0 175 111 255q110 79 362 79h56v51q0 84 -28 126q-27 40 -116 40q-78 0 -144 -21q-69 -22 -138 -55l-82 184q84 59 191 91t235 32q180 0 275 -77q96 -78 96 -267v-485q0 -54 16 -69t82 -13zM848 1393q-45 -110 -99 -164q-58 -58 -135 -58
q-40 0 -73 12q-46 17 -61 25q-18 10 -54 26q-25 11 -53 11q-40 0 -65 -19q-24 -19 -56 -55l-123 93q45 107 101 163q58 58 135 58q43 0 72 -11q42 -16 61 -26q11 -6 54 -26q23 -11 54 -11q37 0 63 20q29 22 56 56z" />
    <glyph glyph-name="adieresis" unicode="&#xe4;" horiz-adv-x="1038" 
d="M459 166q45 0 75 15q29 14 54 38v254h-62q-94 0 -137 -33t-43 -131q0 -77 27 -110t86 -33zM987 20q-25 -15 -76 -31q-50 -16 -106 -16q-71 0 -121 24t-72 89q-15 -15 -45 -43q-23 -22 -52 -36q-31 -16 -66 -24q-42 -10 -89 -10q-61 0 -120 19q-56 18 -96 57
q-39 37 -62 99q-23 61 -23 145q0 175 111 255q110 79 362 79h56v51q0 84 -28 126q-27 40 -116 40q-78 0 -144 -21q-69 -22 -138 -55l-82 184q84 59 191 91t235 32q180 0 275 -77q96 -78 96 -267v-485q0 -54 16 -69t82 -13zM293 1159q-63 0 -110 44q-46 43 -46 110
q0 65 45 111t107 46q65 0 111 -46t46 -111q0 -67 -46 -110q-47 -44 -107 -44zM719 1159q-65 0 -111 44q-45 43 -45 110q0 64 44 111q43 46 108 46t111 -46t46 -111q0 -67 -46 -110q-47 -44 -107 -44z" />
    <glyph glyph-name="aring" unicode="&#xe5;" horiz-adv-x="1038" 
d="M459 166q45 0 75 15q29 14 54 38v254h-62q-94 0 -137 -33t-43 -131q0 -77 27 -110t86 -33zM987 20q-25 -15 -76 -31q-50 -16 -106 -16q-71 0 -121 24t-72 89q-15 -15 -45 -43q-23 -22 -52 -36q-31 -16 -66 -24q-42 -10 -89 -10q-61 0 -120 19q-56 18 -96 57
q-39 37 -62 99q-23 61 -23 145q0 175 111 255q110 79 362 79h56v51q0 84 -28 126q-27 40 -116 40q-78 0 -144 -21q-69 -22 -138 -55l-82 184q84 59 191 91t235 32q180 0 275 -77q96 -78 96 -267v-485q0 -54 16 -69t82 -13zM481 1149q-107 0 -171 66q-64 65 -64 171
q0 107 64 172q64 66 171 66t171 -66q65 -67 65 -172q0 -104 -65 -171q-64 -66 -171 -66zM481 1274q80 0 80 112q0 113 -80 113t-80 -113q0 -112 80 -112z" />
    <glyph glyph-name="ae" unicode="&#xe6;" horiz-adv-x="1492" 
d="M1051 -27q-117 0 -210 32q-91 31 -151 99q-48 -65 -129 -98q-79 -33 -178 -33q-66 0 -129 19q-58 17 -102 57t-68 99q-25 62 -25 145q0 176 111 254t362 78h56v53q0 84 -28 126q-27 40 -116 40q-78 0 -144 -21q-69 -22 -138 -55l-82 184q84 59 191 91t231 32
q93 0 151 -23q60 -24 103 -67q51 43 117 67q62 23 149 23q103 0 177 -26q78 -27 129 -86q53 -61 80 -157q28 -101 28 -239v-112h-559q0 -76 11 -124q12 -51 36 -86q23 -33 66 -50t106 -17q82 0 137 21q56 21 121 61l76 -164q-75 -59 -165 -91t-214 -32zM1022 901
q-37 0 -60 -11q-25 -12 -43 -42q-16 -27 -29 -85q-11 -52 -13 -138h276q0 83 -6 135q-6 51 -22 85q-15 32 -41 44t-62 12zM459 166q45 0 75 15q29 14 54 38v246h-62q-92 0 -137 -31q-43 -30 -43 -125q0 -77 27 -110t86 -33z" />
    <glyph glyph-name="ccedilla" unicode="&#xe7;" horiz-adv-x="925" 
d="M485 -455q-53 0 -101 14q-49 14 -75 35l43 111q20 -11 48 -19q27 -8 61 -8q39 0 58 14q18 14 18 48t-18 49q-17 14 -64 14q-23 0 -41 -3q-22 -4 -31 -7l51 187q-83 10 -152 48q-68 37 -118 104q-48 65 -76 164q-27 97 -27 230q0 157 37 261q38 107 100 170q64 65 148 92
q82 26 184 26q106 0 184 -23q79 -23 136 -71v-254h-193l-30 150q-13 9 -39 14q-21 4 -49 4q-43 0 -72 -13q-31 -14 -52 -52t-33 -105q-11 -62 -11 -176q0 -124 13 -193q13 -71 40 -111t65 -52q42 -13 93 -13q63 0 116 21q59 23 103 53l78 -160q-58 -52 -136 -82
q-81 -31 -178 -37l-18 -71q74 -7 121 -54q45 -45 45 -110q0 -42 -12 -76q-13 -36 -36 -61q-25 -26 -70 -42q-46 -16 -110 -16z" />
    <glyph glyph-name="egrave" unicode="&#xe8;" horiz-adv-x="985" 
d="M543 -27q-117 0 -212 31q-91 30 -152 97t-91 172q-31 109 -31 253q0 287 120 418t335 131q103 0 177 -26q77 -27 129 -87q53 -61 80 -158q28 -101 28 -239v-116h-559q0 -76 11 -123q12 -51 36 -84t66 -48q45 -16 106 -16q82 0 137 21q56 21 121 61l78 -164
q-76 -59 -167 -91q-90 -32 -212 -32zM514 901q-34 0 -60 -12q-24 -11 -43 -43q-16 -27 -29 -85q-11 -52 -13 -138h274q0 82 -6 136q-6 55 -21 86q-16 33 -39 44q-25 12 -63 12zM705 1147l-445 209l137 239l389 -309z" />
    <glyph glyph-name="eacute" unicode="&#xe9;" horiz-adv-x="985" 
d="M266 1286l391 309l138 -239l-447 -209zM543 -27q-117 0 -212 31q-91 30 -152 97t-91 172q-31 109 -31 253q0 287 120 418t335 131q103 0 177 -26q77 -27 129 -87q53 -61 80 -158q28 -101 28 -239v-116h-559q0 -76 11 -123q12 -51 36 -84t66 -48q45 -16 106 -16
q82 0 137 21q56 21 121 61l78 -164q-76 -59 -167 -91q-90 -32 -212 -32zM514 901q-34 0 -60 -12q-24 -11 -43 -43q-16 -27 -29 -85q-11 -52 -13 -138h274q0 82 -6 136q-6 55 -21 86q-16 33 -39 44q-25 12 -63 12z" />
    <glyph glyph-name="ecircumflex" unicode="&#xea;" horiz-adv-x="985" 
d="M188 1253l252 287h166l250 -287l-84 -102l-254 147l-246 -147zM543 -27q-117 0 -212 31q-91 30 -152 97t-91 172q-31 109 -31 253q0 287 120 418t335 131q103 0 177 -26q77 -27 129 -87q53 -61 80 -158q28 -101 28 -239v-116h-559q0 -76 11 -123q12 -51 36 -84t66 -48
q45 -16 106 -16q82 0 137 21q56 21 121 61l78 -164q-76 -59 -167 -91q-90 -32 -212 -32zM514 901q-34 0 -60 -12q-24 -11 -43 -43q-16 -27 -29 -85q-11 -52 -13 -138h274q0 82 -6 136q-6 55 -21 86q-16 33 -39 44q-25 12 -63 12z" />
    <glyph glyph-name="edieresis" unicode="&#xeb;" horiz-adv-x="985" 
d="M313 1159q-62 0 -109 44q-46 43 -46 110q0 65 45 111t106 46q66 0 112 -46t46 -111q0 -67 -46 -110q-47 -44 -108 -44zM739 1159q-64 0 -110 44q-45 43 -45 110q0 64 44 111q43 46 107 46q66 0 112 -46t46 -111q0 -67 -46 -110q-47 -44 -108 -44zM543 -27q-117 0 -212 31
q-91 30 -152 97t-91 172q-31 109 -31 253q0 287 120 418t335 131q103 0 177 -26q77 -27 129 -87q53 -61 80 -158q28 -101 28 -239v-116h-559q0 -76 11 -123q12 -51 36 -84t66 -48q45 -16 106 -16q82 0 137 21q56 21 121 61l78 -164q-76 -59 -167 -91q-90 -32 -212 -32z
M514 901q-34 0 -60 -12q-24 -11 -43 -43q-16 -27 -29 -85q-11 -52 -13 -138h274q0 82 -6 136q-6 55 -21 86q-16 33 -39 44q-25 12 -63 12z" />
    <glyph glyph-name="igrave" unicode="&#xec;" horiz-adv-x="632" 
d="M584 147v-147h-518v147l114 21v678l-114 28v175h403v-881zM467 1147l-444 209l137 239l389 -309z" />
    <glyph glyph-name="iacute" unicode="&#xed;" horiz-adv-x="632" 
d="M84 1286l391 309l137 -239l-446 -209zM584 147v-147h-518v147l114 21v678l-114 28v175h403v-881z" />
    <glyph glyph-name="icircumflex" unicode="&#xee;" horiz-adv-x="632" 
d="M-8 1253l252 287h166l249 -287l-84 -102l-253 147l-246 -147zM584 147v-147h-518v147l114 21v678l-114 28v175h403v-881z" />
    <glyph glyph-name="idieresis" unicode="&#xef;" horiz-adv-x="632" 
d="M117 1159q-63 0 -110 44q-46 43 -46 110q0 65 45 111t107 46q65 0 111 -46t46 -111q0 -67 -46 -110q-47 -44 -107 -44zM543 1159q-65 0 -111 44q-45 43 -45 110q0 64 44 111q43 46 108 46t111 -46t46 -111q0 -67 -46 -110q-47 -44 -107 -44zM584 147v-147h-518v147
l114 21v678l-114 28v175h403v-881z" />
    <glyph glyph-name="eth" unicode="&#xf0;" horiz-adv-x="1032" 
d="M236 1190l163 67q-80 63 -166 117l91 162q94 -41 168 -82q75 -42 143 -96l211 88l45 -123l-152 -63q116 -127 175 -295q59 -169 59 -398q0 -161 -31 -279q-30 -115 -89 -184q-60 -71 -143 -100q-88 -31 -194 -31q-217 0 -338 124t-121 399q0 135 32 234q31 98 84 159
q53 62 122 89q72 28 147 28q64 0 108 -18q46 -19 75 -48q-16 59 -47 113q-30 52 -76 106l-219 -92zM516 150q87 0 115 80t28 264q0 98 -7 157q-8 68 -23 103q-16 38 -44 55q-26 16 -71 16t-72 -17q-29 -18 -45 -56q-16 -37 -22 -104q-6 -64 -6 -159q0 -185 31 -262t116 -77z
" />
    <glyph glyph-name="ntilde" unicode="&#xf1;" horiz-adv-x="1181" 
d="M727 694q0 78 -21 112t-77 34q-43 0 -84 -18q-43 -19 -76 -42v-612l109 -21v-147h-512v147l114 21v678l-114 28v175h364l27 -117q77 70 147 106q71 37 170 37q120 0 182 -73t62 -211v-623l112 -21v-147h-403v694zM958 1393q-45 -110 -99 -164q-58 -58 -134 -58
q-41 0 -74 12q-43 16 -60 25q-18 10 -54 26q-25 11 -54 11q-39 0 -64 -19q-24 -19 -56 -55l-123 93q45 107 101 163q58 58 134 58q44 0 73 -11q38 -15 60 -26q2 -1 55 -26q23 -11 54 -11q36 0 62 20q31 24 57 56z" />
    <glyph glyph-name="ograve" unicode="&#xf2;" horiz-adv-x="1042" 
d="M520 -27q-107 0 -194 32q-86 32 -146 98q-59 65 -91 172t-32 253t32 251t91 170q61 67 146 97q83 29 194 29q107 0 195 -31q84 -30 145 -98q59 -67 91 -172q32 -107 32 -252t-32 -252q-32 -106 -91 -171q-60 -66 -145 -96t-195 -30zM522 150q46 0 75 20q29 21 46 66
t24 117q7 67 7 179q0 197 -32 281q-31 82 -122 82q-46 0 -75 -19t-46 -63q-15 -40 -23 -114q-7 -66 -7 -173q0 -109 7 -176q8 -77 24 -117q18 -45 47 -64t75 -19zM705 1147l-445 209l137 239l389 -309z" />
    <glyph glyph-name="oacute" unicode="&#xf3;" horiz-adv-x="1042" 
d="M258 1286l391 309l137 -239l-446 -209zM520 -27q-107 0 -194 32q-86 32 -146 98q-59 65 -91 172t-32 253t32 251t91 170q61 67 146 97q83 29 194 29q107 0 195 -31q84 -30 145 -98q59 -67 91 -172q32 -107 32 -252t-32 -252q-32 -106 -91 -171q-60 -66 -145 -96t-195 -30
zM522 150q46 0 75 20q29 21 46 66t24 117q7 67 7 179q0 197 -32 281q-31 82 -122 82q-46 0 -75 -19t-46 -63q-15 -40 -23 -114q-7 -66 -7 -173q0 -109 7 -176q8 -77 24 -117q18 -45 47 -64t75 -19z" />
    <glyph glyph-name="ocircumflex" unicode="&#xf4;" horiz-adv-x="1042" 
d="M188 1253l252 287h166l250 -287l-84 -102l-254 147l-246 -147zM520 -27q-107 0 -194 32q-86 32 -146 98q-59 65 -91 172t-32 253t32 251t91 170q61 67 146 97q83 29 194 29q107 0 195 -31q84 -30 145 -98q59 -67 91 -172q32 -107 32 -252t-32 -252q-32 -106 -91 -171
q-60 -66 -145 -96t-195 -30zM522 150q46 0 75 20q29 21 46 66t24 117q7 67 7 179q0 197 -32 281q-31 82 -122 82q-46 0 -75 -19t-46 -63q-15 -40 -23 -114q-7 -66 -7 -173q0 -109 7 -176q8 -77 24 -117q18 -45 47 -64t75 -19z" />
    <glyph glyph-name="otilde" unicode="&#xf5;" horiz-adv-x="1042" 
d="M520 -27q-107 0 -194 32q-86 32 -146 98q-59 65 -91 172t-32 253t32 251t91 170q61 67 146 97q83 29 194 29q107 0 195 -31q84 -30 145 -98q59 -67 91 -172q32 -107 32 -252t-32 -252q-32 -106 -91 -171q-60 -66 -145 -96t-195 -30zM522 150q46 0 75 20q29 21 46 66
t24 117q7 67 7 179q0 197 -32 281q-31 82 -122 82q-46 0 -75 -19t-46 -63q-15 -40 -23 -114q-7 -66 -7 -173q0 -109 7 -176q8 -77 24 -117q18 -45 47 -64t75 -19zM881 1393q-44 -108 -100 -164q-58 -58 -134 -58q-41 0 -74 12q-43 16 -60 25q-18 10 -54 26q-25 11 -53 11
q-40 0 -65 -19q-24 -19 -56 -55l-123 93q45 107 101 163q58 58 134 58q44 0 73 -11q38 -15 60 -26q2 -1 55 -26q23 -11 54 -11q36 0 62 20q31 24 57 56z" />
    <glyph glyph-name="odieresis" unicode="&#xf6;" horiz-adv-x="1042" 
d="M311 1159q-62 0 -109 44q-46 43 -46 110q0 65 45 111t106 46q66 0 112 -46t46 -111q0 -67 -46 -110q-47 -44 -108 -44zM737 1159q-64 0 -110 44q-45 43 -45 110q0 64 44 111q43 46 107 46q66 0 112 -46t46 -111q0 -67 -46 -110q-47 -44 -108 -44zM520 -27q-107 0 -194 32
q-86 32 -146 98q-59 65 -91 172t-32 253t32 251t91 170q61 67 146 97q83 29 194 29q107 0 195 -31q84 -30 145 -98q59 -67 91 -172q32 -107 32 -252t-32 -252q-32 -106 -91 -171q-60 -66 -145 -96t-195 -30zM522 150q46 0 75 20q29 21 46 66t24 117q7 67 7 179
q0 197 -32 281q-31 82 -122 82q-46 0 -75 -19t-46 -63q-15 -40 -23 -114q-7 -66 -7 -173q0 -109 7 -176q8 -77 24 -117q18 -45 47 -64t75 -19z" />
    <glyph glyph-name="divide" unicode="&#xf7;" 
d="M111 815h905v-229h-905v229zM561 952q-68 0 -116 49t-48 119q0 66 48 114t116 48t116 -48t48 -114q0 -70 -48 -119t-116 -49zM561 119q-68 0 -116 48t-48 118q0 67 48 114q49 47 116 47t116 -47q48 -47 48 -114q0 -70 -48 -118t-116 -48z" />
    <glyph glyph-name="oslash" unicode="&#xf8;" horiz-adv-x="1042" 
d="M72 -86l110 186q-58 65 -92 173q-33 105 -33 255q0 146 32 251t91 170q61 67 146 97q83 29 194 29q127 0 217 -43l109 180l127 -77l-113 -189q59 -67 91 -172q32 -107 32 -252t-32 -252q-32 -106 -91 -171q-60 -66 -145 -96t-195 -30q-53 0 -113 10q-59 10 -100 29
l-106 -176zM348 526q0 -42 3 -77q4 -42 7 -60l271 461q-39 45 -109 45q-48 0 -80 -19t-53 -63q-21 -43 -30 -114q-9 -70 -9 -173zM524 150q47 0 78 20q32 20 53 66q21 45 30 117t9 179q0 25 -2 67q-1 31 -6 58l-270 -464q37 -43 108 -43z" />
    <glyph glyph-name="ugrave" unicode="&#xf9;" horiz-adv-x="1177" 
d="M604 874v175h395v-877l113 -20v-152h-352l-27 109q-74 -61 -144 -98q-73 -38 -175 -38q-50 0 -95 15q-44 15 -79 45q-34 30 -56 81q-20 47 -20 122v610l-115 28v175h404v-723q0 -73 26 -102t74 -29q37 0 78 15q39 15 78 44v592zM762 1147l-445 209l138 239l389 -309z" />
    <glyph glyph-name="uacute" unicode="&#xfa;" horiz-adv-x="1177" 
d="M315 1286l392 309l137 -239l-447 -209zM604 874v175h395v-877l113 -20v-152h-352l-27 109q-74 -61 -144 -98q-73 -38 -175 -38q-50 0 -95 15q-44 15 -79 45q-34 30 -56 81q-20 47 -20 122v610l-115 28v175h404v-723q0 -73 26 -102t74 -29q37 0 78 15q39 15 78 44v592z
" />
    <glyph glyph-name="ucircumflex" unicode="&#xfb;" horiz-adv-x="1177" 
d="M246 1253l252 287h166l249 -287l-84 -102l-254 147l-245 -147zM604 874v175h395v-877l113 -20v-152h-352l-27 109q-74 -61 -144 -98q-73 -38 -175 -38q-50 0 -95 15q-44 15 -79 45q-34 30 -56 81q-20 47 -20 122v610l-115 28v175h404v-723q0 -73 26 -102t74 -29
q37 0 78 15q39 15 78 44v592z" />
    <glyph glyph-name="udieresis" unicode="&#xfc;" horiz-adv-x="1177" 
d="M365 1159q-63 0 -110 44q-46 43 -46 110q0 65 45 111t106 46q66 0 112 -46t46 -111q0 -67 -46 -110q-47 -44 -107 -44zM791 1159q-65 0 -111 44q-45 43 -45 110q0 64 44 111q43 46 107 46q66 0 112 -46t46 -111q0 -67 -46 -110q-47 -44 -107 -44zM604 874v175h395v-877
l113 -20v-152h-352l-27 109q-74 -61 -144 -98q-73 -38 -175 -38q-50 0 -95 15q-44 15 -79 45q-34 30 -56 81q-20 47 -20 122v610l-115 28v175h404v-723q0 -73 26 -102t74 -29q37 0 78 15q39 15 78 44v592z" />
    <glyph glyph-name="yacute" unicode="&#xfd;" horiz-adv-x="1062" 
d="M651 881v168h398v-175l-82 -16l-281 -858q-38 -112 -82 -184q-46 -75 -103 -122q-60 -49 -130 -74q-73 -26 -160 -42l-68 203q70 11 130 31q54 18 93 46q38 27 62 62q25 35 41 80h-76l-282 860l-82 14v175h475v-168l-96 -17l116 -418q15 -55 28 -118q11 -50 19 -121h2
q7 54 22 119q12 50 30 116l118 424zM299 1286l391 309l137 -239l-446 -209z" />
    <glyph glyph-name="thorn" unicode="&#xfe;" horiz-adv-x="1085" 
d="M559 170q46 0 75 20q30 21 46 64q15 40 23 112q8 74 8 164q0 88 -8 155q-8 65 -24 99q-18 38 -45 54q-26 16 -69 16q-47 0 -85 -15q-35 -14 -66 -40v-570q24 -24 61 -41q39 -18 84 -18zM414 946q38 52 101 90q64 39 163 39q70 0 132 -25q63 -26 110 -86t74 -163
q28 -106 28 -256q0 -167 -27 -275q-28 -112 -75 -173q-49 -64 -119 -90q-68 -25 -156 -25q-76 0 -132 23q-58 24 -99 65v-306l112 -20v-139h-516v139l113 20v1543l-113 28v164h404v-553z" />
    <glyph glyph-name="ydieresis" unicode="&#xff;" horiz-adv-x="1062" 
d="M651 881v168h398v-175l-82 -16l-281 -858q-38 -112 -82 -184q-46 -75 -103 -122q-60 -49 -130 -74q-73 -26 -160 -42l-68 203q70 11 130 31q54 18 93 46q38 27 62 62q25 35 41 80h-76l-282 860l-82 14v175h475v-168l-96 -17l116 -418q15 -55 28 -118q11 -50 19 -121h2
q7 54 22 119q12 50 30 116l118 424zM346 1159q-62 0 -109 44t-47 110q0 63 46 111q45 46 106 46q66 0 112 -46t46 -111q0 -67 -46 -110q-47 -44 -108 -44zM772 1159q-64 0 -110 44t-46 110q0 64 44 111q43 46 108 46q66 0 112 -46t46 -111q0 -67 -46 -110q-47 -44 -108 -44z
" />
    <glyph glyph-name="Amacron" unicode="&#x100;" horiz-adv-x="1298" 
d="M799 381h-387l-60 -209l148 -25v-147h-475v150l98 16l389 1257h276l394 -1253l92 -20v-150h-557v147l141 25zM463 563h287l-91 326q-16 61 -28 125q-13 69 -19 119h-4q-7 -56 -20 -117q-12 -54 -33 -127zM367 1751h565v-209h-565v209z" />
    <glyph glyph-name="amacron" unicode="&#x101;" horiz-adv-x="1038" 
d="M459 166q45 0 75 15q29 14 54 38v254h-62q-94 0 -137 -33t-43 -131q0 -77 27 -110t86 -33zM987 20q-25 -15 -76 -31q-50 -16 -106 -16q-71 0 -121 24t-72 89q-15 -15 -45 -43q-23 -22 -52 -36q-31 -16 -66 -24q-42 -10 -89 -10q-61 0 -120 19q-56 18 -96 57
q-39 37 -62 99q-23 61 -23 145q0 175 111 255q110 79 362 79h56v51q0 84 -28 126q-27 40 -116 40q-78 0 -144 -21q-69 -22 -138 -55l-82 184q84 59 191 91t235 32q180 0 275 -77q96 -78 96 -267v-485q0 -54 16 -69t82 -13zM207 1454h565v-209h-565v209z" />
    <glyph glyph-name="Abreve" unicode="&#x102;" horiz-adv-x="1298" 
d="M799 381h-387l-60 -209l148 -25v-147h-475v150l98 16l389 1257h276l394 -1253l92 -20v-150h-557v147l141 25zM463 563h287l-91 326q-16 61 -28 125q-13 69 -19 119h-4q-7 -56 -20 -117q-12 -54 -33 -127zM647 1509q-76 0 -136 29q-56 27 -98 74q-42 46 -62 100
q-21 55 -27 109l174 37q18 -58 52 -92q33 -33 97 -33q65 0 98 33q36 36 52 92l176 -37q-6 -52 -29 -109t-62 -100q-41 -46 -99 -74q-60 -29 -136 -29z" />
    <glyph glyph-name="abreve" unicode="&#x103;" horiz-adv-x="1038" 
d="M459 166q45 0 75 15q29 14 54 38v254h-62q-94 0 -137 -33t-43 -131q0 -77 27 -110t86 -33zM987 20q-25 -15 -76 -31q-50 -16 -106 -16q-71 0 -121 24t-72 89q-15 -15 -45 -43q-23 -22 -52 -36q-31 -16 -66 -24q-42 -10 -89 -10q-61 0 -120 19q-56 18 -96 57
q-39 37 -62 99q-23 61 -23 145q0 175 111 255q110 79 362 79h56v51q0 84 -28 126q-27 40 -116 40q-78 0 -144 -21q-69 -22 -138 -55l-82 184q84 59 191 91t235 32q180 0 275 -77q96 -78 96 -267v-485q0 -54 16 -69t82 -13zM487 1174q-79 0 -136 28q-56 27 -98 74
q-41 46 -62 99t-27 108l174 39q18 -57 52 -91t97 -34q65 0 99 34q35 35 51 91l176 -39q-6 -53 -29 -108q-23 -56 -62 -99q-42 -47 -98 -74q-57 -28 -137 -28z" />
    <glyph glyph-name="Aogonek" unicode="&#x104;" horiz-adv-x="1298" 
d="M967 -455q-110 0 -169 53t-59 142q0 83 47 145t115 115h-184v147l141 25l-59 209h-387l-60 -209l148 -25v-147h-475v150l98 16l389 1257h276l394 -1253l92 -20v-150h-201q-66 -72 -94 -113q-31 -45 -31 -92q0 -33 19 -52q17 -17 49 -17q52 0 104 24l49 -131
q-28 -25 -79 -50q-50 -24 -123 -24zM463 563h287l-91 326q-16 61 -28 125q-13 69 -19 119h-4q-7 -56 -20 -117q-12 -54 -33 -127z" />
    <glyph glyph-name="aogonek" unicode="&#x105;" horiz-adv-x="1038" 
d="M797 -455q-108 0 -167 53t-59 142q0 78 43 136q44 59 109 108q-43 11 -69 34q-27 24 -42 68q-15 -15 -45 -43q-23 -22 -52 -36q-31 -16 -66 -24q-42 -10 -89 -10q-61 0 -120 19q-56 18 -96 57q-39 37 -62 99q-23 61 -23 145q0 175 111 255q110 79 362 79h56v51
q0 84 -28 126q-27 40 -116 40q-78 0 -144 -21q-69 -22 -138 -55l-82 184q84 59 191 91t235 32q180 0 275 -77q96 -78 96 -267v-485q0 -54 16 -69t82 -13l12 -144q-44 -16 -78 -38q-30 -19 -65 -56q-28 -29 -46 -64q-18 -34 -18 -67t19 -52q17 -17 49 -17q52 0 104 24
l47 -131q-26 -25 -78 -50q-50 -24 -124 -24zM459 166q45 0 75 15q29 14 54 38v254h-62q-94 0 -137 -33t-43 -131q0 -77 27 -110t86 -33z" />
    <glyph glyph-name="Cacute" unicode="&#x106;" horiz-adv-x="1130" 
d="M676 -27q-162 0 -277 50t-186 143q-70 92 -105 231q-34 135 -34 312q0 173 29 305q30 135 100 233t184 150q115 53 287 53q114 0 215 -26q98 -25 166 -72v-316h-209l-41 201q-26 15 -56 19q-40 6 -67 6q-80 0 -133 -30q-55 -32 -84 -95q-31 -69 -43 -169
q-12 -104 -12 -251q0 -155 11 -251q12 -106 42 -173t83 -99t134 -32q86 0 154 31l43 192h196v-315q-77 -43 -177 -69q-109 -28 -220 -28zM405 1628l392 309l137 -237l-447 -209z" />
    <glyph glyph-name="cacute" unicode="&#x107;" horiz-adv-x="925" 
d="M250 1286l391 309l137 -239l-446 -209zM516 -27q-100 0 -185 31q-84 31 -144 98q-60 68 -93 172q-33 105 -33 252q0 157 37 261q38 107 100 170q64 65 148 92q82 26 184 26q106 0 184 -23q79 -23 136 -71v-254h-193l-30 150q-13 9 -39 14q-21 4 -49 4q-43 0 -72 -13
q-31 -14 -52 -52t-33 -105q-11 -62 -11 -176q0 -124 13 -193q13 -71 40 -111t65 -52q42 -13 93 -13q63 0 116 21q59 23 103 53l78 -160q-64 -58 -155 -89q-93 -32 -208 -32z" />
    <glyph glyph-name="Ccircumflex" unicode="&#x108;" horiz-adv-x="1130" 
d="M334 1589l252 287h166l249 -287l-83 -102l-254 149l-246 -149zM676 -27q-162 0 -277 50t-186 143q-70 92 -105 231q-34 135 -34 312q0 173 29 305q30 135 100 233t184 150q115 53 287 53q114 0 215 -26q98 -25 166 -72v-316h-209l-41 201q-26 15 -56 19q-40 6 -67 6
q-80 0 -133 -30q-55 -32 -84 -95q-31 -69 -43 -169q-12 -104 -12 -251q0 -155 11 -251q12 -106 42 -173t83 -99t134 -32q86 0 154 31l43 192h196v-315q-77 -43 -177 -69q-109 -28 -220 -28z" />
    <glyph glyph-name="ccircumflex" unicode="&#x109;" horiz-adv-x="925" 
d="M178 1253l252 287h166l250 -287l-84 -102l-254 147l-246 -147zM516 -27q-100 0 -185 31q-84 31 -144 98q-60 68 -93 172q-33 105 -33 252q0 157 37 261q38 107 100 170q64 65 148 92q82 26 184 26q106 0 184 -23q79 -23 136 -71v-254h-193l-30 150q-13 9 -39 14
q-21 4 -49 4q-43 0 -72 -13q-31 -14 -52 -52t-33 -105q-11 -62 -11 -176q0 -124 13 -193q13 -71 40 -111t65 -52q42 -13 93 -13q63 0 116 21q59 23 103 53l78 -160q-64 -58 -155 -89q-93 -32 -208 -32z" />
    <glyph glyph-name="Cdotaccent" unicode="&#x10a;" horiz-adv-x="1130" 
d="M676 -27q-162 0 -277 50t-186 143q-70 92 -105 231q-34 135 -34 312q0 173 29 305q30 135 100 233t184 150q115 53 287 53q114 0 215 -26q98 -25 166 -72v-316h-209l-41 201q-26 15 -56 19q-40 6 -67 6q-80 0 -133 -30q-55 -32 -84 -95q-31 -69 -43 -169
q-12 -104 -12 -251q0 -155 11 -251q12 -106 42 -173t83 -99t134 -32q86 0 154 31l43 192h196v-315q-77 -43 -177 -69q-109 -28 -220 -28zM670 1520q-70 0 -119 49t-49 116q0 70 49 119t117 49q67 0 116 -49q50 -50 50 -116q0 -35 -14 -66t-36 -53q-23 -23 -52 -36t-62 -13z
" />
    <glyph glyph-name="cdotaccent" unicode="&#x10b;" horiz-adv-x="925" 
d="M516 -27q-100 0 -185 31q-84 31 -144 98q-60 68 -93 172q-33 105 -33 252q0 157 37 261q38 107 100 170q64 65 148 92q82 26 184 26q106 0 184 -23q79 -23 136 -71v-254h-193l-30 150q-13 9 -39 14q-21 4 -49 4q-43 0 -72 -13q-31 -14 -52 -52t-33 -105q-11 -62 -11 -176
q0 -124 13 -193q13 -71 40 -111t65 -52q42 -13 93 -13q63 0 116 21q59 23 103 53l78 -160q-64 -58 -155 -89q-93 -32 -208 -32zM514 1159q-70 0 -119 49t-49 117q0 72 49 121t117 49q72 0 120 -49q48 -50 48 -119t-48 -119q-48 -49 -118 -49z" />
    <glyph glyph-name="Ccaron" unicode="&#x10c;" horiz-adv-x="1130" 
d="M319 1804l84 101l246 -148l254 148l84 -101l-250 -288h-166zM676 -27q-162 0 -277 50t-186 143q-70 92 -105 231q-34 135 -34 312q0 173 29 305q30 135 100 233t184 150q115 53 287 53q114 0 215 -26q98 -25 166 -72v-316h-209l-41 201q-26 15 -56 19q-40 6 -67 6
q-80 0 -133 -30q-55 -32 -84 -95q-31 -69 -43 -169q-12 -104 -12 -251q0 -155 11 -251q12 -106 42 -173t83 -99t134 -32q86 0 154 31l43 192h196v-315q-77 -43 -177 -69q-109 -28 -220 -28z" />
    <glyph glyph-name="ccaron" unicode="&#x10d;" horiz-adv-x="925" 
d="M262 1554l246 -147l254 147l84 -102l-250 -287h-166l-252 287zM516 -27q-100 0 -185 31q-84 31 -144 98q-60 68 -93 172q-33 105 -33 252q0 157 37 261q38 107 100 170q64 65 148 92q82 26 184 26q106 0 184 -23q79 -23 136 -71v-254h-193l-30 150q-13 9 -39 14
q-21 4 -49 4q-43 0 -72 -13q-31 -14 -52 -52t-33 -105q-11 -62 -11 -176q0 -124 13 -193q13 -71 40 -111t65 -52q42 -13 93 -13q63 0 116 21q59 23 103 53l78 -160q-64 -58 -155 -89q-93 -32 -208 -32z" />
    <glyph glyph-name="Dcaron" unicode="&#x10e;" horiz-adv-x="1304" 
d="M283 1790l84 100l245 -147l254 147l84 -100l-250 -289h-165zM639 184q76 0 129 25q51 24 81 84t42 160t12 254q0 161 -11 255q-12 103 -41 161q-30 60 -80 86t-128 26h-129v-1051h125zM655 1423q144 0 251 -37q110 -38 180 -121q73 -87 109 -222q36 -137 36 -332
q0 -209 -40 -344q-41 -139 -118 -220q-76 -81 -191 -114q-114 -33 -261 -33h-558v150l140 28v1053l-140 29v163h592z" />
    <glyph glyph-name="dcaron" unicode="&#x10f;" horiz-adv-x="1116" 
d="M684 102q-50 -62 -112 -96q-60 -33 -148 -33q-82 0 -149 29q-65 28 -112 93t-72 169q-25 103 -25 256q0 156 27 262q27 105 77 172q51 68 118 94q69 27 148 27q43 0 76 -9q30 -8 58 -23t47 -31q7 -6 21 -18.5t21 -18.5v334l-112 26v164h403v-1331l113 -21v-147h-352z
M512 176q48 0 85 18q42 20 62 39v564q-34 31 -53 43q-27 18 -76 18q-44 0 -72 -17q-30 -18 -48 -58q-20 -45 -27 -106q-8 -70 -8 -163q0 -99 7 -159q7 -63 24 -104q16 -39 41 -57t65 -18zM1040 1122v377h273l-88 -377h-185z" />
    <glyph glyph-name="Dcroat" unicode="&#x110;" horiz-adv-x="1304" 
d="M63 819h140v412l-140 29v163h592q144 0 251 -37q110 -38 180 -121q73 -87 109 -222q36 -137 36 -332q0 -209 -40 -344q-41 -139 -118 -220q-76 -81 -191 -114q-114 -33 -261 -33h-558v150l140 28v455h-140v186zM639 184q76 0 129 25q51 24 81 84t42 160t12 254
q0 161 -11 255q-12 103 -41 161q-30 60 -80 86t-128 26h-129v-416h186v-186h-186v-449h125z" />
    <glyph glyph-name="dcroat" unicode="&#x111;" horiz-adv-x="1116" 
d="M406 1274h253v65l-112 27v133h403v-225h113v-133h-113v-973l113 -21v-147h-352l-27 102q-50 -62 -112 -96q-60 -33 -148 -33q-82 0 -149 29q-65 28 -112 93t-72 169q-25 103 -25 256q0 156 27 261t77 170q49 64 118 91t148 27q43 0 76 -9q30 -8 58 -23t47 -31
q7 -6 21 -18.5t21 -18.5v172h-253v133zM512 176q48 0 85 18q42 20 62 39v560q-30 25 -54 41q-27 18 -75 18q-43 0 -72 -16q-30 -16 -48 -56q-20 -44 -27 -104q-8 -70 -8 -162q0 -99 7 -159q7 -63 24 -104q16 -39 41 -57t65 -18z" />
    <glyph glyph-name="Emacron" unicode="&#x112;" horiz-adv-x="1132" 
d="M891 524h-148l-32 115h-197v-453h317l43 201h191v-387h-1002v150l140 28v1051l-140 33v161h979v-374h-194l-33 186h-301v-412h197l32 111h148v-410zM299 1751h565v-209h-565v209z" />
    <glyph glyph-name="emacron" unicode="&#x113;" horiz-adv-x="985" 
d="M543 -27q-117 0 -212 31q-91 30 -152 97t-91 172q-31 109 -31 253q0 287 120 418t335 131q103 0 177 -26q77 -27 129 -87q53 -61 80 -158q28 -101 28 -239v-116h-559q0 -76 11 -123q12 -51 36 -84t66 -48q45 -16 106 -16q82 0 137 21q56 21 121 61l78 -164
q-76 -59 -167 -91q-90 -32 -212 -32zM514 901q-34 0 -60 -12q-24 -11 -43 -43q-16 -27 -29 -85q-11 -52 -13 -138h274q0 82 -6 136q-6 55 -21 86q-16 33 -39 44q-25 12 -63 12zM242 1454h565v-209h-565v209z" />
    <glyph glyph-name="Ebreve" unicode="&#x114;" horiz-adv-x="1132" 
d="M891 524h-148l-32 115h-197v-453h317l43 201h191v-387h-1002v150l140 28v1051l-140 33v161h979v-374h-194l-33 186h-301v-412h197l32 111h148v-410zM571 1509q-76 0 -136 29q-56 27 -98 74q-42 46 -62 100q-21 55 -27 109l174 37q18 -58 52 -92q33 -33 97 -33q66 0 99 33
q34 34 51 92l176 -37q-6 -52 -29 -109t-62 -100q-42 -47 -98 -74q-60 -29 -137 -29z" />
    <glyph glyph-name="ebreve" unicode="&#x115;" horiz-adv-x="985" 
d="M543 -27q-117 0 -212 31q-91 30 -152 97t-91 172q-31 109 -31 253q0 287 120 418t335 131q103 0 177 -26q77 -27 129 -87q53 -61 80 -158q28 -101 28 -239v-116h-559q0 -76 11 -123q12 -51 36 -84t66 -48q45 -16 106 -16q82 0 137 21q56 21 121 61l78 -164
q-76 -59 -167 -91q-90 -32 -212 -32zM514 901q-34 0 -60 -12q-24 -11 -43 -43q-16 -27 -29 -85q-11 -52 -13 -138h274q0 82 -6 136q-6 55 -21 86q-16 33 -39 44q-25 12 -63 12zM528 1174q-79 0 -136 28q-56 27 -98 74q-41 46 -62 99t-27 108l174 39q18 -57 52 -91t97 -34
q65 0 99 34q35 35 51 91l176 -39q-6 -53 -29 -108q-23 -56 -62 -99q-42 -47 -98 -74q-57 -28 -137 -28z" />
    <glyph glyph-name="Edotaccent" unicode="&#x116;" horiz-adv-x="1132" 
d="M584 1505q-70 0 -119 49t-49 117q0 70 49 119t117 49q67 0 116 -49q50 -50 50 -117q0 -34 -14 -65q-15 -33 -36 -54t-52 -35t-62 -14zM891 524h-148l-32 115h-197v-453h317l43 201h191v-387h-1002v150l140 28v1051l-140 33v161h979v-374h-194l-33 186h-301v-412h197
l32 111h148v-410z" />
    <glyph glyph-name="edotaccent" unicode="&#x117;" horiz-adv-x="985" 
d="M543 -27q-117 0 -212 31q-91 30 -152 97t-91 172q-31 109 -31 253q0 287 120 418t335 131q103 0 177 -26q77 -27 129 -87q53 -61 80 -158q28 -101 28 -239v-116h-559q0 -76 11 -123q12 -51 36 -84t66 -48q45 -16 106 -16q82 0 137 21q56 21 121 61l78 -164
q-76 -59 -167 -91q-90 -32 -212 -32zM514 901q-34 0 -60 -12q-24 -11 -43 -43q-16 -27 -29 -85q-11 -52 -13 -138h274q0 82 -6 136q-6 55 -21 86q-16 33 -39 44q-25 12 -63 12zM524 1159q-69 0 -118 49q-50 50 -50 117q0 71 50 121q49 49 116 49q72 0 120 -49
q48 -50 48 -119t-48 -119q-48 -49 -118 -49z" />
    <glyph glyph-name="Eogonek" unicode="&#x118;" horiz-adv-x="1132" 
d="M891 524h-148l-32 115h-197v-453h317l43 201h191v-387h-143q-70 -76 -95 -113q-30 -43 -30 -92q0 -34 18 -52q17 -17 49 -17q52 0 105 24l49 -131q-27 -24 -80 -50q-50 -24 -123 -24q-110 0 -169 53q-58 52 -58 142q0 83 47 145t115 115h-687v150l140 28v1051l-140 33
v161h979v-374h-194l-33 186h-301v-412h197l32 111h148v-410z" />
    <glyph glyph-name="eogonek" unicode="&#x119;" horiz-adv-x="985" 
d="M647 -455q-110 0 -169 53q-58 52 -58 142q0 73 37 129q39 59 94 104h-29q-111 1 -201 34q-87 32 -146 98q-58 65 -88 171q-30 105 -30 250q0 287 120 418t335 131q103 0 177 -26q77 -27 129 -87q53 -61 80 -158q28 -101 28 -239v-116h-559q0 -76 11 -123q12 -51 36 -84
t66 -48q45 -16 106 -16q82 0 137 21q56 21 121 61l78 -164q-47 -31 -104 -63q-45 -26 -94 -66q-41 -33 -69 -76q-26 -39 -26 -96q0 -34 18 -52q17 -17 49 -17q52 0 105 24l49 -131q-27 -24 -80 -50q-50 -24 -123 -24zM514 901q-34 0 -60 -12q-24 -11 -43 -43
q-16 -27 -29 -85q-11 -52 -13 -138h274q0 82 -6 136q-6 55 -21 86q-16 33 -39 44q-25 12 -63 12z" />
    <glyph glyph-name="Ecaron" unicode="&#x11a;" horiz-adv-x="1132" 
d="M250 1790l84 100l246 -147l254 147l84 -100l-250 -289h-166zM891 524h-148l-32 115h-197v-453h317l43 201h191v-387h-1002v150l140 28v1051l-140 33v161h979v-374h-194l-33 186h-301v-412h197l32 111h148v-410z" />
    <glyph glyph-name="ecaron" unicode="&#x11b;" horiz-adv-x="985" 
d="M279 1554l245 -147l254 147l84 -102l-250 -287h-166l-251 287zM543 -27q-117 0 -212 31q-91 30 -152 97t-91 172q-31 109 -31 253q0 287 120 418t335 131q103 0 177 -26q77 -27 129 -87q53 -61 80 -158q28 -101 28 -239v-116h-559q0 -76 11 -123q12 -51 36 -84t66 -48
q45 -16 106 -16q82 0 137 21q56 21 121 61l78 -164q-76 -59 -167 -91q-90 -32 -212 -32zM514 901q-34 0 -60 -12q-24 -11 -43 -43q-16 -27 -29 -85q-11 -52 -13 -138h274q0 82 -6 136q-6 55 -21 86q-16 33 -39 44q-25 12 -63 12z" />
    <glyph glyph-name="Gcircumflex" unicode="&#x11c;" horiz-adv-x="1216" 
d="M322 1589l251 287h166l250 -287l-84 -102l-254 149l-245 -149zM688 571v164h420v-735h-180l-31 96q-61 -58 -127 -90q-68 -33 -182 -33q-264 0 -389 188t-125 548q0 358 142 549q142 192 456 192q113 0 215 -26q101 -26 170 -72v-297h-207l-43 178q-52 29 -121 29
q-151 0 -214 -129q-62 -127 -62 -416q0 -154 11 -249q12 -105 37 -168q25 -64 70 -94t113 -30q48 0 96 17q47 17 86 51v307z" />
    <glyph glyph-name="gcircumflex" unicode="&#x11d;" horiz-adv-x="1030" 
d="M201 1253l252 287h165l250 -287l-84 -102l-254 147l-245 -147zM492 -416q-114 0 -203 19q-83 18 -138 53t-79 84q-25 52 -25 108q0 84 46 129q47 46 116 74q-53 23 -85 67t-32 115q0 77 35 129t86 91q-57 39 -91 109q-34 69 -34 165q0 165 107 257q106 91 303 91
q51 0 97 -7q52 -8 87 -19h305v-170l-123 -21q20 -28 31 -68q10 -36 10 -75q0 -158 -97 -242q-98 -84 -319 -84q-84 0 -135 17q-37 -40 -37 -89q0 -59 76 -59h232q78 0 142 -16q67 -17 115 -54q49 -38 75 -95q28 -61 28 -140q0 -185 -125 -277t-368 -92zM332 10
q-15 -20 -28 -50q-11 -25 -11 -62q0 -31 10 -55q11 -26 34 -45q21 -17 61 -30q38 -12 96 -12q129 0 182 41t53 105q0 63 -32 86q-31 22 -113 22h-252zM496 551q72 0 102 44q31 45 31 136q0 93 -32 134q-31 40 -101 40q-64 0 -97 -41q-32 -39 -32 -137q0 -176 129 -176z" />
    <glyph glyph-name="Gbreve" unicode="&#x11e;" horiz-adv-x="1216" 
d="M653 1509q-76 0 -136 29q-56 27 -98 74q-42 46 -62 100q-21 55 -27 109l174 37q18 -58 52 -92q33 -33 97 -33q66 0 99 33q34 34 51 92l176 -37q-6 -52 -29 -109t-62 -100q-42 -47 -98 -74q-60 -29 -137 -29zM688 571v164h420v-735h-180l-31 96q-61 -58 -127 -90
q-68 -33 -182 -33q-264 0 -389 188t-125 548q0 358 142 549q142 192 456 192q113 0 215 -26q101 -26 170 -72v-297h-207l-43 178q-52 29 -121 29q-151 0 -214 -129q-62 -127 -62 -416q0 -154 11 -249q12 -105 37 -168q25 -64 70 -94t113 -30q48 0 96 17q47 17 86 51v307z
" />
    <glyph glyph-name="gbreve" unicode="&#x11f;" horiz-adv-x="1030" 
d="M492 -416q-114 0 -203 19q-83 18 -138 53t-79 84q-25 52 -25 108q0 84 46 129q47 46 116 74q-53 23 -85 67t-32 115q0 77 35 129t86 91q-57 39 -91 109q-34 69 -34 165q0 165 107 257q106 91 303 91q51 0 97 -7q52 -8 87 -19h305v-170l-123 -21q20 -28 31 -68
q10 -36 10 -75q0 -158 -97 -242q-98 -84 -319 -84q-84 0 -135 17q-37 -40 -37 -89q0 -59 76 -59h232q78 0 142 -16q67 -17 115 -54q49 -38 75 -95q28 -61 28 -140q0 -185 -125 -277t-368 -92zM332 10q-15 -20 -28 -50q-11 -25 -11 -62q0 -31 10 -55q11 -26 34 -45
q21 -17 61 -30q38 -12 96 -12q129 0 182 41t53 105q0 63 -32 86q-31 22 -113 22h-252zM496 551q72 0 102 44q31 45 31 136q0 93 -32 134q-31 40 -101 40q-64 0 -97 -41q-32 -39 -32 -137q0 -176 129 -176zM535 1173q-77 0 -137 29q-56 27 -98 74q-40 44 -61 99
q-22 57 -28 108l174 39q18 -57 52 -91t98 -34t98 34q35 35 51 91l176 -39q-6 -53 -29 -108q-23 -56 -62 -99q-42 -47 -98 -74q-60 -29 -136 -29z" />
    <glyph glyph-name="Gdotaccent" unicode="&#x120;" horiz-adv-x="1216" 
d="M655 1505q-69 0 -118 49q-50 50 -50 117q0 69 50 119q49 49 116 49q68 0 117 -49t49 -117q0 -36 -13 -65q-15 -33 -36 -54t-52 -35t-63 -14zM688 571v164h420v-735h-180l-31 96q-61 -58 -127 -90q-68 -33 -182 -33q-264 0 -389 188t-125 548q0 358 142 549
q142 192 456 192q113 0 215 -26q101 -26 170 -72v-297h-207l-43 178q-52 29 -121 29q-151 0 -214 -129q-62 -127 -62 -416q0 -154 11 -249q12 -105 37 -168q25 -64 70 -94t113 -30q48 0 96 17q47 17 86 51v307z" />
    <glyph glyph-name="gdotaccent" unicode="&#x121;" horiz-adv-x="1030" 
d="M492 -416q-114 0 -203 19q-83 18 -138 53t-79 84q-25 52 -25 108q0 84 46 129q47 46 116 74q-53 23 -85 67t-32 115q0 77 35 129t86 91q-57 39 -91 109q-34 69 -34 165q0 165 107 257q106 91 303 91q51 0 97 -7q52 -8 87 -19h305v-170l-123 -21q20 -28 31 -68
q10 -36 10 -75q0 -158 -97 -242q-98 -84 -319 -84q-84 0 -135 17q-37 -40 -37 -89q0 -59 76 -59h232q78 0 142 -16q67 -17 115 -54q49 -38 75 -95q28 -61 28 -140q0 -185 -125 -277t-368 -92zM332 10q-15 -20 -28 -50q-11 -25 -11 -62q0 -31 10 -55q11 -26 34 -45
q21 -17 61 -30q38 -12 96 -12q129 0 182 41t53 105q0 63 -32 86q-31 22 -113 22h-252zM496 551q72 0 102 44q31 45 31 136q0 93 -32 134q-31 40 -101 40q-64 0 -97 -41q-32 -39 -32 -137q0 -176 129 -176zM537 1159q-70 0 -119 49t-49 117q0 72 49 121t117 49q71 0 119 -49
q48 -50 48 -119t-48 -119q-48 -49 -117 -49z" />
    <glyph glyph-name="Gcommaaccent" unicode="&#x122;" horiz-adv-x="1216" 
d="M510 -471q58 23 91 43q39 23 40 61q-49 6 -86 40t-37 100q0 61 42 102q43 41 108 41q72 0 122 -50t50 -136q0 -131 -80 -196q-79 -64 -215 -93zM688 571v164h420v-735h-180l-31 96q-61 -58 -127 -90q-68 -33 -182 -33q-264 0 -389 188t-125 548q0 358 142 549
q142 192 456 192q113 0 215 -26q101 -26 170 -72v-297h-207l-43 178q-52 29 -121 29q-151 0 -214 -129q-62 -127 -62 -416q0 -154 11 -249q12 -105 37 -168q25 -64 70 -94t113 -30q48 0 96 17q47 17 86 51v307z" />
    <glyph glyph-name="gcommaaccent" unicode="&#x123;" horiz-adv-x="1030" 
d="M698 1528q-57 -23 -92 -43q-39 -23 -39 -62q48 -4 86 -39q37 -34 37 -100q0 -60 -42 -101q-41 -40 -109 -40q-72 0 -121 49t-49 137q0 129 80 195q79 65 215 94zM492 -416q-114 0 -203 19q-83 18 -138 53t-79 84q-25 52 -25 108q0 84 46 129q47 46 116 74q-53 23 -85 67
t-32 115q0 77 35 129t86 91q-57 39 -91 109q-34 69 -34 165q0 165 107 257q106 91 303 91q51 0 97 -7q52 -8 87 -19h305v-170l-123 -21q19 -28 31 -69q10 -36 10 -74q0 -158 -97 -242q-98 -84 -319 -84q-84 0 -135 17q-37 -40 -37 -89q0 -59 76 -59h232q78 0 142 -16
q67 -17 115 -54q49 -38 75 -95q28 -61 28 -140q0 -185 -125 -277t-368 -92zM332 10q-15 -20 -28 -50q-11 -25 -11 -62q0 -31 10 -55q11 -26 34 -45q21 -17 61 -30q38 -12 96 -12q129 0 182 41t53 105q0 63 -32 86q-31 22 -113 22h-252zM496 551q72 0 102 44q31 45 31 136
q0 93 -32 134q-31 40 -101 40q-64 0 -97 -41q-32 -39 -32 -137q0 -176 129 -176z" />
    <glyph glyph-name="Hcircumflex" unicode="&#x124;" horiz-adv-x="1425" 
d="M784 150l127 28v453h-397v-453l127 -28v-150h-578v150l140 28v1053l-140 29v163h578v-163l-127 -29v-408h397v408l-127 29v163h578v-163l-139 -29v-1053l139 -28v-150h-578v150zM379 1589l252 287h166l250 -287l-84 -102l-254 149l-246 -149z" />
    <glyph glyph-name="hcircumflex" unicode="&#x125;" horiz-adv-x="1181" 
d="M469 940q71 65 141 100t164 35q120 0 182 -73t62 -211v-623l112 -21v-147h-403v694q0 78 -21 112t-77 34q-43 0 -85 -17t-75 -43v-612l109 -21v-147h-512v147l114 21v1139l-114 28v164h403v-559zM-10 1647l252 286h166l249 -286l-84 -103l-254 150l-245 -150z" />
    <glyph glyph-name="Hbar" unicode="&#x126;" horiz-adv-x="1425" 
d="M63 1106h140v125l-140 29v163h578v-163l-127 -29v-125h397v125l-127 29v163h578v-163l-139 -29v-125h139v-150h-139v-778l139 -28v-150h-578v150l127 28v422h-397v-422l127 -28v-150h-578v150l140 28v778h-140v150zM911 795v161h-397v-161h397z" />
    <glyph glyph-name="hbar" unicode="&#x127;" horiz-adv-x="1181" 
d="M66 1274h114v63l-114 29v133h403v-225h256v-133h-256v-209q71 65 141 100t164 35q121 0 182 -72q62 -73 62 -211v-616l112 -21v-147h-403v686q0 78 -21 112q-20 33 -77 33q-46 0 -85 -16q-42 -17 -75 -43v-604l109 -21v-147h-512v147l114 21v973h-114v133z" />
    <glyph glyph-name="Itilde" unicode="&#x128;" horiz-adv-x="716" 
d="M63 150l140 28v1053l-140 29v163h590v-163l-139 -29v-1053l139 -28v-150h-590v150zM719 1747q-45 -110 -99 -164q-57 -57 -135 -57q-43 0 -73 11q-41 15 -61 26q-9 5 -54 25q-25 11 -53 11q-40 0 -65 -19q-27 -21 -56 -54l-123 92q46 109 101 164q57 57 135 57
q43 0 72 -11q42 -16 61 -26q11 -6 31 -15t23 -10q25 -12 54 -12q37 0 63 20q29 22 56 56z" />
    <glyph glyph-name="itilde" unicode="&#x129;" horiz-adv-x="632" 
d="M584 147v-147h-518v147l114 21v678l-114 28v175h403v-881zM686 1393q-45 -110 -99 -164q-58 -58 -134 -58q-41 0 -74 12q-46 17 -61 25q-18 10 -54 26q-25 11 -53 11q-40 0 -65 -19q-24 -19 -56 -55l-123 93q45 106 102 163q58 58 134 58q43 0 72 -11q42 -16 61 -26
q11 -6 54 -26q23 -11 54 -11q37 0 63 20q29 22 56 56z" />
    <glyph glyph-name="Imacron" unicode="&#x12a;" horiz-adv-x="716" 
d="M63 150l140 28v1053l-140 29v163h590v-163l-139 -29v-1053l139 -28v-150h-590v150zM78 1751h565v-209h-565v209z" />
    <glyph glyph-name="imacron" unicode="&#x12b;" horiz-adv-x="632" 
d="M35 1454h520v-209h-520v209zM584 147v-147h-518v147l114 21v678l-114 28v175h403v-881z" />
    <glyph glyph-name="Ibreve" unicode="&#x12c;" horiz-adv-x="716" 
d="M63 150l140 28v1053l-140 29v163h590v-163l-139 -29v-1053l139 -28v-150h-590v150zM360 1509q-76 0 -136 29q-56 27 -98 74q-40 44 -61 100q-22 59 -28 109l174 37q18 -58 52 -92q33 -33 97 -33q66 0 99 33q34 34 51 92l176 -37q-6 -52 -29 -109t-62 -100
q-42 -47 -98 -74q-60 -29 -137 -29z" />
    <glyph glyph-name="ibreve" unicode="&#x12d;" horiz-adv-x="632" 
d="M584 147v-147h-518v147l114 21v678l-114 28v175h403v-881zM326 1174q-80 0 -137 28q-56 27 -98 74q-40 44 -61 99q-22 57 -28 108l174 39q18 -57 52 -91t98 -34t98 34q35 35 51 91l176 -39q-6 -56 -28 -108q-23 -54 -63 -99q-42 -47 -98 -74q-57 -28 -136 -28z" />
    <glyph glyph-name="Iogonek" unicode="&#x12e;" horiz-adv-x="716" 
d="M63 150l140 28v1053l-140 29v163h590v-163l-139 -29v-1053l139 -28v-150h-176q-66 -72 -94 -113q-31 -45 -31 -92q0 -33 19 -52q17 -17 49 -17q52 0 104 24l49 -131q-28 -25 -79 -50q-50 -24 -123 -24q-110 0 -169 53t-59 142q0 83 47 145t115 115h-242v150z" />
    <glyph glyph-name="iogonek" unicode="&#x12f;" horiz-adv-x="632" 
d="M358 -455q-110 0 -169 53q-58 52 -58 142q0 83 47 145t115 115h-227v147l114 21v678l-114 28v175h403v-881l115 -21v-147h-119q-66 -72 -94 -113q-31 -45 -31 -92q0 -34 18 -52q17 -17 50 -17q52 0 104 24l49 -131q-27 -24 -80 -50q-49 -24 -123 -24zM315 1159
q-69 0 -118 49q-50 50 -50 117q0 71 50 121q49 49 116 49q72 0 120 -49q48 -50 48 -119t-48 -119q-48 -49 -118 -49z" />
    <glyph glyph-name="Idotaccent" unicode="&#x130;" horiz-adv-x="716" 
d="M63 150l140 28v1053l-140 29v163h590v-163l-139 -29v-1053l139 -28v-150h-590v150zM362 1505q-69 0 -118 49t-49 117q0 70 49 119t116 49q68 0 117 -49t49 -117q0 -36 -13 -65q-15 -33 -36 -54t-52 -35t-63 -14z" />
    <glyph glyph-name="dotlessi" unicode="&#x131;" horiz-adv-x="632" 
d="M584 147v-147h-518v147l114 21v678l-114 28v175h403v-881z" />
    <glyph glyph-name="IJ" unicode="&#x132;" horiz-adv-x="1437" 
d="M63 150l140 28v1053l-140 29v163h590v-163l-139 -29v-1053l139 -28v-150h-590v150zM1235 166q0 -113 -35 -200q-34 -84 -96 -149t-146 -110t-180 -78l-78 156q62 41 96 65q39 28 70 70q28 38 43 91q15 52 15 128v1092l-144 29v163h594v-163l-139 -29v-1065z" />
    <glyph glyph-name="ij" unicode="&#x133;" horiz-adv-x="1234" 
d="M584 147v-147h-518v147l114 21v678l-114 28v175h403v-881zM315 1159q-69 0 -118 49q-50 50 -50 117q0 71 50 121q49 49 116 49q72 0 120 -49q48 -50 48 -119t-48 -119q-48 -49 -118 -49zM635 -242q38 23 82 59q32 26 52 62t29 81q9 46 9 112v774l-115 28v175h404v-906
q0 -126 -19 -218q-18 -85 -62 -148q-43 -61 -118 -104q-73 -42 -182 -81zM942 1159q-70 0 -118 49q-48 50 -48 117q0 71 48 121q48 49 118 49t119 -49t49 -119t-49 -119t-119 -49z" />
    <glyph glyph-name="Jcircumflex" unicode="&#x134;" horiz-adv-x="720" 
d="M27 1589l252 287h165l250 -287l-84 -102l-254 149l-245 -149zM518 166q0 -113 -35 -200q-34 -84 -96 -149q-63 -66 -145 -110t-181 -78l-77 156q50 33 95 65q42 30 71 70q28 38 43 91q14 49 14 128v1092l-144 29v163h594v-163l-139 -29v-1065z" />
    <glyph glyph-name="jcircumflex" unicode="&#x135;" horiz-adv-x="602" 
d="M2 -242q38 23 82 59q32 26 52 62t29 81q9 46 9 112v774l-115 28v175h404v-906q0 -126 -19 -218q-18 -85 -62 -148q-43 -61 -118 -104q-73 -42 -182 -81zM-16 1253l252 287h165l250 -287l-84 -102l-254 147l-245 -147z" />
    <glyph glyph-name="Kcommaaccent" unicode="&#x136;" horiz-adv-x="1318" 
d="M518 -471q58 23 91 43q39 23 40 61q-49 6 -86 40t-37 100q0 61 42 102q43 41 108 41q72 0 122 -50t50 -136q0 -131 -80 -196q-79 -64 -215 -93zM63 150l140 28v1053l-140 29v163h590v-163l-139 -29v-1053l139 -28v-150h-590v150zM1296 150v-150h-360l-401 717l385 522
l-125 21v163h471v-163l-131 -29l-316 -426l367 -637z" />
    <glyph glyph-name="kcommaaccent" unicode="&#x137;" horiz-adv-x="1130" 
d="M449 -471q58 23 91 43q39 23 40 61q-49 6 -86 40t-37 100q0 61 42 102q43 41 107 41q72 0 122 -50t50 -136q0 -131 -80 -196q-79 -64 -215 -93zM731 864l-94 15v170h424v-175l-117 -16l-209 -252l264 -438l99 -18v-150h-318l-309 537zM469 168l96 -21v-147h-499v147
l114 21v1139l-114 28v164h403v-1331z" />
    <glyph glyph-name="kgreenlandic" unicode="&#x138;" horiz-adv-x="1130" 
d="M731 864l-94 15v170h424v-175l-117 -16l-207 -252l264 -438l97 -18v-150h-318l-309 537zM565 147v-147h-499v147l114 21v678l-114 28v175h403v-881z" />
    <glyph glyph-name="Lacute" unicode="&#x139;" horiz-adv-x="1085" 
d="M135 1628l391 309l138 -237l-447 -209zM514 186h293l45 230h195v-416h-984v150l140 30v1049l-140 31v163h590v-163l-139 -31v-1043z" />
    <glyph glyph-name="lacute" unicode="&#x13a;" horiz-adv-x="647" 
d="M39 1692l391 309l137 -238l-446 -209zM186 1307l-120 28v164h409v-1331l119 -21v-147h-528v147l120 21v1139z" />
    <glyph glyph-name="Lcommaaccent" unicode="&#x13b;" horiz-adv-x="1085" 
d="M395 -471q58 23 91 43q39 23 40 61q-49 6 -86 40t-37 100q0 61 42 102q43 41 108 41q72 0 122 -50t50 -136q0 -131 -80 -196q-79 -64 -215 -93zM514 186h293l45 230h195v-416h-984v150l140 30v1049l-140 31v163h590v-163l-139 -31v-1043z" />
    <glyph glyph-name="lcommaaccent" unicode="&#x13c;" horiz-adv-x="647" 
d="M170 -471q58 23 91 43q39 23 40 61q-49 6 -86 40t-37 100q0 61 42 102q43 41 108 41q72 0 122 -50t50 -136q0 -131 -80 -196q-79 -64 -215 -93zM186 1307l-120 28v164h409v-1331l119 -21v-147h-528v147l120 21v1139z" />
    <glyph glyph-name="Lcaron" unicode="&#x13d;" horiz-adv-x="1085" 
d="M514 186h293l45 230h195v-416h-984v150l140 30v1049l-140 31v163h590v-163l-139 -31v-1043zM739 1049v376h273l-88 -376h-185z" />
    <glyph glyph-name="lcaron" unicode="&#x13e;" horiz-adv-x="647" 
d="M186 1307l-120 28v164h409v-1331l119 -21v-147h-528v147l120 21v1139zM567 1122v377h273l-88 -377h-185z" />
    <glyph glyph-name="Ldot" unicode="&#x13f;" horiz-adv-x="1085" 
d="M897 645q-70 0 -119 49t-49 117q0 70 49 119t117 49t117 -49t49 -117q0 -36 -13 -65q-15 -33 -36 -54q-22 -22 -53 -36q-29 -13 -62 -13zM514 186h293l45 230h195v-416h-984v150l140 30v1049l-140 31v163h590v-163l-139 -31v-1043z" />
    <glyph glyph-name="ldot" unicode="&#x140;" horiz-adv-x="813" 
d="M186 1307l-120 28v164h409v-1331l119 -21v-147h-528v147l120 21v1139zM733 602q-70 0 -119 49t-49 117q0 72 49 121t117 49q72 0 120 -49q48 -50 48 -119q0 -70 -48 -119t-118 -49z" />
    <glyph glyph-name="Lslash" unicode="&#x141;" horiz-adv-x="1085" 
d="M63 659l140 56v514l-140 31v163h590v-163l-139 -31v-398l268 107v-184l-268 -107v-461h293l45 230h195v-416h-984v150l140 30v350l-140 -53v182z" />
    <glyph glyph-name="lslash" unicode="&#x142;" horiz-adv-x="653" 
d="M55 752l133 59v496l-118 28v164h407v-571l135 61v-203l-135 -61v-557l121 -21v-147h-528v147l118 21v440l-133 -59v203z" />
    <glyph glyph-name="Nacute" unicode="&#x143;" horiz-adv-x="1378" 
d="M430 1628l391 309l137 -237l-446 -209zM836 1260v163h489v-163l-131 -29v-1231h-250l-377 692q-52 96 -94 194q-40 93 -63 163h-4q8 -83 11 -195q3 -118 3 -242v-434l139 -28v-150h-496v150l138 28v1053l-138 29v163h441l330 -630q54 -109 92 -197q37 -86 61 -164h4
q-8 72 -12 184q-4 100 -4 228v387z" />
    <glyph glyph-name="nacute" unicode="&#x144;" horiz-adv-x="1181" 
d="M336 1286l391 309l137 -239l-446 -209zM727 694q0 78 -21 112t-77 34q-43 0 -84 -18q-43 -19 -76 -42v-612l109 -21v-147h-512v147l114 21v678l-114 28v175h364l27 -117q77 70 147 106q71 37 170 37q120 0 182 -73t62 -211v-623l112 -21v-147h-403v694z" />
    <glyph glyph-name="Ncommaaccent" unicode="&#x145;" horiz-adv-x="1378" 
d="M532 -471q61 24 92 43q39 23 40 61q-49 6 -86 40t-37 100q0 61 42 102q43 41 107 41q72 0 122 -50t50 -136q0 -131 -80 -196q-79 -64 -215 -93zM836 1260v163h489v-163l-131 -29v-1231h-250l-377 692q-52 96 -94 194q-40 93 -63 163h-4q8 -83 11 -195q3 -118 3 -242v-434
l139 -28v-150h-496v150l138 28v1053l-138 29v163h441l330 -630q54 -109 92 -197q37 -86 61 -164h4q-8 72 -12 184q-4 100 -4 228v387z" />
    <glyph glyph-name="ncommaaccent" unicode="&#x146;" horiz-adv-x="1181" 
d="M436 -471q58 23 91 43q39 23 40 61q-49 6 -86 40t-37 100q0 61 42 102q43 41 108 41q72 0 122 -50t50 -136q0 -131 -80 -196q-79 -64 -215 -93zM727 694q0 78 -21 112t-77 34q-43 0 -84 -18q-43 -19 -76 -42v-612l109 -21v-147h-512v147l114 21v678l-114 28v175h364
l27 -117q77 70 147 106q71 37 170 37q120 0 182 -73t62 -211v-623l112 -21v-147h-403v694z" />
    <glyph glyph-name="Ncaron" unicode="&#x147;" horiz-adv-x="1378" 
d="M360 1790l84 100l246 -147l254 147l84 -100l-250 -289h-166zM836 1260v163h489v-163l-131 -29v-1231h-250l-377 692q-52 96 -94 194q-40 93 -63 163h-4q8 -83 11 -195q3 -118 3 -242v-434l139 -28v-150h-496v150l138 28v1053l-138 29v163h441l330 -630q54 -109 92 -197
q37 -86 61 -164h4q-8 72 -12 184q-4 100 -4 228v387z" />
    <glyph glyph-name="ncaron" unicode="&#x148;" horiz-adv-x="1181" 
d="M348 1554l246 -147l254 147l84 -102l-250 -287h-166l-252 287zM727 694q0 78 -21 112t-77 34q-43 0 -84 -18q-43 -19 -76 -42v-612l109 -21v-147h-512v147l114 21v678l-114 28v175h364l27 -117q77 70 147 106q71 37 170 37q120 0 182 -73t62 -211v-623l112 -21v-147h-403
v694z" />
    <glyph glyph-name="napostrophe" unicode="&#x149;" horiz-adv-x="1263" 
d="M-94 1130q53 21 91 44q39 23 40 61q-49 6 -86 40t-37 99q0 62 42 103q43 41 107 41q71 0 122 -51t51 -136q0 -130 -80 -195q-81 -66 -215 -94zM809 694q0 76 -22 112q-21 34 -76 34q-43 0 -84 -18q-43 -19 -76 -42v-612l108 -21v-147h-512v147l115 21v678l-115 28v175
h365l27 -117q77 70 147 106q71 37 170 37q120 0 182 -73t62 -211v-623l112 -21v-147h-403v694z" />
    <glyph glyph-name="Eng" unicode="&#x14a;" horiz-adv-x="1378" 
d="M567 692q-52 96 -94 194q-40 93 -63 163h-4q8 -83 11 -195q3 -118 3 -242v-434l139 -29v-149h-496v149l138 29v1053l-138 29v163h441l330 -630q54 -109 92 -197q37 -86 61 -164h4q-8 72 -12 184q-4 100 -4 228v387l-139 29v163h489v-163l-131 -29v-1065q0 -115 -30 -202
q-29 -85 -87 -152q-58 -68 -142 -116q-90 -52 -198 -91l-78 151q53 29 106 65q46 31 79 67q32 35 49 81q16 45 18 107z" />
    <glyph glyph-name="eng" unicode="&#x14b;" horiz-adv-x="1148" 
d="M557 -242q42 25 81 59q30 26 52 62t29 81q8 50 8 112v622q0 78 -21 112t-77 34q-43 0 -84 -18q-43 -19 -76 -42v-612l109 -21v-147h-512v147l114 21v678l-114 28v175h364l27 -117q77 70 147 106q71 37 170 37q120 0 182 -73t62 -211v-648q0 -129 -20 -218
q-19 -86 -63 -148q-43 -61 -118 -104q-73 -42 -182 -81z" />
    <glyph glyph-name="Omacron" unicode="&#x14c;" horiz-adv-x="1269" 
d="M352 1751h566v-209h-566v209zM637 -27q-140 0 -245 42t-176 131q-69 87 -106 229q-36 139 -36 334q0 389 144 565t419 176q277 0 418 -175t141 -562q0 -393 -140 -566q-141 -174 -419 -174zM639 162q65 0 107 26q44 27 71 90t39 167q12 105 12 266q0 158 -12 263
q-12 106 -39 169t-71 90t-107 27q-65 0 -108 -27t-70 -90t-39 -169q-12 -105 -12 -261q0 -161 12 -267q12 -107 39 -170q27 -64 70 -89t108 -25z" />
    <glyph glyph-name="omacron" unicode="&#x14d;" horiz-adv-x="1042" 
d="M240 1454h565v-209h-565v209zM520 -27q-107 0 -194 32q-86 32 -146 98q-59 65 -91 172t-32 253t32 251t91 170q61 67 146 97q83 29 194 29q107 0 195 -31q84 -30 145 -98q59 -67 91 -172q32 -107 32 -252t-32 -252q-32 -106 -91 -171q-60 -66 -145 -96t-195 -30zM522 150
q46 0 75 20q29 21 46 66t24 117q7 67 7 179q0 197 -32 281q-31 82 -122 82q-46 0 -75 -19t-46 -63q-15 -40 -23 -114q-7 -66 -7 -173q0 -109 7 -176q8 -77 24 -117q18 -45 47 -64t75 -19z" />
    <glyph glyph-name="Obreve" unicode="&#x14e;" horiz-adv-x="1269" 
d="M635 1509q-76 0 -136 29q-58 28 -99 74q-40 44 -61 100q-22 59 -28 109l174 37q18 -57 53 -92q33 -33 97 -33q65 0 98 33q34 34 51 92l177 -37q-6 -52 -29 -109q-22 -55 -63 -100q-42 -47 -98 -74q-60 -29 -136 -29zM637 -27q-140 0 -245 42t-176 131q-69 87 -106 229
q-36 139 -36 334q0 389 144 565t419 176q277 0 418 -175t141 -562q0 -393 -140 -566q-141 -174 -419 -174zM639 162q65 0 107 26q44 27 71 90t39 167q12 105 12 266q0 158 -12 263q-12 106 -39 169t-71 90t-107 27q-65 0 -108 -27t-70 -90t-39 -169q-12 -105 -12 -261
q0 -161 12 -267q12 -107 39 -170q27 -64 70 -89t108 -25z" />
    <glyph glyph-name="obreve" unicode="&#x14f;" horiz-adv-x="1042" 
d="M520 -27q-107 0 -194 32q-86 32 -146 98q-59 65 -91 172t-32 253t32 251t91 170q61 67 146 97q83 29 194 29q107 0 195 -31q84 -30 145 -98q59 -67 91 -172q32 -107 32 -252t-32 -252q-32 -106 -91 -171q-60 -66 -145 -96t-195 -30zM522 150q46 0 75 20q29 21 46 66
t24 117q7 67 7 179q0 197 -32 281q-31 82 -122 82q-46 0 -75 -19t-46 -63q-15 -40 -23 -114q-7 -66 -7 -173q0 -109 7 -176q8 -77 24 -117q18 -45 47 -64t75 -19zM522 1173q-76 0 -136 29q-56 27 -98 74q-41 46 -62 99t-27 108l174 39q18 -57 52 -91t97 -34q65 0 99 34
q35 35 51 91l176 -39q-6 -53 -29 -108q-23 -56 -62 -99q-41 -46 -99 -74q-60 -29 -136 -29z" />
    <glyph glyph-name="Ohungarumlaut" unicode="&#x150;" horiz-adv-x="1269" 
d="M723 1575l180 450l240 -137l-271 -401zM313 1575l181 450l239 -137l-270 -401zM637 -27q-140 0 -245 42t-176 131q-69 87 -106 229q-36 139 -36 334q0 389 144 565t419 176q277 0 418 -175t141 -562q0 -393 -140 -566q-141 -174 -419 -174zM639 162q65 0 107 26
q44 27 71 90t39 167q12 105 12 266q0 158 -12 263q-12 106 -39 169t-71 90t-107 27q-65 0 -108 -27t-70 -90t-39 -169q-12 -105 -12 -261q0 -161 12 -267q12 -107 39 -170q27 -64 70 -89t108 -25z" />
    <glyph glyph-name="ohungarumlaut" unicode="&#x151;" horiz-adv-x="1042" 
d="M633 1221l180 450l240 -137l-271 -401zM223 1221l180 450l240 -137l-270 -401zM520 -27q-107 0 -194 32q-86 32 -146 98q-59 65 -91 172t-32 253t32 251t91 170q61 67 146 97q83 29 194 29q107 0 195 -31q84 -30 145 -98q59 -67 91 -172q32 -107 32 -252t-32 -252
q-32 -106 -91 -171q-60 -66 -145 -96t-195 -30zM522 150q46 0 75 20q29 21 46 66t24 117q7 67 7 179q0 197 -32 281q-31 82 -122 82q-46 0 -75 -19t-46 -63q-15 -40 -23 -114q-7 -66 -7 -173q0 -109 7 -176q8 -77 24 -117q18 -45 47 -64t75 -19z" />
    <glyph glyph-name="OE" unicode="&#x152;" horiz-adv-x="1720" 
d="M684 0q-147 0 -261 33q-116 34 -192 114q-75 80 -117 220q-40 135 -40 344q0 195 36 332t108 222q70 83 180 121q107 37 251 37h981v-374h-194l-33 186h-301v-412h196l33 111h146v-410h-146l-33 115h-196v-453h317l43 201h191v-387h-969zM791 1235h-129q-78 0 -128 -26
t-80 -86q-29 -58 -41 -161q-12 -102 -12 -255q0 -145 13 -254q12 -100 42 -160t81 -84q53 -25 129 -25h125v1051z" />
    <glyph glyph-name="oe" unicode="&#x153;" horiz-adv-x="1607" 
d="M1165 -27q-216 0 -331 115q-59 -55 -138 -85q-78 -30 -176 -30q-107 0 -194 32q-86 32 -146 98q-59 65 -91 172t-32 253t32 251t91 170q61 67 146 97q83 29 194 29q101 0 175 -29q77 -30 136 -85q56 54 134 85q74 29 172 29q103 0 177 -26q76 -27 129 -87q53 -61 80 -158
q27 -98 27 -239v-116h-559q0 -76 11 -123q12 -51 36 -84t67 -48q45 -16 105 -16q82 0 138 21q54 20 120 61l76 -164q-75 -59 -165 -91t-214 -32zM522 150q46 0 75 20q29 21 46 66t24 117q7 67 7 179q0 197 -32 281q-31 82 -122 82q-46 0 -75 -19t-46 -63q-15 -40 -23 -114
q-7 -66 -7 -173q0 -109 7 -176q8 -77 24 -117q18 -45 47 -64t75 -19zM1137 901q-36 0 -60 -12q-25 -12 -43 -43q-17 -28 -28 -85q-10 -54 -15 -138h277q0 82 -6 136q-6 52 -22 86q-15 32 -41 44q-25 12 -62 12z" />
    <glyph glyph-name="Racute" unicode="&#x154;" horiz-adv-x="1310" 
d="M399 1628l392 309l137 -237l-447 -209zM629 770q129 0 173 57q44 58 44 187q0 120 -47 173q-46 52 -170 52h-115v-469h115zM1290 150v-150h-379l-170 434q-20 55 -35 80q-19 31 -37 48t-41 25q-20 7 -50 7h-64v-416l133 -28v-150h-584v150l140 28v1053l-140 29v163h656
q100 0 182 -24q79 -23 139 -75q58 -50 89 -126q32 -78 32 -178q0 -163 -85 -252q-85 -90 -220 -106v-5q67 -15 115 -63q50 -50 90 -145l123 -283z" />
    <glyph glyph-name="racute" unicode="&#x155;" horiz-adv-x="813" 
d="M190 1286l392 309l137 -239l-447 -209zM618 147v-147h-552v147l114 21v678l-114 28v175h352l37 -170q101 192 288 192q27 0 43 -6l-36 -299q-20 9 -45 16q-23 6 -56 6q-55 0 -96 -14q-45 -15 -84 -43v-559z" />
    <glyph glyph-name="Rcommaaccent" unicode="&#x156;" horiz-adv-x="1310" 
d="M502 -471q58 23 91 43q39 23 40 61q-49 6 -86 40t-37 100q0 61 42 102q43 41 107 41q72 0 122 -50t50 -136q0 -132 -79 -196t-215 -93zM629 770q129 0 173 57q44 58 44 187q0 120 -47 173q-46 52 -170 52h-115v-469h115zM1290 150v-150h-379l-170 434q-20 55 -35 80
q-19 31 -37 48t-41 25q-20 7 -50 7h-64v-416l133 -28v-150h-584v150l140 28v1053l-140 29v163h656q100 0 182 -24q79 -23 139 -75q58 -50 89 -126q32 -78 32 -178q0 -163 -85 -252q-85 -90 -220 -106v-5q67 -15 115 -63q50 -50 90 -145l123 -283z" />
    <glyph glyph-name="rcommaaccent" unicode="&#x157;" horiz-adv-x="813" 
d="M162 -471q58 23 91 43q39 23 40 61q-49 6 -86 40t-37 100q0 61 42 102q43 41 107 41q72 0 122 -50q51 -51 51 -136q0 -131 -80 -196q-79 -64 -215 -93zM618 147v-147h-552v147l114 21v678l-114 28v175h352l37 -170q101 192 288 192q27 0 43 -6l-36 -299q-20 9 -45 16
q-23 6 -56 6q-55 0 -96 -14q-45 -15 -84 -43v-559z" />
    <glyph glyph-name="Rcaron" unicode="&#x158;" horiz-adv-x="1310" 
d="M289 1790l84 100l245 -147l254 147l84 -100l-249 -289h-166zM629 770q129 0 173 57q44 58 44 187q0 120 -47 173q-46 52 -170 52h-115v-469h115zM1290 150v-150h-379l-170 434q-20 55 -35 80q-19 31 -37 48t-41 25q-20 7 -50 7h-64v-416l133 -28v-150h-584v150l140 28
v1053l-140 29v163h656q100 0 182 -24q79 -23 139 -75q58 -50 89 -126q32 -78 32 -178q0 -163 -85 -252q-85 -90 -220 -106v-5q67 -15 115 -63q50 -50 90 -145l123 -283z" />
    <glyph glyph-name="rcaron" unicode="&#x159;" horiz-adv-x="813" 
d="M205 1554l246 -147l254 147l83 -102l-249 -287h-166l-252 287zM618 147v-147h-552v147l114 21v678l-114 28v175h352l37 -170q101 192 288 192q27 0 43 -6l-36 -299q-20 9 -45 16q-23 6 -56 6q-55 0 -96 -14q-45 -15 -84 -43v-559z" />
    <glyph glyph-name="Sacute" unicode="&#x15a;" horiz-adv-x="1032" 
d="M473 -27q-130 0 -233 23t-164 61v332h196l52 -205q32 -13 60 -17q33 -5 75 -5q211 0 211 192q0 48 -12 82q-13 37 -35 62q-23 26 -66 48q-46 24 -100 40q-114 35 -182 76q-74 44 -117 98q-46 57 -65 124t-19 156q0 106 35 185t97 128q63 49 149 73q87 24 190 24
q99 0 193 -18q91 -17 161 -54v-315h-199l-43 176q-27 11 -60 16q-35 5 -67 5q-85 0 -135 -38q-49 -37 -49 -124q0 -47 10 -77q11 -32 37 -57q30 -28 72 -48q44 -21 113 -42q97 -29 171 -68q72 -38 120 -93q48 -56 72 -131q24 -76 24 -183q0 -87 -28 -168q-27 -78 -87 -135
t-153 -90t-224 -33zM283 1628l391 309l137 -237l-446 -209z" />
    <glyph glyph-name="sacute" unicode="&#x15b;" horiz-adv-x="890" 
d="M188 1286l392 309l137 -239l-447 -209zM422 -27q-100 0 -193 19q-84 17 -153 53v272h192l35 -153q28 -12 47 -16q25 -5 62 -5q77 0 113 30t36 89q0 66 -42 97q-44 33 -148 61q-69 17 -127 44q-56 26 -94 64q-39 39 -59 94q-19 53 -19 132q0 144 100 232q101 89 293 89
q107 0 181 -16t136 -47v-269h-186l-33 146q-38 16 -102 16q-66 0 -103 -25q-36 -24 -36 -79q0 -26 9 -47q9 -20 30 -37q19 -15 59 -31q31 -12 94 -29q79 -22 134 -47q58 -27 98 -67t60 -100q19 -57 19 -142q0 -84 -29 -143q-30 -62 -83 -103q-51 -39 -127 -61
q-74 -21 -164 -21z" />
    <glyph glyph-name="Scircumflex" unicode="&#x15c;" horiz-adv-x="1032" 
d="M197 1589l252 287h165l250 -287l-84 -102l-254 149l-245 -149zM473 -27q-130 0 -233 23t-164 61v332h196l52 -205q32 -13 60 -17q33 -5 75 -5q211 0 211 192q0 48 -12 82q-13 37 -35 62q-23 26 -66 48q-46 24 -100 40q-114 35 -182 76q-74 44 -117 98q-46 57 -65 124
t-19 156q0 106 35 185t97 128q63 49 149 73q87 24 190 24q99 0 193 -18q91 -17 161 -54v-315h-199l-43 176q-27 11 -60 16q-35 5 -67 5q-85 0 -135 -38q-49 -37 -49 -124q0 -47 10 -77q11 -32 37 -57q30 -28 72 -48q44 -21 113 -42q97 -29 171 -68q72 -38 120 -93
q48 -56 72 -131q24 -76 24 -183q0 -87 -28 -168q-27 -78 -87 -135t-153 -90t-224 -33z" />
    <glyph glyph-name="scircumflex" unicode="&#x15d;" horiz-adv-x="890" 
d="M119 1253l252 287h166l249 -287l-84 -102l-253 147l-246 -147zM422 -27q-100 0 -193 19q-84 17 -153 53v272h192l35 -153q28 -12 47 -16q25 -5 62 -5q77 0 113 30t36 89q0 66 -42 97q-44 33 -148 61q-69 17 -127 44q-56 26 -94 64q-39 39 -59 94q-19 53 -19 132
q0 144 100 232q101 89 293 89q107 0 181 -16t136 -47v-269h-186l-33 146q-38 16 -102 16q-66 0 -103 -25q-36 -24 -36 -79q0 -26 9 -47q9 -20 30 -37q19 -15 59 -31q31 -12 94 -29q79 -22 134 -47q58 -27 98 -67t60 -100q19 -57 19 -142q0 -84 -29 -143q-30 -62 -83 -103
q-51 -39 -127 -61q-74 -21 -164 -21z" />
    <glyph glyph-name="Scedilla" unicode="&#x15e;" horiz-adv-x="1032" 
d="M475 -455q-53 0 -101 14q-49 14 -75 35l43 111q20 -11 48 -19q27 -8 61 -8q39 0 58 14q17 13 17 48t-17 49t-65 14q-23 0 -41 -3q-20 -3 -30 -7l49 182q-230 11 -346 82v332h196l52 -205q32 -13 60 -17q33 -5 75 -5q211 0 211 192q0 48 -12 82q-13 37 -35 62
q-23 26 -66 48q-46 24 -100 40q-114 35 -182 76q-74 44 -117 98q-46 57 -65 124t-19 156q0 106 35 185t97 128q63 49 149 73q87 24 190 24q99 0 193 -18q91 -17 161 -54v-315h-199l-43 176q-27 11 -60 16q-35 5 -67 5q-85 0 -135 -38q-49 -37 -49 -124q0 -47 10 -77
q11 -32 37 -57q30 -28 72 -48q44 -21 113 -42q97 -29 171 -68q72 -38 120 -93q48 -56 72 -131q24 -76 24 -183q0 -83 -24 -155q-24 -71 -73 -128q-48 -56 -127 -92q-79 -37 -186 -47l-18 -73q73 -7 120 -54q45 -45 45 -110q0 -44 -11 -76q-12 -35 -37 -61q-26 -27 -69 -42
q-46 -16 -110 -16z" />
    <glyph glyph-name="scedilla" unicode="&#x15f;" horiz-adv-x="890" 
d="M414 -455q-54 0 -102 14q-45 13 -74 36l43 110q20 -11 48 -19q27 -8 60 -8q39 0 58 14q18 14 18 48t-18 49q-17 14 -64 14q-23 0 -41 -3q-22 -4 -31 -7l49 182q-171 11 -284 70v272h192l35 -153q28 -12 47 -16q25 -5 62 -5q77 0 113 30t36 89q0 66 -42 97q-44 33 -148 61
q-69 17 -127 44q-57 26 -95 64t-58 94q-19 53 -19 132q0 144 100 232q101 89 293 89q107 0 181 -16t136 -47v-269h-186l-33 146q-38 16 -102 16q-66 0 -103 -25q-36 -24 -36 -79q0 -26 9 -47q9 -20 30 -37q19 -15 59 -31q31 -12 94 -29q79 -22 134 -47q58 -27 98 -67
t60 -100q19 -57 19 -142q0 -147 -90 -227q-91 -81 -241 -97l-19 -73q74 -7 121 -54q45 -45 45 -110q0 -44 -11 -76q-12 -35 -37 -61t-70 -42q-46 -16 -109 -16z" />
    <glyph glyph-name="Scaron" unicode="&#x160;" horiz-adv-x="1032" 
d="M197 1790l84 100l245 -147l254 147l84 -100l-250 -289h-165zM473 -27q-130 0 -233 23t-164 61v332h196l52 -205q32 -13 60 -17q33 -5 75 -5q211 0 211 192q0 48 -12 82q-13 37 -35 62q-23 26 -66 48q-46 24 -100 40q-114 35 -182 76q-74 44 -117 98q-46 57 -65 124
t-19 156q0 106 35 185t97 128q63 49 149 73q87 24 190 24q99 0 193 -18q91 -17 161 -54v-315h-199l-43 176q-27 11 -60 16q-35 5 -67 5q-85 0 -135 -38q-49 -37 -49 -124q0 -47 10 -77q11 -32 37 -57q30 -28 72 -48q44 -21 113 -42q97 -29 171 -68q72 -38 120 -93
q48 -56 72 -131q24 -76 24 -183q0 -87 -28 -168q-27 -78 -87 -135t-153 -90t-224 -33z" />
    <glyph glyph-name="scaron" unicode="&#x161;" horiz-adv-x="890" 
d="M203 1554l246 -147l253 147l84 -102l-249 -287h-166l-252 287zM422 -27q-100 0 -193 19q-84 17 -153 53v272h192l35 -153q28 -12 47 -16q25 -5 62 -5q77 0 113 30t36 89q0 66 -42 97q-44 33 -148 61q-69 17 -127 44q-56 26 -94 64q-39 39 -59 94q-19 53 -19 132
q0 144 100 232q101 89 293 89q107 0 181 -16t136 -47v-269h-186l-33 146q-38 16 -102 16q-66 0 -103 -25q-36 -24 -36 -79q0 -26 9 -47q9 -20 30 -37q19 -15 59 -31q31 -12 94 -29q79 -22 134 -47q58 -27 98 -67t60 -100q19 -57 19 -142q0 -84 -29 -143q-30 -62 -83 -103
q-51 -39 -127 -61q-74 -21 -164 -21z" />
    <glyph glyph-name="Tcommaaccent" unicode="&#x162;" horiz-adv-x="1204" 
d="M301 150l145 28v1061h-155l-35 -248h-203v432h1098v-432h-203l-35 248h-155v-1061l145 -28v-150h-241l-25 -96q74 -7 121 -54q45 -45 45 -110q0 -44 -11 -76q-12 -35 -37 -61t-70 -42q-46 -16 -110 -16q-53 0 -101 14q-49 14 -75 35l43 111q20 -11 48 -19q27 -8 61 -8
q39 0 58 14q18 14 18 48t-18 49q-17 14 -64 14q-23 0 -41 -3q-22 -4 -31 -7l55 207h-227v150z" />
    <glyph glyph-name="tcommaaccent" unicode="&#x163;" horiz-adv-x="735" 
d="M379 -455q-53 0 -101 14q-46 13 -75 36l43 110q20 -11 48 -19q27 -8 60 -8q40 0 59 14q17 13 17 48t-17 49t-65 14q-23 0 -41 -3q-22 -4 -31 -7l54 197q-75 23 -115 84q-41 62 -41 170v604h-111v201h111v254l291 49v-303h192v-201h-192v-561q0 -61 19 -84q20 -25 61 -25
q29 0 54 6q19 4 42 15l43 -174q-32 -19 -91 -35t-134 -17l-19 -69q74 -7 121 -54q45 -45 45 -110q0 -44 -11 -76q-12 -35 -37 -61t-70 -42q-46 -16 -109 -16z" />
    <glyph glyph-name="Tcaron" unicode="&#x164;" horiz-adv-x="1204" 
d="M268 1790l84 100l246 -147l254 147l84 -100l-250 -289h-166zM301 150l145 28v1061h-155l-35 -248h-203v432h1098v-432h-203l-35 248h-155v-1061l145 -28v-150h-602v150z" />
    <glyph glyph-name="tcaron" unicode="&#x165;" horiz-adv-x="735" 
d="M63 1049h111v254l291 49v-303h192v-201h-192v-561q0 -61 19 -84q20 -25 61 -25q29 0 54 6q19 4 42 15l43 -174q-37 -22 -96 -37q-60 -15 -146 -15q-122 0 -195 64t-73 207v604h-111v201zM561 1161v377h273l-89 -377h-184z" />
    <glyph glyph-name="Tbar" unicode="&#x166;" horiz-adv-x="1204" 
d="M229 829h217v410h-155l-35 -248h-203v432h1098v-432h-203l-35 248h-155v-410h219v-186h-219v-465l145 -28v-150h-602v150l145 28v465h-217v186z" />
    <glyph glyph-name="tbar" unicode="&#x167;" horiz-adv-x="735" 
d="M63 637h111v211h-111v201h111v254l291 49v-303h192v-201h-192v-211h192v-172h-192v-178q0 -61 19 -84q20 -25 61 -25q29 0 54 6q19 4 42 15l43 -174q-37 -22 -96 -37q-60 -15 -146 -15q-122 0 -195 64t-73 207v221h-111v172z" />
    <glyph glyph-name="Utilde" unicode="&#x168;" horiz-adv-x="1384" 
d="M492 1423v-1007q0 -113 33 -160q34 -49 112 -49q77 0 132 23t105 61v940l-133 29v163h447v-1245l135 -28v-150h-397l-29 131q-37 -34 -73 -64q-37 -31 -76 -51q-32 -16 -90 -31q-48 -12 -109 -12q-75 0 -146 22q-65 20 -117 72q-50 51 -79 133q-29 84 -29 206v825
l-131 29v163h445zM1042 1747q-45 -110 -99 -164q-57 -57 -134 -57q-44 0 -74 11q-38 14 -60 26q-9 5 -54 25q-25 11 -54 11q-39 0 -64 -19q-30 -23 -57 -54l-122 92q46 109 101 164q57 57 134 57q44 0 73 -11q38 -15 60 -26q11 -6 31 -15t23 -10q25 -12 55 -12q36 0 62 20
q31 24 57 56z" />
    <glyph glyph-name="utilde" unicode="&#x169;" horiz-adv-x="1177" 
d="M604 874v175h395v-877l113 -20v-152h-352l-27 109q-74 -61 -144 -98q-73 -38 -175 -38q-50 0 -95 15q-44 15 -79 45q-34 30 -56 81q-20 47 -20 122v610l-115 28v175h404v-723q0 -73 26 -102t74 -29q37 0 78 15q39 15 78 44v592zM940 1393q-45 -110 -99 -164
q-58 -58 -134 -58q-41 0 -74 12q-46 17 -61 25q-18 10 -54 26q-25 11 -53 11q-40 0 -65 -19q-24 -19 -56 -55l-123 93q45 106 102 163q58 58 134 58q43 0 72 -11q42 -16 61 -26q11 -6 54 -26q23 -11 54 -11q37 0 63 20q29 22 56 56z" />
    <glyph glyph-name="Umacron" unicode="&#x16a;" horiz-adv-x="1384" 
d="M492 1423v-1007q0 -113 33 -160q34 -49 112 -49q77 0 132 23t105 61v940l-133 29v163h447v-1245l135 -28v-150h-397l-29 131q-37 -34 -73 -64q-37 -31 -76 -51q-32 -16 -90 -31q-48 -12 -109 -12q-75 0 -146 22q-65 20 -117 72q-50 51 -79 133q-29 84 -29 206v825
l-131 29v163h445zM381 1751h565v-209h-565v209z" />
    <glyph glyph-name="umacron" unicode="&#x16b;" horiz-adv-x="1177" 
d="M604 874v175h395v-877l113 -20v-152h-352l-27 109q-74 -61 -144 -98q-73 -38 -175 -38q-50 0 -95 15q-44 15 -79 45q-34 30 -56 81q-20 47 -20 122v610l-115 28v175h404v-723q0 -73 26 -102t74 -29q37 0 78 15q39 15 78 44v592zM293 1454h565v-209h-565v209z" />
    <glyph glyph-name="Ubreve" unicode="&#x16c;" horiz-adv-x="1384" 
d="M492 1423v-1007q0 -113 33 -160q34 -49 112 -49q77 0 132 23t105 61v940l-133 29v163h447v-1245l135 -28v-150h-397l-29 131q-37 -34 -73 -64q-37 -31 -76 -51q-32 -16 -90 -31q-48 -12 -109 -12q-75 0 -146 22q-65 20 -117 72q-50 51 -79 133q-29 84 -29 206v825
l-131 29v163h445zM659 1509q-76 0 -136 29q-56 27 -98 74q-40 44 -61 100q-22 59 -28 109l174 37q18 -58 52 -92q33 -33 97 -33q66 0 99 33q34 34 51 92l176 -37q-6 -52 -29 -109t-62 -100q-42 -47 -98 -74q-60 -29 -137 -29z" />
    <glyph glyph-name="ubreve" unicode="&#x16d;" horiz-adv-x="1177" 
d="M604 874v175h395v-877l113 -20v-152h-352l-27 109q-74 -61 -144 -98q-73 -38 -175 -38q-50 0 -95 15q-44 15 -79 45q-34 30 -56 81q-20 47 -20 122v610l-115 28v175h404v-723q0 -73 26 -102t74 -29q37 0 78 15q39 15 78 44v592zM573 1174q-79 0 -136 28q-56 27 -98 74
q-40 44 -61 99q-22 57 -28 108l174 39q18 -57 52 -91t97 -34q65 0 99 34q35 35 51 91l176 -39q-6 -53 -29 -108q-23 -56 -62 -99q-42 -47 -98 -74q-57 -28 -137 -28z" />
    <glyph glyph-name="Uring" unicode="&#x16e;" horiz-adv-x="1384" 
d="M492 1423v-1007q0 -113 33 -160q34 -49 112 -49q77 0 132 23t105 61v940l-133 29v163h447v-1245l135 -28v-150h-397l-29 131q-37 -34 -73 -64q-37 -31 -76 -51q-32 -16 -90 -31q-48 -12 -109 -12q-75 0 -146 22q-65 20 -117 72q-50 51 -79 133q-29 84 -29 206v825
l-131 29v163h445zM664 1473q-106 0 -171 66q-65 67 -65 171t65 171t171 67t171 -67q64 -65 64 -171t-64 -171q-65 -66 -171 -66zM664 1597q79 0 79 113q0 115 -79 115q-80 0 -80 -115q0 -113 80 -113z" />
    <glyph glyph-name="uring" unicode="&#x16f;" horiz-adv-x="1177" 
d="M573 1149q-107 0 -171 66q-64 65 -64 171q0 107 64 172q64 66 171 66t171 -66q65 -67 65 -172q0 -104 -65 -171q-64 -66 -171 -66zM573 1274q80 0 80 112q0 113 -80 113q-79 0 -79 -113q0 -112 79 -112zM604 874v175h395v-877l113 -20v-152h-352l-27 109
q-74 -61 -144 -98q-73 -38 -175 -38q-50 0 -95 15q-44 15 -79 45q-34 30 -56 81q-20 47 -20 122v610l-115 28v175h404v-723q0 -73 26 -102t74 -29q37 0 78 15q39 15 78 44v592z" />
    <glyph glyph-name="Uhungarumlaut" unicode="&#x170;" horiz-adv-x="1384" 
d="M786 1575l181 450l239 -137l-270 -401zM377 1575l180 450l240 -137l-271 -401zM492 1423v-1007q0 -113 33 -160q34 -49 112 -49q77 0 132 23t105 61v940l-133 29v163h447v-1245l135 -28v-150h-397l-29 131q-37 -34 -73 -64q-37 -31 -76 -51q-32 -16 -90 -31
q-48 -12 -109 -12q-75 0 -146 22q-65 20 -117 72q-50 51 -79 133q-29 84 -29 206v825l-131 29v163h445z" />
    <glyph glyph-name="uhungarumlaut" unicode="&#x171;" horiz-adv-x="1177" 
d="M604 874v175h395v-877l113 -20v-152h-352l-27 109q-74 -61 -144 -98q-73 -38 -175 -38q-50 0 -95 15q-44 15 -79 45q-34 30 -56 81q-20 47 -20 122v610l-115 28v175h404v-723q0 -73 26 -102t74 -29q37 0 78 15q39 15 78 44v592zM649 1221l180 450l240 -137l-270 -401z
M240 1221l180 450l239 -137l-270 -401z" />
    <glyph glyph-name="Uogonek" unicode="&#x172;" horiz-adv-x="1384" 
d="M492 1423v-1007q0 -113 33 -160q34 -49 112 -49q77 0 132 23t105 61v940l-133 29v163h447v-1245l135 -28v-150h-227q-70 -76 -95 -113q-30 -43 -30 -92q0 -34 18 -52q17 -17 49 -17q52 0 105 24l49 -131q-27 -24 -80 -50q-50 -24 -123 -24q-110 0 -169 53q-58 52 -58 142
q0 86 48 147q49 63 116 115l-29 129q-37 -34 -73 -64q-37 -31 -76 -51q-32 -16 -90 -31q-48 -12 -109 -12q-75 0 -146 22q-65 20 -117 72q-50 51 -79 133q-29 84 -29 206v825l-131 29v163h445z" />
    <glyph glyph-name="uogonek" unicode="&#x173;" horiz-adv-x="1177" 
d="M604 874v175h395v-877l113 -20v-152h-184q-66 -72 -94 -113q-31 -45 -31 -92q0 -34 18 -52q17 -17 49 -17q52 0 105 24l49 -131q-27 -24 -80 -50q-50 -24 -123 -24q-110 0 -169 53q-58 52 -58 142q0 86 48 147q49 63 116 115l-25 107q-74 -61 -144 -98q-73 -38 -175 -38
q-50 0 -95 15q-44 15 -79 45q-34 30 -56 81q-20 47 -20 122v610l-115 28v175h404v-723q0 -73 26 -102t74 -29q37 0 78 15q39 15 78 44v592z" />
    <glyph glyph-name="Wcircumflex" unicode="&#x174;" horiz-adv-x="1708" 
d="M555 1589l252 287h166l250 -287l-84 -102l-254 149l-246 -149zM1683 1260l-100 -19l-225 -1241h-297l-127 614q-27 122 -40 225q-9 74 -17 173h-5q-8 -78 -18 -177q-11 -101 -39 -223l-135 -612h-326l-227 1241l-102 19v163h542v-161l-129 -21l82 -496q18 -107 19 -112
q11 -75 14 -98q7 -56 11 -95q4 -41 9 -98h5q12 119 25 201q14 85 38 207l141 673h228l145 -669q22 -101 36 -197q16 -109 26 -215h4q7 109 20 210q9 75 31 202l82 485l-119 25v159h448v-163z" />
    <glyph glyph-name="wcircumflex" unicode="&#x175;" horiz-adv-x="1454" 
d="M422 1253l252 287h166l250 -287l-84 -102l-254 147l-246 -147zM1049 881v168h383v-175l-78 -16l-228 -858h-229l-115 420q-22 77 -39 160q-16 77 -24 133h-2q-6 -53 -21 -132q-16 -82 -37 -161l-108 -420h-223l-230 860l-75 14v175h454v-168l-94 -17l61 -280
q11 -57 24 -131q7 -42 17 -117h4q5 54 19 120q19 89 31 140l116 453h203l123 -449q19 -69 32 -149q4 -25 10.5 -64.5t8.5 -54.5h4q5 52 16 117q17 101 25 137l64 280z" />
    <glyph glyph-name="Ycircumflex" unicode="&#x176;" horiz-adv-x="1183" 
d="M299 150l143 28v406l-325 659l-92 17v163h550v-161l-126 -21l108 -235q29 -61 52 -119q19 -48 36 -107q8 38 13 55q8 25 18 51q2 6 6.5 17t8.5 20.5t8 18.5l32 72l105 231l-121 17v161h444v-163l-92 -17l-311 -655v-410l145 -28v-150h-602v150zM283 1589l252 287h165
l250 -287l-84 -102l-254 149l-245 -149z" />
    <glyph glyph-name="ycircumflex" unicode="&#x177;" horiz-adv-x="1062" 
d="M651 881v168h398v-175l-82 -16l-281 -858q-38 -112 -82 -184q-46 -75 -103 -122q-60 -49 -130 -74q-73 -26 -160 -42l-68 203q70 11 130 31q54 18 93 46q38 27 62 62q25 35 41 80h-76l-282 860l-82 14v175h475v-168l-96 -17l116 -418q15 -55 28 -118q11 -50 19 -121h2
q7 54 22 119q12 50 30 116l118 424zM223 1253l252 287h166l250 -287l-84 -102l-254 147l-246 -147z" />
    <glyph glyph-name="Ydieresis" unicode="&#x178;" horiz-adv-x="1183" 
d="M299 150l143 28v406l-325 659l-92 17v163h550v-161l-126 -21l108 -235q29 -61 52 -119q19 -48 36 -107q8 38 13 55q8 25 18 51q2 6 6.5 17t8.5 20.5t8 18.5l32 72l105 231l-121 17v161h444v-163l-92 -17l-311 -655v-410l145 -28v-150h-602v150zM410 1507q-63 0 -110 44
q-46 43 -46 110q0 65 45 112q45 46 107 46q65 0 111 -46t46 -112q0 -67 -46 -110q-47 -44 -107 -44zM836 1507q-65 0 -111 44q-45 43 -45 110q0 65 44 112q43 46 107 46q66 0 112 -46t46 -112q0 -67 -46 -110q-47 -44 -107 -44z" />
    <glyph glyph-name="Zacute" unicode="&#x179;" horiz-adv-x="1089" 
d="M307 1628l391 309l138 -237l-447 -209zM66 190l620 1049h-334l-35 -215h-202v399h901v-196l-621 -1045h375l43 219h203v-401h-950v190z" />
    <glyph glyph-name="zacute" unicode="&#x17a;" horiz-adv-x="915" 
d="M238 1286l391 309l137 -239l-447 -209zM63 188l476 682h-226l-26 -133h-193v312h750v-187l-479 -684h264l22 133h199v-311h-787v188z" />
    <glyph glyph-name="Zdotaccent" unicode="&#x17b;" horiz-adv-x="1089" 
d="M66 190l620 1049h-334l-35 -215h-202v399h901v-196l-621 -1045h375l43 219h203v-401h-950v190zM571 1505q-69 0 -118 49q-50 50 -50 117q0 69 50 119q49 49 116 49q68 0 117 -49t49 -117q0 -36 -13 -65q-15 -33 -36 -54t-52 -35t-63 -14z" />
    <glyph glyph-name="zdotaccent" unicode="&#x17c;" horiz-adv-x="915" 
d="M63 188l476 682h-226l-26 -133h-193v312h750v-187l-479 -684h264l22 133h199v-311h-787v188zM504 1159q-70 0 -119 49t-49 117q0 72 49 121t117 49q72 0 120 -49q48 -50 48 -119t-48 -119q-48 -49 -118 -49z" />
    <glyph glyph-name="Zcaron" unicode="&#x17d;" horiz-adv-x="1089" 
d="M236 1790l83 100l246 -147l254 147l84 -100l-250 -289h-166zM66 190l620 1049h-334l-35 -215h-202v399h901v-196l-621 -1045h375l43 219h203v-401h-950v190z" />
    <glyph glyph-name="zcaron" unicode="&#x17e;" horiz-adv-x="915" 
d="M252 1554l246 -147l254 147l84 -102l-250 -287h-166l-252 287zM63 188l476 682h-226l-26 -133h-193v312h750v-187l-479 -684h264l22 133h199v-311h-787v188z" />
    <glyph glyph-name="longs" unicode="&#x17f;" horiz-adv-x="708" 
d="M469 170l154 -23v-147h-557v150l114 18v678l-114 28v175h114v116q0 104 28 174q26 66 73 108q44 40 102 55q61 16 117 16q89 0 146 -18q58 -18 97 -40l-69 -198q-23 12 -53 21q-28 9 -64 9q-88 0 -88 -112v-1010z" />
    <glyph glyph-name="uni018F" unicode="&#x18f;" horiz-adv-x="1179" 
d="M532 1450q286 0 430 -176t144 -565q0 -386 -136 -561t-397 -175q-122 0 -215 37q-94 37 -158 118q-65 82 -98 210q-32 125 -32 313v146h706q-1 193 -75 303q-72 108 -224 108q-47 0 -86 -6t-75 -18q-30 -10 -69 -32q-36 -20 -73 -46l-96 180q92 74 197 119t257 45z
M582 162q52 0 87 22t59 75q23 50 35 139q11 83 13 216h-383q0 -131 10 -214q11 -88 33 -140q23 -53 59 -76q35 -22 87 -22z" />
    <glyph glyph-name="florin" unicode="&#x192;" 
d="M211 895h160l20 209q7 95 40 164q30 64 79 106q47 41 104 59q54 17 119 17q87 0 141 -16q59 -17 95 -37l-68 -193q-23 10 -48 18q-24 7 -60 7q-87 0 -99 -101l-26 -233h192v-213h-215l-110 -1077h-302l115 1077h-135z" />
    <glyph glyph-name="uni01B5" unicode="&#x1b5;" horiz-adv-x="1089" 
d="M162 819h276l248 420h-334l-35 -215h-202v399h901v-196l-244 -408h172v-186h-282l-267 -451h375l43 219h203v-401h-950v190l262 443h-166v186z" />
    <glyph glyph-name="uni01B6" unicode="&#x1b6;" horiz-adv-x="915" 
d="M127 606h227l185 264h-226l-26 -133h-193v312h750v-187l-180 -256h135v-141h-234l-200 -287h264l22 133h199v-311h-787v188l193 277h-129v141z" />
    <glyph glyph-name="Aringacute" unicode="&#x1fa;" horiz-adv-x="1298" 
d="M799 381h-387l-60 -209l148 -25v-147h-475v150l98 16l369 1190q-80 68 -80 184q0 106 64 171q65 67 171 67t171 -67t65 -171q0 -54 -21 -101q-21 -46 -55 -79l375 -1190l92 -20v-150h-557v147l141 25zM385 1905l391 309l137 -238l-446 -209zM463 563h287l-91 326
q-16 61 -28 125q-13 69 -19 119h-4q-7 -56 -20 -117q-12 -54 -33 -127zM647 1427q80 0 80 113q0 115 -80 115t-80 -115q0 -113 80 -113z" />
    <glyph glyph-name="aringacute" unicode="&#x1fb;" horiz-adv-x="1038" 
d="M459 166q45 0 75 15q29 14 54 38v254h-62q-94 0 -137 -33t-43 -131q0 -77 27 -110t86 -33zM987 20q-25 -15 -76 -31q-50 -16 -106 -16q-71 0 -121 24t-72 89q-15 -15 -45 -43q-23 -22 -52 -36q-31 -16 -66 -24q-42 -10 -89 -10q-61 0 -120 19q-56 18 -96 57
q-39 37 -62 99q-23 61 -23 145q0 175 111 255q110 79 362 79h56v51q0 84 -28 126q-27 40 -116 40q-78 0 -144 -21q-69 -22 -138 -55l-82 184q84 59 191 91t235 32q180 0 275 -77q96 -78 96 -267v-485q0 -54 16 -69t82 -13zM481 1116q-106 0 -171 67q-64 65 -64 171t64 171
q64 66 171 66t171 -66q65 -67 65 -171t-65 -171t-171 -67zM481 1241q80 0 80 113q0 112 -80 112t-80 -112q0 -113 80 -113zM219 1720l391 310l138 -238l-447 -209z" />
    <glyph glyph-name="AEacute" unicode="&#x1fc;" horiz-adv-x="1794" 
d="M870 1628l392 309l137 -237l-447 -209zM496 1262v161h1206v-374h-195l-32 186h-301v-412h196l33 111h147v-410h-147l-33 115h-196v-453h317l43 201h192v-387h-1003v150l139 28v232h-393l-113 -238l148 -25v-147h-479v150l98 16l512 1063zM557 592h305v485q0 91 4 156h-4z
" />
    <glyph glyph-name="aeacute" unicode="&#x1fd;" horiz-adv-x="1492" 
d="M532 1286l392 309l137 -239l-447 -209zM1051 -27q-117 0 -210 32q-91 31 -151 99q-48 -65 -129 -98q-79 -33 -178 -33q-66 0 -129 19q-58 17 -102 57t-68 99q-25 62 -25 145q0 176 111 254t362 78h56v53q0 84 -28 126q-27 40 -116 40q-78 0 -144 -21q-69 -22 -138 -55
l-82 184q84 59 191 91t231 32q93 0 151 -23q60 -24 103 -67q51 43 117 67q62 23 149 23q103 0 177 -26q78 -27 129 -86q53 -61 80 -157q28 -101 28 -239v-112h-559q0 -76 11 -124q12 -51 36 -86q23 -33 66 -50t106 -17q82 0 137 21q56 21 121 61l76 -164q-75 -59 -165 -91
t-214 -32zM1022 901q-37 0 -60 -11q-25 -12 -43 -42q-16 -27 -29 -85q-11 -52 -13 -138h276q0 83 -6 135q-6 51 -22 85q-15 32 -41 44t-62 12zM459 166q45 0 75 15q29 14 54 38v246h-62q-92 0 -137 -31q-43 -30 -43 -125q0 -77 27 -110t86 -33z" />
    <glyph glyph-name="Oslashacute" unicode="&#x1fe;" horiz-adv-x="1269" 
d="M637 -27q-173 0 -293 64l-123 -207l-145 94l135 228q-137 176 -137 557q0 389 144 565t419 176q177 0 301 -72l111 187l145 -92l-127 -216q129 -179 129 -544q0 -393 -140 -566q-141 -174 -419 -174zM399 713q0 -47 2 -123q1 -45 7 -105l403 680q-29 52 -71 73
q-44 22 -101 22q-64 0 -109 -27q-44 -26 -74 -90q-29 -61 -43 -169q-14 -109 -14 -261zM639 162q66 0 109 26q44 26 74 90q29 62 43 167q14 109 14 266q0 44 -2 114q-1 41 -7 101l-401 -676q29 -47 71 -68q40 -20 99 -20zM371 1628l391 309l137 -237l-446 -209z" />
    <glyph glyph-name="oslashacute" unicode="&#x1ff;" horiz-adv-x="1042" 
d="M340 1147l-82 139l389 309l137 -239zM72 -86l110 186q-58 65 -92 173q-33 105 -33 255q0 146 32 251t91 170q61 67 146 97q83 29 194 29q127 0 217 -43l109 180l127 -77l-113 -189q59 -67 91 -172q32 -107 32 -252t-32 -252q-32 -106 -91 -171q-60 -66 -145 -96t-195 -30
q-53 0 -113 10q-59 10 -100 29l-106 -176zM348 526q0 -42 3 -77q4 -42 7 -60l271 461q-39 45 -109 45q-48 0 -80 -19t-53 -63q-21 -43 -30 -114q-9 -70 -9 -173zM524 150q47 0 78 20q32 20 53 66q21 45 30 117t9 179q0 25 -2 67q-1 31 -6 58l-270 -464q37 -43 108 -43z" />
    <glyph glyph-name="Scommaaccent" unicode="&#x218;" horiz-adv-x="1032" 
d="M342 -471q58 23 91 43q39 23 40 61q-49 6 -86 40t-37 100q0 61 42 102q43 41 108 41q72 0 122 -50t50 -136q0 -131 -80 -196q-79 -64 -215 -93zM473 -27q-130 0 -233 23t-164 61v332h196l52 -205q32 -13 60 -17q33 -5 75 -5q211 0 211 192q0 48 -12 82q-13 37 -35 62
q-23 26 -66 48q-46 24 -100 40q-114 35 -182 76q-74 44 -117 98q-46 57 -65 124t-19 156q0 106 35 185t97 128q63 49 149 73q87 24 190 24q99 0 193 -18q91 -17 161 -54v-315h-199l-43 176q-27 11 -60 16q-35 5 -67 5q-85 0 -135 -38q-49 -37 -49 -124q0 -47 10 -77
q11 -32 37 -57q30 -28 72 -48q44 -21 113 -42q97 -29 171 -68q72 -38 120 -93q48 -56 72 -131q24 -76 24 -183q0 -87 -28 -168q-27 -78 -87 -135t-153 -90t-224 -33z" />
    <glyph glyph-name="scommaaccent" unicode="&#x219;" horiz-adv-x="890" 
d="M279 -471q58 23 91 43q39 23 40 61q-49 6 -86 40t-37 100q0 61 42 102q43 41 107 41q72 0 122 -50t50 -136q0 -131 -80 -196q-79 -64 -215 -93zM422 -27q-100 0 -193 19q-84 17 -153 53v272h192l35 -153q28 -12 47 -16q25 -5 62 -5q77 0 113 30t36 89q0 66 -42 97
q-44 33 -148 61q-69 17 -127 44q-56 26 -94 64q-39 39 -59 94q-19 53 -19 132q0 144 100 232q101 89 293 89q107 0 181 -16t136 -47v-269h-186l-33 146q-38 16 -102 16q-66 0 -103 -25q-36 -24 -36 -79q0 -26 9 -47q9 -20 30 -37q19 -15 59 -31q31 -12 94 -29
q79 -22 134 -47q58 -27 98 -67t60 -100q19 -57 19 -142q0 -84 -29 -143q-30 -62 -83 -103q-51 -39 -127 -61q-74 -21 -164 -21z" />
    <glyph glyph-name="uni021A" unicode="&#x21a;" horiz-adv-x="1204" 
d="M440 -471q58 23 91 43q39 23 40 61q-49 6 -86 40q-36 33 -36 100q0 62 41 102q43 41 108 41q72 0 122 -50t50 -136q0 -131 -80 -196q-79 -64 -215 -93zM301 150l145 28v1061h-155l-35 -248h-203v432h1098v-432h-203l-35 248h-155v-1061l145 -28v-150h-602v150z" />
    <glyph glyph-name="uni021B" unicode="&#x21b;" horiz-adv-x="735" 
d="M238 -471q58 23 91 43q39 23 40 61q-49 6 -86 40t-37 100q0 61 42 102q43 41 107 41q72 0 122 -50t50 -136q0 -131 -80 -196q-79 -64 -215 -93zM63 1049h111v254l291 49v-303h192v-201h-192v-561q0 -61 19 -84q20 -25 61 -25q29 0 54 6q19 4 42 15l43 -174
q-37 -22 -96 -37q-60 -15 -146 -15q-122 0 -195 64t-73 207v604h-111v201z" />
    <glyph glyph-name="dotlessj" unicode="&#x237;" horiz-adv-x="602" 
d="M2 -242q38 23 82 59q32 26 52 62t29 81q9 46 9 112v774l-115 28v175h404v-906q0 -126 -19 -218q-18 -85 -62 -148q-43 -61 -118 -104q-73 -42 -182 -81z" />
    <glyph glyph-name="uni0259" unicode="&#x259;" horiz-adv-x="985" 
d="M440 1075q242 0 364 -129q122 -130 122 -424q0 -287 -120 -418t-335 -131q-101 0 -177 27t-129 87q-53 61 -80 158q-28 101 -28 238v115h559q0 76 -11 123q-12 51 -36 84t-66 48t-106 15q-36 0 -74 -5q-34 -4 -64 -15q-31 -11 -58 -25q-40 -21 -62 -35l-78 162
q75 58 167 92q88 33 212 33zM469 147q30 0 59 13q25 11 44 43q17 28 28 84q9 45 14 137h-274q0 -82 6 -135q6 -54 21 -85q15 -32 40 -44q28 -13 62 -13z" />
    <glyph glyph-name="uni02BB" unicode="&#x2bb;" horiz-adv-x="552" 
d="M293 860q-85 0 -141 61t-56 164q0 161 80 256q79 94 234 129l39 -122q-61 -21 -98 -60t-42 -86q56 -11 101 -52q47 -42 47 -124q0 -72 -47 -119t-117 -47z" />
    <glyph glyph-name="afii57929" unicode="&#x2bc;" horiz-adv-x="552" 
d="M258 1470q88 0 143 -60q56 -61 56 -165q0 -161 -80 -256q-79 -94 -234 -129l-41 125q61 18 98 57q38 39 42 88q-24 5 -53 19q-23 11 -46 34q-18 18 -33 51q-14 31 -14 71q0 71 47 118t115 47z" />
    <glyph glyph-name="circumflex" unicode="&#x2c6;" horiz-adv-x="1116" 
d="M223 1253l252 287h166l250 -287l-84 -102l-254 147l-246 -147z" />
    <glyph glyph-name="caron" unicode="&#x2c7;" horiz-adv-x="1116" 
d="M307 1554l246 -147l254 147l84 -102l-250 -287h-166l-252 287z" />
    <glyph glyph-name="breve" unicode="&#x2d8;" horiz-adv-x="1116" 
d="M555 1174q-79 0 -136 28q-56 27 -98 74q-41 46 -62 99q-22 57 -28 108l175 39q18 -57 52 -91t97 -34q64 0 98 34q36 36 52 91l176 -39q-6 -53 -29 -108q-23 -56 -62 -99q-41 -46 -99 -74q-57 -28 -136 -28z" />
    <glyph glyph-name="dotaccent" unicode="&#x2d9;" horiz-adv-x="1116" 
d="M559 1159q-70 0 -119 49t-49 117q0 72 49 121t117 49q72 0 120 -49q48 -50 48 -119t-48 -119q-48 -49 -118 -49z" />
    <glyph glyph-name="ring" unicode="&#x2da;" horiz-adv-x="1116" 
d="M557 1149q-107 0 -171 66q-64 65 -64 171q0 107 64 172q64 66 171 66t171 -66q65 -67 65 -172q0 -104 -65 -171q-64 -66 -171 -66zM557 1274q80 0 80 112q0 113 -80 113t-80 -113q0 -112 80 -112z" />
    <glyph glyph-name="ogonek" unicode="&#x2db;" horiz-adv-x="1116" 
d="M569 -455q-110 0 -169 53q-58 52 -58 142q0 48 16 87q17 42 43 75q28 36 63 65q51 42 75 60h163q-16 -16 -67 -73q-32 -35 -47 -58q-20 -30 -28 -51q-9 -24 -9 -50q0 -34 18 -52q17 -17 49 -17q52 0 105 24l49 -131q-27 -24 -80 -50q-50 -24 -123 -24z" />
    <glyph glyph-name="tilde" unicode="&#x2dc;" horiz-adv-x="1116" 
d="M918 1393q-44 -108 -100 -164q-58 -58 -134 -58q-41 0 -74 12q-43 16 -60 25q-18 10 -54 26q-25 11 -54 11q-39 0 -64 -19q-24 -19 -56 -55l-123 93q45 107 101 163q58 58 134 58q44 0 73 -11q38 -15 60 -26q2 -1 55 -26q23 -11 54 -11q36 0 62 20q31 24 57 56z" />
    <glyph glyph-name="hungarumlaut" unicode="&#x2dd;" horiz-adv-x="1116" 
d="M586 1221l180 450l240 -137l-271 -401zM176 1221l180 450l240 -137l-270 -401z" />
    <glyph glyph-name="gravecomb" unicode="&#x300;" horiz-adv-x="2" 
d="M-338 1147l-444 209l137 239l389 -309z" />
    <glyph glyph-name="acutecomb" unicode="&#x301;" horiz-adv-x="2" 
d="M-784 1286l391 309l137 -239l-446 -209z" />
    <glyph glyph-name="uni0302" unicode="&#x302;" horiz-adv-x="2" 
d="M-854 1253l252 287h166l250 -287l-84 -102l-254 147l-246 -147z" />
    <glyph glyph-name="tildecomb" unicode="&#x303;" horiz-adv-x="2" 
d="M-162 1393q-45 -110 -99 -164q-58 -58 -134 -58q-41 0 -74 12q-43 16 -60 25q-14 8 -55 26q-25 11 -53 11q-39 0 -64 -19q-27 -21 -57 -55l-123 93q45 106 102 163q58 58 134 58q44 0 73 -11q38 -15 60 -26q11 -6 54 -26q23 -11 55 -11q36 0 62 20q29 22 56 56z" />
    <glyph glyph-name="uni0304" unicode="&#x304;" horiz-adv-x="2" 
d="M-840 1432h566v-209h-566v209z" />
    <glyph glyph-name="uni0306" unicode="&#x306;" horiz-adv-x="2" 
d="M-559 1165q-76 0 -136 29q-58 28 -99 74q-40 44 -61 99q-22 57 -28 108l174 38q18 -56 53 -91q33 -33 97 -33q65 0 98 33q35 35 51 91l177 -38q-6 -53 -29 -108q-22 -54 -63 -99q-42 -47 -98 -74q-60 -29 -136 -29z" />
    <glyph glyph-name="uni0307" unicode="&#x307;" horiz-adv-x="2" 
d="M-315 1159q-70 0 -119 49t-49 117q0 72 49 121t117 49q71 0 119 -49q48 -50 48 -119t-48 -119q-48 -49 -117 -49z" />
    <glyph glyph-name="uni0308" unicode="&#x308;" horiz-adv-x="2" 
d="M-768 1159q-63 0 -110 44q-46 43 -46 110q0 65 45 111t107 46q66 0 112 -46t46 -111q0 -67 -46 -110q-47 -44 -108 -44zM-342 1159q-65 0 -111 44q-45 43 -45 110q0 64 44 111q43 46 108 46q66 0 112 -46t46 -111q0 -67 -46 -110q-47 -44 -108 -44z" />
    <glyph glyph-name="uni030A" unicode="&#x30a;" horiz-adv-x="2" 
d="M-557 1149q-107 0 -171 66q-65 67 -65 171q0 105 65 172q64 66 171 66t171 -66q64 -65 64 -172q0 -106 -64 -171q-64 -66 -171 -66zM-557 1274q80 0 80 112q0 113 -80 113t-80 -113q0 -112 80 -112z" />
    <glyph glyph-name="uni030B" unicode="&#x30b;" horiz-adv-x="2" 
d="M-528 1235l180 451l239 -138l-270 -401zM-938 1235l180 451l240 -138l-270 -401z" />
    <glyph glyph-name="uni030C" unicode="&#x30c;" horiz-adv-x="2" 
d="M-664 1554l246 -147l254 147l84 -102l-250 -287h-166l-252 287z" />
    <glyph glyph-name="uni0312" unicode="&#x312;" horiz-adv-x="2" 
d="M-106 1686q-65 -28 -105 -76q-39 -47 -41 -99q55 -10 101 -52q47 -42 47 -126q0 -78 -50 -126q-49 -48 -120 -48q-91 0 -148 63t-57 171q0 169 86 266q86 96 246 131z" />
    <glyph glyph-name="uni0313" unicode="&#x313;" horiz-adv-x="2" 
d="M-477 897q63 27 104 76q40 47 41 98q-55 10 -101 52t-46 126q0 78 49 126q50 48 121 48q91 0 147 -62q58 -64 58 -171q0 -169 -86 -266q-86 -96 -246 -131z" />
    <glyph glyph-name="uni0326" unicode="&#x326;" horiz-adv-x="2" 
d="M-293 94q87 0 143 -60q56 -61 56 -165q0 -162 -80 -257t-234 -130l-41 125q62 22 98 59q37 39 42 86q-22 5 -52 19q-26 12 -47 33q-17 17 -33 52q-14 31 -14 70q0 74 47 121t115 47z" />
    <glyph glyph-name="uni0327" unicode="&#x327;" horiz-adv-x="2" 
d="M-582 -455q-53 0 -101 14q-49 14 -75 35l43 111q20 -11 48 -19q27 -8 61 -8q39 0 58 14q18 14 18 48t-18 49q-17 14 -64 14q-23 0 -41 -3q-22 -4 -31 -7l63 232h134l-33 -121q74 -7 121 -54q45 -45 45 -110q0 -42 -12 -76q-13 -36 -36 -61q-25 -26 -70 -42
q-46 -16 -110 -16z" />
    <glyph glyph-name="uni0328" unicode="&#x328;" horiz-adv-x="2" 
d="M-545 -455q-110 0 -169 53q-58 52 -58 142q0 48 16 87q17 42 43 75q28 36 63 65q51 42 75 60h163q-16 -16 -67 -73q-32 -35 -47 -58q-20 -30 -28 -51q-9 -24 -9 -50q0 -34 18 -52q17 -17 49 -17q52 0 105 24l49 -131q-27 -24 -80 -50q-50 -24 -123 -24z" />
    <glyph glyph-name="uni037E" unicode="&#x37e;" horiz-adv-x="630" 
d="M305 549q-39 0 -71 14q-34 15 -59 40t-40 60q-14 32 -14 72q0 39 14 70q15 33 40 58t59 40q35 15 71 15q39 0 73 -15t58 -40q24 -26 39 -58q14 -31 14 -70q0 -40 -14 -72q-15 -35 -39 -60t-58 -40q-32 -14 -73 -14zM125 -182q62 28 103 75q40 46 42 99q-55 10 -101 52
t-46 126q0 78 48 126t120 48q92 0 148 -62q57 -63 57 -171q0 -170 -86 -267q-86 -96 -244 -131z" />
    <glyph glyph-name="tonos" unicode="&#x384;" horiz-adv-x="1116" 
d="M504 1528h282l-241 -359h-180z" />
    <glyph glyph-name="dieresistonos" unicode="&#x385;" horiz-adv-x="1116" 
d="M526 1534h234l-182 -365h-144zM846 1159q-53 0 -92 39t-39 92q0 56 37 94q38 39 90 39q54 0 94 -39q41 -39 41 -94q0 -53 -39 -92t-92 -39zM272 1159q-53 0 -92 39t-39 92q0 56 37 94q38 39 90 39q56 0 96 -39q39 -38 39 -94q0 -54 -38 -92q-39 -39 -93 -39z" />
    <glyph glyph-name="Alphatonos" unicode="&#x386;" horiz-adv-x="1298" 
d="M799 381h-387l-60 -209l148 -25v-147h-475v150l98 16l389 1257h276l394 -1253l92 -20v-150h-557v147l141 25zM463 563h287l-91 326q-16 61 -28 125q-13 69 -19 119h-4q-7 -56 -20 -117q-12 -54 -33 -127zM76 1427h282l-241 -358h-180z" />
    <glyph glyph-name="anoteleia" unicode="&#x387;" horiz-adv-x="583" 
d="M291 473q-76 0 -130 54q-55 55 -55 132q0 76 55 129q56 54 130 54q76 0 132 -54q54 -52 54 -129q0 -78 -54 -132t-132 -54z" />
    <glyph glyph-name="Epsilontonos" unicode="&#x388;" horiz-adv-x="1132" 
d="M891 524h-148l-32 115h-197v-453h317l43 201h191v-387h-1002v150l140 28v1051l-140 33v161h979v-374h-194l-33 186h-301v-412h197l32 111h148v-410zM-262 1427h282l-241 -358h-180z" />
    <glyph glyph-name="Etatonos" unicode="&#x389;" horiz-adv-x="1425" 
d="M784 150l127 28v453h-397v-453l127 -28v-150h-578v150l140 28v1053l-140 29v163h578v-163l-127 -29v-408h397v408l-127 29v163h578v-163l-139 -29v-1053l139 -28v-150h-578v150zM-262 1427h282l-241 -358h-180z" />
    <glyph glyph-name="Iotatonos" unicode="&#x38a;" horiz-adv-x="716" 
d="M63 150l140 28v1053l-140 29v163h590v-163l-139 -29v-1053l139 -28v-150h-590v150zM-262 1427h282l-241 -358h-180z" />
    <glyph glyph-name="Omicrontonos" unicode="&#x38c;" horiz-adv-x="1269" 
d="M637 -27q-140 0 -245 42t-176 131q-69 87 -106 229q-36 139 -36 334q0 389 144 565t419 176q277 0 418 -175t141 -562q0 -393 -140 -566q-141 -174 -419 -174zM639 162q65 0 107 26q44 27 71 90t39 167q12 105 12 266q0 158 -12 263q-12 106 -39 169t-71 90t-107 27
q-65 0 -108 -27t-70 -90t-39 -169q-12 -105 -12 -261q0 -161 12 -267q12 -107 39 -170q27 -64 70 -89t108 -25zM-125 1427h283l-242 -358h-180z" />
    <glyph glyph-name="Upsilontonos" unicode="&#x38e;" horiz-adv-x="1183" 
d="M299 150l143 28v406l-325 659l-92 17v163h550v-161l-126 -21l108 -235q29 -61 52 -119q19 -48 36 -107q8 38 13 55q8 25 18 51q2 6 6.5 17t8.5 20.5t8 18.5l32 72l105 231l-121 17v161h444v-163l-92 -17l-311 -655v-410l145 -28v-150h-602v150zM-289 1427h283l-242 -358
h-180z" />
    <glyph glyph-name="Omegatonos" unicode="&#x38f;" horiz-adv-x="1269" 
d="M88 303h131l33 -86h129v88q-152 60 -229 191q-76 130 -76 315q0 313 143 475q144 164 420 164q277 0 415 -164t138 -475q0 -184 -74 -315t-227 -191v-88h125l35 86h129v-303h-488v391q39 17 69 43q32 28 56 75q25 49 38 122q13 71 13 184q0 237 -51 341t-178 104
q-129 0 -179 -106t-50 -341q0 -113 13 -184q14 -77 37 -121q25 -48 55 -74t69 -43v-391h-496v303zM-125 1427h283l-242 -358h-180z" />
    <glyph glyph-name="iotadieresistonos" unicode="&#x390;" horiz-adv-x="622" 
d="M174 846l-115 28v175h404v-803q0 -55 17 -69q17 -15 81 -13l12 -144q-28 -16 -77 -31q-53 -16 -109 -16q-45 0 -84 12q-38 12 -67 39q-30 29 -46 73q-16 45 -16 114v635zM348 1534h234l-183 -365h-143zM668 1159q-54 0 -93 39q-38 38 -38 92q0 57 36 94q37 39 91 39
t94 -39q41 -39 41 -94q0 -53 -39 -92t-92 -39zM94 1159q-53 0 -92 39t-39 92q0 56 37 94q38 39 90 39q54 0 95 -39q40 -39 40 -94q0 -53 -39 -92t-92 -39z" />
    <glyph glyph-name="Alpha" unicode="&#x391;" horiz-adv-x="1298" 
d="M799 381h-387l-60 -209l148 -25v-147h-475v150l98 16l389 1257h276l394 -1253l92 -20v-150h-557v147l141 25zM463 563h287l-91 326q-16 61 -28 125q-13 69 -19 119h-4q-7 -56 -20 -117q-12 -54 -33 -127z" />
    <glyph glyph-name="Beta" unicode="&#x392;" horiz-adv-x="1243" 
d="M645 184q120 0 170 52q49 50 49 182q0 118 -47 173q-46 54 -158 54h-145v-461h131zM625 823q57 0 93 12t56 36q20 25 28 65q7 36 7 94q0 110 -39 160q-39 49 -156 49h-100v-416h111zM698 1423q121 0 199 -28q79 -28 129 -80t71 -120q21 -69 21 -148q0 -231 -215 -293
q58 -10 111 -35q49 -23 88 -68q37 -43 58 -106q22 -66 22 -152q0 -106 -33 -181q-34 -76 -91 -122q-60 -47 -139 -68q-85 -22 -180 -22h-676v150l140 28v1053l-140 29v163h635z" />
    <glyph glyph-name="Gamma" unicode="&#x393;" horiz-adv-x="1073" 
d="M63 150l140 30v1049l-140 33v161h957v-432h-203l-33 244h-270v-1055l176 -26v-154h-627v150z" />
    <glyph glyph-name="uni0394" unicode="&#x394;" horiz-adv-x="1302" 
d="M104 166l402 1257h276l416 -1257v-166h-1094v166zM872 201l-204 651q-24 76 -41 161q-15 76 -21 134h-4q-10 -55 -27 -134q-18 -82 -43 -161l-192 -651h532z" />
    <glyph glyph-name="Epsilon" unicode="&#x395;" horiz-adv-x="1132" 
d="M891 524h-148l-32 115h-197v-453h317l43 201h191v-387h-1002v150l140 28v1051l-140 33v161h979v-374h-194l-33 186h-301v-412h197l32 111h148v-410z" />
    <glyph glyph-name="Zeta" unicode="&#x396;" horiz-adv-x="1089" 
d="M66 190l620 1049h-334l-35 -215h-202v399h901v-196l-621 -1045h375l43 219h203v-401h-950v190z" />
    <glyph glyph-name="Eta" unicode="&#x397;" horiz-adv-x="1425" 
d="M784 150l127 28v453h-397v-453l127 -28v-150h-578v150l140 28v1053l-140 29v163h578v-163l-127 -29v-408h397v408l-127 29v163h578v-163l-139 -29v-1053l139 -28v-150h-578v150z" />
    <glyph glyph-name="Theta" unicode="&#x398;" horiz-adv-x="1290" 
d="M647 -27q-285 0 -430 180q-143 177 -143 556q0 741 573 741q282 0 426 -181t144 -556q0 -379 -141 -559q-142 -181 -429 -181zM649 162q64 0 110 25q47 26 75 88q29 63 42 167q13 101 13 263q0 163 -13 266q-14 107 -42 171t-75 91t-110 27q-65 0 -111 -27
q-47 -27 -75 -89q-29 -64 -41 -168q-12 -105 -12 -263q0 -164 13 -267q14 -107 42 -170q29 -63 74 -89q44 -25 110 -25zM512 831h272v-190h-272v190z" />
    <glyph glyph-name="Iota" unicode="&#x399;" horiz-adv-x="716" 
d="M63 150l140 28v1053l-140 29v163h590v-163l-139 -29v-1053l139 -28v-150h-590v150z" />
    <glyph glyph-name="Kappa" unicode="&#x39a;" horiz-adv-x="1318" 
d="M63 150l140 28v1053l-140 29v163h590v-163l-139 -29v-1053l139 -28v-150h-590v150zM1296 150v-150h-360l-401 717l385 522l-125 21v163h471v-163l-131 -29l-316 -426l367 -637z" />
    <glyph glyph-name="Lambda" unicode="&#x39b;" horiz-adv-x="1269" 
d="M31 150l98 16l363 1257h274l381 -1253l92 -20v-150h-549v150l131 22l-184 700q-24 89 -32 134q-11 63 -17 104h-4q-5 -51 -17 -105q-19 -91 -30 -133l-179 -700l127 -22v-150h-454v150z" />
    <glyph glyph-name="Mu" unicode="&#x39c;" horiz-adv-x="1638" 
d="M598 1423l135 -505q28 -100 42 -178q18 -99 22 -130h4q3 16 6.5 35.5t8.5 47t8 45.5q13 70 44 180l150 505h557v-163l-139 -29v-1051l139 -30v-150h-582v150l137 30v565q0 66 2 156q2 71 3 118q1 19 2.5 49t1.5 38q1 14 2.5 37.5t1.5 30.5h-4q-23 -110 -49 -206
q-18 -68 -58 -200l-162 -520h-213l-145 495q-19 65 -32 117q-10 41 -28 121q-16 69 -23 110q-3 18 -8 45.5t-7 37.5h-4q3 -55 4 -72q1 -43 3 -106q1 -20 1.5 -61.5t0.5 -62.5q1 -44 1 -129v-563l139 -30v-150h-496v150l138 30v1051l-138 29v163h535z" />
    <glyph glyph-name="Nu" unicode="&#x39d;" horiz-adv-x="1378" 
d="M836 1260v163h489v-163l-131 -29v-1231h-250l-377 692q-52 96 -94 194q-40 93 -63 163h-4q8 -83 11 -195q3 -118 3 -242v-434l139 -28v-150h-496v150l138 28v1053l-138 29v163h441l330 -630q54 -109 92 -197q37 -86 61 -164h4q-8 72 -12 184q-4 100 -4 228v387z" />
    <glyph glyph-name="Xi" unicode="&#x39e;" horiz-adv-x="1093" 
d="M78 1423h938v-399h-191l-28 164h-500l-31 -164h-188v399zM248 846h596v-225h-596v225zM72 416h184l37 -178h506l39 178h184v-416h-950v416z" />
    <glyph glyph-name="Omicron" unicode="&#x39f;" horiz-adv-x="1269" 
d="M637 -27q-140 0 -245 42t-176 131q-69 87 -106 229q-36 139 -36 334q0 389 144 565t419 176q277 0 418 -175t141 -562q0 -393 -140 -566q-141 -174 -419 -174zM639 162q65 0 107 26q44 27 71 90t39 167q12 105 12 266q0 158 -12 263q-12 106 -39 169t-71 90t-107 27
q-65 0 -108 -27t-70 -90t-39 -169q-12 -105 -12 -261q0 -161 12 -267q12 -107 39 -170q27 -64 70 -89t108 -25z" />
    <glyph glyph-name="Pi" unicode="&#x3a0;" horiz-adv-x="1409" 
d="M63 150l140 28v1053l-140 29v163h1283v-163l-140 -29v-1053l140 -28v-150h-570v150l119 28v1039h-381v-1039l119 -28v-150h-570v150z" />
    <glyph glyph-name="Rho" unicode="&#x3a1;" horiz-adv-x="1179" 
d="M633 731q52 0 85 11q36 12 59 41t34 79q10 47 10 123q0 78 -10 125q-11 50 -34 78q-24 28 -61 40q-34 11 -91 11h-111v-508h119zM672 1423q239 0 350 -108t111 -320q0 -219 -107 -335q-106 -115 -356 -115h-156v-365l176 -30v-150h-627v150l140 30v1047l-140 33v163h609z
" />
    <glyph glyph-name="Sigma" unicode="&#x3a3;" horiz-adv-x="1056" 
d="M68 176l358 512l-358 490v245h901v-374h-195l-33 186h-354l303 -416v-104l-338 -475h406l39 178h188v-418h-917v176z" />
    <glyph glyph-name="Tau" unicode="&#x3a4;" horiz-adv-x="1204" 
d="M301 150l145 28v1061h-155l-35 -248h-203v432h1098v-432h-203l-35 248h-155v-1061l145 -28v-150h-602v150z" />
    <glyph glyph-name="Upsilon" unicode="&#x3a5;" horiz-adv-x="1183" 
d="M299 150l143 28v406l-325 659l-92 17v163h550v-161l-126 -21l108 -235q29 -61 52 -119q19 -48 36 -107q8 38 13 55q8 25 18 51q2 6 6.5 17t8.5 20.5t8 18.5l32 72l105 231l-121 17v161h444v-163l-92 -17l-311 -655v-410l145 -28v-150h-602v150z" />
    <glyph glyph-name="Phi" unicode="&#x3a6;" horiz-adv-x="1617" 
d="M483 150l172 32v97q-309 12 -449 118t-140 318q0 210 141 321t448 123v72l-168 29v163h641v-163l-167 -29v-72q306 -12 449 -123q142 -111 142 -319q0 -213 -140 -320q-140 -108 -451 -118v-97l172 -32v-150h-650v150zM961 455q67 5 110 18q49 15 83 43t52 78
q19 52 19 125t-19 125q-18 49 -52 79t-83 43q-45 12 -110 17v-528zM655 983q-67 -5 -110 -18q-49 -15 -83 -43t-52 -78q-19 -52 -19 -125q0 -71 19 -123q18 -49 52 -79q33 -29 83 -44q43 -13 110 -18v528z" />
    <glyph glyph-name="Chi" unicode="&#x3a7;" horiz-adv-x="1304" 
d="M49 150l111 22l317 567l-289 500l-104 21v163h559v-161l-113 -17l189 -356l170 354l-121 19v161h459v-163l-113 -17l-266 -502l305 -569l104 -22v-150h-571v147l129 25l-211 406l-213 -406l131 -25v-147h-473v150z" />
    <glyph glyph-name="Psi" unicode="&#x3a8;" horiz-adv-x="1622" 
d="M492 150l167 32v248q-108 4 -203 29q-93 24 -161 77t-105 136q-36 81 -36 207v364l-99 17v163h402v-555q0 -123 56 -182q57 -60 146 -72v629l-88 17v163h482v-163l-88 -17v-629q89 12 146 69q56 56 56 177v563h400v-163l-97 -17v-362q0 -126 -36 -208q-37 -84 -105 -137
t-161 -77q-95 -25 -203 -29v-248l168 -32v-150h-641v150z" />
    <glyph glyph-name="uni03A9" unicode="&#x3a9;" horiz-adv-x="1269" 
d="M88 303h131l33 -86h129v88q-152 60 -229 191q-76 130 -76 315q0 313 143 475q144 164 420 164q277 0 415 -164t138 -475q0 -184 -74 -315t-227 -191v-88h125l35 86h129v-303h-488v391q39 17 69 43q32 28 56 75q25 49 38 122q13 71 13 184q0 237 -51 341t-178 104
q-129 0 -179 -106t-50 -341q0 -113 13 -184q14 -77 37 -121q25 -48 55 -74t69 -43v-391h-496v303z" />
    <glyph glyph-name="Iotadieresis" unicode="&#x3aa;" horiz-adv-x="716" 
d="M63 150l140 28v1053l-140 29v163h590v-163l-139 -29v-1053l139 -28v-150h-590v150zM150 1507q-63 0 -110 44q-46 43 -46 110q0 65 45 112q45 46 106 46q66 0 112 -46t46 -112q0 -67 -46 -110q-47 -44 -107 -44zM575 1507q-64 0 -110 44q-45 43 -45 110q0 65 44 112
q43 46 107 46q66 0 112 -46t46 -112q0 -67 -46 -110q-47 -44 -108 -44z" />
    <glyph glyph-name="Upsilondieresis" unicode="&#x3ab;" horiz-adv-x="1183" 
d="M299 150l143 28v406l-325 659l-92 17v163h550v-161l-126 -21l108 -235q29 -61 52 -119q19 -48 36 -107q8 38 13 55q8 25 18 51q2 6 6.5 17t8.5 20.5t8 18.5l32 72l105 231l-121 17v161h444v-163l-92 -17l-311 -655v-410l145 -28v-150h-602v150zM408 1507q-63 0 -110 44
q-46 43 -46 110q0 65 45 112q45 46 106 46q66 0 112 -46t46 -112q0 -67 -46 -110q-47 -44 -107 -44zM834 1507q-65 0 -111 44q-45 43 -45 110q0 65 44 112q43 46 107 46q66 0 112 -46t46 -112q0 -67 -46 -110q-47 -44 -107 -44z" />
    <glyph glyph-name="alphatonos" unicode="&#x3ac;" horiz-adv-x="1101" 
d="M942 246q0 -55 17 -69q17 -15 81 -13l13 -144q-27 -15 -78 -31q-53 -16 -109 -16q-67 0 -118 31q-50 30 -72 102q-48 -62 -109 -99q-56 -34 -147 -34q-81 0 -148 29q-64 28 -111 93q-47 66 -71 169q-24 105 -24 256q0 158 25 262t73 172q47 67 114 94q66 27 146 27
q82 0 138 -28q53 -27 116 -91l41 93h223v-803zM510 176q48 0 82 18q39 20 59 39v564q-33 29 -56 43q-30 18 -77 18q-48 0 -73 -17q-29 -19 -43 -58q-15 -41 -21 -106q-6 -66 -6 -163q0 -99 7 -159q8 -65 22 -104q14 -38 41 -57q25 -18 65 -18zM635 1528h283l-242 -359h-180z
" />
    <glyph glyph-name="epsilontonos" unicode="&#x3ad;" horiz-adv-x="952" 
d="M57 283q0 105 61 177q60 70 146 99q-79 27 -126 85q-48 58 -48 144q0 83 37 138t97 88q57 31 134 47q69 14 148 14q111 0 197 -17q91 -18 174 -57v-253h-193l-29 124q-27 14 -55 22q-25 7 -76 7q-59 0 -100 -30t-41 -101q0 -73 34 -103q35 -30 91 -30h139v-178h-135
q-64 0 -105 -33q-40 -33 -40 -109q0 -75 54 -105t130 -30q55 0 124 16q60 14 152 56l78 -160q-97 -66 -197 -93q-106 -28 -229 -28q-75 0 -151 15q-77 15 -135 50q-62 37 -98 95q-38 61 -38 150zM559 1528h283l-242 -359h-180z" />
    <glyph glyph-name="etatonos" unicode="&#x3ae;" horiz-adv-x="1155" 
d="M174 846l-115 28v175h365l27 -117q78 69 143 105q68 38 160 38q120 0 182 -73q61 -71 61 -211v-625l113 -21v-145h-403v694q0 76 -22 112q-21 34 -77 34q-40 0 -76 -19q-34 -18 -69 -45v-776h-289v846zM618 1528h283l-242 -359h-180z" />
    <glyph glyph-name="iotatonos" unicode="&#x3af;" horiz-adv-x="622" 
d="M174 846l-115 28v175h404v-803q0 -55 17 -69q17 -15 81 -13l12 -144q-28 -16 -77 -31q-53 -16 -109 -16q-45 0 -84 12q-38 12 -67 39q-30 29 -46 73q-16 45 -16 114v635zM373 1528h282l-241 -359h-181z" />
    <glyph glyph-name="upsilondieresistonos" unicode="&#x3b0;" horiz-adv-x="1161" 
d="M164 846l-115 28v175h404v-711q0 -93 33 -129q34 -37 96 -37q61 0 94 37t33 125v512l-105 28v175h508v-175l-113 -28v-498q0 -185 -101 -279q-104 -96 -316 -96q-213 0 -316 92q-102 91 -102 283v498zM565 1534h234l-183 -365h-143zM885 1159q-53 0 -92 39t-39 92
q0 56 37 94q37 39 90 39t94 -39t41 -94q0 -53 -39 -92t-92 -39zM311 1159q-53 0 -92 39t-39 92q0 56 37 94q37 39 90 39q55 0 95 -39t40 -94q0 -53 -39 -92t-92 -39z" />
    <glyph glyph-name="alpha" unicode="&#x3b1;" horiz-adv-x="1101" 
d="M942 246q0 -55 17 -69q17 -15 81 -13l13 -144q-27 -15 -78 -31q-53 -16 -109 -16q-67 0 -118 31q-50 30 -72 102q-48 -62 -109 -99q-56 -34 -147 -34q-81 0 -148 29q-64 28 -111 93q-47 66 -71 169q-24 105 -24 256q0 158 25 262t73 172q47 67 114 94q66 27 146 27
q82 0 138 -28q53 -27 116 -91l41 93h223v-803zM510 176q48 0 82 18q39 20 59 39v564q-33 29 -56 43q-30 18 -77 18q-48 0 -73 -17q-29 -19 -43 -58q-15 -41 -21 -106q-6 -66 -6 -163q0 -99 7 -159q8 -65 22 -104q14 -38 41 -57q25 -18 65 -18z" />
    <glyph glyph-name="beta" unicode="&#x3b2;" horiz-adv-x="1077" 
d="M412 -395h-289v1482q0 116 32 197t87 130q58 52 133 72q78 21 170 21q192 0 297 -101q106 -102 106 -265q0 -121 -57 -205t-154 -113q130 -33 206 -130q77 -98 77 -267q0 -118 -33 -204q-33 -85 -89 -140q-58 -56 -131 -81q-76 -26 -157 -26q-51 0 -103 11q-54 11 -95 32
v-413zM412 195q30 -17 64 -24q32 -7 59 -7q102 0 138 74t36 190q0 134 -40 211q-41 78 -141 78h-28v196h41q69 0 100 58q31 59 31 155q0 102 -37 143q-37 42 -92 42q-72 0 -102 -50q-29 -48 -29 -135v-931z" />
    <glyph glyph-name="gamma" unicode="&#x3b3;" horiz-adv-x="1064" 
d="M106 858l-83 16v175h350l155 -553q19 -63 34 -139q15 -79 22 -154h2q7 79 20 154q10 57 31 143l96 364l-96 15v170h403v-175l-86 -18l-266 -856v-395h-289v395z" />
    <glyph glyph-name="delta" unicode="&#x3b4;" horiz-adv-x="1042" 
d="M520 -27q-105 0 -193 31q-85 30 -146 97t-92 171q-32 107 -32 252q0 207 96 337q95 129 263 175l-244 246v205h733v-305h-170l-22 127h-242l311 -305q38 -35 79 -90q39 -52 64 -106q29 -62 43 -128q15 -69 15 -154q0 -148 -32 -255q-32 -106 -91 -171q-60 -66 -145 -96
q-88 -31 -195 -31zM522 150q46 0 75 20q29 21 46 66t24 117q7 67 7 175q0 64 -5 122q-4 44 -18 94q-12 41 -33 76q-20 33 -51 67l-24 24q-56 -21 -89 -50q-35 -30 -54 -76q-19 -45 -25 -109q-6 -63 -6 -152q0 -109 7 -175q8 -76 24 -116q18 -45 47 -64t75 -19z" />
    <glyph glyph-name="epsilon" unicode="&#x3b5;" horiz-adv-x="952" 
d="M57 283q0 105 61 177q60 70 146 99q-79 27 -126 85q-48 58 -48 144q0 83 37 138t97 88q57 31 134 47q69 14 148 14q111 0 197 -17q91 -18 174 -57v-253h-193l-29 124q-27 14 -55 22q-25 7 -76 7q-59 0 -100 -30t-41 -101q0 -73 34 -103q35 -30 91 -30h139v-178h-135
q-64 0 -105 -33q-40 -33 -40 -109q0 -75 54 -105t130 -30q55 0 124 16q60 14 152 56l78 -160q-97 -66 -197 -93q-106 -28 -229 -28q-75 0 -151 15q-77 15 -135 50q-62 37 -98 95q-38 61 -38 150z" />
    <glyph glyph-name="zeta" unicode="&#x3b6;" horiz-adv-x="892" 
d="M55 369q0 101 46 221q46 121 124 245q73 117 183 244t221 224h-322l-35 -121h-161v305h759v-199q-259 -257 -384 -470q-124 -211 -124 -398q0 -52 13 -91q12 -35 35 -57q20 -19 54 -27q29 -7 71 -7h114q48 0 94 -11t75 -33q31 -24 49 -61t18 -92q0 -44 -16 -97
q-16 -52 -42 -103q-29 -56 -59 -104q-35 -56 -70 -102l-155 76q18 27 39 57q19 28 35 59q19 38 26 56q10 26 10 45q0 72 -96 72h-106q-82 0 -152 19q-72 19 -126 63q-55 44 -86 114q-32 72 -32 173z" />
    <glyph glyph-name="eta" unicode="&#x3b7;" horiz-adv-x="1155" 
d="M174 846l-115 28v175h365l27 -117q78 69 143 105q68 38 160 38q120 0 182 -73q61 -71 61 -211v-625l113 -21v-145h-403v694q0 76 -22 112q-21 34 -77 34q-40 0 -76 -19q-34 -18 -69 -45v-776h-289v846z" />
    <glyph glyph-name="theta" unicode="&#x3b8;" horiz-adv-x="1058" 
d="M528 -27q-114 0 -197 42q-84 43 -137 133q-54 92 -81 237t-27 352q0 209 27 356q27 146 81 238t137 134t197 42q113 0 197 -42q83 -41 139 -134q55 -91 82 -238t27 -356q0 -207 -27 -352t-81 -237q-54 -91 -138 -133t-199 -42zM678 848q-1 139 -9 229q-8 93 -25 143
t-45 72q-27 21 -71 21q-42 0 -71 -21t-45 -72q-16 -52 -24 -143q-8 -90 -9 -229h299zM528 156q44 0 72 22q29 23 45 79q17 57 24 153q8 96 9 245h-299q0 -155 7 -245q8 -96 24 -153q16 -56 45 -79q28 -22 73 -22z" />
    <glyph glyph-name="iota" unicode="&#x3b9;" horiz-adv-x="622" 
d="M174 846l-115 28v175h404v-803q0 -55 17 -69q17 -15 81 -13l12 -144q-28 -16 -77 -31q-53 -16 -109 -16q-45 0 -84 12q-38 12 -67 39q-30 29 -46 73q-16 45 -16 114v635z" />
    <glyph glyph-name="kappa" unicode="&#x3ba;" horiz-adv-x="1097" 
d="M174 846l-115 28v175h404v-517l276 332l-112 10v175h420v-175l-86 -12l-242 -293q13 -21 53 -86q13 -21 39 -61t34 -52q71 -110 73 -114q40 -65 53 -86l94 -18v-152h-313l-289 469v-469h-289v846z" />
    <glyph glyph-name="lambda" unicode="&#x3bb;" horiz-adv-x="1054" 
d="M14 147l82 15l266 887h41l-49 165q-12 36 -23 52q-13 20 -48 20q-33 0 -64 -10q-26 -8 -61 -23l-62 179q62 33 129 54t146 21q118 0 170 -61q55 -64 84 -180l264 -1024q16 -55 40 -69q26 -15 91 -5l27 -148q-38 -19 -99 -33q-52 -12 -98 -12t-88 10q-38 9 -64 31
q-25 21 -46 64q-20 41 -36 106l-98 400q-21 82 -32 147q-12 69 -17 160h-2q-7 -83 -18 -160q-10 -73 -27 -147l-127 -586h-281v147z" />
    <glyph glyph-name="uni03BC" unicode="&#x3bc;" horiz-adv-x="1181" 
d="M166 -395v1241l-113 28v175h404v-723q0 -73 25 -102t75 -29q37 0 78 15t76 44v592l-103 28v175h393v-877l113 -20v-152h-352l-27 109q-47 -71 -107 -103q-63 -33 -116 -33q-22 0 -44 5q-18 4 -24 10l13 -383h-291z" />
    <glyph glyph-name="nu" unicode="&#x3bd;" horiz-adv-x="1060" 
d="M111 858l-84 16v175h350l160 -582q19 -70 26 -114q11 -73 15 -111h2q7 53 18 118q9 51 23 109l100 395l-96 15v170h407v-175l-86 -16l-278 -858h-265z" />
    <glyph glyph-name="xi" unicode="&#x3be;" horiz-adv-x="901" 
d="M53 414q0 78 27 144q28 69 70 118q45 53 98 83q56 32 112 42q-48 11 -96 40q-45 27 -80 68q-33 38 -55 96q-20 51 -20 117q0 109 34 181t95 118q60 45 136 66q73 20 163 20q108 0 192 -21q80 -20 143 -61v-266h-192l-27 127q-19 14 -46 19q-30 6 -58 6q-65 0 -108 -43
q-45 -45 -46 -152q0 -46 12 -86q14 -47 34 -72q24 -30 60 -48q34 -17 85 -17h188v-199h-149q-263 0 -263 -241q0 -98 47 -157q46 -58 152 -58h84q102 0 170 -44t68 -153q0 -46 -17 -97q-18 -53 -42 -103q-26 -55 -59 -104q-35 -53 -69 -102l-155 76q18 27 39 57q19 28 35 59
q19 38 26 56q10 26 10 45q0 72 -96 72h-70q-89 0 -169 24q-79 24 -137 73q-57 48 -92 129q-34 78 -34 188z" />
    <glyph glyph-name="omicron" unicode="&#x3bf;" horiz-adv-x="1042" 
d="M520 -27q-107 0 -194 32q-86 32 -146 98q-59 65 -91 172t-32 253t32 251t91 170q61 67 146 97q83 29 194 29q107 0 195 -31q84 -30 145 -98q59 -67 91 -172q32 -107 32 -252t-32 -252q-32 -106 -91 -171q-60 -66 -145 -96t-195 -30zM522 150q46 0 75 20q29 21 46 66
t24 117q7 67 7 179q0 197 -32 281q-31 82 -122 82q-46 0 -75 -19t-46 -63q-15 -40 -23 -114q-7 -66 -7 -173q0 -109 7 -176q8 -77 24 -117q18 -45 47 -64t75 -19z" />
    <glyph glyph-name="pi" unicode="&#x3c0;" horiz-adv-x="1212" 
d="M190 831h-124v218h1083v-191l-152 -27v-583q0 -54 17 -69q16 -15 80 -13l14 -143q-29 -17 -79 -32q-53 -16 -109 -16q-45 0 -84 12q-40 12 -68 39q-29 27 -45 73q-16 45 -16 114v618h-228v-831h-289v831z" />
    <glyph glyph-name="rho" unicode="&#x3c1;" horiz-adv-x="1064" 
d="M401 -395h-290v925q0 294 110 419q111 126 330 126q225 0 341 -135q116 -136 116 -414q0 -146 -29 -253q-29 -106 -83 -172q-55 -67 -132 -97q-81 -31 -174 -31q-54 0 -101 12q-51 13 -88 35v-415zM401 193q27 -15 69 -28q37 -11 69 -11q56 0 87 28q32 29 47 79
q14 47 19 117q4 59 4 144q0 113 -7 180q-8 75 -23 114q-16 41 -45 58t-72 17q-44 0 -69 -14q-27 -15 -45 -55q-18 -39 -25 -108q-9 -83 -9 -177v-344z" />
    <glyph glyph-name="sigma1" unicode="&#x3c2;" horiz-adv-x="880" 
d="M426 18q-91 18 -161 56q-69 37 -113 98q-46 62 -68 149q-23 89 -23 205q0 157 37 261q38 107 100 170q64 65 148 92q82 26 184 26q106 0 184 -23q79 -23 136 -71v-254h-193l-30 150q-13 9 -39 14q-21 4 -49 4q-45 0 -77 -15q-30 -15 -52 -56q-21 -41 -30 -110
q-9 -70 -9 -179q0 -62 5 -119q4 -50 21 -88q16 -37 45 -61q28 -24 76 -36l80 -20q96 -23 154 -67q55 -42 55 -113q0 -50 -16 -98q-17 -52 -42 -100q-27 -52 -60 -101q-56 -83 -68 -99l-156 78q4 6 11.5 17.5t14 21t12.5 18.5q23 36 36 59q13 24 26 55q10 24 10 44
q0 38 -20 54q-19 15 -68 26z" />
    <glyph glyph-name="sigma" unicode="&#x3c3;" horiz-adv-x="1110" 
d="M520 -27q-107 0 -194 32q-86 32 -146 99q-59 67 -91 172q-32 107 -32 250q0 142 36 241q37 101 98 162q62 62 149 91t186 29h549v-191l-157 -27h-70q67 -67 96 -152q31 -90 31 -177q0 -272 -118 -400q-119 -129 -337 -129zM520 150q88 0 121 79q33 80 33 269
q0 102 -15 186q-15 85 -49 147h-65q-48 0 -78 -11q-34 -12 -55 -45q-22 -34 -34 -93q-11 -55 -11 -156q0 -104 8 -181q8 -74 25 -116q18 -44 47 -61q30 -18 73 -18z" />
    <glyph glyph-name="tau" unicode="&#x3c4;" horiz-adv-x="948" 
d="M313 831h-260v218h842v-191l-156 -27h-135v-559q0 -94 80 -94q25 0 52 5q10 2 44 14l45 -172q-38 -21 -97 -36q-64 -16 -146 -16q-56 0 -107 14q-48 13 -85 44q-34 28 -56 82q-21 51 -21 129v589z" />
    <glyph glyph-name="upsilon" unicode="&#x3c5;" horiz-adv-x="1161" 
d="M164 846l-115 28v175h404v-711q0 -93 33 -129q34 -37 96 -37q61 0 94 37t33 125v512l-105 28v175h508v-175l-113 -28v-498q0 -185 -101 -279q-104 -96 -316 -96q-213 0 -316 92q-102 91 -102 283v498z" />
    <glyph glyph-name="phi" unicode="&#x3c6;" horiz-adv-x="1386" 
d="M834 -236l112 -20v-139h-510v139l113 20v218q-129 6 -222 36q-92 30 -153 97q-60 66 -88 167q-29 104 -29 248q0 80 14 162t49 149t99 125q60 54 164 93l92 -164q-74 -53 -95 -149q-22 -99 -22 -220q0 -109 11 -183q11 -75 33 -113q24 -41 60 -58q36 -16 87 -18v901
q47 9 92 14q51 6 135 6q286 0 419 -132q134 -132 134 -421q0 -148 -30 -248t-90 -163q-61 -64 -153 -94q-89 -29 -222 -35v-218zM834 154q53 1 92 17q36 14 60 57q24 42 33 116q9 73 9 191q0 108 -8 183q-7 67 -30 108q-21 38 -59 53q-33 13 -97 18v-743z" />
    <glyph glyph-name="chi" unicode="&#x3c7;" horiz-adv-x="1163" 
d="M51 147l92 17l267 371l-254 321l-88 18v175h327l240 -385h4l129 204l-82 17v164h397v-175l-96 -16l-225 -321l268 -371l88 -16v-150h-332l-247 399h-4l-158 -241l102 -17v-141h-428v147z" />
    <glyph glyph-name="psi" unicode="&#x3c8;" horiz-adv-x="1515" 
d="M164 846l-115 28v175h400v-730q0 -89 46 -123q47 -35 119 -42v895h287v-895q73 8 120 42q46 34 46 123v730h399v-175l-114 -28v-486q0 -110 -33 -181t-92 -112q-62 -43 -143 -61q-82 -18 -183 -24v-218l113 -20v-139h-512v139l112 20v218q-100 6 -183 24q-80 17 -142 61
q-59 41 -92 112t-33 181v486z" />
    <glyph glyph-name="omega" unicode="&#x3c9;" horiz-adv-x="1390" 
d="M426 -27q-102 0 -173 41q-70 40 -114 112q-43 69 -61 167q-19 101 -19 209q0 91 14 181t50 159q38 74 104 129q66 56 179 94l94 -168q-46 -22 -72 -56q-27 -36 -42 -85q-16 -52 -20 -112q-6 -84 -6 -136q0 -101 5 -178q5 -76 15 -110q12 -41 32 -55q21 -15 53 -15
q47 0 66 40q20 42 20 134v426h285v-426q0 -95 20 -134q21 -40 66 -40q33 0 54 15q22 16 34 55q11 38 16 110q4 61 4 178q0 81 -4 134q-5 68 -18 109q-15 47 -42 85q-26 35 -75 61l96 168q107 -35 174 -91q70 -59 106 -130q37 -73 51 -161q13 -84 13 -181q0 -115 -19 -209
t-64 -167q-44 -72 -114 -112q-71 -41 -173 -41q-99 0 -164 40q-66 41 -105 108q-38 -69 -102 -108q-65 -40 -164 -40z" />
    <glyph glyph-name="iotadieresis" unicode="&#x3ca;" horiz-adv-x="622" 
d="M174 846l-115 28v175h404v-803q0 -55 17 -69q17 -15 81 -13l12 -144q-28 -16 -77 -31q-53 -16 -109 -16q-45 0 -84 12q-38 12 -67 39q-30 29 -46 73q-16 45 -16 114v635zM115 1159q-63 0 -110 44q-46 43 -46 110q0 65 45 111t107 46q65 0 111 -46t46 -111q0 -67 -46 -110
q-47 -44 -107 -44zM541 1159q-65 0 -111 44q-45 43 -45 110q0 64 44 111q43 46 108 46t111 -46t46 -111q0 -67 -46 -110q-47 -44 -107 -44z" />
    <glyph glyph-name="upsilondieresis" unicode="&#x3cb;" horiz-adv-x="1161" 
d="M164 846l-115 28v175h404v-711q0 -93 33 -129q34 -37 96 -37q61 0 94 37t33 125v512l-105 28v175h508v-175l-113 -28v-498q0 -185 -101 -279q-104 -96 -316 -96q-213 0 -316 92q-102 91 -102 283v498zM367 1159q-63 0 -110 44q-46 43 -46 110q0 65 45 111t106 46
q66 0 112 -46t46 -111q0 -67 -46 -110q-47 -44 -107 -44zM793 1159q-65 0 -111 44q-45 43 -45 110q0 64 44 111q43 46 107 46q66 0 112 -46t46 -111q0 -67 -46 -110q-47 -44 -107 -44z" />
    <glyph glyph-name="omicrontonos" unicode="&#x3cc;" horiz-adv-x="1042" 
d="M520 -27q-107 0 -194 32q-86 32 -146 98q-59 65 -91 172t-32 253t32 251t91 170q61 67 146 97q83 29 194 29q107 0 195 -31q84 -30 145 -98q59 -67 91 -172q32 -107 32 -252t-32 -252q-32 -106 -91 -171q-60 -66 -145 -96t-195 -30zM522 150q46 0 75 20q29 21 46 66
t24 117q7 67 7 179q0 197 -32 281q-31 82 -122 82q-46 0 -75 -19t-46 -63q-15 -40 -23 -114q-7 -66 -7 -173q0 -109 7 -176q8 -77 24 -117q18 -45 47 -64t75 -19zM559 1528h283l-242 -359h-180z" />
    <glyph glyph-name="upsilontonos" unicode="&#x3cd;" horiz-adv-x="1161" 
d="M164 846l-115 28v175h404v-711q0 -93 33 -129q34 -37 96 -37q61 0 94 37t33 125v512l-105 28v175h508v-175l-113 -28v-498q0 -185 -101 -279q-104 -96 -316 -96q-213 0 -316 92q-102 91 -102 283v498zM614 1528h283l-242 -359h-180z" />
    <glyph glyph-name="omegatonos" unicode="&#x3ce;" horiz-adv-x="1390" 
d="M426 -27q-102 0 -173 41q-70 40 -114 112q-43 69 -61 167q-19 101 -19 209q0 91 14 181t50 159q38 74 104 129q66 56 179 94l94 -168q-46 -22 -72 -56q-27 -36 -42 -85q-16 -52 -20 -112q-6 -84 -6 -136q0 -101 5 -178q5 -76 15 -110q12 -41 32 -55q21 -15 53 -15
q47 0 66 40q20 42 20 134v426h285v-426q0 -95 20 -134q21 -40 66 -40q33 0 54 15q22 16 34 55q11 38 16 110q4 61 4 178q0 81 -4 134q-5 68 -18 109q-15 47 -42 85q-26 35 -75 61l96 168q107 -35 174 -91q70 -59 106 -130q37 -73 51 -161q13 -84 13 -181q0 -115 -19 -209
t-64 -167q-44 -72 -114 -112q-71 -41 -173 -41q-99 0 -164 40q-66 41 -105 108q-38 -69 -102 -108q-65 -40 -164 -40zM743 1528h283l-242 -359h-180z" />
    <glyph glyph-name="uni0400" unicode="&#x400;" horiz-adv-x="1132" 
d="M891 524h-148l-32 115h-197v-453h317l43 201h191v-387h-1002v150l140 28v1051l-140 33v161h979v-374h-194l-33 186h-301v-412h197l32 111h148v-410zM762 1485l-445 209l138 237l389 -309z" />
    <glyph glyph-name="afii10023" unicode="&#x401;" horiz-adv-x="1132" 
d="M891 524h-148l-32 115h-197v-453h317l43 201h191v-387h-1002v150l140 28v1051l-140 33v161h979v-374h-194l-33 186h-301v-412h197l32 111h148v-410zM354 1522q-62 0 -109 44q-46 43 -46 109q0 65 45 112q45 46 106 46q66 0 112 -46t46 -112t-46 -109q-47 -44 -108 -44z
M780 1522q-64 0 -110 44q-45 44 -45 109t44 112q43 46 107 46q66 0 112 -46t46 -112t-46 -109q-47 -44 -108 -44z" />
    <glyph glyph-name="afii10051" unicode="&#x402;" horiz-adv-x="1552" 
d="M723 1239v-457q63 55 135 86q76 33 176 33q84 0 147 -20q66 -21 112 -70q47 -50 72 -130q26 -83 26 -200q0 -235 -106 -358q-105 -121 -335 -150l-59 168q53 22 87 43q35 22 58 59q22 36 33 90q10 51 10 138q0 117 -33 159q-35 44 -110 44q-65 0 -116 -20
q-50 -20 -97 -50v-604h-451v150l140 28v1061h-152l-35 -246h-198v430h1144v-391h-200l-35 207h-213z" />
    <glyph glyph-name="afii10052" unicode="&#x403;" horiz-adv-x="1036" 
d="M63 147l140 31v1053l-140 29v163h951v-430h-201l-35 242h-264v-1057l152 -31v-147h-603v147zM430 1628l391 309l137 -237l-446 -209z" />
    <glyph glyph-name="afii10053" unicode="&#x404;" horiz-adv-x="1130" 
d="M676 -27q-162 0 -277 50t-186 143q-70 92 -105 230q-34 135 -34 311q0 173 29 306q30 136 100 234t184 150q115 53 287 53q114 0 215 -26q98 -25 166 -72v-316h-209l-41 201q-26 15 -56 19q-40 6 -67 6q-74 0 -124 -26q-51 -26 -81 -79q-31 -55 -46 -138
q-14 -82 -19 -204h450v-194h-452q5 -132 18 -208q15 -87 45 -144q29 -54 81 -83q48 -26 126 -26q44 0 84 8q33 7 70 25l43 192h196v-315q-77 -43 -177 -69q-109 -28 -220 -28z" />
    <glyph glyph-name="afii10054" unicode="&#x405;" horiz-adv-x="1032" 
d="M473 -27q-130 0 -233 23t-164 61v332h196l52 -205q32 -13 60 -17q33 -5 75 -5q211 0 211 192q0 48 -12 82q-13 37 -35 62q-23 26 -66 48q-46 24 -100 40q-114 35 -182 76q-74 44 -117 98q-46 57 -65 124t-19 156q0 106 35 185t97 128q63 49 149 73q87 24 190 24
q99 0 193 -18q91 -17 161 -54v-315h-199l-43 176q-27 11 -60 16q-35 5 -67 5q-85 0 -135 -38q-49 -37 -49 -124q0 -47 10 -77q11 -32 37 -57q30 -28 72 -48q44 -21 113 -42q97 -29 171 -68q72 -38 120 -93q48 -56 72 -131q24 -76 24 -183q0 -87 -28 -168q-27 -78 -87 -135
t-153 -90t-224 -33z" />
    <glyph glyph-name="afii10055" unicode="&#x406;" horiz-adv-x="716" 
d="M63 150l140 28v1053l-140 29v163h590v-163l-139 -29v-1053l139 -28v-150h-590v150z" />
    <glyph glyph-name="afii10056" unicode="&#x407;" horiz-adv-x="716" 
d="M158 1526q-63 0 -107 43q-45 43 -45 108q0 66 44 110t104 44q62 0 109 -44q46 -43 46 -110q0 -65 -46 -108t-105 -43zM559 1526q-64 0 -107 43q-44 44 -44 108q0 67 43 110q44 44 104 44q63 0 110 -44q46 -43 46 -110q0 -65 -45 -108q-44 -43 -107 -43zM63 150l140 28
v1053l-140 29v163h590v-163l-139 -29v-1053l139 -28v-150h-590v150z" />
    <glyph glyph-name="afii10057" unicode="&#x408;" horiz-adv-x="720" 
d="M518 166q0 -113 -35 -200q-34 -84 -96 -149q-63 -66 -145 -110t-181 -78l-77 156q50 33 95 65q42 30 71 70q28 38 43 91q14 49 14 128v1092l-144 29v163h594v-163l-139 -29v-1065z" />
    <glyph glyph-name="afii10058" unicode="&#x409;" horiz-adv-x="1767" 
d="M664 150l127 28v1059h-240l-37 -651q-10 -170 -38 -287q-26 -110 -72 -183q-44 -70 -106 -98t-140 -28q-15 0 -47 2q-27 2 -50 6l-55 233q69 -4 126 10q54 13 93 66q39 52 63 161q23 105 31 294l21 469l-133 29v163h1034v-163l-139 -29v-383h139q127 0 220 -26
q91 -25 149 -79q57 -52 84 -134q26 -78 26 -189q0 -217 -124 -319q-123 -101 -357 -101h-575v150zM1102 666v-482h90q56 0 96 12q44 13 69 38q27 27 42 76q14 45 14 120t-13 120q-14 46 -39 72q-25 25 -66 34q-45 10 -95 10h-98z" />
    <glyph glyph-name="afii10059" unicode="&#x40a;" horiz-adv-x="1871" 
d="M768 150l127 28v457h-381v-457l127 -28v-150h-578v150l140 28v1053l-140 29v163h578v-163l-127 -29v-404h381v404l-127 29v163h578v-163l-140 -29v-389h140q127 0 220 -26q91 -25 148 -78q57 -52 84 -132t27 -188q0 -218 -124 -318t-358 -100h-575v150zM1206 659v-475h90
q56 0 97 12q43 13 68 38q27 27 41 75t14 119q0 70 -13 119q-12 44 -39 70q-29 27 -65 34q-42 8 -94 8h-99z" />
    <glyph glyph-name="afii10060" unicode="&#x40b;" horiz-adv-x="1552" 
d="M723 1239v-457q58 54 133 86q76 33 176 33q80 0 144 -19q65 -19 113 -69t75 -130q27 -81 27 -204v-301l139 -28v-150h-574v150l123 28v291q0 114 -32 159q-33 46 -111 46q-66 0 -117 -20q-48 -19 -96 -50v-604h-451v150l140 28v1061h-150l-35 -246h-200v430h1144v-391
h-200l-35 207h-213z" />
    <glyph glyph-name="afii10061" unicode="&#x40c;" horiz-adv-x="1318" 
d="M63 150l140 28v1053l-140 29v163h590v-163l-139 -29v-1053l139 -28v-150h-590v150zM1296 150v-150h-360l-401 717l385 522l-125 21v163h471v-163l-131 -29l-316 -426l367 -637zM479 1628l391 309l138 -237l-447 -209z" />
    <glyph glyph-name="uni040D" unicode="&#x40d;" horiz-adv-x="1404" 
d="M891 178v375q0 134 10 255q11 136 25 220h-17q-49 -125 -56 -142q-34 -81 -79 -177l-340 -709h-371v150l140 28v1053l-140 29v163h578v-163l-127 -29v-336q0 -62 -3 -125q-4 -84 -7 -124q-6 -78 -11 -116q-3 -20 -7.5 -53t-6.5 -45h15q9 22 33 102q18 59 59 146l348 743
h407v-163l-139 -29v-1053l139 -28v-150h-577v150zM883 1485l-445 209l137 237l390 -309z" />
    <glyph glyph-name="afii10062" unicode="&#x40e;" horiz-adv-x="1241" 
d="M633 1530q-171 -2 -275 66q-105 68 -122 204l239 39q7 -72 49 -100q41 -27 111 -27q69 0 111 27q44 28 51 100l231 -39q-10 -128 -116 -197q-104 -68 -279 -73zM782 309q-41 -109 -73 -166q-37 -66 -84 -109t-108 -61q-60 -18 -142 -18h-21l-82 242q117 -5 171 27
q56 33 85 91l-417 926l-101 19v163h559v-161l-129 -21l176 -448q21 -51 39 -119q20 -73 29 -121h4q7 47 25 120q15 61 35 122l149 444l-123 23v161h455v-163l-99 -19z" />
    <glyph glyph-name="afii10145" unicode="&#x40f;" horiz-adv-x="1400" 
d="M600 0h-537v150l140 28v1053l-140 29v163h578v-163l-127 -29v-1038h373v1038l-125 29v163h575v-163l-139 -29v-1053l139 -28v-150h-538l28 -385h-254z" />
    <glyph glyph-name="afii10017" unicode="&#x410;" horiz-adv-x="1298" 
d="M799 381h-387l-60 -209l148 -25v-147h-475v150l98 16l389 1257h276l394 -1253l92 -20v-150h-557v147l141 25zM463 563h287l-91 326q-16 61 -28 125q-13 69 -19 119h-4q-7 -56 -20 -117q-12 -54 -33 -127z" />
    <glyph glyph-name="afii10018" unicode="&#x411;" horiz-adv-x="1212" 
d="M514 184h104q56 0 98 12q43 12 69 38q27 27 42 76q15 48 15 120t-14 120q-14 47 -40 72q-27 25 -66 34q-45 10 -95 10h-113v-482zM63 150l140 30v1051l-140 29v163h1014v-430h-203l-32 242h-328v-387h154q258 0 370 -106q111 -105 111 -322q0 -125 -39 -206t-113 -129
q-76 -49 -180 -67q-107 -18 -242 -18h-512v150z" />
    <glyph glyph-name="afii10019" unicode="&#x412;" horiz-adv-x="1243" 
d="M645 184q120 0 170 52q49 50 49 182q0 118 -47 173q-46 54 -158 54h-145v-461h131zM625 823q57 0 93 12t56 36q20 25 28 65q7 36 7 94q0 110 -39 160q-39 49 -156 49h-100v-416h111zM698 1423q121 0 199 -28q79 -28 129 -80t71 -120q21 -69 21 -148q0 -231 -215 -293
q58 -10 111 -35q49 -23 88 -68q37 -43 58 -106q22 -66 22 -152q0 -106 -33 -181q-34 -76 -91 -122q-60 -47 -139 -68q-85 -22 -180 -22h-676v150l140 28v1053l-140 29v163h635z" />
    <glyph glyph-name="afii10020" unicode="&#x413;" horiz-adv-x="1036" 
d="M63 147l140 31v1053l-140 29v163h951v-430h-201l-35 242h-264v-1057l152 -31v-147h-603v147z" />
    <glyph glyph-name="afii10021" unicode="&#x414;" horiz-adv-x="1349" 
d="M1241 1257l-139 -28v-1043h184v-471h-194l-35 285h-809l-37 -285h-195v471h148q81 142 133 399q53 260 57 640l-151 32v166h1038v-166zM791 1235h-224l-4 -145q-5 -174 -22 -314q-16 -132 -43 -262q-20 -100 -53 -201q-26 -80 -50 -127h396v1049z" />
    <glyph glyph-name="afii10022" unicode="&#x415;" horiz-adv-x="1132" 
d="M891 524h-148l-32 115h-197v-453h317l43 201h191v-387h-1002v150l140 28v1051l-140 33v161h979v-374h-194l-33 186h-301v-412h197l32 111h148v-410z" />
    <glyph glyph-name="afii10024" unicode="&#x416;" horiz-adv-x="1794" 
d="M608 150l137 28v1053l-137 29v163h578v-163l-139 -29v-1053l139 -28v-150h-578v150zM1765 150v-150h-344l-334 709l312 530l-105 21v163h455v-163l-131 -27l-266 -432l315 -635zM125 166l309 620l-274 447l-117 27v163h455v-163l-105 -21l312 -530l-334 -709h-344v150z
" />
    <glyph glyph-name="afii10025" unicode="&#x417;" horiz-adv-x="1019" 
d="M455 -27q-131 0 -234 23t-164 61v332h197l51 -205q29 -12 61 -18q30 -6 74 -6q104 0 153 61q50 62 50 158q0 49 -10 92q-10 44 -38 81q-26 35 -77 58t-125 23h-127v186h129q76 0 124 21q49 21 75 56t37 82q10 44 10 95q0 95 -48 142q-49 47 -132 47q-24 0 -68 -6
q-31 -4 -61 -17l-43 -176h-199v305q65 34 163 58t196 24q104 0 189 -19q83 -19 149 -64q62 -43 99 -118q36 -73 36 -182q0 -57 -19 -111q-17 -48 -49 -93q-29 -41 -73 -72q-46 -33 -91 -48v-12q56 -11 104 -36q49 -26 84 -67q34 -40 56 -99q20 -54 20 -126q0 -93 -28 -171
q-28 -79 -90 -136t-156 -90t-225 -33z" />
    <glyph glyph-name="afii10026" unicode="&#x418;" horiz-adv-x="1404" 
d="M891 178v375q0 134 10 255q11 136 25 220h-17q-49 -125 -56 -142q-34 -81 -79 -177l-340 -709h-371v150l140 28v1053l-140 29v163h578v-163l-127 -29v-336q0 -62 -3 -125q-4 -84 -7 -124q-6 -78 -11 -116q-3 -20 -7.5 -53t-6.5 -45h15q9 22 33 102q18 59 59 146l348 743
h407v-163l-139 -29v-1053l139 -28v-150h-577v150z" />
    <glyph glyph-name="afii10027" unicode="&#x419;" horiz-adv-x="1404" 
d="M715 1530q-171 -2 -275 66q-106 69 -123 204l240 39q7 -72 49 -100q40 -27 111 -27q66 0 110 26q45 26 52 101l231 -39q-10 -128 -116 -197q-104 -68 -279 -73zM891 178v375q0 134 10 255q11 136 25 220h-17q-49 -125 -56 -142q-34 -81 -79 -177l-340 -709h-371v150
l140 28v1053l-140 29v163h578v-163l-127 -29v-336q0 -62 -3 -125q-4 -84 -7 -124q-6 -78 -11 -116q-3 -20 -7.5 -53t-6.5 -45h15q9 22 33 102q18 59 59 146l348 743h407v-163l-139 -29v-1053l139 -28v-150h-577v150z" />
    <glyph glyph-name="afii10028" unicode="&#x41a;" horiz-adv-x="1318" 
d="M63 150l140 28v1053l-140 29v163h590v-163l-139 -29v-1053l139 -28v-150h-590v150zM1296 150v-150h-360l-401 717l385 522l-125 21v163h471v-163l-131 -29l-316 -426l367 -637z" />
    <glyph glyph-name="afii10029" unicode="&#x41b;" horiz-adv-x="1320" 
d="M680 150l127 28v1059h-252l-37 -651q-11 -182 -40 -293q-30 -114 -77 -182t-108 -95q-59 -26 -135 -26q-15 0 -47 2q-27 2 -50 6l-55 233q65 -4 124 9q54 12 92 65t62 162q22 99 33 297l23 467l-133 29v163h1050v-163l-139 -29v-1053l139 -28v-150h-577v150z" />
    <glyph glyph-name="afii10030" unicode="&#x41c;" horiz-adv-x="1638" 
d="M598 1423l135 -505q28 -100 42 -178q18 -99 22 -130h4q3 16 6.5 35.5t8.5 47t8 45.5q13 70 44 180l150 505h557v-163l-139 -29v-1051l139 -30v-150h-582v150l137 30v565q0 66 2 156q2 71 3 118q1 19 2.5 49t1.5 38q1 14 2.5 37.5t1.5 30.5h-4q-23 -110 -49 -206
q-18 -68 -58 -200l-162 -520h-213l-145 495q-19 65 -32 117q-10 41 -28 121q-16 69 -23 110q-3 18 -8 45.5t-7 37.5h-4q3 -55 4 -72q1 -43 3 -106q1 -20 1.5 -61.5t0.5 -62.5q1 -44 1 -129v-563l139 -30v-150h-496v150l138 30v1051l-138 29v163h535z" />
    <glyph glyph-name="afii10031" unicode="&#x41d;" horiz-adv-x="1425" 
d="M784 150l127 28v453h-397v-453l127 -28v-150h-578v150l140 28v1053l-140 29v163h578v-163l-127 -29v-408h397v408l-127 29v163h578v-163l-139 -29v-1053l139 -28v-150h-578v150z" />
    <glyph glyph-name="afii10032" unicode="&#x41e;" horiz-adv-x="1269" 
d="M637 -27q-140 0 -245 42t-176 131q-69 87 -106 229q-36 139 -36 334q0 389 144 565t419 176q277 0 418 -175t141 -562q0 -393 -140 -566q-141 -174 -419 -174zM639 162q65 0 107 26q44 27 71 90t39 167q12 105 12 266q0 158 -12 263q-12 106 -39 169t-71 90t-107 27
q-65 0 -108 -27t-70 -90t-39 -169q-12 -105 -12 -261q0 -161 12 -267q12 -107 39 -170q27 -64 70 -89t108 -25z" />
    <glyph glyph-name="afii10033" unicode="&#x41f;" horiz-adv-x="1406" 
d="M768 150l125 28v1051h-379v-1051l127 -28v-150h-578v150l140 28v1053l-140 29v163h1280v-163l-139 -29v-1053l139 -28v-150h-575v150z" />
    <glyph glyph-name="afii10034" unicode="&#x420;" horiz-adv-x="1179" 
d="M633 731q52 0 85 11q36 12 59 41t34 79q10 47 10 123q0 78 -10 125q-11 50 -34 78q-24 28 -61 40q-34 11 -91 11h-111v-508h119zM672 1423q239 0 350 -108t111 -320q0 -219 -107 -335q-106 -115 -356 -115h-156v-365l176 -30v-150h-627v150l140 30v1047l-140 33v163h609z
" />
    <glyph glyph-name="afii10035" unicode="&#x421;" horiz-adv-x="1130" 
d="M676 -27q-162 0 -277 50t-186 143q-70 92 -105 231q-34 135 -34 312q0 173 29 305q30 135 100 233t184 150q115 53 287 53q114 0 215 -26q98 -25 166 -72v-316h-209l-41 201q-26 15 -56 19q-40 6 -67 6q-80 0 -133 -30q-55 -32 -84 -95q-31 -69 -43 -169
q-12 -104 -12 -251q0 -155 11 -251q12 -106 42 -173t83 -99t134 -32q86 0 154 31l43 192h196v-315q-77 -43 -177 -69q-109 -28 -220 -28z" />
    <glyph glyph-name="afii10036" unicode="&#x422;" horiz-adv-x="1204" 
d="M301 150l145 28v1061h-155l-35 -248h-203v432h1098v-432h-203l-35 248h-155v-1061l145 -28v-150h-602v150z" />
    <glyph glyph-name="afii10037" unicode="&#x423;" horiz-adv-x="1241" 
d="M782 309q-41 -109 -73 -166q-37 -66 -84 -109t-108 -61q-60 -18 -142 -18h-21l-82 242q117 -5 171 27q56 33 85 91l-417 926l-101 19v163h559v-161l-129 -21l176 -448q21 -51 39 -119q20 -73 29 -121h4q7 47 25 120q15 61 35 122l149 444l-123 23v161h455v-163l-99 -19z
" />
    <glyph glyph-name="afii10038" unicode="&#x424;" horiz-adv-x="1554" 
d="M492 121l139 31v65q-290 11 -433 131q-145 122 -145 377q0 254 147 377q146 123 431 133v68l-139 30v162h573v-162l-139 -30v-68q287 -11 431 -132q144 -122 144 -376q0 -255 -142 -376q-143 -122 -433 -134v-65l139 -31v-150h-573v150zM369 727q0 -167 67 -253t201 -91
v688q-134 -5 -201 -92q-67 -88 -67 -252zM1188 727q0 161 -69 250q-68 87 -199 92v-686q129 6 198 95q70 90 70 249z" />
    <glyph glyph-name="afii10039" unicode="&#x425;" horiz-adv-x="1304" 
d="M49 150l111 22l317 567l-289 500l-104 21v163h559v-161l-113 -17l189 -356l170 354l-121 19v161h459v-163l-113 -17l-266 -502l305 -569l104 -22v-150h-571v147l129 25l-211 406l-213 -406l131 -25v-147h-473v150z" />
    <glyph glyph-name="afii10040" unicode="&#x426;" horiz-adv-x="1431" 
d="M1337 1423v-163l-139 -29v-1038h193v-478h-195l-37 285h-1096v150l140 28v1053l-140 29v163h578v-163l-127 -29v-1038h373v1038l-125 29v163h575z" />
    <glyph glyph-name="afii10041" unicode="&#x427;" horiz-adv-x="1345" 
d="M25 1260v163h573v-163l-123 -29v-324q0 -111 35 -161t115 -50q62 0 114 19q47 17 92 45v471l-122 29v163h573v-163l-139 -29v-1053l139 -28v-150h-575v150l124 28l3 404q-56 -50 -135 -81q-77 -30 -177 -30q-80 0 -146 21q-70 22 -114 68q-48 50 -73 130q-25 81 -25 205
v336z" />
    <glyph glyph-name="afii10042" unicode="&#x428;" horiz-adv-x="1982" 
d="M1919 1423v-163l-139 -29v-1053l139 -28v-150h-1856v150l140 28v1053l-140 29v163h564v-163l-113 -29v-1038h322v1038l-123 29v163h557v-163l-123 -29v-1038h319v1038l-112 29v163h565z" />
    <glyph glyph-name="afii10043" unicode="&#x429;" horiz-adv-x="2013" 
d="M1919 1423v-163l-139 -29v-1038h190v-478h-194l-35 285h-1678v150l140 28v1053l-140 29v163h564v-163l-113 -29v-1038h322v1038l-123 29v163h557v-163l-123 -29v-1038h319v1038l-112 29v163h565z" />
    <glyph glyph-name="afii10044" unicode="&#x42a;" horiz-adv-x="1400" 
d="M719 184h104q56 0 98 12q43 12 69 38q27 27 42 76q15 48 15 120t-14 120q-13 46 -39 72q-25 25 -66 34q-45 10 -97 10h-112v-482zM268 150l140 30v1049h-146l-37 -236h-198v430h829v-161l-137 -31v-383h153q259 0 371 -106q111 -105 111 -322q0 -125 -42 -206t-118 -129
q-79 -49 -181 -67q-105 -18 -233 -18h-512v150z" />
    <glyph glyph-name="afii10045" unicode="&#x42b;" horiz-adv-x="1814" 
d="M63 150l140 30v1051l-140 29v163h586v-161l-135 -31v-383h133q259 0 371 -106q110 -104 110 -322q0 -126 -39 -204q-40 -80 -113 -129q-73 -48 -175 -68q-99 -19 -230 -19h-508v150zM514 184h84q55 0 97 12q45 13 70 38q27 27 42 76q14 45 14 120t-13 120q-14 47 -40 72
t-67 34q-45 10 -95 10h-92v-482zM1149 150l139 28v1053l-139 29v163h590v-163l-140 -29v-1053l140 -28v-150h-590v150z" />
    <glyph glyph-name="afii10046" unicode="&#x42c;" horiz-adv-x="1196" 
d="M63 150l140 30v1051l-140 29v163h586v-161l-135 -31v-383h154q258 0 370 -106q111 -105 111 -322q0 -124 -40 -204t-113 -129q-73 -48 -175 -68q-99 -19 -229 -19h-529v150zM514 184h104q56 0 98 12q43 12 69 38q27 27 42 76q15 48 15 120t-14 120q-14 47 -40 72
q-27 25 -66 34q-45 10 -95 10h-113v-482z" />
    <glyph glyph-name="afii10047" unicode="&#x42d;" horiz-adv-x="1134" 
d="M727 813q-5 127 -21 204q-18 85 -51 139q-33 55 -84 80q-52 26 -122 26q-29 0 -74 -7q-41 -6 -68 -22l-39 -201h-207v322q69 42 176 68q106 26 226 26q167 0 282 -50t186 -145q70 -94 100 -231t30 -311q0 -173 -33 -310q-34 -140 -104 -232q-73 -95 -187 -145
q-117 -51 -278 -51q-111 0 -219 27q-111 28 -179 72v307h201l43 -189q61 -30 152 -30q80 0 128 26q52 29 81 83q31 58 44 144q12 79 17 205h-440v195h440z" />
    <glyph glyph-name="afii10048" unicode="&#x42e;" horiz-adv-x="1871" 
d="M1251 -27q-126 0 -221 37q-97 38 -165 115t-107 199q-40 124 -47 288h-197v-434l127 -28v-150h-578v150l140 28v1053l-140 29v163h578v-163l-127 -29v-424h199q15 335 149 488q135 155 389 155q269 0 408 -177q139 -176 139 -560q0 -389 -137 -565q-136 -175 -410 -175z
M1255 162q64 0 104 26q41 27 66 91q24 63 36 168t12 264q0 156 -12 261q-12 107 -37 170q-25 64 -67 91t-106 27q-61 0 -102 -27q-42 -28 -67 -90q-23 -57 -36 -169q-12 -105 -12 -261q0 -152 13 -266q12 -108 38 -168q28 -64 69 -91q40 -26 101 -26z" />
    <glyph glyph-name="afii10049" unicode="&#x42f;" horiz-adv-x="1302" 
d="M788 1239h-108q-111 0 -169 -59t-58 -201q0 -68 15 -113q14 -42 43 -71q25 -25 69 -38q40 -12 92 -12h116v494zM150 170q21 45 41 85q26 51 65 110q38 57 81 114q48 62 93 105q-147 38 -216 136q-69 99 -69 269q0 128 41 213q40 83 116 133q75 50 178 69q101 19 229 19
h530v-149l-139 -31v-1050l139 -31v-162h-588v160l137 30v373h-110q-5 -9 -19.5 -36t-23.5 -44q-19 -35 -56 -107q-20 -39 -60 -119q-4 -8 -55 -113q-40 -83 -44 -91q-5 -10 -10.5 -22t-9 -19.5t-5.5 -11.5h-358v152z" />
    <glyph glyph-name="afii10065" unicode="&#x430;" horiz-adv-x="1038" 
d="M459 166q45 0 75 15q29 14 54 38v254h-62q-94 0 -137 -33t-43 -131q0 -77 27 -110t86 -33zM987 20q-25 -15 -76 -31q-50 -16 -106 -16q-71 0 -121 24t-72 89q-15 -15 -45 -43q-23 -22 -52 -36q-31 -16 -66 -24q-42 -10 -89 -10q-61 0 -120 19q-56 18 -96 57
q-39 37 -62 99q-23 61 -23 145q0 175 111 255q110 79 362 79h56v51q0 84 -28 126q-27 40 -116 40q-78 0 -144 -21q-69 -22 -138 -55l-82 184q84 59 191 91t235 32q180 0 275 -77q96 -78 96 -267v-485q0 -54 16 -69t82 -13z" />
    <glyph glyph-name="afii10066" unicode="&#x431;" horiz-adv-x="1042" 
d="M518 -27q-104 0 -188 33q-83 33 -144 107q-59 72 -92 191q-33 118 -33 288q0 171 13 314q12 130 41 227q28 92 79 157q52 66 125 109q89 53 192 72q104 20 226 30l37 78h152l-49 -330q-55 0 -90 1q-46 1 -109 -2q-59 -3 -115 -12q-55 -9 -106 -32q-98 -44 -142 -124
t-61 -210h12q21 49 58 82q40 35 79 54q42 20 89 28q48 8 86 8q215 0 310 -128t95 -412q0 -144 -33 -244q-33 -101 -93 -164t-146 -92q-87 -29 -193 -29zM518 150q47 0 76 16q30 17 48 58q17 40 25 112q7 64 7 176q0 105 -7 167q-8 68 -25 107q-19 42 -47 59t-73 17
q-50 0 -78 -17q-31 -19 -49 -59q-17 -39 -25 -109q-8 -74 -8 -171q0 -99 8 -173q8 -71 25 -110q18 -41 48 -57q29 -16 75 -16z" />
    <glyph glyph-name="afii10067" unicode="&#x432;" horiz-adv-x="1071" 
d="M61 899v148h533q100 0 171 -17q69 -16 111 -48t60 -78t18 -103q0 -97 -52 -158q-53 -62 -150 -84q134 -7 196 -76q62 -68 62 -166q0 -90 -31 -152q-30 -59 -87 -97q-58 -38 -134 -53q-78 -15 -170 -15h-527v150l115 18v711zM719 328q0 78 -30 113q-30 34 -120 34h-104
v-313h96q95 0 126 45q32 46 32 121zM465 885v-258h98q65 0 89 40q24 41 24 95q0 58 -25 91q-24 32 -92 32h-94z" />
    <glyph glyph-name="afii10068" unicode="&#x433;" horiz-adv-x="870" 
d="M465 883v-715l125 -21v-147h-529v147l115 21l-2 713l-113 18v148h787v-373h-184l-31 209h-168z" />
    <glyph glyph-name="afii10069" unicode="&#x434;" horiz-adv-x="1132" 
d="M14 182h142q39 76 64 162q24 84 36 173q11 83 16 180q4 81 4 184l-112 18v148h772v-865h170v-413h-195l-37 231h-630l-35 -231h-195v413zM645 864h-160q-7 -168 -27 -336q-19 -165 -83 -346h270v682z" />
    <glyph glyph-name="afii10070" unicode="&#x435;" horiz-adv-x="985" 
d="M543 -27q-117 0 -212 31q-91 30 -152 97t-91 172q-31 109 -31 253q0 287 120 418t335 131q103 0 177 -26q77 -27 129 -87q53 -61 80 -158q28 -101 28 -239v-116h-559q0 -76 11 -123q12 -51 36 -84t66 -48q45 -16 106 -16q82 0 137 21q56 21 121 61l78 -164
q-76 -59 -167 -91q-90 -32 -212 -32zM514 901q-34 0 -60 -12q-24 -11 -43 -43q-16 -27 -29 -85q-11 -52 -13 -138h274q0 82 -6 136q-6 55 -21 86q-16 33 -39 44q-25 12 -63 12z" />
    <glyph glyph-name="afii10072" unicode="&#x436;" horiz-adv-x="1529" 
d="M1130 864l-73 15v170h403v-175l-117 -16l-176 -276l232 -414l98 -18v-150h-317l-269 520zM909 168l76 -21v-147h-459v147l95 21v688l-95 29v164h383v-881zM618 502l-268 -502h-317v150l98 18l231 395l-176 295l-116 16v175h254z" />
    <glyph glyph-name="afii10073" unicode="&#x437;" horiz-adv-x="919" 
d="M418 -27q-120 0 -218 36t-157 95l80 166q42 -31 115 -61q70 -29 135 -29q89 0 138 34q50 35 50 110q0 59 -38 91q-37 31 -126 31h-123v172h115q99 0 129 41q31 42 31 107q0 74 -39 101q-40 28 -94 28q-32 0 -63 -4q-36 -5 -56 -14l-31 -144h-172v250q121 90 328 90
q195 0 300 -63t105 -205q0 -107 -51 -165t-119 -87q109 -23 154 -93t45 -165q0 -88 -35 -150q-34 -61 -95 -99q-58 -37 -140 -55q-80 -18 -168 -18z" />
    <glyph glyph-name="afii10074" unicode="&#x438;" horiz-adv-x="1206" 
d="M57 899v148h394v-467q0 -50 -1 -75q-1 -13 -2.5 -37.5t-1.5 -36.5q-1 -35 -6 -65q-7 -46 -8 -51h4q10 33 38 116q24 69 67 153l241 463h252v-879l113 -21v-147h-393v418q0 101 10 177q3 21 8.5 63.5t7.5 58.5h-4q-8 -26 -43 -123q-27 -74 -78 -168l-231 -426h-252v881z
" />
    <glyph glyph-name="afii10075" unicode="&#x439;" horiz-adv-x="1206" 
d="M604 1182q-91 0 -154 25t-108 67q-43 40 -66 92q-22 49 -28 104l209 39q5 -35 14 -60q11 -30 27 -51q17 -22 43 -35t65 -13q80 0 113 47q32 46 43 112l203 -39q-6 -50 -31 -104q-23 -49 -69 -92q-45 -42 -108 -67t-153 -25zM57 899v148h394v-467q0 -50 -1 -75
q-1 -13 -2.5 -37.5t-1.5 -36.5q-1 -35 -6 -65q-7 -46 -8 -51h4q10 33 38 116q24 69 67 153l241 463h252v-879l113 -21v-147h-393v418q0 101 10 177q3 21 8.5 63.5t7.5 58.5h-4q-8 -26 -43 -123q-27 -74 -78 -168l-231 -426h-252v881z" />
    <glyph glyph-name="afii10076" unicode="&#x43a;" horiz-adv-x="1130" 
d="M731 864l-94 15v170h424v-175l-117 -16l-209 -268l264 -422l99 -18v-150h-318l-309 520zM469 168l96 -21v-147h-499v147l114 21v688l-114 29v164h403v-881z" />
    <glyph glyph-name="afii10077" unicode="&#x43b;" horiz-adv-x="1093" 
d="M1059 147v-147h-404v864h-176l-33 -426q-11 -136 -36 -216q-27 -87 -69 -138q-43 -52 -95 -73t-115 -21q-33 0 -70 6l-59 207q52 0 91 10t70 38q28 25 47 75q17 43 23 118l31 437l-117 18v148h797v-879z" />
    <glyph glyph-name="afii10078" unicode="&#x43c;" horiz-adv-x="1429" 
d="M1368 899l-115 -20v-711l115 -19v-149h-407l2 492q0 60 5 162q4 72 11 169h-4q-23 -94 -51 -179q-24 -74 -58 -161l-127 -274h-161l-93 211q-48 109 -74 216q-27 111 -42 187h-4q1 -8 2.5 -29t2.5 -34q4 -52 5 -90q1 -44 3 -104q1 -36 1 -103v-295l96 -18v-150h-418v150
l117 18v711l-117 20v148h469l80 -234q43 -122 58 -189q16 -71 28 -139h4q9 40 21 100q11 54 39 126l125 336h487v-148z" />
    <glyph glyph-name="afii10079" unicode="&#x43d;" horiz-adv-x="1185" 
d="M61 899v148h404v-435h256v269l-94 18v148h497v-148l-112 -18v-713l112 -21v-147h-403v428h-256v-260l94 -21v-147h-498v147l115 21l-2 713z" />
    <glyph glyph-name="afii10080" unicode="&#x43e;" horiz-adv-x="1042" 
d="M520 -27q-107 0 -194 32q-86 32 -146 98q-59 65 -91 172t-32 253t32 251t91 170q61 67 146 97q83 29 194 29q107 0 195 -31q84 -30 145 -98q59 -67 91 -172q32 -107 32 -252t-32 -252q-32 -106 -91 -171q-60 -66 -145 -96t-195 -30zM522 150q46 0 75 20q29 21 46 66
t24 117q7 67 7 179q0 197 -32 281q-31 82 -122 82q-46 0 -75 -19t-46 -63q-15 -40 -23 -114q-7 -66 -7 -173q0 -109 7 -176q8 -77 24 -117q18 -45 47 -64t75 -19z" />
    <glyph glyph-name="afii10081" unicode="&#x43f;" horiz-adv-x="1177" 
d="M61 899v148h1055v-148l-115 -18v-713l115 -21v-147h-403v862h-248v-694l94 -21v-147h-498v147l115 21l-2 713z" />
    <glyph glyph-name="afii10082" unicode="&#x440;" horiz-adv-x="1136" 
d="M453 930q24 27 48 50q28 26 62 47q35 21 76 35q39 13 90 13q70 0 132 -25t109 -86q45 -59 73 -163q28 -106 28 -256q0 -167 -27 -275q-28 -112 -75 -173q-49 -64 -119 -90q-68 -25 -156 -25q-74 0 -131 23q-58 23 -100 65v-306l115 -20v-139h-519v139l115 20v1082
l-115 28v175h365zM608 170q91 0 121 83q31 85 31 275q0 99 -7 158q-8 64 -24 101q-17 39 -44 54t-69 15q-48 0 -86 -16q-37 -16 -67 -41v-570q24 -24 61 -41q39 -18 84 -18z" />
    <glyph glyph-name="afii10083" unicode="&#x441;" horiz-adv-x="925" 
d="M516 -27q-100 0 -185 31q-84 31 -144 98q-60 68 -93 172q-33 105 -33 252q0 157 37 261q38 107 100 170q64 65 148 92q82 26 184 26q106 0 184 -23q79 -23 136 -71v-254h-193l-30 150q-13 9 -39 14q-21 4 -49 4q-43 0 -72 -13q-31 -14 -52 -52t-33 -105q-11 -62 -11 -176
q0 -124 13 -193q13 -71 40 -111t65 -52q42 -13 93 -13q63 0 116 21q59 23 103 53l78 -160q-64 -58 -155 -89q-93 -32 -208 -32z" />
    <glyph glyph-name="afii10084" unicode="&#x442;" horiz-adv-x="1030" 
d="M659 881v-713l115 -21v-147h-516v147l113 21v713h-119l-31 -207h-184v373h956v-373h-184l-31 207h-119z" />
    <glyph glyph-name="afii10085" unicode="&#x443;" horiz-adv-x="1075" 
d="M666 881v166h397v-173l-82 -16l-279 -858q-39 -117 -82 -184q-47 -75 -105 -122q-60 -49 -130 -74q-73 -26 -160 -42l-67 203q148 22 222 76q73 53 103 143h-75l-273 860l-110 14v173h358l156 -601q10 -38 27 -119q10 -46 22 -120h2q7 55 20 118q9 41 29 117l119 424z
" />
    <glyph glyph-name="afii10086" unicode="&#x444;" horiz-adv-x="1425" 
d="M459 1335v164h395v-463q45 13 77 20q34 7 85 7q71 0 138 -25q65 -24 113 -86q47 -61 76 -166q29 -107 29 -262q0 -159 -29 -266q-28 -104 -78 -164q-48 -58 -117 -83q-63 -23 -142 -23q-54 0 -89 9q-39 10 -63 19v-243l113 -21v-147h-508v147l112 21v245q-27 -14 -66 -22
q-40 -8 -91 -8q-74 0 -140 21q-63 20 -114 80q-50 59 -78 163q-29 107 -29 270q0 152 29 257q29 104 78 167q50 63 115 90q66 27 143 27q49 0 82 -6q31 -6 71 -21v271zM496 172q15 0 43 2q17 1 43 10v678q-5 1 -18.5 3.5t-20.5 4.5q-16 4 -43 4q-85 0 -119 -79
q-35 -81 -35 -265q0 -95 8 -169q7 -66 26 -110t46 -61q28 -18 70 -18zM926 170q44 0 74 18t48 62q16 39 24 110q7 63 7 166q0 191 -32 268q-32 78 -115 78q-29 0 -47 -3q-36 -6 -41 -7v-678q12 -4 38 -10q17 -4 44 -4z" />
    <glyph glyph-name="afii10087" unicode="&#x445;" horiz-adv-x="1042" 
d="M457 141v-141h-424v147l86 15l231 368l-215 324l-80 20v173h299l201 -379h4l125 196l-78 17v166h391v-173l-90 -18l-219 -313l242 -379l80 -19v-145h-305l-226 399h-4l-131 -241z" />
    <glyph glyph-name="afii10088" unicode="&#x446;" horiz-adv-x="1191" 
d="M61 899v148h404v-859h244v693l-95 18v148h498v-148l-115 -18v-693h170v-419h-194l-35 231h-877v147l113 21v713z" />
    <glyph glyph-name="afii10089" unicode="&#x447;" horiz-adv-x="1120" 
d="M551 899v148h508v-148l-113 -18v-713l115 -21v-147h-518v147l112 21v244q-51 -33 -111 -51q-57 -17 -128 -17q-124 0 -205 73q-80 72 -80 238v226l-113 18v148h404v-369q0 -78 24 -111q23 -32 80 -32q30 0 67 8q34 7 62 22v316z" />
    <glyph glyph-name="afii10090" unicode="&#x448;" horiz-adv-x="1630" 
d="M575 899v148h386v-859h204v693l-94 18v148h498v-148l-113 -18v-713l113 -21v-147h-1508v147l113 21v713l-113 18v148h404v-859h205v693z" />
    <glyph glyph-name="afii10091" unicode="&#x449;" horiz-adv-x="1650" 
d="M575 899v148h386v-859h204v693l-94 18v148h498v-148l-113 -18v-693h170v-419h-194l-35 231h-1336v147l113 21v713l-113 18v148h404v-859h205v693z" />
    <glyph glyph-name="afii10092" unicode="&#x44a;" horiz-adv-x="1198" 
d="M766 899l-115 -18v-228h101q126 0 205 -19q82 -20 128 -60q49 -42 67 -99q19 -58 19 -141q0 -93 -30 -156q-29 -62 -86 -103q-54 -40 -132 -58q-72 -17 -169 -17h-508v150l116 18v713h-110l-31 -236h-194v402h739v-148zM651 492v-330h68q94 0 127 49t33 125q0 80 -31 119
q-30 37 -127 37h-70z" />
    <glyph glyph-name="afii10093" unicode="&#x44b;" horiz-adv-x="1533" 
d="M61 899v148h519v-148l-113 -18v-228h80q125 0 202 -19q78 -19 125 -60q49 -43 66 -99q18 -60 18 -141q0 -95 -29 -156q-30 -62 -84 -103q-53 -40 -129 -58q-71 -17 -167 -17h-488v150l115 18v711zM963 899v148h510v-148l-113 -18v-713l113 -21v-147h-402v881zM467 492
v-330h47q90 0 120 49t30 125q0 31 -6 71q-4 30 -21 48t-45 27q-32 10 -76 10h-49z" />
    <glyph glyph-name="afii10094" unicode="&#x44c;" horiz-adv-x="1011" 
d="M61 899v148h519v-148l-113 -18v-228h100q125 0 204 -19q81 -20 129 -60q50 -42 67 -99q18 -60 18 -141q0 -91 -31 -156q-29 -62 -86 -103q-54 -40 -132 -58q-72 -17 -169 -17h-506v150l115 18v711zM467 492v-330h65q94 0 127 49t33 125q0 82 -30 119t-125 37h-70z" />
    <glyph glyph-name="afii10095" unicode="&#x44d;" horiz-adv-x="952" 
d="M420 -27q-127 0 -220 40q-94 40 -155 98l80 159q53 -36 114 -62q65 -28 132 -28q52 0 88 11q39 12 66 42t45 83q18 52 24 133h-299v167h303q-5 92 -17 141q-14 55 -36 85q-22 29 -55 42q-29 11 -72 11q-21 0 -59 -5q-30 -4 -56 -16l-31 -141h-174v252q112 88 328 88
q110 0 194 -26q87 -27 147 -90t93 -167q33 -105 33 -264q0 -143 -35 -250q-34 -103 -98 -172q-62 -67 -150 -99q-87 -32 -190 -32z" />
    <glyph glyph-name="afii10096" unicode="&#x44e;" horiz-adv-x="1568" 
d="M1055 -27q-193 0 -307 109q-114 110 -132 354h-151v-268l113 -21v-147h-517v147l115 21l-2 713l-113 18v148h404v-433h151q17 250 130 354q114 105 309 105q103 0 190 -31q83 -30 144 -97q59 -65 91 -172q31 -103 31 -253q0 -149 -31 -251q-32 -105 -91 -170
q-60 -66 -145 -96q-86 -30 -189 -30zM1057 150q44 0 70 20q28 22 44 66q17 47 23 117q6 72 6 177q0 198 -31 283q-30 82 -114 82q-42 0 -68 -19t-43 -63q-15 -40 -23 -114q-8 -75 -8 -173q0 -210 34 -293t110 -83z" />
    <glyph glyph-name="afii10097" unicode="&#x44f;" horiz-adv-x="1069" 
d="M123 168q33 54 86 128q39 54 98 122q-121 28 -172 103t-51 200q0 85 31 149q30 62 86 101q55 39 132 57q81 19 169 19h506v-148l-117 -20v-711l117 -18v-150h-406v397h-74l-202 -397h-299v145zM602 551v334h-67q-48 0 -78 -12q-31 -13 -48 -32q-17 -20 -25 -51
q-7 -28 -7 -67q0 -87 32 -130q31 -42 123 -42h70z" />
    <glyph glyph-name="uni0450" unicode="&#x450;" horiz-adv-x="985" 
d="M543 -27q-117 0 -212 31q-91 30 -152 97t-91 172q-31 109 -31 253q0 287 120 418t335 131q103 0 177 -26q77 -27 129 -87q53 -61 80 -158q28 -101 28 -239v-116h-559q0 -76 11 -123q12 -51 36 -84t66 -48q45 -16 106 -16q82 0 137 21q56 21 121 61l78 -164
q-76 -59 -167 -91q-90 -32 -212 -32zM514 901q-34 0 -60 -12q-24 -11 -43 -43q-16 -27 -29 -85q-11 -52 -13 -138h274q0 82 -6 136q-6 55 -21 86q-16 33 -39 44q-25 12 -63 12zM674 1147l-445 209l138 239l389 -309z" />
    <glyph glyph-name="afii10071" unicode="&#x451;" horiz-adv-x="985" 
d="M543 -27q-117 0 -212 31q-91 30 -152 97t-91 172q-31 109 -31 253q0 287 120 418t335 131q103 0 177 -26q77 -27 129 -87q53 -61 80 -158q28 -101 28 -239v-116h-559q0 -76 11 -123q12 -51 36 -84t66 -48q45 -16 106 -16q82 0 137 21q56 21 121 61l78 -164
q-76 -59 -167 -91q-90 -32 -212 -32zM514 901q-34 0 -60 -12q-24 -11 -43 -43q-16 -27 -29 -85q-11 -52 -13 -138h274q0 82 -6 136q-6 55 -21 86q-16 33 -39 44q-25 12 -63 12zM297 1159q-63 0 -110 44q-46 43 -46 110q0 65 45 111t107 46q65 0 111 -46q47 -47 47 -111
q0 -66 -47 -110t-107 -44zM723 1159q-65 0 -111 44q-45 43 -45 110q0 64 44 111q43 46 108 46t111 -46q47 -47 47 -111q0 -66 -47 -110t-107 -44z" />
    <glyph glyph-name="afii10099" unicode="&#x452;" horiz-adv-x="1175" 
d="M51 1049h129v258l-114 28v164h403v-450h336v-174h-336v-261q73 67 141 101q70 35 164 35q118 0 181 -72t63 -211v-326q0 -126 -20 -217q-19 -88 -63 -148q-44 -61 -118 -103q-73 -42 -182 -81l-78 166q42 25 81 59q31 27 52 61q22 36 29 80q8 50 8 112v299q0 76 -21 111
q-21 34 -77 34q-46 0 -85 -16q-42 -17 -75 -43v-287l109 -21v-147h-512v147l114 21v706h-129v175z" />
    <glyph glyph-name="afii10100" unicode="&#x453;" horiz-adv-x="870" 
d="M465 883v-715l125 -21v-147h-529v147l115 21l-2 713l-113 18v148h787v-373h-184l-31 209h-168zM311 1286l391 309l138 -239l-447 -209z" />
    </font>
</defs>
</svg>
