<?xml version="1.0" standalone="no"?>
<!DOCTYPE svg PUBLIC "-//W3C//DTD SVG 1.1//EN" "http://www.w3.org/Graphics/SVG/1.1/DTD/svg11.dtd" >
<svg xmlns="http://www.w3.org/2000/svg" xmlns:xlink="http://www.w3.org/1999/xlink" version="1.1">
<metadata>
Created by FontForge 20170731 at Fri Sep 18 17:19:03 2020
 By Aleksey,,,
2010 Erik Spiekermann, Christian Schwartz, Kris Sowersby published by FSI FontShop International GmbH
</metadata>
<defs>
<font id="FFUnitSlabPro-Ultra" horiz-adv-x="1126" >
  <font-face 
    font-family="FF Unit Slab Pro Ultra"
    font-weight="900"
    font-stretch="normal"
    units-per-em="2048"
    panose-1="2 1 11 4 4 1 1 1 1 2"
    ascent="1638"
    descent="-410"
    x-height="1073"
    cap-height="1427"
    bbox="-1018 -602 2931 2253"
    underline-thickness="204"
    underline-position="-214"
    unicode-range="U+0020-FB04"
  />
<missing-glyph horiz-adv-x="1058" 
d="M59 1427h940v-1427h-940v1427zM692 307v813h-325v-813h325z" />
    <glyph glyph-name="uniFB00" unicode="ff" horiz-adv-x="1343" 
d="M1286 240v-240h-610v240l86 18v557h-240v-557l82 -18v-240h-569v240l86 18v557h-86v258h86v49q0 106 37 177q39 74 94 118q58 46 128 65q69 19 140 19q107 0 174 -14q76 -16 148 -51q44 49 111 70q69 22 155 22q103 0 175 -26q75 -27 110 -46l-74 -235q-19 9 -45 16
q-24 6 -55 6q-56 0 -56 -65v-105h164v-258h-164v-557zM762 1196q-26 9 -57 14q-40 7 -62 7q-60 0 -90 -27q-31 -28 -31 -86v-31h240v123z" />
    <glyph glyph-name="fi" unicode="fi" horiz-adv-x="1265" 
d="M522 815v-557l82 -18v-240h-569v240l86 18v557h-86v258h86v57q0 118 39 194q40 78 103 122q64 45 148 63q87 19 169 19q139 0 226 -23q86 -23 124 -43l-88 -278q-30 11 -81 22q-49 11 -95 11q-56 0 -100 -23t-44 -92v-29h641v-815l86 -18v-240h-573v240l86 18v557h-240z
" />
    <glyph glyph-name="fl" unicode="fl" horiz-adv-x="1265" 
d="M604 240v-240h-569v240l86 18v557h-86v258h86v64q0 113 33 190t88 120q56 44 129 62q78 19 155 19q95 0 173 -25q74 -24 130 -57l60 59h274v-1247l86 -18v-240h-573v240l86 18v942q-34 15 -74 21q-39 6 -74 6q-48 0 -70 -28t-22 -75v-51h164v-258h-164v-557z" />
    <glyph glyph-name="uniFB03" unicode="ffi" horiz-adv-x="1906" 
d="M539 1501q105 0 184 -21q74 -20 154 -57q66 60 155 82q92 23 189 23q139 0 226 -23q86 -23 124 -43l-88 -278q-30 11 -81 22q-49 11 -95 11q-56 0 -100 -23t-44 -92v-29h641v-815l86 -18v-240h-573v240l86 18v557h-240v-557l82 -18v-240h-569v240l86 18v557h-240v-557
l82 -18v-240h-569v240l86 18v557h-86v258h86v49q0 106 37 177q39 75 96 118q62 46 134 65q73 19 151 19zM762 1130q0 22 1 32t3 32q-22 10 -60 16q-42 7 -63 7q-60 0 -90 -27q-31 -28 -31 -86v-31h240v57z" />
    <glyph glyph-name="uniFB04" unicode="ffl" horiz-adv-x="1906" 
d="M539 1501q102 0 178 -18q72 -17 147 -53q57 52 135 75q80 23 168 23q95 0 173 -25q74 -24 130 -57l60 59h274v-1247l86 -18v-240h-573v240l86 18v942q-34 15 -74 21q-39 6 -74 6q-48 0 -70 -28t-22 -75v-51h164v-258h-164v-557l82 -18v-240h-569v240l86 18v557h-240v-557
l82 -18v-240h-569v240l86 18v557h-86v258h86v49q0 106 37 177q39 75 96 118q62 46 134 65q73 19 151 19zM762 1167q0 9 2 29q-27 8 -59 14q-40 7 -62 7q-60 0 -90 -27q-31 -28 -31 -86v-31h240v94z" />
    <glyph glyph-name=".notdef" horiz-adv-x="1058" 
d="M59 1427h940v-1427h-940v1427zM692 307v813h-325v-813h325z" />
    <glyph glyph-name=".null" horiz-adv-x="0" 
 />
    <glyph glyph-name="nonmarkingreturn" horiz-adv-x="389" 
 />
    <glyph glyph-name="space" unicode=" " horiz-adv-x="389" 
 />
    <glyph glyph-name="exclam" unicode="!" horiz-adv-x="616" 
d="M74 1427h469l-99 -968h-272zM88 193q0 46 16 85q15 37 47 69q29 29 69 47t87 18t87 -18q41 -18 70 -47q30 -30 46 -69t16 -85t-16 -85q-17 -40 -46 -70q-29 -29 -70 -47q-40 -18 -87 -18t-87 18t-69 47q-31 31 -47 70t-16 85z" />
    <glyph glyph-name="quotedbl" unicode="&#x22;" horiz-adv-x="1013" 
d="M72 1427h393l-49 -620h-295zM549 1427h393l-49 -620h-295z" />
    <glyph glyph-name="numbersign" unicode="#" 
d="M590 373h-144l-47 -373h-233l47 373h-131v254h162l24 190h-141v254h174l45 354h234l-45 -354h143l45 354h233l-45 -354h133v-254h-165l-25 -190h145v-254h-176l-47 -373h-233zM477 627h144l24 190h-143z" />
    <glyph glyph-name="dollar" unicode="$" 
d="M393 -20q-110 11 -179 33q-76 24 -128 53v348h266l54 -152q16 -10 45 -18q30 -8 63 -8q68 0 102 25q35 26 35 101q0 40 -9 67q-9 28 -30 47q-20 19 -55 34t-84 27q-121 30 -198 75q-75 44 -121 104q-46 59 -62 131q-16 70 -16 159q0 192 87 292q88 102 230 136v262h318
v-250q78 -11 143 -28q69 -18 119 -42v-325h-271l-38 125q-26 10 -44 13t-51 3q-44 0 -75 -23t-31 -82q0 -53 38 -85q37 -31 136 -58q103 -28 189 -70q79 -39 128 -97q50 -59 72 -139q23 -83 23 -194q0 -184 -80 -299q-79 -114 -258 -153v-260h-318v248z" />
    <glyph glyph-name="percent" unicode="%" horiz-adv-x="1939" 
d="M367 961q0 -65 4 -98q4 -37 12 -58q7 -20 21 -28q13 -7 32 -7t32 7q14 8 21 28q9 25 13 58t4 98q0 64 -4 97t-13 58q-7 20 -21 28q-13 7 -32 7t-32 -7q-14 -8 -21 -28q-8 -21 -12 -58q-4 -33 -4 -97zM51 961q0 99 29 172q28 71 81 118q54 48 122 70q67 22 153 22
q84 0 153 -22t123 -70q53 -47 81 -118t28 -172q0 -102 -28 -173t-81 -118q-54 -48 -123 -70t-153 -22q-86 0 -153 22q-68 22 -122 70q-53 47 -81 118q-29 73 -29 173zM750 0h-295l735 1317h295zM1573 356q0 65 -4 98t-13 58q-7 20 -21 28q-13 7 -32 7t-32 -7q-14 -8 -21 -28
q-8 -21 -12 -58q-4 -33 -4 -98q0 -64 4 -97q4 -37 12 -58q7 -20 21 -28q13 -7 32 -7t32 7q14 8 21 28q9 25 13 58t4 97zM1888 356q0 -101 -28 -172t-81 -118q-54 -48 -123 -70q-72 -23 -153 -23q-82 0 -153 23q-68 22 -122 70q-53 47 -81 118q-29 73 -29 172t29 172t81 119
q54 48 122 70q67 22 153 22q84 0 153 -22t123 -70q52 -46 81 -119q28 -71 28 -172z" />
    <glyph glyph-name="ampersand" unicode="&#x26;" horiz-adv-x="1347" 
d="M942 801h365v-242l-111 -33q-16 -85 -31 -127q-17 -49 -45 -94l33 -37l141 -32v-236h-376l-62 76q-56 -49 -141 -76q-84 -27 -205 -27q-86 0 -172 21q-88 22 -154 67t-110 126q-43 79 -43 194q0 81 22 144t61 113q37 47 87 82q44 31 102 54q-13 20 -44 68q-17 27 -34 65
q-12 28 -21 75q-7 38 -7 95q0 169 110 273t322 104q100 0 180 -26q79 -26 130 -71q52 -46 79 -111q26 -62 26 -140q0 -133 -69 -214q-67 -79 -211 -140l172 -232q3 20 5 67q1 24 1 93v121zM467 571q-21 -23 -30 -62q-9 -41 -9 -87q0 -90 42 -137t128 -47q36 0 60 7
q33 10 51 21zM629 920q27 21 44 38q16 16 26 38q10 21 14 42q4 20 4 52q0 42 -19 74q-18 30 -59 30q-43 0 -62 -27q-20 -28 -20 -71q0 -50 12 -81t35 -65z" />
    <glyph glyph-name="quotesingle" unicode="'" horiz-adv-x="536" 
d="M72 1427h393l-49 -620h-295z" />
    <glyph glyph-name="parenleft" unicode="(" horiz-adv-x="796" 
d="M92 614q0 204 25 374q24 160 88 283q61 117 173 198q108 78 281 122l97 -227q-60 -29 -108 -74q-48 -44 -77 -124q-31 -85 -46 -213q-15 -132 -15 -339t15 -339q15 -128 46 -213q29 -78 77 -123t108 -74l-97 -227q-175 44 -281 121q-111 80 -173 199q-64 123 -88 282
q-25 169 -25 374z" />
    <glyph glyph-name="parenright" unicode=")" horiz-adv-x="796" 
d="M705 614q0 -205 -25 -374q-24 -159 -88 -282q-62 -119 -173 -199q-105 -76 -282 -121l-96 227q58 28 107 74q48 45 77 123q31 85 46 213q16 141 16 339t-16 339q-15 128 -46 213q-29 80 -77 124q-49 46 -107 74l96 227q175 -44 282 -122q112 -81 173 -198
q64 -123 88 -283q25 -170 25 -374z" />
    <glyph glyph-name="asterisk" unicode="*" horiz-adv-x="1026" 
d="M102 1243l271 -69l20 280h238l20 -276l273 65l71 -225l-258 -105l148 -237l-193 -141l-180 213l-178 -213l-193 141l148 235l-258 107z" />
    <glyph glyph-name="plus" unicode="+" 
d="M395 557h-329v324h329v356h336v-356h330v-324h-330v-364h-336v364z" />
    <glyph glyph-name="comma" unicode="," horiz-adv-x="557" 
d="M57 -164q80 28 127 73q45 43 45 95q-72 12 -125 59t-53 144q0 42 17 82q16 38 46 68t68 46q40 17 84 17q46 0 89 -18q47 -19 77 -51q31 -33 53 -84q21 -49 21 -117q0 -181 -105 -300t-290 -159z" />
    <glyph glyph-name="hyphen" unicode="-" horiz-adv-x="671" 
d="M57 774h557v-373h-557v373z" />
    <glyph glyph-name="period" unicode="." horiz-adv-x="548" 
d="M51 197q0 45 18 86q19 43 47 71q30 30 70 48t88 18t88 -18q41 -18 71 -48q28 -28 47 -71q18 -40 18 -86q0 -47 -18 -87q-19 -43 -47 -71q-30 -30 -71 -48q-40 -18 -88 -18t-88 18t-70 48q-28 28 -47 71q-18 40 -18 87z" />
    <glyph glyph-name="slash" unicode="/" horiz-adv-x="831" 
d="M506 1581h305l-526 -1913h-305z" />
    <glyph glyph-name="zero" unicode="0" 
d="M31 713q0 206 29 342q30 141 95 230t166 129t242 40q142 0 243 -40t166 -129q64 -87 94 -230q30 -141 30 -342q0 -200 -30 -341q-30 -143 -94 -230q-65 -89 -166 -129t-243 -40q-141 0 -242 40t-166 129t-95 230q-29 136 -29 341zM662 713q0 139 -5 241q-5 101 -15 144
q-12 50 -31 68t-48 18t-48 -18t-31 -68q-10 -43 -15 -144q-4 -81 -4 -241q0 -159 4 -240q5 -100 15 -143q12 -52 31 -69q18 -17 48 -17t48 17q19 17 31 69q10 43 15 143q5 102 5 240z" />
    <glyph glyph-name="one" unicode="1" 
d="M121 260l262 31v637l-190 -68l-103 215l416 352h295v-1136l243 -31v-260h-923v260z" />
    <glyph glyph-name="two" unicode="2" 
d="M1034 0h-977v295q113 105 217 207q99 97 164 174q69 81 104 150q36 70 36 141q0 79 -41 112q-40 33 -105 33q-75 0 -136 -19q-52 -16 -140 -55l-105 258q35 28 78 53t108 51q59 24 130 39q69 15 147 15q238 0 369 -114t131 -318q0 -111 -58 -216q-57 -103 -143 -194
q-85 -90 -186 -165q-89 -66 -187 -130h594v-317z" />
    <glyph glyph-name="three" unicode="3" 
d="M471 -27q-82 0 -148 12q-81 15 -120 27q-58 18 -97 37q-29 14 -75 37l65 270q49 -15 148 -34q78 -15 155 -15q104 0 148 37q45 38 45 109q0 64 -35 101q-35 36 -123 36h-153v276h139q90 0 123 36q32 35 32 87q0 67 -37 94q-38 27 -126 27q-73 0 -127 -17
q-68 -22 -107 -38l-98 258q26 18 73 45t95 46q51 20 120 36q62 14 148 14q102 0 186 -22t149 -70q62 -45 97 -121q35 -75 35 -176q0 -125 -64 -210q-65 -86 -171 -116q127 -28 203 -122q75 -93 75 -216q0 -90 -32 -171q-31 -79 -99 -136q-69 -58 -172 -89q-107 -32 -252 -32
z" />
    <glyph glyph-name="four" unicode="4" 
d="M27 258v305l290 864h375l-293 -868h179v414l409 67v-481h113v-301h-113v-258h-409v258h-551z" />
    <glyph glyph-name="five" unicode="5" 
d="M989 1110h-483l-12 -231q12 1 27 3q10 1 42 1q96 0 186 -19q83 -18 146 -65q61 -47 96 -126q35 -81 35 -200q0 -245 -135 -373q-134 -127 -404 -127q-156 0 -272 40q-119 41 -186 79l82 277q78 -28 134 -43q70 -19 152 -19q112 0 155 40q44 41 44 120q0 78 -55 112
q-53 33 -168 33q-61 0 -127 -8q-57 -7 -123 -31l61 854h805v-317z" />
    <glyph glyph-name="six" unicode="6" 
d="M477 852q33 26 94 47q60 21 131 21q81 0 153 -23q71 -23 124 -74q55 -54 84 -133q31 -85 31 -201q0 -261 -136 -389q-134 -127 -374 -127q-541 0 -541 650q0 351 199 565t612 266l90 -283q-101 -27 -182 -57t-135 -65q-57 -37 -93 -84q-36 -46 -57 -113zM455 512
q0 -144 27 -208t100 -64q64 0 91 54t27 161q0 96 -27 144t-104 48q-37 0 -64 -12t-50 -29v-94z" />
    <glyph glyph-name="seven" unicode="7" 
d="M360 1130l-28 -120h-269v417h1008v-333q-58 -76 -135 -185q-72 -102 -135 -237q-65 -138 -110 -307q-44 -165 -60 -394l-416 62q10 197 71 373q58 169 143 314q80 136 173 245q81 95 160 165h-402z" />
    <glyph glyph-name="eight" unicode="8" 
d="M289 657q-117 56 -168 154q-51 99 -51 236q0 99 38 177t103 128t157 76q93 26 199 26q113 0 204 -24t156 -74q64 -49 99 -122t35 -171q0 -109 -64 -175q-62 -64 -153 -85q118 -51 186 -156q66 -102 66 -239q0 -225 -135 -330t-410 -105q-270 0 -396 103
q-124 102 -124 289q0 67 24 118q24 50 64 86q43 38 84 57q42 20 86 31zM496 567q-37 -32 -60 -68q-24 -37 -24 -98q0 -65 34 -114t115 -49q78 0 111 46t33 101q0 59 -36 89q-37 31 -110 65zM608 893q36 30 58 59t22 84q0 69 -31 111q-30 41 -90 41q-51 0 -87 -31
q-34 -30 -34 -100q0 -64 30 -92q32 -30 83 -52z" />
    <glyph glyph-name="nine" unicode="9" 
d="M649 575q-33 -26 -94 -47q-57 -20 -131 -20q-84 0 -153 22q-71 23 -124 74q-55 54 -84 133q-30 83 -30 201q0 262 135 389q134 127 375 127q540 0 540 -649q0 -352 -198 -565q-199 -215 -613 -267l-90 283q105 28 183 57t135 66t93 84q35 45 56 112zM672 915
q0 141 -28 208q-27 65 -99 65q-64 0 -91 -54q-28 -56 -28 -161q0 -95 28 -145q27 -48 103 -48q36 0 65 13q30 13 50 28v94z" />
    <glyph glyph-name="colon" unicode=":" horiz-adv-x="548" 
d="M51 197q0 45 18 86q19 43 47 71q30 30 70 48t88 18t88 -18q41 -18 71 -48q28 -28 47 -71q18 -40 18 -86q0 -47 -18 -87q-19 -43 -47 -71q-30 -30 -71 -48q-40 -18 -88 -18t-88 18t-70 48q-28 28 -47 71q-18 40 -18 87zM51 737q0 45 18 86q20 45 47 72q30 30 70 48t88 18
t88 -18q41 -18 71 -48q27 -27 47 -72q18 -40 18 -86q0 -47 -18 -87q-18 -41 -47 -70q-31 -31 -71 -49q-38 -17 -88 -17t-88 17t-70 49q-29 29 -47 70q-18 40 -18 87z" />
    <glyph glyph-name="semicolon" unicode=";" horiz-adv-x="557" 
d="M57 -164q80 28 127 73q45 43 45 95q-72 12 -125 59t-53 144q0 42 17 82q16 38 46 68t68 46q40 17 84 17q46 0 89 -18q47 -19 77 -51q31 -33 53 -84q21 -49 21 -117q0 -181 -105 -300t-290 -159zM51 737q0 45 18 86q20 45 47 72q30 30 70 48t88 18t88 -18q41 -18 71 -48
q27 -27 47 -72q18 -40 18 -86q0 -47 -18 -87q-18 -41 -47 -70q-31 -31 -71 -49q-38 -17 -88 -17t-88 17t-70 49q-29 29 -47 70q-18 40 -18 87z" />
    <glyph glyph-name="less" unicode="&#x3c;" 
d="M170 612v191l602 446l184 -254l-403 -290l403 -295l-184 -246z" />
    <glyph glyph-name="equal" unicode="=" 
d="M86 1116h952v-323h-952v323zM86 625h952v-324h-952v324z" />
    <glyph glyph-name="greater" unicode="&#x3e;" 
d="M170 418l403 291l-403 295l184 245l602 -448v-191l-602 -446z" />
    <glyph glyph-name="question" unicode="?" horiz-adv-x="954" 
d="M276 604q0 58 5 106q5 49 15 74q14 34 32 55q20 23 51 46q61 43 79 84q17 38 17 94q0 52 -13 85q-13 34 -67 34q-18 0 -27 -1q-14 -1 -24 -3l-31 -142h-250v312q68 46 171 76q102 30 237 30q92 0 170 -21q77 -21 135 -68q57 -47 90 -117q33 -71 33 -167q0 -77 -14 -129
q-15 -54 -42 -98q-25 -40 -68 -77q-37 -31 -91 -60q-50 -27 -87 -57q-38 -30 -38 -89v-114h-283v147zM207 193q0 46 16 85t46 69q29 29 70 47t87 18t87 -18t70 -47q30 -30 46 -69t16 -85t-16 -85q-17 -40 -46 -70q-29 -29 -70 -47t-87 -18t-87 18t-70 47q-29 30 -46 70
q-16 39 -16 85z" />
    <glyph glyph-name="at" unicode="@" horiz-adv-x="1789" 
d="M831 215q24 0 42 14q7 5 34 27l94 418q-14 16 -22 24q-13 13 -39 13q-28 0 -48 -15t-36 -59q-6 -16 -23 -72q-15 -52 -26 -95q-16 -66 -21 -98q-8 -51 -8 -79q0 -45 15 -62q15 -16 38 -16zM948 147q-24 -37 -56 -74q-28 -32 -58 -52q-27 -17 -68 -29q-36 -10 -84 -10
q-107 0 -172 65q-66 66 -66 217q0 72 12 152q13 85 32 155q20 73 55 143q35 69 75 111q53 58 115 76q65 19 119 19q72 0 125 -28q50 -26 88 -77l59 82h248l-131 -565q-9 -45 -11 -60q-3 -23 -3 -41q0 -22 15 -37q16 -16 44 -16q33 0 69 24q35 23 64 77q28 52 48 139
q20 88 20 213q0 143 -36 240q-36 98 -102 158t-162 86t-216 26q-151 0 -274 -67t-208 -180q-88 -117 -133 -263q-47 -152 -47 -314q0 -165 47 -265q46 -98 123 -151q78 -53 172 -68q96 -15 195 -15q109 0 190 17q89 19 162 46l66 -182q-85 -43 -191 -72q-103 -28 -256 -28
q-155 0 -291 35q-138 36 -247 122q-109 87 -174 228q-64 140 -64 354q0 207 67 393q66 183 189 318t295 213q170 77 383 77q181 0 323 -43q145 -44 244 -131q103 -90 154 -221q53 -135 53 -313q0 -181 -45 -305t-116 -203t-157 -113q-88 -35 -174 -35q-128 0 -203 42
q-76 43 -106 130z" />
    <glyph glyph-name="A" unicode="A" horiz-adv-x="1402" 
d="M815 373h-358l-33 -115l111 -25v-233h-498v236l82 24l356 1167h438l373 -1165l80 -26v-236h-627v233l111 27zM528 621h209l-37 120q-27 93 -45 177q-15 71 -20 137h-2q-5 -61 -22 -137q-20 -90 -46 -175z" />
    <glyph glyph-name="B" unicode="B" horiz-adv-x="1216" 
d="M670 266q47 0 71 35q25 36 25 139q0 87 -26 122q-25 34 -78 34h-89v-330h97zM647 862q56 0 80 34q25 36 25 120q0 81 -26 113t-79 32h-74v-299h74zM748 1427q84 0 152 -17q75 -19 126 -58q53 -41 85 -112q32 -72 32 -175q0 -124 -52 -200t-182 -103q133 -28 210 -110
t77 -228q0 -103 -25 -186q-25 -81 -82 -133q-56 -50 -154 -78q-95 -27 -235 -27h-663v236l110 32v891l-110 33v235h711z" />
    <glyph glyph-name="C" unicode="C" horiz-adv-x="1144" 
d="M668 -27q-168 0 -288 50q-119 50 -192 142q-72 91 -107 229q-34 135 -34 311q0 208 42 352q41 142 123 231q80 88 198 127q117 39 266 39q118 0 236 -29q115 -28 188 -86v-325h-279l-41 151q-45 27 -94 27q-47 0 -83 -21t-60 -73q-25 -55 -37 -149q-12 -95 -12 -242
t9 -238q9 -90 32 -144q23 -53 59 -72q38 -20 92 -20q20 0 51 7q28 6 51 22l41 158h279v-344q-38 -21 -88 -39t-110 -33q-56 -14 -120 -22q-76 -9 -122 -9z" />
    <glyph glyph-name="D" unicode="D" horiz-adv-x="1302" 
d="M662 266q38 0 67 18q30 19 47 69q20 58 27 148q8 101 8 249q0 133 -11 207q-12 81 -33 126t-52 62q-29 16 -70 16h-72v-895h89zM692 1427q141 0 245 -37q106 -38 176 -120q71 -84 107 -214q35 -128 35 -319q0 -173 -23 -304q-24 -136 -84 -232q-60 -97 -165 -149
q-104 -52 -268 -52h-678v236l110 32v891l-110 33v235h655z" />
    <glyph glyph-name="E" unicode="E" horiz-adv-x="1153" 
d="M938 516h-209l-33 84h-123v-334h232l47 172h264v-438h-1079v236l110 32v891l-110 33v235h1057v-409h-269l-32 143h-220v-303h123l33 82h209v-424z" />
    <glyph glyph-name="F" unicode="F" horiz-adv-x="1130" 
d="M721 236v-236h-684v236l110 32v891l-110 33v235h1057v-423h-269l-32 157h-220v-346h123l33 78h209v-424h-209l-33 80h-123v-283z" />
    <glyph glyph-name="G" unicode="G" horiz-adv-x="1222" 
d="M633 569v258h508v-827h-273l-49 109q-33 -73 -106 -104q-75 -32 -160 -32q-111 0 -204 39q-94 40 -161 127q-66 86 -104 227q-37 136 -37 339q0 208 42 352q41 142 123 231q80 88 198 127q117 39 266 39q118 0 236 -29q115 -28 188 -86v-325h-279l-41 151q-45 27 -94 27
q-47 0 -83 -21t-60 -73q-25 -55 -37 -149q-12 -95 -12 -242q0 -141 8 -232q7 -84 26 -132q17 -44 47 -60q28 -15 70 -15q33 0 57 8q17 6 33 17v256z" />
    <glyph glyph-name="H" unicode="H" horiz-adv-x="1454" 
d="M770 236l111 32v328h-308v-328l111 -32v-236h-647v236l110 32v891l-110 33v235h647v-235l-111 -33v-297h308v297l-111 33v235h647v-235l-110 -33v-891l110 -32v-236h-647v236z" />
    <glyph glyph-name="I" unicode="I" horiz-adv-x="720" 
d="M37 236l110 32v891l-110 33v235h647v-235l-111 -33v-891l111 -32v-236h-647v236z" />
    <glyph glyph-name="J" unicode="J" horiz-adv-x="720" 
d="M573 150q0 -114 -29 -195q-30 -85 -88 -150q-55 -62 -146 -114q-88 -50 -199 -90l-117 211q57 42 82 72q31 38 46 77q16 42 20 93q5 58 5 122v983l-110 33v235h647v-235l-111 -33v-1009z" />
    <glyph glyph-name="K" unicode="K" horiz-adv-x="1382" 
d="M37 236l110 32v891l-110 33v235h647v-235l-111 -33v-891l111 -32v-236h-647v236zM1346 236v-236h-461l-299 702l309 459l-78 31v235h494v-235l-97 -31l-235 -338l260 -555z" />
    <glyph glyph-name="L" unicode="L" horiz-adv-x="1118" 
d="M573 266h197l47 199h264v-465h-1044v236l110 32v891l-110 33v235h647v-235l-111 -33v-893z" />
    <glyph glyph-name="M" unicode="M" horiz-adv-x="1724" 
d="M559 236v-236h-522v236l110 32v891l-110 33v235h700l88 -385q17 -67 24 -102q10 -49 14 -81q6 -50 8 -75q3 -38 3 -84h5q1 36 5 84q3 35 9 74q5 33 15 80q6 30 26 102l102 387h652v-235l-111 -33v-891l111 -32v-236h-648v236l111 32l-2 441v96q0 55 1 79q0 12 0.5 35
t1.5 35q2 51 5 78h-2q-15 -82 -27 -159t-36 -168l-119 -426h-346l-121 428q-30 105 -41 172q-15 88 -23 151h-4q5 -39 6 -73q2 -57 3 -70q2 -50 2 -80v-539z" />
    <glyph glyph-name="N" unicode="N" horiz-adv-x="1419" 
d="M860 1192v235h522v-235l-110 -33v-1159h-400l-311 571q-20 37 -48 95q-22 45 -32 76q-12 37 -21 73q-14 59 -18 82h-4q5 -45 6 -82l3 -75q2 -50 2 -81v-391l110 -32v-236h-522v236l110 32v891l-110 33v235h581l254 -499q53 -105 73 -178q24 -90 38 -150h4q-8 73 -12 146
q-4 67 -4 182v231z" />
    <glyph glyph-name="O" unicode="O" horiz-adv-x="1286" 
d="M643 -27q-304 0 -450 181t-146 559q0 375 146 559q145 182 450 182q306 0 451 -182t145 -559q0 -380 -145 -559q-146 -181 -451 -181zM643 236q46 0 75 23q30 24 46 80q16 55 22 147q7 107 7 227t-7 227q-6 94 -22 147q-17 57 -46 80q-31 25 -75 25q-46 0 -76 -25
q-28 -24 -45 -80q-16 -53 -22 -147q-6 -92 -6 -227t6 -227t22 -147q16 -56 45 -80q27 -23 76 -23z" />
    <glyph glyph-name="P" unicode="P" horiz-adv-x="1185" 
d="M647 750q32 0 52 10q21 11 35 35q14 25 20 66q6 42 6 106t-7 99q-8 39 -22 59q-16 22 -35 29q-20 7 -45 7h-78v-411h74zM625 1427q130 0 230 -22q99 -22 170 -76q67 -51 104 -142q36 -89 36 -222q0 -134 -28 -224q-28 -91 -94 -149q-65 -58 -169 -83q-107 -26 -258 -26
h-43v-217l148 -30v-236h-684v236l110 32v891l-110 33v235h588z" />
    <glyph glyph-name="Q" unicode="Q" horiz-adv-x="1286" 
d="M1239 713q0 -249 -70 -407q-69 -156 -204 -234l282 -54l-131 -323l-670 289q-97 41 -170 102t-124 150q-52 90 -78 205q-27 118 -27 272q0 375 146 559q145 182 450 182q306 0 451 -182t145 -559zM643 236q46 0 75 23q30 24 46 80q16 55 22 147q7 107 7 227t-7 227
q-6 94 -22 147q-17 57 -46 80q-31 25 -75 25q-46 0 -76 -25q-28 -24 -45 -80q-16 -53 -22 -147q-6 -92 -6 -227t6 -227t22 -147q16 -56 45 -80q27 -23 76 -23z" />
    <glyph glyph-name="R" unicode="R" horiz-adv-x="1339" 
d="M678 799q56 0 81 46t25 146q0 170 -102 170h-109v-362h105zM1303 236v-236h-474l-131 399q-27 79 -45 110q-18 32 -59 32h-21v-273l111 -32v-236h-647v236l110 32v891l-110 33v235h639q149 0 246 -25q96 -25 157 -78q60 -52 85 -130q26 -80 26 -182q0 -85 -23 -149
q-22 -62 -61 -104q-40 -43 -88 -65q-49 -22 -103 -30v-5q44 -8 76 -22q38 -17 64 -41q27 -25 52 -68q24 -41 42 -100l51 -162z" />
    <glyph glyph-name="S" unicode="S" horiz-adv-x="1060" 
d="M475 -27q-145 0 -255 29q-102 27 -173 64v348h266l54 -152q17 -10 45 -18q30 -8 63 -8q69 0 103 25t34 101q0 40 -9 67q-9 28 -30 47q-20 19 -55 34q-34 15 -84 27q-120 30 -197 75t-122 104q-46 59 -62 131q-16 70 -16 159q0 125 39 211q40 88 106 139q69 54 161 76
q91 22 204 22q106 0 211 -21q98 -20 176 -57v-325h-270l-39 125q-25 10 -44 13q-18 3 -51 3q-44 0 -75 -23t-31 -82q0 -53 38 -85q37 -31 136 -58q103 -28 189 -70q79 -39 128 -97q50 -59 72 -139q23 -83 23 -194q0 -227 -126 -349q-127 -122 -409 -122z" />
    <glyph glyph-name="T" unicode="T" horiz-adv-x="1286" 
d="M319 236l111 32v893h-92l-33 -219h-268v485h1212v-485h-268l-33 219h-92v-893l111 -32v-236h-648v236z" />
    <glyph glyph-name="U" unicode="U" horiz-adv-x="1366" 
d="M573 1427v-1026q0 -52 22 -80t73 -28q31 0 68 8q33 7 57 25v833l-111 33v235h537v-1159l110 -32v-236h-411l-50 121q-57 -62 -134 -104q-80 -44 -195 -44q-200 0 -294 124q-95 125 -95 380l-3 682l-110 33v235h536z" />
    <glyph glyph-name="V" unicode="V" horiz-adv-x="1374" 
d="M920 0h-451l-352 1165l-80 27v235h627v-233l-111 -27l143 -487q25 -80 38 -168q11 -76 16 -139h2q7 80 15 136q12 83 36 171l135 489l-111 25v233h510v-235l-82 -25z" />
    <glyph glyph-name="W" unicode="W" horiz-adv-x="1912" 
d="M1876 1192l-82 -25l-223 -1167h-461l-102 489q-14 62 -22 123q-4 27 -11 103q-4 46 -6 89q-1 14 -2.5 42t-1.5 41h-4q-4 -40 -6 -83q-2 -59 -5 -89q-7 -76 -11 -103q-10 -73 -21 -123l-101 -489h-461l-239 1165l-80 27v235h606v-233l-90 -27l78 -473q16 -88 19 -164
q4 -96 7 -147h2q2 26 5.5 74.5t4.5 69.5q5 71 21 167l125 733h399l134 -729q16 -90 24 -175q7 -79 12 -140h2q5 64 9 141q5 87 16 170l66 475l-91 25v233h490v-235z" />
    <glyph glyph-name="X" unicode="X" horiz-adv-x="1390" 
d="M37 236l92 32l324 467l-306 434l-90 23v235h703v-233l-90 -25l127 -200l118 198l-84 27v233h502v-235l-88 -25l-282 -444l297 -451l94 -36v-236h-692v231l102 37l-146 226l-143 -226l100 -37v-231h-538v236z" />
    <glyph glyph-name="Y" unicode="Y" horiz-adv-x="1267" 
d="M315 236l111 32v252l-309 647l-80 27v233h612v-231l-94 -31l82 -184q24 -54 41 -104q12 -36 24 -105q6 48 24 104q12 39 40 105l82 186l-90 29v231h473v-233l-82 -27l-297 -639v-260l111 -32v-236h-648v236z" />
    <glyph glyph-name="Z" unicode="Z" horiz-adv-x="1052" 
d="M37 272l516 889h-182l-33 -143h-268v409h946v-266l-518 -895h207l47 172h264v-438h-979v272z" />
    <glyph glyph-name="bracketleft" unicode="[" horiz-adv-x="761" 
d="M123 1573h577v-256l-180 -21v-1339l180 -20v-256h-577v1892z" />
    <glyph glyph-name="backslash" unicode="\" horiz-adv-x="831" 
d="M852 -332h-305l-527 1913h306z" />
    <glyph glyph-name="bracketright" unicode="]" horiz-adv-x="761" 
d="M639 -319h-578v256l181 20v1339l-181 21v256h578v-1892z" />
    <glyph glyph-name="asciicircum" unicode="^" horiz-adv-x="1081" 
d="M387 1427h307l318 -581h-383l-90 225l-97 -225h-372z" />
    <glyph glyph-name="underscore" unicode="_" horiz-adv-x="819" 
d="M0 -80h819v-307h-819v307z" />
    <glyph glyph-name="grave" unicode="`" horiz-adv-x="1116" 
d="M739 1137l-469 190l179 297l395 -307z" />
    <glyph glyph-name="a" unicode="a" horiz-adv-x="1056" 
d="M551 477h-19q-62 0 -82 -30q-20 -31 -20 -99t14 -90q16 -25 54 -25q30 0 53 17v227zM598 104q-40 -57 -98 -93q-61 -38 -152 -38q-88 0 -146 27t-94 75q-38 50 -52 112q-15 65 -15 141q0 187 118 263q119 77 330 77h62v30q0 51 -22 73t-68 22q-86 0 -165 -22
q-71 -20 -128 -46l-109 233q91 65 211 103q123 39 258 39q109 0 191 -20q81 -20 130 -63q51 -45 75 -116q24 -72 24 -174v-418q0 -47 14 -59t72 -12l13 -211q-49 -24 -107 -39q-57 -15 -127 -15q-75 0 -134 32q-59 31 -81 99z" />
    <glyph glyph-name="b" unicode="b" horiz-adv-x="1079" 
d="M-10 1257v248h487v-506q39 34 95 66q61 35 147 35q79 0 141 -28q57 -26 99 -92q40 -64 60 -170q19 -102 19 -261q0 -175 -22 -284q-23 -112 -66 -176q-44 -65 -105 -90q-64 -26 -143 -26q-101 0 -166 38q-62 36 -114 102l-25 -113h-321v1229zM539 256q27 0 44 13
q18 13 25 47q9 43 12 92q3 57 3 143q0 81 -3 130q-3 46 -13 80q-9 29 -24 40q-14 10 -38 10q-40 0 -68 -23v-512q17 -20 62 -20z" />
    <glyph glyph-name="c" unicode="c" horiz-adv-x="884" 
d="M545 862q-25 0 -42 -11q-19 -12 -30 -45q-13 -36 -17 -94q-5 -67 -5 -159q0 -85 6 -142q6 -60 23 -92q18 -34 46 -49q27 -14 74 -14q44 0 91 10q52 11 95 37l88 -211q-52 -49 -139 -84t-196 -35q-255 0 -377 139q-121 137 -121 433q0 287 131 421t371 134q110 0 179 -21
t132 -51v-309h-240l-30 129q-14 14 -39 14z" />
    <glyph glyph-name="d" unicode="d" horiz-adv-x="1103" 
d="M600 1229l-86 28v248h487v-1247l86 -18v-240h-419l-27 100q-56 -60 -125 -94q-68 -33 -156 -33q-79 0 -141 28q-57 26 -99 92q-40 64 -60 170q-19 102 -19 261q0 175 22 284q23 112 66 176q44 65 105 90q64 26 143 26q74 0 128 -21q58 -22 95 -57v207zM539 817
q-29 0 -45 -13q-18 -15 -25 -47q-8 -38 -11 -91q-3 -57 -3 -144q0 -80 3 -130t12 -80q9 -28 25 -40q14 -10 37 -10q40 0 68 23v512q-17 20 -61 20z" />
    <glyph glyph-name="e" unicode="e" horiz-adv-x="1030" 
d="M457 412q5 -50 14 -73q11 -27 29 -44q19 -17 48 -23q30 -6 73 -6q60 0 137 16q75 16 129 37l90 -231q-62 -40 -163 -78q-98 -37 -239 -37q-277 0 -406 135q-128 134 -128 435q0 151 38 257q38 107 103 172q68 68 156 97q93 31 192 31q122 0 211 -33q90 -33 144 -104
q55 -71 82 -190q26 -114 26 -286v-75h-536zM621 637q0 63 -1 90q-1 38 -10 72q-7 30 -23 47q-15 16 -44 16q-27 0 -44 -10q-18 -10 -27 -36q-8 -23 -13 -70q-5 -44 -6 -109h168z" />
    <glyph glyph-name="f" unicode="f" horiz-adv-x="702" 
d="M645 240v-240h-610v240l86 18v557h-86v258h86v88q0 107 23 175q24 70 68 114q41 41 109 60q65 18 146 18q103 0 175 -26q75 -27 110 -46l-74 -235q-19 9 -45 16q-24 6 -55 6q-56 0 -56 -65v-105h164v-258h-164v-557z" />
    <glyph glyph-name="g" unicode="g" horiz-adv-x="1048" 
d="M1018 1073v-180l-92 -25q35 -81 35 -163q0 -164 -107 -244t-342 -80q-17 0 -63 2q-33 1 -58 8q-7 -8 -11 -20q-5 -13 -5 -29q0 -41 53 -41h256q77 0 138 -17q66 -18 113 -55q50 -39 76 -95q27 -59 27 -140q0 -212 -137 -313t-407 -101q-225 0 -350 68q-124 67 -124 190
q0 40 15 68q15 29 37 48q21 19 51 31q23 10 59 15q-66 24 -90 85q-24 60 -24 124q0 48 13 84q13 35 35 64q21 28 49 49q18 14 56 36q-77 45 -118 123q-40 77 -40 172q0 85 24 152q25 70 76 115q54 47 136 71q88 25 205 25q56 0 97 -7q42 -7 85 -20h332zM338 -76
q-2 -14 -2 -26q0 -54 43 -81q45 -28 123 -28q86 0 141 24t55 72q0 37 -23 48q-24 12 -81 12h-248zM508 588q44 0 62 37t18 114q0 76 -17 112q-16 34 -59 34q-45 0 -60 -32q-16 -34 -16 -112t15 -115q15 -38 57 -38z" />
    <glyph glyph-name="h" unicode="h" horiz-adv-x="1185" 
d="M680 0v719q0 40 -18 58t-50 18q-28 0 -50 -8q-28 -10 -40 -17v-512l86 -18v-240h-573v240l86 18v971l-86 28v248h487v-522q65 54 125 85q62 32 148 32q135 0 212 -72q76 -72 76 -242v-528l86 -18v-240h-489z" />
    <glyph glyph-name="i" unicode="i" horiz-adv-x="624" 
d="M313 1126q-47 0 -88 18t-71 48q-31 31 -49 71q-17 38 -17 87q0 48 17 86q18 40 49 71q30 30 71 48t88 18t88 -18q43 -19 72 -48q30 -30 48 -71q18 -40 18 -86t-18 -87t-48 -71q-29 -29 -72 -48q-41 -18 -88 -18zM608 0h-573v240l86 18v526l-86 29v260h487v-815l86 -18
v-240z" />
    <glyph glyph-name="j" unicode="j" horiz-adv-x="579" 
d="M-14 -172q74 23 105 74q30 49 30 127v755l-86 29v260h487v-997q0 -100 -22 -181q-23 -83 -75 -146q-51 -61 -140 -102q-87 -40 -217 -55zM313 1126q-47 0 -88 18t-71 48q-31 31 -49 71q-17 38 -17 87q0 48 17 86q18 40 49 71q30 30 71 48t88 18t88 -18q43 -19 72 -48
q30 -30 48 -71q18 -40 18 -86t-18 -87t-48 -71q-29 -29 -72 -48q-41 -18 -88 -18z" />
    <glyph glyph-name="k" unicode="k" horiz-adv-x="1171" 
d="M608 0h-573v240l86 18v971l-86 28v248h487v-1247l86 -18v-240zM659 817v256h484v-260l-111 -16l-131 -172l174 -365l80 -20v-240h-381l-248 526l215 279z" />
    <glyph glyph-name="l" unicode="l" horiz-adv-x="624" 
d="M608 0h-573v240l86 18v971l-86 28v248h487v-1247l86 -18v-240z" />
    <glyph glyph-name="m" unicode="m" horiz-adv-x="1746" 
d="M1051 965q64 55 131 94q70 41 174 41q136 0 212 -72q77 -72 77 -242v-528l86 -18v-240h-490v719q0 40 -18 58t-49 18q-29 0 -51 -8q-28 -10 -40 -17v-512l86 -18v-240h-489v719q0 40 -18 58t-50 18q-28 0 -50 -8q-28 -10 -40 -17v-512l86 -18v-240h-573v240l86 18v526
l-86 29v260h420l28 -112q20 18 64 52q36 28 69 45q35 18 81 31q40 11 98 11q89 0 156 -31q65 -30 100 -104z" />
    <glyph glyph-name="n" unicode="n" horiz-adv-x="1185" 
d="M680 0v719q0 40 -18 58t-50 18q-28 0 -50 -8q-28 -10 -40 -17v-512l86 -18v-240h-573v240l86 18v526l-86 29v260h420l28 -112q20 18 64 52q36 28 69 45q35 18 81 31q40 11 98 11q135 0 212 -72q76 -72 76 -242v-528l86 -18v-240h-489z" />
    <glyph glyph-name="o" unicode="o" horiz-adv-x="1064" 
d="M457 537q0 -103 3 -167q3 -69 10 -100q8 -35 23 -47t39 -12q25 0 40 12t23 47q7 31 10 100q3 64 3 167q0 102 -3 165q-3 67 -10 100q-7 36 -23 48q-15 12 -40 12q-24 0 -39 -12q-16 -12 -23 -48q-7 -33 -10 -100q-3 -63 -3 -165zM41 537q0 296 124 429q125 134 367 134
q243 0 368 -134q124 -133 124 -429t-124 -429q-126 -135 -368 -135q-241 0 -367 135q-124 133 -124 429z" />
    <glyph glyph-name="p" unicode="p" horiz-adv-x="1124" 
d="M608 -147v-240h-573v240l86 18v913l-86 29v260h420l28 -112q44 47 121 94q74 45 160 45q79 0 141 -28q59 -26 100 -92q39 -62 59 -170q19 -102 19 -261q0 -175 -22 -284q-23 -112 -66 -176q-44 -65 -105 -90q-64 -26 -142 -26q-79 0 -131 24t-95 64v-190zM584 256
q27 0 44 13q18 13 25 47q9 43 12 92q3 57 3 143q0 81 -3 130q-3 46 -13 80q-9 29 -24 40q-14 10 -38 10q-40 0 -68 -23v-512q17 -20 62 -20z" />
    <glyph glyph-name="q" unicode="q" horiz-adv-x="1079" 
d="M692 1073h312v-1202l86 -18v-240h-574v240l86 18v190q-51 -45 -109 -66q-61 -22 -133 -22q-79 0 -141 28q-57 26 -99 92q-40 64 -60 170q-19 102 -19 261q0 175 22 284q23 112 66 176q44 65 105 90q64 26 143 26q92 0 160 -35q67 -35 114 -84zM539 817q-29 0 -45 -13
q-18 -15 -25 -47q-8 -38 -11 -91q-3 -57 -3 -144q0 -80 3 -130t12 -80q9 -28 25 -40q14 -10 37 -10q40 0 68 23v512q-17 20 -61 20z" />
    <glyph glyph-name="r" unicode="r" horiz-adv-x="841" 
d="M483 936q39 58 107 106t139 48q18 0 58 -6q29 -4 49 -11l-31 -371q-33 16 -75 24q-39 7 -77 7q-45 0 -74 -7q-38 -9 -57 -15v-453l123 -18v-240h-610v240l86 18v526l-86 29v260h420z" />
    <glyph glyph-name="s" unicode="s" horiz-adv-x="868" 
d="M401 -27q-133 0 -216 21q-87 22 -154 57v266h243l37 -100q16 -7 35 -12q16 -4 41 -4q47 0 73 17q27 18 27 50q0 23 -6 38q-6 16 -22 27q-12 9 -47 21q-29 10 -80 21q-160 35 -238 123t-78 247q0 169 114 262t325 93q110 0 191 -21q83 -22 145 -51v-260h-240l-31 88
q-32 14 -74 14q-45 0 -67 -19q-23 -20 -23 -48q0 -37 34 -58q31 -19 124 -36q179 -34 252 -127q72 -92 72 -244q0 -92 -33 -161q-33 -70 -91 -114q-57 -44 -139 -67q-81 -23 -174 -23z" />
    <glyph glyph-name="t" unicode="t" horiz-adv-x="720" 
d="M20 815v258h93v238l401 63v-301h174v-258h-174v-479q0 -44 13 -58q14 -16 46 -16q23 0 45 3t39 9l43 -247q-36 -17 -101 -35q-70 -19 -171 -19q-72 0 -129 15q-59 15 -99 50q-43 37 -65 97t-22 154v526h-93z" />
    <glyph glyph-name="u" unicode="u" horiz-adv-x="1167" 
d="M1151 240v-240h-422l-20 106q-9 -8 -56 -46q-29 -23 -67 -43q-35 -18 -81 -31q-47 -13 -95 -13q-136 0 -212 72q-77 72 -77 242v497l-86 29v260h487v-731q0 -44 23 -59t45 -15q43 0 74 25v491l-70 29v260h471v-815z" />
    <glyph glyph-name="v" unicode="v" horiz-adv-x="1062" 
d="M616 813v260h431v-260l-72 -22l-244 -791h-377l-266 791l-72 22v260h533v-260l-64 -22l50 -177q2 -8 17 -67q5 -20 11 -64q3 -25 7 -70q1 -14 4 -45.5t4 -43.5h2q6 53 12 89q5 33 12 70q8 44 13 64q6 25 18 67l45 177z" />
    <glyph glyph-name="w" unicode="w" horiz-adv-x="1609" 
d="M711 0h-408l-215 791l-72 22v260h533v-260l-64 -22l31 -136q5 -25 15 -71q9 -43 14 -72q8 -48 11 -78l9 -90h2q7 88 22 167q28 146 29 151l80 411h308l90 -422q17 -72 24 -139q14 -122 17 -168h2q8 104 22 168q23 104 31 137l35 142l-64 22v260h430v-260l-71 -22
l-193 -791h-399l-72 297q-3 13 -7.5 35.5t-6.5 31.5q-9 43 -11 59q-1 7 -4.5 28.5t-5.5 34.5q-5 35 -6 79h-2l-8 -80q-1 -33 -6 -63q-7 -44 -10 -61q-2 -9 -7 -31t-8 -35z" />
    <glyph glyph-name="x" unicode="x" horiz-adv-x="1167" 
d="M479 231v-231h-444v240l74 14l231 291l-231 248l-64 20v260h596v-242l-55 -18l82 -104h4l84 104l-54 18v242h420v-260l-75 -18l-213 -248l249 -295l68 -12v-240h-592v231l57 13l-106 114h-4l-80 -114z" />
    <glyph glyph-name="y" unicode="y" horiz-adv-x="1062" 
d="M313 0l-225 791l-72 22v260h533v-260l-64 -22l45 -197q5 -26 16 -70q7 -29 12 -62q5 -38 8 -70q0 -3 2.5 -36t4.5 -53h2q3 29 13 89q7 42 12 71q7 40 13 63q9 35 18 68l49 197l-64 22v260h431v-260l-72 -22l-238 -789q-35 -115 -73 -190q-39 -76 -99 -124t-148 -72
q-89 -24 -222 -36l-93 273q182 17 263 55q82 39 100 92h-152z" />
    <glyph glyph-name="z" unicode="z" horiz-adv-x="899" 
d="M35 264l399 563h-137l-27 -112h-225v358h825v-264l-397 -563h154l22 114h234v-360h-848v264z" />
    <glyph glyph-name="braceleft" unicode="{" horiz-adv-x="749" 
d="M20 743q84 0 110 26t26 85v365q0 102 26 167q28 69 75 109q48 41 115 59q70 19 146 19h191v-268h-62q-59 0 -77 -29q-17 -27 -17 -88v-291q0 -75 -17 -122q-19 -52 -51 -81q-35 -32 -76 -46t-100 -19v-4q55 -4 100 -20q41 -14 76 -46q32 -29 51 -81q17 -47 17 -122v-290
q0 -62 17 -89q18 -28 77 -28h62v-268h-191q-84 0 -146 17q-69 19 -115 59q-48 42 -75 110q-26 65 -26 168v364q0 59 -26 85t-110 26v233z" />
    <glyph glyph-name="bar" unicode="|" horiz-adv-x="530" 
d="M123 1581h285v-1913h-285v1913z" />
    <glyph glyph-name="braceright" unicode="}" horiz-adv-x="749" 
d="M729 510q-83 0 -109 -26t-26 -85v-364q0 -101 -27 -168q-28 -70 -74 -110t-115 -59q-62 -17 -147 -17h-190v268h61q59 0 77 28q18 29 18 89v290q0 75 17 122q19 53 50 81q34 31 77 46q45 16 99 20v4q-57 5 -99 19q-43 15 -77 46q-31 28 -50 81q-17 47 -17 122v291
q0 60 -18 88q-18 29 -77 29h-61v268h190q77 0 147 -19q67 -18 115 -59q46 -39 74 -109q27 -67 27 -167v-365q0 -59 26 -85t109 -26v-233z" />
    <glyph glyph-name="asciitilde" unicode="~" horiz-adv-x="1142" 
d="M47 559q62 154 150 248t198 94q65 0 110 -13q38 -11 83 -29q23 -9 67 -29q29 -13 64 -13q30 0 58 20t50 66l271 -143q-62 -155 -150 -247q-88 -93 -198 -93q-66 0 -111 13q-42 12 -84 29q-52 21 -68 28q-31 14 -63 14q-64 0 -107 -88z" />
    <glyph glyph-name="uni00A0" unicode="&#xa0;" horiz-adv-x="389" 
 />
    <glyph glyph-name="exclamdown" unicode="&#xa1;" horiz-adv-x="616" 
d="M172 614h272l99 -968h-469zM88 881q0 46 16 85q15 37 47 69q29 29 69 47t87 18t87 -18q41 -18 70 -47q30 -30 46 -69t16 -85t-16 -85q-17 -40 -46 -70q-29 -29 -70 -47q-38 -17 -87 -17t-87 17q-40 18 -69 47q-31 31 -47 70t-16 85z" />
    <glyph glyph-name="cent" unicode="&#xa2;" 
d="M645 862q-25 0 -42 -11q-19 -12 -30 -45q-13 -36 -17 -94q-5 -67 -5 -159q0 -85 6 -142q6 -58 24 -92t46 -49q27 -14 73 -14q45 0 92 10q52 11 95 37l88 -211q-33 -33 -86 -61q-48 -25 -117 -41v-258h-317v264q-160 45 -237 179t-77 370q0 224 80 354q80 129 234 176v287
h317v-272q51 -10 97 -26t85 -36v-309h-239l-31 129q-14 14 -39 14z" />
    <glyph glyph-name="sterling" unicode="&#xa3;" 
d="M627 1180q-55 0 -75 -38t-20 -104q0 -32 6 -92q3 -30 13 -88h311v-250h-262q0 -4 0.5 -8.5t1.5 -10t1 -8.5q1 -9 1 -28q0 -74 -41 -147q-40 -71 -114 -109h290l47 104h265v-401h-975v309q67 37 106 106t39 138q0 19 -1 28l-3 27h-141v250h76q-17 69 -22 98q-9 50 -9 103
q0 89 30 161q30 73 90 125q58 51 150 80t213 29q140 0 244 -29q101 -28 178 -75v-320h-266l-43 133q-32 11 -42 13q-17 4 -48 4z" />
    <glyph glyph-name="currency" unicode="&#xa4;" 
d="M1006 719q0 -37 -6 -95q-5 -45 -15 -85l125 -123l-260 -275l-115 111q-50 -19 -79 -25q-38 -8 -93 -8t-93 8q-29 6 -79 25l-115 -111l-260 275l125 123q-10 40 -15 85q-5 48 -5 95t5 95q5 45 15 85l-125 123l260 274l115 -110q44 17 79 24q43 9 93 9t93 -9q35 -7 79 -24
l115 110l260 -274l-125 -123q10 -40 15 -85q6 -58 6 -95zM563 973q-28 0 -42 -10q-15 -11 -23 -38q-10 -35 -11 -77q-2 -66 -2 -129t2 -129q1 -42 11 -77q8 -27 23 -38q14 -10 42 -10t42 10q17 12 24 38q9 31 10 77q2 66 2 129t-2 129q-1 46 -10 77q-7 26 -24 38
q-14 10 -42 10z" />
    <glyph glyph-name="yen" unicode="&#xa5;" 
d="M49 922h135l-104 245l-60 27v233h566v-231l-74 -31l61 -174q20 -56 34 -105q10 -36 22 -100q7 52 20 99q8 28 35 108l59 174l-67 29v231h430v-233l-62 -27l-100 -245h129v-217h-219l-37 -93h256v-217h-291v-127l111 -32v-236h-647v236l110 32v127h-307v217h266l-39 93
h-227v217z" />
    <glyph glyph-name="brokenbar" unicode="&#xa6;" horiz-adv-x="530" 
d="M123 496h285v-828h-285v828zM123 1581h285v-827h-285v827z" />
    <glyph glyph-name="section" unicode="&#xa7;" horiz-adv-x="1116" 
d="M408 516q0 -26 7 -41q7 -16 28 -31q15 -11 60 -27q37 -13 99 -30l53 -14q29 8 41 30q13 24 13 48q0 23 -8 41q-7 15 -28 30q-18 13 -60 28q-37 14 -99 30l-53 14q-28 -7 -41 -31q-12 -23 -12 -47zM41 416q0 111 52 175q53 65 136 105q-61 50 -87 117q-25 66 -25 148
q0 185 126 284q125 98 357 98q62 0 111 -6q48 -6 91 -15q41 -9 79 -24q7 -3 32.5 -12.5t38.5 -15.5v-271h-237l-35 93q-35 14 -90 14q-47 0 -75 -22t-28 -60q0 -18 9 -36q8 -15 29 -29q18 -12 58 -25q36 -12 93 -27q110 -29 184 -58q77 -30 124 -70q50 -42 70 -96
q21 -57 21 -136q0 -107 -52 -171q-54 -67 -136 -106q62 -50 87 -116t25 -148q0 -186 -126 -285q-125 -98 -357 -98q-117 0 -202 22q-75 20 -150 52v270h237l35 -92q35 -14 90 -14q48 0 75 21q28 22 28 61t-38 63t-151 53q-104 26 -182 57q-79 31 -124 69q-49 41 -71 96
q-22 54 -22 135z" />
    <glyph glyph-name="dieresis" unicode="&#xa8;" horiz-adv-x="1116" 
d="M336 1151q-42 0 -74 14q-35 15 -61 40q-27 25 -42 60q-16 37 -16 72q0 81 54 138q52 55 131 55q40 0 74 -14q38 -16 63 -41q27 -27 42 -62t15 -76q0 -37 -15 -72q-15 -34 -41 -60q-25 -25 -59 -40q-32 -14 -71 -14zM786 1151q-42 0 -74 14q-35 15 -61 40q-25 24 -41 60
q-14 32 -14 72q0 83 51 138t129 55q84 0 140 -55q57 -55 57 -138q0 -37 -15 -72q-16 -37 -39 -60q-25 -25 -60 -40q-32 -14 -73 -14z" />
    <glyph glyph-name="copyright" unicode="&#xa9;" horiz-adv-x="1421" 
d="M61 731q0 169 38 312q37 139 118 240t202 153q123 53 292 53q166 0 290 -53q122 -52 203 -153t118 -240q38 -143 38 -312t-38 -312q-37 -139 -118 -240q-80 -99 -203 -152q-127 -54 -290 -54q-167 0 -292 54q-122 53 -202 152q-81 101 -118 240q-38 143 -38 312zM659 725
q0 -75 5 -130q5 -54 14 -79q10 -28 28 -40q16 -11 44 -11q35 0 61 16l25 103h208v-244q-55 -31 -133 -52q-83 -22 -180 -22q-108 0 -187 31q-78 31 -124 90q-49 63 -69 145q-21 85 -21 195q0 149 34 241q36 96 90 146q58 54 132 74q73 20 162 20q82 0 160 -23
q82 -24 128 -63v-227h-202l-21 98q-25 17 -57 17q-28 0 -48 -14t-30 -46q-9 -29 -14 -88q-5 -62 -5 -137zM1184 731q0 135 -23 252q-22 112 -76 197q-52 81 -145 127q-92 45 -229 45q-139 0 -231 -45t-144 -127q-54 -85 -76 -197q-22 -111 -22 -252q0 -142 22 -253
q22 -110 76 -195q52 -82 144 -127t231 -45q137 0 229 45q93 46 145 127q54 85 76 195q23 117 23 253z" />
    <glyph glyph-name="ordfeminine" unicode="&#xaa;" horiz-adv-x="995" 
d="M502 762h-27q-49 0 -65 -27q-17 -28 -17 -82q0 -51 14 -73q13 -21 48 -21q25 0 47 12v191zM549 444q-26 -40 -82 -78q-52 -36 -139 -36q-82 0 -138 24q-53 23 -89 68q-34 43 -49 101q-15 59 -15 126q0 84 29 142q29 59 80 92q54 35 128 50q77 15 172 15h56v25
q0 46 -20 64t-60 18q-67 0 -136 -16q-64 -15 -116 -44l-117 226q77 51 188 87q106 35 238 35q206 0 296 -80q91 -81 91 -262v-368q0 -39 13 -52q12 -12 65 -12l10 -190q-45 -23 -96 -36q-49 -13 -115 -13q-69 0 -120 26q-53 27 -74 88z" />
    <glyph glyph-name="guillemotleft" unicode="&#xab;" horiz-adv-x="1212" 
d="M629 197l-223 -136l-365 467l365 467l223 -135l-187 -332zM1130 197l-223 -136l-364 467l364 467l223 -135l-186 -332z" />
    <glyph glyph-name="logicalnot" unicode="&#xac;" 
d="M668 604h-547v324h883v-611h-336v287z" />
    <glyph glyph-name="uni00AD" unicode="&#xad;" horiz-adv-x="671" 
d="M57 774h557v-373h-557v373z" />
    <glyph glyph-name="registered" unicode="&#xae;" horiz-adv-x="1101" 
d="M61 924q0 126 33 228q33 103 95 172q65 72 154 109q90 37 208 37t208 -37q88 -36 153 -109q63 -71 96 -172q32 -99 32 -228q0 -130 -32 -229q-33 -101 -96 -172q-64 -71 -153 -108q-93 -38 -208 -38t-208 38q-91 37 -154 108q-62 69 -95 172q-33 102 -33 229zM893 924
q0 211 -82 321q-83 111 -260 111t-260 -111q-82 -110 -82 -321q0 -212 82 -322t260 -110t260 110t82 322zM565 969q23 0 32 15t9 52q0 60 -43 60h-37v-127h39zM811 762v-117h-184l-47 160q-5 19 -15 35q-7 12 -24 12h-15v-80l29 -10v-117h-242v117l33 10v318l-33 10v117h283
q99 0 140 -40q42 -41 42 -126q0 -71 -28 -102t-68 -36v-4q35 -8 50 -26t26 -54l18 -57z" />
    <glyph glyph-name="macron" unicode="&#xaf;" horiz-adv-x="1116" 
d="M256 1497h602v-283h-602v283z" />
    <glyph glyph-name="degree" unicode="&#xb0;" horiz-adv-x="811" 
d="M403 705q-158 0 -261 95q-101 94 -101 279q0 93 29 165q30 74 77 118q51 48 117 70t146 22q76 0 142 -21t115 -67q48 -45 75 -116q28 -73 28 -171q0 -92 -27 -161q-29 -73 -75 -118q-50 -48 -117 -72q-65 -23 -148 -23zM408 909q40 0 61 38q20 36 20 140q0 98 -20 128
q-21 32 -61 32q-37 0 -61 -33q-23 -32 -23 -133q0 -97 21 -134q21 -38 63 -38z" />
    <glyph glyph-name="plusminus" unicode="&#xb1;" 
d="M395 788h-329v318h329v270h336v-270h330v-318h-330v-270h-336v270zM66 399h995v-317h-995v317z" />
    <glyph glyph-name="twosuperior" unicode="&#xb2;" horiz-adv-x="782" 
d="M741 516h-698v244q66 50 123 90q52 37 99 79q43 38 67 76q24 37 24 82q0 82 -84 82q-54 0 -89 -14q-39 -16 -74 -31l-76 205q64 48 151 83q84 34 207 34q159 0 242 -80q82 -79 82 -209q0 -82 -44 -149q-42 -64 -107 -115t-131 -84q-74 -37 -118 -57h426v-236z" />
    <glyph glyph-name="threesuperior" unicode="&#xb3;" horiz-adv-x="757" 
d="M352 504q-106 0 -199 30q-95 31 -143 76l58 191q37 -17 99 -38q53 -18 107 -18q49 0 80 14t31 48q0 61 -78 61h-129v217h121q38 0 60 11t22 45q0 28 -20 42q-19 13 -66 13q-55 0 -94 -13t-74 -32l-84 180q47 46 129 80q84 35 199 35q63 0 123 -12q58 -12 105 -42
q46 -30 73 -79q26 -48 26 -123q0 -84 -51 -136q-50 -52 -135 -67q103 -15 159 -73q56 -57 56 -150q0 -123 -91 -192q-90 -68 -284 -68z" />
    <glyph glyph-name="acute" unicode="&#xb4;" horiz-adv-x="1116" 
d="M270 1317l396 307l178 -297l-469 -190z" />
    <glyph glyph-name="mu" unicode="&#xb5;" horiz-adv-x="1167" 
d="M1151 240v-240h-422l-20 106q-28 -49 -75 -80q-46 -30 -99 -30q-29 0 -37 6l24 -389h-401v1171l-86 29v260h487v-731q0 -44 23 -59t45 -15q43 0 74 25v491l-70 29v260h471v-815z" />
    <glyph glyph-name="paragraph" unicode="&#xb6;" horiz-adv-x="1415" 
d="M1223 -178h-316v1343h-121v-1343h-315v831h-6q-100 0 -181 29q-80 28 -132 81q-54 54 -82 125q-29 73 -29 159q0 191 129 286q128 94 354 94h809v-235l-110 -33v-1337z" />
    <glyph glyph-name="periodcentered" unicode="&#xb7;" horiz-adv-x="569" 
d="M61 623q0 45 18 86q19 43 47 71q30 30 71 48q40 18 88 18q47 0 88 -18q40 -18 70 -48q28 -28 47 -71q18 -41 18 -86q0 -47 -18 -87q-19 -43 -47 -71q-30 -30 -70 -48q-41 -18 -88 -18t-88 18t-71 48q-28 28 -47 71q-18 40 -18 87z" />
    <glyph glyph-name="cedilla" unicode="&#xb8;" horiz-adv-x="1116" 
d="M526 -479q-68 0 -117 14q-54 15 -81 31l53 151q23 -12 48 -21t54 -9q49 0 68 11q20 11 20 40t-22 39q-21 10 -62 10q-17 0 -41 -2q-18 -1 -30 -6l69 241h142l-27 -96q188 -22 188 -196q0 -102 -64 -154q-65 -53 -198 -53z" />
    <glyph glyph-name="onesuperior" unicode="&#xb9;" horiz-adv-x="722" 
d="M66 727l174 21v282l-125 -35l-84 168l288 264h240v-679l148 -21v-211h-641v211z" />
    <glyph glyph-name="ordmasculine" unicode="&#xba;" horiz-adv-x="995" 
d="M45 836q0 505 453 505q452 0 452 -505q0 -506 -452 -506q-453 0 -453 506zM567 836q0 71 -2 145q-1 50 -10 85q-7 29 -21 40q-13 10 -36 10t-36 -10q-15 -12 -22 -40q-9 -35 -10 -85q-2 -74 -2 -145q0 -72 2 -146q1 -50 10 -85q7 -28 22 -40q13 -10 36 -10t36 10
q14 11 21 40q9 35 10 85q2 74 2 146z" />
    <glyph glyph-name="guillemotright" unicode="&#xbb;" horiz-adv-x="1212" 
d="M770 528l-186 332l223 135l364 -467l-364 -467l-223 136zM268 528l-186 332l223 135l365 -467l-365 -467l-223 136z" />
    <glyph glyph-name="onequarter" unicode="&#xbc;" horiz-adv-x="2054" 
d="M66 727l174 21v282l-125 -35l-84 168l288 264h240v-679l148 -21v-211h-641v211zM1264 1411h315l-823 -1479h-316zM1169 279l199 524h285l-189 -535h146v273l311 53v-326h102v-213h-102v-164h-311v164h-441v224z" />
    <glyph glyph-name="onehalf" unicode="&#xbd;" horiz-adv-x="2015" 
d="M66 727l174 21v282l-125 -35l-84 168l288 264h240v-679l148 -21v-211h-641v211zM1264 1411h315l-823 -1479h-316zM1974 -109h-698v244q66 49 123 90q52 37 99 79q43 38 67 76t24 83q0 82 -84 82q-52 0 -89 -15l-75 -30l-75 205q61 46 151 82q84 34 207 34q159 0 242 -80
q82 -79 82 -209q0 -82 -44 -149q-42 -64 -107 -115t-131 -84q-74 -37 -118 -57h426v-236z" />
    <glyph glyph-name="threequarters" unicode="&#xbe;" horiz-adv-x="2048" 
d="M1237 1411h315l-823 -1479h-315zM352 504q-106 0 -199 30q-95 31 -143 76l58 191q37 -17 99 -38q53 -18 107 -18q49 0 80 14t31 48q0 61 -78 61h-129v217h121q38 0 60 11t22 45q0 28 -20 42q-19 13 -66 13q-55 0 -94 -13t-74 -32l-84 180q47 46 129 80q84 35 199 35
q63 0 123 -12q58 -12 105 -42q46 -30 73 -79q26 -48 26 -123q0 -84 -51 -136q-50 -52 -135 -67q103 -15 159 -73q56 -57 56 -150q0 -123 -91 -192q-90 -68 -284 -68zM1163 279l199 524h285l-189 -535h146v273l311 53v-326h102v-213h-102v-164h-311v164h-441v224z" />
    <glyph glyph-name="questiondown" unicode="&#xbf;" horiz-adv-x="954" 
d="M684 469q0 -66 -4 -105q-5 -51 -15 -75q-14 -34 -32 -55q-20 -23 -51 -46q-61 -43 -79 -84q-18 -40 -18 -94q0 -49 14 -85q13 -34 66 -34q19 0 28 1l12.5 2.5t10.5 1.5l31 141h250v-311q-70 -47 -171 -77q-102 -30 -237 -30q-88 0 -170 22q-79 21 -135 67q-57 46 -90 117
t-33 167q0 144 57 227q56 82 158 137q53 29 88 57q37 30 37 89v114h283v-147zM754 881q0 -43 -17 -85q-17 -40 -46 -70q-29 -29 -69 -47t-87 -18t-88 18q-40 18 -69 47q-30 30 -46 70q-17 42 -17 85t17 85q16 39 46 69q29 29 69 47t88 18q47 0 87 -18t69 -47q30 -30 46 -69
q17 -42 17 -85z" />
    <glyph glyph-name="Agrave" unicode="&#xc0;" horiz-adv-x="1402" 
d="M815 373h-358l-33 -115l111 -25v-233h-498v236l82 24l356 1167h438l373 -1165l80 -26v-236h-627v233l111 27zM528 621h209l-37 120q-27 93 -45 177q-15 71 -20 137h-2q-5 -61 -22 -137q-20 -90 -46 -175zM883 1481l-469 190l178 297l395 -307z" />
    <glyph glyph-name="Aacute" unicode="&#xc1;" horiz-adv-x="1402" 
d="M815 373h-358l-33 -115l111 -25v-233h-498v236l82 24l356 1167h438l373 -1165l80 -26v-236h-627v233l111 27zM528 621h209l-37 120q-27 93 -45 177q-15 71 -20 137h-2q-5 -61 -22 -137q-20 -90 -46 -175zM414 1661l395 307l178 -297l-469 -190z" />
    <glyph glyph-name="Acircumflex" unicode="&#xc2;" horiz-adv-x="1402" 
d="M815 373h-358l-33 -115l111 -25v-233h-498v236l82 24l356 1167h438l373 -1165l80 -26v-236h-627v233l111 27zM528 621h209l-37 120q-27 93 -45 177q-15 71 -20 137h-2q-5 -61 -22 -137q-20 -90 -46 -175zM344 1626l246 287h227l240 -287l-111 -133l-250 147l-241 -147z
" />
    <glyph glyph-name="Atilde" unicode="&#xc3;" horiz-adv-x="1402" 
d="M815 373h-358l-33 -115l111 -25v-233h-498v236l82 24l356 1167h438l373 -1165l80 -26v-236h-627v233l111 27zM528 621h209l-37 120q-27 93 -45 177q-15 71 -20 137h-2q-5 -61 -22 -137q-20 -90 -46 -175zM1079 1767q-34 -119 -99 -186q-64 -65 -146 -65q-42 0 -75 10
q-52 16 -65 21q-8 3 -59 22q-27 10 -60 10q-34 0 -54 -17q-21 -18 -44 -53l-155 115q34 119 99 186q65 66 146 66q42 0 75 -10q42 -13 65 -22q11 -5 32 -12l27 -9q30 -11 59 -11q34 0 55 18q23 20 44 52z" />
    <glyph glyph-name="Adieresis" unicode="&#xc4;" horiz-adv-x="1402" 
d="M815 373h-358l-33 -115l111 -25v-233h-498v236l82 24l356 1167h438l373 -1165l80 -26v-236h-627v233l111 27zM528 621h209l-37 120q-27 93 -45 177q-15 71 -20 137h-2q-5 -61 -22 -137q-20 -90 -46 -175zM479 1495q-42 0 -74 14q-35 15 -61 40q-27 25 -42 60t-15 72
q0 82 53 138q52 55 131 55q41 0 75 -14q36 -15 62 -41q27 -27 42 -62q16 -37 16 -76q0 -35 -16 -72q-15 -34 -41 -60q-25 -25 -59 -40q-32 -14 -71 -14zM930 1495q-43 0 -75 14q-33 14 -60 40q-25 24 -41 60q-15 35 -15 72q0 81 52 138q51 55 129 55q84 0 140 -55t56 -138
q0 -40 -14 -72q-15 -35 -40 -60t-60 -40q-32 -14 -72 -14z" />
    <glyph glyph-name="Aring" unicode="&#xc5;" horiz-adv-x="1402" 
d="M815 373h-358l-33 -115l111 -25v-233h-498v236l82 24l356 1167h438l373 -1165l80 -26v-236h-627v233l111 27zM528 621h209l-37 120q-27 93 -45 177q-15 71 -20 137h-2q-5 -61 -22 -137q-20 -90 -46 -175zM700 1485q-122 0 -198 67t-76 187q0 116 76 185t198 69t199 -69
q76 -69 76 -185q0 -120 -76 -187t-199 -67zM700 1640q68 0 68 99q0 98 -68 98q-67 0 -67 -98q0 -99 67 -99z" />
    <glyph glyph-name="AE" unicode="&#xc6;" horiz-adv-x="1847" 
d="M842 397h-332l-66 -139l111 -25v-233h-518v236l82 24l184 377v8h2l252 514l-111 33v235h1342v-409h-268l-33 143h-219v-303h123l32 82h209v-424h-209l-32 84h-123v-334h231l47 172h264v-438h-1079v236l111 32v129zM627 645h215v92q0 133 1 197q2 106 11 186h-4z" />
    <glyph glyph-name="Ccedilla" unicode="&#xc7;" horiz-adv-x="1144" 
d="M616 -479q-68 0 -117 14q-54 15 -81 31l53 151q23 -12 48 -21t54 -9q49 0 68 11q21 12 21 40t-23 39q-21 10 -61 10q-17 0 -41 -2q-19 -2 -31 -6l57 201q-141 15 -237 69q-97 54 -160 148q-61 91 -90 220q-29 130 -29 288q0 208 42 352q41 142 123 231q80 88 198 127
q117 39 266 39q118 0 236 -29q115 -28 188 -86v-325h-279l-41 151q-45 27 -94 27q-47 0 -83 -21t-60 -73q-25 -55 -37 -149q-12 -95 -12 -242t9 -238q9 -90 32 -144q23 -53 59 -72q38 -20 92 -20q20 0 51 7q28 6 51 22l41 158h279v-344q-34 -18 -81 -36q-43 -17 -99 -31
q-46 -12 -112 -22q-70 -11 -114 -12l-12 -51q189 -22 189 -196q0 -101 -65 -154t-198 -53z" />
    <glyph glyph-name="Egrave" unicode="&#xc8;" horiz-adv-x="1153" 
d="M938 516h-209l-33 84h-123v-334h232l47 172h264v-438h-1079v236l110 32v891l-110 33v235h1057v-409h-269l-32 143h-220v-303h123l33 82h209v-424zM782 1481l-469 190l179 297l395 -307z" />
    <glyph glyph-name="Eacute" unicode="&#xc9;" horiz-adv-x="1153" 
d="M938 516h-209l-33 84h-123v-334h232l47 172h264v-438h-1079v236l110 32v891l-110 33v235h1057v-409h-269l-32 143h-220v-303h123l33 82h209v-424zM313 1661l396 307l178 -297l-469 -190z" />
    <glyph glyph-name="Ecircumflex" unicode="&#xca;" horiz-adv-x="1153" 
d="M938 516h-209l-33 84h-123v-334h232l47 172h264v-438h-1079v236l110 32v891l-110 33v235h1057v-409h-269l-32 143h-220v-303h123l33 82h209v-424zM223 1626l246 287h227l240 -287l-111 -133l-250 147l-241 -147z" />
    <glyph glyph-name="Edieresis" unicode="&#xcb;" horiz-adv-x="1153" 
d="M938 516h-209l-33 84h-123v-334h232l47 172h264v-438h-1079v236l110 32v891l-110 33v235h1057v-409h-269l-32 143h-220v-303h123l33 82h209v-424zM367 1495q-42 0 -74 14q-36 16 -62 40q-27 25 -42 60t-15 72q0 82 53 138q52 55 131 55q41 0 75 -14q38 -16 63 -41
q27 -27 42 -62q15 -34 15 -76q0 -37 -15 -72q-15 -34 -41 -60q-25 -25 -60 -40q-32 -14 -70 -14zM817 1495q-43 0 -75 14q-33 14 -60 40q-25 24 -41 60q-14 32 -14 72q0 83 51 138t129 55q84 0 140 -55q57 -55 57 -138q0 -37 -15 -72t-40 -60t-59 -40q-32 -14 -73 -14z" />
    <glyph glyph-name="Igrave" unicode="&#xcc;" horiz-adv-x="720" 
d="M37 236l110 32v891l-110 33v235h647v-235l-111 -33v-891l111 -32v-236h-647v236zM545 1481l-469 190l178 297l395 -307z" />
    <glyph glyph-name="Iacute" unicode="&#xcd;" horiz-adv-x="720" 
d="M37 236l110 32v891l-110 33v235h647v-235l-111 -33v-891l111 -32v-236h-647v236zM76 1661l395 307l178 -297l-469 -190z" />
    <glyph glyph-name="Icircumflex" unicode="&#xce;" horiz-adv-x="720" 
d="M37 236l110 32v891l-110 33v235h647v-235l-111 -33v-891l111 -32v-236h-647v236zM6 1626l246 287h227l240 -287l-111 -133l-250 147l-241 -147z" />
    <glyph glyph-name="Idieresis" unicode="&#xcf;" horiz-adv-x="720" 
d="M37 236l110 32v891l-110 33v235h647v-235l-111 -33v-891l111 -32v-236h-647v236zM141 1495q-41 0 -73 14q-36 16 -62 40q-27 25 -42 60t-15 72q0 82 53 138q52 55 131 55q41 0 75 -14q36 -15 62 -41q27 -27 42 -62q16 -37 16 -76q0 -35 -16 -72q-15 -34 -41 -60
q-25 -25 -59 -40q-32 -14 -71 -14zM592 1495q-43 0 -75 14q-33 14 -60 40q-25 24 -41 60q-15 35 -15 72q0 81 52 138q51 55 129 55q84 0 140 -55t56 -138q0 -40 -14 -72q-15 -35 -40 -60t-59 -40q-32 -14 -73 -14z" />
    <glyph glyph-name="Eth" unicode="&#xd0;" horiz-adv-x="1302" 
d="M37 842h110v317l-110 33v235h655q141 0 245 -37q106 -38 176 -120q71 -84 107 -214q35 -128 35 -319q0 -173 -23 -304q-24 -136 -84 -232q-60 -97 -165 -149q-104 -52 -268 -52h-678v236l110 32v320h-110v254zM662 266q38 0 67 18q30 19 47 69q20 58 27 148q8 101 8 249
q0 133 -11 207q-12 81 -33 126t-52 62q-29 16 -70 16h-72v-319h127v-254h-127v-322h89z" />
    <glyph glyph-name="Ntilde" unicode="&#xd1;" horiz-adv-x="1419" 
d="M860 1192v235h522v-235l-110 -33v-1159h-400l-311 571q-20 37 -48 95q-22 45 -32 76q-12 37 -21 73q-14 59 -18 82h-4q5 -45 6 -82l3 -75q2 -50 2 -81v-391l110 -32v-236h-522v236l110 32v891l-110 33v235h581l254 -499q53 -105 73 -178q24 -90 38 -150h4q-8 73 -12 146
q-4 67 -4 182v231zM1108 1767q-34 -119 -99 -186q-64 -65 -147 -65q-42 0 -75 10q-48 15 -64 21q-8 3 -59 22q-27 10 -60 10q-34 0 -54 -17q-21 -18 -44 -53l-156 115q33 118 100 186q64 66 146 66q42 0 75 -10q38 -11 64 -22q11 -4 32 -11t28 -10q30 -11 59 -11q33 0 54 18
q23 20 44 52z" />
    <glyph glyph-name="Ograve" unicode="&#xd2;" horiz-adv-x="1286" 
d="M643 -27q-304 0 -450 181t-146 559q0 375 146 559q145 182 450 182q306 0 451 -182t145 -559q0 -380 -145 -559q-146 -181 -451 -181zM643 236q46 0 75 23q30 24 46 80q16 55 22 147q7 107 7 227t-7 227q-6 94 -22 147q-17 57 -46 80q-31 25 -75 25q-46 0 -76 -25
q-28 -24 -45 -80q-16 -53 -22 -147q-6 -92 -6 -227t6 -227t22 -147q16 -56 45 -80q27 -23 76 -23zM825 1481l-469 190l179 297l395 -307z" />
    <glyph glyph-name="Oacute" unicode="&#xd3;" horiz-adv-x="1286" 
d="M643 -27q-304 0 -450 181t-146 559q0 375 146 559q145 182 450 182q306 0 451 -182t145 -559q0 -380 -145 -559q-146 -181 -451 -181zM643 236q46 0 75 23q30 24 46 80q16 55 22 147q7 107 7 227t-7 227q-6 94 -22 147q-17 57 -46 80q-31 25 -75 25q-46 0 -76 -25
q-28 -24 -45 -80q-16 -53 -22 -147q-6 -92 -6 -227t6 -227t22 -147q16 -56 45 -80q27 -23 76 -23zM356 1661l396 307l178 -297l-469 -190z" />
    <glyph glyph-name="Ocircumflex" unicode="&#xd4;" horiz-adv-x="1286" 
d="M643 -27q-304 0 -450 181t-146 559q0 375 146 559q145 182 450 182q306 0 451 -182t145 -559q0 -380 -145 -559q-146 -181 -451 -181zM643 236q46 0 75 23q30 24 46 80q16 55 22 147q7 107 7 227t-7 227q-6 94 -22 147q-17 57 -46 80q-31 25 -75 25q-46 0 -76 -25
q-28 -24 -45 -80q-16 -53 -22 -147q-6 -92 -6 -227t6 -227t22 -147q16 -56 45 -80q27 -23 76 -23zM287 1626l245 287h228l239 -287l-110 -133l-250 147l-242 -147z" />
    <glyph glyph-name="Otilde" unicode="&#xd5;" horiz-adv-x="1286" 
d="M643 -27q-304 0 -450 181t-146 559q0 375 146 559q145 182 450 182q306 0 451 -182t145 -559q0 -380 -145 -559q-146 -181 -451 -181zM643 236q46 0 75 23q30 24 46 80q16 55 22 147q7 107 7 227t-7 227q-6 94 -22 147q-17 57 -46 80q-31 25 -75 25q-46 0 -76 -25
q-28 -24 -45 -80q-16 -53 -22 -147q-6 -92 -6 -227t6 -227t22 -147q16 -56 45 -80q27 -23 76 -23zM1022 1767q-34 -119 -99 -186q-64 -65 -147 -65q-42 0 -75 10q-48 15 -64 21q-8 3 -59 22q-27 10 -60 10q-34 0 -54 -17q-21 -18 -44 -53l-156 115q33 118 100 186
q64 66 146 66q42 0 75 -10q38 -11 64 -22q11 -4 32 -11t28 -10q30 -11 59 -11q33 0 54 18q23 20 44 52z" />
    <glyph glyph-name="Odieresis" unicode="&#xd6;" horiz-adv-x="1286" 
d="M643 -27q-304 0 -450 181t-146 559q0 375 146 559q145 182 450 182q306 0 451 -182t145 -559q0 -380 -145 -559q-146 -181 -451 -181zM643 236q46 0 75 23q30 24 46 80q16 55 22 147q7 107 7 227t-7 227q-6 94 -22 147q-17 57 -46 80q-31 25 -75 25q-46 0 -76 -25
q-28 -24 -45 -80q-16 -53 -22 -147q-6 -92 -6 -227t6 -227t22 -147q16 -56 45 -80q27 -23 76 -23zM422 1495q-42 0 -74 14q-35 15 -61 40q-27 25 -42 60q-16 37 -16 72q0 81 54 138q52 55 131 55q40 0 74 -14q38 -16 63 -41q27 -27 42 -62q15 -34 15 -76q0 -37 -15 -72
q-15 -34 -41 -60q-25 -25 -59 -40q-32 -14 -71 -14zM872 1495q-42 0 -74 14q-35 15 -61 40q-25 24 -41 60q-14 32 -14 72q0 83 51 138t129 55q84 0 140 -55q57 -55 57 -138q0 -37 -15 -72q-16 -37 -39 -60q-25 -25 -60 -40q-32 -14 -73 -14z" />
    <glyph glyph-name="multiply" unicode="&#xd7;" 
d="M72 432l282 289l-282 289l217 229l278 -289l277 289l209 -221l-277 -291l277 -289l-217 -229l-277 293l-276 -293z" />
    <glyph glyph-name="Oslash" unicode="&#xd8;" horiz-adv-x="1286" 
d="M213 129q-166 178 -166 584q0 375 146 559q145 182 450 182q176 0 293 -57l115 198l159 -88l-127 -223q156 -180 156 -571q0 -380 -145 -559q-146 -181 -451 -181q-159 0 -283 52l-129 -224l-155 88zM475 649q0 -19 2 -57l291 510q-21 47 -51 68q-31 22 -74 22
q-46 0 -79 -25q-31 -24 -51 -80q-20 -57 -29 -147q-9 -91 -9 -227v-64zM643 236q46 0 78 23t53 80q21 58 30 147q9 92 9 227v51q0 19 -2 49l-287 -502q37 -75 119 -75z" />
    <glyph glyph-name="Ugrave" unicode="&#xd9;" horiz-adv-x="1366" 
d="M573 1427v-1026q0 -52 22 -80t73 -28q31 0 68 8q33 7 57 25v833l-111 33v235h537v-1159l110 -32v-236h-411l-50 121q-57 -62 -134 -104q-80 -44 -195 -44q-200 0 -294 124q-95 125 -95 380l-3 682l-110 33v235h536zM864 1481l-469 190l178 297l396 -307z" />
    <glyph glyph-name="Uacute" unicode="&#xda;" horiz-adv-x="1366" 
d="M573 1427v-1026q0 -52 22 -80t73 -28q31 0 68 8q33 7 57 25v833l-111 33v235h537v-1159l110 -32v-236h-411l-50 121q-57 -62 -134 -104q-80 -44 -195 -44q-200 0 -294 124q-95 125 -95 380l-3 682l-110 33v235h536zM395 1661l396 307l178 -297l-469 -190z" />
    <glyph glyph-name="Ucircumflex" unicode="&#xdb;" horiz-adv-x="1366" 
d="M573 1427v-1026q0 -52 22 -80t73 -28q31 0 68 8q33 7 57 25v833l-111 33v235h537v-1159l110 -32v-236h-411l-50 121q-57 -62 -134 -104q-80 -44 -195 -44q-200 0 -294 124q-95 125 -95 380l-3 682l-110 33v235h536zM326 1626l245 287h228l239 -287l-110 -133l-250 147
l-242 -147z" />
    <glyph glyph-name="Udieresis" unicode="&#xdc;" horiz-adv-x="1366" 
d="M573 1427v-1026q0 -52 22 -80t73 -28q31 0 68 8q33 7 57 25v833l-111 33v235h537v-1159l110 -32v-236h-411l-50 121q-57 -62 -134 -104q-80 -44 -195 -44q-200 0 -294 124q-95 125 -95 380l-3 682l-110 33v235h536zM461 1495q-42 0 -74 14q-35 15 -61 40q-27 25 -42 60
q-16 37 -16 72q0 81 54 138q52 55 131 55q40 0 74 -14q38 -16 63 -41q27 -27 42 -62q15 -34 15 -76q0 -37 -15 -72q-15 -34 -41 -60q-25 -25 -60 -40q-32 -14 -70 -14zM911 1495q-42 0 -74 14q-35 15 -61 40q-25 24 -41 60q-14 32 -14 72q0 83 51 138t129 55q84 0 140 -55
q57 -55 57 -138q0 -37 -15 -72t-40 -60t-59 -40q-32 -14 -73 -14z" />
    <glyph glyph-name="Yacute" unicode="&#xdd;" horiz-adv-x="1267" 
d="M315 236l111 32v252l-309 647l-80 27v233h612v-231l-94 -31l82 -184q24 -54 41 -104q12 -36 24 -105q6 48 24 104q12 39 40 105l82 186l-90 29v231h473v-233l-82 -27l-297 -639v-260l111 -32v-236h-648v236zM391 1661l395 307l179 -297l-469 -190z" />
    <glyph glyph-name="Thorn" unicode="&#xde;" horiz-adv-x="1200" 
d="M655 559q33 0 54 7q20 7 36 27q14 19 22 54q7 32 7 88q0 90 -32 116t-83 26h-86v-318h82zM573 1122h142q100 0 183 -19q84 -19 148 -65q62 -44 98 -119t36 -186q0 -113 -28 -197q-26 -79 -85 -130q-58 -50 -145 -71q-93 -22 -207 -22h-142v-47l148 -30v-236h-684v236
l110 32v891l-110 33v235h647v-235l-111 -33v-37z" />
    <glyph glyph-name="germandbls" unicode="&#xdf;" horiz-adv-x="1247" 
d="M121 1116q0 105 38 183q38 77 106 126t166 73q97 24 214 24t206 -27q90 -28 149 -73q62 -48 91 -107t29 -133q0 -71 -23 -116q-24 -46 -54 -81q-9 -10 -18 -21t-19.5 -23.5t-15.5 -18.5q-23 -27 -23 -62q0 -30 23 -59q35 -43 73 -84q19 -20 51 -58q28 -34 49 -75
q24 -46 38 -99q16 -59 16 -125q0 -387 -408 -387q-67 0 -137 17q-68 17 -101 39l45 235q21 -9 42 -14q24 -6 57 -6q48 0 75 24t27 78q0 52 -35 99q-52 70 -77 102q-22 30 -34 45q-16 20 -32 49q-15 27 -24 61q-9 35 -9 82q0 60 24 104q27 50 52 82q21 28 52 76q24 38 24 84
t-28 83q-27 36 -85 36q-68 0 -95 -37q-28 -39 -28 -125v-1087h-487v240l86 18v526l-86 29v260h86v43z" />
    <glyph glyph-name="agrave" unicode="&#xe0;" horiz-adv-x="1056" 
d="M551 477h-19q-62 0 -82 -30q-20 -31 -20 -99t14 -90q16 -25 54 -25q30 0 53 17v227zM598 104q-40 -57 -98 -93q-61 -38 -152 -38q-88 0 -146 27t-94 75q-38 50 -52 112q-15 65 -15 141q0 187 118 263q119 77 330 77h62v30q0 51 -22 73t-68 22q-86 0 -165 -22
q-71 -20 -128 -46l-109 233q91 65 211 103q123 39 258 39q109 0 191 -20q81 -20 130 -63q51 -45 75 -116q24 -72 24 -174v-418q0 -47 14 -59t72 -12l13 -211q-49 -24 -107 -39q-57 -15 -127 -15q-75 0 -134 32q-59 31 -81 99zM707 1137l-469 190l178 297l395 -307z" />
    <glyph glyph-name="aacute" unicode="&#xe1;" horiz-adv-x="1056" 
d="M551 477h-19q-62 0 -82 -30q-20 -31 -20 -99t14 -90q16 -25 54 -25q30 0 53 17v227zM598 104q-40 -57 -98 -93q-61 -38 -152 -38q-88 0 -146 27t-94 75q-38 50 -52 112q-15 65 -15 141q0 187 118 263q119 77 330 77h62v30q0 51 -22 73t-68 22q-86 0 -165 -22
q-71 -20 -128 -46l-109 233q91 65 211 103q123 39 258 39q109 0 191 -20q81 -20 130 -63q51 -45 75 -116q24 -72 24 -174v-418q0 -47 14 -59t72 -12l13 -211q-49 -24 -107 -39q-57 -15 -127 -15q-75 0 -134 32q-59 31 -81 99zM238 1317l395 307l178 -297l-469 -190z" />
    <glyph glyph-name="acircumflex" unicode="&#xe2;" horiz-adv-x="1056" 
d="M551 477h-19q-62 0 -82 -30q-20 -31 -20 -99t14 -90q16 -25 54 -25q30 0 53 17v227zM598 104q-40 -57 -98 -93q-61 -38 -152 -38q-88 0 -146 27t-94 75q-38 50 -52 112q-15 65 -15 141q0 187 118 263q119 77 330 77h62v30q0 51 -22 73t-68 22q-86 0 -165 -22
q-71 -20 -128 -46l-109 233q91 65 211 103q123 39 258 39q109 0 191 -20q81 -20 130 -63q51 -45 75 -116q24 -72 24 -174v-418q0 -47 14 -59t72 -12l13 -211q-49 -24 -107 -39q-57 -15 -127 -15q-75 0 -134 32q-59 31 -81 99zM172 1282l246 287h227l240 -287l-111 -133
l-250 147l-241 -147z" />
    <glyph glyph-name="atilde" unicode="&#xe3;" horiz-adv-x="1056" 
d="M551 477h-19q-62 0 -82 -30q-20 -31 -20 -99t14 -90q16 -25 54 -25q30 0 53 17v227zM598 104q-40 -57 -98 -93q-61 -38 -152 -38q-88 0 -146 27t-94 75q-38 50 -52 112q-15 65 -15 141q0 187 118 263q119 77 330 77h62v30q0 51 -22 73t-68 22q-86 0 -165 -22
q-71 -20 -128 -46l-109 233q91 65 211 103q123 39 258 39q109 0 191 -20q81 -20 130 -63q51 -45 75 -116q24 -72 24 -174v-418q0 -47 14 -59t72 -12l13 -211q-49 -24 -107 -39q-57 -15 -127 -15q-75 0 -134 32q-59 31 -81 99zM907 1423q-34 -119 -99 -186q-64 -66 -146 -66
q-39 0 -75 11q-52 16 -65 21q-8 3 -59 22q-27 10 -60 10q-34 0 -54 -17q-21 -18 -44 -53l-155 115q34 119 99 186q65 66 146 66q42 0 75 -10q42 -13 65 -22q11 -5 32 -12l27 -9q30 -11 59 -11q34 0 55 18q23 20 44 52z" />
    <glyph glyph-name="adieresis" unicode="&#xe4;" horiz-adv-x="1056" 
d="M551 477h-19q-62 0 -82 -30q-20 -31 -20 -99t14 -90q16 -25 54 -25q30 0 53 17v227zM598 104q-40 -57 -98 -93q-61 -38 -152 -38q-88 0 -146 27t-94 75q-38 50 -52 112q-15 65 -15 141q0 187 118 263q119 77 330 77h62v30q0 51 -22 73t-68 22q-86 0 -165 -22
q-71 -20 -128 -46l-109 233q91 65 211 103q123 39 258 39q109 0 191 -20q81 -20 130 -63q51 -45 75 -116q24 -72 24 -174v-418q0 -47 14 -59t72 -12l13 -211q-49 -24 -107 -39q-57 -15 -127 -15q-75 0 -134 32q-59 31 -81 99zM305 1151q-42 0 -74 14q-35 15 -61 40
q-27 25 -42 60t-15 72q0 82 53 138q52 55 131 55q41 0 75 -14q36 -15 62 -41q27 -27 42 -62q16 -37 16 -76q0 -35 -16 -72q-15 -34 -41 -60q-25 -25 -59 -40q-32 -14 -71 -14zM756 1151q-43 0 -75 14q-33 14 -60 40q-25 24 -41 60q-15 35 -15 72q0 83 51 138t129 55
q85 0 141 -55t56 -138q0 -40 -14 -72q-15 -35 -40 -60t-60 -40q-32 -14 -72 -14z" />
    <glyph glyph-name="aring" unicode="&#xe5;" horiz-adv-x="1056" 
d="M551 477h-19q-62 0 -82 -30q-20 -31 -20 -99t14 -90q16 -25 54 -25q30 0 53 17v227zM598 104q-40 -57 -98 -93q-61 -38 -152 -38q-88 0 -146 27t-94 75q-38 50 -52 112q-15 65 -15 141q0 187 118 263q119 77 330 77h62v30q0 51 -22 73t-68 22q-86 0 -165 -22
q-71 -20 -128 -46l-109 233q91 65 211 103q123 39 258 39q109 0 191 -20q81 -20 130 -63q51 -45 75 -116q24 -72 24 -174v-418q0 -47 14 -59t72 -12l13 -211q-49 -24 -107 -39q-57 -15 -127 -15q-75 0 -134 32q-59 31 -81 99zM526 1155q-121 0 -198 68q-76 67 -76 186
q0 116 76 185q77 69 198 69q122 0 199 -69q76 -69 76 -185q0 -119 -76 -186q-77 -68 -199 -68zM526 1311q68 0 68 98t-68 98q-67 0 -67 -98t67 -98z" />
    <glyph glyph-name="ae" unicode="&#xe6;" horiz-adv-x="1519" 
d="M946 426q7 -89 43 -125q35 -35 121 -35q60 0 137 16q75 16 129 37l90 -231q-63 -40 -162 -78q-98 -37 -239 -37q-125 0 -221 26q-93 25 -160 83q-60 -55 -137 -82q-78 -27 -187 -27q-88 0 -148 27q-61 27 -98 75q-38 49 -56 112q-17 61 -17 141q0 183 118 256t330 73h62
v41q0 51 -22 73t-68 22q-86 0 -165 -22q-71 -20 -128 -46l-109 233q91 65 211 103q123 39 258 39q164 0 260 -47q102 47 232 47q122 0 211 -30q88 -30 143 -100q54 -69 82 -186q27 -114 27 -282v-76h-537zM1110 637q0 63 -1 90q-2 42 -9 72q-7 28 -24 47q-15 16 -44 16
q-27 0 -44 -10t-26 -36q-10 -27 -14 -70q-5 -44 -6 -109h168zM551 467h-19q-58 0 -80 -25t-22 -94q0 -68 14 -90q16 -25 54 -25q30 0 53 17v217z" />
    <glyph glyph-name="ccedilla" unicode="&#xe7;" horiz-adv-x="884" 
d="M451 -479q-69 0 -118 14q-54 15 -81 31l53 151q23 -12 48 -21t55 -9q48 0 67 11q21 12 21 40t-23 39q-21 10 -61 10q-17 0 -41 -2q-19 -2 -31 -6l59 207q-184 34 -271 171t-87 388q0 287 131 421t371 134q110 0 179 -21t132 -51v-309h-240l-30 129q-14 14 -39 14t-42 -11
q-19 -12 -30 -45q-13 -36 -17 -94q-5 -67 -5 -159q0 -85 6 -142q6 -60 23 -92q18 -34 46 -49q27 -14 74 -14q44 0 91 10q52 11 95 37l88 -211q-52 -49 -139 -84t-196 -35h-2l-13 -49q189 -22 189 -196q0 -101 -65 -154t-197 -53z" />
    <glyph glyph-name="egrave" unicode="&#xe8;" horiz-adv-x="1030" 
d="M457 412q5 -50 14 -73q11 -27 29 -44q19 -17 48 -23q30 -6 73 -6q60 0 137 16q75 16 129 37l90 -231q-62 -40 -163 -78q-98 -37 -239 -37q-277 0 -406 135q-128 134 -128 435q0 151 38 257q38 107 103 172q68 68 156 97q93 31 192 31q122 0 211 -33q90 -33 144 -104
q55 -71 82 -190q26 -114 26 -286v-75h-536zM621 637q0 63 -1 90q-1 38 -10 72q-7 30 -23 47q-15 16 -44 16q-27 0 -44 -10q-18 -10 -27 -36q-8 -23 -13 -70q-5 -44 -6 -109h168zM727 1137l-469 190l178 297l396 -307z" />
    <glyph glyph-name="eacute" unicode="&#xe9;" horiz-adv-x="1030" 
d="M457 412q5 -50 14 -73q11 -27 29 -44q19 -17 48 -23q30 -6 73 -6q60 0 137 16q75 16 129 37l90 -231q-62 -40 -163 -78q-98 -37 -239 -37q-277 0 -406 135q-128 134 -128 435q0 151 38 257q38 107 103 172q68 68 156 97q93 31 192 31q122 0 211 -33q90 -33 144 -104
q55 -71 82 -190q26 -114 26 -286v-75h-536zM621 637q0 63 -1 90q-1 38 -10 72q-7 30 -23 47q-15 16 -44 16q-27 0 -44 -10q-18 -10 -27 -36q-8 -23 -13 -70q-5 -44 -6 -109h168zM258 1317l395 307l179 -297l-469 -190z" />
    <glyph glyph-name="ecircumflex" unicode="&#xea;" horiz-adv-x="1030" 
d="M457 412q5 -50 14 -73q11 -27 29 -44q19 -17 48 -23q30 -6 73 -6q60 0 137 16q75 16 129 37l90 -231q-62 -40 -163 -78q-98 -37 -239 -37q-277 0 -406 135q-128 134 -128 435q0 151 38 257q38 107 103 172q68 68 156 97q93 31 192 31q122 0 211 -33q90 -33 144 -104
q55 -71 82 -190q26 -114 26 -286v-75h-536zM621 637q0 63 -1 90q-1 38 -10 72q-7 30 -23 47q-15 16 -44 16q-27 0 -44 -10q-18 -10 -27 -36q-8 -23 -13 -70q-5 -44 -6 -109h168zM188 1282l246 287h228l239 -287l-110 -133l-250 147l-242 -147z" />
    <glyph glyph-name="edieresis" unicode="&#xeb;" horiz-adv-x="1030" 
d="M457 412q5 -50 14 -73q11 -27 29 -44q19 -17 48 -23q30 -6 73 -6q60 0 137 16q75 16 129 37l90 -231q-62 -40 -163 -78q-98 -37 -239 -37q-277 0 -406 135q-128 134 -128 435q0 151 38 257q38 107 103 172q68 68 156 97q93 31 192 31q122 0 211 -33q90 -33 144 -104
q55 -71 82 -190q26 -114 26 -286v-75h-536zM621 637q0 63 -1 90q-1 38 -10 72q-7 30 -23 47q-15 16 -44 16q-27 0 -44 -10q-18 -10 -27 -36q-8 -23 -13 -70q-5 -44 -6 -109h168zM324 1151q-42 0 -74 14q-36 16 -62 40q-27 25 -42 60t-15 72q0 82 53 138q52 55 131 55
q41 0 75 -14q38 -16 63 -41q27 -27 42 -62t15 -76q0 -37 -15 -72q-15 -34 -41 -60q-25 -25 -60 -40q-32 -14 -70 -14zM774 1151q-43 0 -75 14q-33 14 -60 40q-25 24 -41 60q-14 32 -14 72q0 83 51 138t129 55q84 0 140 -55q57 -55 57 -138q0 -37 -15 -72t-40 -60t-59 -40
q-32 -14 -73 -14z" />
    <glyph glyph-name="igrave" unicode="&#xec;" horiz-adv-x="624" 
d="M608 0h-573v240l86 18v526l-86 29v260h487v-815l86 -18v-240zM506 1137l-469 190l178 297l395 -307z" />
    <glyph glyph-name="iacute" unicode="&#xed;" horiz-adv-x="624" 
d="M608 0h-573v240l86 18v526l-86 29v260h487v-815l86 -18v-240zM37 1317l395 307l178 -297l-469 -190z" />
    <glyph glyph-name="icircumflex" unicode="&#xee;" horiz-adv-x="624" 
d="M608 0h-573v240l86 18v526l-86 29v260h487v-815l86 -18v-240zM-33 1282l246 287h227l240 -287l-111 -133l-250 147l-241 -147z" />
    <glyph glyph-name="idieresis" unicode="&#xef;" horiz-adv-x="624" 
d="M608 0h-573v240l86 18v526l-86 29v260h487v-815l86 -18v-240zM102 1151q-41 0 -73 14q-36 16 -62 40q-27 25 -42 60t-15 72q0 82 53 138q52 55 131 55q41 0 75 -14q36 -15 62 -41q27 -27 42 -62q16 -37 16 -76q0 -35 -16 -72q-15 -34 -41 -60q-25 -25 -59 -40
q-32 -14 -71 -14zM553 1151q-43 0 -75 14q-33 14 -60 40q-25 24 -41 60q-15 35 -15 72q0 81 52 138q51 55 129 55q84 0 140 -55t56 -138q0 -40 -14 -72q-15 -35 -40 -60t-59 -40q-32 -14 -73 -14z" />
    <glyph glyph-name="eth" unicode="&#xf0;" horiz-adv-x="1064" 
d="M201 1147l174 92q-79 64 -176 102l102 203q98 -29 180 -70q79 -39 158 -96l211 113l65 -133l-155 -84q125 -126 195 -296q69 -166 69 -366q0 -170 -31 -296q-29 -118 -91 -197q-60 -76 -152 -111q-93 -35 -215 -35q-245 0 -370 139q-124 137 -124 396q0 125 30 215
q30 91 82 147q54 59 121 85q72 28 150 28q55 0 96 -14q46 -16 68 -41q-22 99 -103 200l-221 -116zM455 485q0 -122 12 -188t68 -66q52 0 64 64q11 58 11 190q0 133 -11 191q-12 63 -64 63q-56 0 -68 -65q-12 -66 -12 -189z" />
    <glyph glyph-name="ntilde" unicode="&#xf1;" horiz-adv-x="1185" 
d="M680 0v719q0 40 -18 58t-50 18q-28 0 -50 -8q-28 -10 -40 -17v-512l86 -18v-240h-573v240l86 18v526l-86 29v260h420l28 -112q20 18 64 52q36 28 69 45q35 18 81 31q40 11 98 11q135 0 212 -72q76 -72 76 -242v-528l86 -18v-240h-489zM981 1423q-34 -119 -99 -186
q-64 -66 -147 -66q-39 0 -75 11q-48 15 -64 21q-8 3 -59 22q-27 10 -60 10q-34 0 -54 -17q-21 -18 -44 -53l-156 115q33 118 100 186q64 66 146 66q42 0 75 -10q38 -11 64 -22q11 -4 32 -11t28 -10q30 -11 59 -11q33 0 54 18q23 20 44 52z" />
    <glyph glyph-name="ograve" unicode="&#xf2;" horiz-adv-x="1064" 
d="M457 537q0 -103 3 -167q3 -69 10 -100q8 -35 23 -47t39 -12q25 0 40 12t23 47q7 31 10 100q3 64 3 167q0 102 -3 165q-3 67 -10 100q-7 36 -23 48q-15 12 -40 12q-24 0 -39 -12q-16 -12 -23 -48q-7 -33 -10 -100q-3 -63 -3 -165zM41 537q0 296 124 429q125 134 367 134
q243 0 368 -134q124 -133 124 -429t-124 -429q-126 -135 -368 -135q-241 0 -367 135q-124 133 -124 429zM717 1137l-469 190l178 297l395 -307z" />
    <glyph glyph-name="oacute" unicode="&#xf3;" horiz-adv-x="1064" 
d="M457 537q0 -103 3 -167q3 -69 10 -100q8 -35 23 -47t39 -12q25 0 40 12t23 47q7 31 10 100q3 64 3 167q0 102 -3 165q-3 67 -10 100q-7 36 -23 48q-15 12 -40 12q-24 0 -39 -12q-16 -12 -23 -48q-7 -33 -10 -100q-3 -63 -3 -165zM41 537q0 296 124 429q125 134 367 134
q243 0 368 -134q124 -133 124 -429t-124 -429q-126 -135 -368 -135q-241 0 -367 135q-124 133 -124 429zM248 1317l395 307l178 -297l-469 -190z" />
    <glyph glyph-name="ocircumflex" unicode="&#xf4;" horiz-adv-x="1064" 
d="M457 537q0 -103 3 -167q3 -69 10 -100q8 -35 23 -47t39 -12q25 0 40 12t23 47q7 31 10 100q3 64 3 167q0 102 -3 165q-3 67 -10 100q-7 36 -23 48q-15 12 -40 12q-24 0 -39 -12q-16 -12 -23 -48q-7 -33 -10 -100q-3 -63 -3 -165zM41 537q0 296 124 429q125 134 367 134
q243 0 368 -134q124 -133 124 -429t-124 -429q-126 -135 -368 -135q-241 0 -367 135q-124 133 -124 429zM178 1282l246 287h227l240 -287l-111 -133l-250 147l-241 -147z" />
    <glyph glyph-name="otilde" unicode="&#xf5;" horiz-adv-x="1064" 
d="M457 537q0 -103 3 -167q3 -69 10 -100q8 -35 23 -47t39 -12q25 0 40 12t23 47q7 31 10 100q3 64 3 167q0 102 -3 165q-3 67 -10 100q-7 36 -23 48q-15 12 -40 12q-24 0 -39 -12q-16 -12 -23 -48q-7 -33 -10 -100q-3 -63 -3 -165zM41 537q0 296 124 429q125 134 367 134
q243 0 368 -134q124 -133 124 -429t-124 -429q-126 -135 -368 -135q-241 0 -367 135q-124 133 -124 429zM913 1423q-34 -119 -99 -186q-64 -66 -146 -66q-39 0 -75 11q-52 16 -65 21q-8 3 -59 22q-27 10 -59 10q-35 0 -55 -17q-21 -18 -44 -53l-155 115q34 119 99 186
q65 66 146 66q42 0 75 -10q42 -13 65 -22q11 -5 32 -12l27 -9q30 -11 59 -11q34 0 55 18q23 20 44 52z" />
    <glyph glyph-name="odieresis" unicode="&#xf6;" horiz-adv-x="1064" 
d="M457 537q0 -103 3 -167q3 -69 10 -100q8 -35 23 -47t39 -12q25 0 40 12t23 47q7 31 10 100q3 64 3 167q0 102 -3 165q-3 67 -10 100q-7 36 -23 48q-15 12 -40 12q-24 0 -39 -12q-16 -12 -23 -48q-7 -33 -10 -100q-3 -63 -3 -165zM41 537q0 296 124 429q125 134 367 134
q243 0 368 -134q124 -133 124 -429t-124 -429q-126 -135 -368 -135q-241 0 -367 135q-124 133 -124 429zM313 1151q-41 0 -73 14q-36 16 -62 40q-27 25 -42 60t-15 72q0 82 53 138q52 55 131 55q41 0 75 -14q36 -15 62 -41q27 -27 42 -62q16 -37 16 -76q0 -35 -16 -72
q-15 -34 -41 -60q-25 -25 -59 -40q-32 -14 -71 -14zM764 1151q-43 0 -75 14q-33 14 -60 40q-25 24 -41 60q-15 35 -15 72q0 81 52 138q51 55 129 55q84 0 140 -55t56 -138q0 -40 -14 -72q-15 -35 -40 -60t-59 -40q-32 -14 -73 -14z" />
    <glyph glyph-name="divide" unicode="&#xf7;" 
d="M66 881h995v-324h-995v324zM561 61q-39 0 -78 17q-36 16 -64 44t-44 64q-17 39 -17 80q0 40 17 77t44 64q28 28 64 44t78 16q43 0 79 -16q39 -17 66 -44t44 -64q16 -35 16 -77q0 -44 -16 -80t-44 -64q-27 -27 -66 -44t-79 -17zM561 971q-42 0 -78 16t-64 44
q-27 27 -44 65q-17 39 -17 80q0 39 17 76t44 64q28 28 64 44t78 16q43 0 79 -16q39 -17 66 -44t44 -64q16 -35 16 -76q0 -44 -16 -80q-16 -38 -44 -65q-27 -27 -66 -44q-36 -16 -79 -16z" />
    <glyph glyph-name="oslash" unicode="&#xf8;" horiz-adv-x="1064" 
d="M176 96q-135 135 -135 441q0 296 124 429q125 134 367 134q129 0 224 -37l100 168l143 -88l-104 -174q129 -139 129 -432q0 -296 -124 -429q-126 -135 -368 -135q-50 0 -115 9q-56 8 -102 24l-104 -174l-139 88zM410 485l204 342q-28 43 -82 43q-31 0 -54 -13
q-25 -14 -39 -50q-15 -36 -22 -102q-7 -62 -7 -168v-52zM532 203q32 0 55 13q25 14 39 50t22 103q7 62 7 168v34l-200 -333q15 -21 33 -28t44 -7z" />
    <glyph glyph-name="ugrave" unicode="&#xf9;" horiz-adv-x="1167" 
d="M1151 240v-240h-422l-20 106q-9 -8 -56 -46q-29 -23 -67 -43q-35 -18 -81 -31q-47 -13 -95 -13q-136 0 -212 72q-77 72 -77 242v497l-86 29v260h487v-731q0 -44 23 -59t45 -15q43 0 74 25v491l-70 29v260h471v-815zM774 1137l-469 190l178 297l396 -307z" />
    <glyph glyph-name="uacute" unicode="&#xfa;" horiz-adv-x="1167" 
d="M1151 240v-240h-422l-20 106q-9 -8 -56 -46q-29 -23 -67 -43q-35 -18 -81 -31q-47 -13 -95 -13q-136 0 -212 72q-77 72 -77 242v497l-86 29v260h487v-731q0 -44 23 -59t45 -15q43 0 74 25v491l-70 29v260h471v-815zM305 1317l395 307l179 -297l-469 -190z" />
    <glyph glyph-name="ucircumflex" unicode="&#xfb;" horiz-adv-x="1167" 
d="M1151 240v-240h-422l-20 106q-9 -8 -56 -46q-29 -23 -67 -43q-35 -18 -81 -31q-47 -13 -95 -13q-136 0 -212 72q-77 72 -77 242v497l-86 29v260h487v-731q0 -44 23 -59t45 -15q43 0 74 25v491l-70 29v260h471v-815zM236 1282l245 287h228l239 -287l-110 -133l-250 147
l-242 -147z" />
    <glyph glyph-name="udieresis" unicode="&#xfc;" horiz-adv-x="1167" 
d="M1151 240v-240h-422l-20 106q-9 -8 -56 -46q-29 -23 -67 -43q-35 -18 -81 -31q-47 -13 -95 -13q-136 0 -212 72q-77 72 -77 242v497l-86 29v260h487v-731q0 -44 23 -59t45 -15q43 0 74 25v491l-70 29v260h471v-815zM371 1151q-42 0 -74 14q-35 15 -61 40q-27 25 -42 60
q-16 37 -16 72q0 82 53 138q52 55 131 55q41 0 75 -14q38 -16 63 -41q27 -27 42 -62t15 -76q0 -37 -15 -72q-15 -34 -41 -60q-25 -25 -60 -40q-32 -14 -70 -14zM821 1151q-43 0 -75 14q-33 14 -60 40q-25 24 -41 60q-14 32 -14 72q0 83 51 138t129 55q84 0 140 -55
q57 -55 57 -138q0 -37 -15 -72t-40 -60t-59 -40q-32 -14 -73 -14z" />
    <glyph glyph-name="yacute" unicode="&#xfd;" horiz-adv-x="1062" 
d="M313 0l-225 791l-72 22v260h533v-260l-64 -22l45 -197q5 -26 16 -70q7 -29 12 -62q5 -38 8 -70q0 -3 2.5 -36t4.5 -53h2q3 29 13 89q7 42 12 71q7 40 13 63q9 35 18 68l49 197l-64 22v260h431v-260l-72 -22l-238 -789q-35 -115 -73 -190q-39 -76 -99 -124t-148 -72
q-89 -24 -222 -36l-93 273q182 17 263 55q82 39 100 92h-152zM299 1317l395 307l178 -297l-469 -190z" />
    <glyph glyph-name="thorn" unicode="&#xfe;" horiz-adv-x="1079" 
d="M76 1229l-86 28v248h487v-506q39 34 95 66q61 35 147 35q79 0 141 -28q57 -26 99 -92q40 -64 60 -170q19 -102 19 -261q0 -175 -22 -284q-23 -112 -66 -176q-44 -65 -105 -90q-64 -26 -143 -26q-78 0 -130 24t-95 64v-190l86 -18v-240h-573v240l86 18v1358zM477 276
q17 -20 62 -20q27 0 44 13q18 13 25 47q9 43 12 92q3 57 3 143q0 81 -3 130q-3 46 -13 80q-9 29 -24 40q-14 10 -38 10q-40 0 -68 -23v-512z" />
    <glyph glyph-name="ydieresis" unicode="&#xff;" horiz-adv-x="1062" 
d="M313 0l-225 791l-72 22v260h533v-260l-64 -22l45 -197q5 -26 16 -70q7 -29 12 -62q5 -38 8 -70q0 -3 2.5 -36t4.5 -53h2q3 29 13 89q7 42 12 71q7 40 13 63q9 35 18 68l49 197l-64 22v260h431v-260l-72 -22l-238 -789q-35 -115 -73 -190q-39 -76 -99 -124t-148 -72
q-89 -24 -222 -36l-93 273q182 17 263 55q82 39 100 92h-152zM358 1151q-41 0 -73 14q-36 16 -62 40q-27 25 -42 60t-15 72q0 82 53 138q52 55 131 55q41 0 75 -14q36 -15 62 -41q27 -27 42 -62q16 -37 16 -76q0 -35 -16 -72q-15 -34 -41 -60q-25 -25 -59 -40
q-32 -14 -71 -14zM809 1151q-43 0 -75 14q-33 14 -60 40q-25 24 -41 60q-15 35 -15 72q0 81 52 138q51 55 129 55q84 0 140 -55t56 -138q0 -40 -14 -72q-15 -35 -40 -60t-59 -40q-32 -14 -73 -14z" />
    <glyph glyph-name="Amacron" unicode="&#x100;" horiz-adv-x="1402" 
d="M815 373h-358l-33 -115l111 -25v-233h-498v236l82 24l356 1167h438l373 -1165l80 -26v-236h-627v233l111 27zM528 621h209l-37 120q-27 93 -45 177q-15 71 -20 137h-2q-5 -61 -22 -137q-20 -90 -46 -175zM399 1810h602v-282h-602v282z" />
    <glyph glyph-name="amacron" unicode="&#x101;" horiz-adv-x="1056" 
d="M551 477h-19q-62 0 -82 -30q-20 -31 -20 -99t14 -90q16 -25 54 -25q30 0 53 17v227zM598 104q-40 -57 -98 -93q-61 -38 -152 -38q-88 0 -146 27t-94 75q-38 50 -52 112q-15 65 -15 141q0 187 118 263q119 77 330 77h62v30q0 51 -22 73t-68 22q-86 0 -165 -22
q-71 -20 -128 -46l-109 233q91 65 211 103q123 39 258 39q109 0 191 -20q81 -20 130 -63q51 -45 75 -116q24 -72 24 -174v-418q0 -47 14 -59t72 -12l13 -211q-49 -24 -107 -39q-57 -15 -127 -15q-75 0 -134 32q-59 31 -81 99zM223 1497h602v-283h-602v283z" />
    <glyph glyph-name="Abreve" unicode="&#x102;" horiz-adv-x="1402" 
d="M815 373h-358l-33 -115l111 -25v-233h-498v236l82 24l356 1167h438l373 -1165l80 -26v-236h-627v233l111 27zM528 621h209l-37 120q-27 93 -45 177q-15 71 -20 137h-2q-5 -61 -22 -137q-20 -90 -46 -175zM700 1503q-90 0 -155 34q-66 34 -109 85q-43 50 -64 114
q-22 65 -26 119l250 39q11 -51 34 -79q24 -29 70 -29q47 0 71 29q23 28 34 79l250 -39q-4 -54 -26 -119q-21 -64 -64 -114q-43 -51 -109 -85q-65 -34 -156 -34z" />
    <glyph glyph-name="abreve" unicode="&#x103;" horiz-adv-x="1056" 
d="M551 477h-19q-62 0 -82 -30q-20 -31 -20 -99t14 -90q16 -25 54 -25q30 0 53 17v227zM598 104q-40 -57 -98 -93q-61 -38 -152 -38q-88 0 -146 27t-94 75q-38 50 -52 112q-15 65 -15 141q0 187 118 263q119 77 330 77h62v30q0 51 -22 73t-68 22q-86 0 -165 -22
q-71 -20 -128 -46l-109 233q91 65 211 103q123 39 258 39q109 0 191 -20q81 -20 130 -63q51 -45 75 -116q24 -72 24 -174v-418q0 -47 14 -59t72 -12l13 -211q-49 -24 -107 -39q-57 -15 -127 -15q-75 0 -134 32q-59 31 -81 99zM526 1159q-90 0 -155 34q-66 34 -109 85
q-43 50 -64 114q-22 65 -26 119l250 39q11 -52 34 -80q24 -28 70 -28q47 0 71 28q23 28 34 80l250 -39q-4 -54 -26 -119q-21 -64 -64 -114q-43 -51 -109 -85q-65 -34 -156 -34z" />
    <glyph glyph-name="Aogonek" unicode="&#x104;" horiz-adv-x="1402" 
d="M1014 -479q-116 0 -181 57t-65 164q0 90 48 153q46 60 120 105h-197v233l111 27l-35 113h-358l-33 -115l111 -25v-233h-498v236l82 24l356 1167h438l373 -1165l80 -26v-236h-195q-71 -61 -94 -99q-22 -37 -22 -69q0 -61 53 -61q28 0 48 9q22 10 36 19l63 -190
q-39 -42 -98 -65t-143 -23zM528 621h209l-37 120q-27 93 -45 177q-15 71 -20 137h-2q-5 -61 -22 -137q-20 -90 -46 -175z" />
    <glyph glyph-name="aogonek" unicode="&#x105;" horiz-adv-x="1056" 
d="M811 -479q-117 0 -181 57q-65 57 -65 164q0 84 42 144q43 61 108 104q-43 16 -72 42q-30 27 -45 72q-40 -57 -98 -93q-61 -38 -152 -38q-88 0 -146 27t-94 75q-38 50 -52 112q-15 65 -15 141q0 187 118 263q119 77 330 77h62v30q0 51 -22 73t-68 22q-86 0 -165 -22
q-71 -20 -128 -46l-109 233q91 65 211 103q123 39 258 39q109 0 191 -20q81 -20 130 -63q51 -45 75 -116q24 -72 24 -174v-418q0 -47 14 -59t72 -12l13 -211q-89 -35 -142 -83t-53 -112q0 -61 53 -61q29 0 48 9q22 10 36 19l64 -190q-38 -41 -99 -65q-59 -23 -143 -23z
M551 477h-19q-62 0 -82 -30q-20 -31 -20 -99t14 -90q16 -25 54 -25q30 0 53 17v227z" />
    <glyph glyph-name="Cacute" unicode="&#x106;" horiz-adv-x="1144" 
d="M668 -27q-168 0 -288 50q-119 50 -192 142q-72 91 -107 229q-34 135 -34 311q0 208 42 352q41 142 123 231q80 88 198 127q117 39 266 39q118 0 236 -29q115 -28 188 -86v-325h-279l-41 151q-45 27 -94 27q-47 0 -83 -21t-60 -73q-25 -55 -37 -149q-12 -95 -12 -242
t9 -238q9 -90 32 -144q23 -53 59 -72q38 -20 92 -20q20 0 51 7q28 6 51 22l41 158h279v-344q-38 -21 -88 -39t-110 -33q-56 -14 -120 -22q-76 -9 -122 -9zM387 1661l395 307l179 -297l-469 -190z" />
    <glyph glyph-name="cacute" unicode="&#x107;" horiz-adv-x="884" 
d="M545 862q-25 0 -42 -11q-19 -12 -30 -45q-13 -36 -17 -94q-5 -67 -5 -159q0 -85 6 -142q6 -60 23 -92q18 -34 46 -49q27 -14 74 -14q44 0 91 10q52 11 95 37l88 -211q-52 -49 -139 -84t-196 -35q-255 0 -377 139q-121 137 -121 433q0 287 131 421t371 134q110 0 179 -21
t132 -51v-309h-240l-30 129q-14 14 -39 14zM238 1317l395 307l178 -297l-469 -190z" />
    <glyph glyph-name="Ccircumflex" unicode="&#x108;" horiz-adv-x="1144" 
d="M668 -27q-168 0 -288 50q-119 50 -192 142q-72 91 -107 229q-34 135 -34 311q0 208 42 352q41 142 123 231q80 88 198 127q117 39 266 39q118 0 236 -29q115 -28 188 -86v-325h-279l-41 151q-45 27 -94 27q-47 0 -83 -21t-60 -73q-25 -55 -37 -149q-12 -95 -12 -242
t9 -238q9 -90 32 -144q23 -53 59 -72q38 -20 92 -20q20 0 51 7q28 6 51 22l41 158h279v-344q-38 -21 -88 -39t-110 -33q-56 -14 -120 -22q-76 -9 -122 -9zM317 1626l246 287h228l239 -287l-110 -133l-250 147l-242 -147z" />
    <glyph glyph-name="ccircumflex" unicode="&#x109;" horiz-adv-x="884" 
d="M545 862q-25 0 -42 -11q-19 -12 -30 -45q-13 -36 -17 -94q-5 -67 -5 -159q0 -85 6 -142q6 -60 23 -92q18 -34 46 -49q27 -14 74 -14q44 0 91 10q52 11 95 37l88 -211q-52 -49 -139 -84t-196 -35q-255 0 -377 139q-121 137 -121 433q0 287 131 421t371 134q110 0 179 -21
t132 -51v-309h-240l-30 129q-14 14 -39 14zM168 1282l246 287h227l240 -287l-111 -133l-250 147l-241 -147z" />
    <glyph glyph-name="Cdotaccent" unicode="&#x10a;" horiz-adv-x="1144" 
d="M668 -27q-168 0 -288 50q-119 50 -192 142q-72 91 -107 229q-34 135 -34 311q0 208 42 352q41 142 123 231q80 88 198 127q117 39 266 39q118 0 236 -29q115 -28 188 -86v-325h-279l-41 151q-45 27 -94 27q-47 0 -83 -21t-60 -73q-25 -55 -37 -149q-12 -95 -12 -242
t9 -238q9 -90 32 -144q23 -53 59 -72q38 -20 92 -20q20 0 51 7q28 6 51 22l41 158h279v-344q-38 -21 -88 -39t-110 -33q-56 -14 -120 -22q-76 -9 -122 -9zM653 1509q-47 0 -88 18t-71 48q-31 31 -49 71q-17 38 -17 87q0 48 17 86q18 40 49 71q30 30 71 48t88 18t88 -18
q43 -19 72 -48q30 -30 48 -71t18 -86q0 -47 -18 -87q-18 -41 -48 -71q-29 -29 -72 -48q-41 -18 -88 -18z" />
    <glyph glyph-name="cdotaccent" unicode="&#x10b;" horiz-adv-x="884" 
d="M545 862q-25 0 -42 -11q-19 -12 -30 -45q-13 -36 -17 -94q-5 -67 -5 -159q0 -85 6 -142q6 -60 23 -92q18 -34 46 -49q27 -14 74 -14q44 0 91 10q52 11 95 37l88 -211q-52 -49 -139 -84t-196 -35q-255 0 -377 139q-121 137 -121 433q0 287 131 421t371 134q110 0 179 -21
t132 -51v-309h-240l-30 129q-14 14 -39 14zM524 1126q-48 0 -88 18q-41 18 -71 48q-31 31 -49 71q-17 38 -17 87q0 48 17 86q18 40 49 71q30 30 71 48t88 18q48 0 88 -18q43 -19 72 -48q30 -30 48 -71q18 -40 18 -86t-18 -87t-48 -71q-29 -29 -72 -48q-40 -18 -88 -18z" />
    <glyph glyph-name="Ccaron" unicode="&#x10c;" horiz-adv-x="1144" 
d="M668 -27q-168 0 -288 50q-119 50 -192 142q-72 91 -107 229q-34 135 -34 311q0 208 42 352q41 142 123 231q80 88 198 127q117 39 266 39q118 0 236 -29q115 -28 188 -86v-325h-279l-41 151q-45 27 -94 27q-47 0 -83 -21t-60 -73q-25 -55 -37 -149q-12 -95 -12 -242
t9 -238q9 -90 32 -144q23 -53 59 -72q38 -20 92 -20q20 0 51 7q28 6 51 22l41 158h279v-344q-38 -21 -88 -39t-110 -33q-56 -14 -120 -22q-76 -9 -122 -9zM408 1931l241 -147l250 147l111 -133l-240 -287h-227l-246 287z" />
    <glyph glyph-name="ccaron" unicode="&#x10d;" horiz-adv-x="884" 
d="M545 862q-25 0 -42 -11q-19 -12 -30 -45q-13 -36 -17 -94q-5 -67 -5 -159q0 -85 6 -142q6 -60 23 -92q18 -34 46 -49q27 -14 74 -14q44 0 91 10q52 11 95 37l88 -211q-52 -49 -139 -84t-196 -35q-255 0 -377 139q-121 137 -121 433q0 287 131 421t371 134q110 0 179 -21
t132 -51v-309h-240l-30 129q-14 14 -39 14zM279 1587l241 -147l250 147l111 -133l-240 -287h-227l-246 287z" />
    <glyph glyph-name="Dcaron" unicode="&#x10e;" horiz-adv-x="1302" 
d="M662 266q38 0 67 18q30 19 47 69q20 58 27 148q8 101 8 249q0 133 -11 207q-12 81 -33 126t-52 62q-29 16 -70 16h-72v-895h89zM692 1427q141 0 245 -37q106 -38 176 -120q71 -84 107 -214q35 -128 35 -319q0 -173 -23 -304q-24 -136 -84 -232q-60 -97 -165 -149
q-104 -52 -268 -52h-678v236l110 32v891l-110 33v235h655zM371 1931l241 -147l250 147l111 -133l-240 -287h-227l-246 287z" />
    <glyph glyph-name="dcaron" unicode="&#x10f;" horiz-adv-x="1103" 
d="M600 1229l-86 28v248h487v-1247l86 -18v-240h-419l-27 100q-56 -60 -125 -94q-68 -33 -156 -33q-79 0 -141 28q-57 26 -99 92q-40 64 -60 170q-19 102 -19 261q0 175 22 284q23 112 66 176q44 65 105 90q64 26 143 26q74 0 128 -21q58 -22 95 -57v207zM539 817
q-29 0 -45 -13q-18 -15 -25 -47q-8 -38 -11 -91q-3 -57 -3 -144q0 -80 3 -130t12 -80q9 -28 25 -40q14 -10 37 -10q40 0 68 23v512q-17 20 -61 20zM1391 1505l-78 -375h-242v375h320z" />
    <glyph glyph-name="Dcroat" unicode="&#x110;" horiz-adv-x="1302" 
d="M37 842h110v317l-110 33v235h655q141 0 245 -37q106 -38 176 -120q71 -84 107 -214q35 -128 35 -319q0 -173 -23 -304q-24 -136 -84 -232q-60 -97 -165 -149q-104 -52 -268 -52h-678v236l110 32v320h-110v254zM662 266q38 0 67 18q30 19 47 69q20 58 27 148q8 101 8 249
q0 133 -11 207q-12 81 -33 126t-52 62q-29 16 -70 16h-72v-319h127v-254h-127v-322h89z" />
    <glyph glyph-name="dcroat" unicode="&#x111;" horiz-adv-x="1103" 
d="M381 1249h219v41l-86 29v186h487v-256h86v-149h-86v-842l86 -18v-240h-419l-27 100q-56 -60 -125 -94q-68 -33 -156 -33q-80 0 -141 26q-58 25 -99 87t-60 163q-19 99 -19 255q0 165 22 271q22 107 66 170t105 88q64 26 143 26q74 0 128 -21q58 -22 95 -57v119h-219v149z
M539 776q-29 0 -45 -10q-18 -11 -25 -40q-8 -33 -11 -84q-3 -54 -3 -140q0 -80 3 -127q3 -48 12 -73t25 -33q14 -7 37 -7q40 0 68 23v471q-17 20 -61 20z" />
    <glyph glyph-name="Emacron" unicode="&#x112;" horiz-adv-x="1153" 
d="M938 516h-209l-33 84h-123v-334h232l47 172h264v-438h-1079v236l110 32v891l-110 33v235h1057v-409h-269l-32 143h-220v-303h123l33 82h209v-424zM283 1810h602v-282h-602v282z" />
    <glyph glyph-name="emacron" unicode="&#x113;" horiz-adv-x="1030" 
d="M457 412q5 -50 14 -73q11 -27 29 -44q19 -17 48 -23q30 -6 73 -6q60 0 137 16q75 16 129 37l90 -231q-62 -40 -163 -78q-98 -37 -239 -37q-277 0 -406 135q-128 134 -128 435q0 151 38 257q38 107 103 172q68 68 156 97q93 31 192 31q122 0 211 -33q90 -33 144 -104
q55 -71 82 -190q26 -114 26 -286v-75h-536zM621 637q0 63 -1 90q-1 38 -10 72q-7 30 -23 47q-15 16 -44 16q-27 0 -44 -10q-18 -10 -27 -36q-8 -23 -13 -70q-5 -44 -6 -109h168zM244 1497h602v-283h-602v283z" />
    <glyph glyph-name="Ebreve" unicode="&#x114;" horiz-adv-x="1153" 
d="M938 516h-209l-33 84h-123v-334h232l47 172h264v-438h-1079v236l110 32v891l-110 33v235h1057v-409h-269l-32 143h-220v-303h123l33 82h209v-424zM586 1503q-91 0 -156 34q-64 33 -108 85t-65 114q-22 65 -26 119l250 39q11 -51 34 -79q24 -29 71 -29q46 0 70 29
q23 28 34 79l250 -39q-4 -54 -26 -119q-21 -64 -64 -114q-43 -51 -109 -85q-65 -34 -155 -34z" />
    <glyph glyph-name="ebreve" unicode="&#x115;" horiz-adv-x="1030" 
d="M457 412q5 -50 14 -73q11 -27 29 -44q19 -17 48 -23q30 -6 73 -6q60 0 137 16q75 16 129 37l90 -231q-62 -40 -163 -78q-98 -37 -239 -37q-277 0 -406 135q-128 134 -128 435q0 151 38 257q38 107 103 172q68 68 156 97q93 31 192 31q122 0 211 -33q90 -33 144 -104
q55 -71 82 -190q26 -114 26 -286v-75h-536zM621 637q0 63 -1 90q-1 38 -10 72q-7 30 -23 47q-15 16 -44 16q-27 0 -44 -10q-18 -10 -27 -36q-8 -23 -13 -70q-5 -44 -6 -109h168zM545 1159q-91 0 -156 34q-64 33 -108 85t-65 114q-22 65 -26 119l250 39q11 -52 34 -80
q24 -28 71 -28q46 0 70 28q23 28 34 80l250 -39q-4 -54 -26 -119q-21 -64 -64 -114q-43 -51 -109 -85q-65 -34 -155 -34z" />
    <glyph glyph-name="Edotaccent" unicode="&#x116;" horiz-adv-x="1153" 
d="M938 516h-209l-33 84h-123v-334h232l47 172h264v-438h-1079v236l110 32v891l-110 33v235h1057v-409h-269l-32 143h-220v-303h123l33 82h209v-424zM582 1489q-50 0 -88 17q-43 19 -72 48q-30 30 -48 71t-18 87t18 86q19 43 48 72t72 48q38 17 88 17t88 -17q41 -18 71 -48
q31 -31 49 -72q17 -38 17 -86q0 -49 -17 -87q-18 -40 -49 -71q-30 -30 -71 -48q-38 -17 -88 -17z" />
    <glyph glyph-name="edotaccent" unicode="&#x117;" horiz-adv-x="1030" 
d="M457 412q5 -50 14 -73q11 -27 29 -44q19 -17 48 -23q30 -6 73 -6q60 0 137 16q75 16 129 37l90 -231q-62 -40 -163 -78q-98 -37 -239 -37q-277 0 -406 135q-128 134 -128 435q0 151 38 257q38 107 103 172q68 68 156 97q93 31 192 31q122 0 211 -33q90 -33 144 -104
q55 -71 82 -190q26 -114 26 -286v-75h-536zM621 637q0 63 -1 90q-1 38 -10 72q-7 30 -23 47q-15 16 -44 16q-27 0 -44 -10q-18 -10 -27 -36q-8 -23 -13 -70q-5 -44 -6 -109h168zM545 1126q-48 0 -88 18q-43 19 -72 48q-30 30 -48 71q-17 38 -17 87q0 48 17 86q18 41 48 71
q29 29 72 48q40 18 88 18q47 0 88 -18q43 -19 72 -48q30 -30 48 -71q17 -38 17 -86q0 -49 -17 -87q-18 -41 -48 -71q-29 -29 -72 -48q-41 -18 -88 -18z" />
    <glyph glyph-name="Eogonek" unicode="&#x118;" horiz-adv-x="1153" 
d="M817 -479q-117 0 -181 57q-65 57 -65 164q0 89 49 153q47 61 119 105h-702v236l110 32v891l-110 33v235h1057v-409h-269l-32 143h-220v-303h123l33 82h209v-424h-209l-33 84h-123v-334h232l47 172h264v-438h-141q-71 -61 -94 -99t-23 -69q0 -61 53 -61q29 0 48 9
q22 10 36 19l64 -190q-39 -42 -98 -65t-144 -23z" />
    <glyph glyph-name="eogonek" unicode="&#x119;" horiz-adv-x="1030" 
d="M653 -479q-117 0 -181 57t-64 164q0 79 35 134t94 97q-257 7 -377 144q-119 136 -119 426q0 151 38 257q38 107 103 172q68 68 156 97q93 31 192 31q122 0 211 -33q90 -33 144 -104q55 -71 82 -190q26 -114 26 -286v-75h-536q5 -50 14 -73q11 -27 29 -44q19 -17 48 -23
q30 -6 73 -6q60 0 137 16q75 16 129 37l90 -231q-75 -34 -136 -68q-54 -30 -87 -60q-32 -29 -46 -60t-14 -68q0 -61 54 -61q28 0 48 9q19 9 35 19l64 -190q-39 -42 -98 -65t-144 -23zM621 637q0 63 -1 90q-1 38 -10 72q-7 30 -23 47q-15 16 -44 16q-27 0 -44 -10
q-18 -10 -27 -36q-8 -23 -13 -70q-5 -44 -6 -109h168z" />
    <glyph glyph-name="Ecaron" unicode="&#x11a;" horiz-adv-x="1153" 
d="M938 516h-209l-33 84h-123v-334h232l47 172h264v-438h-1079v236l110 32v891l-110 33v235h1057v-409h-269l-32 143h-220v-303h123l33 82h209v-424zM334 1931l241 -147l250 147l111 -133l-240 -287h-227l-246 287z" />
    <glyph glyph-name="ecaron" unicode="&#x11b;" horiz-adv-x="1030" 
d="M457 412q5 -50 14 -73q11 -27 29 -44q19 -17 48 -23q30 -6 73 -6q60 0 137 16q75 16 129 37l90 -231q-62 -40 -163 -78q-98 -37 -239 -37q-277 0 -406 135q-128 134 -128 435q0 151 38 257q38 107 103 172q68 68 156 97q93 31 192 31q122 0 211 -33q90 -33 144 -104
q55 -71 82 -190q26 -114 26 -286v-75h-536zM621 637q0 63 -1 90q-1 38 -10 72q-7 30 -23 47q-15 16 -44 16q-27 0 -44 -10q-18 -10 -27 -36q-8 -23 -13 -70q-5 -44 -6 -109h168zM299 1587l242 -147l250 147l110 -133l-239 -287h-228l-246 287z" />
    <glyph glyph-name="Gcircumflex" unicode="&#x11c;" horiz-adv-x="1222" 
d="M633 569v258h508v-827h-273l-49 109q-33 -73 -106 -104q-75 -32 -160 -32q-111 0 -204 39q-94 40 -161 127q-66 86 -104 227q-37 136 -37 339q0 208 42 352q41 142 123 231q80 88 198 127q117 39 266 39q118 0 236 -29q115 -28 188 -86v-325h-279l-41 151q-45 27 -94 27
q-47 0 -83 -21t-60 -73q-25 -55 -37 -149q-12 -95 -12 -242q0 -141 8 -232q7 -84 26 -132q17 -44 47 -60q28 -15 70 -15q33 0 57 8q17 6 33 17v256zM319 1626l246 287h228l239 -287l-110 -133l-250 147l-242 -147z" />
    <glyph glyph-name="gcircumflex" unicode="&#x11d;" horiz-adv-x="1048" 
d="M1018 1073v-180l-92 -25q35 -81 35 -163q0 -164 -107 -244t-342 -80q-17 0 -63 2q-33 1 -58 8q-7 -8 -11 -20q-5 -13 -5 -29q0 -41 53 -41h256q77 0 138 -17q66 -18 113 -55q50 -39 76 -95q27 -59 27 -140q0 -212 -137 -313t-407 -101q-225 0 -350 68q-124 67 -124 190
q0 40 15 68q15 29 37 48q21 19 51 31q23 10 59 15q-66 24 -90 85q-24 60 -24 124q0 48 13 84q13 35 35 64q21 28 49 49q18 14 56 36q-77 45 -118 123q-40 77 -40 172q0 85 24 152q25 70 76 115q54 47 136 71q88 25 205 25q56 0 97 -7q42 -7 85 -20h332zM338 -76
q-2 -14 -2 -26q0 -54 43 -81q45 -28 123 -28q86 0 141 24t55 72q0 37 -23 48q-24 12 -81 12h-248zM508 588q44 0 62 37t18 114q0 76 -17 112q-16 34 -59 34q-45 0 -60 -32q-16 -34 -16 -112t15 -115q15 -38 57 -38zM174 1282l246 287h227l240 -287l-111 -133l-250 147
l-241 -147z" />
    <glyph glyph-name="Gbreve" unicode="&#x11e;" horiz-adv-x="1222" 
d="M633 569v258h508v-827h-273l-49 109q-33 -73 -106 -104q-75 -32 -160 -32q-111 0 -204 39q-94 40 -161 127q-66 86 -104 227q-37 136 -37 339q0 208 42 352q41 142 123 231q80 88 198 127q117 39 266 39q118 0 236 -29q115 -28 188 -86v-325h-279l-41 151q-45 27 -94 27
q-47 0 -83 -21t-60 -73q-25 -55 -37 -149q-12 -95 -12 -242q0 -141 8 -232q7 -84 26 -132q17 -44 47 -60q28 -15 70 -15q33 0 57 8q17 6 33 17v256zM676 1503q-91 0 -156 34q-64 33 -108 85t-65 114q-20 61 -25 119l249 39q11 -51 34 -79q24 -29 71 -29q46 0 70 29
q23 28 34 79l250 -39q-5 -58 -25 -119q-21 -62 -65 -114q-43 -51 -109 -85q-65 -34 -155 -34z" />
    <glyph glyph-name="gbreve" unicode="&#x11f;" horiz-adv-x="1048" 
d="M1018 1073v-180l-92 -25q35 -81 35 -163q0 -164 -107 -244t-342 -80q-17 0 -63 2q-33 1 -58 8q-7 -8 -11 -20q-5 -13 -5 -29q0 -41 53 -41h256q77 0 138 -17q66 -18 113 -55q50 -39 76 -95q27 -59 27 -140q0 -212 -137 -313t-407 -101q-225 0 -350 68q-124 67 -124 190
q0 40 15 68q15 29 37 48q21 19 51 31q23 10 59 15q-66 24 -90 85q-24 60 -24 124q0 48 13 84q13 35 35 64q21 28 49 49q18 14 56 36q-77 45 -118 123q-40 77 -40 172q0 85 24 152q25 70 76 115q54 47 136 71q88 25 205 25q56 0 97 -7q42 -7 85 -20h332zM338 -76
q-2 -14 -2 -26q0 -54 43 -81q45 -28 123 -28q86 0 141 24t55 72q0 37 -23 48q-24 12 -81 12h-248zM508 588q44 0 62 37t18 114q0 76 -17 112q-16 34 -59 34q-45 0 -60 -32q-16 -34 -16 -112t15 -115q15 -38 57 -38zM530 1159q-90 0 -155 34q-66 34 -109 85q-43 50 -64 114
q-22 65 -26 119l250 39q11 -52 34 -80q24 -28 70 -28q47 0 71 28q23 28 34 80l250 -39q-4 -54 -26 -119q-21 -64 -64 -114q-43 -51 -109 -85q-65 -34 -156 -34z" />
    <glyph glyph-name="Gdotaccent" unicode="&#x120;" horiz-adv-x="1222" 
d="M633 569v258h508v-827h-273l-49 109q-33 -73 -106 -104q-75 -32 -160 -32q-111 0 -204 39q-94 40 -161 127q-66 86 -104 227q-37 136 -37 339q0 208 42 352q41 142 123 231q80 88 198 127q117 39 266 39q118 0 236 -29q115 -28 188 -86v-325h-279l-41 151q-45 27 -94 27
q-47 0 -83 -21t-60 -73q-25 -55 -37 -149q-12 -95 -12 -242q0 -141 8 -232q7 -84 26 -132q17 -44 47 -60q28 -15 70 -15q33 0 57 8q17 6 33 17v256zM676 1489q-50 0 -88 17q-43 19 -72 48q-30 30 -48 71q-17 38 -17 87q0 48 17 86q19 43 48 72t72 48q38 17 88 17t88 -17
q43 -19 72 -48t48 -72q17 -38 17 -86q0 -49 -17 -87q-18 -41 -48 -71q-29 -29 -72 -48q-38 -17 -88 -17z" />
    <glyph glyph-name="gdotaccent" unicode="&#x121;" horiz-adv-x="1048" 
d="M1018 1073v-180l-92 -25q35 -81 35 -163q0 -164 -107 -244t-342 -80q-17 0 -63 2q-33 1 -58 8q-7 -8 -11 -20q-5 -13 -5 -29q0 -41 53 -41h256q77 0 138 -17q66 -18 113 -55q50 -39 76 -95q27 -59 27 -140q0 -212 -137 -313t-407 -101q-225 0 -350 68q-124 67 -124 190
q0 40 15 68q15 29 37 48q21 19 51 31q23 10 59 15q-66 24 -90 85q-24 60 -24 124q0 48 13 84q13 35 35 64q21 28 49 49q18 14 56 36q-77 45 -118 123q-40 77 -40 172q0 85 24 152q25 70 76 115q54 47 136 71q88 25 205 25q56 0 97 -7q42 -7 85 -20h332zM338 -76
q-2 -14 -2 -26q0 -54 43 -81q45 -28 123 -28q86 0 141 24t55 72q0 37 -23 48q-24 12 -81 12h-248zM508 588q44 0 62 37t18 114q0 76 -17 112q-16 34 -59 34q-45 0 -60 -32q-16 -34 -16 -112t15 -115q15 -38 57 -38zM530 1126q-48 0 -88 18q-41 18 -71 48t-48 71t-18 87
t18 86q18 41 48 71t71 48q40 18 88 18t88 -18q43 -19 72 -48q30 -30 48 -71q18 -40 18 -86t-18 -87t-48 -71q-29 -29 -72 -48q-40 -18 -88 -18z" />
    <glyph glyph-name="Gcommaaccent" unicode="&#x122;" horiz-adv-x="1222" 
d="M633 569v258h508v-827h-273l-49 109q-33 -73 -106 -104q-75 -32 -160 -32q-111 0 -204 39q-94 40 -161 127q-66 86 -104 227q-37 136 -37 339q0 208 42 352q41 142 123 231q80 88 198 127q117 39 266 39q118 0 236 -29q115 -28 188 -86v-325h-279l-41 151q-45 27 -94 27
q-47 0 -83 -21t-60 -73q-25 -55 -37 -149q-12 -95 -12 -242q0 -141 8 -232q7 -84 26 -132q17 -44 47 -60q28 -15 70 -15q33 0 57 8q17 6 33 17v256zM492 -483q67 17 103 37q38 21 38 61q-67 8 -110 45q-44 38 -44 115q0 71 53 116q54 46 134 46q38 0 75 -15t67 -42
q28 -25 47 -68q17 -38 17 -97q0 -147 -92 -222q-90 -74 -250 -95z" />
    <glyph glyph-name="gcommaaccent" unicode="&#x123;" horiz-adv-x="1048" 
d="M1018 1073v-180l-92 -25q35 -81 35 -163q0 -164 -107 -244t-342 -80q-17 0 -63 2q-33 1 -58 8q-7 -8 -11 -20q-5 -13 -5 -29q0 -41 53 -41h256q77 0 138 -17q66 -18 113 -55q50 -39 76 -95q27 -59 27 -140q0 -212 -137 -313t-407 -101q-225 0 -350 68q-124 67 -124 190
q0 40 15 68q15 29 37 48q21 19 51 31q23 10 59 15q-66 24 -90 85q-24 60 -24 124q0 48 13 84q13 35 35 64q21 28 49 49q18 14 56 36q-77 45 -118 123q-40 77 -40 172q0 85 24 152q25 70 76 115q54 47 136 71q88 25 205 25q56 0 97 -7q42 -7 85 -20h332zM338 -76
q-2 -14 -2 -26q0 -54 43 -81q45 -28 123 -28q86 0 141 24t55 72q0 37 -23 48q-24 12 -81 12h-248zM508 588q44 0 62 37t18 114q0 76 -17 112q-16 34 -59 34q-45 0 -60 -32q-16 -34 -16 -112t15 -115q15 -38 57 -38zM715 1579q-69 -17 -104 -37q-38 -21 -38 -61
q67 -8 110 -45q44 -38 44 -115q0 -72 -53 -117q-52 -45 -133 -45q-39 0 -76 15q-39 15 -67 41q-27 25 -47 69q-17 38 -17 96q0 148 92 223q90 74 250 95z" />
    <glyph glyph-name="Hcircumflex" unicode="&#x124;" horiz-adv-x="1454" 
d="M770 236l111 32v328h-308v-328l111 -32v-236h-647v236l110 32v891l-110 33v235h647v-235l-111 -33v-297h308v297l-111 33v235h647v-235l-110 -33v-891l110 -32v-236h-647v236zM371 1626l245 287h228l239 -287l-110 -133l-250 147l-242 -147z" />
    <glyph glyph-name="hcircumflex" unicode="&#x125;" horiz-adv-x="1185" 
d="M680 0v719q0 40 -18 58t-50 18q-28 0 -50 -8q-28 -10 -40 -17v-512l86 -18v-240h-573v240l86 18v971l-86 28v248h487v-522q65 54 125 85q62 32 148 32q135 0 212 -72q76 -72 76 -242v-528l86 -18v-240h-489zM-66 1661l246 287h228l239 -287l-110 -133l-250 147l-242 -147
z" />
    <glyph glyph-name="Hbar" unicode="&#x126;" horiz-adv-x="1454" 
d="M37 1077h110v97l-110 32v221h647v-221l-111 -32v-97h308v97l-111 32v221h647v-221l-110 -32v-97h110v-178h-110v-631l110 -32v-236h-647v236l111 32v267h-308v-267l111 -32v-236h-647v236l110 32v631h-110v178zM881 780v119h-308v-119h308z" />
    <glyph glyph-name="hbar" unicode="&#x127;" horiz-adv-x="1185" 
d="M35 1249h100v33l-100 37v186h487v-256h219v-149h-219v-158q65 54 125 85q62 32 148 32q135 0 212 -72q76 -72 76 -242v-487l86 -18v-240h-489v678q0 40 -18 58t-50 18q-28 0 -50 -8q-28 -10 -40 -17v-471l86 -18v-240h-573v240l86 18l12 842h-98v149z" />
    <glyph glyph-name="Itilde" unicode="&#x128;" horiz-adv-x="720" 
d="M37 236l110 32v891l-110 33v235h647v-235l-111 -33v-891l111 -32v-236h-647v236zM741 1767q-34 -119 -99 -186q-64 -65 -146 -65q-42 0 -75 10q-52 16 -65 21q-8 3 -59 22q-27 10 -59 10q-35 0 -55 -17q-21 -18 -44 -53l-155 115q34 119 99 186q65 66 146 66q42 0 75 -10
q42 -13 65 -22q11 -5 32 -12l27 -9q30 -11 59 -11q34 0 55 18q23 20 44 52z" />
    <glyph glyph-name="itilde" unicode="&#x129;" horiz-adv-x="624" 
d="M608 0h-573v240l86 18v526l-86 29v260h487v-815l86 -18v-240zM702 1423q-34 -119 -99 -186q-65 -66 -146 -66q-39 0 -75 11q-52 16 -65 21q-8 3 -59 22q-27 10 -59 10q-35 0 -55 -17q-21 -18 -44 -53l-155 115q34 119 99 186q64 66 146 66q42 0 75 -10q42 -13 65 -22
q11 -5 32 -12l27 -9q30 -11 60 -11q33 0 54 18q23 20 44 52z" />
    <glyph glyph-name="Imacron" unicode="&#x12a;" horiz-adv-x="720" 
d="M37 236l110 32v891l-110 33v235h647v-235l-111 -33v-891l111 -32v-236h-647v236zM61 1810h603v-282h-603v282z" />
    <glyph glyph-name="imacron" unicode="&#x12b;" horiz-adv-x="624" 
d="M608 0h-573v240l86 18v526l-86 29v260h487v-815l86 -18v-240zM20 1497h603v-283h-603v283z" />
    <glyph glyph-name="Ibreve" unicode="&#x12c;" horiz-adv-x="720" 
d="M37 236l110 32v891l-110 33v235h647v-235l-111 -33v-891l111 -32v-236h-647v236zM362 1503q-90 0 -155 34q-66 34 -109 85q-43 50 -64 114q-22 65 -26 119l250 39q11 -51 34 -79q24 -29 70 -29q47 0 71 29q23 28 34 79l250 -39q-4 -54 -26 -119q-21 -64 -64 -114
q-43 -51 -109 -85q-65 -34 -156 -34z" />
    <glyph glyph-name="ibreve" unicode="&#x12d;" horiz-adv-x="624" 
d="M608 0h-573v240l86 18v526l-86 29v260h487v-815l86 -18v-240zM307 1159q-90 0 -155 34q-66 34 -109 85q-44 52 -65 114q-20 61 -25 119l250 39q11 -52 34 -80q24 -28 70 -28q47 0 71 28q23 28 34 80l250 -39q-4 -54 -26 -119q-21 -62 -65 -114t-108 -85q-65 -34 -156 -34
z" />
    <glyph glyph-name="Iogonek" unicode="&#x12e;" horiz-adv-x="720" 
d="M37 236l110 32v891l-110 33v235h647v-235l-111 -33v-891l111 -32v-236h-164q-71 -61 -94 -99t-23 -69q0 -61 54 -61q29 0 48 9q22 10 36 19l63 -190q-39 -42 -98 -65t-144 -23q-116 0 -181 57q-64 57 -64 164q0 90 48 153q46 60 120 105h-248v236z" />
    <glyph glyph-name="iogonek" unicode="&#x12f;" horiz-adv-x="624" 
d="M324 -479q-118 0 -182 57t-64 164q0 90 48 153q46 60 120 105h-211v240l86 18v526l-86 29v260h487v-815l86 -18v-240h-127q-71 -61 -94 -99q-22 -37 -22 -69q0 -61 53 -61q28 0 48 9q22 10 36 19l63 -190q-39 -42 -98 -65t-143 -23zM313 1126q-47 0 -88 18t-71 48
q-31 31 -49 71q-17 38 -17 87q0 48 17 86q18 40 49 71q30 30 71 48t88 18t88 -18q43 -19 72 -48q30 -30 48 -71q18 -40 18 -86t-18 -87t-48 -71q-29 -29 -72 -48q-41 -18 -88 -18z" />
    <glyph glyph-name="Idotaccent" unicode="&#x130;" horiz-adv-x="720" 
d="M37 236l110 32v891l-110 33v235h647v-235l-111 -33v-891l111 -32v-236h-647v236zM362 1489q-50 0 -88 17q-41 18 -71 48t-48 71t-18 87t18 86q19 43 48 72q30 30 71 48q38 17 88 17q51 0 89 -17q41 -18 71 -48q29 -29 48 -72q18 -40 18 -86t-18 -87t-48 -71t-71 -48
q-38 -17 -89 -17z" />
    <glyph glyph-name="dotlessi" unicode="&#x131;" horiz-adv-x="624" 
d="M608 0h-573v240l86 18v526l-86 29v260h487v-815l86 -18v-240z" />
    <glyph glyph-name="IJ" unicode="&#x132;" horiz-adv-x="1441" 
d="M37 236l110 32v891l-110 33v235h647v-235l-111 -33v-891l111 -32v-236h-647v236zM1294 150q0 -114 -29 -195q-30 -85 -88 -150q-55 -62 -146 -114q-86 -49 -200 -90l-116 211q57 42 82 72q31 38 46 77q16 42 20 93q5 58 5 122v983l-110 33v235h647v-235l-111 -33v-1009z
" />
    <glyph glyph-name="ij" unicode="&#x133;" horiz-adv-x="1204" 
d="M313 1126q-47 0 -88 18t-71 48q-31 31 -49 71q-17 38 -17 87q0 48 17 86q18 40 49 71q30 30 71 48t88 18t88 -18q43 -19 72 -48q30 -30 48 -71q18 -40 18 -86t-18 -87t-48 -71q-29 -29 -72 -48q-41 -18 -88 -18zM608 0h-573v240l86 18v526l-86 29v260h487v-815l86 -18
v-240zM610 -172q76 24 106 74q29 48 29 127v755l-86 29v260h488v-997q0 -97 -23 -181q-23 -85 -74 -146q-50 -61 -141 -102q-87 -40 -217 -55zM938 1126q-48 0 -88 18q-43 19 -72 48q-30 30 -48 71q-17 38 -17 87q0 48 17 86q18 41 48 71q29 29 72 48q41 18 88 18
q48 0 88 -18q43 -19 72 -48q30 -30 48 -71q17 -38 17 -86q0 -49 -17 -87q-18 -41 -48 -71q-29 -29 -72 -48q-40 -18 -88 -18z" />
    <glyph glyph-name="Jcircumflex" unicode="&#x134;" horiz-adv-x="720" 
d="M573 150q0 -114 -29 -195q-30 -85 -88 -150q-55 -62 -146 -114q-88 -50 -199 -90l-117 211q57 42 82 72q31 38 46 77q16 42 20 93q5 58 5 122v983l-110 33v235h647v-235l-111 -33v-1009zM8 1626l246 287h227l240 -287l-111 -133l-250 147l-241 -147z" />
    <glyph glyph-name="jcircumflex" unicode="&#x135;" horiz-adv-x="579" 
d="M-14 -172q74 23 105 74q30 49 30 127v755l-86 29v260h487v-997q0 -100 -22 -181q-23 -83 -75 -146q-51 -61 -140 -102q-87 -40 -217 -55zM-35 1282l246 287h227l240 -287l-111 -133l-250 147l-241 -147z" />
    <glyph glyph-name="Kcommaaccent" unicode="&#x136;" horiz-adv-x="1382" 
d="M37 236l110 32v891l-110 33v235h647v-235l-111 -33v-891l111 -32v-236h-647v236zM1346 236v-236h-461l-299 702l309 459l-78 31v235h494v-235l-97 -31l-235 -338l260 -555zM526 -483q69 17 104 37q38 21 38 61q-67 8 -110 45q-44 38 -44 115q0 71 53 116q54 46 133 46
q38 0 76 -15q37 -15 67 -42q28 -25 47 -68q17 -38 17 -97q0 -147 -92 -222q-90 -74 -250 -95z" />
    <glyph glyph-name="kcommaaccent" unicode="&#x137;" horiz-adv-x="1171" 
d="M608 0h-573v240l86 18v971l-86 28v248h487v-1247l86 -18v-240zM659 817v256h484v-260l-111 -16l-131 -172l174 -365l80 -20v-240h-381l-248 526l215 279zM410 -483q67 17 103 37q38 21 38 61q-67 8 -110 45q-44 38 -44 115q0 70 54 116t133 46q38 0 75 -15t67 -42
q28 -25 47 -68q18 -40 18 -97q0 -146 -93 -222q-90 -74 -249 -95z" />
    <glyph glyph-name="kgreenlandic" unicode="&#x138;" horiz-adv-x="1171" 
d="M659 817v256h484v-260l-111 -16l-131 -172l174 -365l80 -20v-240h-381l-248 526l215 279zM608 0h-573v240l86 18v526l-86 29v260h487v-815l86 -18v-240z" />
    <glyph glyph-name="Lacute" unicode="&#x139;" horiz-adv-x="1118" 
d="M573 266h197l47 199h264v-465h-1044v236l110 32v891l-110 33v235h647v-235l-111 -33v-893zM131 1661l395 307l179 -297l-469 -190z" />
    <glyph glyph-name="lacute" unicode="&#x13a;" horiz-adv-x="624" 
d="M608 0h-573v240l86 18v971l-86 28v248h487v-1247l86 -18v-240zM37 1702l395 307l178 -297l-469 -190z" />
    <glyph glyph-name="Lcommaaccent" unicode="&#x13b;" horiz-adv-x="1118" 
d="M573 266h197l47 199h264v-465h-1044v236l110 32v891l-110 33v235h647v-235l-111 -33v-893zM375 -483q67 17 103 37q38 21 38 61q-65 7 -109 45q-45 39 -45 115q0 70 54 116t133 46q39 0 76 -15q35 -14 66 -42q28 -25 47 -68q18 -40 18 -97q0 -147 -92 -222
q-90 -74 -250 -95z" />
    <glyph glyph-name="lcommaaccent" unicode="&#x13c;" horiz-adv-x="624" 
d="M608 0h-573v240l86 18v971l-86 28v248h487v-1247l86 -18v-240zM139 -483q69 17 104 37q38 21 38 61q-67 8 -110 45q-44 38 -44 115q0 71 53 116q54 46 133 46q39 0 76 -15t67 -42q28 -25 47 -68q17 -38 17 -97q0 -147 -92 -222q-90 -74 -250 -95z" />
    <glyph glyph-name="Lcaron" unicode="&#x13d;" horiz-adv-x="1118" 
d="M573 266h197l47 199h264v-465h-1044v236l110 32v891l-110 33v235h647v-235l-111 -33v-893zM1079 1430l-78 -375h-241v375h319z" />
    <glyph glyph-name="lcaron" unicode="&#x13e;" horiz-adv-x="624" 
d="M608 0h-573v240l86 18v971l-86 28v248h487v-1247l86 -18v-240zM911 1505l-77 -375h-242v375h319z" />
    <glyph glyph-name="Ldot" unicode="&#x13f;" horiz-adv-x="1118" 
d="M573 266h197l47 199h264v-465h-1044v236l110 32v891l-110 33v235h647v-235l-111 -33v-893zM920 614q-48 0 -89 18t-71 48t-48 71t-18 87t18 86q18 41 48 71t71 48q40 18 89 18q48 0 88 -18q41 -18 71 -48t48 -71t18 -86q0 -46 -18 -87t-48 -71t-71 -48q-40 -18 -88 -18z
" />
    <glyph glyph-name="ldot" unicode="&#x140;" horiz-adv-x="1038" 
d="M608 0h-573v240l86 18v971l-86 28v248h487v-1247l86 -18v-240zM834 530q-48 0 -89 18t-71 48t-48 71t-18 87t18 86q18 41 48 71t71 48t89 18t88 -18q41 -18 71 -48t48 -71t18 -86q0 -46 -18 -87t-48 -71t-71 -48q-40 -18 -88 -18z" />
    <glyph glyph-name="Lslash" unicode="&#x141;" horiz-adv-x="1118" 
d="M37 633l110 49v477l-110 33v235h647v-235l-111 -33v-303l279 123v-258l-279 -123v-332h197l47 199h264v-465h-1044v236l110 32v156l-110 -49v258z" />
    <glyph glyph-name="lslash" unicode="&#x142;" horiz-adv-x="630" 
d="M35 762l86 41v426l-86 28v248h487v-520l105 51v-258l-105 -51v-469l86 -18v-240h-573v240l86 18v287l-86 -41v258z" />
    <glyph glyph-name="Nacute" unicode="&#x143;" horiz-adv-x="1419" 
d="M860 1192v235h522v-235l-110 -33v-1159h-400l-311 571q-20 37 -48 95q-22 45 -32 76q-12 37 -21 73q-14 59 -18 82h-4q5 -45 6 -82l3 -75q2 -50 2 -81v-391l110 -32v-236h-522v236l110 32v891l-110 33v235h581l254 -499q53 -105 73 -178q24 -90 38 -150h4q-8 73 -12 146
q-4 67 -4 182v231zM463 1661l395 307l178 -297l-469 -190z" />
    <glyph glyph-name="nacute" unicode="&#x144;" horiz-adv-x="1185" 
d="M680 0v719q0 40 -18 58t-50 18q-28 0 -50 -8q-28 -10 -40 -17v-512l86 -18v-240h-573v240l86 18v526l-86 29v260h420l28 -112q20 18 64 52q36 28 69 45q35 18 81 31q40 11 98 11q135 0 212 -72q76 -72 76 -242v-528l86 -18v-240h-489zM315 1317l396 307l178 -297
l-469 -190z" />
    <glyph glyph-name="Ncommaaccent" unicode="&#x145;" horiz-adv-x="1419" 
d="M860 1192v235h522v-235l-110 -33v-1159h-400l-311 571q-20 37 -48 95q-22 45 -32 76q-12 37 -21 73q-14 59 -18 82h-4q5 -45 6 -82l3 -75q2 -50 2 -81v-391l110 -32v-236h-522v236l110 32v891l-110 33v235h581l254 -499q53 -105 73 -178q24 -90 38 -150h4q-8 73 -12 146
q-4 67 -4 182v231zM524 -483q69 17 104 37q38 21 38 61q-67 8 -110 45q-44 38 -44 115q0 71 53 116q54 46 133 46q38 0 76 -15q37 -15 67 -42q28 -25 47 -68q17 -38 17 -97q0 -147 -92 -222q-90 -74 -250 -95z" />
    <glyph glyph-name="ncommaaccent" unicode="&#x146;" horiz-adv-x="1185" 
d="M680 0v719q0 40 -18 58t-50 18q-28 0 -50 -8q-28 -10 -40 -17v-512l86 -18v-240h-573v240l86 18v526l-86 29v260h420l28 -112q20 18 64 52q36 28 69 45q35 18 81 31q40 11 98 11q135 0 212 -72q76 -72 76 -242v-528l86 -18v-240h-489zM418 -483q67 17 103 37q38 21 38 61
q-65 7 -109 45t-44 115q0 71 53 116q54 46 133 46q38 0 76 -15q35 -14 66 -42q28 -25 47 -68q18 -40 18 -97q0 -147 -92 -222q-90 -74 -250 -95z" />
    <glyph glyph-name="Ncaron" unicode="&#x147;" horiz-adv-x="1419" 
d="M860 1192v235h522v-235l-110 -33v-1159h-400l-311 571q-20 37 -48 95q-22 45 -32 76q-12 37 -21 73q-14 59 -18 82h-4q5 -45 6 -82l3 -75q2 -50 2 -81v-391l110 -32v-236h-522v236l110 32v891l-110 33v235h581l254 -499q53 -105 73 -178q24 -90 38 -150h4q-8 73 -12 146
q-4 67 -4 182v231zM483 1931l242 -147l250 147l110 -133l-239 -287h-228l-245 287z" />
    <glyph glyph-name="ncaron" unicode="&#x148;" horiz-adv-x="1185" 
d="M680 0v719q0 40 -18 58t-50 18q-28 0 -50 -8q-28 -10 -40 -17v-512l86 -18v-240h-573v240l86 18v526l-86 29v260h420l28 -112q20 18 64 52q36 28 69 45q35 18 81 31q40 11 98 11q135 0 212 -72q76 -72 76 -242v-528l86 -18v-240h-489zM356 1587l242 -147l250 147
l110 -133l-239 -287h-227l-246 287z" />
    <glyph glyph-name="napostrophe" unicode="&#x149;" horiz-adv-x="1411" 
d="M905 0v719q0 40 -18 58t-49 18q-29 0 -51 -8q-25 -9 -39 -17v-512l86 -18v-240h-574v240l86 18v526l-86 29v260h420l29 -112q26 23 63 52q34 26 70 45q35 18 81 31q40 11 97 11q136 0 212 -72q77 -72 77 -242v-528l86 -18v-240h-490zM-37 1137q69 17 104 37q37 21 37 61
q-65 7 -109 45t-44 115q0 71 53 116q52 45 133 45q41 0 76 -14q37 -15 67 -42q28 -25 47 -68q17 -38 17 -97q0 -147 -92 -222q-90 -74 -250 -95z" />
    <glyph glyph-name="Eng" unicode="&#x14a;" horiz-adv-x="1419" 
d="M561 571q-20 37 -48 95q-22 45 -32 76q-12 37 -21 73q-14 59 -18 82h-4q5 -45 6 -82l3 -75q2 -50 2 -81v-391l110 -32v-236h-522v236l110 32v891l-110 33v235h581l254 -499q53 -105 73 -178q24 -90 38 -150h4q-8 73 -12 146q-4 67 -4 182v229l-111 33v235h522v-235
l-110 -33v-1007q0 -111 -30 -195q-30 -85 -88 -150q-56 -64 -145 -114q-86 -49 -200 -90l-117 211q43 20 70 36q28 17 53 40q19 18 37 50q14 25 20 66z" />
    <glyph glyph-name="eng" unicode="&#x14b;" horiz-adv-x="1140" 
d="M1083 76q0 -100 -22 -181t-76 -146q-50 -61 -141 -102q-87 -40 -217 -55l-82 236q74 23 105 74q30 50 30 127v690q0 40 -18 58t-50 18q-28 0 -50 -8q-28 -10 -40 -17v-512l86 -18v-240h-573v240l86 18v526l-86 29v260h420l28 -112q20 18 64 52q36 28 69 45q35 18 81 31
q40 11 98 11q135 0 212 -72q76 -72 76 -242v-710z" />
    <glyph glyph-name="Omacron" unicode="&#x14c;" horiz-adv-x="1286" 
d="M643 -27q-304 0 -450 181t-146 559q0 375 146 559q145 182 450 182q306 0 451 -182t145 -559q0 -380 -145 -559q-146 -181 -451 -181zM643 236q46 0 75 23q30 24 46 80q16 55 22 147q7 107 7 227t-7 227q-6 94 -22 147q-17 57 -46 80q-31 25 -75 25q-46 0 -76 -25
q-28 -24 -45 -80q-16 -53 -22 -147q-6 -92 -6 -227t6 -227t22 -147q16 -56 45 -80q27 -23 76 -23zM342 1810h602v-282h-602v282z" />
    <glyph glyph-name="omacron" unicode="&#x14d;" horiz-adv-x="1064" 
d="M457 537q0 -103 3 -167q3 -69 10 -100q8 -35 23 -47t39 -12q25 0 40 12t23 47q7 31 10 100q3 64 3 167q0 102 -3 165q-3 67 -10 100q-7 36 -23 48q-15 12 -40 12q-24 0 -39 -12q-16 -12 -23 -48q-7 -33 -10 -100q-3 -63 -3 -165zM41 537q0 296 124 429q125 134 367 134
q243 0 368 -134q124 -133 124 -429t-124 -429q-126 -135 -368 -135q-241 0 -367 135q-124 133 -124 429zM233 1497h603v-283h-603v283z" />
    <glyph glyph-name="Obreve" unicode="&#x14e;" horiz-adv-x="1286" 
d="M643 -27q-304 0 -450 181t-146 559q0 375 146 559q145 182 450 182q306 0 451 -182t145 -559q0 -380 -145 -559q-146 -181 -451 -181zM643 236q46 0 75 23q30 24 46 80q16 55 22 147q7 107 7 227t-7 227q-6 94 -22 147q-17 57 -46 80q-31 25 -75 25q-46 0 -76 -25
q-28 -24 -45 -80q-16 -53 -22 -147q-6 -92 -6 -227t6 -227t22 -147q16 -56 45 -80q27 -23 76 -23zM643 1503q-91 0 -156 34q-64 33 -108 85t-65 114q-20 61 -25 119l250 39q11 -53 33 -79q24 -29 71 -29t71 29q23 28 34 79l249 -39q-5 -58 -25 -119q-21 -62 -65 -114
t-108 -85q-65 -34 -156 -34z" />
    <glyph glyph-name="obreve" unicode="&#x14f;" horiz-adv-x="1064" 
d="M457 537q0 -103 3 -167q3 -69 10 -100q8 -35 23 -47t39 -12q25 0 40 12t23 47q7 31 10 100q3 64 3 167q0 102 -3 165q-3 67 -10 100q-7 36 -23 48q-15 12 -40 12q-24 0 -39 -12q-16 -12 -23 -48q-7 -33 -10 -100q-3 -63 -3 -165zM41 537q0 296 124 429q125 134 367 134
q243 0 368 -134q124 -133 124 -429t-124 -429q-126 -135 -368 -135q-241 0 -367 135q-124 133 -124 429zM535 1159q-91 0 -156 34q-66 34 -109 85q-43 50 -64 114q-22 65 -26 119l250 39q11 -52 34 -80q24 -28 71 -28q46 0 70 28q23 28 34 80l250 -39q-4 -54 -26 -119
q-21 -64 -64 -114q-43 -51 -109 -85q-65 -34 -155 -34z" />
    <glyph glyph-name="Ohungarumlaut" unicode="&#x150;" horiz-adv-x="1286" 
d="M643 -27q-304 0 -450 181t-146 559q0 375 146 559q145 182 450 182q306 0 451 -182t145 -559q0 -380 -145 -559q-146 -181 -451 -181zM643 236q46 0 75 23q30 24 46 80q16 55 22 147q7 107 7 227t-7 227q-6 94 -22 147q-17 57 -46 80q-31 25 -75 25q-46 0 -76 -25
q-28 -24 -45 -80q-16 -53 -22 -147q-6 -92 -6 -227t6 -227t22 -147q16 -56 45 -80q27 -23 76 -23zM713 1597l198 449l293 -137l-297 -422zM281 1597l198 449l293 -137l-297 -422z" />
    <glyph glyph-name="ohungarumlaut" unicode="&#x151;" horiz-adv-x="1064" 
d="M457 537q0 -103 3 -167q3 -69 10 -100q8 -35 23 -47t39 -12q25 0 40 12t23 47q7 31 10 100q3 64 3 167q0 102 -3 165q-3 67 -10 100q-7 36 -23 48q-15 12 -40 12q-24 0 -39 -12q-16 -12 -23 -48q-7 -33 -10 -100q-3 -63 -3 -165zM41 537q0 296 124 429q125 134 367 134
q243 0 368 -134q124 -133 124 -429t-124 -429q-126 -135 -368 -135q-241 0 -367 135q-124 133 -124 429zM631 1288l198 449l293 -138l-297 -421zM199 1288l198 449l293 -138l-297 -421z" />
    <glyph glyph-name="OE" unicode="&#x152;" horiz-adv-x="1734" 
d="M729 1161h-72q-40 0 -69 -16q-31 -17 -52 -62t-33 -126q-11 -74 -11 -207q0 -148 8 -249q7 -94 26 -148q17 -50 47 -69q28 -18 68 -18h88v895zM1675 1427v-409h-268l-33 143h-219v-303h123l33 82h209v-424h-209l-33 84h-123v-334h231l48 172h264v-438h-1110
q-165 0 -269 52q-103 52 -164 149q-60 96 -84 232q-24 137 -24 304q0 187 36 319t106 214t177 120q104 37 244 37h1065z" />
    <glyph glyph-name="oe" unicode="&#x153;" horiz-adv-x="1601" 
d="M532 1100q83 0 162 -29q76 -28 129 -76q52 44 127 75q74 30 158 30q122 0 207 -33q87 -33 141 -104q55 -71 82 -190t27 -286v-75h-537q5 -50 14 -73q11 -27 29 -44q19 -17 48 -23q30 -6 73 -6q60 0 137 16q75 16 129 37l90 -231q-62 -40 -163 -78q-98 -37 -238 -37
q-200 0 -326 103q-47 -45 -124 -74q-78 -29 -165 -29q-241 0 -367 135q-124 133 -124 429t124 429q125 134 367 134zM457 537q0 -103 3 -167q3 -69 10 -100q8 -35 23 -47t39 -12q25 0 40 12t23 47q7 31 10 100q3 64 3 167q0 102 -3 165q-3 67 -10 100q-7 36 -23 48
q-15 12 -40 12q-24 0 -39 -12q-16 -12 -23 -48q-7 -33 -10 -100q-3 -63 -3 -165zM1192 637q0 63 -1 90q-2 42 -9 72q-7 28 -24 47q-15 16 -44 16q-27 0 -44 -10q-18 -10 -27 -36q-8 -23 -13 -70q-5 -44 -6 -109h168z" />
    <glyph glyph-name="Racute" unicode="&#x154;" horiz-adv-x="1339" 
d="M678 799q56 0 81 46t25 146q0 170 -102 170h-109v-362h105zM1303 236v-236h-474l-131 399q-27 79 -45 110q-18 32 -59 32h-21v-273l111 -32v-236h-647v236l110 32v891l-110 33v235h639q149 0 246 -25q96 -25 157 -78q60 -52 85 -130q26 -80 26 -182q0 -85 -23 -149
q-22 -62 -61 -104q-40 -43 -88 -65q-49 -22 -103 -30v-5q44 -8 76 -22q38 -17 64 -41q27 -25 52 -68q24 -41 42 -100l51 -162zM383 1661l395 307l178 -297l-469 -190z" />
    <glyph glyph-name="racute" unicode="&#x155;" horiz-adv-x="841" 
d="M483 936q39 58 107 106t139 48q18 0 58 -6q29 -4 49 -11l-31 -371q-33 16 -75 24q-39 7 -77 7q-45 0 -74 -7q-38 -9 -57 -15v-453l123 -18v-240h-610v240l86 18v526l-86 29v260h420zM170 1317l395 307l178 -297l-469 -190z" />
    <glyph glyph-name="Rcommaaccent" unicode="&#x156;" horiz-adv-x="1339" 
d="M678 799q56 0 81 46t25 146q0 170 -102 170h-109v-362h105zM1303 236v-236h-474l-131 399q-27 79 -45 110q-18 32 -59 32h-21v-273l111 -32v-236h-647v236l110 32v891l-110 33v235h639q149 0 246 -25q96 -25 157 -78q60 -52 85 -130q26 -80 26 -182q0 -85 -23 -149
q-22 -62 -61 -104q-40 -43 -88 -65q-49 -22 -103 -30v-5q44 -8 76 -22q38 -17 64 -41q27 -25 52 -68q24 -41 42 -100l51 -162zM485 -483q69 17 104 37q38 21 38 61q-67 8 -110 45q-44 38 -44 115q0 71 53 116q54 46 133 46q39 0 76 -15t67 -42q28 -25 47 -68q17 -38 17 -97
q0 -147 -92 -222q-90 -74 -250 -95z" />
    <glyph glyph-name="rcommaaccent" unicode="&#x157;" horiz-adv-x="841" 
d="M483 936q39 58 107 106t139 48q18 0 58 -6q29 -4 49 -11l-31 -371q-33 16 -75 24q-39 7 -77 7q-45 0 -74 -7q-38 -9 -57 -15v-453l123 -18v-240h-610v240l86 18v526l-86 29v260h420zM147 -483q69 17 104 37q38 21 38 61q-67 8 -110 45q-44 38 -44 115q0 71 53 116
q54 46 134 46q38 0 75 -15t67 -42q28 -25 47 -68q17 -38 17 -97q0 -147 -92 -222q-90 -74 -250 -95z" />
    <glyph glyph-name="Rcaron" unicode="&#x158;" horiz-adv-x="1339" 
d="M678 799q56 0 81 46t25 146q0 170 -102 170h-109v-362h105zM1303 236v-236h-474l-131 399q-27 79 -45 110q-18 32 -59 32h-21v-273l111 -32v-236h-647v236l110 32v891l-110 33v235h639q149 0 246 -25q96 -25 157 -78q60 -52 85 -130q26 -80 26 -182q0 -85 -23 -149
q-22 -62 -61 -104q-40 -43 -88 -65q-49 -22 -103 -30v-5q44 -8 76 -22q38 -17 64 -41q27 -25 52 -68q24 -41 42 -100l51 -162zM383 1931l242 -147l250 147l110 -133l-240 -287h-227l-246 287z" />
    <glyph glyph-name="rcaron" unicode="&#x159;" horiz-adv-x="841" 
d="M483 936q39 58 107 106t139 48q18 0 58 -6q29 -4 49 -11l-31 -371q-33 16 -75 24q-39 7 -77 7q-45 0 -74 -7q-38 -9 -57 -15v-453l123 -18v-240h-610v240l86 18v526l-86 29v260h420zM211 1587l242 -147l249 147l111 -133l-240 -287h-227l-246 287z" />
    <glyph glyph-name="Sacute" unicode="&#x15a;" horiz-adv-x="1060" 
d="M475 -27q-145 0 -255 29q-102 27 -173 64v348h266l54 -152q17 -10 45 -18q30 -8 63 -8q69 0 103 25t34 101q0 40 -9 67q-9 28 -30 47q-20 19 -55 34q-34 15 -84 27q-120 30 -197 75t-122 104q-46 59 -62 131q-16 70 -16 159q0 125 39 211q40 88 106 139q69 54 161 76
q91 22 204 22q106 0 211 -21q98 -20 176 -57v-325h-270l-39 125q-25 10 -44 13q-18 3 -51 3q-44 0 -75 -23t-31 -82q0 -53 38 -85q37 -31 136 -58q103 -28 189 -70q79 -39 128 -97q50 -59 72 -139q23 -83 23 -194q0 -227 -126 -349q-127 -122 -409 -122zM262 1661l395 307
l179 -297l-469 -190z" />
    <glyph glyph-name="sacute" unicode="&#x15b;" horiz-adv-x="868" 
d="M401 -27q-133 0 -216 21q-87 22 -154 57v266h243l37 -100q16 -7 35 -12q16 -4 41 -4q47 0 73 17q27 18 27 50q0 23 -6 38q-6 16 -22 27q-12 9 -47 21q-29 10 -80 21q-160 35 -238 123t-78 247q0 169 114 262t325 93q110 0 191 -21q83 -22 145 -51v-260h-240l-31 88
q-32 14 -74 14q-45 0 -67 -19q-23 -20 -23 -48q0 -37 34 -58q31 -19 124 -36q179 -34 252 -127q72 -92 72 -244q0 -92 -33 -161q-33 -70 -91 -114q-57 -44 -139 -67q-81 -23 -174 -23zM158 1317l395 307l178 -297l-469 -190z" />
    <glyph glyph-name="Scircumflex" unicode="&#x15c;" horiz-adv-x="1060" 
d="M475 -27q-145 0 -255 29q-102 27 -173 64v348h266l54 -152q17 -10 45 -18q30 -8 63 -8q69 0 103 25t34 101q0 40 -9 67q-9 28 -30 47q-20 19 -55 34q-34 15 -84 27q-120 30 -197 75t-122 104q-46 59 -62 131q-16 70 -16 159q0 125 39 211q40 88 106 139q69 54 161 76
q91 22 204 22q106 0 211 -21q98 -20 176 -57v-325h-270l-39 125q-25 10 -44 13q-18 3 -51 3q-44 0 -75 -23t-31 -82q0 -53 38 -85q37 -31 136 -58q103 -28 189 -70q79 -39 128 -97q50 -59 72 -139q23 -83 23 -194q0 -227 -126 -349q-127 -122 -409 -122zM172 1626l246 287
h227l240 -287l-111 -133l-250 147l-241 -147z" />
    <glyph glyph-name="scircumflex" unicode="&#x15d;" horiz-adv-x="868" 
d="M401 -27q-133 0 -216 21q-87 22 -154 57v266h243l37 -100q16 -7 35 -12q16 -4 41 -4q47 0 73 17q27 18 27 50q0 23 -6 38q-6 16 -22 27q-12 9 -47 21q-29 10 -80 21q-160 35 -238 123t-78 247q0 169 114 262t325 93q110 0 191 -21q83 -22 145 -51v-260h-240l-31 88
q-32 14 -74 14q-45 0 -67 -19q-23 -20 -23 -48q0 -37 34 -58q31 -19 124 -36q179 -34 252 -127q72 -92 72 -244q0 -92 -33 -161q-33 -70 -91 -114q-57 -44 -139 -67q-81 -23 -174 -23zM72 1282l245 287h228l239 -287l-110 -133l-250 147l-242 -147z" />
    <glyph glyph-name="Scedilla" unicode="&#x15e;" horiz-adv-x="1060" 
d="M475 -479q-69 0 -118 14q-54 15 -81 31l54 151q22 -12 48 -21t54 -9q49 0 68 11q20 11 20 40t-22 39q-21 10 -62 10q-17 0 -41 -2q-18 -1 -30 -6l55 196q-129 5 -220 31q-93 27 -153 60v348h266l54 -152q17 -10 45 -18q30 -8 63 -8q69 0 103 25t34 101q0 40 -9 67
q-9 28 -30 47q-20 19 -55 34q-34 15 -84 27q-120 30 -197 75t-122 104q-46 59 -62 131q-16 70 -16 159q0 125 39 211q40 88 106 139q69 54 161 76q91 22 204 22q106 0 211 -21q98 -20 176 -57v-325h-270l-39 125q-25 10 -44 13q-18 3 -51 3q-44 0 -75 -23t-31 -82
q0 -53 38 -85q37 -31 136 -58q103 -28 189 -70q79 -39 128 -97q50 -59 72 -139q23 -83 23 -194q0 -209 -106 -329t-341 -138l-14 -53q188 -22 188 -196q0 -102 -64 -154q-65 -53 -198 -53z" />
    <glyph glyph-name="scedilla" unicode="&#x15f;" horiz-adv-x="868" 
d="M371 -479q-69 0 -118 14q-54 15 -81 31l53 151q23 -12 48 -21q26 -9 55 -9q48 0 67 11q21 12 21 40t-23 39q-21 10 -61 10q-17 0 -41 -2q-19 -2 -31 -6l55 196q-90 6 -159 26q-61 18 -125 50v266h243l37 -100q16 -7 35 -12q16 -4 41 -4q47 0 73 17q27 18 27 50
q0 23 -6 38q-6 16 -22 27q-12 9 -47 21q-29 10 -80 21q-160 35 -238 123t-78 247q0 169 114 262t325 93q110 0 191 -21q83 -22 145 -51v-260h-240l-31 88q-32 14 -74 14q-45 0 -67 -19q-23 -20 -23 -48q0 -37 34 -58q31 -19 124 -36q179 -34 252 -127q72 -92 72 -244
q0 -85 -29 -152q-28 -64 -79 -109q-50 -44 -120 -70q-71 -26 -151 -32l-15 -51q189 -22 189 -196q0 -101 -65 -154t-197 -53z" />
    <glyph glyph-name="Scaron" unicode="&#x160;" horiz-adv-x="1060" 
d="M475 -27q-145 0 -255 29q-102 27 -173 64v348h266l54 -152q17 -10 45 -18q30 -8 63 -8q69 0 103 25t34 101q0 40 -9 67q-9 28 -30 47q-20 19 -55 34q-34 15 -84 27q-120 30 -197 75t-122 104q-46 59 -62 131q-16 70 -16 159q0 125 39 211q40 88 106 139q69 54 161 76
q91 22 204 22q106 0 211 -21q98 -20 176 -57v-325h-270l-39 125q-25 10 -44 13q-18 3 -51 3q-44 0 -75 -23t-31 -82q0 -53 38 -85q37 -31 136 -58q103 -28 189 -70q79 -39 128 -97q50 -59 72 -139q23 -83 23 -194q0 -227 -126 -349q-127 -122 -409 -122zM283 1931l241 -147
l250 147l111 -133l-240 -287h-227l-246 287z" />
    <glyph glyph-name="scaron" unicode="&#x161;" horiz-adv-x="868" 
d="M401 -27q-133 0 -216 21q-87 22 -154 57v266h243l37 -100q16 -7 35 -12q16 -4 41 -4q47 0 73 17q27 18 27 50q0 23 -6 38q-6 16 -22 27q-12 9 -47 21q-29 10 -80 21q-160 35 -238 123t-78 247q0 169 114 262t325 93q110 0 191 -21q83 -22 145 -51v-260h-240l-31 88
q-32 14 -74 14q-45 0 -67 -19q-23 -20 -23 -48q0 -37 34 -58q31 -19 124 -36q179 -34 252 -127q72 -92 72 -244q0 -92 -33 -161q-33 -70 -91 -114q-57 -44 -139 -67q-81 -23 -174 -23zM182 1587l242 -147l250 147l110 -133l-239 -287h-228l-245 287z" />
    <glyph glyph-name="Tcommaaccent" unicode="&#x162;" horiz-adv-x="1286" 
d="M319 236l111 32v893h-92l-33 -219h-268v485h1212v-485h-268l-33 219h-92v-893l111 -32v-236h-258l-21 -76q189 -22 189 -196q0 -101 -65 -154t-198 -53q-68 0 -117 14q-54 15 -81 31l53 151q23 -12 48 -21t54 -9q49 0 68 11q20 11 20 40t-22 39q-21 10 -62 10
q-16 0 -40 -2q-19 -2 -31 -6l63 221h-248v236z" />
    <glyph glyph-name="tcommaaccent" unicode="&#x163;" horiz-adv-x="720" 
d="M354 -479q-68 0 -117 14q-54 15 -81 31l53 151q23 -12 48 -21t54 -9q49 0 68 11q20 11 20 40t-22 39q-21 10 -62 10q-17 0 -41 -2q-18 -1 -30 -6l59 209q-91 23 -140 91q-50 70 -50 210v526h-93v258h93v238l401 63v-301h174v-258h-174v-479q0 -44 13 -58q14 -16 46 -16
q23 0 45 3t39 9l43 -247q-31 -15 -98 -34q-65 -19 -162 -20l-12 -49q188 -22 188 -196q0 -102 -64 -154q-65 -53 -198 -53z" />
    <glyph glyph-name="Tcaron" unicode="&#x164;" horiz-adv-x="1286" 
d="M319 236l111 32v893h-92l-33 -219h-268v485h1212v-485h-268l-33 219h-92v-893l111 -32v-236h-648v236zM397 1931l242 -147l250 147l110 -133l-239 -287h-228l-245 287z" />
    <glyph glyph-name="tcaron" unicode="&#x165;" horiz-adv-x="720" 
d="M20 815v258h93v238l401 63v-301h174v-258h-174v-479q0 -44 13 -58q14 -16 46 -16q23 0 45 3t39 9l43 -247q-36 -17 -101 -35q-70 -19 -171 -19q-72 0 -129 15q-59 15 -99 50q-43 37 -65 97t-22 154v526h-93zM893 1538l-78 -375h-242v375h320z" />
    <glyph glyph-name="Tbar" unicode="&#x166;" horiz-adv-x="1286" 
d="M205 821h225v340h-92l-33 -219h-268v485h1212v-485h-268l-33 219h-92v-340h225v-248h-225v-305l111 -32v-236h-648v236l111 32v305h-225v248z" />
    <glyph glyph-name="tbar" unicode="&#x167;" horiz-adv-x="720" 
d="M20 647h93v168h-93v258h93v238l401 63v-301h174v-258h-174v-168h174v-213h-174v-43q0 -44 13 -86q13 -43 46 -43q23 0 45 3t39 9l43 -247q-36 -17 -101 -35q-70 -19 -171 -19q-72 0 -129 15q-59 15 -99 50q-43 37 -65 97t-22 154v145h-93v213z" />
    <glyph glyph-name="Utilde" unicode="&#x168;" horiz-adv-x="1366" 
d="M573 1427v-1026q0 -52 22 -80t73 -28q31 0 68 8q33 7 57 25v833l-111 33v235h537v-1159l110 -32v-236h-411l-50 121q-57 -62 -134 -104q-80 -44 -195 -44q-200 0 -294 124q-95 125 -95 380l-3 682l-110 33v235h536zM1061 1767q-34 -119 -99 -186q-64 -65 -147 -65
q-42 0 -75 10q-48 15 -64 21q-12 5 -35 13t-25 9q-27 10 -59 10q-34 0 -54 -17q-21 -18 -44 -53l-156 115q34 119 99 186q64 66 147 66q42 0 75 -10q38 -11 64 -22q11 -4 32 -11t28 -10q30 -11 59 -11q33 0 54 18q23 20 44 52z" />
    <glyph glyph-name="utilde" unicode="&#x169;" horiz-adv-x="1167" 
d="M1151 240v-240h-422l-20 106q-9 -8 -56 -46q-29 -23 -67 -43q-35 -18 -81 -31q-47 -13 -95 -13q-136 0 -212 72q-77 72 -77 242v497l-86 29v260h487v-731q0 -44 23 -59t45 -15q43 0 74 25v491l-70 29v260h471v-815zM971 1423q-33 -118 -100 -186q-65 -66 -146 -66
q-39 0 -75 11q-48 15 -64 21q-12 5 -35 13t-25 9q-27 10 -59 10q-34 0 -54 -17q-21 -18 -44 -53l-156 115q34 119 99 186q64 66 147 66q42 0 75 -10q38 -11 64 -22q11 -5 32 -12l27 -9q30 -11 60 -11q33 0 54 18q23 20 44 52z" />
    <glyph glyph-name="Umacron" unicode="&#x16a;" horiz-adv-x="1366" 
d="M573 1427v-1026q0 -52 22 -80t73 -28q31 0 68 8q33 7 57 25v833l-111 33v235h537v-1159l110 -32v-236h-411l-50 121q-57 -62 -134 -104q-80 -44 -195 -44q-200 0 -294 124q-95 125 -95 380l-3 682l-110 33v235h536zM381 1810h602v-282h-602v282z" />
    <glyph glyph-name="umacron" unicode="&#x16b;" horiz-adv-x="1167" 
d="M1151 240v-240h-422l-20 106q-9 -8 -56 -46q-29 -23 -67 -43q-35 -18 -81 -31q-47 -13 -95 -13q-136 0 -212 72q-77 72 -77 242v497l-86 29v260h487v-731q0 -44 23 -59t45 -15q43 0 74 25v491l-70 29v260h471v-815zM291 1497h602v-283h-602v283z" />
    <glyph glyph-name="Ubreve" unicode="&#x16c;" horiz-adv-x="1366" 
d="M573 1427v-1026q0 -52 22 -80t73 -28q31 0 68 8q33 7 57 25v833l-111 33v235h537v-1159l110 -32v-236h-411l-50 121q-57 -62 -134 -104q-80 -44 -195 -44q-200 0 -294 124q-95 125 -95 380l-3 682l-110 33v235h536zM682 1503q-91 0 -156 34q-64 33 -108 85t-65 114
q-20 61 -25 119l250 39q11 -53 33 -79q24 -29 71 -29t71 29q22 26 33 79l250 -39q-5 -58 -25 -119q-21 -62 -65 -114t-108 -85q-65 -34 -156 -34z" />
    <glyph glyph-name="ubreve" unicode="&#x16d;" horiz-adv-x="1167" 
d="M1151 240v-240h-422l-20 106q-9 -8 -56 -46q-29 -23 -67 -43q-35 -18 -81 -31q-47 -13 -95 -13q-136 0 -212 72q-77 72 -77 242v497l-86 29v260h487v-731q0 -44 23 -59t45 -15q43 0 74 25v491l-70 29v260h471v-815zM592 1159q-91 0 -156 34q-64 33 -108 85t-65 114
q-20 61 -25 119l249 39q11 -52 34 -80q24 -28 71 -28t71 28q22 26 33 80l250 -39q-5 -58 -25 -119q-21 -62 -65 -114t-108 -85q-65 -34 -156 -34z" />
    <glyph glyph-name="Uring" unicode="&#x16e;" horiz-adv-x="1366" 
d="M573 1427v-1026q0 -52 22 -80t73 -28q31 0 68 8q33 7 57 25v833l-111 33v235h537v-1159l110 -32v-236h-411l-50 121q-57 -62 -134 -104q-80 -44 -195 -44q-200 0 -294 124q-95 125 -95 380l-3 682l-110 33v235h536zM682 1485q-123 0 -199 67q-75 66 -75 187q0 117 75 185
q76 69 199 69q122 0 199 -69q75 -68 75 -185q0 -121 -75 -187q-76 -67 -199 -67zM682 1640q68 0 68 99q0 98 -68 98t-68 -98q0 -99 68 -99z" />
    <glyph glyph-name="uring" unicode="&#x16f;" horiz-adv-x="1167" 
d="M1151 240v-240h-422l-20 106q-9 -8 -56 -46q-29 -23 -67 -43q-35 -18 -81 -31q-47 -13 -95 -13q-136 0 -212 72q-77 72 -77 242v497l-86 29v260h487v-731q0 -44 23 -59t45 -15q43 0 74 25v491l-70 29v260h471v-815zM592 1155q-122 0 -199 68q-76 67 -76 186q0 116 76 185
q77 69 199 69t199 -69q75 -68 75 -185q0 -120 -75 -186q-77 -68 -199 -68zM592 1311q67 0 67 98t-67 98q-68 0 -68 -98t68 -98z" />
    <glyph glyph-name="Uhungarumlaut" unicode="&#x170;" horiz-adv-x="1366" 
d="M573 1427v-1026q0 -52 22 -80t73 -28q31 0 68 8q33 7 57 25v833l-111 33v235h537v-1159l110 -32v-236h-411l-50 121q-57 -62 -134 -104q-80 -44 -195 -44q-200 0 -294 124q-95 125 -95 380l-3 682l-110 33v235h536zM752 1597l198 449l293 -137l-297 -422zM319 1597
l199 449l293 -137l-297 -422z" />
    <glyph glyph-name="uhungarumlaut" unicode="&#x171;" horiz-adv-x="1167" 
d="M1151 240v-240h-422l-20 106q-9 -8 -56 -46q-29 -23 -67 -43q-35 -18 -81 -31q-47 -13 -95 -13q-136 0 -212 72q-77 72 -77 242v497l-86 29v260h487v-731q0 -44 23 -59t45 -15q43 0 74 25v491l-70 29v260h471v-815zM690 1288l199 449l293 -138l-297 -421zM258 1288
l199 449l293 -138l-297 -421z" />
    <glyph glyph-name="Uogonek" unicode="&#x172;" horiz-adv-x="1366" 
d="M991 -479q-117 0 -181 57q-65 57 -65 164q0 91 49 155q46 61 121 105l-47 119q-57 -62 -134 -104q-80 -44 -195 -44q-200 0 -294 124q-95 125 -95 380l-3 682l-110 33v235h536v-1026q0 -52 22 -80t73 -28q31 0 68 8q33 7 57 25v833l-111 33v235h537v-1159l110 -32v-236
h-180q-71 -61 -94 -99t-23 -69q0 -61 53 -61q29 0 49 9q19 9 35 19l64 -190q-39 -42 -98 -65t-144 -23z" />
    <glyph glyph-name="uogonek" unicode="&#x173;" horiz-adv-x="1167" 
d="M803 -479q-117 0 -181 57q-65 57 -65 164q0 93 49 155q47 60 123 105l-20 104q-9 -8 -56 -46q-29 -23 -67 -43q-35 -18 -81 -31q-47 -13 -95 -13q-136 0 -212 72q-77 72 -77 242v497l-86 29v260h487v-731q0 -44 23 -59t45 -15q43 0 74 25v491l-70 29v260h471v-815l86 -18
v-240h-190q-73 -62 -95 -99t-22 -69q0 -61 53 -61q29 0 48 9q22 10 36 19l63 -190q-39 -42 -98 -65t-143 -23z" />
    <glyph glyph-name="Wcircumflex" unicode="&#x174;" horiz-adv-x="1912" 
d="M1876 1192l-82 -25l-223 -1167h-461l-102 489q-14 62 -22 123q-4 27 -11 103q-4 46 -6 89q-1 14 -2.5 42t-1.5 41h-4q-4 -40 -6 -83q-2 -59 -5 -89q-7 -76 -11 -103q-10 -73 -21 -123l-101 -489h-461l-239 1165l-80 27v235h606v-233l-90 -27l78 -473q16 -88 19 -164
q4 -96 7 -147h2q2 26 5.5 74.5t4.5 69.5q5 71 21 167l125 733h399l134 -729q16 -90 24 -175q7 -79 12 -140h2q5 64 9 141q5 87 16 170l66 475l-91 25v233h490v-235zM666 1626l245 287h228l239 -287l-110 -133l-250 147l-242 -147z" />
    <glyph glyph-name="wcircumflex" unicode="&#x175;" horiz-adv-x="1609" 
d="M711 0h-408l-215 791l-72 22v260h533v-260l-64 -22l31 -136q5 -25 15 -71q9 -43 14 -72q8 -48 11 -78l9 -90h2q7 88 22 167q28 146 29 151l80 411h308l90 -422q17 -72 24 -139q14 -122 17 -168h2q8 104 22 168q23 104 31 137l35 142l-64 22v260h430v-260l-71 -22
l-193 -791h-399l-72 297q-3 13 -7.5 35.5t-6.5 31.5q-9 43 -11 59q-1 7 -4.5 28.5t-5.5 34.5q-5 35 -6 79h-2l-8 -80q-1 -33 -6 -63q-7 -44 -10 -61q-2 -9 -7 -31t-8 -35zM498 1282l245 287h228l239 -287l-110 -133l-250 147l-242 -147z" />
    <glyph glyph-name="Ycircumflex" unicode="&#x176;" horiz-adv-x="1267" 
d="M315 236l111 32v252l-309 647l-80 27v233h612v-231l-94 -31l82 -184q24 -54 41 -104q12 -36 24 -105q6 48 24 104q12 39 40 105l82 186l-90 29v231h473v-233l-82 -27l-297 -639v-260l111 -32v-236h-648v236zM317 1626l246 287h228l239 -287l-110 -133l-250 147l-242 -147
z" />
    <glyph glyph-name="ycircumflex" unicode="&#x177;" horiz-adv-x="1062" 
d="M313 0l-225 791l-72 22v260h533v-260l-64 -22l45 -197q5 -26 16 -70q7 -29 12 -62q5 -38 8 -70q0 -3 2.5 -36t4.5 -53h2q3 29 13 89q7 42 12 71q7 40 13 63q9 35 18 68l49 197l-64 22v260h431v-260l-72 -22l-238 -789q-35 -115 -73 -190q-39 -76 -99 -124t-148 -72
q-89 -24 -222 -36l-93 273q182 17 263 55q82 39 100 92h-152zM229 1282l246 287h227l240 -287l-111 -133l-249 147l-242 -147z" />
    <glyph glyph-name="Ydieresis" unicode="&#x178;" horiz-adv-x="1267" 
d="M315 236l111 32v252l-309 647l-80 27v233h612v-231l-94 -31l82 -184q24 -54 41 -104q12 -36 24 -105q6 48 24 104q12 39 40 105l82 186l-90 29v231h473v-233l-82 -27l-297 -639v-260l111 -32v-236h-648v236zM467 1495q-42 0 -74 14q-35 15 -61 40q-27 25 -42 60
q-16 37 -16 72q0 81 54 138q52 55 131 55q41 0 75 -14q36 -15 62 -41q27 -27 42 -62q15 -34 15 -76q0 -37 -15 -72q-15 -34 -41 -60q-25 -25 -59 -40q-32 -14 -71 -14zM918 1495q-43 0 -75 14q-35 15 -61 40q-25 24 -41 60q-14 32 -14 72q0 83 51 138t129 55q85 0 141 -55
t56 -138q0 -40 -14 -72q-15 -35 -40 -60t-60 -40q-32 -14 -72 -14z" />
    <glyph glyph-name="Zacute" unicode="&#x179;" horiz-adv-x="1052" 
d="M37 272l516 889h-182l-33 -143h-268v409h946v-266l-518 -895h207l47 172h264v-438h-979v272zM281 1661l395 307l178 -297l-469 -190z" />
    <glyph glyph-name="zacute" unicode="&#x17a;" horiz-adv-x="899" 
d="M35 264l399 563h-137l-27 -112h-225v358h825v-264l-397 -563h154l22 114h234v-360h-848v264zM190 1317l396 307l178 -297l-469 -190z" />
    <glyph glyph-name="Zdotaccent" unicode="&#x17b;" horiz-adv-x="1052" 
d="M37 272l516 889h-182l-33 -143h-268v409h946v-266l-518 -895h207l47 172h264v-438h-979v272zM563 1489q-50 0 -88 17q-43 19 -72 48q-30 30 -48 71q-17 38 -17 87q0 48 17 86q19 43 48 72t72 48q38 17 88 17t88 -17q43 -19 72 -48t48 -72q17 -38 17 -86q0 -49 -17 -87
q-18 -41 -48 -71q-29 -29 -72 -48q-38 -17 -88 -17z" />
    <glyph glyph-name="zdotaccent" unicode="&#x17c;" horiz-adv-x="899" 
d="M35 264l399 563h-137l-27 -112h-225v358h825v-264l-397 -563h154l22 114h234v-360h-848v264zM477 1126q-47 0 -88 18q-43 19 -72 48q-30 30 -48 71q-17 38 -17 87q0 48 17 86q18 41 48 71q29 29 72 48q41 18 88 18t88 -18q43 -19 72 -48q30 -30 48 -71q17 -38 17 -86
q0 -49 -17 -87q-18 -41 -48 -71q-29 -29 -72 -48q-41 -18 -88 -18z" />
    <glyph glyph-name="Zcaron" unicode="&#x17d;" horiz-adv-x="1052" 
d="M37 272l516 889h-182l-33 -143h-268v409h946v-266l-518 -895h207l47 172h264v-438h-979v272zM322 1931l241 -147l250 147l111 -133l-240 -287h-227l-246 287z" />
    <glyph glyph-name="zcaron" unicode="&#x17e;" horiz-adv-x="899" 
d="M35 264l399 563h-137l-27 -112h-225v358h825v-264l-397 -563h154l22 114h234v-360h-848v264zM231 1587l242 -147l250 147l111 -133l-240 -287h-227l-246 287z" />
    <glyph glyph-name="longs" unicode="&#x17f;" horiz-adv-x="702" 
d="M522 258l123 -18v-240h-610v240l86 18v526l-86 29v260h86v88q0 107 23 175q24 70 68 114q41 41 109 60q65 18 146 18q103 0 175 -26q75 -27 110 -46l-74 -235q-19 9 -45 16q-24 6 -55 6q-56 0 -56 -65v-920z" />
    <glyph glyph-name="uni018F" unicode="&#x18f;" horiz-adv-x="1187" 
d="M684 848q-1 117 -50 187q-48 69 -165 69q-89 0 -165 -21q-82 -22 -146 -49l-90 269q41 29 86 54q56 30 109 49q63 22 129 35t145 13q159 0 274 -44t187 -135q74 -94 108 -233q35 -143 35 -335q0 -197 -41 -338q-40 -138 -115 -228q-73 -87 -175 -128q-101 -40 -222 -40
q-144 0 -246 36q-103 36 -168 118q-66 83 -96 213q-31 135 -31 319v189h637zM473 594q0 -108 4 -169q4 -67 17 -111q12 -43 31 -60q19 -18 50 -18q33 0 53 18q19 17 31 59q14 47 18 110q6 89 7 171h-211z" />
    <glyph glyph-name="florin" unicode="&#x192;" 
d="M168 584v290h164l26 238q12 104 50 171q39 69 90 105q52 37 118 52q62 14 134 14q124 0 187 -20q71 -22 97 -37l-78 -273q-24 12 -47 17q-27 6 -55 6q-33 0 -51 -12t-23 -50l-24 -211h186v-290h-219l-107 -973h-423l106 973h-131z" />
    <glyph glyph-name="uni01B5" unicode="&#x1b5;" horiz-adv-x="1052" 
d="M98 862h281l174 299h-182l-33 -143h-268v409h946v-266l-174 -299h133v-244h-275l-202 -352h207l47 172h264v-438h-979v272l201 346h-140v244z" />
    <glyph glyph-name="uni01B6" unicode="&#x1b6;" horiz-adv-x="899" 
d="M80 633h235l148 194h-166l-27 -104h-225v350h825v-264l-135 -176h103v-189h-248l-154 -198h191l22 106h234v-352h-848v264l137 180h-92v189z" />
    <glyph glyph-name="Aringacute" unicode="&#x1fa;" horiz-adv-x="1402" 
d="M815 373h-358l-33 -115l111 -25v-233h-498v236l82 24l344 1124q-45 63 -45 152q0 116 76 185t198 69t199 -69q76 -69 76 -185q0 -84 -41 -145l360 -1129l80 -26v-236h-627v233l111 27zM406 1946l395 307l178 -297l-469 -191zM528 621h209l-37 120q-27 93 -45 177
q-15 71 -20 137h-2q-5 -61 -22 -137q-20 -90 -46 -175zM692 1438q68 0 68 98t-68 98q-67 0 -67 -98t67 -98z" />
    <glyph glyph-name="aringacute" unicode="&#x1fb;" horiz-adv-x="1056" 
d="M551 477h-19q-62 0 -82 -30q-20 -31 -20 -99t14 -90q16 -25 54 -25q30 0 53 17v227zM598 104q-40 -57 -98 -93q-61 -38 -152 -38q-88 0 -146 27t-94 75q-38 50 -52 112q-15 65 -15 141q0 187 118 263q119 77 330 77h62v30q0 51 -22 73t-68 22q-86 0 -165 -22
q-71 -20 -128 -46l-109 233q91 65 211 103q123 39 258 39q109 0 191 -20q81 -20 130 -63q51 -45 75 -116q24 -72 24 -174v-418q0 -47 14 -59t72 -12l13 -211q-49 -24 -107 -39q-57 -15 -127 -15q-75 0 -134 32q-59 31 -81 99zM528 1130q-121 0 -198 68q-76 67 -76 186
q0 117 76 186q75 68 198 68q124 0 199 -68q76 -69 76 -186q0 -119 -76 -186q-77 -68 -199 -68zM528 1286q68 0 68 98q0 99 -68 99q-67 0 -67 -99q0 -98 67 -98zM242 1804l395 307l178 -296l-469 -191z" />
    <glyph glyph-name="AEacute" unicode="&#x1fc;" horiz-adv-x="1847" 
d="M842 397h-332l-66 -139l111 -25v-233h-518v236l82 24l184 377v8h2l252 514l-111 33v235h1342v-409h-268l-33 143h-219v-303h123l32 82h209v-424h-209l-32 84h-123v-334h231l47 172h264v-438h-1079v236l111 32v129zM627 645h215v92q0 133 1 197q2 106 11 186h-4zM860 1661
l395 307l179 -297l-469 -190z" />
    <glyph glyph-name="aeacute" unicode="&#x1fd;" horiz-adv-x="1519" 
d="M946 426q7 -89 43 -125q35 -35 121 -35q60 0 137 16q75 16 129 37l90 -231q-63 -40 -162 -78q-98 -37 -239 -37q-125 0 -221 26q-93 25 -160 83q-60 -55 -137 -82q-78 -27 -187 -27q-88 0 -148 27q-61 27 -98 75q-38 49 -56 112q-17 61 -17 141q0 183 118 256t330 73h62
v41q0 51 -22 73t-68 22q-86 0 -165 -22q-71 -20 -128 -46l-109 233q91 65 211 103q123 39 258 39q164 0 260 -47q102 47 232 47q122 0 211 -30q88 -30 143 -100q54 -69 82 -186q27 -114 27 -282v-76h-537zM1110 637q0 63 -1 90q-2 42 -9 72q-7 28 -24 47q-15 16 -44 16
q-27 0 -44 -10t-26 -36q-10 -27 -14 -70q-5 -44 -6 -109h168zM551 467h-19q-58 0 -80 -25t-22 -94q0 -68 14 -90q16 -25 54 -25q30 0 53 17v217zM514 1317l395 307l178 -297l-469 -190z" />
    <glyph glyph-name="Oslashacute" unicode="&#x1fe;" horiz-adv-x="1286" 
d="M213 129q-166 178 -166 584q0 375 146 559q145 182 450 182q176 0 293 -57l115 198l159 -88l-127 -223q156 -180 156 -571q0 -380 -145 -559q-146 -181 -451 -181q-159 0 -283 52l-129 -224l-155 88zM475 649q0 -19 2 -57l291 510q-21 47 -51 68q-31 22 -74 22
q-46 0 -79 -25q-31 -24 -51 -80q-20 -57 -29 -147q-9 -91 -9 -227v-64zM643 236q46 0 78 23t53 80q21 58 30 147q9 92 9 227v51q0 19 -2 49l-287 -502q37 -75 119 -75zM356 1661l396 307l178 -297l-469 -190z" />
    <glyph glyph-name="oslashacute" unicode="&#x1ff;" horiz-adv-x="1064" 
d="M176 96q-135 135 -135 441q0 296 124 429q125 134 367 134q129 0 224 -37l100 168l143 -88l-104 -174q129 -139 129 -432q0 -296 -124 -429q-126 -135 -368 -135q-50 0 -115 9q-56 8 -102 24l-104 -174l-139 88zM410 485l204 342q-28 43 -82 43q-31 0 -54 -13
q-25 -14 -39 -50q-15 -36 -22 -102q-7 -62 -7 -168v-52zM532 203q32 0 55 13q25 14 39 50t22 103q7 62 7 168v34l-200 -333q15 -21 33 -28t44 -7zM248 1317l395 307l178 -297l-469 -190z" />
    <glyph glyph-name="Scommaaccent" unicode="&#x218;" horiz-adv-x="1060" 
d="M475 -27q-145 0 -255 29q-102 27 -173 64v348h266l54 -152q17 -10 45 -18q30 -8 63 -8q69 0 103 25t34 101q0 40 -9 67q-9 28 -30 47q-20 19 -55 34q-34 15 -84 27q-120 30 -197 75t-122 104q-46 59 -62 131q-16 70 -16 159q0 125 39 211q40 88 106 139q69 54 161 76
q91 22 204 22q106 0 211 -21q98 -20 176 -57v-325h-270l-39 125q-25 10 -44 13q-18 3 -51 3q-44 0 -75 -23t-31 -82q0 -53 38 -85q37 -31 136 -58q103 -28 189 -70q79 -39 128 -97q50 -59 72 -139q23 -83 23 -194q0 -227 -126 -349q-127 -122 -409 -122zM324 -483
q67 17 103 37q38 21 38 61q-67 8 -110 45q-44 38 -44 115q0 70 54 116t133 46q38 0 75 -15t67 -42q28 -25 47 -68q18 -40 18 -97q0 -146 -93 -222q-90 -74 -249 -95z" />
    <glyph glyph-name="scommaaccent" unicode="&#x219;" horiz-adv-x="868" 
d="M401 -27q-133 0 -216 21q-87 22 -154 57v266h243l37 -100q16 -7 35 -12q16 -4 41 -4q47 0 73 17q27 18 27 50q0 23 -6 38q-6 16 -22 27q-12 9 -47 21q-29 10 -80 21q-160 35 -238 123t-78 247q0 169 114 262t325 93q110 0 191 -21q83 -22 145 -51v-260h-240l-31 88
q-32 14 -74 14q-45 0 -67 -19q-23 -20 -23 -48q0 -37 34 -58q31 -19 124 -36q179 -34 252 -127q72 -92 72 -244q0 -92 -33 -161q-33 -70 -91 -114q-57 -44 -139 -67q-81 -23 -174 -23zM240 -483q67 17 103 37q38 21 38 61q-67 8 -110 45q-44 38 -44 115q0 70 54 116t133 46
q38 0 75 -15t67 -42q28 -25 47 -68q18 -40 18 -97q0 -146 -93 -222q-90 -74 -249 -95z" />
    <glyph glyph-name="uni021A" unicode="&#x21a;" horiz-adv-x="1286" 
d="M319 236l111 32v893h-92l-33 -219h-268v485h1212v-485h-268l-33 219h-92v-893l111 -32v-236h-648v236zM459 -483q67 17 103 37q38 21 38 61q-67 8 -110 45q-44 38 -44 115q0 70 54 116t133 46q39 0 76 -15q35 -14 66 -42q28 -25 47 -68q18 -40 18 -97q0 -147 -92 -222
q-90 -74 -250 -95z" />
    <glyph glyph-name="uni021B" unicode="&#x21b;" horiz-adv-x="720" 
d="M20 815v258h93v238l401 63v-301h174v-258h-174v-479q0 -44 13 -58q14 -16 46 -16q23 0 45 3t39 9l43 -247q-36 -17 -101 -35q-70 -19 -171 -19q-72 0 -129 15q-59 15 -99 50q-43 37 -65 97t-22 154v526h-93zM199 -483q67 17 103 37q38 21 38 61q-67 8 -110 45
q-44 38 -44 115q0 70 54 116t133 46q39 0 76 -15q35 -14 66 -42q28 -25 47 -68q18 -40 18 -97q0 -146 -93 -222q-90 -74 -249 -95z" />
    <glyph glyph-name="dotlessj" unicode="&#x237;" horiz-adv-x="579" 
d="M-14 -172q74 23 105 74q30 49 30 127v755l-86 29v260h487v-997q0 -100 -22 -181q-23 -83 -75 -146q-51 -61 -140 -102q-87 -40 -217 -55z" />
    <glyph glyph-name="uni0259" unicode="&#x259;" horiz-adv-x="1030" 
d="M578 662q-7 87 -43 116q-35 29 -121 29q-66 0 -138 -15q-69 -14 -129 -38l-90 231q62 40 163 78q98 37 239 37q278 0 406 -134t128 -436q0 -151 -38 -257t-104 -172q-67 -67 -156 -97q-91 -31 -191 -31q-123 0 -211 33q-87 32 -143 105q-55 72 -82 188q-27 117 -27 287
v76h537zM414 436q0 -63 1 -90q2 -42 9 -72t23 -47q15 -16 45 -16q27 0 44 10t26 36q8 23 13 70q6 56 7 109h-168z" />
    <glyph glyph-name="uni02BB" unicode="&#x2bb;" horiz-adv-x="557" 
d="M500 1354q-81 -28 -127 -68q-45 -39 -45 -90q72 -12 125 -59t53 -144q0 -42 -17 -82q-16 -38 -46 -68t-68 -46q-40 -17 -84 -17q-47 0 -90 18q-45 19 -76 51q-31 33 -53 84q-21 49 -21 118q0 179 103 299q103 119 292 149z" />
    <glyph glyph-name="afii57929" unicode="&#x2bc;" horiz-adv-x="557" 
d="M57 928q83 29 127 67q45 39 45 90q-71 12 -125 60q-53 47 -53 143q0 42 17 82t46 69q30 30 68 46t84 16q48 0 89 -17q47 -19 77 -51q31 -33 53 -84q21 -49 21 -118q0 -179 -103 -299q-104 -120 -292 -150z" />
    <glyph glyph-name="circumflex" unicode="&#x2c6;" horiz-adv-x="1116" 
d="M201 1282l245 287h228l239 -287l-110 -133l-250 147l-242 -147z" />
    <glyph glyph-name="caron" unicode="&#x2c7;" horiz-adv-x="1116" 
d="M311 1587l242 -147l250 147l110 -133l-239 -287h-228l-245 287z" />
    <glyph glyph-name="breve" unicode="&#x2d8;" horiz-adv-x="1116" 
d="M557 1159q-91 0 -156 34q-64 33 -108 85t-65 114q-20 61 -25 119l250 39q11 -54 33 -80q24 -28 71 -28t71 28q23 28 34 80l249 -39q-5 -58 -25 -119q-21 -62 -65 -114t-108 -85q-65 -34 -156 -34z" />
    <glyph glyph-name="dotaccent" unicode="&#x2d9;" horiz-adv-x="1116" 
d="M557 1126q-47 0 -88 18q-43 19 -72 48q-30 30 -48 71q-17 38 -17 87q0 48 17 86q18 41 48 71q29 29 72 48q40 18 88 18q47 0 88 -18q43 -19 72 -48q30 -30 48 -71q17 -38 17 -86q0 -49 -17 -87q-18 -41 -48 -71q-29 -29 -72 -48q-41 -18 -88 -18z" />
    <glyph glyph-name="ring" unicode="&#x2da;" horiz-adv-x="1116" 
d="M557 1155q-122 0 -199 68q-75 66 -75 186q0 117 75 185q77 69 199 69q123 0 199 -69q75 -68 75 -185q0 -120 -75 -186q-77 -68 -199 -68zM557 1311q68 0 68 98t-68 98t-68 -98t68 -98z" />
    <glyph glyph-name="ogonek" unicode="&#x2db;" horiz-adv-x="1116" 
d="M563 -479q-117 0 -181 57q-65 57 -65 164q0 101 60 167q60 67 145 111h226q-54 -45 -73 -64q-29 -29 -43 -50q-17 -26 -22 -40q-6 -18 -6 -34q0 -61 53 -61q29 0 49 9q19 9 35 19l64 -190q-39 -42 -98 -65t-144 -23z" />
    <glyph glyph-name="tilde" unicode="&#x2dc;" horiz-adv-x="1116" 
d="M936 1423q-34 -119 -99 -186q-65 -66 -147 -66q-39 0 -75 11q-48 15 -64 21q-8 3 -59 22q-27 10 -60 10q-34 0 -54 -17q-21 -18 -44 -53l-156 115q33 118 100 186q64 66 146 66q42 0 75 -10q38 -11 64 -22q11 -4 32 -11t28 -10q30 -11 59 -11q33 0 54 18q23 20 44 52z
" />
    <glyph glyph-name="hungarumlaut" unicode="&#x2dd;" horiz-adv-x="1116" 
d="M528 1288l199 449l293 -138l-297 -421zM96 1288l199 449l293 -138l-297 -421z" />
    <glyph glyph-name="gravecomb" unicode="&#x300;" horiz-adv-x="2" 
d="M-348 1137l-469 190l178 297l395 -307z" />
    <glyph glyph-name="acutecomb" unicode="&#x301;" horiz-adv-x="2" 
d="M-817 1317l395 307l178 -297l-469 -190z" />
    <glyph glyph-name="uni0302" unicode="&#x302;" horiz-adv-x="2" 
d="M-887 1282l246 287h227l240 -287l-111 -133l-250 147l-241 -147z" />
    <glyph glyph-name="tildecomb" unicode="&#x303;" horiz-adv-x="2" 
d="M-152 1423q-34 -119 -99 -186q-65 -66 -146 -66q-39 0 -75 11q-52 16 -65 21q-8 3 -59 22q-27 10 -59 10q-35 0 -55 -17q-21 -18 -44 -53l-155 115q34 119 99 186q65 66 146 66q42 0 75 -10q42 -13 65 -22q11 -5 32 -12l27 -9q30 -11 59 -11q34 0 55 18q23 20 44 52z" />
    <glyph glyph-name="uni0304" unicode="&#x304;" horiz-adv-x="2" 
d="M-858 1491h602v-283h-602v283z" />
    <glyph glyph-name="uni0306" unicode="&#x306;" horiz-adv-x="2" 
d="M-557 1167q-91 0 -156 34q-64 33 -108 85t-65 114q-20 61 -25 120l249 39q11 -52 34 -80q24 -29 71 -29t71 29q22 26 33 80l250 -39q-5 -59 -25 -120q-21 -62 -65 -114t-108 -85q-65 -34 -156 -34z" />
    <glyph glyph-name="uni0307" unicode="&#x307;" horiz-adv-x="2" 
d="M-309 1126q-47 0 -88 18q-43 19 -72 48q-30 30 -48 71t-18 87t18 86q18 41 48 71q29 29 72 48q41 18 88 18t88 -18t71 -48q31 -31 49 -71q17 -38 17 -86q0 -49 -17 -87q-18 -40 -49 -71q-30 -30 -71 -48q-40 -18 -88 -18z" />
    <glyph glyph-name="uni0308" unicode="&#x308;" horiz-adv-x="2" 
d="M-778 1151q-42 0 -74 14q-35 15 -61 40q-27 25 -42 60q-16 37 -16 72q0 82 53 138q52 55 132 55q40 0 74 -14q38 -16 63 -41q27 -27 42 -62t15 -76q0 -37 -15 -72q-15 -34 -41 -60q-25 -25 -60 -40q-32 -14 -70 -14zM-328 1151q-42 0 -74 14q-35 15 -61 40q-25 24 -41 60
q-14 32 -14 72q0 83 51 138t129 55q84 0 140 -55q57 -55 57 -138q0 -37 -15 -72t-40 -60t-59 -40q-32 -14 -73 -14z" />
    <glyph glyph-name="uni030A" unicode="&#x30a;" horiz-adv-x="2" 
d="M-557 1155q-122 0 -199 68q-75 66 -75 186q0 117 75 185q76 69 199 69q122 0 199 -69q75 -68 75 -185q0 -120 -75 -186q-77 -68 -199 -68zM-557 1311q68 0 68 98t-68 98t-68 -98t68 -98z" />
    <glyph glyph-name="uni030B" unicode="&#x30b;" horiz-adv-x="2" 
d="M-586 1247l199 449l293 -137l-297 -422zM-1018 1247l199 449l293 -137l-297 -422z" />
    <glyph glyph-name="uni030C" unicode="&#x30c;" horiz-adv-x="2" 
d="M-668 1587l242 -147l250 147l110 -133l-239 -287h-227l-246 287z" />
    <glyph glyph-name="uni0312" unicode="&#x312;" horiz-adv-x="2" 
d="M-55 1710q-80 -28 -127 -73q-45 -43 -45 -95q72 -12 125 -59t53 -144q0 -42 -17 -82q-16 -38 -46 -68t-68 -46q-40 -17 -84 -17q-46 0 -90 18q-45 19 -76 51q-31 33 -53 84q-21 49 -21 118q0 181 105 299q105 119 290 159z" />
    <glyph glyph-name="uni0313" unicode="&#x313;" horiz-adv-x="2" 
d="M-498 844q82 28 127 72q45 43 45 96q-72 12 -125 59t-53 143q0 42 17 82t46 69q30 30 68 46t84 16q48 0 89 -17q47 -19 77 -51q31 -33 53 -84q21 -49 21 -118q0 -181 -105 -299q-106 -120 -290 -160z" />
    <glyph glyph-name="uni0326" unicode="&#x326;" horiz-adv-x="2" 
d="M-504 -426q81 28 127 68q45 39 45 90q-72 12 -125 59t-53 143q0 44 16 82t47 69q30 30 68 46t84 16q48 0 89 -17q47 -19 77 -51q31 -33 53 -84q21 -50 21 -118q0 -179 -103 -299q-102 -119 -293 -149z" />
    <glyph glyph-name="uni0327" unicode="&#x327;" horiz-adv-x="2" 
d="M-588 -479q-69 0 -118 14q-52 15 -80 31l53 151q23 -12 48 -21t54 -9q49 0 68 11q20 11 20 40t-22 39q-21 10 -62 10q-17 0 -41 -2q-18 -1 -30 -6l69 241h142l-27 -96q188 -22 188 -196q0 -102 -64 -154q-65 -53 -198 -53z" />
    <glyph glyph-name="uni0328" unicode="&#x328;" horiz-adv-x="2" 
d="M-551 -479q-117 0 -181 57q-65 57 -65 164q0 101 60 167q60 67 145 111h225q-48 -40 -72 -64q-29 -29 -43 -50q-17 -26 -22 -40q-6 -18 -6 -34q0 -61 53 -61q29 0 48 9q22 10 36 19l64 -190q-38 -41 -99 -65q-59 -23 -143 -23z" />
    <glyph glyph-name="uni037E" unicode="&#x37e;" horiz-adv-x="557" 
d="M57 -164q80 28 127 73q45 43 45 95q-72 12 -125 59t-53 144q0 42 17 82q16 38 46 68t68 46q40 17 84 17q46 0 89 -18q47 -19 77 -51q31 -33 53 -84q21 -49 21 -117q0 -181 -105 -300t-290 -159zM51 737q0 45 18 86q20 45 47 72q30 30 70 48t88 18t88 -18q41 -18 71 -48
q27 -27 47 -72q18 -40 18 -86q0 -47 -18 -87q-18 -41 -47 -70q-31 -31 -71 -49q-38 -17 -88 -17t-88 17t-70 49q-29 29 -47 70q-18 40 -18 87z" />
    <glyph glyph-name="tonos" unicode="&#x384;" horiz-adv-x="1116" 
d="M328 1167l139 379h358l-264 -379h-233z" />
    <glyph glyph-name="dieresistonos" unicode="&#x385;" horiz-adv-x="1280" 
d="M979 1157q-67 0 -114 45q-46 45 -46 111q0 69 43 115q44 47 109 47q69 0 118 -47q48 -46 48 -115q0 -66 -46 -111q-47 -45 -112 -45zM492 1167l79 394h297l-204 -394h-172zM303 1157q-67 0 -114 45q-46 45 -46 111q0 69 43 115q44 47 109 47q69 0 118 -47q48 -46 48 -115
q0 -66 -46 -111q-47 -45 -112 -45z" />
    <glyph glyph-name="Alphatonos" unicode="&#x386;" horiz-adv-x="1402" 
d="M815 373h-358l-33 -115l111 -25v-233h-498v236l82 24l356 1167h438l373 -1165l80 -26v-236h-627v233l111 27zM528 621h209l-37 120q-27 93 -45 177q-15 71 -20 137h-2q-5 -61 -22 -137q-20 -90 -46 -175zM-182 1051l139 379h358l-264 -379h-233z" />
    <glyph glyph-name="anoteleia" unicode="&#x387;" horiz-adv-x="569" 
d="M61 623q0 45 18 86q19 43 47 71q30 30 71 48q40 18 88 18q47 0 88 -18q40 -18 70 -48q28 -28 47 -71q18 -41 18 -86q0 -47 -18 -87q-19 -43 -47 -71q-30 -30 -70 -48q-41 -18 -88 -18t-88 18t-71 48q-28 28 -47 71q-18 40 -18 87z" />
    <glyph glyph-name="Epsilontonos" unicode="&#x388;" horiz-adv-x="1153" 
d="M938 516h-209l-33 84h-123v-334h232l47 172h264v-438h-1079v236l110 32v891l-110 33v235h1057v-409h-269l-32 143h-220v-303h123l33 82h209v-424zM-496 1051l140 379h358l-264 -379h-234z" />
    <glyph glyph-name="Etatonos" unicode="&#x389;" horiz-adv-x="1454" 
d="M770 236l111 32v328h-308v-328l111 -32v-236h-647v236l110 32v891l-110 33v235h647v-235l-111 -33v-297h308v297l-111 33v235h647v-235l-110 -33v-891l110 -32v-236h-647v236zM-496 1051l140 379h358l-264 -379h-234z" />
    <glyph glyph-name="Iotatonos" unicode="&#x38a;" horiz-adv-x="720" 
d="M37 236l110 32v891l-110 33v235h647v-235l-111 -33v-891l111 -32v-236h-647v236zM-496 1051l140 379h358l-264 -379h-234z" />
    <glyph glyph-name="Omicrontonos" unicode="&#x38c;" horiz-adv-x="1286" 
d="M643 -27q-304 0 -450 181t-146 559q0 375 146 559q145 182 450 182q306 0 451 -182t145 -559q0 -380 -145 -559q-146 -181 -451 -181zM643 236q46 0 75 23q30 24 46 80q16 55 22 147q7 107 7 227t-7 227q-6 94 -22 147q-17 57 -46 80q-31 25 -75 25q-46 0 -76 -25
q-28 -24 -45 -80q-16 -53 -22 -147q-6 -92 -6 -227t6 -227t22 -147q16 -56 45 -80q27 -23 76 -23zM-352 1051l139 379h358l-264 -379h-233z" />
    <glyph glyph-name="Upsilontonos" unicode="&#x38e;" horiz-adv-x="1267" 
d="M315 236l111 32v252l-309 647l-80 27v233h612v-231l-94 -31l82 -184q24 -54 41 -104q12 -36 24 -105q6 48 24 104q12 39 40 105l82 186l-90 29v231h473v-233l-82 -27l-297 -639v-260l111 -32v-236h-648v236zM-496 1049l140 378h358l-264 -378h-234z" />
    <glyph glyph-name="Omegatonos" unicode="&#x38f;" horiz-adv-x="1282" 
d="M1235 819q0 -80 -19 -155q-19 -76 -60 -142q-43 -70 -99 -119q-61 -53 -142 -90v-37h115l47 80h140v-356h-531v442q27 17 44 38q20 25 32 67q11 41 19 109q7 62 7 169q0 102 -8 177q-8 73 -25 113q-18 42 -45 60q-26 17 -69 17t-69 -17q-27 -18 -45 -60q-17 -40 -25 -113
q-8 -75 -8 -177q0 -107 7 -169q8 -68 19 -109q12 -42 32 -67q17 -21 44 -38v-442h-530v356h139l47 -80h115v37q-81 37 -142 90q-56 49 -99 119q-39 64 -59 142t-20 155q0 145 38 264q37 117 113 200q76 84 186 127q112 44 257 44t257 -44q110 -43 186 -127q76 -83 113 -200
q38 -119 38 -264zM-352 1051l139 379h358l-264 -379h-233z" />
    <glyph glyph-name="iotadieresistonos" unicode="&#x390;" horiz-adv-x="628" 
d="M381 -27q-122 0 -192 67q-68 65 -68 189v555l-86 29v260h487v-764q0 -47 14 -59q13 -12 72 -12l13 -211q-49 -24 -110 -39q-60 -15 -130 -15zM715 1157q-67 0 -114 45q-46 45 -46 111q0 69 43 115q44 47 109 47q68 0 117 -47q48 -46 48 -115q0 -66 -46 -111t-111 -45z
M227 1167l80 394h297l-205 -394h-172zM39 1157q-67 0 -114 45q-46 45 -46 111q0 69 43 115q44 47 109 47q68 0 117 -47t49 -115q0 -66 -46 -111q-47 -45 -112 -45z" />
    <glyph glyph-name="Alpha" unicode="&#x391;" horiz-adv-x="1402" 
d="M815 373h-358l-33 -115l111 -25v-233h-498v236l82 24l356 1167h438l373 -1165l80 -26v-236h-627v233l111 27zM528 621h209l-37 120q-27 93 -45 177q-15 71 -20 137h-2q-5 -61 -22 -137q-20 -90 -46 -175z" />
    <glyph glyph-name="Beta" unicode="&#x392;" horiz-adv-x="1216" 
d="M670 266q47 0 71 35q25 36 25 139q0 87 -26 122q-25 34 -78 34h-89v-330h97zM647 862q56 0 80 34q25 36 25 120q0 81 -26 113t-79 32h-74v-299h74zM748 1427q84 0 152 -17q75 -19 126 -58q53 -41 85 -112q32 -72 32 -175q0 -124 -52 -200t-182 -103q133 -28 210 -110
t77 -228q0 -103 -25 -186q-25 -81 -82 -133q-56 -50 -154 -78q-95 -27 -235 -27h-663v236l110 32v891l-110 33v235h711z" />
    <glyph glyph-name="Gamma" unicode="&#x393;" horiz-adv-x="1122" 
d="M721 236v-236h-684v236l110 32v891l-110 33v235h1048v-485h-268l-33 219h-211v-895z" />
    <glyph glyph-name="uni0394" unicode="&#x394;" horiz-adv-x="1380" 
d="M86 256l381 1171h436l391 -1171v-256h-1208v256zM674 801q-16 43 -21 70q-10 50 -14 74q-2 14 -6 40t-4 27q-4 27 -4 51h-2q0 -11 -6 -51q-1 -10 -11 -67q-6 -38 -15 -74q-7 -29 -20 -70l-157 -510h434z" />
    <glyph glyph-name="Epsilon" unicode="&#x395;" horiz-adv-x="1153" 
d="M938 516h-209l-33 84h-123v-334h232l47 172h264v-438h-1079v236l110 32v891l-110 33v235h1057v-409h-269l-32 143h-220v-303h123l33 82h209v-424z" />
    <glyph glyph-name="Zeta" unicode="&#x396;" horiz-adv-x="1052" 
d="M37 272l516 889h-182l-33 -143h-268v409h946v-266l-518 -895h207l47 172h264v-438h-979v272z" />
    <glyph glyph-name="Eta" unicode="&#x397;" horiz-adv-x="1454" 
d="M770 236l111 32v328h-308v-328l111 -32v-236h-647v236l110 32v891l-110 33v235h647v-235l-111 -33v-297h308v297l-111 33v235h647v-235l-110 -33v-891l110 -32v-236h-647v236z" />
    <glyph glyph-name="Theta" unicode="&#x398;" horiz-adv-x="1310" 
d="M655 -27q-304 0 -458 178t-154 562q0 383 154 563q153 178 458 178q306 0 459 -178q154 -180 154 -563q0 -384 -154 -562t-459 -178zM655 236q47 0 77 20q31 21 52 75q22 55 29 146q8 98 8 236q0 137 -8 235q-8 92 -29 147q-21 54 -52 75q-33 22 -77 22q-46 0 -77 -22
t-52 -75q-20 -52 -28 -147q-9 -110 -9 -235q0 -126 9 -236q8 -94 28 -146q21 -53 52 -75q29 -20 77 -20zM557 864h197v-258h-197v258z" />
    <glyph glyph-name="Iota" unicode="&#x399;" horiz-adv-x="720" 
d="M37 236l110 32v891l-110 33v235h647v-235l-111 -33v-891l111 -32v-236h-647v236z" />
    <glyph glyph-name="Kappa" unicode="&#x39a;" horiz-adv-x="1382" 
d="M37 236l110 32v891l-110 33v235h647v-235l-111 -33v-891l111 -32v-236h-647v236zM1346 236v-236h-461l-299 702l309 459l-78 31v235h494v-235l-97 -31l-235 -338l260 -555z" />
    <glyph glyph-name="Lambda" unicode="&#x39b;" horiz-adv-x="1374" 
d="M455 1427h450l352 -1165l80 -26v-236h-626v233l110 27l-143 488q-25 80 -38 167q-9 59 -15 140h-2q-5 -63 -16 -136q-12 -83 -36 -171l-135 -490l111 -25v-233h-510v236l82 24z" />
    <glyph glyph-name="Mu" unicode="&#x39c;" horiz-adv-x="1724" 
d="M559 236v-236h-522v236l110 32v891l-110 33v235h700l88 -385q17 -67 24 -102q10 -49 14 -81q6 -50 8 -75q3 -38 3 -84h5q1 36 5 84q3 35 9 74q5 33 15 80q6 30 26 102l102 387h652v-235l-111 -33v-891l111 -32v-236h-648v236l111 32l-2 441v96q0 55 1 79q0 12 0.5 35
t1.5 35q2 51 5 78h-2q-15 -82 -27 -159t-36 -168l-119 -426h-346l-121 428q-30 105 -41 172q-15 88 -23 151h-4q5 -39 6 -73q2 -57 3 -70q2 -50 2 -80v-539z" />
    <glyph glyph-name="Nu" unicode="&#x39d;" horiz-adv-x="1419" 
d="M860 1192v235h522v-235l-110 -33v-1159h-400l-311 571q-20 37 -48 95q-22 45 -32 76q-12 37 -21 73q-14 59 -18 82h-4q5 -45 6 -82l3 -75q2 -50 2 -81v-391l110 -32v-236h-522v236l110 32v891l-110 33v235h581l254 -499q53 -105 73 -178q24 -90 38 -150h4q-8 73 -12 146
q-4 67 -4 182v231z" />
    <glyph glyph-name="Xi" unicode="&#x39e;" horiz-adv-x="1079" 
d="M37 479h264l41 -147h395l41 147h264v-479h-1005v479zM342 1102l-31 -135h-268v460h993v-460h-268l-31 135h-395zM860 883v-308h-641v308h641z" />
    <glyph glyph-name="Omicron" unicode="&#x39f;" horiz-adv-x="1286" 
d="M643 -27q-304 0 -450 181t-146 559q0 375 146 559q145 182 450 182q306 0 451 -182t145 -559q0 -380 -145 -559q-146 -181 -451 -181zM643 236q46 0 75 23q30 24 46 80q16 55 22 147q7 107 7 227t-7 227q-6 94 -22 147q-17 57 -46 80q-31 25 -75 25q-46 0 -76 -25
q-28 -24 -45 -80q-16 -53 -22 -147q-6 -92 -6 -227t6 -227t22 -147q16 -56 45 -80q27 -23 76 -23z" />
    <glyph glyph-name="Pi" unicode="&#x3a0;" horiz-adv-x="1454" 
d="M770 236l111 32v875h-308v-875l111 -32v-236h-647v236l110 32v891l-110 33v235h1380v-235l-110 -33v-891l110 -32v-236h-647v236z" />
    <glyph glyph-name="Rho" unicode="&#x3a1;" horiz-adv-x="1185" 
d="M647 750q32 0 52 10q21 11 35 35q14 25 20 66q6 42 6 106t-7 99q-8 39 -22 59q-16 22 -35 29q-20 7 -45 7h-78v-411h74zM625 1427q130 0 230 -22q99 -22 170 -76q67 -51 104 -142q36 -89 36 -222q0 -134 -28 -224q-28 -91 -94 -149q-65 -58 -169 -83q-107 -26 -258 -26
h-43v-217l148 -30v-236h-684v236l110 32v891l-110 33v235h588z" />
    <glyph glyph-name="Sigma" unicode="&#x3a3;" horiz-adv-x="1050" 
d="M729 850v-156l-285 -362h256l41 147h265v-479h-969v260l328 420l-328 381v366h946v-409h-268l-33 143h-219z" />
    <glyph glyph-name="Tau" unicode="&#x3a4;" horiz-adv-x="1286" 
d="M319 236l111 32v893h-92l-33 -219h-268v485h1212v-485h-268l-33 219h-92v-893l111 -32v-236h-648v236z" />
    <glyph glyph-name="Upsilon" unicode="&#x3a5;" horiz-adv-x="1267" 
d="M315 236l111 32v252l-309 647l-80 27v233h612v-231l-94 -31l82 -184q24 -54 41 -104q12 -36 24 -105q6 48 24 104q12 39 40 105l82 186l-90 29v231h473v-233l-82 -27l-297 -639v-260l111 -32v-236h-648v236z" />
    <glyph glyph-name="Phi" unicode="&#x3a6;" horiz-adv-x="1703" 
d="M479 209l172 33v32q-324 15 -471 123t-147 318t147 318q146 107 471 124v31l-172 33v206h746v-206l-172 -33v-31q325 -17 471 -124q147 -108 147 -318t-147 -318t-471 -123v-32l172 -33v-209h-746v209zM1245 715q0 64 -14 103q-16 45 -41 70q-28 28 -62 43t-75 21v-475
q34 6 75 24q34 15 62 43q25 25 41 69q14 39 14 102zM459 715q0 -63 14 -102q16 -44 41 -69q29 -29 61 -43q40 -17 76 -24v475q-42 -6 -76 -21q-32 -14 -61 -43q-25 -25 -41 -70q-14 -39 -14 -103z" />
    <glyph glyph-name="Chi" unicode="&#x3a7;" horiz-adv-x="1390" 
d="M37 236l92 32l324 467l-306 434l-90 23v235h703v-233l-90 -25l127 -200l118 198l-84 27v233h502v-235l-88 -25l-282 -444l297 -451l94 -36v-236h-692v231l102 37l-146 226l-143 -226l100 -37v-231h-538v236z" />
    <glyph glyph-name="Psi" unicode="&#x3a8;" horiz-adv-x="1748" 
d="M1247 219v-219h-745v219l172 47v160q-129 6 -231 33q-101 27 -172 81q-69 53 -107 141q-37 86 -37 214v266l-90 31v235h491v-567q0 -78 39 -121q38 -43 107 -61v485l-82 29v235h565v-235l-82 -29v-485q69 18 107 61q39 43 39 121v567h491v-235l-90 -31v-266
q0 -128 -37 -214q-38 -88 -107 -141q-71 -54 -172 -81q-102 -27 -231 -33v-160z" />
    <glyph glyph-name="uni03A9" unicode="&#x3a9;" horiz-adv-x="1282" 
d="M1235 819q0 -80 -19 -155q-19 -76 -60 -142q-43 -70 -99 -119q-61 -53 -142 -90v-37h115l47 80h140v-356h-531v442q27 17 44 38q20 25 32 67q11 41 19 109q7 62 7 169q0 102 -8 177q-8 73 -25 113q-18 42 -45 60q-26 17 -69 17t-69 -17q-27 -18 -45 -60q-17 -40 -25 -113
q-8 -75 -8 -177q0 -107 7 -169q8 -68 19 -109q12 -42 32 -67q17 -21 44 -38v-442h-530v356h139l47 -80h115v37q-81 37 -142 90q-56 49 -99 119q-39 64 -59 142t-20 155q0 145 38 264q37 117 113 200q76 84 186 127q112 44 257 44t257 -44q110 -43 186 -127q76 -83 113 -200
q38 -119 38 -264z" />
    <glyph glyph-name="Iotadieresis" unicode="&#x3aa;" horiz-adv-x="720" 
d="M37 236l110 32v891l-110 33v235h647v-235l-111 -33v-891l111 -32v-236h-647v236zM139 1495q-41 0 -73 14q-36 16 -62 40q-27 25 -42 60t-15 72q0 82 53 138q52 55 131 55q41 0 75 -14q36 -15 62 -41q27 -27 42 -62q16 -37 16 -76q0 -35 -16 -72q-15 -34 -41 -60
q-25 -25 -59 -40q-32 -14 -71 -14zM590 1495q-43 0 -75 14q-33 14 -60 40q-25 24 -41 60q-15 35 -15 72q0 81 52 138q51 55 129 55q84 0 140 -55t56 -138q0 -40 -14 -72q-15 -35 -40 -60t-59 -40q-32 -14 -73 -14z" />
    <glyph glyph-name="Upsilondieresis" unicode="&#x3ab;" horiz-adv-x="1267" 
d="M315 236l111 32v252l-309 647l-80 27v233h612v-231l-94 -31l82 -184q24 -54 41 -104q12 -36 24 -105q6 48 24 104q12 39 40 105l82 186l-90 29v231h473v-233l-82 -27l-297 -639v-260l111 -32v-236h-648v236zM467 1495q-42 0 -74 14q-35 15 -61 40q-27 25 -42 60
q-16 37 -16 72q0 81 54 138q52 55 131 55q41 0 75 -14q36 -15 62 -41q27 -27 42 -62q15 -34 15 -76q0 -37 -15 -72q-15 -34 -41 -60q-25 -25 -59 -40q-32 -14 -71 -14zM918 1495q-43 0 -75 14q-35 15 -61 40q-25 24 -41 60q-14 32 -14 72q0 83 51 138t129 55q85 0 141 -55
t56 -138q0 -40 -14 -72q-15 -35 -40 -60t-60 -40q-32 -14 -72 -14z" />
    <glyph glyph-name="alphatonos" unicode="&#x3ac;" horiz-adv-x="1103" 
d="M997 309q0 -47 14 -59q13 -12 72 -12l13 -211q-49 -24 -107 -39q-57 -15 -127 -15q-74 0 -134 31q-58 30 -81 102q-57 -63 -129 -99q-68 -34 -158 -34q-79 0 -141 28q-57 26 -99 92q-40 64 -60 170q-19 102 -19 261q0 175 22 284q23 112 66 176q44 65 105 90
q64 26 143 26q92 0 160 -35q67 -35 114 -84l41 92h305v-764zM600 797q-17 20 -61 20q-29 0 -45 -13q-18 -15 -25 -47q-8 -38 -11 -91q-3 -57 -3 -144q0 -80 3 -130t12 -80q9 -28 25 -40q14 -10 37 -10q40 0 68 23v512zM430 1167l139 379h359l-264 -379h-234z" />
    <glyph glyph-name="epsilontonos" unicode="&#x3ad;" horiz-adv-x="966" 
d="M926 750h-240l-31 92q-22 10 -44 15q-23 5 -54 5q-14 0 -30 -4q-18 -5 -33 -14q-15 -10 -28 -29q-11 -17 -11 -49q0 -53 28 -74q27 -20 64 -20h149v-236h-143q-39 0 -71 -18q-31 -18 -31 -70q0 -47 33 -64q34 -18 73 -18q28 0 68 2q29 1 64 9q35 7 75 21q60 20 100 34
l92 -238q-105 -54 -224 -88q-116 -33 -249 -33q-83 0 -162 18q-81 18 -142 56q-62 38 -100 99t-38 145q0 60 17 104q18 48 46 81q27 32 67 58q34 22 79 35q-71 27 -124 84q-52 56 -52 150q0 91 47 150q45 57 118 91q71 33 154 45q77 11 160 11q119 0 212 -22q84 -20 161 -52
v-276zM389 1167l139 379h359l-264 -379h-234z" />
    <glyph glyph-name="etatonos" unicode="&#x3ae;" horiz-adv-x="1173" 
d="M668 0v719q0 39 -19 58q-18 18 -49 18q-21 0 -42 -8q-23 -9 -36 -17v-770h-401v784l-86 29v260h420l28 -112q62 58 128 98q67 41 171 41q136 0 212 -72q77 -72 77 -242v-528l86 -18v-240h-489zM471 1167l139 379h359l-264 -379h-234z" />
    <glyph glyph-name="iotatonos" unicode="&#x3af;" horiz-adv-x="628" 
d="M381 -27q-122 0 -192 67q-68 65 -68 189v555l-86 29v260h487v-764q0 -47 14 -59q13 -12 72 -12l13 -211q-49 -24 -110 -39q-60 -15 -130 -15zM215 1167l139 379h359l-264 -379h-234z" />
    <glyph glyph-name="upsilondieresistonos" unicode="&#x3b0;" horiz-adv-x="1185" 
d="M592 233q22 0 47 19t25 76v456l-70 29v260h557v-260l-86 -29v-413q0 -398 -471 -398q-236 0 -355 92q-118 91 -118 306v413l-86 29v260h487v-745q0 -58 24 -76q25 -19 46 -19zM961 1157q-67 0 -114 45q-46 45 -46 111q0 69 43 115q44 47 108 47q69 0 118 -47
q48 -46 48 -115q0 -66 -46 -111t-111 -45zM473 1167l80 394h297l-205 -394h-172zM285 1157q-67 0 -114 45q-46 45 -46 111q0 69 43 115q44 47 108 47q69 0 118 -47q48 -46 48 -115q0 -66 -46 -111t-111 -45z" />
    <glyph glyph-name="alpha" unicode="&#x3b1;" horiz-adv-x="1103" 
d="M997 309q0 -47 14 -59q13 -12 72 -12l13 -211q-49 -24 -107 -39q-57 -15 -127 -15q-74 0 -134 31q-58 30 -81 102q-57 -63 -129 -99q-68 -34 -158 -34q-79 0 -141 28q-57 26 -99 92q-40 64 -60 170q-19 102 -19 261q0 175 22 284q23 112 66 176q44 65 105 90
q64 26 143 26q92 0 160 -35q67 -35 114 -84l41 92h305v-764zM600 797q-17 20 -61 20q-29 0 -45 -13q-18 -15 -25 -47q-8 -38 -11 -91q-3 -57 -3 -144q0 -80 3 -130t12 -80q9 -28 25 -40q14 -10 37 -10q40 0 68 23v512z" />
    <glyph glyph-name="beta" unicode="&#x3b2;" horiz-adv-x="1107" 
d="M655 -35q-99 0 -178 31v-383h-401v1460q0 125 34 209q36 89 96 139q65 54 150 77q89 24 197 24q218 0 337 -101q118 -100 118 -284q0 -129 -59 -209q-60 -81 -140 -109q54 -16 104 -48q48 -30 86 -81q37 -49 58 -118q20 -66 20 -156q0 -134 -40 -220q-42 -90 -101 -139
q-60 -50 -136 -71q-75 -21 -145 -21zM477 242q24 -6 51 -6q42 0 68 17t41 47q14 29 19 68q6 50 6 78q0 117 -27 180q-27 62 -86 62h-25v250h17q18 0 33 6q16 7 28 24q14 20 19 49q6 31 6 83q0 95 -21 122t-55 27q-74 0 -74 -125v-882z" />
    <glyph glyph-name="gamma" unicode="&#x3b3;" horiz-adv-x="1058" 
d="M578 295q6 48 12 94q7 48 13 80q7 37 15 72q2 10 8 33.5t9 37.5l41 179l-64 22v260h430v-260l-71 -22l-230 -791v-387h-401v387l-252 791l-72 22v260h408l106 -463q3 -14 8.5 -38.5t7.5 -32.5q6 -26 13 -72q5 -29 10 -79q5 -42 6 -93h3z" />
    <glyph glyph-name="delta" unicode="&#x3b4;" horiz-adv-x="1064" 
d="M147 1495h801v-338h-194l-27 92h-180l278 -256q37 -33 80 -83q36 -42 63 -97q26 -54 41 -121t15 -155q0 -296 -124 -429q-126 -135 -368 -135q-241 0 -367 135q-124 133 -124 429q0 99 24 175q24 78 64 135t97 98q59 42 124 65l-203 196v289zM522 844q-29 -30 -47 -100
q-18 -69 -18 -207q0 -103 3 -167q3 -69 10 -100q8 -35 23 -47t39 -12q25 0 40 12t23 47q7 31 10 100q3 64 3 167q0 73 -4 114q-5 47 -12 80q-6 28 -19 53q-11 22 -24 35z" />
    <glyph glyph-name="epsilon" unicode="&#x3b5;" horiz-adv-x="966" 
d="M926 750h-240l-31 92q-22 10 -44 15q-23 5 -54 5q-14 0 -30 -4q-18 -5 -33 -14q-15 -10 -28 -29q-11 -17 -11 -49q0 -53 28 -74q27 -20 64 -20h149v-236h-143q-39 0 -71 -18q-31 -18 -31 -70q0 -47 33 -64q34 -18 73 -18q28 0 68 2q29 1 64 9q35 7 75 21q60 20 100 34
l92 -238q-105 -54 -224 -88q-116 -33 -249 -33q-83 0 -162 18q-81 18 -142 56q-62 38 -100 99t-38 145q0 60 17 104q18 48 46 81q27 32 67 58q34 22 79 35q-71 27 -124 84q-52 56 -52 150q0 91 47 150q45 57 118 91q71 33 154 45q77 11 160 11q119 0 212 -22q84 -20 161 -52
v-276z" />
    <glyph glyph-name="zeta" unicode="&#x3b6;" horiz-adv-x="952" 
d="M420 0q-82 0 -151 19q-72 20 -124 63q-55 45 -84 114q-30 70 -30 173q0 98 47 218q45 114 125 236q82 124 179 230q103 112 212 196h-264l-27 -92h-219v338h829v-270q-120 -120 -212 -226q-90 -103 -147 -193q-60 -93 -86 -174q-28 -86 -28 -165q0 -46 11 -77
q11 -30 29 -46q20 -16 48 -21q38 -6 68 -6h68q118 0 198 -57t80 -190q0 -50 -18 -105q-17 -53 -48 -110q-33 -62 -64 -107q-42 -63 -64 -94l-195 92q38 57 61 95q31 51 31 83q0 35 -29 56q-27 20 -75 20h-121z" />
    <glyph glyph-name="eta" unicode="&#x3b7;" horiz-adv-x="1173" 
d="M668 0v719q0 39 -19 58q-18 18 -49 18q-21 0 -42 -8q-23 -9 -36 -17v-770h-401v784l-86 29v260h420l28 -112q62 58 128 98q67 41 171 41q136 0 212 -72q77 -72 77 -242v-528l86 -18v-240h-489z" />
    <glyph glyph-name="theta" unicode="&#x3b8;" horiz-adv-x="1064" 
d="M57 748q0 203 28 355q26 143 85 239q57 94 147 137q89 43 215 43q127 0 216 -43q90 -43 147 -137q59 -96 85 -239q28 -152 28 -355q0 -204 -28 -356q-26 -143 -85 -239q-57 -94 -147 -137q-89 -43 -216 -43q-126 0 -215 43q-90 43 -147 137q-59 96 -85 239
q-28 152 -28 356zM532 1284q-21 0 -36 -15t-23 -61q-7 -45 -12 -125q-4 -71 -4 -211h151q0 140 -4 211q-5 80 -12 125q-8 46 -23 61t-37 15zM532 211q22 0 37 15t23 60q7 43 12 124q4 71 4 211h-151q0 -140 4 -211q5 -81 12 -124q8 -45 23 -60t36 -15z" />
    <glyph glyph-name="iota" unicode="&#x3b9;" horiz-adv-x="628" 
d="M381 -27q-122 0 -192 67q-68 65 -68 189v555l-86 29v260h487v-764q0 -47 14 -59q13 -12 72 -12l13 -211q-49 -24 -110 -39q-60 -15 -130 -15z" />
    <glyph glyph-name="kappa" unicode="&#x3ba;" horiz-adv-x="1144" 
d="M121 0v784l-86 29v260h487v-541l213 273l-80 12v256h463v-260l-92 -16l-162 -207l170 -330l94 -20v-240h-395l-211 424v-424h-401z" />
    <glyph glyph-name="lambda" unicode="&#x3bb;" horiz-adv-x="1105" 
d="M473 776q-2 -20 -4 -52t-3 -39q-3 -32 -8 -70q-2 -12 -6.5 -35t-5.5 -29q-6 -33 -12 -72l-84 -479h-330v240l64 12l233 821h60l-27 105q-6 23 -18 37t-41 14q-31 0 -60 -10q-35 -12 -55 -21l-78 217q58 37 146 73q83 34 176 34q127 0 194 -57q69 -58 103 -193l231 -936
q12 -48 30 -67t48 -19q11 0 17 1t20 3l41 -227q-53 -24 -123 -38q-72 -14 -123 -14q-110 0 -183 53t-100 169l-59 262q-9 38 -23 133q-12 80 -18 184h-2z" />
    <glyph glyph-name="uni03BC" unicode="&#x3bc;" horiz-adv-x="1167" 
d="M1151 240v-240h-422l-20 106q-28 -49 -75 -80q-46 -30 -99 -30q-29 0 -37 6l24 -389h-401v1171l-86 29v260h487v-731q0 -44 23 -59t45 -15q43 0 74 25v491l-70 29v260h471v-815z" />
    <glyph glyph-name="nu" unicode="&#x3bd;" horiz-adv-x="1062" 
d="M616 813v260h431v-260l-72 -22l-244 -791h-377l-266 791l-72 22v260h414l105 -459q7 -36 15 -70q5 -22 11 -66q4 -27 7 -72q1 -8 2 -26t2.5 -34t2.5 -31h3q6 53 12 92q4 27 12 73q5 27 14 66q0 1 19 68l45 177z" />
    <glyph glyph-name="xi" unicode="&#x3be;" horiz-adv-x="952" 
d="M553 -254q38 57 61 95q31 51 31 83q0 35 -29 56q-27 20 -75 20h-101q-82 0 -160 28q-73 26 -130 82t-88 133q-31 78 -31 181q0 62 21 125q21 62 60 117q36 51 91 93q49 38 116 54q-51 15 -94 46q-41 30 -73 73q-33 44 -48 90q-16 48 -16 98q0 114 39 190q40 79 104 124
q65 46 153 67q87 21 185 21q111 0 201 -21q92 -21 154 -51v-309h-240l-31 94q-5 5 -30 10q-21 4 -35 4q-48 0 -85 -34q-38 -35 -38 -111q0 -28 6 -57q6 -27 22 -53q15 -24 42 -39t67 -15h221v-276h-215q-40 0 -74 -16q-31 -15 -53 -40q-18 -21 -30 -56q-11 -33 -11 -65
q0 -76 41 -123t119 -47h64q118 0 198 -57t80 -190q0 -50 -18 -105q-17 -53 -48 -110q-33 -62 -64 -107q-42 -63 -64 -94z" />
    <glyph glyph-name="omicron" unicode="&#x3bf;" horiz-adv-x="1064" 
d="M457 537q0 -103 3 -167q3 -69 10 -100q8 -35 23 -47t39 -12q25 0 40 12t23 47q7 31 10 100q3 64 3 167q0 102 -3 165q-3 67 -10 100q-7 36 -23 48q-15 12 -40 12q-24 0 -39 -12q-16 -12 -23 -48q-7 -33 -10 -100q-3 -63 -3 -165zM41 537q0 296 124 429q125 134 367 134
q243 0 368 -134q124 -133 124 -429t-124 -429q-126 -135 -368 -135q-241 0 -367 135q-124 133 -124 429z" />
    <glyph glyph-name="pi" unicode="&#x3c0;" horiz-adv-x="1228" 
d="M20 786v287h1178v-258l-133 -29v-473q0 -34 9 -46q8 -11 26 -11q19 0 35 2q11 1 28 6l49 -215q-42 -26 -103 -50q-66 -26 -148 -26q-66 0 -120 15q-56 16 -95 50q-39 35 -62 97q-22 60 -22 154v497h-140v-786h-403v786h-99z" />
    <glyph glyph-name="rho" unicode="&#x3c1;" horiz-adv-x="1067" 
d="M1026 537q0 -187 -38 -299q-37 -109 -98 -170q-59 -59 -134 -77q-74 -18 -144 -18q-41 0 -83 7q-36 6 -66 18v-385h-402v934q0 293 117 423t361 130q243 0 365 -134t122 -429zM463 252q15 -5 31 -6q22 -2 32 -2q60 0 72 67t12 226q0 81 -2 165q-1 59 -10 100
q-7 36 -23 48q-15 12 -38 12q-24 0 -39 -12q-16 -12 -23 -48q-9 -41 -10 -100q-2 -84 -2 -165v-285z" />
    <glyph glyph-name="sigma1" unicode="&#x3c2;" horiz-adv-x="864" 
d="M530 -80q0 30 -21 48q-20 17 -67 28l-51 12q-175 40 -263 169q-87 127 -87 368q0 287 131 421t371 134q110 0 179 -21t132 -51v-309h-240l-30 129q-14 14 -39 14t-42 -11q-19 -12 -30 -45q-13 -36 -17 -94q-5 -67 -5 -159q0 -73 6 -120t18 -74t31 -43t45 -23l63 -23
q115 -41 166 -92t51 -123q0 -49 -18 -102q-19 -55 -48 -106t-64 -101q-53 -75 -64 -92l-195 92q44 66 60 93q28 47 28 81z" />
    <glyph glyph-name="sigma" unicode="&#x3c3;" horiz-adv-x="1140" 
d="M1008 512q0 -267 -116 -403t-360 -136q-241 0 -367 135q-124 133 -124 429q0 146 39 248q39 103 107 166q69 64 161 93q93 29 199 29h573v-258l-133 -29h-72q51 -62 72 -135t21 -139zM457 537q0 -103 3 -167q3 -69 10 -100q8 -35 23 -47t39 -12q26 0 40 10q16 11 23 43
q7 30 10 90q3 57 3 154q0 95 -5 168q-4 65 -15 110h-35q-25 0 -43 -9t-30 -36q-11 -24 -17 -75q-6 -50 -6 -129z" />
    <glyph glyph-name="tau" unicode="&#x3c4;" horiz-adv-x="948" 
d="M662 786v-450q0 -44 13 -58q14 -16 46 -16q23 0 45 3t39 9l43 -247q-35 -17 -102 -35q-70 -19 -171 -19q-72 0 -129 15q-59 15 -99 50q-42 36 -64 97q-23 63 -23 154v497h-252v287h932v-258l-133 -29h-145z" />
    <glyph glyph-name="upsilon" unicode="&#x3c5;" horiz-adv-x="1185" 
d="M592 233q22 0 47 19t25 76v456l-70 29v260h557v-260l-86 -29v-413q0 -398 -471 -398q-236 0 -355 92q-118 91 -118 306v413l-86 29v260h487v-745q0 -58 24 -76q25 -19 46 -19z" />
    <glyph glyph-name="phi" unicode="&#x3c6;" horiz-adv-x="1478" 
d="M1042 539q0 100 -5 170q-4 62 -18 97q-13 33 -36 45q-19 10 -55 15v-659q34 2 54 13q22 13 35 46t19 100q6 64 6 173zM492 856q-29 -38 -42 -119q-14 -86 -14 -198q0 -109 6 -173t20 -100q13 -34 36 -46q21 -11 53 -13v866q55 13 107 19q67 8 178 8q312 0 457 -137
t145 -424q0 -144 -31 -251q-29 -101 -94 -169q-63 -65 -160 -99q-94 -32 -225 -40v-109l96 -18v-240h-569v240l96 18v109q-133 8 -227 40q-96 33 -159 99t-93 169q-31 107 -31 251q0 86 14 163q15 81 53 153t103 128q67 58 168 92z" />
    <glyph glyph-name="chi" unicode="&#x3c7;" horiz-adv-x="1204" 
d="M492 231v-231h-457v240l74 14l251 291l-241 248l-74 20v260h412l239 -356h4l88 96l-65 18v242h432v-260l-76 -18l-225 -248l270 -295l64 -12v-240h-400l-266 350h-4l-92 -106z" />
    <glyph glyph-name="psi" unicode="&#x3c8;" horiz-adv-x="1585" 
d="M985 213q94 10 94 94v766h471v-260l-86 -29v-407q0 -116 -31 -190q-30 -72 -94 -119q-61 -45 -150 -66q-88 -21 -204 -27v-104l92 -18v-240h-569v240l92 18v104q-116 6 -204 27t-150 66t-93 119q-32 76 -32 190v407l-86 29v260h471v-766q0 -84 94 -94v860h385v-860z" />
    <glyph glyph-name="omega" unicode="&#x3c9;" horiz-adv-x="1480" 
d="M1042 -27q-60 0 -114 13q-50 12 -84 33q-32 20 -61 50q-26 28 -44 56q-18 -28 -44 -56q-30 -32 -60 -50q-34 -21 -83 -33q-52 -13 -114 -13q-115 0 -193 55q-77 55 -122 135q-47 84 -64 177q-18 96 -18 180q0 85 16 169q16 86 60 166q44 81 117 142q77 65 194 99
l117 -240q-60 -37 -82 -113q-23 -78 -23 -223q0 -108 3 -170q3 -56 10 -92q6 -32 17 -39q13 -8 28 -8q28 0 43 33q14 31 14 127v399h371v-399q0 -96 14 -127q15 -33 43 -33q15 0 28 8q11 7 17 39q6 30 9 92t3 170q0 148 -22 223q-22 76 -82 113l117 240q115 -33 193 -99
q75 -63 118 -142q42 -77 59 -166q17 -90 17 -169t-19 -180q-18 -96 -63 -177q-45 -80 -122 -135q-78 -55 -194 -55z" />
    <glyph glyph-name="iotadieresis" unicode="&#x3ca;" horiz-adv-x="628" 
d="M381 -27q-122 0 -192 67q-68 65 -68 189v555l-86 29v260h487v-764q0 -47 14 -59q13 -12 72 -12l13 -211q-49 -24 -110 -39q-60 -15 -130 -15zM92 1151q-42 0 -74 14q-35 15 -61 40q-27 25 -42 60t-15 72q0 82 53 138q52 55 131 55q41 0 75 -14q36 -15 62 -41
q27 -27 42 -62q16 -37 16 -76q0 -35 -16 -72q-15 -34 -41 -60q-25 -25 -59 -40q-32 -14 -71 -14zM543 1151q-43 0 -75 14q-33 14 -60 40q-25 24 -41 60q-15 35 -15 72q0 83 51 138t129 55q85 0 141 -55t56 -138q0 -40 -14 -72q-15 -35 -40 -60t-60 -40q-32 -14 -72 -14z" />
    <glyph glyph-name="upsilondieresis" unicode="&#x3cb;" horiz-adv-x="1185" 
d="M592 233q22 0 47 19t25 76v456l-70 29v260h557v-260l-86 -29v-413q0 -398 -471 -398q-236 0 -355 92q-118 91 -118 306v413l-86 29v260h487v-745q0 -58 24 -76q25 -19 46 -19zM371 1151q-42 0 -74 14q-35 15 -61 40q-27 25 -42 60q-16 37 -16 72q0 82 53 138
q52 55 131 55q41 0 75 -14q38 -16 63 -41q27 -27 42 -62t15 -76q0 -37 -15 -72q-15 -34 -41 -60q-25 -25 -60 -40q-32 -14 -70 -14zM821 1151q-43 0 -75 14q-33 14 -60 40q-25 24 -41 60q-14 32 -14 72q0 83 51 138t129 55q84 0 140 -55q57 -55 57 -138q0 -37 -15 -72
t-40 -60t-59 -40q-32 -14 -73 -14z" />
    <glyph glyph-name="omicrontonos" unicode="&#x3cc;" horiz-adv-x="1064" 
d="M457 537q0 -103 3 -167q3 -69 10 -100q8 -35 23 -47t39 -12q25 0 40 12t23 47q7 31 10 100q3 64 3 167q0 102 -3 165q-3 67 -10 100q-7 36 -23 48q-15 12 -40 12q-24 0 -39 -12q-16 -12 -23 -48q-7 -33 -10 -100q-3 -63 -3 -165zM41 537q0 296 124 429q125 134 367 134
q243 0 368 -134q124 -133 124 -429t-124 -429q-126 -135 -368 -135q-241 0 -367 135q-124 133 -124 429zM410 1167l139 379h358l-264 -379h-233z" />
    <glyph glyph-name="upsilontonos" unicode="&#x3cd;" horiz-adv-x="1185" 
d="M592 233q22 0 47 19t25 76v456l-70 29v260h557v-260l-86 -29v-413q0 -398 -471 -398q-236 0 -355 92q-118 91 -118 306v413l-86 29v260h487v-745q0 -58 24 -76q25 -19 46 -19zM451 1167l139 379h358l-264 -379h-233z" />
    <glyph glyph-name="omegatonos" unicode="&#x3ce;" horiz-adv-x="1480" 
d="M1042 -27q-60 0 -114 13q-50 12 -84 33q-32 20 -61 50q-26 28 -44 56q-18 -28 -44 -56q-30 -32 -60 -50q-34 -21 -83 -33q-52 -13 -114 -13q-115 0 -193 55q-77 55 -122 135q-47 84 -64 177q-18 96 -18 180q0 85 16 169q16 86 60 166q44 81 117 142q77 65 194 99
l117 -240q-60 -37 -82 -113q-23 -78 -23 -223q0 -108 3 -170q3 -56 10 -92q6 -32 17 -39q13 -8 28 -8q28 0 43 33q14 31 14 127v399h371v-399q0 -96 14 -127q15 -33 43 -33q15 0 28 8q11 7 17 39q6 30 9 92t3 170q0 148 -22 223q-22 76 -82 113l117 240q115 -33 193 -99
q75 -63 118 -142q42 -77 59 -166q17 -90 17 -169t-19 -180q-18 -96 -63 -177q-45 -80 -122 -135q-78 -55 -194 -55zM635 1167l139 379h359l-265 -379h-233z" />
    <glyph glyph-name="uni0400" unicode="&#x400;" horiz-adv-x="1153" 
d="M938 516h-209l-33 84h-123v-334h232l47 172h264v-438h-1079v236l110 32v891l-110 33v235h1057v-409h-269l-32 143h-220v-303h123l33 82h209v-424zM782 1481l-469 190l179 297l395 -307z" />
    <glyph glyph-name="afii10023" unicode="&#x401;" horiz-adv-x="1153" 
d="M938 516h-209l-33 84h-123v-334h232l47 172h264v-438h-1079v236l110 32v891l-110 33v235h1057v-409h-269l-32 143h-220v-303h123l33 82h209v-424zM354 1495q-41 0 -73 14q-36 16 -62 40q-27 25 -42 60t-15 72q0 82 53 138q52 55 131 55q41 0 75 -14q36 -15 62 -41
q27 -27 42 -62q16 -37 16 -76q0 -35 -16 -72q-15 -34 -41 -60q-25 -25 -59 -40q-32 -14 -71 -14zM805 1495q-43 0 -75 14q-33 14 -60 40q-25 24 -41 60q-15 35 -15 72q0 81 52 138q51 55 129 55q84 0 140 -55t56 -138q0 -40 -14 -72q-15 -35 -40 -60t-59 -40
q-32 -14 -73 -14z" />
    <glyph glyph-name="afii10051" unicode="&#x402;" horiz-adv-x="1611" 
d="M1481 446q0 -128 -33 -214t-94 -138q-62 -53 -151 -80q-82 -25 -204 -41l-63 215q37 17 64 40q23 20 36 52q13 33 16 69q3 41 3 95q0 71 -26 106q-25 34 -85 34q-33 0 -71 -11t-58 -30v-543h-536v236l110 32v906h-67l-33 -232h-269v485h1240v-450h-269l-33 197h-143v-361
q52 43 126 66q77 24 159 24q104 0 173 -23q73 -24 119 -78q45 -53 67 -142q22 -91 22 -214z" />
    <glyph glyph-name="afii10052" unicode="&#x403;" horiz-adv-x="1032" 
d="M37 236l110 32v891l-110 33v235h985v-485h-268l-33 219h-148v-893l138 -32v-236h-674v236zM369 1661l395 307l178 -297l-469 -190z" />
    <glyph glyph-name="afii10053" unicode="&#x404;" horiz-adv-x="1142" 
d="M666 -27q-168 0 -288 50q-119 50 -192 142t-106 229t-33 311q0 208 42 352q41 141 122 231q79 88 197 127q117 39 266 39q118 0 236 -29q115 -28 188 -86v-325h-279l-41 151q-45 27 -98 27q-41 0 -74 -15q-32 -15 -57 -55q-26 -42 -40 -105q-16 -72 -22 -171h351v-256
h-353q4 -106 17 -178q12 -70 36 -110q23 -39 58 -54q34 -15 84 -15q20 0 53 7q30 6 53 22l41 158h279v-344q-38 -21 -88 -39t-110 -33q-55 -14 -121 -22q-76 -9 -121 -9z" />
    <glyph glyph-name="afii10054" unicode="&#x405;" horiz-adv-x="1060" 
d="M475 -27q-145 0 -255 29q-102 27 -173 64v348h266l54 -152q17 -10 45 -18q30 -8 63 -8q69 0 103 25t34 101q0 40 -9 67q-9 28 -30 47q-20 19 -55 34q-34 15 -84 27q-120 30 -197 75t-122 104q-46 59 -62 131q-16 70 -16 159q0 125 39 211q40 88 106 139q69 54 161 76
q91 22 204 22q106 0 211 -21q98 -20 176 -57v-325h-270l-39 125q-25 10 -44 13q-18 3 -51 3q-44 0 -75 -23t-31 -82q0 -53 38 -85q37 -31 136 -58q103 -28 189 -70q79 -39 128 -97q50 -59 72 -139q23 -83 23 -194q0 -227 -126 -349q-127 -122 -409 -122z" />
    <glyph glyph-name="afii10055" unicode="&#x406;" horiz-adv-x="720" 
d="M37 236l110 32v891l-110 33v235h647v-235l-111 -33v-891l111 -32v-236h-647v236z" />
    <glyph glyph-name="afii10056" unicode="&#x407;" horiz-adv-x="720" 
d="M127 1520q-79 0 -131 51q-53 51 -53 129q0 79 50 132q49 52 128 52t132 -52q54 -52 54 -132q0 -78 -52 -129t-128 -51zM598 1520q-78 0 -131 51t-53 129q0 79 50 132q49 52 128 52t132 -52q54 -52 54 -132q0 -78 -52 -129t-128 -51zM37 236l110 32v891l-110 33v235h647
v-235l-111 -33v-891l111 -32v-236h-647v236z" />
    <glyph glyph-name="afii10057" unicode="&#x408;" horiz-adv-x="720" 
d="M573 150q0 -114 -29 -195q-30 -85 -88 -150q-55 -62 -146 -114q-88 -50 -199 -90l-117 211q57 42 82 72q31 38 46 77q16 42 20 93q5 58 5 122v983l-110 33v235h647v-235l-111 -33v-1009z" />
    <glyph glyph-name="afii10058" unicode="&#x409;" horiz-adv-x="1802" 
d="M676 236l110 32v891h-141l-31 -545q-11 -181 -29 -290q-20 -119 -59 -193q-39 -73 -102 -106t-162 -33q-35 0 -90 5q-48 4 -104 15l-48 346q22 -2 29 -2h27q50 0 92 16q39 15 66 67q29 57 45 151q16 95 22 262l12 307l-153 33v235h1163v-235l-111 -33v-235h23
q147 0 256 -25q104 -24 169 -80t93 -145q29 -92 29 -221q0 -244 -128 -349q-126 -104 -397 -104h-581v236zM1212 657v-391h58q24 0 44 6q18 6 34 26q13 17 21 55q7 34 7 98q0 63 -6 103q-6 39 -18 62t-34 32q-21 9 -52 9h-54z" />
    <glyph glyph-name="afii10059" unicode="&#x40a;" horiz-adv-x="1888" 
d="M764 0v236l108 32v328h-299v-328l109 -32v-236h-645v236l110 32v891l-110 33v235h645v-235l-109 -33v-297h299v297l-108 33v235h645v-235l-111 -33v-235h23q147 0 256 -25q104 -24 169 -80t93 -145q29 -92 29 -221q0 -134 -36 -221q-36 -86 -105 -139q-69 -52 -168 -73
q-96 -20 -230 -20h-565zM1298 657v-391h58q24 0 44 6q18 6 34 26q13 17 21 55q7 34 7 98q0 63 -6 103q-6 39 -18 62t-34 32q-21 9 -52 9h-54z" />
    <glyph glyph-name="afii10060" unicode="&#x40b;" horiz-adv-x="1611" 
d="M965 0v236l90 32v176q0 71 -26 106q-25 34 -85 34q-33 0 -71 -11t-58 -30v-543h-536v236l110 32v906h-67l-33 -232h-269v485h1240v-450h-269l-33 197h-143v-361q52 43 126 66q77 24 159 24q104 0 173 -23q73 -24 119 -78q45 -53 67 -142q22 -91 22 -214v-178l110 -32
v-236h-626z" />
    <glyph glyph-name="afii10061" unicode="&#x40c;" horiz-adv-x="1382" 
d="M37 236l110 32v891l-110 33v235h647v-235l-111 -33v-891l111 -32v-236h-647v236zM1346 236v-236h-461l-299 702l309 459l-78 31v235h494v-235l-97 -31l-235 -338l260 -555zM506 1671l395 307l178 -297l-469 -190z" />
    <glyph glyph-name="uni040D" unicode="&#x40d;" horiz-adv-x="1460" 
d="M776 236l111 32v209q0 127 13 234q11 90 26 186h-21q-10 -30 -38 -110q-22 -62 -64 -148l-316 -639h-450v236l110 32v891l-110 33v235h647v-235l-111 -33v-164q0 -119 -13 -224q-19 -151 -23 -181h18q11 39 18 73q4 20 19 73q13 45 25 81q15 42 42 94l263 516h501v-235
l-110 -33v-891l110 -32v-236h-647v236zM911 1481l-469 190l179 297l395 -307z" />
    <glyph glyph-name="afii10062" unicode="&#x40e;" horiz-adv-x="1359" 
d="M698 1513q-96 0 -171 27t-127 73q-54 48 -81 108q-29 63 -30 134l280 39q7 -64 44 -101q36 -36 85 -36q61 0 95 32q32 31 43 105l272 -39q-4 -67 -33 -129t-81 -108q-55 -49 -127 -76q-76 -29 -169 -29zM930 424q-56 -131 -110 -228q-54 -96 -115 -151q-64 -58 -149 -83
q-84 -25 -206 -25h-24l-88 346h24q127 0 182 16q58 17 76 57l-409 809l-80 27v235h626v-233l-110 -27l98 -215q55 -123 76 -209q23 -90 27 -147h2q5 57 22 141q17 85 59 193l93 239l-111 25v233h510v-235l-82 -25z" />
    <glyph glyph-name="afii10145" unicode="&#x40f;" horiz-adv-x="1435" 
d="M520 -281l27 281h-510v236l110 32v891l-110 33v235h647v-235l-111 -33v-893h289v893l-110 33v235h647v-235l-111 -33v-891l111 -32v-236h-512l26 -281h-393z" />
    <glyph glyph-name="afii10017" unicode="&#x410;" horiz-adv-x="1402" 
d="M815 373h-358l-33 -115l111 -25v-233h-498v236l82 24l356 1167h438l373 -1165l80 -26v-236h-627v233l111 27zM528 621h209l-37 120q-27 93 -45 177q-15 71 -20 137h-2q-5 -61 -22 -137q-20 -90 -46 -175z" />
    <glyph glyph-name="afii10018" unicode="&#x411;" horiz-adv-x="1198" 
d="M37 0v236l110 32v891l-110 33v235h1055v-471h-269l-32 209h-218v-286h45q154 0 261 -21t173 -72t96 -138t30 -218q0 -134 -37 -217q-38 -84 -107 -131q-70 -47 -171 -65q-96 -17 -230 -17h-596zM573 616v-354h80q25 0 47 3q23 3 38 20q17 18 25 49q9 33 9 94q0 65 -7 100
q-7 37 -23 57q-15 19 -39 25t-54 6h-76z" />
    <glyph glyph-name="afii10019" unicode="&#x412;" horiz-adv-x="1216" 
d="M670 266q47 0 71 35q25 36 25 139q0 87 -26 122q-25 34 -78 34h-89v-330h97zM647 862q56 0 80 34q25 36 25 120q0 81 -26 113t-79 32h-74v-299h74zM748 1427q84 0 152 -17q75 -19 126 -58q53 -41 85 -112q32 -72 32 -175q0 -124 -52 -200t-182 -103q133 -28 210 -110
t77 -228q0 -103 -25 -186q-25 -81 -82 -133q-56 -50 -154 -78q-95 -27 -235 -27h-663v236l110 32v891l-110 33v235h711z" />
    <glyph glyph-name="afii10020" unicode="&#x413;" horiz-adv-x="1032" 
d="M37 236l110 32v891l-110 33v235h985v-485h-268l-33 219h-148v-893l138 -32v-236h-674v236z" />
    <glyph glyph-name="afii10021" unicode="&#x414;" horiz-adv-x="1378" 
d="M1321 1427v-235l-111 -33v-893h156v-493h-301l-31 227h-690l-31 -227h-301v493h138q60 114 109 316q47 196 52 454l2 123l-139 33v235h1147zM621 1159l-3 -65q-5 -164 -20 -287q-17 -140 -37 -240q-22 -112 -44 -182q-23 -72 -42 -119h309v893h-163z" />
    <glyph glyph-name="afii10022" unicode="&#x415;" horiz-adv-x="1153" 
d="M938 516h-209l-33 84h-123v-334h232l47 172h264v-438h-1079v236l110 32v891l-110 33v235h1057v-409h-269l-32 143h-220v-303h123l33 82h209v-424z" />
    <glyph glyph-name="afii10024" unicode="&#x416;" horiz-adv-x="2000" 
d="M700 236l111 32v891l-111 33v235h600v-235l-110 -33v-891l110 -32v-236h-600v236zM1964 236v-236h-440l-305 702l311 459l-78 31v235h485v-235l-96 -31l-246 -338l263 -555zM143 268l263 555l-246 338l-97 31v235h486v-235l-78 -31l311 -459l-305 -702h-440v236z" />
    <glyph glyph-name="afii10025" unicode="&#x417;" horiz-adv-x="1030" 
d="M473 -27q-146 0 -254 29q-102 27 -172 64v348h266l54 -152q17 -10 45 -18q30 -8 63 -8q81 0 109 51q28 50 28 127q0 48 -9 86q-8 35 -35 60q-26 24 -70 36q-45 12 -117 12h-90v244h86q73 0 116 12q42 12 67 38q23 25 31 64q7 35 7 87q0 72 -26 106q-26 33 -83 33
q-27 0 -46 -3q-21 -3 -46 -13l-39 -125h-270v319q74 36 178 59q111 25 209 25q106 0 196 -13q92 -13 163 -55q70 -41 110 -115q41 -76 41 -196q0 -57 -13 -106q-14 -53 -40 -95q-25 -41 -68 -74q-39 -31 -98 -46v-17q112 -21 177 -101q67 -82 67 -241q0 -93 -31 -174
q-30 -77 -96 -133q-66 -55 -167 -85q-102 -30 -243 -30z" />
    <glyph glyph-name="afii10026" unicode="&#x418;" horiz-adv-x="1460" 
d="M776 236l111 32v209q0 127 13 234q11 90 26 186h-21q-10 -30 -38 -110q-22 -62 -64 -148l-316 -639h-450v236l110 32v891l-110 33v235h647v-235l-111 -33v-164q0 -119 -13 -224q-19 -151 -23 -181h18q11 39 18 73q4 20 19 73q13 45 25 81q15 42 42 94l263 516h501v-235
l-110 -33v-891l110 -32v-236h-647v236z" />
    <glyph glyph-name="afii10027" unicode="&#x419;" horiz-adv-x="1460" 
d="M729 1513q-96 0 -171 27t-127 73q-54 48 -81 108q-30 65 -31 134l281 39q7 -64 44 -101q36 -36 85 -36q60 0 94 32q32 31 43 105l273 -39q-5 -67 -33 -129t-81 -108q-55 -49 -127 -76q-76 -29 -169 -29zM776 236l111 32v209q0 127 13 234q11 90 26 186h-21
q-10 -30 -38 -110q-22 -62 -64 -148l-316 -639h-450v236l110 32v891l-110 33v235h647v-235l-111 -33v-164q0 -119 -13 -224q-19 -151 -23 -181h18q11 39 18 73q4 20 19 73q13 45 25 81q15 42 42 94l263 516h501v-235l-110 -33v-891l110 -32v-236h-647v236z" />
    <glyph glyph-name="afii10028" unicode="&#x41a;" horiz-adv-x="1382" 
d="M37 236l110 32v891l-110 33v235h647v-235l-111 -33v-891l111 -32v-236h-647v236zM1346 236v-236h-461l-299 702l309 459l-78 31v235h494v-235l-97 -31l-235 -338l260 -555z" />
    <glyph glyph-name="afii10029" unicode="&#x41b;" horiz-adv-x="1384" 
d="M680 236l111 32v891h-146l-33 -579q-11 -174 -30 -273q-21 -111 -62 -183q-40 -70 -104 -102t-156 -32q-41 0 -89 6q-54 7 -103 16l-48 346q22 -2 29 -2h29q48 0 90 16q39 15 66 66q29 55 45 150t22 262l12 309l-153 33v235h1167v-235l-110 -33v-891l110 -32v-236h-647
v236z" />
    <glyph glyph-name="afii10030" unicode="&#x41c;" horiz-adv-x="1724" 
d="M559 236v-236h-522v236l110 32v891l-110 33v235h700l88 -385q17 -67 24 -102q10 -49 14 -81q6 -50 8 -75q3 -38 3 -84h5q1 36 5 84q3 35 9 74q5 33 15 80q6 30 26 102l102 387h652v-235l-111 -33v-891l111 -32v-236h-648v236l111 32l-2 441v96q0 55 1 79q0 12 0.5 35
t1.5 35q2 51 5 78h-2q-15 -82 -27 -159t-36 -168l-119 -426h-346l-121 428q-30 105 -41 172q-15 88 -23 151h-4q5 -39 6 -73q2 -57 3 -70q2 -50 2 -80v-539z" />
    <glyph glyph-name="afii10031" unicode="&#x41d;" horiz-adv-x="1454" 
d="M770 236l111 32v328h-308v-328l111 -32v-236h-647v236l110 32v891l-110 33v235h647v-235l-111 -33v-297h308v297l-111 33v235h647v-235l-110 -33v-891l110 -32v-236h-647v236z" />
    <glyph glyph-name="afii10032" unicode="&#x41e;" horiz-adv-x="1286" 
d="M643 -27q-304 0 -450 181t-146 559q0 375 146 559q145 182 450 182q306 0 451 -182t145 -559q0 -380 -145 -559q-146 -181 -451 -181zM643 236q46 0 75 23q30 24 46 80q16 55 22 147q7 107 7 227t-7 227q-6 94 -22 147q-17 57 -46 80q-31 25 -75 25q-46 0 -76 -25
q-28 -24 -45 -80q-16 -53 -22 -147q-6 -92 -6 -227t6 -227t22 -147q16 -56 45 -80q27 -23 76 -23z" />
    <glyph glyph-name="afii10033" unicode="&#x41f;" horiz-adv-x="1435" 
d="M752 236l110 32v893h-289v-893l111 -32v-236h-647v236l110 32v891l-110 33v235h1362v-235l-111 -33v-891l111 -32v-236h-647v236z" />
    <glyph glyph-name="afii10034" unicode="&#x420;" horiz-adv-x="1185" 
d="M647 750q32 0 52 10q21 11 35 35q14 25 20 66q6 42 6 106t-7 99q-8 39 -22 59q-16 22 -35 29q-20 7 -45 7h-78v-411h74zM625 1427q130 0 230 -22q99 -22 170 -76q67 -51 104 -142q36 -89 36 -222q0 -134 -28 -224q-28 -91 -94 -149q-65 -58 -169 -83q-107 -26 -258 -26
h-43v-217l148 -30v-236h-684v236l110 32v891l-110 33v235h588z" />
    <glyph glyph-name="afii10035" unicode="&#x421;" horiz-adv-x="1144" 
d="M668 -27q-168 0 -288 50q-119 50 -192 142q-72 91 -107 229q-34 135 -34 311q0 208 42 352q41 142 123 231q80 88 198 127q117 39 266 39q118 0 236 -29q115 -28 188 -86v-325h-279l-41 151q-45 27 -94 27q-47 0 -83 -21t-60 -73q-25 -55 -37 -149q-12 -95 -12 -242
t9 -238q9 -90 32 -144q23 -53 59 -72q38 -20 92 -20q20 0 51 7q28 6 51 22l41 158h279v-344q-38 -21 -88 -39t-110 -33q-56 -14 -120 -22q-76 -9 -122 -9z" />
    <glyph glyph-name="afii10036" unicode="&#x422;" horiz-adv-x="1286" 
d="M319 236l111 32v893h-92l-33 -219h-268v485h1212v-485h-268l-33 219h-92v-893l111 -32v-236h-648v236z" />
    <glyph glyph-name="afii10037" unicode="&#x423;" horiz-adv-x="1359" 
d="M930 424q-56 -131 -110 -228q-54 -96 -115 -151q-64 -58 -149 -83q-84 -25 -206 -25h-24l-88 346h24q127 0 182 16q58 17 76 57l-409 809l-80 27v235h626v-233l-110 -27l98 -215q55 -123 76 -209q23 -90 27 -147h2q5 57 22 141q17 85 59 193l93 239l-111 25v233h510v-235
l-82 -25z" />
    <glyph glyph-name="afii10038" unicode="&#x424;" horiz-adv-x="1671" 
d="M512 137l117 33v55q-308 12 -454 144q-144 131 -144 374q0 244 144 376q145 133 454 145v55l-117 33v219h647v-219l-117 -33v-55q311 -10 455 -144q143 -133 143 -377t-142 -374q-144 -132 -456 -144v-55l117 -33v-219h-647v219zM438 743q0 -67 11 -125t33 -95
q24 -40 63 -61q41 -22 98 -22v609q-57 0 -98 -22q-39 -21 -63 -61q-22 -37 -33 -97t-11 -126zM1233 750q0 67 -10 120q-11 57 -34 96q-24 40 -63 61q-41 22 -98 22v-609q58 0 98 23q39 23 63 63q23 39 34 98q10 54 10 126z" />
    <glyph glyph-name="afii10039" unicode="&#x425;" horiz-adv-x="1390" 
d="M37 236l92 32l324 467l-306 434l-90 23v235h703v-233l-90 -25l127 -200l118 198l-84 27v233h502v-235l-88 -25l-282 -444l297 -451l94 -36v-236h-692v231l102 37l-146 226l-143 -226l100 -37v-231h-538v236z" />
    <glyph glyph-name="afii10040" unicode="&#x426;" horiz-adv-x="1456" 
d="M1444 266v-493h-301l-31 227h-1075v236l110 32v891l-110 33v235h643v-235l-107 -33v-893h289v893l-106 33v235h643v-235l-111 -33v-893h156z" />
    <glyph glyph-name="afii10041" unicode="&#x427;" horiz-adv-x="1363" 
d="M641 1427v-235l-90 -33v-227q0 -139 115 -139q35 0 68 10q35 11 57 31v325l-91 33v235h627v-235l-110 -33v-891l110 -32v-236h-647v236l111 32v295q-51 -42 -125 -65q-80 -25 -158 -25q-101 0 -173 24q-73 24 -119 76t-69 142q-22 87 -22 215v229l-111 33v235h627z" />
    <glyph glyph-name="afii10042" unicode="&#x428;" horiz-adv-x="1974" 
d="M1937 0h-1900v236l110 32v891l-110 33v235h604v-235l-68 -33v-893h201v893l-67 33v235h561v-235l-68 -33v-893h201v893l-68 33v235h604v-235l-110 -33v-891l110 -32v-236z" />
    <glyph glyph-name="afii10043" unicode="&#x429;" horiz-adv-x="1994" 
d="M1982 266v-493h-301l-30 227h-1614v236l110 32v891l-110 33v235h604v-235l-68 -33v-893h201v893l-67 33v235h561v-235l-68 -33v-893h201v893l-68 33v235h604v-235l-110 -33v-893h155z" />
    <glyph glyph-name="afii10044" unicode="&#x42a;" horiz-adv-x="1439" 
d="M279 0v236l110 32v893h-67l-33 -219h-269v485h906v-235l-111 -31v-237h51q150 0 259 -25q104 -24 171 -80t95 -145q28 -88 28 -221q0 -135 -37 -221q-37 -87 -106 -139q-68 -52 -171 -73q-97 -20 -231 -20h-595zM815 657v-391h86q25 0 46 6t36 26q16 21 23 55q8 38 8 98
q0 63 -6 103q-6 39 -21 62q-16 23 -37 32q-22 9 -53 9h-82z" />
    <glyph glyph-name="afii10045" unicode="&#x42b;" horiz-adv-x="1847" 
d="M573 657v-391h62q24 0 45 6q19 5 35 26q14 19 22 55q8 38 8 98q0 63 -6 103t-19 62q-14 23 -36 32t-53 9h-58zM37 0v236l110 32v891l-110 33v235h647v-235l-111 -31v-237h27q149 0 258 -25q103 -23 170 -80q66 -55 94 -145q29 -92 29 -221q0 -134 -36 -221
q-36 -86 -105 -139q-68 -52 -171 -73q-97 -20 -231 -20h-571zM1180 236l94 32v891l-94 33v235h630v-235l-110 -33v-891l110 -32v-236h-630v236z" />
    <glyph glyph-name="afii10046" unicode="&#x42c;" horiz-adv-x="1198" 
d="M573 657v-391h86q26 0 47 6q19 5 35 26t23 55q8 38 8 98q0 63 -6 103q-6 39 -21 62q-16 24 -36 32q-23 9 -54 9h-82zM37 0v236l110 32v891l-110 33v235h647v-235l-111 -31v-237h52q150 0 259 -25q104 -24 171 -80q66 -55 94 -145q29 -92 29 -221q0 -135 -37 -221
t-107 -139q-68 -52 -171 -73q-97 -20 -230 -20h-596z" />
    <glyph glyph-name="afii10047" unicode="&#x42d;" horiz-adv-x="1144" 
d="M492 -27q-46 0 -122 9q-66 8 -121 22q-60 15 -110 33t-88 39v336h279l41 -150q23 -16 54 -22q35 -7 54 -7q51 0 86 15q37 16 58 54t32 108q10 67 15 176h-357v245h355q-5 113 -19 179q-16 72 -38 110q-25 43 -58 57q-34 15 -80 15q-27 0 -55 -6t-51 -21l-41 -159h-279
v333q43 33 85 51q41 18 106 35q53 14 117 22q56 7 122 7q151 0 269 -39q119 -39 198 -127q81 -90 122 -231q42 -144 42 -352q0 -174 -33 -311t-106 -229t-192 -142q-120 -50 -285 -50z" />
    <glyph glyph-name="afii10048" unicode="&#x42e;" horiz-adv-x="1898" 
d="M37 236l110 32v891l-110 33v235h641v-235l-105 -33v-317h127q23 310 162 461t408 151q581 0 581 -741q0 -375 -143 -557q-144 -183 -438 -183q-268 0 -408 151q-140 150 -162 462h-127v-318l105 -32v-236h-641v236zM1266 236q42 0 69 24t42 81q16 63 22 147q6 92 6 225
t-6 224q-6 86 -22 148q-15 58 -42 82q-28 25 -69 25q-42 0 -70 -25q-27 -24 -42 -82q-15 -57 -21 -148q-7 -107 -7 -224q0 -118 7 -225q6 -90 21 -147t42 -81t70 -24z" />
    <glyph glyph-name="afii10049" unicode="&#x42f;" horiz-adv-x="1282" 
d="M1245 1427v-235l-110 -33v-891l110 -32v-236h-624v236l88 30v258h-43l-203 -524h-426v236l104 30l183 299q-116 41 -168 138q-54 100 -54 276q0 135 39 221q39 85 112 137t177 71q102 19 234 19h581zM709 780v381h-78q-29 0 -51 -6q-23 -6 -38 -26q-17 -22 -25 -56
q-9 -37 -9 -98q0 -62 7 -97q8 -39 23 -60q16 -23 40 -30q26 -8 61 -8h70z" />
    <glyph glyph-name="afii10065" unicode="&#x430;" horiz-adv-x="1056" 
d="M551 477h-19q-62 0 -82 -30q-20 -31 -20 -99t14 -90q16 -25 54 -25q30 0 53 17v227zM598 104q-40 -57 -98 -93q-61 -38 -152 -38q-88 0 -146 27t-94 75q-38 50 -52 112q-15 65 -15 141q0 187 118 263q119 77 330 77h62v30q0 51 -22 73t-68 22q-86 0 -165 -22
q-71 -20 -128 -46l-109 233q91 65 211 103q123 39 258 39q109 0 191 -20q81 -20 130 -63q51 -45 75 -116q24 -72 24 -174v-418q0 -47 14 -59t72 -12l13 -211q-49 -24 -107 -39q-57 -15 -127 -15q-75 0 -134 32q-59 31 -81 99z" />
    <glyph glyph-name="afii10066" unicode="&#x431;" horiz-adv-x="1064" 
d="M457 496q0 -96 3 -153q3 -59 10 -85q8 -29 23 -38t39 -9q25 0 40 9t23 38q7 26 10 85q3 57 3 153q0 94 -3 151q-3 60 -10 86q-8 29 -23 38t-40 9q-24 0 -39 -9t-23 -38q-7 -26 -10 -86q-3 -57 -3 -151zM299 887q40 48 115 89q76 42 184 42q206 0 316 -123
q110 -124 110 -397q0 -277 -124 -401t-368 -124q-119 0 -209 34q-91 34 -154 108q-62 72 -95 192q-33 119 -33 291q0 140 7 244q7 107 29 199q21 90 59 159q38 70 100 123q55 49 118 73q64 25 130 40q62 14 124 19q54 4 101 11l28 56h221l-47 -387q-15 0 -62.5 1.5
t-76.5 2.5q-77 1 -152 -3q-71 -4 -142 -22q-67 -17 -105 -53q-39 -34 -59 -79t-25 -93z" />
    <glyph glyph-name="afii10067" unicode="&#x432;" horiz-adv-x="1071" 
d="M1016 803q0 -85 -29 -141q-30 -58 -106 -87q87 -27 123 -78q36 -50 36 -151q0 -85 -25 -148q-26 -65 -86 -109q-60 -43 -160 -66q-101 -23 -249 -23h-479v240l86 18v557l-86 19v239h627q75 0 133 -11q65 -12 111 -41q50 -31 76 -82q28 -54 28 -136zM549 238q62 0 86 30
t24 86q0 60 -28 79q-29 20 -78 20h-66v-215h62zM487 616h99q29 12 48 35q17 21 17 80q0 48 -19 76q-20 29 -73 29h-72v-220z" />
    <glyph glyph-name="afii10068" unicode="&#x433;" horiz-adv-x="909" 
d="M901 635h-239l-31 156h-103v-533l123 -18v-240h-610v240l86 18v547l-86 29v239h860v-438z" />
    <glyph glyph-name="afii10069" unicode="&#x434;" horiz-adv-x="1175" 
d="M240 815l-117 29v229h924v-790h120v-453h-301l-30 170h-496l-31 -170h-301v453h98q46 61 81 168t42 219zM543 637q-11 -103 -33 -200q-22 -95 -53 -154h188v508h-90z" />
    <glyph glyph-name="afii10070" unicode="&#x435;" horiz-adv-x="1030" 
d="M457 412q5 -50 14 -73q11 -27 29 -44q19 -17 48 -23q30 -6 73 -6q60 0 137 16q75 16 129 37l90 -231q-62 -40 -163 -78q-98 -37 -239 -37q-277 0 -406 135q-128 134 -128 435q0 151 38 257q38 107 103 172q68 68 156 97q93 31 192 31q122 0 211 -33q90 -33 144 -104
q55 -71 82 -190q26 -114 26 -286v-75h-536zM621 637q0 63 -1 90q-1 38 -10 72q-7 30 -23 47q-15 16 -44 16q-27 0 -44 -10q-18 -10 -27 -36q-8 -23 -13 -70q-5 -44 -6 -109h168z" />
    <glyph glyph-name="afii10072" unicode="&#x436;" horiz-adv-x="1665" 
d="M1102 0h-533v240l86 18v539l-86 28v248h447v-815l86 -18v-240zM1112 817v256h524v-239l-92 -17l-158 -221l183 -336l80 -20v-240h-381l-248 506l156 299zM383 1073l266 -549l-252 -524h-381v240l80 20l174 328l-149 229l-92 17v239h354z" />
    <glyph glyph-name="afii10073" unicode="&#x437;" horiz-adv-x="907" 
d="M264 432v197h115q60 0 84 35q24 34 24 81q0 20 -4 39q-5 23 -15 38q-12 17 -32 29q-19 11 -55 11q-9 0 -17 -1l-24 -3q-8 -1 -24 -5q-11 -3 -13 -5l-51 -170h-199v350q63 30 161 51t224 21q80 0 162 -16q73 -14 132 -50q57 -34 88 -94q32 -61 32 -145q0 -67 -38 -129
t-103 -86q81 -22 124 -74q42 -51 42 -160q0 -86 -27 -155q-26 -68 -84 -116q-57 -48 -149 -75q-91 -27 -222 -27q-117 0 -220 33q-102 32 -163 86l68 227q20 -11 55 -25q29 -12 70 -25q31 -10 75 -17q38 -6 68 -6q80 0 114 25t34 75q0 51 -38 69q-35 17 -110 17h-84z" />
    <glyph glyph-name="afii10074" unicode="&#x438;" horiz-adv-x="1187" 
d="M106 0v805l-86 29v239h488v-297l-21 -211h15l90 213l162 295h329l-2 -805l86 -28v-240h-487v299l20 190h-12l-80 -184l-174 -305h-328z" />
    <glyph glyph-name="afii10075" unicode="&#x439;" horiz-adv-x="1187" 
d="M614 1159q-87 0 -159 28q-70 27 -117 76q-49 51 -72 112q-25 66 -26 136l270 39q7 -58 33 -105q24 -44 71 -44q60 0 81 40q22 42 32 109l262 -39q-5 -70 -28 -131q-23 -59 -72 -112q-45 -48 -116 -79q-69 -30 -159 -30zM106 0v805l-86 29v239h488v-297l-21 -211h15
l90 213l162 295h329l-2 -805l86 -28v-240h-487v299l20 190h-12l-80 -184l-174 -305h-328z" />
    <glyph glyph-name="afii10076" unicode="&#x43a;" horiz-adv-x="1177" 
d="M614 0h-573v240l86 18v559l-86 29v227h487v-815l86 -18v-240zM625 817v256h524v-260l-92 -16l-158 -201l182 -336l80 -20v-240h-381l-248 506l156 299z" />
    <glyph glyph-name="afii10077" unicode="&#x43b;" horiz-adv-x="1153" 
d="M225 815l-119 29v229h941v-805l86 -28v-240h-488v791h-90l-14 -211q-12 -169 -34 -291q-22 -118 -58 -185q-38 -70 -95 -97t-143 -27q-42 0 -79 4q-43 5 -89 12l-33 309h25q44 0 71 10q31 11 48 40q16 27 29 83q13 55 20 140z" />
    <glyph glyph-name="afii10078" unicode="&#x43c;" horiz-adv-x="1480" 
d="M438 0h-397v240l111 32v529l-111 33v239h604l35 -133q1 -3 17 -71q7 -31 15 -60q3 -11 8 -32.5t6 -27.5q7 -29 15 -71h11l30 143q10 49 29 117l39 135h590v-239l-111 -33v-529l111 -32v-240h-512l-2 352q0 70 1 99q1 36 3 80q1 12 2.5 37t1.5 38q1 36 6 80h-8
q-15 -82 -36 -162q-6 -23 -21.5 -81t-24.5 -91l-55 -157h-220l-61 159q-48 167 -50 174q-22 80 -32 156h-10q3 -23 7 -75q4 -48 5 -73q1 -35 3 -83q1 -30 1 -103v-350z" />
    <glyph glyph-name="afii10079" unicode="&#x43d;" horiz-adv-x="1228" 
d="M635 1073h553v-239l-86 -19v-547l86 -28v-240h-488v393h-172v-135l66 -18v-240h-553v240l86 18v547l-86 29v239h487v-397h172v139l-65 19v239z" />
    <glyph glyph-name="afii10080" unicode="&#x43e;" horiz-adv-x="1064" 
d="M457 537q0 -103 3 -167q3 -69 10 -100q8 -35 23 -47t39 -12q25 0 40 12t23 47q7 31 10 100q3 64 3 167q0 102 -3 165q-3 67 -10 100q-7 36 -23 48q-15 12 -40 12q-24 0 -39 -12q-16 -12 -23 -48q-7 -33 -10 -100q-3 -63 -3 -165zM41 537q0 296 124 429q125 134 367 134
q243 0 368 -134q124 -133 124 -429t-124 -429q-126 -135 -368 -135q-241 0 -367 135q-124 133 -124 429z" />
    <glyph glyph-name="afii10081" unicode="&#x43f;" horiz-adv-x="1218" 
d="M594 0h-553v240l86 18v557l-86 29v229h1137v-239l-86 -19v-547l86 -28v-240h-488v791h-162v-533l66 -18v-240z" />
    <glyph glyph-name="afii10082" unicode="&#x440;" horiz-adv-x="1124" 
d="M608 -147v-240h-573v240l86 18v913l-86 29v260h420l28 -112q44 47 121 94q74 45 160 45q79 0 141 -28q59 -26 100 -92q39 -62 59 -170q19 -102 19 -261q0 -175 -22 -284q-23 -112 -66 -176q-44 -65 -105 -90q-64 -26 -142 -26q-79 0 -131 24t-95 64v-190zM584 256
q27 0 44 13q18 13 25 47q9 43 12 92q3 57 3 143q0 81 -3 130q-3 46 -13 80q-9 29 -24 40q-14 10 -38 10q-40 0 -68 -23v-512q17 -20 62 -20z" />
    <glyph glyph-name="afii10083" unicode="&#x441;" horiz-adv-x="884" 
d="M545 862q-25 0 -42 -11q-19 -12 -30 -45q-13 -36 -17 -94q-5 -67 -5 -159q0 -85 6 -142q6 -60 23 -92q18 -34 46 -49q27 -14 74 -14q44 0 91 10q52 11 95 37l88 -211q-52 -49 -139 -84t-196 -35q-255 0 -377 139q-121 137 -121 433q0 287 131 421t371 134q110 0 179 -21
t132 -51v-309h-240l-30 129q-14 14 -39 14z" />
    <glyph glyph-name="afii10084" unicode="&#x442;" horiz-adv-x="1044" 
d="M240 635h-220v438h1004v-438h-219l-31 156h-51v-533l90 -18v-240h-577v240l86 18v533h-52z" />
    <glyph glyph-name="afii10085" unicode="&#x443;" horiz-adv-x="1046" 
d="M305 0l-225 811l-72 23v239h418l102 -479q3 -14 8 -38t7 -32q4 -20 10 -62q4 -31 6 -70q2 -38 6 -89h2q3 29 13 89q7 47 13 71q2 7 6.5 29t7.5 34q12 48 16 68l49 217l-84 23v239h450v-239l-71 -23l-238 -809q-33 -110 -74 -190q-39 -77 -98 -124q-60 -48 -148 -72
t-223 -36l-92 273q181 17 262 55q83 39 101 92h-152z" />
    <glyph glyph-name="afii10086" unicode="&#x444;" horiz-adv-x="1529" 
d="M575 104q-43 -46 -100 -85q-51 -35 -123 -35q-82 0 -141 25q-58 25 -99 88t-60 167q-19 102 -19 260q0 175 22 282q23 110 66 173q44 64 105 87q63 24 143 24q65 0 114 -24q46 -22 92 -65v236l-86 29v239h467v-536q42 45 99 85q51 36 123 36q80 0 141 -26q58 -25 99 -88
t60 -167q19 -102 19 -260q0 -175 -22 -282q-23 -110 -66 -173q-44 -64 -105 -87q-60 -23 -143 -23q-53 0 -106 23q-54 24 -99 65v-201l86 -18v-240h-553v240l86 18v233zM1018 266q24 0 37 13q12 12 18 44q5 28 7 87q1 37 1 141q0 96 -1 129q-2 52 -7 76q-6 28 -17 36
q-12 9 -32 9q-40 0 -68 -23v-491q18 -21 62 -21zM512 807q-25 0 -37 -12t-18 -44q-5 -28 -7 -87q-1 -37 -1 -142q0 -96 1 -129q2 -52 7 -76q6 -27 17 -35q13 -10 32 -10q39 0 67 23v491q-18 21 -61 21z" />
    <glyph glyph-name="afii10087" unicode="&#x445;" horiz-adv-x="1124" 
d="M475 231v-231h-444v240l73 14l213 291l-157 268l-105 21v239h432l172 -362h5l61 102l-53 18v242h420v-239l-76 -19l-215 -293l190 -270l103 -12v-240h-420l-205 342h-4l-43 -98z" />
    <glyph glyph-name="afii10088" unicode="&#x446;" horiz-adv-x="1222" 
d="M1214 283v-453h-301l-30 170h-842v240l86 18v547l-86 29v239h487v-790h162v532l-65 19v239h553v-239l-86 -19v-532h122z" />
    <glyph glyph-name="afii10089" unicode="&#x447;" horiz-adv-x="1171" 
d="M575 834v239h555v-239l-86 -19v-557l86 -18v-240h-593v240l106 18v170q-53 -47 -111 -67q-60 -21 -137 -21q-63 0 -115 13q-55 14 -97 48q-40 33 -65 98q-24 63 -24 160v146l-86 29v239h488v-301q0 -77 15 -110t62 -33q42 0 68 22v164z" />
    <glyph glyph-name="afii10090" unicode="&#x448;" horiz-adv-x="1744" 
d="M41 240l86 18v547l-86 29v239h487v-790l144 -2v524l-66 29v239h467v-790h144v532l-66 19v239h553v-239l-86 -19v-557l86 -29v-229h-1663v240z" />
    <glyph glyph-name="afii10091" unicode="&#x449;" horiz-adv-x="1748" 
d="M41 0v240l86 18v547l-86 29v239h487v-790h144v522l-66 29v239h467v-790h144v532l-66 19v239h553v-239l-86 -19v-532h123v-453h-301l-31 170h-1368z" />
    <glyph glyph-name="afii10092" unicode="&#x44a;" horiz-adv-x="1292" 
d="M778 266q61 0 86 23t25 78q0 58 -29 79q-28 21 -78 21h-75v-201h71zM795 1073v-242l-86 -18v-108h145q229 0 330 -89q100 -88 100 -256q0 -87 -28 -157q-27 -67 -91 -113q-62 -44 -165 -67q-104 -23 -250 -23h-529v240l86 18v530h-41l-30 -151h-220v436h779z" />
    <glyph glyph-name="afii10093" unicode="&#x44b;" horiz-adv-x="1624" 
d="M528 705h105q230 0 330 -85t100 -253q0 -87 -28 -159q-26 -67 -91 -115q-60 -44 -165 -69q-102 -24 -251 -24h-487v240l86 18v557l-86 19v239h573v-239l-86 -19v-110zM557 266q61 0 86 23t25 78q0 58 -29 79t-78 21h-35v-201h31zM1030 1073h553v-239l-86 -19v-555l86 -24
v-236h-487v815l-66 19v239z" />
    </font>
</defs>
</svg>
