<?xml version="1.0" standalone="no"?>
<!DOCTYPE svg PUBLIC "-//W3C//DTD SVG 1.1//EN" "http://www.w3.org/Graphics/SVG/1.1/DTD/svg11.dtd" >
<svg xmlns="http://www.w3.org/2000/svg" xmlns:xlink="http://www.w3.org/1999/xlink" version="1.1">
<metadata>
Created by FontForge 20170731 at Fri Sep 18 17:18:52 2020
 By Aleksey,,,
2010 Erik Spiekermann, Christian Schwartz, Kris Sowersby published by FSI FontShop International GmbH
</metadata>
<defs>
<font id="FFUnitSlabPro-ThinItalic" horiz-adv-x="1126" >
  <font-face 
    font-family="FF Unit Slab Pro Thin"
    font-weight="100"
    font-style="italic"
    font-stretch="normal"
    units-per-em="2048"
    panose-1="2 1 4 4 3 1 1 1 1 2"
    ascent="1638"
    descent="-410"
    x-height="940"
    cap-height="1403"
    bbox="-784 -473 2429 1956"
    underline-thickness="61"
    underline-position="-214"
    slope="-12"
    unicode-range="U+0020-FB04"
  />
<missing-glyph horiz-adv-x="972" 
d="M68 1403h837v-1403h-837v1403zM840 66v1271h-707v-1271h707z" />
    <glyph glyph-name="uniFB00" unicode="ff" horiz-adv-x="933" 
d="M791 1251q22 116 89 166q65 49 146 49q54 0 88 -11q38 -12 66 -30l-19 -47q-33 18 -60 25q-32 8 -73 8q-58 0 -102 -38t-62 -132l-57 -301h194l-12 -55h-192l-174 -901q-16 -82 -35 -148q-18 -63 -45 -111q-26 -46 -65 -85t-93 -68l-23 37q37 23 65 55q28 31 49 76
q21 46 39 109q17 62 36 157l170 879h-402l-178 -922q-15 -78 -35 -147q-19 -65 -45 -112q-27 -48 -64 -85q-39 -39 -93 -68l-23 37q34 22 65 56q29 32 49 75q21 44 39 110q17 62 36 157l174 899h-125l12 55h123l55 291q22 116 89 166q65 49 147 49q54 0 88 -11
q35 -11 65 -30l-18 -47q-30 16 -60 24q-36 9 -73 9q-59 0 -103 -38q-43 -37 -61 -132l-53 -281h401z" />
    <glyph glyph-name="fi" unicode="fi" horiz-adv-x="890" 
d="M725 885h-406l-178 -922q-15 -78 -35 -147q-19 -65 -45 -112q-27 -48 -64 -85q-39 -39 -93 -68l-23 37q34 22 65 56q29 32 49 75q21 44 39 110q17 62 36 157l174 899h-125l12 55h123l47 246q28 149 114 215q84 65 203 65q64 0 114 -18t81 -43l-27 -47q-33 20 -69 35
q-38 16 -99 16q-85 0 -152 -50t-91 -181l-45 -238h483l-168 -786q-2 -10 -5.5 -26.5t-4.5 -23.5q-4 -19 -4 -30q0 -21 22 -21h115v-33q-87 -34 -141 -34q-36 0 -56 14t-20 47q0 13 2 29q1 11 6 28z" />
    <glyph glyph-name="fl" unicode="fl" horiz-adv-x="899" 
d="M823 1360q-53 22 -99 36q-45 13 -106 13q-85 0 -152 -50t-91 -181l-45 -238h194l-12 -55h-193l-178 -922q-15 -78 -35 -147q-19 -65 -45 -112q-27 -48 -64 -85q-39 -39 -93 -68l-23 37q34 22 65 56q29 32 49 75q21 44 39 110q17 62 36 157l174 899h-125l12 55h123l47 246
q28 148 113 215q83 65 204 65q70 0 130 -22q62 -22 90 -39l41 45h41l-275 -1296q-2 -10 -5.5 -26.5t-4.5 -23.5q-4 -19 -4 -30q0 -21 22 -21h115v-33q-87 -34 -141 -34q-36 0 -56 14t-20 47q0 13 2 29q1 11 6 28z" />
    <glyph glyph-name="uniFB03" unicode="ffi" horiz-adv-x="1368" 
d="M680 1358q-30 16 -60 24q-36 9 -73 9q-59 0 -103 -38q-43 -37 -61 -132l-53 -281h401l47 246q28 149 114 215q84 65 204 65q64 0 113 -18q50 -18 81 -43l-26 -47q-30 18 -70 35q-38 16 -98 16q-86 0 -153 -50t-91 -181l-45 -238h483l-168 -786q-2 -10 -5.5 -26.5
t-4.5 -23.5q-4 -19 -4 -30q0 -21 22 -21h115v-33q-87 -34 -141 -34q-35 0 -55 14q-21 15 -21 47q0 13 2 29q1 11 6 28l166 781h-405l-174 -901q-16 -82 -35 -148q-18 -63 -45 -111q-26 -46 -65 -85t-93 -68l-23 37q37 23 65 55q28 31 49 76q21 46 39 109q17 62 36 157
l170 879h-402l-178 -922q-15 -78 -35 -147q-19 -65 -45 -112q-27 -48 -64 -85q-39 -39 -93 -68l-23 37q34 22 65 56q29 32 49 75q21 44 39 110q17 62 36 157l174 899h-125l12 55h123l55 291q22 116 89 166q65 49 147 49q54 0 88 -11q35 -11 65 -30z" />
    <glyph glyph-name="uniFB04" unicode="ffl" horiz-adv-x="1376" 
d="M254 940l55 291q22 116 89 166q65 49 147 49q54 0 88 -11q35 -11 65 -30l-16 -43q-30 16 -60 24q-36 9 -73 9q-61 0 -104 -40q-44 -41 -62 -134l-53 -281h401l47 246q28 148 113 215q83 65 205 65q69 0 129 -22q61 -22 90 -39l41 45h41l-275 -1296q-2 -10 -5.5 -26.5
t-4.5 -23.5q-4 -19 -4 -30q0 -21 22 -21h115v-33q-87 -34 -141 -34q-35 0 -55 14q-21 15 -21 47q0 13 2 29q1 11 6 28l264 1256q-52 22 -99 36q-45 13 -105 13q-86 0 -153 -50t-91 -181l-45 -238h194l-12 -55h-192l-174 -901q-16 -82 -35 -148q-18 -63 -45 -111
q-26 -46 -65 -85t-93 -68l-23 37q37 23 65 55q28 31 49 76q21 46 39 109q17 62 36 157l170 879h-402l-178 -922q-15 -78 -35 -147q-19 -65 -45 -112q-27 -48 -64 -85q-39 -39 -93 -68l-23 37q34 22 65 56q29 32 49 75q21 44 39 110q17 62 36 157l174 899h-125l12 55h123z
" />
    <glyph glyph-name=".notdef" horiz-adv-x="972" 
d="M68 1403h837v-1403h-837v1403zM840 66v1271h-707v-1271h707z" />
    <glyph glyph-name=".null" horiz-adv-x="0" 
 />
    <glyph glyph-name="nonmarkingreturn" horiz-adv-x="368" 
 />
    <glyph glyph-name="space" unicode=" " horiz-adv-x="368" 
 />
    <glyph glyph-name="exclam" unicode="!" horiz-adv-x="491" 
d="M403 1403h89l-254 -1061h-56zM160 -12q-34 0 -57 22t-23 58q0 35 23 57t57 22q33 0 56 -22q24 -23 24 -57q0 -36 -24 -58q-23 -22 -56 -22z" />
    <glyph glyph-name="quotedbl" unicode="&#x22;" horiz-adv-x="632" 
d="M385 1454h76l-105 -469h-63zM594 1454h76l-105 -469h-63z" />
    <glyph glyph-name="numbersign" unicode="#" 
d="M690 451h-307l-119 -451h-71l120 451h-209l15 67h213l104 395h-233l14 68h238l112 422h72l-113 -422h305l113 422h72l-113 -422h193l-15 -68h-196l-107 -395h219l-14 -67h-223l-119 -451h-72zM401 518h308l104 395h-305z" />
    <glyph glyph-name="dollar" unicode="$" 
d="M133 307h53v-176q41 -35 97 -56q59 -22 135 -28l145 676q-104 69 -167 148q-64 80 -64 200q0 82 26 144q27 65 75 110t116 69q65 23 149 23h11l45 205h69l-45 -209q74 -10 138 -33q65 -23 104 -55l-37 -215h-49v199q-82 37 -168 45l-125 -592q116 -78 180 -166
q64 -87 64 -209q0 -76 -23 -150t-71 -128q-50 -56 -127 -90q-75 -33 -189 -33l-43 -205h-70l44 209q-99 7 -176 43q-72 33 -124 88zM807 365q0 110 -47 181q-45 69 -137 136l-136 -637q82 1 143 29q60 27 100 70q39 42 58 102t19 119zM406 1087q0 -95 45 -160
q44 -64 129 -124l116 555h-2q-126 0 -208 -71q-80 -70 -80 -200z" />
    <glyph glyph-name="percent" unicode="%" horiz-adv-x="1570" 
d="M428 664q48 0 76 14q32 16 59 43q26 24 48 62q23 41 37 83q18 53 24 93q8 51 8 94q0 100 -40 155q-41 56 -134 56q-46 0 -76 -15q-32 -16 -59 -43q-27 -24 -48 -63q-23 -43 -37 -83q-18 -51 -24 -92q-8 -51 -8 -94q0 -100 40 -155t134 -55zM428 610q-126 0 -191 75
q-65 76 -65 200q0 53 10 103q11 55 31 102q21 50 48 90q26 39 63 71q37 33 80 49q45 17 102 17q126 0 191 -75q65 -76 65 -200q0 -53 -10 -103q-11 -53 -31 -101q-21 -50 -48 -90q-27 -41 -63 -72q-37 -32 -81 -49q-45 -17 -101 -17zM340 0h-82l1032 1300h82zM1202 637
q-48 0 -76 -14q-32 -16 -59 -43q-26 -23 -48 -64q-23 -43 -37 -83q-18 -51 -24 -92q-8 -51 -8 -93q0 -101 40 -156t134 -55q48 0 76 14q34 17 60 43q25 23 48 63q23 41 37 83q16 48 23 93q8 51 8 93q0 101 -40 156t-134 55zM1202 690q128 0 192 -75q64 -74 64 -199
q0 -54 -10 -104q-11 -53 -31 -101q-21 -49 -48 -90q-29 -43 -62 -72q-37 -32 -81 -49q-42 -16 -102 -16q-127 0 -191 74q-65 76 -65 200q0 48 11 103q12 59 30 102q21 49 48 90t63 72q37 32 81 49q42 16 101 16z" />
    <glyph glyph-name="ampersand" unicode="&#x26;" horiz-adv-x="1280" 
d="M451 47q108 0 198 57q88 56 162 150l-305 508q-74 -33 -142 -77q-66 -43 -111 -94q-46 -51 -73 -117q-26 -62 -26 -144q0 -60 16 -109q17 -52 52 -90q36 -39 92 -61q58 -23 137 -23zM446 1114q0 -63 23 -121q24 -60 63 -127l13 -22q150 62 229 134q78 70 78 187
q0 85 -45 138t-131 53q-110 0 -170 -71t-60 -171zM1090 684q-28 -98 -79 -216q-46 -107 -118 -210l121 -199l157 -10l-10 -49h-198l-117 195q-80 -94 -177 -151q-98 -58 -223 -58q-98 0 -168 27q-69 26 -117 76q-47 49 -68 110t-21 129q0 89 31 161q31 73 86 134
q52 58 128 106q72 46 158 84q-53 93 -80 164q-26 69 -26 137q0 62 21 117q20 54 62 97t96 66q55 23 126 23q117 0 187 -67q71 -68 71 -185q0 -63 -25 -118q-26 -57 -70 -98q-48 -45 -113 -82q-55 -31 -149 -74l283 -474q54 84 97 184q40 93 63 181l-146 10l11 54h366
l-10 -54z" />
    <glyph glyph-name="quotesingle" unicode="'" horiz-adv-x="423" 
d="M385 1454h76l-105 -469h-63z" />
    <glyph glyph-name="parenleft" unicode="(" horiz-adv-x="612" 
d="M360 -305q-103 94 -159 229q-57 136 -58 336q0 89 13 209q12 107 41 240q43 194 96 337q50 136 121 243q69 104 152 168q91 70 190 114l20 -47q-95 -50 -171 -119q-73 -65 -134 -165q-59 -96 -106 -229q-48 -136 -86 -315q-29 -130 -42 -237q-14 -110 -14 -203
q0 -186 43 -306q44 -123 129 -214z" />
    <glyph glyph-name="parenright" unicode=")" horiz-adv-x="612" 
d="M324 1571q102 -93 159 -230q57 -136 58 -335q0 -89 -13 -209q-12 -107 -41 -240q-43 -194 -96 -337q-51 -138 -121 -244q-68 -103 -152 -169q-85 -67 -190 -112l-20 47q95 50 171 119q72 65 134 164q57 91 105 229q50 144 88 315q26 118 41 238q14 110 14 203
q0 186 -43 306q-44 123 -129 214z" />
    <glyph glyph-name="asterisk" unicode="*" horiz-adv-x="786" 
d="M225 1262l37 47l230 -158l92 266l55 -16l-74 -273l281 2l2 -57l-279 -16l82 -269l-55 -18l-100 262l-232 -160l-33 46l218 176z" />
    <glyph glyph-name="plus" unicode="+" 
d="M557 649h-319l14 66h319l78 364h78l-78 -364h320l-15 -66h-319l-78 -364h-78z" />
    <glyph glyph-name="comma" unicode="," horiz-adv-x="403" 
d="M20 -145q55 17 92 54t42 85q-39 0 -59 19q-21 19 -21 53t22 55q21 20 54 20q34 0 57 -24q22 -23 22 -72q0 -36 -11 -69q-12 -35 -36 -67q-25 -33 -64 -56q-43 -25 -98 -37v39z" />
    <glyph glyph-name="hyphen" unicode="-" horiz-adv-x="575" 
d="M127 582h336l-14 -70h-336z" />
    <glyph glyph-name="period" unicode="." horiz-adv-x="405" 
d="M152 -12q-34 0 -57 22t-23 58q0 35 23 57t57 22q33 0 56 -22t23 -57q0 -36 -23 -58t-56 -22z" />
    <glyph glyph-name="slash" unicode="/" horiz-adv-x="610" 
d="M696 1550h78l-842 -1845h-77z" />
    <glyph glyph-name="zero" unicode="0" 
d="M510 45q114 0 197 65t139 162q44 78 72 161q31 91 50 181q17 80 29 184q11 96 11 167q0 180 -79 286q-80 107 -220 107q-114 0 -197 -65q-82 -64 -139 -163q-45 -79 -72 -160q-29 -84 -51 -182q-21 -92 -30 -183q-9 -92 -9 -167q0 -180 79 -286q80 -107 220 -107z
M510 -14q-178 0 -279 122q-100 121 -100 330q0 89 10 179q10 93 32 192q21 97 54 188t78 168q69 114 167 183q99 69 237 69q177 0 278 -122q100 -121 100 -330q0 -90 -10 -180q-11 -100 -31 -191q-20 -90 -55 -188q-33 -92 -78 -168q-69 -114 -167 -183q-99 -69 -236 -69z
" />
    <glyph glyph-name="one" unicode="1" 
d="M129 45l338 21l262 1230l-338 -170l-22 43l397 234h65l-284 -1337l315 -21l-10 -45h-733z" />
    <glyph glyph-name="two" unicode="2" 
d="M815 0h-723l14 70q252 224 401 370q157 154 252 275q92 117 130 212q37 92 37 181q0 121 -63 181q-64 61 -179 61q-99 0 -175 -29q-75 -29 -144 -66l-27 50q65 39 159 76q91 36 195 36q143 0 229 -79q87 -80 87 -228q0 -99 -43 -200q-42 -100 -140 -223
q-98 -124 -252 -272q-170 -163 -383 -347h639z" />
    <glyph glyph-name="three" unicode="3" 
d="M451 -14q-133 0 -228 40q-99 42 -162 89l25 47q65 -42 153 -76q90 -35 212 -35q159 0 260 96q60 59 88 131q26 68 26 164q0 68 -21 119q-20 49 -59 85q-35 32 -87 51q-50 18 -107 18h-113l15 63h104q176 0 260 90q43 46 66 114q22 65 22 138q0 113 -66 173
q-67 61 -186 61q-79 0 -150 -24q-75 -26 -136 -56l-21 45q60 35 140 67q79 31 171 31q161 0 243 -85q83 -86 83 -216q0 -79 -24 -145q-24 -67 -65 -115q-42 -50 -98 -79q-56 -30 -122 -34q107 -21 171 -101t64 -206q0 -212 -143 -340q-122 -110 -315 -110z" />
    <glyph glyph-name="four" unicode="4" 
d="M115 395l661 1008h82l-668 -1016h564l131 621l84 18l-135 -639h161l-14 -63h-162l-67 -324h-80l67 324h-641z" />
    <glyph glyph-name="five" unicode="5" 
d="M1047 1335h-535l-137 -467q39 11 69 15q44 6 88 6q99 0 168 -30q71 -31 114 -80q46 -52 66 -116q21 -66 21 -143q0 -63 -11 -118q-13 -63 -34 -117q-23 -59 -57 -109q-33 -48 -82 -88q-63 -51 -142 -77q-76 -25 -161 -25q-123 0 -207 37q-91 40 -144 83l25 50
q66 -45 137 -76q78 -34 189 -33q73 0 143 28q65 26 119 75q34 33 61 76q23 37 44 95q18 49 27 101q9 51 9 98q0 140 -71 225q-71 84 -224 84q-64 0 -124 -10q-67 -11 -113 -26l176 610h602z" />
    <glyph glyph-name="six" unicode="6" 
d="M535 -14q-87 0 -154 29q-71 31 -121 87q-51 57 -80 141q-28 81 -28 189q0 114 31 234q31 119 87 230q55 108 128 201q70 89 157 148q209 142 487 166v-53q-137 -15 -248 -60q-116 -47 -204 -112q-48 -36 -95 -88q-42 -46 -86 -113q-40 -60 -73 -130q-34 -70 -57 -142
q35 29 63 47q40 26 81 44q42 19 94 33q48 13 104 13q69 0 135 -25q63 -24 110 -71q48 -48 75 -120q28 -75 28 -167q0 -108 -32 -198q-31 -88 -89 -152q-57 -63 -137 -98q-76 -33 -176 -33zM610 784q-98 0 -188 -42t-162 -93q-13 -57 -20 -110q-9 -68 -9 -109q0 -187 82 -285
t230 -98q79 0 144 33q66 34 109 90q44 58 68 134q25 80 25 165q0 157 -75 237q-74 78 -204 78z" />
    <glyph glyph-name="seven" unicode="7" 
d="M252 -10q67 230 157 438q89 206 187 368q101 168 212 301q109 132 228 238h-676l-61 -184h-53l53 252h817l-16 -74q-135 -130 -241 -265q-117 -149 -208 -305q-94 -162 -175 -357q-80 -192 -142 -418z" />
    <glyph glyph-name="eight" unicode="8" 
d="M553 -14q-91 0 -168 24q-73 23 -130 69q-55 44 -83 106q-29 64 -29 141q0 92 30 161q31 71 82 122q53 53 126 90q79 40 160 63q-103 68 -149 142t-46 163q0 72 28 137q27 62 78 112q50 48 121 75q69 26 158 26q83 0 146 -24q60 -23 106 -67q45 -43 65 -97q21 -55 21 -115
q0 -123 -82 -223q-84 -102 -264 -158q145 -78 205 -169q59 -90 59 -185q0 -83 -31 -157q-30 -73 -87 -125t-137 -82q-78 -29 -179 -29zM594 731q-170 -56 -270 -154q-101 -99 -101 -253q0 -127 91 -203t239 -76q80 0 147 26t111 70t69 106q23 57 23 132q0 85 -49 158
t-156 133zM426 1069q0 -76 41 -143q40 -65 139 -125l62 -37q182 63 252 154q69 90 69 198q0 104 -67 172q-68 70 -191 70q-68 0 -126 -23q-55 -22 -96 -61q-42 -40 -62 -91q-21 -53 -21 -114z" />
    <glyph glyph-name="nine" unicode="9" 
d="M676 1417q83 0 151 -28q72 -30 120 -85q51 -59 79 -141q29 -85 29 -192t-25 -216q-25 -107 -67 -204q-62 -138 -145 -240q-81 -99 -181 -163q-99 -64 -220 -100q-113 -34 -261 -56v55q126 18 238 56q105 36 201 102q90 62 163 153q71 89 127 213q7 15 19 45q16 40 18 46
q-27 -20 -65 -42q-37 -22 -79 -39q-39 -16 -92 -29q-45 -11 -100 -11q-72 0 -136 24q-65 24 -112 74q-49 52 -75 121q-27 72 -27 168q0 107 32 193q34 92 91 156q57 65 140 103q80 37 177 37zM596 606q96 0 185 36q94 38 159 85q18 64 26 123q9 63 9 123q0 185 -81 284
t-222 99q-85 0 -151 -36q-65 -36 -112 -96q-45 -58 -70 -139q-24 -78 -24 -159q0 -159 76 -239q77 -81 205 -81z" />
    <glyph glyph-name="colon" unicode=":" horiz-adv-x="405" 
d="M246 543q-34 0 -56 21t-22 57q0 35 22 56q23 21 56 21q32 0 55 -21t23 -56q0 -36 -23 -57t-55 -21zM129 -10q-33 0 -55 21q-23 21 -23 57q0 35 23 56q22 21 55 21t55 -21q23 -21 23 -56q0 -36 -23 -57q-22 -21 -55 -21z" />
    <glyph glyph-name="semicolon" unicode=";" horiz-adv-x="411" 
d="M246 543q-34 0 -56 21t-22 57q0 35 22 56q23 21 56 21q32 0 55 -21t23 -56q0 -36 -23 -57t-55 -21zM0 -145q54 17 91 54t42 85q-38 0 -58 19q-22 20 -22 53q0 34 23 55q21 20 53 20q35 0 57 -24q23 -25 23 -72q0 -36 -11 -69q-12 -35 -36 -67t-65 -56q-43 -26 -97 -37v39
z" />
    <glyph glyph-name="less" unicode="&#x3c;" 
d="M348 692l4 19l465 381l41 -54l-424 -348l266 -371l-57 -40z" />
    <glyph glyph-name="equal" unicode="=" 
d="M207 563h741l-14 -65h-741zM272 872h742l-15 -65h-741z" />
    <glyph glyph-name="greater" unicode="&#x3e;" 
d="M348 332l424 348l-266 371l57 41l295 -414l-4 -19l-465 -380z" />
    <glyph glyph-name="question" unicode="?" horiz-adv-x="847" 
d="M371 547q15 69 37 111q23 45 50 76t58 53q20 14 66 44q37 23 84 56q40 27 67 62q29 36 45 84q17 49 17 120q0 95 -59 149q-58 54 -161 54q-65 0 -111 -10q-48 -10 -93 -27l-56 -166h-53l39 199q52 30 127 48q69 17 152 17q63 0 115 -16q57 -17 95 -50q40 -34 62 -83
q22 -48 22 -115q0 -82 -20 -136q-22 -58 -54 -98q-36 -44 -79 -74q-70 -49 -94 -65q-51 -33 -76 -51q-33 -25 -52 -49q-22 -28 -36 -59q-15 -33 -27 -84l-43 -195h-67zM311 -12q-33 0 -56 22q-24 23 -24 58q0 34 24 57q23 22 56 22q34 0 57 -22t23 -57q0 -36 -23 -58
t-57 -22z" />
    <glyph glyph-name="at" unicode="@" horiz-adv-x="1581" 
d="M651 74q45 0 86 15q42 15 77 39q44 29 67 50q22 20 57 49l117 521q-45 49 -94 88q-48 38 -127 38q-77 0 -132 -39q-57 -41 -98 -110q-29 -46 -50 -98t-36 -110q-14 -55 -22 -111q-9 -67 -9 -105q0 -108 45 -168q44 -59 119 -59zM940 174q-54 -57 -131 -107
q-75 -49 -166 -49q-98 0 -165 70q-66 69 -66 213q0 126 35 244q35 120 96 215q55 88 129 129t159 41q45 0 81 -12t65 -32q30 -20 50 -42q39 -41 40 -43l53 114h45l-135 -604q-3 -16 -10 -59q-4 -25 -4 -51q0 -68 23 -107q24 -41 96 -41q63 0 113 41q49 40 86 112
q37 73 55 167q18 96 18 205q0 137 -28 255q-27 112 -92 193t-172 122q-108 42 -265 42q-165 0 -290 -71q-123 -70 -206 -189q-82 -118 -123 -275q-41 -158 -41 -327q0 -267 131 -415q130 -146 402 -146q115 0 187 12q77 13 128 28l19 -49q-66 -21 -141 -36t-193 -15
q-307 0 -457 159q-149 158 -149 464q0 188 48 355t140 292q93 126 229 198t314 72t299 -48q120 -47 195 -136q76 -90 107 -212q32 -126 32 -273q0 -122 -24 -228q-24 -108 -68 -185q-44 -78 -111 -125q-65 -46 -148 -46q-96 0 -140 45q-44 46 -50 135z" />
    <glyph glyph-name="A" unicode="A" horiz-adv-x="1134" 
d="M825 492h-487l-221 -422l125 -21l-11 -49h-344l11 49l137 19l706 1335h74l131 -1335l117 -19l-10 -49h-342l10 49l147 19zM369 551h450l-51 520q-8 72 -9 144q-1 56 1 112h-2q-22 -58 -47 -113q-31 -69 -68 -143z" />
    <glyph glyph-name="B" unicode="B" horiz-adv-x="1069" 
d="M483 57q108 0 187 31q73 29 125 82q50 51 73 126q23 74 23 157q0 113 -67 183q-66 69 -212 69h-266l-135 -648h272zM612 762q90 0 149 22q61 23 101 66q42 42 64 113q22 70 22 143q0 103 -62 171q-63 69 -196 69h-211l-121 -584h254zM694 1403q89 0 152 -24
q66 -25 104 -63q43 -43 60 -93q18 -53 18 -113q0 -67 -17 -125q-19 -64 -52 -113q-34 -51 -85 -88q-48 -35 -120 -51q91 -23 153 -94q64 -73 64 -190q0 -105 -36 -193t-101 -147q-66 -60 -159 -84q-97 -25 -212 -25h-494l11 49l149 10l272 1280l-145 11l10 53h428z" />
    <glyph glyph-name="C" unicode="C" horiz-adv-x="1032" 
d="M539 45q77 0 138 17q68 19 114 44l79 203h52l-52 -227q-58 -40 -141 -68t-192 -28q-215 0 -314 117q-100 118 -100 321q0 86 15 200q15 115 49 230q35 118 85 223q51 106 123 178q162 162 369 162q191 0 309 -92l-37 -219h-49v205q-46 27 -100 39q-53 12 -129 12
q-110 0 -199 -55t-156 -152q-45 -64 -82 -153q-36 -88 -63 -184q-26 -94 -40 -200q-13 -98 -13 -196q0 -179 80 -279q79 -98 254 -98z" />
    <glyph glyph-name="D" unicode="D" horiz-adv-x="1150" 
d="M483 1346l-272 -1287h211q122 0 215 31q89 30 156 92q56 50 102 144q45 92 78 201q31 101 50 223q17 106 17 208q0 186 -87 287t-298 101h-172zM-31 0l11 49l149 10l272 1280l-145 11l10 53h395q240 0 350 -113q109 -112 109 -334q0 -108 -19 -226q-19 -117 -56 -238
q-37 -119 -88 -216q-52 -98 -119 -153q-77 -65 -181 -94t-237 -29h-451z" />
    <glyph glyph-name="E" unicode="E" horiz-adv-x="980" 
d="M774 565h-51l14 152h-387l-139 -658h537l61 193h55l-53 -252h-842l11 49l149 10l272 1280l-145 11l10 53h797l-33 -252h-51v195h-496l-121 -572h388l51 152h51z" />
    <glyph glyph-name="F" unicode="F" horiz-adv-x="972" 
d="M397 49l-10 -49h-418l11 49l149 10l272 1280l-145 11l10 53h819l-32 -252h-52v195h-518l-121 -572h388l51 152h51l-78 -361h-51l14 152h-387l-139 -658z" />
    <glyph glyph-name="G" unicode="G" horiz-adv-x="1120" 
d="M123 424q0 90 16 201q17 121 50 231q36 121 86 223q52 107 124 178q160 160 371 160q101 0 174 -20q74 -20 135 -72l-37 -219h-49v205q-46 27 -100 39q-53 12 -129 12q-110 0 -199 -55q-88 -54 -155 -152q-46 -66 -84 -153q-39 -91 -65 -184q-27 -97 -42 -200
q-14 -95 -14 -196q0 -179 74 -279q73 -98 233 -98q86 0 164 33q79 34 141 82l92 426l-258 20l8 47h345l-140 -653h-47l-2 98q-69 -49 -143 -80q-76 -32 -162 -32q-199 0 -292 117q-95 119 -95 321z" />
    <glyph glyph-name="H" unicode="H" horiz-adv-x="1261" 
d="M731 49l150 10l141 664h-670l-141 -664l145 -10l-10 -49h-377l11 49l149 10l272 1280l-145 11l10 53h377l-10 -53l-150 -11l-121 -559h670l121 559l-145 11l10 53h377l-11 -53l-149 -11l-272 -1280l145 -10l-10 -49h-377z" />
    <glyph glyph-name="I" unicode="I" horiz-adv-x="509" 
d="M-20 49l149 10l272 1280l-145 11l10 53h377l-10 -53l-150 -11l-272 -1280l145 -10l-10 -49h-377z" />
    <glyph glyph-name="J" unicode="J" horiz-adv-x="473" 
d="M205 117q-17 -87 -41 -150q-21 -56 -59 -99q-37 -41 -90 -68q-58 -29 -136 -56l-14 49q63 29 105 54q40 24 72 61q30 34 48 84q19 53 35 127l260 1220l-145 11l10 53h377l-11 -53l-149 -11z" />
    <glyph glyph-name="K" unicode="K" horiz-adv-x="1064" 
d="M956 0h-194l-356 758l589 581l-139 11l10 53h353l-11 -53l-125 -11l-591 -583l329 -697l146 -10zM-20 49l149 10l272 1280l-145 11l10 53h377l-10 -53l-150 -11l-272 -1280l145 -10l-10 -49h-377z" />
    <glyph glyph-name="L" unicode="L" horiz-adv-x="962" 
d="M211 59h537l67 222h55l-59 -281h-842l11 49l149 10l272 1280l-145 11l10 53h377l-10 -53l-150 -11z" />
    <glyph glyph-name="M" unicode="M" horiz-adv-x="1415" 
d="M676 344q8 24 13 35q10 23 19 39q2 4 12 23t17 32q4 7 47 82l504 848h260l-10 -53l-149 -11l-273 -1280l146 -10l-11 -49h-377l11 49l149 10l209 988q9 45 23 104q4 17 10 44t7 32q11 47 14 59q10 36 14 55h-2q-11 -25 -24 -52q-7 -14 -27 -52q-23 -44 -37 -68
q-6 -11 -25.5 -43.5t-32.5 -54.5l-473 -790h-69l-123 790q-8 55 -23 136q-9 51 -14 134h-2q-3 -22 -8.5 -55l-6.5 -39q-6 -36 -12 -70l-12 -63q-2 -9 -6.5 -31.5t-7.5 -35.5l-209 -988l145 -10l-10 -49h-363l11 49l149 10l272 1280l-145 11l10 53h258l133 -848
q11 -60 15 -118q4 -50 2 -93h2z" />
    <glyph glyph-name="N" unicode="N" horiz-adv-x="1220" 
d="M995 1350l11 53h358l-10 -53l-150 -11l-284 -1339h-80l-312 1040q-28 92 -45 171q-15 74 -22 132h-2q-13 -83 -25 -147q-21 -109 -41 -201l-196 -936l145 -10l-10 -49h-363l11 49l149 10l272 1280l-145 11l10 53h238l315 -1059q10 -36 23 -80q4 -14 17 -65q7 -29 12 -61
q1 -10 4.5 -30t5.5 -30h2q5 34 9 66q2 15 11 66q9 54 13 72q8 38 18 87l207 970z" />
    <glyph glyph-name="O" unicode="O" horiz-adv-x="1185" 
d="M518 45q113 0 200 54q86 54 156 161q44 67 82 168q38 99 63 204q24 100 40 207q14 95 14 177q0 167 -77 255q-76 87 -230 87q-113 0 -200 -54q-86 -54 -156 -161q-45 -69 -83 -169q-38 -101 -65 -205t-42 -208q-15 -102 -15 -178q0 -167 80 -253q79 -85 233 -85zM510 -14
q-193 0 -290 103t-97 302q0 95 17 201q18 116 49 226q30 108 79 219q47 107 107 180q82 105 180 152q99 48 219 48q192 0 287 -105q94 -104 94 -304q0 -93 -16 -201q-16 -104 -47 -224q-29 -109 -77 -218q-48 -107 -106 -179q-82 -105 -180 -152q-99 -48 -219 -48z" />
    <glyph glyph-name="P" unicode="P" horiz-adv-x="964" 
d="M573 659q87 0 147 24t107 65q30 29 53 67q22 38 40 89q16 47 24 100q8 54 8 100q0 116 -61 178q-62 64 -203 64h-203l-145 -687h233zM696 1403q173 0 256 -79q84 -80 84 -222q0 -62 -12 -123q-11 -57 -34 -116q-21 -54 -51 -99t-65 -74q-60 -46 -135 -67
q-77 -21 -164 -21h-249l-115 -543l186 -10l-10 -49h-418l11 49l149 10l272 1280l-145 11l10 53h430z" />
    <glyph glyph-name="Q" unicode="Q" horiz-adv-x="1185" 
d="M518 45q113 0 200 54q86 54 156 161q44 67 82 168q38 99 63 204q24 100 40 207q14 95 14 177q0 167 -77 255q-76 87 -230 87q-113 0 -200 -54q-86 -54 -156 -161q-45 -69 -83 -169q-38 -101 -65 -205t-42 -208q-15 -102 -15 -178q0 -167 80 -253q79 -85 233 -85z
M1155 1008q0 -93 -16 -201q-16 -104 -47 -224q-29 -109 -77 -218q-48 -107 -106 -179q-78 -99 -169 -145q-93 -47 -201 -53l405 -140l-24 -67l-547 219q-121 46 -186 139q-64 91 -64 252q0 95 17 201q18 116 49 226q30 108 79 219q47 107 107 180q82 105 180 152
q99 48 219 48q192 0 287 -105q94 -104 94 -304z" />
    <glyph glyph-name="R" unicode="R" horiz-adv-x="1091" 
d="M584 694q95 0 161 25t105 67q48 51 76 136q28 84 28 172q0 108 -63 180t-203 72h-205l-137 -652h238zM1061 49l-10 -49h-201l-80 430q-22 119 -76 164q-52 43 -155 43h-205l-123 -578l145 -10l-10 -49h-377l11 49l149 10l272 1280l-145 11l10 53h428q176 0 259 -83
t83 -224q0 -86 -21 -162q-20 -73 -64 -134t-104 -97q-63 -38 -145 -48v-4q48 -17 86 -58q40 -43 56 -136l71 -398z" />
    <glyph glyph-name="S" unicode="S" horiz-adv-x="923" 
d="M37 307h53v-176q50 -41 118 -63q71 -23 173 -23q85 0 148 27t103 70q38 41 59 103q20 60 20 120t-16 111q-15 49 -45 89q-31 42 -73 78q-35 30 -100 74q-62 40 -97 71q-48 41 -76 80q-33 45 -50 93q-18 50 -18 110q0 82 26 144q27 65 75 110t116 69q65 23 149 23
q104 0 185 -25q84 -26 137 -67l-37 -215h-49v199q-53 25 -116 38q-54 11 -124 11q-126 0 -208 -71q-81 -71 -81 -200q0 -103 56 -173q56 -69 155 -136q74 -51 114 -85q51 -43 84 -88q34 -45 52 -99q18 -53 18 -119q0 -80 -22 -150q-23 -73 -72 -128q-50 -56 -127 -90
q-75 -33 -188 -33q-129 0 -219 36t-150 99z" />
    <glyph glyph-name="T" unicode="T" horiz-adv-x="1132" 
d="M680 0h-418l10 49l170 10l273 1287h-363l-80 -277h-53l72 334h954l-71 -334h-54l39 277h-362l-273 -1287l166 -10z" />
    <glyph glyph-name="U" unicode="U" horiz-adv-x="1173" 
d="M471 1403l-213 -1000q-8 -43 -12 -74t-4 -63q0 -118 61 -167q62 -50 166 -50q63 0 122 17q58 17 103 40q44 23 86 55q47 36 68 56l242 1122l-146 11l10 53h230l-287 -1344l145 -10l-10 -49h-209l15 145q-70 -59 -168 -109q-97 -50 -215 -50q-132 0 -211 70
q-80 71 -80 218q0 28 4 61q4 37 12 75l197 929l-146 11l11 53h229z" />
    <glyph glyph-name="V" unicode="V" horiz-adv-x="1169" 
d="M997 1350l11 53h344l-11 -53l-124 -11l-699 -1339h-76l-120 1339l-117 11l10 53h342l-10 -53l-148 -11l90 -1007q8 -98 10 -139q3 -71 -1 -117h2q15 42 48 115q38 85 66 141l523 1007z" />
    <glyph glyph-name="W" unicode="W" horiz-adv-x="1685" 
d="M1028 1085q-2 114 -2 140q0 36 2 102h-2q-16 -48 -40 -105q-38 -91 -60 -137l-500 -1085h-102l-2 1339l-117 11l10 53h344l-10 -53l-148 -11l-2 -1017q0 -88 -1 -129q-2 -87 -5 -130h2q15 46 46 127q18 48 55 125l499 1088h103l18 -1088q2 -70 -1 -129q-4 -81 -7 -123h2
q17 60 45 124q6 15 25.5 60t29.5 68l445 1024l-139 11l10 53h342l-10 -53l-125 -11l-588 -1339h-103z" />
    <glyph glyph-name="X" unicode="X" horiz-adv-x="1210" 
d="M633 780l-193 559l-116 11l10 53h346l-10 -53l-144 -11l170 -508l379 508l-139 11l10 53h342l-10 -53l-117 -11l-438 -579l240 -701l143 -10l-10 -49h-377l10 49l150 10l-217 652l-502 -652l141 -10l-10 -49h-369l10 49l144 10z" />
    <glyph glyph-name="Y" unicode="Y" horiz-adv-x="1095" 
d="M920 1350l10 53h348l-10 -53l-125 -11l-539 -798l-102 -482l145 -10l-10 -49h-377l10 49l150 10l102 484l-200 796l-117 11l10 53h346l-10 -53l-148 -11l140 -559q17 -62 24 -99q10 -48 13 -81h2q17 41 44 88q30 52 60 94l373 557z" />
    <glyph glyph-name="Z" unicode="Z" horiz-adv-x="944" 
d="M12 59l930 1287h-536l-72 -195h-53l55 252h711l-15 -60l-926 -1284h574l61 193h56l-54 -252h-743z" />
    <glyph glyph-name="bracketleft" unicode="[" horiz-adv-x="589" 
d="M397 1503h305l-10 -47l-229 -18l-359 -1688l222 -18l-11 -47h-305z" />
    <glyph glyph-name="backslash" unicode="\" horiz-adv-x="743" 
d="M246 1550h73l310 -1845h-74z" />
    <glyph glyph-name="bracketright" unicode="]" horiz-adv-x="589" 
d="M246 -315h-305l10 47l229 18l359 1688l-222 18l11 47h305z" />
    <glyph glyph-name="asciicircum" unicode="^" horiz-adv-x="880" 
d="M606 1450h62l180 -510h-76l-147 432l-328 -432h-82z" />
    <glyph glyph-name="underscore" unicode="_" horiz-adv-x="544" 
d="M-117 -180h549l-14 -66h-549z" />
    <glyph glyph-name="grave" unicode="`" horiz-adv-x="1116" 
d="M399 1264l56 63l258 -221l-29 -37z" />
    <glyph glyph-name="a" unicode="a" horiz-adv-x="944" 
d="M326 43q47 0 89 16q41 16 84 41q22 13 73 53q16 13 61 50l119 561q-15 18 -47 50q-21 21 -54 42q-30 19 -62 30t-77 11q-76 0 -133 -42q-56 -41 -100 -114q-32 -52 -51 -105q-23 -65 -38 -121q-16 -63 -24 -123q-8 -64 -8 -111q0 -114 46 -176t122 -62zM623 145
q-27 -25 -65 -57q-36 -29 -73 -51q-37 -21 -81 -37q-39 -14 -89 -14q-95 0 -164 72t-69 223q0 63 9 131q8 61 28 132q16 58 43 125q21 54 55 109q56 93 131 134q76 42 162 42q50 0 88 -13q41 -14 70 -33t54 -44q24 -24 42 -45l55 121h47l-168 -786q-2 -10 -5.5 -26.5
t-4.5 -23.5q-4 -19 -4 -30q0 -21 23 -21h114v-33q-87 -34 -141 -34q-37 0 -54 13q-18 13 -21 36q-3 21 2 51q4 24 16 59z" />
    <glyph glyph-name="b" unicode="b" horiz-adv-x="964" 
d="M332 801q62 59 148 106t173 47q109 0 169 -70q61 -72 61 -218q0 -136 -37 -275q-38 -142 -103 -246q-57 -91 -127 -126q-66 -33 -155 -33q-51 0 -91 13q-45 14 -77 34q-40 24 -62 44q-28 25 -45 46l-55 -123h-45l293 1386l-123 17l10 47h203zM457 43q73 0 129 37
q59 39 98 104q26 43 52 109q24 62 39 127q18 80 24 129q8 67 8 117q0 110 -42 169q-42 58 -122 58q-47 0 -94 -15q-48 -15 -89 -39q-40 -23 -79 -51q-38 -28 -64 -49l-116 -563q46 -54 107 -93q62 -40 149 -40z" />
    <glyph glyph-name="c" unicode="c" horiz-adv-x="794" 
d="M369 -14q-63 0 -111 17q-52 18 -91 56q-40 39 -63 104q-22 63 -22 156q0 105 23 197q24 95 65 176q71 143 168 203q94 59 207 59q154 0 239 -82l-30 -149h-45v135q-32 19 -70 31q-39 12 -96 12q-95 0 -172 -58q-78 -58 -133 -175q-36 -80 -56 -171q-20 -89 -20 -184
q0 -149 59 -208q60 -60 168 -60q68 0 130 20q60 19 126 66l27 -37q-68 -60 -150 -84t-153 -24z" />
    <glyph glyph-name="d" unicode="d" horiz-adv-x="964" 
d="M328 45q48 0 95 15t87 39q39 23 76 52q16 13 61 50l119 563q-48 56 -103 94q-59 41 -145 41q-76 0 -133 -42q-56 -42 -102 -116q-32 -56 -53 -108q-23 -56 -40 -123q-16 -62 -24 -124q-8 -64 -8 -112q0 -111 46 -170t124 -59zM895 1387l-123 16l10 47h203l-274 -1296
q-2 -11 -6 -28t-5 -22q-4 -19 -4 -30q0 -21 23 -21h115v-33q-87 -34 -142 -34q-66 0 -70 39q-5 41 17 118q-32 -32 -68 -58q-45 -32 -78 -50q-41 -22 -86 -36q-42 -13 -90 -13q-107 0 -171 70t-64 218q0 67 10 133q10 63 29 134q17 63 44 126q24 57 56 111q57 92 132 134
t161 42q95 0 162 -44q63 -41 102 -87z" />
    <glyph glyph-name="e" unicode="e" horiz-adv-x="815" 
d="M360 -14q-125 0 -201 79q-77 80 -77 240q0 102 26 212q26 109 70 196q51 102 145 173q90 68 212 68q65 0 110 -18q44 -18 74 -49q28 -30 42 -71q13 -39 13 -81q0 -89 -50 -150q-51 -61 -134 -97q-80 -34 -194 -50q-102 -14 -226 -14q-4 -29 -6 -63q-2 -42 -2 -62
q0 -134 57 -194t162 -60q68 0 130 20q60 19 126 66l27 -37q-68 -60 -150 -84t-154 -24zM248 692q-24 -48 -41 -103q-19 -62 -29 -116q138 0 240 20q101 20 160 53q62 35 90 82t28 107q0 73 -39 120q-39 46 -125 46q-52 0 -96 -18q-41 -17 -79 -47q-32 -25 -62 -67
q-22 -31 -47 -77z" />
    <glyph glyph-name="f" unicode="f" horiz-adv-x="456" 
d="M684 1378q-33 18 -60 25q-32 8 -73 8q-58 0 -102 -38t-62 -132l-57 -301h194l-12 -55h-193l-178 -922q-15 -78 -35 -147q-19 -65 -45 -112q-27 -48 -64 -85q-39 -39 -93 -68l-23 37q34 22 65 56q29 32 49 75q21 44 39 110q17 62 36 157l174 899h-125l12 55h123l59 311
q22 116 89 166q65 49 147 49q54 0 88 -11q35 -11 65 -30z" />
    <glyph glyph-name="g" unicode="g" horiz-adv-x="919" 
d="M326 45q48 0 95 15t87 39q39 23 76 52q16 13 61 50l119 563q-46 54 -104 94q-59 41 -144 41q-76 0 -133 -42q-56 -42 -102 -116q-32 -56 -53 -108q-23 -56 -40 -123q-16 -62 -24 -124q-8 -64 -8 -112q0 -111 46 -170t124 -59zM631 137q-62 -58 -143 -104
q-82 -47 -173 -47q-107 0 -171 70t-64 218q0 67 10 133q10 63 29 134q17 63 44 126q24 57 56 111q57 92 132 134t161 42q48 0 89 -12q39 -11 74 -33q35 -21 59 -44q33 -31 44 -44l53 119h48l-236 -1106q-17 -79 -46 -129q-31 -53 -72 -82q-44 -31 -93 -43q-51 -12 -113 -12
q-104 0 -188 36q-81 35 -139 77l24 45q59 -39 132 -68q77 -31 180 -31q108 0 163 58q54 57 76 155z" />
    <glyph glyph-name="h" unicode="h" horiz-adv-x="976" 
d="M776 678q10 49 10 78q0 68 -31 98q-33 31 -91 31q-86 0 -172 -48q-89 -50 -177 -116l-153 -721h-76l293 1386l-123 17l10 47h203l-143 -676q79 77 173 129q93 51 179 51q88 0 137 -49t49 -139q0 -35 -10 -84l-113 -528q-2 -10 -5.5 -26.5t-4.5 -23.5q-4 -19 -4 -30
q0 -21 23 -21h114v-33q-87 -34 -141 -34q-35 0 -55 14q-21 15 -21 47q0 13 2 29q1 11 6 28z" />
    <glyph glyph-name="i" unicode="i" horiz-adv-x="438" 
d="M371 1194q-31 0 -50 19q-20 20 -20 51q0 30 18 50q18 19 50 19q31 0 50 -19t19 -50q0 -32 -18 -51t-49 -19zM270 877l-123 16l11 47h202l-167 -786q-2 -11 -6 -28t-5 -22q-4 -19 -4 -30q0 -21 23 -21h114v-33q-87 -34 -141 -34q-35 0 -55 14q-21 15 -21 47q0 13 2 29
q1 11 6 28z" />
    <glyph glyph-name="j" unicode="j" horiz-adv-x="425" 
d="M156 893l10 47h203l-232 -1081q-15 -70 -39 -116q-24 -47 -57 -78q-34 -33 -75 -53q-51 -25 -91 -40l-20 43q37 18 75 42q33 21 59 50t44 68t30 94l216 1008zM379 1194q-31 0 -50 19q-20 20 -20 51q0 29 19 50q18 19 49 19t50 -19t19 -50q0 -32 -18 -51t-49 -19z" />
    <glyph glyph-name="k" unicode="k" horiz-adv-x="860" 
d="M162 0h-76l293 1386l-123 17l10 47h203zM860 940l-446 -408l225 -444q11 -24 21 -29q12 -6 36 -6h88v-33q-72 -34 -120 -34q-36 0 -54 18q-19 19 -35 51l-247 477l442 408h90z" />
    <glyph glyph-name="l" unicode="l" horiz-adv-x="446" 
d="M377 1386l-123 17l10 47h203l-274 -1296q-2 -11 -6 -28t-5 -22q-4 -19 -4 -30q0 -21 23 -21h114v-33q-87 -34 -141 -34q-35 0 -55 14q-21 15 -21 47q0 13 2 29q1 11 6 28z" />
    <glyph glyph-name="m" unicode="m" horiz-adv-x="1464" 
d="M1264 678q6 28 9 54q3 25 3 40q0 113 -107 113q-81 0 -160 -43q-79 -44 -171 -111l-156 -731h-76l144 678q6 28 9 53q3 24 3 41q0 113 -107 113q-83 0 -163 -45t-168 -111l-156 -729h-76l187 877l-123 16l10 47h184l-18 -156q82 71 166 121q83 49 172 49q82 0 123 -47
q40 -46 45 -125q87 74 171 122q86 50 175 50q84 0 126 -46t42 -132q0 -30 -3 -51q-1 -11 -8 -43l-112 -528q-2 -10 -5.5 -26.5t-4.5 -23.5q-5 -23 -5 -30q0 -21 23 -21h115v-33q-87 -34 -142 -34q-35 0 -55 14t-20 47q0 13 2 29q1 11 6 28z" />
    <glyph glyph-name="n" unicode="n" horiz-adv-x="983" 
d="M748 154q-2 -11 -6 -28t-5 -22q-4 -19 -4 -30q0 -21 23 -21h114v-33q-87 -34 -141 -34q-35 0 -55 14q-21 15 -21 47q0 13 2 29l7 28l120 574q11 53 11 78q0 68 -32 98q-33 31 -91 31q-86 0 -172 -48q-85 -48 -176 -116l-154 -721h-76l187 877l-123 16l10 47h184l-18 -166
q79 77 173 129q93 51 179 51q88 0 137 -49t49 -139q0 -35 -10 -84z" />
    <glyph glyph-name="o" unicode="o" horiz-adv-x="913" 
d="M676 254q36 80 56 180q20 102 20 193q0 142 -65 209q-64 65 -173 65q-91 0 -156 -46q-66 -46 -118 -157q-39 -83 -60 -181q-20 -94 -20 -191q0 -152 65 -220q66 -69 174 -69q181 0 277 217zM82 330q0 107 23 206q24 104 69 189q63 122 153 176q89 53 197 53q68 0 122 -20
q56 -21 97 -63q42 -44 65 -104t23 -146q0 -108 -22 -208q-22 -98 -64 -186q-61 -128 -151 -185q-88 -56 -197 -56q-71 0 -125 20q-58 21 -99 64q-44 46 -67 107q-24 65 -24 153z" />
    <glyph glyph-name="p" unicode="p" horiz-adv-x="970" 
d="M463 43q73 0 129 37q59 39 98 104q26 43 52 109q24 62 39 127q18 80 24 129q8 67 8 117q0 110 -42 169q-42 58 -122 58q-47 0 -94 -15q-48 -15 -89 -39q-40 -23 -79 -51q-31 -22 -63 -49l-119 -563q45 -52 108 -93q62 -40 150 -40zM90 -358l127 -21l-10 -39h-330l10 39
l127 21l265 1235l-123 16l10 47h184l-12 -139q62 59 148 106t173 47q109 0 169 -70q61 -72 61 -218q0 -136 -37 -275q-39 -145 -102 -246q-57 -91 -127 -126q-66 -33 -156 -33q-51 0 -91 13q-45 14 -77 34q-36 22 -61 44q-28 25 -45 46z" />
    <glyph glyph-name="q" unicode="q" horiz-adv-x="931" 
d="M633 137q-62 -58 -143 -104q-82 -47 -173 -47q-107 0 -171 70t-64 218q0 67 10 133q10 63 29 134q17 63 44 126q24 57 56 111q57 92 132 134t161 42q48 0 89 -12q39 -11 74 -33q35 -21 59 -44q33 -31 44 -44l54 119h47l-277 -1298l127 -21l-10 -39h-330l10 39l127 21z
M328 45q48 0 95 15t87 39q39 23 76 52q16 13 61 50l119 563q-48 56 -103 94q-59 41 -145 41q-76 0 -133 -42q-56 -42 -102 -116q-32 -56 -53 -108q-23 -56 -40 -123q-16 -62 -24 -124q-8 -64 -8 -112q0 -111 46 -170t124 -59z" />
    <glyph glyph-name="r" unicode="r" horiz-adv-x="628" 
d="M330 762q86 88 158 137q77 53 182 53v-78q-93 0 -174 -41t-179 -133l-149 -700h-76l189 877l-121 16l10 47h184z" />
    <glyph glyph-name="s" unicode="s" horiz-adv-x="729" 
d="M307 -14q-103 0 -170 29q-71 31 -117 71l33 152h43v-136q38 -28 90 -46q48 -17 121 -17q93 0 153 51t60 143q0 43 -10 73q-11 32 -32 58t-54 51t-78 54q-23 15 -67 45q-34 23 -59 51q-26 30 -41 66q-15 37 -15 88q0 58 22 101t61 74q37 30 87 45t102 15q62 0 117 -16
q59 -17 104 -55l-30 -150h-45v131q-27 16 -63 27q-34 10 -83 10q-86 0 -142 -46t-56 -132q0 -36 8 -63q7 -24 26 -46q13 -16 46 -41q22 -17 69 -45q41 -25 87 -58q39 -28 65 -60q26 -31 41 -73q14 -38 14 -95q0 -62 -24 -110q-25 -50 -62 -80q-38 -31 -91 -49
q-50 -17 -110 -17z" />
    <glyph glyph-name="t" unicode="t" horiz-adv-x="561" 
d="M174 940h119l53 254l78 20l-59 -274h196l-12 -55h-195l-157 -750q-7 -33 -7 -49q0 -43 50 -43q27 0 59 8q28 7 72 25l10 -39q-31 -21 -74 -37q-38 -14 -84 -14q-48 0 -78 21t-30 69q0 29 6 59l160 750h-119z" />
    <glyph glyph-name="u" unicode="u" horiz-adv-x="958" 
d="M641 160q-85 -73 -175 -123q-92 -51 -177 -51q-87 0 -137 48t-50 138q0 33 11 86l131 619l-123 16l10 47h203l-146 -678q-10 -49 -10 -78q0 -68 33 -103q33 -34 92 -34q85 0 171 50q77 45 175 118l156 725h76l-168 -786q-2 -11 -6 -28t-5 -22q-4 -19 -4 -30q0 -21 23 -21
h115v-33q-87 -34 -142 -34q-36 0 -54 12q-17 11 -20 35t4 54q1 4 7 30.5t10 42.5z" />
    <glyph glyph-name="v" unicode="v" horiz-adv-x="813" 
d="M844 940l-496 -940h-76l-98 877l-113 16l11 47h172l67 -635q11 -91 14 -145q3 -56 1 -107h2q15 45 39 105q21 53 65 139l336 643h76z" />
    <glyph glyph-name="w" unicode="w" horiz-adv-x="1249" 
d="M297 0h-86l-43 877l-107 16l11 47h170l24 -668q2 -52 3 -111t-3 -93h2q20 49 38 87q16 33 48 103l318 682h88l39 -670q5 -52 6 -111q1 -58 0 -91h2q11 33 33 84q25 57 49 106l315 682h76l-446 -940h-86l-43 717q-5 55 -5 92q0 34 2 72h-2q-9 -35 -25 -73q-24 -58 -40 -91
z" />
    <glyph glyph-name="x" unicode="x" horiz-adv-x="778" 
d="M385 442h-2l-348 -442h-76l401 510l-137 367l-108 16l10 47h151l136 -377h2l288 377h76l-342 -440l156 -412q11 -23 18 -29q8 -6 33 -6h84v-33q-72 -34 -119 -34q-35 0 -51 17q-18 19 -29 52z" />
    <glyph glyph-name="y" unicode="y" horiz-adv-x="815" 
d="M250 0l-76 877l-113 16l11 47h170l57 -643q9 -106 11 -152q3 -60 3 -104h2q20 46 53 113q45 90 72 143l330 643h76l-512 -991q-48 -94 -85 -149q-40 -60 -85 -103q-44 -42 -103 -72q-60 -30 -139 -53l-18 55q70 21 134 57q58 32 100 74q47 47 82 103q41 66 77 139h-47z
" />
    <glyph glyph-name="z" unicode="z" horiz-adv-x="798" 
d="M16 72l689 813h-398l-51 -121h-49l33 176h559l-17 -72l-688 -813h455l53 142h49l-37 -197h-614z" />
    <glyph glyph-name="braceleft" unicode="{" horiz-adv-x="731" 
d="M340 -315q-89 0 -139 46q-51 47 -51 130q0 29 6 59l96 449q8 43 8 69q0 66 -38 98q-37 31 -126 31l10 54q104 0 160 44q56 43 78 144l102 483q23 111 83 161q61 50 165 50h150l-13 -55h-129q-82 0 -120 -37q-39 -38 -60 -133l-100 -475q-12 -58 -33 -96t-47 -61
q-25 -22 -55 -35q-23 -10 -58 -17v-4q42 -19 74 -52q33 -34 33 -96q0 -49 -10 -92l-93 -436q-6 -30 -6 -55q0 -49 28 -85q27 -34 91 -34h123l-12 -55h-117z" />
    <glyph glyph-name="bar" unicode="|" horiz-adv-x="450" 
d="M424 1550h76l-391 -1845h-76z" />
    <glyph glyph-name="braceright" unicode="}" horiz-adv-x="731" 
d="M459 1503q89 0 139 -46q51 -47 51 -130q0 -29 -6 -59l-96 -449q-8 -43 -8 -69q0 -66 38 -98q37 -31 125 -31l-10 -54q-104 0 -160 -44q-54 -43 -77 -144l-103 -483q-23 -111 -83 -161q-61 -50 -165 -50h-149l12 55h129q83 0 121 37q38 36 59 133l101 475q12 58 33 96
t47 61q25 22 55 35q24 10 57 17v4q-40 18 -73 52t-33 95q0 50 10 93l92 436q6 30 6 55q0 51 -27 85t-91 34h-123l12 55h117z" />
    <glyph glyph-name="asciitilde" unicode="~" horiz-adv-x="923" 
d="M139 608q80 158 197 158q41 0 77 -18q28 -14 67 -40q33 -22 63 -40q32 -19 61 -19q45 0 81 31q33 29 69 88l47 -27q-43 -77 -92 -119q-46 -40 -107 -40q-41 0 -77 18q-24 12 -68 40q-61 39 -63 40q-30 18 -60 18q-47 0 -80 -30t-68 -88z" />
    <glyph glyph-name="uni00A0" unicode="&#xa0;" horiz-adv-x="368" 
 />
    <glyph glyph-name="exclamdown" unicode="&#xa1;" horiz-adv-x="491" 
d="M70 -459h-88l254 1061h55zM313 956q34 0 57 -22t23 -57q0 -36 -23 -58t-57 -22q-33 0 -56 22q-24 22 -24 58q0 35 24 57q23 22 56 22z" />
    <glyph glyph-name="cent" unicode="&#xa2;" 
d="M457 -10q-49 6 -91 27t-74 62q-31 40 -49 99q-18 60 -18 141q0 101 24 197q25 99 64 176q66 135 156 195q88 59 193 65l45 207h67l-45 -207q125 -8 199 -80l-31 -149h-45v135q-28 17 -58 27q-27 9 -75 14l-182 -854q65 0 127 20q56 18 124 66l27 -37q-68 -59 -143 -82
q-80 -25 -148 -26l-43 -205h-67zM305 313q0 -125 43 -186q44 -61 123 -78l178 850q-81 -10 -150 -69t-118 -162q-33 -76 -55 -171q-21 -93 -21 -184z" />
    <glyph glyph-name="sterling" unicode="&#xa3;" 
d="M211 756h168q-12 105 -12 200q0 118 32 202q34 90 89 145q58 58 133 86t161 28q97 0 163 -23q70 -24 122 -63l-43 -205h-51l14 181q-39 23 -88 39q-43 14 -129 14q-143 0 -233 -107q-91 -108 -91 -295q0 -39 5 -97q2 -18 4 -53t4 -52h389l-14 -64h-369q4 -33 10 -108
q4 -47 4 -105q0 -56 -13 -111q-14 -58 -42 -110q-27 -50 -76 -102q-44 -47 -117 -88h588l66 221h53l-59 -289h-756l14 72q58 29 108 68q49 38 83 87q36 51 53 112q18 63 18 140q0 54 -4 102q-6 77 -10 111h-188z" />
    <glyph glyph-name="currency" unicode="&#xa4;" 
d="M674 1126q68 0 119 -24q50 -23 86 -66l186 187l47 -47l-197 -197q18 -38 25 -74q8 -42 8 -96q0 -101 -28 -195t-91 -180l115 -182l-57 -41l-107 172q-50 -41 -112 -60q-60 -18 -121 -18q-66 0 -119 25q-51 24 -86 65l-186 -186l-47 47l196 197q-17 35 -24 73q-9 47 -9 97
q0 96 29 194q29 96 90 180l-115 183l58 41l106 -172q49 41 113 60q57 17 121 17zM561 362q115 0 192 81q77 82 107 257q12 68 12 123q0 116 -52 181t-163 65q-113 0 -189 -81q-78 -83 -108 -257q-12 -67 -12 -123q0 -115 52 -180q53 -66 161 -66z" />
    <glyph glyph-name="yen" unicode="&#xa5;" 
d="M915 1350l11 53h348l-10 -53l-125 -11l-375 -555h256l-14 -63h-285l-121 -180l-6 -29h367l-13 -63h-368l-82 -390l145 -10l-10 -49h-377l10 49l150 10l82 390h-375l12 63h377l6 31l-45 178h-293l15 63h262l-140 555l-116 11l10 53h346l-10 -53l-148 -11l140 -559
q17 -62 24 -99t12 -81h3q17 41 44 88q30 52 60 94l373 557z" />
    <glyph glyph-name="brokenbar" unicode="&#xa6;" horiz-adv-x="454" 
d="M211 539h76l-178 -834h-76zM424 1550h76l-178 -837h-76z" />
    <glyph glyph-name="section" unicode="&#xa7;" horiz-adv-x="1079" 
d="M139 559q0 112 79 195t224 104q-38 39 -55 82q-16 42 -16 96q0 120 79 199q80 80 226 80q89 0 151 -30q67 -33 109 -68l-35 -166h-45l4 147q-25 19 -73 41q-46 21 -111 21q-60 0 -106 -19q-44 -18 -71 -50q-29 -33 -40 -72q-13 -44 -13 -83q0 -36 12 -65q14 -33 38 -57
q29 -29 68 -54q42 -27 102 -57q36 -19 107 -62q52 -31 85 -66q33 -34 55 -80q21 -43 21 -99q0 -148 -88 -223q-87 -74 -227 -89q98 -89 98 -204q0 -64 -24 -116q-25 -54 -65 -90q-44 -40 -101 -60q-59 -21 -130 -21q-109 0 -196 37q-89 38 -135 82l38 174h43l-6 -158
q34 -28 101 -54t155 -26q116 0 177 64t61 155q0 86 -53 145q-51 56 -172 124q-74 40 -112 65q-50 33 -86 71q-36 37 -54 83q-19 47 -19 104zM575 223q281 29 281 271q0 44 -18 79q-17 33 -51 65q-30 29 -71 53q-54 32 -83 48l-148 82q-130 -15 -198 -88q-70 -75 -70 -176
q0 -85 57 -141q55 -54 164 -115z" />
    <glyph glyph-name="dieresis" unicode="&#xa8;" horiz-adv-x="1116" 
d="M813 1106q-31 0 -49 18q-19 19 -19 50t18 49t48 18q31 0 49 -18q19 -19 19 -49q0 -32 -18 -50t-48 -18zM510 1106q-31 0 -49 18q-19 19 -19 50t18 49t48 18q31 0 49 -18t18 -49q0 -33 -17 -50q-18 -18 -48 -18z" />
    <glyph glyph-name="copyright" unicode="&#xa9;" horiz-adv-x="1382" 
d="M485 530q0 -108 45 -165q46 -58 142 -58q44 0 87 9q45 9 79 30l59 154h43l-41 -181q-41 -30 -102 -48q-58 -17 -125 -17q-131 0 -194 76q-62 75 -62 205q0 102 26 207q27 112 72 202q57 111 127 159q73 50 170 50q67 0 121 -19q53 -18 90 -51l-37 -168h-45l14 144
q-30 21 -64 30t-81 9q-81 0 -133 -39q-54 -40 -94 -129q-43 -91 -69 -197q-28 -115 -28 -203zM635 -16q-119 0 -211 39q-95 41 -156 110q-64 73 -96 173q-33 102 -33 224q0 75 14 164q15 93 38 170q25 82 62 161t79 138q90 128 215 191q124 63 268 63q119 0 211 -39
q95 -41 156 -110q64 -73 96 -173q33 -102 33 -225q0 -74 -14 -163q-14 -87 -39 -170q-27 -88 -61 -161q-37 -79 -79 -138q-90 -128 -215 -191t-268 -63zM809 1362q-131 0 -244 -63t-190 -173q-43 -61 -73 -133q-34 -82 -53 -156q-23 -90 -34 -162q-12 -81 -12 -149
q0 -227 113 -356q114 -131 325 -131q133 0 244 62q113 63 190 173q38 56 72 134q34 79 54 156q23 90 34 162q12 81 12 148q0 228 -113 357q-114 131 -325 131z" />
    <glyph glyph-name="ordfeminine" unicode="&#xaa;" horiz-adv-x="901" 
d="M350 479q43 0 85 14t74 32t63 43l55 44l112 523q-42 48 -89 82t-126 34q-72 0 -124 -36q-53 -36 -91 -101q-25 -46 -45 -98q-18 -48 -35 -112q-15 -55 -22 -112q-8 -61 -8 -104q0 -105 40 -157t111 -52zM625 563q-8 -8 -61 -53q-29 -25 -67 -47q-34 -20 -75 -34
q-38 -13 -82 -13q-90 0 -153 66q-62 65 -62 206q0 121 34 244q35 128 91 217q50 83 121 123q69 39 149 39q45 0 81 -12q44 -15 64 -28q33 -22 49 -38q27 -27 38 -41l51 106h47l-152 -714q-2 -10 -5.5 -26t-4.5 -23q-4 -19 -4 -31q0 -21 23 -21h114v-32q-90 -35 -141 -35
q-35 0 -50 12q-17 13 -21 32t0 46q4 22 16 57z" />
    <glyph glyph-name="guillemotleft" unicode="&#xab;" horiz-adv-x="854" 
d="M371 135l-47 -31l-187 396l350 397l41 -37l-299 -362zM662 135l-48 -31l-186 396l350 397l41 -37l-299 -362z" />
    <glyph glyph-name="logicalnot" unicode="&#xac;" 
d="M805 725h-492l15 68h567l-76 -355h-76z" />
    <glyph glyph-name="uni00AD" unicode="&#xad;" horiz-adv-x="575" 
d="M127 582h336l-14 -70h-336z" />
    <glyph glyph-name="registered" unicode="&#xae;" horiz-adv-x="1073" 
d="M612 969q67 0 99 26q25 22 38 58t13 73q0 78 -84 78h-74l-51 -235h59zM819 711l-8 -35h-115l-18 168q-4 43 -25 65q-21 23 -61 23h-47l-47 -217l53 -4l-8 -35h-170l8 35l57 4l107 487l-56 4l7 35h192q62 0 100 -24q37 -24 37 -91q0 -71 -39 -119q-40 -49 -112 -59v-4
q50 -12 61 -84l17 -145zM688 1432q77 0 143 -24q68 -25 113 -70q48 -48 74 -116t26 -165q0 -148 -51 -277q-50 -127 -137 -211q-60 -57 -133 -84q-71 -26 -156 -26q-80 0 -143 23q-68 25 -113 70q-46 46 -73 117t-27 165q0 147 51 276q50 127 137 211q60 57 133 84
q74 27 156 27zM569 516q77 0 138 23q59 22 112 75q37 37 67 88q28 47 50 111q19 54 32 123q11 58 11 125q0 160 -79 236q-80 77 -214 77q-78 0 -137 -22t-113 -76q-35 -35 -66 -88q-30 -51 -51 -111q-17 -47 -31 -123q-12 -63 -12 -125q0 -160 79 -236q80 -77 214 -77z" />
    <glyph glyph-name="macron" unicode="&#xaf;" horiz-adv-x="1116" 
d="M397 1233h416l-14 -64h-416z" />
    <glyph glyph-name="degree" unicode="&#xb0;" horiz-adv-x="704" 
d="M408 784q-106 0 -171 68t-65 188q0 57 21 126q21 70 51 116q47 69 112 102q66 33 140 33q107 0 171 -67t64 -189q0 -60 -20 -126q-20 -65 -52 -115q-48 -71 -112 -103q-66 -33 -139 -33zM412 842q119 0 186 110q27 44 42 108t15 114q0 96 -48 141t-115 45
q-120 0 -187 -111q-27 -44 -42 -107q-15 -64 -15 -114q0 -96 48 -141t116 -45z" />
    <glyph glyph-name="plusminus" unicode="&#xb1;" 
d="M571 670h-319l14 65h320l73 344h78l-73 -344h319l-14 -65h-320l-63 -303h-78zM158 227h716l-14 -65h-717z" />
    <glyph glyph-name="twosuperior" unicode="&#xb2;" horiz-adv-x="679" 
d="M586 516h-506l14 70q175 110 271 194q102 90 157 166t73 138q17 60 17 110q0 72 -39 116t-112 44q-55 0 -102 -12q-53 -14 -93 -33l-20 43q42 25 100 46q51 19 121 19q105 0 165 -61q60 -62 60 -162q0 -63 -25 -131q-26 -70 -86 -148q-56 -73 -160 -161
q-95 -80 -247 -172h428z" />
    <glyph glyph-name="threesuperior" unicode="&#xb3;" horiz-adv-x="688" 
d="M332 500q-95 0 -155 23q-61 23 -111 52l24 48q39 -22 106 -42q66 -20 134 -20q114 0 173 65q58 64 58 162q0 87 -50 131t-138 44h-62l15 61h65q125 0 174 52t49 141q0 59 -42 100q-43 41 -119 41q-57 0 -98 -10q-45 -11 -91 -33l-20 43q49 27 101 43q51 16 118 16
q103 0 167 -53q62 -52 62 -145q0 -101 -58 -159t-153 -73q71 -17 116 -65q46 -49 46 -129q0 -128 -83 -211q-82 -82 -228 -82z" />
    <glyph glyph-name="acute" unicode="&#xb4;" horiz-adv-x="1116" 
d="M379 1110l313 217l43 -74l-334 -184z" />
    <glyph glyph-name="mu" unicode="&#xb5;" horiz-adv-x="1024" 
d="M74 -418h-74l274 1295l-122 16l10 47h203l-148 -686q-10 -49 -10 -78q0 -69 34 -99q35 -30 93 -30q85 0 171 50q77 45 175 118l156 725h75l-168 -786q-2 -10 -5.5 -26.5t-4.5 -23.5q-4 -19 -4 -30q0 -21 23 -21h114v-33q-87 -34 -141 -34q-36 0 -54 12t-21 35q-3 24 4 54
q10 44 18 73q-85 -73 -175 -123q-91 -51 -178 -51q-53 0 -91 18t-54 51z" />
    <glyph glyph-name="paragraph" unicode="&#xb6;" horiz-adv-x="1015" 
d="M614 -178h-79l321 1517h-158l-321 -1517h-80l205 964h-15q-115 0 -182 73q-65 71 -65 190q0 78 25 143t73 113q46 46 114 72q67 26 150 26h496l-11 -53l-149 -11z" />
    <glyph glyph-name="periodcentered" unicode="&#xb7;" horiz-adv-x="393" 
d="M213 506q-33 0 -56 22q-24 22 -24 58q0 34 24 57q25 23 56 23t56 -23q24 -23 24 -57q0 -36 -24 -58q-23 -22 -56 -22z" />
    <glyph glyph-name="cedilla" unicode="&#xb8;" horiz-adv-x="1116" 
d="M459 -403q-41 0 -74 15q-31 14 -55 38l30 45q22 -17 47 -30q22 -11 58 -11q47 0 70 27q22 26 22 71q0 80 -82 80q-15 0 -35 -2q-9 -1 -34 -8l120 198h60l-86 -131q52 -6 89 -41q36 -34 36 -94q0 -77 -44 -118q-42 -39 -122 -39z" />
    <glyph glyph-name="onesuperior" unicode="&#xb9;" horiz-adv-x="575" 
d="M84 563l201 17l151 720l-186 -86l-23 39l271 150h41l-174 -823l202 -17l-10 -47h-483z" />
    <glyph glyph-name="ordmasculine" unicode="&#xba;" horiz-adv-x="860" 
d="M436 465q160 0 250 188q37 77 55 166q19 93 19 172q0 136 -60 202q-61 67 -165 67q-160 0 -250 -189q-39 -80 -56 -166q-18 -89 -18 -172q0 -137 59 -202q60 -66 166 -66zM426 414q-64 0 -115 19q-53 20 -92 59q-38 38 -61 99t-23 142q0 90 22 191q21 94 62 174
q61 114 142 163q83 50 184 50q60 0 114 -20q56 -21 93 -58q38 -38 61 -99t23 -143q0 -89 -22 -190q-21 -94 -62 -174q-61 -114 -143 -163q-83 -50 -183 -50z" />
    <glyph glyph-name="guillemotright" unicode="&#xbb;" horiz-adv-x="854" 
d="M528 866l47 31l187 -395l-350 -398l-41 37l299 363zM238 866l47 31l186 -395l-350 -398l-41 37l299 363z" />
    <glyph glyph-name="onequarter" unicode="&#xbc;" horiz-adv-x="1617" 
d="M74 563l200 17l152 720l-186 -86l-23 39l270 150h41l-174 -823l203 -17l-10 -47h-484zM1378 1411h86l-1114 -1479h-86zM868 174l439 606h77l-444 -612h371l82 393l82 17l-86 -410h106l-14 -62h-107l-45 -212h-78l45 212h-442z" />
    <glyph glyph-name="onehalf" unicode="&#xbd;" horiz-adv-x="1699" 
d="M74 563l200 17l152 720l-186 -86l-23 39l270 150h41l-174 -823l203 -17l-10 -47h-484zM1378 1411h86l-1114 -1479h-86zM1493 -109h-506l14 70q171 107 271 195q104 92 158 166t72 138q18 63 18 109q0 73 -39 116q-39 44 -113 44q-58 0 -101 -11q-49 -13 -93 -34l-21 43
q42 25 100 46q54 20 121 20q105 0 165 -62q60 -61 60 -162q0 -63 -25 -131t-86 -147q-58 -76 -160 -162q-95 -80 -247 -172h426z" />
    <glyph glyph-name="threequarters" unicode="&#xbe;" horiz-adv-x="1669" 
d="M1430 1411h86l-1115 -1479h-86zM332 500q-95 0 -155 23q-61 23 -111 52l24 48q39 -22 106 -42q66 -20 134 -20q114 0 173 65q58 64 58 162q0 87 -50 131t-138 44h-62l15 61h65q125 0 174 52t49 141q0 59 -42 100q-43 41 -119 41q-57 0 -98 -10q-45 -11 -91 -33l-20 43
q49 27 101 43q51 16 118 16q103 0 167 -53q62 -52 62 -145q0 -101 -58 -159t-153 -73q71 -17 116 -65q46 -49 46 -129q0 -128 -83 -211q-82 -82 -228 -82zM920 172l438 606h78l-445 -612h371l82 393l82 16l-86 -409h106l-14 -62h-107l-45 -213h-77l45 213h-443z" />
    <glyph glyph-name="questiondown" unicode="&#xbf;" horiz-adv-x="847" 
d="M586 956q33 0 56 -22q24 -22 24 -57t-24 -58q-23 -22 -56 -22q-34 0 -57 22t-23 58q0 35 23 57t57 22zM526 397q-15 -69 -37 -111q-23 -45 -50 -76q-26 -31 -59 -54q-21 -15 -65 -43q-37 -23 -84 -56q-40 -27 -67 -62q-28 -36 -45 -84q-17 -49 -17 -120q0 -94 59 -148
q60 -55 161 -55q61 0 111 11q55 12 93 26l56 166h53l-39 -199q-52 -30 -127 -48q-69 -17 -152 -17q-63 0 -115 16q-55 17 -94 50q-41 35 -63 83t-22 115q0 82 20 136q22 60 54 99q34 42 79 73q70 49 94 65q51 33 76 51q33 25 52 49q21 27 36 60t27 84l43 194h67z" />
    <glyph glyph-name="Agrave" unicode="&#xc0;" horiz-adv-x="1134" 
d="M825 492h-487l-221 -422l125 -21l-11 -49h-344l11 49l137 19l706 1335h74l131 -1335l117 -19l-10 -49h-342l10 49l147 19zM369 551h450l-51 520q-8 72 -9 144q-1 56 1 112h-2q-22 -58 -47 -113q-31 -69 -68 -143zM629 1686l55 63l258 -221l-29 -37z" />
    <glyph glyph-name="Aacute" unicode="&#xc1;" horiz-adv-x="1134" 
d="M825 492h-487l-221 -422l125 -21l-11 -49h-344l11 49l137 19l706 1335h74l131 -1335l117 -19l-10 -49h-342l10 49l147 19zM369 551h450l-51 520q-8 72 -9 144q-1 56 1 112h-2q-22 -58 -47 -113q-31 -69 -68 -143zM606 1532l314 217l43 -74l-334 -184z" />
    <glyph glyph-name="Acircumflex" unicode="&#xc2;" horiz-adv-x="1134" 
d="M825 492h-487l-221 -422l125 -21l-11 -49h-344l11 49l137 19l706 1335h74l131 -1335l117 -19l-10 -49h-342l10 49l147 19zM369 551h450l-51 520q-8 72 -9 144q-1 56 1 112h-2q-22 -58 -47 -113q-31 -69 -68 -143zM575 1532l246 225h43l170 -227l-35 -35l-163 176
l-232 -176z" />
    <glyph glyph-name="Atilde" unicode="&#xc3;" horiz-adv-x="1134" 
d="M825 492h-487l-221 -422l125 -21l-11 -49h-344l11 49l137 19l706 1335h74l131 -1335l117 -19l-10 -49h-342l10 49l147 19zM369 551h450l-51 520q-8 72 -9 144q-1 56 1 112h-2q-22 -58 -47 -113q-31 -69 -68 -143zM567 1540q29 56 67 87q36 30 83 30q28 0 55 -12
q18 -8 52 -26q2 -1 21 -11t28 -15q24 -12 49 -12q37 0 58 23q23 24 44 57l43 -25q-32 -58 -68 -91q-35 -32 -81 -32q-29 0 -58 13q-30 13 -52 25q-2 1 -21 11t-28 15q-24 12 -46 12q-41 0 -61 -23q-23 -27 -44 -57z" />
    <glyph glyph-name="Adieresis" unicode="&#xc4;" horiz-adv-x="1134" 
d="M825 492h-487l-221 -422l125 -21l-11 -49h-344l11 49l137 19l706 1335h74l131 -1335l117 -19l-10 -49h-342l10 49l147 19zM369 551h450l-51 520q-8 72 -9 144q-1 56 1 112h-2q-22 -58 -47 -113q-31 -69 -68 -143zM948 1507q-30 0 -49 19q-18 18 -18 49q0 32 17 49
q18 18 48 18q31 0 49 -18q19 -19 19 -49q0 -31 -18 -49q-19 -19 -48 -19zM645 1507q-30 0 -49 19q-18 18 -18 49q0 32 17 49q18 18 48 18q31 0 49 -18q19 -19 19 -49q0 -31 -18 -49q-19 -19 -48 -19z" />
    <glyph glyph-name="Aring" unicode="&#xc5;" horiz-adv-x="1134" 
d="M825 492h-487l-221 -422l125 -21l-11 -49h-344l11 49l137 19l706 1335h74l131 -1335l117 -19l-10 -49h-342l10 49l147 19zM369 551h450l-51 520q-8 72 -9 144q-1 56 1 112h-2q-22 -58 -47 -113q-31 -69 -68 -143zM795 1479q-72 0 -108 41q-36 40 -36 102q0 20 1 26
q2 12 3 19q11 57 57 106q43 46 115 46t108 -41q36 -40 36 -103q0 -19 -1 -25t-3 -20q-11 -56 -57 -105q-43 -46 -115 -46zM793 1530q41 0 70 26q30 27 42 82q1 4 3 18q1 9 1 23q0 46 -22 67t-58 21q-41 0 -70 -26q-30 -27 -42 -82q-1 -5 -3 -18q-1 -9 -1 -23q0 -46 22 -67
q23 -21 58 -21z" />
    <glyph glyph-name="AE" unicode="&#xc6;" horiz-adv-x="1681" 
d="M1448 59l61 193h56l-54 -252h-841l10 49l149 10l97 451h-465l-342 -440l125 -21l-11 -49h-346l11 49l137 19l983 1271l-146 11l11 53h880l-32 -252h-52v195h-495l-121 -572h387l51 152h51l-77 -361h-52l15 152h-387l-140 -658h537zM506 569h432l104 490q6 27 19.5 84
t18.5 82q15 66 36 127h-2z" />
    <glyph glyph-name="Ccedilla" unicode="&#xc7;" horiz-adv-x="1032" 
d="M412 -403q-41 0 -74 15q-31 14 -55 38l30 45q23 -19 46 -30q22 -11 59 -11q47 0 69 26q23 28 23 72q0 80 -82 80q-15 0 -35 -2q-11 -1 -35 -8l103 170q-174 21 -256 133t-82 299q0 86 15 200q15 115 49 230q35 118 85 223q51 106 123 178q162 162 369 162q191 0 309 -92
l-37 -219h-49v205q-46 27 -100 39q-53 12 -129 12q-110 0 -199 -55t-156 -152q-45 -64 -82 -153q-36 -88 -63 -184q-26 -94 -40 -200q-13 -98 -13 -196q0 -179 80 -279q79 -98 254 -98q77 0 138 17q68 19 114 44l79 203h52l-52 -227q-58 -40 -141 -68t-192 -28h-21l-63 -97
q52 -6 89 -41q36 -34 36 -94q0 -77 -44 -118q-42 -39 -122 -39z" />
    <glyph glyph-name="Egrave" unicode="&#xc8;" horiz-adv-x="980" 
d="M774 565h-51l14 152h-387l-139 -658h537l61 193h55l-53 -252h-842l11 49l149 10l272 1280l-145 11l10 53h797l-33 -252h-51v195h-496l-121 -572h388l51 152h51zM557 1686l55 63l258 -221l-28 -37z" />
    <glyph glyph-name="Eacute" unicode="&#xc9;" horiz-adv-x="980" 
d="M774 565h-51l14 152h-387l-139 -658h537l61 193h55l-53 -252h-842l11 49l149 10l272 1280l-145 11l10 53h797l-33 -252h-51v195h-496l-121 -572h388l51 152h51zM578 1532l313 217l43 -74l-334 -184z" />
    <glyph glyph-name="Ecircumflex" unicode="&#xca;" horiz-adv-x="980" 
d="M774 565h-51l14 152h-387l-139 -658h537l61 193h55l-53 -252h-842l11 49l149 10l272 1280l-145 11l10 53h797l-33 -252h-51v195h-496l-121 -572h388l51 152h51zM485 1532l246 225h43l170 -227l-35 -35l-164 176l-231 -176z" />
    <glyph glyph-name="Edieresis" unicode="&#xcb;" horiz-adv-x="980" 
d="M774 565h-51l14 152h-387l-139 -658h537l61 193h55l-53 -252h-842l11 49l149 10l272 1280l-145 11l10 53h797l-33 -252h-51v195h-496l-121 -572h388l51 152h51zM866 1507q-30 0 -49 19q-18 18 -18 49q0 32 17 49q18 18 48 18q31 0 49 -18q19 -19 19 -49q0 -31 -18 -49
q-19 -19 -48 -19zM563 1507q-30 0 -49 19q-18 18 -18 49q0 32 17 49q18 18 48 18q31 0 49 -18q19 -19 19 -49q0 -31 -18 -49q-19 -19 -48 -19z" />
    <glyph glyph-name="Igrave" unicode="&#xcc;" horiz-adv-x="509" 
d="M-20 49l149 10l272 1280l-145 11l10 53h377l-10 -53l-150 -11l-272 -1280l145 -10l-10 -49h-377zM326 1686l55 63l258 -221l-29 -37z" />
    <glyph glyph-name="Iacute" unicode="&#xcd;" horiz-adv-x="509" 
d="M-20 49l149 10l272 1280l-145 11l10 53h377l-10 -53l-150 -11l-272 -1280l145 -10l-10 -49h-377zM324 1532l313 217l43 -74l-334 -184z" />
    <glyph glyph-name="Icircumflex" unicode="&#xce;" horiz-adv-x="509" 
d="M-20 49l149 10l272 1280l-145 11l10 53h377l-10 -53l-150 -11l-272 -1280l145 -10l-10 -49h-377zM254 1532l246 225h43l170 -227l-35 -35l-164 176l-231 -176z" />
    <glyph glyph-name="Idieresis" unicode="&#xcf;" horiz-adv-x="509" 
d="M-20 49l149 10l272 1280l-145 11l10 53h377l-10 -53l-150 -11l-272 -1280l145 -10l-10 -49h-377zM647 1507q-30 0 -49 19q-18 18 -18 49q0 32 17 49q18 18 48 18q31 0 49 -18q19 -19 19 -49q0 -31 -18 -49q-19 -19 -48 -19zM344 1507q-30 0 -49 19t-19 49q0 31 18 49
t48 18q31 0 49 -18q19 -19 19 -49q0 -31 -18 -49q-19 -19 -48 -19z" />
    <glyph glyph-name="Eth" unicode="&#xd0;" horiz-adv-x="1150" 
d="M135 733h137l129 606l-145 11l10 53h396q239 0 349 -113q109 -112 109 -334q0 -108 -19 -226q-20 -124 -55 -238q-35 -115 -89 -216q-52 -98 -119 -153q-77 -65 -181 -94t-237 -29h-451l11 49l149 10l131 617h-137zM483 1346l-131 -613h322l-13 -57h-321l-129 -617h211
q122 0 215 31q89 30 156 92q56 50 102 144q45 92 78 201q31 101 50 223q17 106 17 208q0 186 -87 287t-298 101h-172z" />
    <glyph glyph-name="Ntilde" unicode="&#xd1;" horiz-adv-x="1220" 
d="M995 1350l11 53h358l-10 -53l-150 -11l-284 -1339h-80l-312 1040q-28 92 -45 171q-15 74 -22 132h-2q-13 -83 -25 -147q-21 -109 -41 -201l-196 -936l145 -10l-10 -49h-363l11 49l149 10l272 1280l-145 11l10 53h238l315 -1059q10 -36 23 -80q4 -14 17 -65q7 -29 12 -61
q1 -10 4.5 -30t5.5 -30h2q5 34 9 66q2 15 11 66q9 54 13 72q8 38 18 87l207 970zM604 1540q29 56 67 87q36 30 83 30q28 0 55 -12q18 -8 52 -26q2 -1 20.5 -11t28.5 -15q24 -12 48 -12q38 0 59 23q23 24 44 57l43 -25q-32 -58 -68 -91q-35 -32 -82 -32q-28 0 -57 13
q-30 13 -52 25q-2 1 -20.5 11t-28.5 15q-24 12 -46 12q-41 0 -61 -23q-23 -27 -44 -57z" />
    <glyph glyph-name="Ograve" unicode="&#xd2;" horiz-adv-x="1185" 
d="M518 45q113 0 200 54q86 54 156 161q44 67 82 168q38 99 63 204q24 100 40 207q14 95 14 177q0 167 -77 255q-76 87 -230 87q-113 0 -200 -54q-86 -54 -156 -161q-45 -69 -83 -169q-38 -101 -65 -205t-42 -208q-15 -102 -15 -178q0 -167 80 -253q79 -85 233 -85zM510 -14
q-193 0 -290 103t-97 302q0 95 17 201q18 116 49 226q30 108 79 219q47 107 107 180q82 105 180 152q99 48 219 48q192 0 287 -105q94 -104 94 -304q0 -93 -16 -201q-16 -104 -47 -224q-29 -109 -77 -218q-48 -107 -106 -179q-82 -105 -180 -152q-99 -48 -219 -48zM678 1685
l55 64l258 -221l-28 -37z" />
    <glyph glyph-name="Oacute" unicode="&#xd3;" horiz-adv-x="1185" 
d="M518 45q113 0 200 54q86 54 156 161q44 67 82 168q38 99 63 204q24 100 40 207q14 95 14 177q0 167 -77 255q-76 87 -230 87q-113 0 -200 -54q-86 -54 -156 -161q-45 -69 -83 -169q-38 -101 -65 -205t-42 -208q-15 -102 -15 -178q0 -167 80 -253q79 -85 233 -85zM510 -14
q-193 0 -290 103t-97 302q0 95 17 201q18 116 49 226q30 108 79 219q47 107 107 180q82 105 180 152q99 48 219 48q192 0 287 -105q94 -104 94 -304q0 -93 -16 -201q-16 -104 -47 -224q-29 -109 -77 -218q-48 -107 -106 -179q-82 -105 -180 -152q-99 -48 -219 -48zM655 1532
l314 217l43 -74l-334 -184z" />
    <glyph glyph-name="Ocircumflex" unicode="&#xd4;" horiz-adv-x="1185" 
d="M518 45q113 0 200 54q86 54 156 161q44 67 82 168q38 99 63 204q24 100 40 207q14 95 14 177q0 167 -77 255q-76 87 -230 87q-113 0 -200 -54q-86 -54 -156 -161q-45 -69 -83 -169q-38 -101 -65 -205t-42 -208q-15 -102 -15 -178q0 -167 80 -253q79 -85 233 -85zM510 -14
q-193 0 -290 103t-97 302q0 95 17 201q18 116 49 226q30 108 79 219q47 107 107 180q82 105 180 152q99 48 219 48q192 0 287 -105q94 -104 94 -304q0 -93 -16 -201q-16 -104 -47 -224q-29 -109 -77 -218q-48 -107 -106 -179q-82 -105 -180 -152q-99 -48 -219 -48zM606 1532
l246 225h43l170 -227l-35 -35l-164 176l-231 -176z" />
    <glyph glyph-name="Otilde" unicode="&#xd5;" horiz-adv-x="1185" 
d="M518 45q113 0 200 54q86 54 156 161q44 67 82 168q38 99 63 204q24 100 40 207q14 95 14 177q0 167 -77 255q-76 87 -230 87q-113 0 -200 -54q-86 -54 -156 -161q-45 -69 -83 -169q-38 -101 -65 -205t-42 -208q-15 -102 -15 -178q0 -167 80 -253q79 -85 233 -85zM510 -14
q-193 0 -290 103t-97 302q0 95 17 201q18 116 49 226q30 108 79 219q47 107 107 180q82 105 180 152q99 48 219 48q192 0 287 -105q94 -104 94 -304q0 -93 -16 -201q-16 -104 -47 -224q-29 -109 -77 -218q-48 -107 -106 -179q-82 -105 -180 -152q-99 -48 -219 -48zM578 1540
q30 57 66 87t83 30q28 0 55 -12q24 -11 53 -26q2 -1 20.5 -11t28.5 -15q24 -12 48 -12q37 0 58 23q23 24 44 57l43 -25q-33 -60 -67 -91q-35 -32 -82 -32q-29 0 -58 13q-30 13 -52 25q-2 1 -20.5 11t-28.5 15q-24 12 -46 12q-40 0 -60 -23q-28 -32 -45 -57z" />
    <glyph glyph-name="Odieresis" unicode="&#xd6;" horiz-adv-x="1185" 
d="M518 45q113 0 200 54q86 54 156 161q44 67 82 168q38 99 63 204q24 100 40 207q14 95 14 177q0 167 -77 255q-76 87 -230 87q-113 0 -200 -54q-86 -54 -156 -161q-45 -69 -83 -169q-38 -101 -65 -205t-42 -208q-15 -102 -15 -178q0 -167 80 -253q79 -85 233 -85zM510 -14
q-193 0 -290 103t-97 302q0 95 17 201q18 116 49 226q30 108 79 219q47 107 107 180q82 105 180 152q99 48 219 48q192 0 287 -105q94 -104 94 -304q0 -93 -16 -201q-16 -104 -47 -224q-29 -109 -77 -218q-48 -107 -106 -179q-82 -105 -180 -152q-99 -48 -219 -48zM979 1507
q-30 0 -49 19t-19 49q0 31 18 49t48 18q31 0 49 -18t18 -49q0 -32 -17 -49q-19 -19 -48 -19zM676 1507q-30 0 -49 19t-19 49q0 31 18 49t48 18q31 0 49 -18t18 -49q0 -32 -17 -49q-19 -19 -48 -19z" />
    <glyph glyph-name="multiply" unicode="&#xd7;" 
d="M256 389l303 285l-184 282l59 43l178 -274l295 276l45 -47l-303 -284l185 -283l-60 -43l-180 274l-293 -276z" />
    <glyph glyph-name="Oslash" unicode="&#xd8;" horiz-adv-x="1185" 
d="M170 160q-47 96 -47 231q0 95 17 201q18 116 49 226q30 108 79 219q47 107 107 180q82 105 180 152q99 48 219 48q213 0 307 -133l148 180l51 -39l-164 -202q39 -95 39 -215q0 -93 -16 -201q-16 -104 -47 -224q-29 -109 -77 -218q-48 -107 -106 -179q-82 -105 -180 -152
q-99 -48 -219 -48q-207 0 -301 116l-164 -200l-51 39zM205 383q0 -95 22 -154l803 990q-73 139 -264 139q-113 0 -200 -54q-86 -54 -156 -161q-45 -69 -83 -169q-38 -101 -65 -205t-42 -208q-15 -102 -15 -178zM518 45q113 0 200 54q88 55 157 161q41 64 81 168
q38 99 63 204q24 100 40 207q14 95 14 177q0 71 -16 135l-799 -987q78 -119 260 -119z" />
    <glyph glyph-name="Ugrave" unicode="&#xd9;" horiz-adv-x="1173" 
d="M471 1403l-213 -1000q-8 -43 -12 -74t-4 -63q0 -118 61 -167q62 -50 166 -50q63 0 122 17q58 17 103 40q44 23 86 55q47 36 68 56l242 1122l-146 11l10 53h230l-287 -1344l145 -10l-10 -49h-209l15 145q-70 -59 -168 -109q-97 -50 -215 -50q-132 0 -211 70
q-80 71 -80 218q0 28 4 61q4 37 12 75l197 929l-146 11l11 53h229zM635 1686l55 63l258 -221l-28 -37z" />
    <glyph glyph-name="Uacute" unicode="&#xda;" horiz-adv-x="1173" 
d="M471 1403l-213 -1000q-8 -43 -12 -74t-4 -63q0 -118 61 -167q62 -50 166 -50q63 0 122 17q58 17 103 40q44 23 86 55q47 36 68 56l242 1122l-146 11l10 53h230l-287 -1344l145 -10l-10 -49h-209l15 145q-70 -59 -168 -109q-97 -50 -215 -50q-132 0 -211 70
q-80 71 -80 218q0 28 4 61q4 37 12 75l197 929l-146 11l11 53h229zM612 1532l314 217l43 -74l-334 -184z" />
    <glyph glyph-name="Ucircumflex" unicode="&#xdb;" horiz-adv-x="1173" 
d="M471 1403l-213 -1000q-8 -43 -12 -74t-4 -63q0 -118 61 -167q62 -50 166 -50q63 0 122 17q58 17 103 40q44 23 86 55q47 36 68 56l242 1122l-146 11l10 53h230l-287 -1344l145 -10l-10 -49h-209l15 145q-70 -59 -168 -109q-97 -50 -215 -50q-132 0 -211 70
q-80 71 -80 218q0 28 4 61q4 37 12 75l197 929l-146 11l11 53h229zM565 1532l246 225h43l170 -227l-35 -35l-164 176l-231 -176z" />
    <glyph glyph-name="Udieresis" unicode="&#xdc;" horiz-adv-x="1173" 
d="M471 1403l-213 -1000q-8 -43 -12 -74t-4 -63q0 -118 61 -167q62 -50 166 -50q63 0 122 17q58 17 103 40q44 23 86 55q47 36 68 56l242 1122l-146 11l10 53h230l-287 -1344l145 -10l-10 -49h-209l15 145q-70 -59 -168 -109q-97 -50 -215 -50q-132 0 -211 70
q-80 71 -80 218q0 28 4 61q4 37 12 75l197 929l-146 11l11 53h229zM934 1507q-30 0 -49 19t-19 49q0 31 18 49t48 18q31 0 49 -18t18 -49q0 -32 -17 -49q-19 -19 -48 -19zM631 1507q-30 0 -49 19t-19 49q0 31 18 49t48 18q31 0 49 -18t18 -49q0 -32 -17 -49q-19 -19 -48 -19
z" />
    <glyph glyph-name="Yacute" unicode="&#xdd;" horiz-adv-x="1095" 
d="M920 1350l10 53h348l-10 -53l-125 -11l-539 -798l-102 -482l145 -10l-10 -49h-377l10 49l150 10l102 484l-200 796l-117 11l10 53h346l-10 -53l-148 -11l140 -559q17 -62 24 -99q10 -48 13 -81h2q17 41 44 88q30 52 60 94l373 557zM633 1532l313 217l43 -74l-334 -184z
" />
    <glyph glyph-name="Thorn" unicode="&#xde;" horiz-adv-x="964" 
d="M512 373q88 0 146 23q62 25 108 65q28 27 52 67q22 38 40 89q18 52 25 100q8 54 8 100q0 114 -62 178t-202 64h-203l-145 -686h233zM434 1116h201q173 0 256 -79q84 -80 84 -222q0 -61 -12 -123q-11 -55 -34 -115q-22 -56 -51 -100q-30 -45 -65 -74q-60 -46 -135 -67
q-76 -21 -164 -21h-250l-53 -256l186 -10l-10 -49h-418l11 49l149 10l272 1280l-145 11l10 53h377l-10 -53l-150 -11z" />
    <glyph glyph-name="germandbls" unicode="&#xdf;" horiz-adv-x="929" 
d="M285 1102q34 183 125 271q90 87 225 87q124 0 183 -68q61 -70 61 -171q0 -61 -21 -104t-51 -78q-28 -32 -68 -61q-20 -14 -67 -52q-28 -22 -51 -52q-21 -27 -21 -59q0 -36 20 -73q17 -32 48 -74q30 -43 58 -82q31 -42 58 -91q24 -43 44 -101q18 -52 18 -109
q0 -72 -26 -130q-26 -59 -68 -95q-45 -39 -100 -56q-57 -18 -117 -18q-87 0 -144 27q-56 26 -84 50l23 48q28 -21 81 -45q51 -23 128 -23q50 0 89 14q43 15 73 44q34 32 51 75q18 45 18 105q0 47 -15 93t-39 90q-28 51 -52 85q-7 10 -56 78q-31 43 -57 91q-25 45 -25 93
q0 41 21 71q19 27 51 56q22 20 68 53q36 26 67 60t51 73q21 40 21 99q0 80 -44 130t-130 50q-114 0 -179 -80q-66 -81 -94 -233l-217 -1127q-15 -78 -35 -147q-19 -65 -45 -112q-27 -48 -64 -85q-39 -39 -93 -68l-23 37q34 22 65 56q29 32 49 75q21 44 39 110q17 62 36 157
l172 891l-121 16l10 47h123z" />
    <glyph glyph-name="agrave" unicode="&#xe0;" horiz-adv-x="944" 
d="M326 43q47 0 89 16q41 16 84 41q22 13 73 53q16 13 61 50l119 561q-15 18 -47 50q-21 21 -54 42q-30 19 -62 30t-77 11q-76 0 -133 -42q-56 -41 -100 -114q-32 -52 -51 -105q-23 -65 -38 -121q-16 -63 -24 -123q-8 -64 -8 -111q0 -114 46 -176t122 -62zM623 145
q-27 -25 -65 -57q-36 -29 -73 -51q-37 -21 -81 -37q-39 -14 -89 -14q-95 0 -164 72t-69 223q0 63 9 131q8 61 28 132q16 58 43 125q21 54 55 109q56 93 131 134q76 42 162 42q50 0 88 -13q41 -14 70 -33t54 -44q24 -24 42 -45l55 121h47l-168 -786q-2 -10 -5.5 -26.5
t-4.5 -23.5q-4 -19 -4 -30q0 -21 23 -21h114v-33q-87 -34 -141 -34q-37 0 -54 13q-18 13 -21 36q-3 21 2 51q4 24 16 59zM453 1264l55 63l258 -221l-29 -37z" />
    <glyph glyph-name="aacute" unicode="&#xe1;" horiz-adv-x="944" 
d="M326 43q47 0 89 16q41 16 84 41q22 13 73 53q16 13 61 50l119 561q-15 18 -47 50q-21 21 -54 42q-30 19 -62 30t-77 11q-76 0 -133 -42q-56 -41 -100 -114q-32 -52 -51 -105q-23 -65 -38 -121q-16 -63 -24 -123q-8 -64 -8 -111q0 -114 46 -176t122 -62zM623 145
q-27 -25 -65 -57q-36 -29 -73 -51q-37 -21 -81 -37q-39 -14 -89 -14q-95 0 -164 72t-69 223q0 63 9 131q8 61 28 132q16 58 43 125q21 54 55 109q56 93 131 134q76 42 162 42q50 0 88 -13q41 -14 70 -33t54 -44q24 -24 42 -45l55 121h47l-168 -786q-2 -10 -5.5 -26.5
t-4.5 -23.5q-4 -19 -4 -30q0 -21 23 -21h114v-33q-87 -34 -141 -34q-37 0 -54 13q-18 13 -21 36q-3 21 2 51q4 24 16 59zM451 1110l313 217l43 -74l-334 -184z" />
    <glyph glyph-name="acircumflex" unicode="&#xe2;" horiz-adv-x="944" 
d="M326 43q47 0 89 16q41 16 84 41q22 13 73 53q16 13 61 50l119 561q-15 18 -47 50q-21 21 -54 42q-30 19 -62 30t-77 11q-76 0 -133 -42q-56 -41 -100 -114q-32 -52 -51 -105q-23 -65 -38 -121q-16 -63 -24 -123q-8 -64 -8 -111q0 -114 46 -176t122 -62zM623 145
q-27 -25 -65 -57q-36 -29 -73 -51q-37 -21 -81 -37q-39 -14 -89 -14q-95 0 -164 72t-69 223q0 63 9 131q8 61 28 132q16 58 43 125q21 54 55 109q56 93 131 134q76 42 162 42q50 0 88 -13q41 -14 70 -33t54 -44q24 -24 42 -45l55 121h47l-168 -786q-2 -10 -5.5 -26.5
t-4.5 -23.5q-4 -19 -4 -30q0 -21 23 -21h114v-33q-87 -34 -141 -34q-37 0 -54 13q-18 13 -21 36q-3 21 2 51q4 24 16 59zM379 1110l246 225h43l170 -227l-35 -35l-164 176l-231 -176z" />
    <glyph glyph-name="atilde" unicode="&#xe3;" horiz-adv-x="944" 
d="M326 43q47 0 89 16q41 16 84 41q22 13 73 53q16 13 61 50l119 561q-15 18 -47 50q-21 21 -54 42q-30 19 -62 30t-77 11q-76 0 -133 -42q-56 -41 -100 -114q-32 -52 -51 -105q-23 -65 -38 -121q-16 -63 -24 -123q-8 -64 -8 -111q0 -114 46 -176t122 -62zM623 145
q-27 -25 -65 -57q-36 -29 -73 -51q-37 -21 -81 -37q-39 -14 -89 -14q-95 0 -164 72t-69 223q0 63 9 131q8 61 28 132q16 58 43 125q21 54 55 109q56 93 131 134q76 42 162 42q50 0 88 -13q41 -14 70 -33t54 -44q24 -24 42 -45l55 121h47l-168 -786q-2 -10 -5.5 -26.5
t-4.5 -23.5q-4 -19 -4 -30q0 -21 23 -21h114v-33q-87 -34 -141 -34q-37 0 -54 13q-18 13 -21 36q-3 21 2 51q4 24 16 59zM356 1137q29 56 67 87q35 29 83 29q28 0 55 -12q18 -8 52 -26q8 -4 16.5 -8t18.5 -9t15 -8q24 -12 48 -12q37 0 58 22q23 24 44 57l43 -24
q-32 -58 -68 -91q-35 -32 -81 -32q-31 0 -58 12q-18 8 -52 26q-2 1 -20.5 11t-28.5 15q-24 12 -46 12q-40 0 -61 -24q-26 -30 -44 -56z" />
    <glyph glyph-name="adieresis" unicode="&#xe4;" horiz-adv-x="944" 
d="M326 43q47 0 89 16q41 16 84 41q22 13 73 53q16 13 61 50l119 561q-15 18 -47 50q-21 21 -54 42q-30 19 -62 30t-77 11q-76 0 -133 -42q-56 -41 -100 -114q-32 -52 -51 -105q-23 -65 -38 -121q-16 -63 -24 -123q-8 -64 -8 -111q0 -114 46 -176t122 -62zM623 145
q-27 -25 -65 -57q-36 -29 -73 -51q-37 -21 -81 -37q-39 -14 -89 -14q-95 0 -164 72t-69 223q0 63 9 131q8 61 28 132q16 58 43 125q21 54 55 109q56 93 131 134q76 42 162 42q50 0 88 -13q41 -14 70 -33t54 -44q24 -24 42 -45l55 121h47l-168 -786q-2 -10 -5.5 -26.5
t-4.5 -23.5q-4 -19 -4 -30q0 -21 23 -21h114v-33q-87 -34 -141 -34q-37 0 -54 13q-18 13 -21 36q-3 21 2 51q4 24 16 59zM758 1106q-31 0 -49 18q-19 19 -19 50t18 49t48 18q31 0 49 -18t18 -49q0 -33 -17 -50q-18 -18 -48 -18zM455 1106q-31 0 -49 18q-19 19 -19 50
q0 32 17 49q18 18 49 18t49 -18t18 -49q0 -33 -17 -50q-18 -18 -48 -18z" />
    <glyph glyph-name="aring" unicode="&#xe5;" horiz-adv-x="944" 
d="M326 43q47 0 89 16q41 16 84 41q22 13 73 53q16 13 61 50l119 561q-15 18 -47 50q-21 21 -54 42q-30 19 -62 30t-77 11q-76 0 -133 -42q-56 -41 -100 -114q-32 -52 -51 -105q-23 -65 -38 -121q-16 -63 -24 -123q-8 -64 -8 -111q0 -114 46 -176t122 -62zM623 145
q-27 -25 -65 -57q-36 -29 -73 -51q-37 -21 -81 -37q-39 -14 -89 -14q-95 0 -164 72t-69 223q0 63 9 131q8 61 28 132q16 58 43 125q21 54 55 109q56 93 131 134q76 42 162 42q50 0 88 -13q41 -14 70 -33t54 -44q24 -24 42 -45l55 121h47l-168 -786q-2 -10 -5.5 -26.5
t-4.5 -23.5q-4 -19 -4 -30q0 -21 23 -21h114v-33q-87 -34 -141 -34q-37 0 -54 13q-18 13 -21 36q-3 21 2 51q4 24 16 59zM604 1077q-71 0 -107 41t-36 103q0 19 1 25t3 20q11 57 56 105q43 46 116 46q71 0 107 -41q36 -40 36 -102q0 -20 -1 -26q-2 -12 -3 -19
q-12 -59 -56 -106q-43 -46 -116 -46zM602 1128q41 0 71 27t42 82q2 5 3 17q1 9 1 24q0 46 -23 67q-22 21 -57 21q-41 0 -71 -27t-42 -82q-2 -5 -3 -17q-1 -9 -1 -23q0 -46 23 -67q24 -22 57 -22z" />
    <glyph glyph-name="ae" unicode="&#xe6;" horiz-adv-x="1339" 
d="M291 45q99 0 181 58q82 59 138 135q0 73 1 105q1 40 10 101h-177q-176 0 -249 -51q-74 -51 -74 -174q0 -81 46 -127q47 -47 124 -47zM885 -14q-99 0 -166 48q-68 48 -96 146q-22 -29 -64 -71q-38 -38 -77 -63q-44 -28 -91 -44q-48 -16 -106 -16q-107 0 -174 61
q-68 62 -68 172q0 156 104 215q105 60 297 60h185l39 188q6 33 6 63q0 68 -43 108t-125 40q-68 0 -134 -22q-60 -20 -136 -68l-25 41q68 51 143 81q71 29 162 29q98 0 158 -48q59 -48 67 -134q51 76 131 130q77 52 187 52q65 0 110 -18q44 -18 74 -49q28 -30 42 -71
q13 -39 13 -81q0 -89 -50 -147q-50 -57 -133 -89q-80 -31 -191 -43q-108 -12 -226 -12q-1 -7 -8 -72q-4 -37 -4 -73q0 -134 57 -194t162 -60q68 0 130 20q60 19 126 66l27 -37q-68 -60 -150 -84t-153 -24zM772 692q-43 -83 -65 -198q141 0 238 15q95 15 159 46q61 30 89 76
q28 47 28 104q0 73 -39 120q-39 46 -125 46q-53 0 -96 -18q-41 -17 -79 -47q-34 -27 -63 -67q-22 -31 -47 -77z" />
    <glyph glyph-name="ccedilla" unicode="&#xe7;" horiz-adv-x="794" 
d="M291 -403q-41 0 -74 15q-31 14 -55 38l31 45q23 -19 46 -30q22 -11 58 -11q47 0 70 27q22 26 22 71q0 80 -82 80q-15 0 -35 -2q-9 -1 -34 -8l100 166q-57 5 -100 23q-48 20 -82 60q-37 43 -55 101q-19 60 -19 147q0 105 23 197q24 95 65 176q71 143 168 203q94 59 207 59
q154 0 239 -82l-30 -149h-45v135q-32 19 -70 31q-39 12 -96 12q-95 0 -172 -58q-78 -58 -133 -175q-36 -80 -56 -171q-20 -89 -20 -184q0 -149 59 -208q60 -60 168 -60q68 0 130 20q60 19 126 66l27 -37q-65 -55 -136 -78q-73 -23 -141 -28l-63 -99q52 -6 89 -41
q36 -34 36 -94q0 -77 -44 -118q-42 -39 -122 -39z" />
    <glyph glyph-name="egrave" unicode="&#xe8;" horiz-adv-x="815" 
d="M360 -14q-125 0 -201 79q-77 80 -77 240q0 102 26 212q26 109 70 196q51 102 145 173q90 68 212 68q65 0 110 -18q44 -18 74 -49q28 -30 42 -71q13 -39 13 -81q0 -89 -50 -150q-51 -61 -134 -97q-80 -34 -194 -50q-102 -14 -226 -14q-4 -29 -6 -63q-2 -42 -2 -62
q0 -134 57 -194t162 -60q68 0 130 20q60 19 126 66l27 -37q-68 -60 -150 -84t-154 -24zM248 692q-24 -48 -41 -103q-19 -62 -29 -116q138 0 240 20q101 20 160 53q62 35 90 82t28 107q0 73 -39 120q-39 46 -125 46q-52 0 -96 -18q-41 -17 -79 -47q-32 -25 -62 -67
q-22 -31 -47 -77zM408 1264l55 63l258 -221l-29 -37z" />
    <glyph glyph-name="eacute" unicode="&#xe9;" horiz-adv-x="815" 
d="M360 -14q-125 0 -201 79q-77 80 -77 240q0 102 26 212q26 109 70 196q51 102 145 173q90 68 212 68q65 0 110 -18q44 -18 74 -49q28 -30 42 -71q13 -39 13 -81q0 -89 -50 -150q-51 -61 -134 -97q-80 -34 -194 -50q-102 -14 -226 -14q-4 -29 -6 -63q-2 -42 -2 -62
q0 -134 57 -194t162 -60q68 0 130 20q60 19 126 66l27 -37q-68 -60 -150 -84t-154 -24zM248 692q-24 -48 -41 -103q-19 -62 -29 -116q138 0 240 20q101 20 160 53q62 35 90 82t28 107q0 73 -39 120q-39 46 -125 46q-52 0 -96 -18q-41 -17 -79 -47q-32 -25 -62 -67
q-22 -31 -47 -77zM406 1110l313 217l43 -74l-334 -184z" />
    <glyph glyph-name="ecircumflex" unicode="&#xea;" horiz-adv-x="815" 
d="M360 -14q-125 0 -201 79q-77 80 -77 240q0 102 26 212q26 109 70 196q51 102 145 173q90 68 212 68q65 0 110 -18q44 -18 74 -49q28 -30 42 -71q13 -39 13 -81q0 -89 -50 -150q-51 -61 -134 -97q-80 -34 -194 -50q-102 -14 -226 -14q-4 -29 -6 -63q-2 -42 -2 -62
q0 -134 57 -194t162 -60q68 0 130 20q60 19 126 66l27 -37q-68 -60 -150 -84t-154 -24zM248 692q-24 -48 -41 -103q-19 -62 -29 -116q138 0 240 20q101 20 160 53q62 35 90 82t28 107q0 73 -39 120q-39 46 -125 46q-52 0 -96 -18q-41 -17 -79 -47q-32 -25 -62 -67
q-22 -31 -47 -77zM336 1110l246 225h43l170 -227l-35 -35l-164 176l-231 -176z" />
    <glyph glyph-name="edieresis" unicode="&#xeb;" horiz-adv-x="815" 
d="M360 -14q-125 0 -201 79q-77 80 -77 240q0 102 26 212q26 109 70 196q51 102 145 173q90 68 212 68q65 0 110 -18q44 -18 74 -49q28 -30 42 -71q13 -39 13 -81q0 -89 -50 -150q-51 -61 -134 -97q-80 -34 -194 -50q-102 -14 -226 -14q-4 -29 -6 -63q-2 -42 -2 -62
q0 -134 57 -194t162 -60q68 0 130 20q60 19 126 66l27 -37q-68 -60 -150 -84t-154 -24zM248 692q-24 -48 -41 -103q-19 -62 -29 -116q138 0 240 20q101 20 160 53q62 35 90 82t28 107q0 73 -39 120q-39 46 -125 46q-52 0 -96 -18q-41 -17 -79 -47q-32 -25 -62 -67
q-22 -31 -47 -77zM713 1106q-31 0 -49 18q-19 19 -19 50t18 49t48 18q31 0 49 -18t18 -49q0 -33 -17 -50q-18 -18 -48 -18zM410 1106q-32 0 -50 18t-18 50t17 49q18 18 49 18t49 -18t18 -49q0 -33 -17 -50q-18 -18 -48 -18z" />
    <glyph glyph-name="igrave" unicode="&#xec;" horiz-adv-x="438" 
d="M270 877l-123 16l11 47h202l-167 -786q-2 -11 -6 -28t-5 -22q-4 -19 -4 -30q0 -21 23 -21h114v-33q-87 -34 -141 -34q-35 0 -55 14q-21 15 -21 47q0 13 2 29q1 11 6 28zM150 1264l55 63l258 -221l-29 -37z" />
    <glyph glyph-name="iacute" unicode="&#xed;" horiz-adv-x="438" 
d="M270 877l-123 16l11 47h202l-167 -786q-2 -11 -6 -28t-5 -22q-4 -19 -4 -30q0 -21 23 -21h114v-33q-87 -34 -141 -34q-35 0 -55 14q-21 15 -21 47q0 13 2 29q1 11 6 28zM188 1110l314 217l43 -74l-334 -184z" />
    <glyph glyph-name="icircumflex" unicode="&#xee;" horiz-adv-x="438" 
d="M270 877l-123 16l11 47h202l-167 -786q-2 -11 -6 -28t-5 -22q-4 -19 -4 -30q0 -21 23 -21h114v-33q-87 -34 -141 -34q-35 0 -55 14q-21 15 -21 47q0 13 2 29q1 11 6 28zM98 1110l246 225h43l170 -227l-35 -35l-164 176l-231 -176z" />
    <glyph glyph-name="idieresis" unicode="&#xef;" horiz-adv-x="438" 
d="M270 877l-123 16l11 47h202l-167 -786q-2 -11 -6 -28t-5 -22q-4 -19 -4 -30q0 -21 23 -21h114v-33q-87 -34 -141 -34q-35 0 -55 14q-21 15 -21 47q0 13 2 29q1 11 6 28zM494 1106q-32 0 -50 18t-18 50t17 49q18 18 49 18t49 -18t18 -49q0 -33 -17 -50q-18 -18 -48 -18z
M190 1106q-31 0 -49 18t-18 50t17 49q18 18 48 18q32 0 50 -18t18 -49q0 -33 -17 -50q-18 -18 -49 -18z" />
    <glyph glyph-name="eth" unicode="&#xf0;" horiz-adv-x="909" 
d="M444 1477q119 -72 207 -177l236 132l22 -50l-223 -125q72 -102 111 -230q39 -127 39 -294q0 -116 -22 -262q-20 -134 -69 -244q-60 -131 -151 -186t-199 -55q-71 0 -125 20q-58 21 -99 64q-44 46 -67 107q-24 65 -24 153q0 107 23 206q24 104 69 189q63 122 153 176
q89 53 197 53q82 0 142 -33q64 -35 98 -106q-12 237 -133 410l-240 -133l-24 49l231 129q-74 93 -180 164zM399 37q181 0 277 217q36 80 56 180q20 102 20 193q0 142 -65 209q-64 65 -173 65q-91 0 -156 -46q-66 -46 -118 -157q-39 -83 -60 -181q-20 -94 -20 -191
q0 -152 65 -220q66 -69 174 -69z" />
    <glyph glyph-name="ntilde" unicode="&#xf1;" horiz-adv-x="983" 
d="M748 154q-2 -11 -6 -28t-5 -22q-4 -19 -4 -30q0 -21 23 -21h114v-33q-87 -34 -141 -34q-35 0 -55 14q-21 15 -21 47q0 13 2 29l7 28l120 574q11 53 11 78q0 68 -32 98q-33 31 -91 31q-86 0 -172 -48q-85 -48 -176 -116l-154 -721h-76l187 877l-123 16l10 47h184l-18 -166
q79 77 173 129q93 51 179 51q88 0 137 -49t49 -139q0 -35 -10 -84zM365 1137q30 57 66 87q35 29 83 29q28 0 55 -12q24 -11 53 -26q17 -9 49 -25q24 -12 48 -12q37 0 58 22q23 24 44 57l43 -24q-33 -60 -67 -91q-35 -32 -82 -32q-31 0 -58 12q-18 8 -52 26q-2 1 -20.5 11
t-28.5 15q-24 12 -46 12q-39 0 -60 -24q-26 -30 -44 -56z" />
    <glyph glyph-name="ograve" unicode="&#xf2;" horiz-adv-x="913" 
d="M676 254q36 80 56 180q20 102 20 193q0 142 -65 209q-64 65 -173 65q-91 0 -156 -46q-66 -46 -118 -157q-39 -83 -60 -181q-20 -94 -20 -191q0 -152 65 -220q66 -69 174 -69q181 0 277 217zM82 330q0 107 23 206q24 104 69 189q63 122 153 176q89 53 197 53q68 0 122 -20
q56 -21 97 -63q42 -44 65 -104t23 -146q0 -108 -22 -208q-22 -98 -64 -186q-61 -128 -151 -185q-88 -56 -197 -56q-71 0 -125 20q-58 21 -99 64q-44 46 -67 107q-24 65 -24 153zM424 1264l55 63l258 -221l-28 -37z" />
    <glyph glyph-name="oacute" unicode="&#xf3;" horiz-adv-x="913" 
d="M676 254q36 80 56 180q20 102 20 193q0 142 -65 209q-64 65 -173 65q-91 0 -156 -46q-66 -46 -118 -157q-39 -83 -60 -181q-20 -94 -20 -191q0 -152 65 -220q66 -69 174 -69q181 0 277 217zM82 330q0 107 23 206q24 104 69 189q63 122 153 176q89 53 197 53q68 0 122 -20
q56 -21 97 -63q42 -44 65 -104t23 -146q0 -108 -22 -208q-22 -98 -64 -186q-61 -128 -151 -185q-88 -56 -197 -56q-71 0 -125 20q-58 21 -99 64q-44 46 -67 107q-24 65 -24 153zM422 1110l313 217l43 -74l-334 -184z" />
    <glyph glyph-name="ocircumflex" unicode="&#xf4;" horiz-adv-x="913" 
d="M676 254q36 80 56 180q20 102 20 193q0 142 -65 209q-64 65 -173 65q-91 0 -156 -46q-66 -46 -118 -157q-39 -83 -60 -181q-20 -94 -20 -191q0 -152 65 -220q66 -69 174 -69q181 0 277 217zM82 330q0 107 23 206q24 104 69 189q63 122 153 176q89 53 197 53q68 0 122 -20
q56 -21 97 -63q42 -44 65 -104t23 -146q0 -108 -22 -208q-22 -98 -64 -186q-61 -128 -151 -185q-88 -56 -197 -56q-71 0 -125 20q-58 21 -99 64q-44 46 -67 107q-24 65 -24 153zM350 1110l246 225h43l170 -227l-35 -35l-164 176l-231 -176z" />
    <glyph glyph-name="otilde" unicode="&#xf5;" horiz-adv-x="913" 
d="M676 254q36 80 56 180q20 102 20 193q0 142 -65 209q-64 65 -173 65q-91 0 -156 -46q-66 -46 -118 -157q-39 -83 -60 -181q-20 -94 -20 -191q0 -152 65 -220q66 -69 174 -69q181 0 277 217zM82 330q0 107 23 206q24 104 69 189q63 122 153 176q89 53 197 53q68 0 122 -20
q56 -21 97 -63q42 -44 65 -104t23 -146q0 -108 -22 -208q-22 -98 -64 -186q-61 -128 -151 -185q-88 -56 -197 -56q-71 0 -125 20q-58 21 -99 64q-44 46 -67 107q-24 65 -24 153zM328 1137q30 57 66 87q35 29 83 29q28 0 55 -12q24 -11 53 -26q17 -9 49 -25q24 -12 48 -12
q37 0 58 22q23 24 44 57l43 -24q-33 -60 -67 -91q-35 -32 -82 -32q-30 0 -57 12q-24 11 -53 26q-2 1 -21 11t-28 15q-24 12 -46 12q-39 0 -60 -24q-26 -30 -44 -56z" />
    <glyph glyph-name="odieresis" unicode="&#xf6;" horiz-adv-x="913" 
d="M676 254q36 80 56 180q20 102 20 193q0 142 -65 209q-64 65 -173 65q-91 0 -156 -46q-66 -46 -118 -157q-39 -83 -60 -181q-20 -94 -20 -191q0 -152 65 -220q66 -69 174 -69q181 0 277 217zM82 330q0 107 23 206q24 104 69 189q63 122 153 176q89 53 197 53q68 0 122 -20
q56 -21 97 -63q42 -44 65 -104t23 -146q0 -108 -22 -208q-22 -98 -64 -186q-61 -128 -151 -185q-88 -56 -197 -56q-71 0 -125 20q-58 21 -99 64q-44 46 -67 107q-24 65 -24 153zM729 1106q-31 0 -49 18t-18 50t17 49q18 18 48 18q31 0 49 -18q19 -19 19 -49q0 -32 -18 -50
t-48 -18zM426 1106q-31 0 -49 18q-19 19 -19 50t18 49t48 18q31 0 49 -18q19 -19 19 -49q0 -32 -18 -50t-48 -18z" />
    <glyph glyph-name="divide" unicode="&#xf7;" 
d="M252 715h717l-15 -66h-716zM539 303q-32 0 -56 22q-22 21 -22 56t22 56q24 22 56 22q31 0 55 -22q22 -21 22 -56t-22 -56q-24 -22 -55 -22zM668 905q-32 0 -56 22q-22 21 -22 56t22 56q24 22 56 22q31 0 55 -22q22 -21 22 -56t-22 -56q-24 -22 -55 -22z" />
    <glyph glyph-name="oslash" unicode="&#xf8;" horiz-adv-x="913" 
d="M129 125q-47 79 -47 205q0 107 23 206q24 104 69 189q63 122 153 176q89 53 197 53q71 0 129 -23q60 -24 101 -71l133 156l43 -41l-142 -166q19 -36 32 -85q11 -43 11 -103q0 -108 -22 -208q-22 -98 -64 -186q-61 -128 -151 -185q-88 -56 -197 -56q-69 0 -129 21
q-56 19 -102 69l-148 -174l-43 41zM160 326q0 -89 20 -142l529 623q-61 94 -195 94q-91 0 -156 -46q-66 -46 -118 -157q-39 -83 -60 -181q-20 -94 -20 -191zM676 254q36 80 56 180q20 102 20 193q0 64 -17 118l-526 -618q63 -90 190 -90q181 0 277 217z" />
    <glyph glyph-name="ugrave" unicode="&#xf9;" horiz-adv-x="958" 
d="M641 160q-85 -73 -175 -123q-92 -51 -177 -51q-87 0 -137 48t-50 138q0 33 11 86l131 619l-123 16l10 47h203l-146 -678q-10 -49 -10 -78q0 -68 33 -103q33 -34 92 -34q85 0 171 50q77 45 175 118l156 725h76l-168 -786q-2 -11 -6 -28t-5 -22q-4 -19 -4 -30q0 -21 23 -21
h115v-33q-87 -34 -142 -34q-36 0 -54 12q-17 11 -20 35t4 54q1 4 7 30.5t10 42.5zM403 1264l56 63l258 -221l-29 -37z" />
    <glyph glyph-name="uacute" unicode="&#xfa;" horiz-adv-x="958" 
d="M641 160q-85 -73 -175 -123q-92 -51 -177 -51q-87 0 -137 48t-50 138q0 33 11 86l131 619l-123 16l10 47h203l-146 -678q-10 -49 -10 -78q0 -68 33 -103q33 -34 92 -34q85 0 171 50q77 45 175 118l156 725h76l-168 -786q-2 -11 -6 -28t-5 -22q-4 -19 -4 -30q0 -21 23 -21
h115v-33q-87 -34 -142 -34q-36 0 -54 12q-17 11 -20 35t4 54q1 4 7 30.5t10 42.5zM422 1110l313 217l43 -74l-334 -184z" />
    <glyph glyph-name="ucircumflex" unicode="&#xfb;" horiz-adv-x="958" 
d="M641 160q-85 -73 -175 -123q-92 -51 -177 -51q-87 0 -137 48t-50 138q0 33 11 86l131 619l-123 16l10 47h203l-146 -678q-10 -49 -10 -78q0 -68 33 -103q33 -34 92 -34q85 0 171 50q77 45 175 118l156 725h76l-168 -786q-2 -11 -6 -28t-5 -22q-4 -19 -4 -30q0 -21 23 -21
h115v-33q-87 -34 -142 -34q-36 0 -54 12q-17 11 -20 35t4 54q1 4 7 30.5t10 42.5zM350 1110l246 225h43l170 -227l-35 -35l-164 176l-231 -176z" />
    <glyph glyph-name="udieresis" unicode="&#xfc;" horiz-adv-x="958" 
d="M641 160q-85 -73 -175 -123q-92 -51 -177 -51q-87 0 -137 48t-50 138q0 33 11 86l131 619l-123 16l10 47h203l-146 -678q-10 -49 -10 -78q0 -68 33 -103q33 -34 92 -34q85 0 171 50q77 45 175 118l156 725h76l-168 -786q-2 -11 -6 -28t-5 -22q-4 -19 -4 -30q0 -21 23 -21
h115v-33q-87 -34 -142 -34q-36 0 -54 12q-17 11 -20 35t4 54q1 4 7 30.5t10 42.5zM737 1106q-31 0 -49 18t-18 50t17 49q18 18 48 18q31 0 49 -18q19 -19 19 -49q0 -32 -18 -50t-48 -18zM434 1106q-31 0 -49 18t-18 50t17 49q18 18 48 18q31 0 49 -18q19 -19 19 -49
q0 -32 -18 -50t-48 -18z" />
    <glyph glyph-name="yacute" unicode="&#xfd;" horiz-adv-x="815" 
d="M250 0l-76 877l-113 16l11 47h170l57 -643q9 -106 11 -152q3 -60 3 -104h2q20 46 53 113q45 90 72 143l330 643h76l-512 -991q-48 -94 -85 -149q-40 -60 -85 -103q-44 -42 -103 -72q-60 -30 -139 -53l-18 55q70 21 134 57q58 32 100 74q47 47 82 103q41 66 77 139h-47z
M385 1110l313 217l43 -74l-333 -184z" />
    <glyph glyph-name="thorn" unicode="&#xfe;" horiz-adv-x="964" 
d="M807 666q0 110 -42 169q-42 58 -122 58q-47 0 -94 -15q-48 -15 -89 -39q-40 -23 -79 -51q-38 -28 -64 -49l-118 -563q45 -52 108 -93q62 -40 150 -40q73 0 129 37q59 39 98 104q26 43 52 109q24 62 39 127q18 80 24 129q8 67 8 117zM256 1403l10 47h203l-137 -649
q62 59 148 106t173 47q109 0 169 -70q61 -72 61 -218q0 -136 -37 -275q-38 -142 -103 -246q-57 -91 -127 -126q-66 -33 -155 -33q-51 0 -91 13q-45 14 -77 34q-40 24 -62 44q-28 25 -45 46l-102 -481l127 -21l-10 -39h-330l10 39l127 21l371 1744z" />
    <glyph glyph-name="ydieresis" unicode="&#xff;" horiz-adv-x="815" 
d="M250 0l-76 877l-113 16l11 47h170l57 -643q9 -106 11 -152q3 -60 3 -104h2q20 46 53 113q45 90 72 143l330 643h76l-512 -991q-48 -94 -85 -149q-40 -60 -85 -103q-44 -42 -103 -72q-60 -30 -139 -53l-18 55q70 21 134 57q58 32 100 74q47 47 82 103q41 66 77 139h-47z
M672 1106q-31 0 -49 18q-19 19 -19 50t18 49t48 18q31 0 49 -18t18 -49q0 -33 -17 -50q-18 -18 -48 -18zM369 1106q-31 0 -49 18q-19 19 -19 50q0 32 17 49q18 18 49 18t49 -18t18 -49q0 -33 -17 -50q-18 -18 -48 -18z" />
    <glyph glyph-name="Amacron" unicode="&#x100;" horiz-adv-x="1134" 
d="M825 492h-487l-221 -422l125 -21l-11 -49h-344l11 49l137 19l706 1335h74l131 -1335l117 -19l-10 -49h-342l10 49l147 19zM369 551h450l-51 520q-8 72 -9 144q-1 56 1 112h-2q-22 -58 -47 -113q-31 -69 -68 -143zM596 1602h416l-15 -64h-415z" />
    <glyph glyph-name="amacron" unicode="&#x101;" horiz-adv-x="944" 
d="M326 43q47 0 89 16q41 16 84 41q22 13 73 53q16 13 61 50l119 561q-15 18 -47 50q-21 21 -54 42q-30 19 -62 30t-77 11q-76 0 -133 -42q-56 -41 -100 -114q-32 -52 -51 -105q-23 -65 -38 -121q-16 -63 -24 -123q-8 -64 -8 -111q0 -114 46 -176t122 -62zM623 145
q-27 -25 -65 -57q-36 -29 -73 -51q-37 -21 -81 -37q-39 -14 -89 -14q-95 0 -164 72t-69 223q0 63 9 131q8 61 28 132q16 58 43 125q21 54 55 109q56 93 131 134q76 42 162 42q50 0 88 -13q41 -14 70 -33t54 -44q24 -24 42 -45l55 121h47l-168 -786q-2 -10 -5.5 -26.5
t-4.5 -23.5q-4 -19 -4 -30q0 -21 23 -21h114v-33q-87 -34 -141 -34q-37 0 -54 13q-18 13 -21 36q-3 21 2 51q4 24 16 59zM408 1233h415l-14 -64h-416z" />
    <glyph glyph-name="Abreve" unicode="&#x102;" horiz-adv-x="1134" 
d="M825 492h-487l-221 -422l125 -21l-11 -49h-344l11 49l137 19l706 1335h74l131 -1335l117 -19l-10 -49h-342l10 49l147 19zM369 551h450l-51 520q-8 72 -9 144q-1 56 1 112h-2q-22 -58 -47 -113q-31 -69 -68 -143zM793 1513q-82 0 -127 53q-47 54 -54 126l50 18
q6 -54 35 -90q30 -37 96 -37q64 0 104 35q39 35 68 92l47 -18q-28 -76 -84 -127q-57 -52 -135 -52z" />
    <glyph glyph-name="abreve" unicode="&#x103;" horiz-adv-x="944" 
d="M326 43q47 0 89 16q41 16 84 41q22 13 73 53q16 13 61 50l119 561q-15 18 -47 50q-21 21 -54 42q-30 19 -62 30t-77 11q-76 0 -133 -42q-56 -41 -100 -114q-32 -52 -51 -105q-23 -65 -38 -121q-16 -63 -24 -123q-8 -64 -8 -111q0 -114 46 -176t122 -62zM623 145
q-27 -25 -65 -57q-36 -29 -73 -51q-37 -21 -81 -37q-39 -14 -89 -14q-95 0 -164 72t-69 223q0 63 9 131q8 61 28 132q16 58 43 125q21 54 55 109q56 93 131 134q76 42 162 42q50 0 88 -13q41 -14 70 -33t54 -44q24 -24 42 -45l55 121h47l-168 -786q-2 -10 -5.5 -26.5
t-4.5 -23.5q-4 -19 -4 -30q0 -21 23 -21h114v-33q-87 -34 -141 -34q-37 0 -54 13q-18 13 -21 36q-3 21 2 51q4 24 16 59zM594 1112q-82 0 -127 52q-46 53 -53 126l49 19q6 -53 36 -90t95 -37q64 0 104 35q39 35 68 92l47 -19q-28 -76 -84 -127q-55 -51 -135 -51z" />
    <glyph glyph-name="Aogonek" unicode="&#x104;" horiz-adv-x="1134" 
d="M788 -403q-62 0 -104 32q-43 33 -43 101q0 76 60 143q58 65 143 127h-133l10 49l147 19l-43 424h-487l-221 -422l125 -21l-11 -49h-344l11 49l137 19l706 1335h74l131 -1335l117 -19l-10 -49h-144q-90 -78 -144 -141t-54 -127q0 -37 22 -58q21 -20 58 -20q39 0 63 8
q18 6 51 25l17 -45q-18 -13 -57 -31q-29 -14 -77 -14zM369 551h450l-51 520q-8 72 -9 144q-1 56 1 112h-2q-22 -58 -47 -113q-31 -69 -68 -143z" />
    <glyph glyph-name="aogonek" unicode="&#x105;" horiz-adv-x="944" 
d="M621 -403q-63 0 -105 32q-43 33 -43 101q0 72 58 139q57 66 135 127q-30 5 -42 17q-14 14 -17 34q-3 19 2 45q1 7 3.5 15.5t5.5 19.5t5 18q-27 -25 -65 -57q-36 -29 -73 -51q-37 -21 -81 -37q-39 -14 -89 -14q-95 0 -164 72t-69 223q0 63 9 131q8 61 28 132q16 58 43 125
q21 54 55 109q56 93 131 134q76 42 162 42q50 0 88 -13q41 -14 70 -33t54 -44q24 -24 42 -45l55 121h47l-168 -786q-2 -10 -5.5 -26.5t-4.5 -23.5q-4 -19 -4 -30q0 -21 23 -21h114v-33q-52 -21 -100 -52t-89 -70q-42 -41 -65 -82q-24 -44 -24 -84q0 -37 22 -58
q21 -20 58 -20q39 0 63 8q18 6 51 25l17 -45q-18 -13 -57 -31q-29 -14 -76 -14zM326 43q47 0 89 16q41 16 84 41q22 13 73 53q16 13 61 50l119 561q-15 18 -47 50q-21 21 -54 42q-30 19 -62 30t-77 11q-76 0 -133 -42q-56 -41 -100 -114q-32 -52 -51 -105q-23 -65 -38 -121
q-16 -63 -24 -123q-8 -64 -8 -111q0 -114 46 -176t122 -62z" />
    <glyph glyph-name="Cacute" unicode="&#x106;" horiz-adv-x="1032" 
d="M539 45q77 0 138 17q68 19 114 44l79 203h52l-52 -227q-58 -40 -141 -68t-192 -28q-215 0 -314 117q-100 118 -100 321q0 86 15 200q15 115 49 230q35 118 85 223q51 106 123 178q162 162 369 162q191 0 309 -92l-37 -219h-49v205q-46 27 -100 39q-53 12 -129 12
q-110 0 -199 -55t-156 -152q-45 -64 -82 -153q-36 -88 -63 -184q-26 -94 -40 -200q-13 -98 -13 -196q0 -179 80 -279q79 -98 254 -98zM637 1532l313 217l43 -74l-334 -184z" />
    <glyph glyph-name="cacute" unicode="&#x107;" horiz-adv-x="794" 
d="M369 -14q-63 0 -111 17q-52 18 -91 56q-40 39 -63 104q-22 63 -22 156q0 105 23 197q24 95 65 176q71 143 168 203q94 59 207 59q154 0 239 -82l-30 -149h-45v135q-32 19 -70 31q-39 12 -96 12q-95 0 -172 -58q-78 -58 -133 -175q-36 -80 -56 -171q-20 -89 -20 -184
q0 -149 59 -208q60 -60 168 -60q68 0 130 20q60 19 126 66l27 -37q-68 -60 -150 -84t-153 -24zM428 1110l313 217l43 -74l-333 -184z" />
    <glyph glyph-name="Ccircumflex" unicode="&#x108;" horiz-adv-x="1032" 
d="M539 45q77 0 138 17q68 19 114 44l79 203h52l-52 -227q-58 -40 -141 -68t-192 -28q-215 0 -314 117q-100 118 -100 321q0 86 15 200q15 115 49 230q35 118 85 223q51 106 123 178q162 162 369 162q191 0 309 -92l-37 -219h-49v205q-46 27 -100 39q-53 12 -129 12
q-110 0 -199 -55t-156 -152q-45 -64 -82 -153q-36 -88 -63 -184q-26 -94 -40 -200q-13 -98 -13 -196q0 -179 80 -279q79 -98 254 -98zM565 1532l246 225h43l170 -227l-35 -35l-164 176l-231 -176z" />
    <glyph glyph-name="ccircumflex" unicode="&#x109;" horiz-adv-x="794" 
d="M369 -14q-63 0 -111 17q-52 18 -91 56q-40 39 -63 104q-22 63 -22 156q0 105 23 197q24 95 65 176q71 143 168 203q94 59 207 59q154 0 239 -82l-30 -149h-45v135q-32 19 -70 31q-39 12 -96 12q-95 0 -172 -58q-78 -58 -133 -175q-36 -80 -56 -171q-20 -89 -20 -184
q0 -149 59 -208q60 -60 168 -60q68 0 130 20q60 19 126 66l27 -37q-68 -60 -150 -84t-153 -24zM356 1110l246 225h43l170 -227l-35 -35l-164 176l-231 -176z" />
    <glyph glyph-name="Cdotaccent" unicode="&#x10a;" horiz-adv-x="1032" 
d="M539 45q77 0 138 17q68 19 114 44l79 203h52l-52 -227q-58 -40 -141 -68t-192 -28q-215 0 -314 117q-100 118 -100 321q0 86 15 200q15 115 49 230q35 118 85 223q51 106 123 178q162 162 369 162q191 0 309 -92l-37 -219h-49v205q-46 27 -100 39q-53 12 -129 12
q-110 0 -199 -55t-156 -152q-45 -64 -82 -153q-36 -88 -63 -184q-26 -94 -40 -200q-13 -98 -13 -196q0 -179 80 -279q79 -98 254 -98zM788 1516q-31 0 -50 19t-19 50t18 50q18 20 49 20t51 -20q19 -19 19 -50t-18 -50t-50 -19z" />
    <glyph glyph-name="cdotaccent" unicode="&#x10b;" horiz-adv-x="794" 
d="M369 -14q-63 0 -111 17q-52 18 -91 56q-40 39 -63 104q-22 63 -22 156q0 105 23 197q24 95 65 176q71 143 168 203q94 59 207 59q154 0 239 -82l-30 -149h-45v135q-32 19 -70 31q-39 12 -96 12q-95 0 -172 -58q-78 -58 -133 -175q-36 -80 -56 -171q-20 -89 -20 -184
q0 -149 59 -208q60 -60 168 -60q68 0 130 20q60 19 126 66l27 -37q-68 -60 -150 -84t-153 -24zM602 1194q-31 0 -50 19q-20 20 -20 51q0 29 19 50q18 19 49 19t50 -19q20 -20 20 -50t-19 -51q-18 -19 -49 -19z" />
    <glyph glyph-name="Ccaron" unicode="&#x10c;" horiz-adv-x="1032" 
d="M539 45q77 0 138 17q68 19 114 44l79 203h52l-52 -227q-58 -40 -141 -68t-192 -28q-215 0 -314 117q-100 118 -100 321q0 86 15 200q15 115 49 230q35 118 85 223q51 106 123 178q162 162 369 162q191 0 309 -92l-37 -219h-49v205q-46 27 -100 39q-53 12 -129 12
q-110 0 -199 -55t-156 -152q-45 -64 -82 -153q-36 -88 -63 -184q-26 -94 -40 -200q-13 -98 -13 -196q0 -179 80 -279q79 -98 254 -98zM567 1722l35 35l164 -176l231 176l29 -37l-246 -225h-43z" />
    <glyph glyph-name="ccaron" unicode="&#x10d;" horiz-adv-x="794" 
d="M369 -14q-63 0 -111 17q-52 18 -91 56q-40 39 -63 104q-22 63 -22 156q0 105 23 197q24 95 65 176q71 143 168 203q94 59 207 59q154 0 239 -82l-30 -149h-45v135q-32 19 -70 31q-39 12 -96 12q-95 0 -172 -58q-78 -58 -133 -175q-36 -80 -56 -171q-20 -89 -20 -184
q0 -149 59 -208q60 -60 168 -60q68 0 130 20q60 19 126 66l27 -37q-68 -60 -150 -84t-153 -24zM362 1313l35 35l164 -177l232 177l28 -37l-246 -226h-43z" />
    <glyph glyph-name="Dcaron" unicode="&#x10e;" horiz-adv-x="1150" 
d="M483 1346l-272 -1287h211q122 0 215 31q89 30 156 92q56 50 102 144q45 92 78 201q31 101 50 223q17 106 17 208q0 186 -87 287t-298 101h-172zM-31 0l11 49l149 10l272 1280l-145 11l10 53h395q240 0 350 -113q109 -112 109 -334q0 -108 -19 -226q-19 -117 -56 -238
q-37 -119 -88 -216q-52 -98 -119 -153q-77 -65 -181 -94t-237 -29h-451zM514 1722l35 35l164 -176l231 176l29 -37l-246 -225h-43z" />
    <glyph glyph-name="dcaron" unicode="&#x10f;" horiz-adv-x="964" 
d="M328 45q48 0 95 15t87 39q39 23 76 52q16 13 61 50l119 563q-48 56 -103 94q-59 41 -145 41q-76 0 -133 -42q-56 -42 -102 -116q-32 -56 -53 -108q-23 -56 -40 -123q-16 -62 -24 -124q-8 -64 -8 -112q0 -111 46 -170t124 -59zM895 1387l-123 16l10 47h203l-274 -1296
q-2 -11 -6 -28t-5 -22q-4 -19 -4 -30q0 -21 23 -21h115v-33q-87 -34 -142 -34q-66 0 -70 39q-5 41 17 118q-32 -32 -68 -58q-45 -32 -78 -50q-41 -22 -86 -36q-42 -13 -90 -13q-107 0 -171 70t-64 218q0 67 10 133q10 63 29 134q17 63 44 126q24 57 56 111q57 92 132 134
t161 42q95 0 162 -44q63 -41 102 -87zM1047 1090l75 360h82l-110 -360h-47z" />
    <glyph glyph-name="Dcroat" unicode="&#x110;" horiz-adv-x="1150" 
d="M135 733h137l129 606l-145 11l10 53h396q239 0 349 -113q109 -112 109 -334q0 -108 -19 -226q-20 -124 -55 -238q-35 -115 -89 -216q-52 -98 -119 -153q-77 -65 -181 -94t-237 -29h-451l11 49l149 10l131 617h-137zM483 1346l-131 -613h322l-13 -57h-321l-129 -617h211
q122 0 215 31q89 30 156 92q56 50 102 144q45 92 78 201q31 101 50 223q17 106 17 208q0 186 -87 287t-298 101h-172z" />
    <glyph glyph-name="dcroat" unicode="&#x111;" horiz-adv-x="964" 
d="M557 1229h305l33 157l-123 17l10 47h203l-47 -221h119l-10 -51h-119l-217 -1024q-2 -11 -6 -28t-5 -22q-4 -19 -4 -30q0 -21 23 -21h115v-33q-87 -34 -142 -34q-66 0 -70 39q-5 41 17 118q-32 -32 -68 -58q-45 -32 -78 -50q-41 -22 -86 -36q-42 -13 -90 -13
q-107 0 -171 70t-64 218q0 67 10 133q10 63 29 134q17 63 44 126q24 57 56 111q57 92 132 134t161 42q95 0 162 -44q63 -41 102 -87l74 355h-305zM328 45q48 0 95 15t87 39q39 23 76 52q16 13 61 50l119 563q-48 56 -103 94q-59 41 -145 41q-76 0 -133 -42
q-56 -42 -102 -116q-32 -56 -53 -108q-23 -56 -40 -123q-16 -62 -24 -124q-8 -64 -8 -112q0 -111 46 -170t124 -59z" />
    <glyph glyph-name="Emacron" unicode="&#x112;" horiz-adv-x="980" 
d="M774 565h-51l14 152h-387l-139 -658h537l61 193h55l-53 -252h-842l11 49l149 10l272 1280l-145 11l10 53h797l-33 -252h-51v195h-496l-121 -572h388l51 152h51zM522 1602h416l-14 -64h-416z" />
    <glyph glyph-name="emacron" unicode="&#x113;" horiz-adv-x="815" 
d="M360 -14q-125 0 -201 79q-77 80 -77 240q0 102 26 212q26 109 70 196q51 102 145 173q90 68 212 68q65 0 110 -18q44 -18 74 -49q28 -30 42 -71q13 -39 13 -81q0 -89 -50 -150q-51 -61 -134 -97q-80 -34 -194 -50q-102 -14 -226 -14q-4 -29 -6 -63q-2 -42 -2 -62
q0 -134 57 -194t162 -60q68 0 130 20q60 19 126 66l27 -37q-68 -60 -150 -84t-154 -24zM248 692q-24 -48 -41 -103q-19 -62 -29 -116q138 0 240 20q101 20 160 53q62 35 90 82t28 107q0 73 -39 120q-39 46 -125 46q-52 0 -96 -18q-41 -17 -79 -47q-32 -25 -62 -67
q-22 -31 -47 -77zM365 1233h415l-14 -64h-416z" />
    <glyph glyph-name="Ebreve" unicode="&#x114;" horiz-adv-x="980" 
d="M774 565h-51l14 152h-387l-139 -658h537l61 193h55l-53 -252h-842l11 49l149 10l272 1280l-145 11l10 53h797l-33 -252h-51v195h-496l-121 -572h388l51 152h51zM694 1513q-82 0 -127 53q-46 53 -53 126l49 18q6 -52 36 -90q30 -37 95 -37t105 35q38 33 67 92l47 -18
q-28 -76 -84 -127q-57 -52 -135 -52z" />
    <glyph glyph-name="ebreve" unicode="&#x115;" horiz-adv-x="815" 
d="M360 -14q-125 0 -201 79q-77 80 -77 240q0 102 26 212q26 109 70 196q51 102 145 173q90 68 212 68q65 0 110 -18q44 -18 74 -49q28 -30 42 -71q13 -39 13 -81q0 -89 -50 -150q-51 -61 -134 -97q-80 -34 -194 -50q-102 -14 -226 -14q-4 -29 -6 -63q-2 -42 -2 -62
q0 -134 57 -194t162 -60q68 0 130 20q60 19 126 66l27 -37q-68 -60 -150 -84t-154 -24zM248 692q-24 -48 -41 -103q-19 -62 -29 -116q138 0 240 20q101 20 160 53q62 35 90 82t28 107q0 73 -39 120q-39 46 -125 46q-52 0 -96 -18q-41 -17 -79 -47q-32 -25 -62 -67
q-22 -31 -47 -77zM549 1112q-82 0 -127 52q-46 53 -53 126l49 19q6 -53 36 -90t95 -37q64 0 104 35q39 35 68 92l47 -19q-28 -76 -84 -127t-135 -51z" />
    <glyph glyph-name="Edotaccent" unicode="&#x116;" horiz-adv-x="980" 
d="M774 565h-51l14 152h-387l-139 -658h537l61 193h55l-53 -252h-842l11 49l149 10l272 1280l-145 11l10 53h797l-33 -252h-51v195h-496l-121 -572h388l51 152h51zM723 1516q-31 0 -50 19q-20 20 -20 50q0 29 19 50q18 20 49 20q30 0 50 -20t20 -50q0 -29 -19 -50
q-18 -19 -49 -19z" />
    <glyph glyph-name="edotaccent" unicode="&#x117;" horiz-adv-x="815" 
d="M360 -14q-125 0 -201 79q-77 80 -77 240q0 102 26 212q26 109 70 196q51 102 145 173q90 68 212 68q65 0 110 -18q44 -18 74 -49q28 -30 42 -71q13 -39 13 -81q0 -89 -50 -150q-51 -61 -134 -97q-80 -34 -194 -50q-102 -14 -226 -14q-4 -29 -6 -63q-2 -42 -2 -62
q0 -134 57 -194t162 -60q68 0 130 20q60 19 126 66l27 -37q-68 -60 -150 -84t-154 -24zM248 692q-24 -48 -41 -103q-19 -62 -29 -116q138 0 240 20q101 20 160 53q62 35 90 82t28 107q0 73 -39 120q-39 46 -125 46q-52 0 -96 -18q-41 -17 -79 -47q-32 -25 -62 -67
q-22 -31 -47 -77zM580 1194q-32 0 -51 19t-19 51q0 30 18 50q18 19 50 19q31 0 50 -19t19 -50q0 -32 -18 -51t-49 -19z" />
    <glyph glyph-name="Eogonek" unicode="&#x118;" horiz-adv-x="980" 
d="M616 -403q-62 0 -104 32q-43 33 -43 101q0 76 60 143q58 65 143 127h-703l11 49l149 10l272 1280l-145 11l10 53h797l-33 -252h-51v195h-496l-120 -572h387l51 152h51l-78 -361h-51l14 152h-387l-139 -658h537l61 193h55l-53 -252h-74q-90 -78 -144 -141t-54 -127
q0 -37 22 -58q21 -20 57 -20q40 0 64 8q18 6 51 25l17 -45q-18 -13 -57 -31q-29 -14 -77 -14z" />
    <glyph glyph-name="eogonek" unicode="&#x119;" horiz-adv-x="815" 
d="M391 -403q-62 0 -104 32q-43 33 -43 101q0 71 57 137q54 63 135 125q-40 -6 -76 -6q-125 0 -201 79q-77 80 -77 240q0 102 26 212q26 109 70 196q51 102 145 173q90 68 212 68q65 0 110 -18q44 -18 74 -49q28 -30 42 -71q13 -39 13 -81q0 -89 -50 -150q-51 -61 -134 -97
q-80 -34 -194 -50q-102 -14 -226 -14q-4 -29 -6 -63q-2 -42 -2 -62q0 -134 57 -194t162 -60q68 0 130 20q60 19 126 66l27 -37q-31 -24 -104 -71q-65 -42 -116 -85q-55 -46 -93 -98t-38 -108q0 -37 23 -58q21 -20 57 -20q40 0 64 8q18 6 51 25l16 -45q-21 -14 -56 -31
q-29 -14 -77 -14zM248 692q-24 -48 -41 -103q-19 -62 -29 -116q138 0 240 20q101 20 160 53q62 35 90 82t28 107q0 73 -39 120q-39 46 -125 46q-52 0 -96 -18q-41 -17 -79 -47q-32 -25 -62 -67q-22 -31 -47 -77z" />
    <glyph glyph-name="Ecaron" unicode="&#x11a;" horiz-adv-x="980" 
d="M774 565h-51l14 152h-387l-139 -658h537l61 193h55l-53 -252h-842l11 49l149 10l272 1280l-145 11l10 53h797l-33 -252h-51v195h-496l-121 -572h388l51 152h51zM485 1722l35 35l164 -176l231 176l29 -37l-246 -225h-43z" />
    <glyph glyph-name="ecaron" unicode="&#x11b;" horiz-adv-x="815" 
d="M360 -14q-125 0 -201 79q-77 80 -77 240q0 102 26 212q26 109 70 196q51 102 145 173q90 68 212 68q65 0 110 -18q44 -18 74 -49q28 -30 42 -71q13 -39 13 -81q0 -89 -50 -150q-51 -61 -134 -97q-80 -34 -194 -50q-102 -14 -226 -14q-4 -29 -6 -63q-2 -42 -2 -62
q0 -134 57 -194t162 -60q68 0 130 20q60 19 126 66l27 -37q-68 -60 -150 -84t-154 -24zM248 692q-24 -48 -41 -103q-19 -62 -29 -116q138 0 240 20q101 20 160 53q62 35 90 82t28 107q0 73 -39 120q-39 46 -125 46q-52 0 -96 -18q-41 -17 -79 -47q-32 -25 -62 -67
q-22 -31 -47 -77zM340 1313l35 35l164 -177l231 177l29 -37l-246 -226h-43z" />
    <glyph glyph-name="Gcircumflex" unicode="&#x11c;" horiz-adv-x="1120" 
d="M123 424q0 90 16 201q17 121 50 231q36 121 86 223q52 107 124 178q160 160 371 160q101 0 174 -20q74 -20 135 -72l-37 -219h-49v205q-46 27 -100 39q-53 12 -129 12q-110 0 -199 -55q-88 -54 -155 -152q-46 -66 -84 -153q-39 -91 -65 -184q-27 -97 -42 -200
q-14 -95 -14 -196q0 -179 74 -279q73 -98 233 -98q86 0 164 33q79 34 141 82l92 426l-258 20l8 47h345l-140 -653h-47l-2 98q-69 -49 -143 -80q-76 -32 -162 -32q-199 0 -292 117q-95 119 -95 321zM580 1532l245 225h43l170 -227l-34 -35l-164 176l-232 -176z" />
    <glyph glyph-name="gcircumflex" unicode="&#x11d;" horiz-adv-x="919" 
d="M326 45q48 0 95 15t87 39q39 23 76 52q16 13 61 50l119 563q-46 54 -104 94q-59 41 -144 41q-76 0 -133 -42q-56 -42 -102 -116q-32 -56 -53 -108q-23 -56 -40 -123q-16 -62 -24 -124q-8 -64 -8 -112q0 -111 46 -170t124 -59zM631 137q-62 -58 -143 -104
q-82 -47 -173 -47q-107 0 -171 70t-64 218q0 67 10 133q10 63 29 134q17 63 44 126q24 57 56 111q57 92 132 134t161 42q48 0 89 -12q39 -11 74 -33q35 -21 59 -44q33 -31 44 -44l53 119h48l-236 -1106q-17 -79 -46 -129q-31 -53 -72 -82q-44 -31 -93 -43q-51 -12 -113 -12
q-104 0 -188 36q-81 35 -139 77l24 45q59 -39 132 -68q77 -31 180 -31q108 0 163 58q54 57 76 155zM391 1110l246 225h43l170 -227l-35 -35l-164 176l-231 -176z" />
    <glyph glyph-name="Gbreve" unicode="&#x11e;" horiz-adv-x="1120" 
d="M123 424q0 90 16 201q17 121 50 231q36 121 86 223q52 107 124 178q160 160 371 160q101 0 174 -20q74 -20 135 -72l-37 -219h-49v205q-46 27 -100 39q-53 12 -129 12q-110 0 -199 -55q-88 -54 -155 -152q-46 -66 -84 -153q-39 -91 -65 -184q-27 -97 -42 -200
q-14 -95 -14 -196q0 -179 74 -279q73 -98 233 -98q86 0 164 33q79 34 141 82l92 426l-258 20l8 47h345l-140 -653h-47l-2 98q-69 -49 -143 -80q-76 -32 -162 -32q-199 0 -292 117q-95 119 -95 321zM788 1513q-82 0 -127 53q-46 53 -53 126l49 18q6 -52 36 -90q30 -37 95 -37
t105 35q39 35 68 92l47 -18q-28 -76 -84 -127q-57 -52 -136 -52z" />
    <glyph glyph-name="gbreve" unicode="&#x11f;" horiz-adv-x="919" 
d="M326 45q48 0 95 15t87 39q39 23 76 52q16 13 61 50l119 563q-46 54 -104 94q-59 41 -144 41q-76 0 -133 -42q-56 -42 -102 -116q-32 -56 -53 -108q-23 -56 -40 -123q-16 -62 -24 -124q-8 -64 -8 -112q0 -111 46 -170t124 -59zM631 137q-62 -58 -143 -104
q-82 -47 -173 -47q-107 0 -171 70t-64 218q0 67 10 133q10 63 29 134q17 63 44 126q24 57 56 111q57 92 132 134t161 42q48 0 89 -12q39 -11 74 -33q35 -21 59 -44q33 -31 44 -44l53 119h48l-236 -1106q-17 -79 -46 -129q-31 -53 -72 -82q-44 -31 -93 -43q-51 -12 -113 -12
q-104 0 -188 36q-81 35 -139 77l24 45q59 -39 132 -68q77 -31 180 -31q108 0 163 58q54 57 76 155zM586 1112q-82 0 -127 52q-46 53 -53 126l49 19q6 -53 36 -90t95 -37q64 0 104 35q39 35 68 92l47 -19q-28 -76 -84 -127q-55 -51 -135 -51z" />
    <glyph glyph-name="Gdotaccent" unicode="&#x120;" horiz-adv-x="1120" 
d="M123 424q0 90 16 201q17 121 50 231q36 121 86 223q52 107 124 178q160 160 371 160q101 0 174 -20q74 -20 135 -72l-37 -219h-49v205q-46 27 -100 39q-53 12 -129 12q-110 0 -199 -55q-88 -54 -155 -152q-46 -66 -84 -153q-39 -91 -65 -184q-27 -97 -42 -200
q-14 -95 -14 -196q0 -179 74 -279q73 -98 233 -98q86 0 164 33q79 34 141 82l92 426l-258 20l8 47h345l-140 -653h-47l-2 98q-69 -49 -143 -80q-76 -32 -162 -32q-199 0 -292 117q-95 119 -95 321zM803 1516q-31 0 -50 19q-20 20 -20 50q0 29 19 50q18 20 49 20q30 0 50 -20
q19 -19 19 -50t-18 -50t-49 -19z" />
    <glyph glyph-name="gdotaccent" unicode="&#x121;" horiz-adv-x="919" 
d="M326 45q48 0 95 15t87 39q39 23 76 52q16 13 61 50l119 563q-46 54 -104 94q-59 41 -144 41q-76 0 -133 -42q-56 -42 -102 -116q-32 -56 -53 -108q-23 -56 -40 -123q-16 -62 -24 -124q-8 -64 -8 -112q0 -111 46 -170t124 -59zM631 137q-62 -58 -143 -104
q-82 -47 -173 -47q-107 0 -171 70t-64 218q0 67 10 133q10 63 29 134q17 63 44 126q24 57 56 111q57 92 132 134t161 42q48 0 89 -12q39 -11 74 -33q35 -21 59 -44q33 -31 44 -44l53 119h48l-236 -1106q-17 -79 -46 -129q-31 -53 -72 -82q-44 -31 -93 -43q-51 -12 -113 -12
q-104 0 -188 36q-81 35 -139 77l24 45q59 -39 132 -68q77 -31 180 -31q108 0 163 58q54 57 76 155zM616 1194q-31 0 -50 19t-19 51q0 30 18 50q18 19 49 19q32 0 51 -19t19 -50q0 -32 -18 -51t-50 -19z" />
    <glyph glyph-name="Gcommaaccent" unicode="&#x122;" horiz-adv-x="1120" 
d="M123 424q0 90 16 201q17 121 50 231q36 121 86 223q52 107 124 178q160 160 371 160q101 0 174 -20q74 -20 135 -72l-37 -219h-49v205q-46 27 -100 39q-53 12 -129 12q-110 0 -199 -55q-88 -54 -155 -152q-46 -66 -84 -153q-39 -91 -65 -184q-27 -97 -42 -200
q-14 -95 -14 -196q0 -179 74 -279q73 -98 233 -98q86 0 164 33q79 34 141 82l92 426l-258 20l8 47h345l-140 -653h-47l-2 98q-69 -49 -143 -80q-76 -32 -162 -32q-199 0 -292 117q-95 119 -95 321zM336 -352q54 17 87 40t38 70q-34 0 -56 19q-20 17 -20 49q0 34 22 54t50 20
q35 0 56 -24q22 -25 22 -69q0 -66 -43 -119q-44 -55 -156 -77v37z" />
    <glyph glyph-name="gcommaaccent" unicode="&#x123;" horiz-adv-x="919" 
d="M326 45q48 0 95 15t87 39q39 23 76 52q16 13 61 50l119 563q-46 54 -104 94q-59 41 -144 41q-76 0 -133 -42q-56 -42 -102 -116q-32 -56 -53 -108q-23 -56 -40 -123q-16 -62 -24 -124q-8 -64 -8 -112q0 -111 46 -170t124 -59zM631 137q-62 -58 -143 -104
q-82 -47 -173 -47q-107 0 -171 70t-64 218q0 67 10 133q10 63 29 134q17 63 44 126q24 57 56 111q57 92 132 134t161 42q48 0 89 -12q39 -11 74 -33q35 -21 59 -44q33 -31 44 -44l53 119h48l-236 -1106q-17 -79 -46 -129q-31 -53 -72 -82q-44 -31 -93 -43q-51 -12 -113 -12
q-104 0 -188 36q-81 35 -139 77l24 45q59 -39 132 -68q77 -31 180 -31q108 0 163 58q54 57 76 155zM711 1352q-54 -17 -87 -40t-38 -71q34 0 55 -18t21 -49q0 -35 -22 -55q-20 -19 -50 -19q-36 0 -56 23q-22 25 -22 69q0 67 43 120q44 55 156 77v-37z" />
    <glyph glyph-name="Hcircumflex" unicode="&#x124;" horiz-adv-x="1261" 
d="M731 49l150 10l141 664h-670l-141 -664l145 -10l-10 -49h-377l11 49l149 10l272 1280l-145 11l10 53h377l-10 -53l-150 -11l-121 -559h670l121 559l-145 11l10 53h377l-11 -53l-149 -11l-272 -1280l145 -10l-10 -49h-377zM629 1532l245 225h44l169 -227l-34 -35l-164 176
l-232 -176z" />
    <glyph glyph-name="hcircumflex" unicode="&#x125;" horiz-adv-x="976" 
d="M776 678q10 49 10 78q0 68 -31 98q-33 31 -91 31q-86 0 -172 -48q-89 -50 -177 -116l-153 -721h-76l293 1386l-123 17l10 47h203l-143 -676q79 77 173 129q93 51 179 51q88 0 137 -49t49 -139q0 -35 -10 -84l-113 -528q-2 -10 -5.5 -26.5t-4.5 -23.5q-4 -19 -4 -30
q0 -21 23 -21h114v-33q-87 -34 -141 -34q-35 0 -55 14q-21 15 -21 47q0 13 2 29q1 11 6 28zM246 1552l246 226h43l170 -228l-35 -34l-164 176l-232 -176z" />
    <glyph glyph-name="Hbar" unicode="&#x126;" horiz-adv-x="1261" 
d="M207 1108h145l49 231l-145 11l10 53h377l-10 -53l-150 -11l-51 -231h670l51 231l-145 11l10 53h377l-11 -53l-149 -11l-49 -231h153l-12 -57h-153l-211 -992l145 -10l-10 -49h-377l10 49l150 10l141 664h-670l-141 -664l145 -10l-10 -49h-377l11 49l149 10l211 992h-145z
M1032 780l58 271h-670l-58 -271h670z" />
    <glyph glyph-name="hbar" unicode="&#x127;" horiz-adv-x="976" 
d="M219 1229h127l33 157l-123 17l10 47h203l-47 -221h297l-10 -51h-299l-84 -404q79 77 173 129q93 51 179 51q88 0 137 -49t49 -139q0 -35 -10 -84l-113 -528q-2 -10 -5.5 -26.5t-4.5 -23.5q-4 -19 -4 -30q0 -21 23 -21h114v-33q-87 -34 -141 -34q-35 0 -55 14
q-21 15 -21 47q0 13 2 29q1 11 6 28l121 574q10 49 10 78q0 68 -31 98q-33 31 -91 31q-86 0 -172 -48q-89 -50 -177 -116l-153 -721h-76l248 1178h-125z" />
    <glyph glyph-name="Itilde" unicode="&#x128;" horiz-adv-x="509" 
d="M-20 49l149 10l272 1280l-145 11l10 53h377l-10 -53l-150 -11l-272 -1280l145 -10l-10 -49h-377zM246 1540q30 57 66 87t83 30q29 0 56 -12q18 -8 52 -26q2 -1 20.5 -11t28.5 -15q24 -12 48 -12q37 0 58 23q23 24 44 57l43 -25q-33 -60 -67 -91q-35 -32 -82 -32
q-28 0 -57 13q-36 16 -53 25q-2 1 -21 11t-28 15q-24 12 -46 12q-40 0 -60 -23q-23 -27 -44 -57z" />
    <glyph glyph-name="itilde" unicode="&#x129;" horiz-adv-x="438" 
d="M270 877l-123 16l11 47h202l-167 -786q-2 -11 -6 -28t-5 -22q-4 -19 -4 -30q0 -21 23 -21h114v-33q-87 -34 -141 -34q-35 0 -55 14q-21 15 -21 47q0 13 2 29q1 11 6 28zM92 1137q29 56 67 87q35 29 83 29q28 0 55 -12q18 -8 52 -26q17 -9 49 -25q24 -12 48 -12
q38 0 59 22q23 24 44 57l43 -24q-32 -58 -68 -91q-35 -32 -82 -32q-30 0 -57 12q-18 8 -52 26q-2 1 -21 11t-28 15q-24 12 -46 12q-40 0 -61 -24q-26 -30 -44 -56z" />
    <glyph glyph-name="Imacron" unicode="&#x12a;" horiz-adv-x="509" 
d="M-20 49l149 10l272 1280l-145 11l10 53h377l-10 -53l-150 -11l-272 -1280l145 -10l-10 -49h-377zM291 1602h416l-15 -64h-416z" />
    <glyph glyph-name="imacron" unicode="&#x12b;" horiz-adv-x="438" 
d="M158 1233h354l-14 -64h-355zM270 877l-123 16l11 47h202l-167 -786q-2 -11 -6 -28t-5 -22q-4 -19 -4 -30q0 -21 23 -21h114v-33q-87 -34 -141 -34q-35 0 -55 14q-21 15 -21 47q0 13 2 29q1 11 6 28z" />
    <glyph glyph-name="Ibreve" unicode="&#x12c;" horiz-adv-x="509" 
d="M-20 49l149 10l272 1280l-145 11l10 53h377l-10 -53l-150 -11l-272 -1280l145 -10l-10 -49h-377zM483 1513q-82 0 -127 53q-46 53 -53 126l49 18q6 -52 36 -90q30 -37 95 -37t105 35q38 33 67 92l47 -18q-28 -76 -84 -127q-57 -52 -135 -52z" />
    <glyph glyph-name="ibreve" unicode="&#x12d;" horiz-adv-x="438" 
d="M270 877l-123 16l11 47h202l-167 -786q-2 -11 -6 -28t-5 -22q-4 -19 -4 -30q0 -21 23 -21h114v-33q-87 -34 -141 -34q-35 0 -55 14q-21 15 -21 47q0 13 2 29q1 11 6 28zM330 1112q-82 0 -127 52q-46 53 -53 126l49 19q6 -54 35 -90q30 -37 96 -37q64 0 104 35
q39 35 68 92l47 -19q-28 -76 -84 -127q-55 -51 -135 -51z" />
    <glyph glyph-name="Iogonek" unicode="&#x12e;" horiz-adv-x="509" 
d="M-20 49l149 10l272 1280l-145 11l10 53h377l-10 -53l-150 -11l-272 -1280l145 -10l-10 -49h-108q-94 -81 -145 -141q-54 -63 -54 -127q0 -37 22 -58q21 -20 58 -20q39 0 63 8q18 6 51 25l17 -45q-21 -14 -56 -31q-29 -14 -77 -14q-63 0 -105 32q-43 33 -43 101
q0 74 61 143q60 67 142 127h-203z" />
    <glyph glyph-name="iogonek" unicode="&#x12f;" horiz-adv-x="438" 
d="M371 1194q-31 0 -50 19q-20 20 -20 51q0 30 18 50q18 19 50 19q31 0 50 -19t19 -50q0 -32 -18 -51t-49 -19zM162 -4q-22 0 -43 9t-21 42q0 13 2 29l7 28l163 773l-123 16l11 47h202l-167 -786q-2 -11 -6 -28t-5 -22q-4 -19 -4 -30q0 -21 23 -21h114v-33q-52 -21 -100 -52
t-89 -70q-42 -41 -65 -82q-24 -44 -24 -84q0 -37 22 -58q21 -20 58 -20q39 0 63 8q18 6 51 25l17 -45q-18 -13 -57 -31q-29 -14 -76 -14q-63 0 -105 32q-43 33 -43 101q0 71 60 139q62 70 135 127z" />
    <glyph glyph-name="Idotaccent" unicode="&#x130;" horiz-adv-x="509" 
d="M-20 49l149 10l272 1280l-145 11l10 53h377l-10 -53l-150 -11l-272 -1280l145 -10l-10 -49h-377zM485 1516q-31 0 -50 19t-19 50t18 50q18 20 49 20t51 -20q19 -19 19 -50t-18 -50t-50 -19z" />
    <glyph glyph-name="dotlessi" unicode="&#x131;" horiz-adv-x="438" 
d="M270 877l-123 16l11 47h202l-167 -786q-2 -11 -6 -28t-5 -22q-4 -19 -4 -30q0 -21 23 -21h114v-33q-87 -34 -141 -34q-35 0 -55 14q-21 15 -21 47q0 13 2 29q1 11 6 28z" />
    <glyph glyph-name="IJ" unicode="&#x132;" horiz-adv-x="983" 
d="M-20 49l149 10l272 1280l-145 11l10 53h377l-10 -53l-150 -11l-272 -1280l145 -10l-10 -49h-377zM715 117q-17 -87 -41 -150q-21 -56 -59 -99q-37 -41 -90 -68q-58 -29 -136 -56l-14 49q63 29 105 54q40 24 72 61q30 34 48 84q19 53 35 127l260 1220l-145 11l10 53h377
l-11 -53l-149 -11z" />
    <glyph glyph-name="ij" unicode="&#x133;" horiz-adv-x="864" 
d="M371 1194q-31 0 -50 19q-20 20 -20 51q0 30 18 50q18 19 50 19q31 0 50 -19t19 -50q0 -32 -18 -51t-49 -19zM270 877l-123 16l11 47h202l-167 -786q-2 -11 -6 -28t-5 -22q-4 -19 -4 -30q0 -21 23 -21h114v-33q-87 -34 -141 -34q-35 0 -55 14q-21 15 -21 47q0 13 2 29
q1 11 6 28zM594 893l10 47h203l-232 -1081q-16 -73 -38 -116q-23 -45 -58 -78q-34 -33 -75 -53q-51 -25 -91 -40l-20 43q41 20 76 42q31 20 58 50q26 29 44 68q20 44 31 94l215 1008zM817 1194q-31 0 -50 19t-19 51q0 30 18 50q18 19 49 19t50 -19q20 -20 20 -50t-19 -51
q-18 -19 -49 -19z" />
    <glyph glyph-name="Jcircumflex" unicode="&#x134;" horiz-adv-x="473" 
d="M205 117q-17 -87 -41 -150q-21 -56 -59 -99q-37 -41 -90 -68q-58 -29 -136 -56l-14 49q63 29 105 54q40 24 72 61q30 34 48 84q19 53 35 127l260 1220l-145 11l10 53h377l-11 -53l-149 -11zM260 1532l246 225h43l170 -227l-35 -35l-164 176l-231 -176z" />
    <glyph glyph-name="jcircumflex" unicode="&#x135;" horiz-adv-x="425" 
d="M156 893l10 47h203l-232 -1081q-15 -70 -39 -116q-24 -47 -57 -78q-34 -33 -75 -53q-51 -25 -91 -40l-20 43q37 18 75 42q33 21 59 50t44 68t30 94l216 1008zM109 1110l245 225h43l170 -227l-35 -35l-163 176l-232 -176z" />
    <glyph glyph-name="Kcommaaccent" unicode="&#x136;" horiz-adv-x="1064" 
d="M956 0h-194l-356 758l589 581l-139 11l10 53h353l-11 -53l-125 -11l-591 -583l329 -697l146 -10zM-20 49l149 10l272 1280l-145 11l10 53h377l-10 -53l-150 -11l-272 -1280l145 -10l-10 -49h-377zM326 -352q54 17 87 40t38 70q-34 0 -56 19q-20 17 -20 49q0 34 21 54
q22 20 50 20q36 0 57 -24t21 -69q0 -66 -43 -119q-44 -55 -155 -77v37z" />
    <glyph glyph-name="kcommaaccent" unicode="&#x137;" horiz-adv-x="860" 
d="M162 0h-76l293 1386l-123 17l10 47h203zM860 940l-446 -408l225 -444q11 -24 21 -29q12 -6 36 -6h88v-33q-72 -34 -120 -34q-36 0 -54 18q-19 19 -35 51l-247 477l442 408h90zM213 -352q54 17 87 40t38 70q-33 0 -55 19q-21 18 -21 49q0 34 22 54t50 20q35 0 56 -24
q22 -25 22 -69q0 -66 -43 -119q-44 -55 -156 -77v37z" />
    <glyph glyph-name="kgreenlandic" unicode="&#x138;" horiz-adv-x="866" 
d="M92 0l184 877l-122 16l10 47h203l-199 -940h-76zM866 940l-446 -408l225 -444q11 -23 22 -29q12 -6 35 -6h89v-33q-72 -34 -121 -34q-36 0 -54 18q-17 17 -34 51l-248 477l442 408h90z" />
    <glyph glyph-name="Lacute" unicode="&#x139;" horiz-adv-x="962" 
d="M211 59h537l67 222h55l-59 -281h-842l11 49l149 10l272 1280l-145 11l10 53h377l-10 -53l-150 -11zM377 1532l313 217l43 -74l-334 -184z" />
    <glyph glyph-name="lacute" unicode="&#x13a;" horiz-adv-x="446" 
d="M377 1386l-123 17l10 47h203l-274 -1296q-2 -11 -6 -28t-5 -22q-4 -19 -4 -30q0 -21 23 -21h114v-33q-87 -34 -141 -34q-35 0 -55 14q-21 15 -21 47q0 13 2 29q1 11 6 28zM272 1552l314 217l43 -73l-334 -185z" />
    <glyph glyph-name="Lcommaaccent" unicode="&#x13b;" horiz-adv-x="962" 
d="M211 59h537l67 222h55l-59 -281h-842l11 49l149 10l272 1280l-145 11l10 53h377l-10 -53l-150 -11zM266 -352q54 17 87 40t38 70q-33 0 -55 19q-21 18 -21 49q0 34 22 54t50 20q35 0 56 -24q22 -25 22 -69q0 -66 -43 -119q-44 -55 -156 -77v37z" />
    <glyph glyph-name="lcommaaccent" unicode="&#x13c;" horiz-adv-x="446" 
d="M377 1386l-123 17l10 47h203l-274 -1296q-2 -11 -6 -28t-5 -22q-4 -19 -4 -30q0 -21 23 -21h114v-33q-87 -34 -141 -34q-35 0 -55 14q-21 15 -21 47q0 13 2 29q1 11 6 28zM20 -352q56 17 88 40t37 70q-33 0 -55 19q-20 17 -20 49q0 34 21 54q22 20 50 20q36 0 57 -24
t21 -69q0 -66 -43 -119q-44 -55 -156 -77v37z" />
    <glyph glyph-name="Lcaron" unicode="&#x13d;" horiz-adv-x="962" 
d="M211 59h537l67 222h55l-59 -281h-842l11 49l149 10l272 1280l-145 11l10 53h377l-10 -53l-150 -11zM764 1044l76 361h82l-111 -361h-47z" />
    <glyph glyph-name="lcaron" unicode="&#x13e;" horiz-adv-x="446" 
d="M377 1386l-123 17l10 47h203l-274 -1296q-2 -11 -6 -28t-5 -22q-4 -19 -4 -30q0 -21 23 -21h114v-33q-87 -34 -141 -34q-35 0 -55 14q-21 15 -21 47q0 13 2 29q1 11 6 28zM530 1090l76 360h82l-110 -360h-48z" />
    <glyph glyph-name="Ldot" unicode="&#x13f;" horiz-adv-x="962" 
d="M211 59h537l67 222h55l-59 -281h-842l11 49l149 10l272 1280l-145 11l10 53h377l-10 -53l-150 -11zM776 633q-31 0 -50 19t-19 50q0 32 18 51t49 19t50 -19q20 -20 20 -51q0 -29 -19 -50q-18 -19 -49 -19z" />
    <glyph glyph-name="ldot" unicode="&#x140;" horiz-adv-x="542" 
d="M377 1386l-123 17l10 47h203l-274 -1296q-2 -11 -6 -28t-5 -22q-4 -19 -4 -30q0 -21 23 -21h114v-33q-87 -34 -141 -34q-35 0 -55 14q-21 15 -21 47q0 13 2 29q1 11 6 28zM539 643q-31 0 -51 20q-19 19 -19 50t18 50t50 19q31 0 50 -19t19 -50t-18 -50q-18 -20 -49 -20z
" />
    <glyph glyph-name="Lslash" unicode="&#x141;" horiz-adv-x="962" 
d="M94 602l162 57l145 680l-145 11l10 53h377l-10 -53l-150 -11l-139 -649l354 123l-14 -70l-354 -125l-119 -559h537l67 222h55l-59 -281h-842l11 49l149 10l113 529l-162 -56z" />
    <glyph glyph-name="lslash" unicode="&#x142;" horiz-adv-x="446" 
d="M72 657l168 86l137 643l-123 17l10 47h203l-141 -668l209 105l-15 -66l-209 -104l-118 -563q-2 -11 -6 -28t-5 -22q-4 -19 -4 -30q0 -21 23 -21h114v-33q-87 -34 -141 -34q-35 0 -55 14q-21 15 -21 47q0 13 2 29q1 11 6 28l121 574l-170 -86z" />
    <glyph glyph-name="Nacute" unicode="&#x143;" horiz-adv-x="1220" 
d="M995 1350l11 53h358l-10 -53l-150 -11l-284 -1339h-80l-312 1040q-28 92 -45 171q-15 74 -22 132h-2q-13 -83 -25 -147q-21 -109 -41 -201l-196 -936l145 -10l-10 -49h-363l11 49l149 10l272 1280l-145 11l10 53h238l315 -1059q10 -36 23 -80q4 -14 17 -65q7 -29 12 -61
q1 -10 4.5 -30t5.5 -30h2q5 34 9 66q2 15 11 66q9 54 13 72q8 38 18 87l207 970zM682 1532l313 217l43 -74l-333 -184z" />
    <glyph glyph-name="nacute" unicode="&#x144;" horiz-adv-x="983" 
d="M748 154q-2 -11 -6 -28t-5 -22q-4 -19 -4 -30q0 -21 23 -21h114v-33q-87 -34 -141 -34q-35 0 -55 14q-21 15 -21 47q0 13 2 29l7 28l120 574q11 53 11 78q0 68 -32 98q-33 31 -91 31q-86 0 -172 -48q-85 -48 -176 -116l-154 -721h-76l187 877l-123 16l10 47h184l-18 -166
q79 77 173 129q93 51 179 51q88 0 137 -49t49 -139q0 -35 -10 -84zM438 1110l314 217l43 -74l-334 -184z" />
    <glyph glyph-name="Ncommaaccent" unicode="&#x145;" horiz-adv-x="1220" 
d="M995 1350l11 53h358l-10 -53l-150 -11l-284 -1339h-80l-312 1040q-28 92 -45 171q-15 74 -22 132h-2q-13 -83 -25 -147q-21 -109 -41 -201l-196 -936l145 -10l-10 -49h-363l11 49l149 10l272 1280l-145 11l10 53h238l315 -1059q10 -36 23 -80q4 -14 17 -65q7 -29 12 -61
q1 -10 4.5 -30t5.5 -30h2q5 34 9 66q2 15 11 66q9 54 13 72q8 38 18 87l207 970zM369 -352q54 17 87 40t38 70q-34 0 -56 19q-20 17 -20 49q0 34 21 54q22 20 50 20q36 0 57 -24t21 -69q0 -66 -43 -119q-44 -55 -155 -77v37z" />
    <glyph glyph-name="ncommaaccent" unicode="&#x146;" horiz-adv-x="983" 
d="M748 154q-2 -11 -6 -28t-5 -22q-4 -19 -4 -30q0 -21 23 -21h114v-33q-87 -34 -141 -34q-35 0 -55 14q-21 15 -21 47q0 13 2 29l7 28l120 574q11 53 11 78q0 68 -32 98q-33 31 -91 31q-86 0 -172 -48q-85 -48 -176 -116l-154 -721h-76l187 877l-123 16l10 47h184l-18 -166
q79 77 173 129q93 51 179 51q88 0 137 -49t49 -139q0 -35 -10 -84zM274 -352q54 17 87 40t38 70q-33 0 -55 19q-20 17 -20 49q0 34 21 54q22 20 50 20q36 0 57 -24t21 -69q0 -66 -43 -119q-44 -55 -156 -77v37z" />
    <glyph glyph-name="Ncaron" unicode="&#x147;" horiz-adv-x="1220" 
d="M995 1350l11 53h358l-10 -53l-150 -11l-284 -1339h-80l-312 1040q-28 92 -45 171q-15 74 -22 132h-2q-13 -83 -25 -147q-21 -109 -41 -201l-196 -936l145 -10l-10 -49h-363l11 49l149 10l272 1280l-145 11l10 53h238l315 -1059q10 -36 23 -80q4 -14 17 -65q7 -29 12 -61
q1 -10 4.5 -30t5.5 -30h2q5 34 9 66q2 15 11 66q9 54 13 72q8 38 18 87l207 970zM592 1722l35 35l164 -176l231 176l29 -37l-246 -225h-43z" />
    <glyph glyph-name="ncaron" unicode="&#x148;" horiz-adv-x="983" 
d="M748 154q-2 -11 -6 -28t-5 -22q-4 -19 -4 -30q0 -21 23 -21h114v-33q-87 -34 -141 -34q-35 0 -55 14q-21 15 -21 47q0 13 2 29l7 28l120 574q11 53 11 78q0 68 -32 98q-33 31 -91 31q-86 0 -172 -48q-85 -48 -176 -116l-154 -721h-76l187 877l-123 16l10 47h184l-18 -166
q79 77 173 129q93 51 179 51q88 0 137 -49t49 -139q0 -35 -10 -84zM391 1313l35 35l164 -177l231 177l29 -37l-246 -226h-43z" />
    <glyph glyph-name="napostrophe" unicode="&#x149;" horiz-adv-x="983" 
d="M748 154q-2 -11 -6 -28t-5 -22q-4 -19 -4 -30q0 -21 23 -21h114v-33q-87 -34 -141 -34q-35 0 -55 14q-21 15 -21 47q0 13 2 29l7 28l120 574q11 53 11 78q0 68 -32 98q-33 31 -91 31q-86 0 -172 -48q-85 -48 -176 -116l-154 -721h-76l187 877l-123 16l10 47h184l-18 -166
q79 77 173 129q93 51 179 51q88 0 137 -49t49 -139q0 -35 -10 -84zM59 1100q54 17 87 40t38 70q-33 0 -55 19q-20 17 -20 49q0 34 21 54q22 20 50 20q36 0 57 -24t21 -68q0 -67 -43 -120q-44 -55 -156 -77v37z" />
    <glyph glyph-name="Eng" unicode="&#x14a;" horiz-adv-x="1220" 
d="M528 1040q-28 92 -45 171q-15 74 -22 132h-2q-13 -83 -25 -147q-21 -109 -41 -201l-196 -936l145 -10l-10 -49h-363l11 49l149 10l272 1280l-145 11l10 53h238l315 -1059q10 -36 23 -80q4 -14 17 -65q7 -29 12 -61q1 -10 4.5 -30t5.5 -30h2q5 34 9 66q2 15 11 66
q9 54 13 72q8 38 18 87l207 970l-146 11l11 53h358l-10 -53l-150 -11l-268 -1261q-17 -85 -43 -158q-23 -64 -63 -117q-36 -48 -94 -86q-55 -36 -138 -65l-14 49q63 27 106 58q40 29 73 70q29 36 48 79q17 39 33 86z" />
    <glyph glyph-name="eng" unicode="&#x14b;" horiz-adv-x="974" 
d="M686 -145q-15 -70 -39 -116q-24 -47 -57 -78q-34 -33 -75 -53q-51 -25 -91 -40l-21 43q41 20 76 42q32 20 60 50q25 26 44 68q16 35 29 94l170 813q11 53 11 78q0 68 -32 98q-33 31 -91 31q-86 0 -172 -48q-85 -48 -176 -116l-154 -721h-76l187 877l-123 16l10 47h184
l-18 -166q79 77 173 129q93 51 179 51q88 0 137 -49t49 -139q0 -35 -10 -84z" />
    <glyph glyph-name="Omacron" unicode="&#x14c;" horiz-adv-x="1185" 
d="M518 45q113 0 200 54q86 54 156 161q44 67 82 168q38 99 63 204q24 100 40 207q14 95 14 177q0 167 -77 255q-76 87 -230 87q-113 0 -200 -54q-86 -54 -156 -161q-45 -69 -83 -169q-38 -101 -65 -205t-42 -208q-15 -102 -15 -178q0 -167 80 -253q79 -85 233 -85zM510 -14
q-193 0 -290 103t-97 302q0 95 17 201q18 116 49 226q30 108 79 219q47 107 107 180q82 105 180 152q99 48 219 48q192 0 287 -105q94 -104 94 -304q0 -93 -16 -201q-16 -104 -47 -224q-29 -109 -77 -218q-48 -107 -106 -179q-82 -105 -180 -152q-99 -48 -219 -48zM623 1602
h415l-14 -64h-416z" />
    <glyph glyph-name="omacron" unicode="&#x14d;" horiz-adv-x="913" 
d="M676 254q36 80 56 180q20 102 20 193q0 142 -65 209q-64 65 -173 65q-91 0 -156 -46q-66 -46 -118 -157q-39 -83 -60 -181q-20 -94 -20 -191q0 -152 65 -220q66 -69 174 -69q181 0 277 217zM82 330q0 107 23 206q24 104 69 189q63 122 153 176q89 53 197 53q68 0 122 -20
q56 -21 97 -63q42 -44 65 -104t23 -146q0 -108 -22 -208q-22 -98 -64 -186q-61 -128 -151 -185q-88 -56 -197 -56q-71 0 -125 20q-58 21 -99 64q-44 46 -67 107q-24 65 -24 153zM381 1233h416l-15 -64h-415z" />
    <glyph glyph-name="Obreve" unicode="&#x14e;" horiz-adv-x="1185" 
d="M518 45q113 0 200 54q86 54 156 161q44 67 82 168q38 99 63 204q24 100 40 207q14 95 14 177q0 167 -77 255q-76 87 -230 87q-113 0 -200 -54q-86 -54 -156 -161q-45 -69 -83 -169q-38 -101 -65 -205t-42 -208q-15 -102 -15 -178q0 -167 80 -253q79 -85 233 -85zM510 -14
q-193 0 -290 103t-97 302q0 95 17 201q18 116 49 226q30 108 79 219q47 107 107 180q82 105 180 152q99 48 219 48q192 0 287 -105q94 -104 94 -304q0 -93 -16 -201q-16 -104 -47 -224q-29 -109 -77 -218q-48 -107 -106 -179q-82 -105 -180 -152q-99 -48 -219 -48zM815 1513
q-82 0 -127 53q-46 53 -53 126l49 18q6 -52 36 -90q30 -37 95 -37t105 35q38 33 67 92l47 -18q-28 -76 -84 -127q-57 -52 -135 -52z" />
    <glyph glyph-name="obreve" unicode="&#x14f;" horiz-adv-x="913" 
d="M676 254q36 80 56 180q20 102 20 193q0 142 -65 209q-64 65 -173 65q-91 0 -156 -46q-66 -46 -118 -157q-39 -83 -60 -181q-20 -94 -20 -191q0 -152 65 -220q66 -69 174 -69q181 0 277 217zM82 330q0 107 23 206q24 104 69 189q63 122 153 176q89 53 197 53q68 0 122 -20
q56 -21 97 -63q42 -44 65 -104t23 -146q0 -108 -22 -208q-22 -98 -64 -186q-61 -128 -151 -185q-88 -56 -197 -56q-71 0 -125 20q-58 21 -99 64q-44 46 -67 107q-24 65 -24 153zM565 1112q-82 0 -127 52q-46 53 -53 126l49 19q6 -53 36 -90t95 -37t105 35q38 33 67 92
l47 -19q-28 -76 -84 -127t-135 -51z" />
    <glyph glyph-name="Ohungarumlaut" unicode="&#x150;" horiz-adv-x="1185" 
d="M518 45q113 0 200 54q86 54 156 161q44 67 82 168q38 99 63 204q24 100 40 207q14 95 14 177q0 167 -77 255q-76 87 -230 87q-113 0 -200 -54q-86 -54 -156 -161q-45 -69 -83 -169q-38 -101 -65 -205t-42 -208q-15 -102 -15 -178q0 -167 80 -253q79 -85 233 -85zM510 -14
q-193 0 -290 103t-97 302q0 95 17 201q18 116 49 226q30 108 79 219q47 107 107 180q82 105 180 152q99 48 219 48q192 0 287 -105q94 -104 94 -304q0 -93 -16 -201q-16 -104 -47 -224q-29 -109 -77 -218q-48 -107 -106 -179q-82 -105 -180 -152q-99 -48 -219 -48zM877 1501
l258 311l55 -45l-275 -292zM631 1501l258 311l55 -45l-272 -292z" />
    <glyph glyph-name="ohungarumlaut" unicode="&#x151;" horiz-adv-x="913" 
d="M676 254q36 80 56 180q20 102 20 193q0 142 -65 209q-64 65 -173 65q-91 0 -156 -46q-66 -46 -118 -157q-39 -83 -60 -181q-20 -94 -20 -191q0 -152 65 -220q66 -69 174 -69q181 0 277 217zM82 330q0 107 23 206q24 104 69 189q63 122 153 176q89 53 197 53q68 0 122 -20
q56 -21 97 -63q42 -44 65 -104t23 -146q0 -108 -22 -208q-22 -98 -64 -186q-61 -128 -151 -185q-88 -56 -197 -56q-71 0 -125 20q-58 21 -99 64q-44 46 -67 107q-24 65 -24 153zM629 1098l258 311l55 -45l-274 -293zM383 1098l258 311l55 -45l-272 -293z" />
    <glyph glyph-name="OE" unicode="&#x152;" horiz-adv-x="1611" 
d="M821 1343q-125 0 -215 -30q-88 -29 -155 -92q-57 -52 -104 -145t-78 -200q-30 -105 -49 -224q-17 -108 -17 -208q0 -95 20 -164q21 -73 67 -122t119 -75t179 -26h172l272 1286h-211zM1694 1403l-33 -252h-51v195h-496l-121 -572h387l52 152h51l-78 -361h-51l14 152h-387
l-139 -658h536l62 193h55l-53 -252h-860q-240 0 -350 113q-109 112 -109 333q0 109 19 227q19 117 56 238q36 117 88 215t120 154q77 65 180 94q104 29 237 29h871z" />
    <glyph glyph-name="oe" unicode="&#x153;" horiz-adv-x="1454" 
d="M999 -14q-107 0 -176 57t-90 174q-62 -124 -146 -177q-86 -54 -190 -54q-71 0 -125 20q-58 21 -99 64q-44 46 -67 107q-24 65 -24 153q0 107 23 206q24 104 69 189q63 122 153 176q89 53 197 53q111 0 191 -60q79 -60 102 -183q51 103 146 174q91 69 211 69q65 0 110 -18
q44 -18 74 -49q28 -30 42 -71q13 -39 13 -81q0 -89 -50 -150q-51 -61 -134 -97q-80 -34 -194 -50q-102 -14 -226 -14q-4 -29 -6 -63q-2 -42 -2 -62q0 -134 57 -194t162 -60q68 0 130 20q60 19 126 66l27 -37q-67 -60 -150 -84t-154 -24zM676 254q36 80 56 180q20 102 20 193
q0 142 -65 209q-64 65 -173 65q-91 0 -156 -46q-66 -46 -118 -157q-39 -83 -60 -181q-20 -94 -20 -191q0 -151 65 -219q67 -70 174 -70q181 0 277 217zM887 692q-24 -48 -41 -103q-19 -62 -29 -116q138 0 240 20q101 20 160 53q62 35 90 82t28 107q0 73 -39 120
q-39 46 -125 46q-53 0 -96 -18q-41 -17 -79 -47q-32 -25 -62 -67q-22 -31 -47 -77z" />
    <glyph glyph-name="Racute" unicode="&#x154;" horiz-adv-x="1091" 
d="M584 694q95 0 161 25t105 67q48 51 76 136q28 84 28 172q0 108 -63 180t-203 72h-205l-137 -652h238zM1061 49l-10 -49h-201l-80 430q-22 119 -76 164q-52 43 -155 43h-205l-123 -578l145 -10l-10 -49h-377l11 49l149 10l272 1280l-145 11l10 53h428q176 0 259 -83
t83 -224q0 -86 -21 -162q-20 -73 -64 -134t-104 -97q-63 -38 -145 -48v-4q48 -17 86 -58q40 -43 56 -136l71 -398zM532 1532l314 217l43 -74l-334 -184z" />
    <glyph glyph-name="racute" unicode="&#x155;" horiz-adv-x="628" 
d="M330 762q86 88 158 137q77 53 182 53v-78q-93 0 -174 -41t-179 -133l-149 -700h-76l189 877l-121 16l10 47h184zM358 1110l314 217l43 -74l-334 -184z" />
    <glyph glyph-name="Rcommaaccent" unicode="&#x156;" horiz-adv-x="1091" 
d="M584 694q95 0 161 25t105 67q48 51 76 136q28 84 28 172q0 108 -63 180t-203 72h-205l-137 -652h238zM1061 49l-10 -49h-201l-80 430q-22 119 -76 164q-52 43 -155 43h-205l-123 -578l145 -10l-10 -49h-377l11 49l149 10l272 1280l-145 11l10 53h428q176 0 259 -83
t83 -224q0 -86 -21 -162q-20 -73 -64 -134t-104 -97q-63 -38 -145 -48v-4q48 -17 86 -58q40 -43 56 -136l71 -398zM360 -352q54 17 87 40t38 70q-33 0 -55 19q-20 17 -20 49q0 34 21 54q22 20 50 20q36 0 57 -24t21 -69q0 -66 -43 -119q-44 -55 -156 -77v37z" />
    <glyph glyph-name="rcommaaccent" unicode="&#x157;" horiz-adv-x="628" 
d="M330 762q86 88 158 137q77 53 182 53v-78q-93 0 -174 -41t-179 -133l-149 -700h-76l189 877l-121 16l10 47h184zM-27 -352q54 17 87 40t38 70q-33 0 -55 19q-20 17 -20 49q0 34 21 54q22 20 50 20q36 0 57 -24t21 -69q0 -66 -43 -119q-44 -55 -156 -77v37z" />
    <glyph glyph-name="Rcaron" unicode="&#x158;" horiz-adv-x="1091" 
d="M584 694q95 0 161 25t105 67q48 51 76 136q28 84 28 172q0 108 -63 180t-203 72h-205l-137 -652h238zM1061 49l-10 -49h-201l-80 430q-22 119 -76 164q-52 43 -155 43h-205l-123 -578l145 -10l-10 -49h-377l11 49l149 10l272 1280l-145 11l10 53h428q176 0 259 -83
t83 -224q0 -86 -21 -162q-20 -73 -64 -134t-104 -97q-63 -38 -145 -48v-4q48 -17 86 -58q40 -43 56 -136l71 -398zM483 1722l35 35l164 -176l231 176l29 -37l-246 -225h-43z" />
    <glyph glyph-name="rcaron" unicode="&#x159;" horiz-adv-x="628" 
d="M330 762q86 88 158 137q77 53 182 53v-78q-93 0 -174 -41t-179 -133l-149 -700h-76l189 877l-121 16l10 47h184zM270 1313l35 35l164 -177l231 177l29 -37l-246 -226h-43z" />
    <glyph glyph-name="Sacute" unicode="&#x15a;" horiz-adv-x="923" 
d="M37 307h53v-176q50 -41 118 -63q71 -23 173 -23q85 0 148 27t103 70q38 41 59 103q20 60 20 120t-16 111q-15 49 -45 89q-31 42 -73 78q-35 30 -100 74q-62 40 -97 71q-48 41 -76 80q-33 45 -50 93q-18 50 -18 110q0 82 26 144q27 65 75 110t116 69q65 23 149 23
q104 0 185 -25q84 -26 137 -67l-37 -215h-49v199q-53 25 -116 38q-54 11 -124 11q-126 0 -208 -71q-81 -71 -81 -200q0 -103 56 -173q56 -69 155 -136q74 -51 114 -85q51 -43 84 -88q34 -45 52 -99q18 -53 18 -119q0 -80 -22 -150q-23 -73 -72 -128q-50 -56 -127 -90
q-75 -33 -188 -33q-129 0 -219 36t-150 99zM485 1532l314 217l43 -74l-334 -184z" />
    <glyph glyph-name="sacute" unicode="&#x15b;" horiz-adv-x="729" 
d="M307 -14q-103 0 -170 29q-71 31 -117 71l33 152h43v-136q38 -28 90 -46q48 -17 121 -17q93 0 153 51t60 143q0 43 -10 73q-11 32 -32 58t-54 51t-78 54q-23 15 -67 45q-34 23 -59 51q-26 30 -41 66q-15 37 -15 88q0 58 22 101t61 74q37 30 87 45t102 15q62 0 117 -16
q59 -17 104 -55l-30 -150h-45v131q-27 16 -63 27q-34 10 -83 10q-86 0 -142 -46t-56 -132q0 -36 8 -63q7 -24 26 -46q13 -16 46 -41q22 -17 69 -45q41 -25 87 -58q39 -28 65 -60q26 -31 41 -73q14 -38 14 -95q0 -62 -24 -110q-25 -50 -62 -80q-38 -31 -91 -49
q-50 -17 -110 -17zM317 1110l314 217l43 -74l-334 -184z" />
    <glyph glyph-name="Scircumflex" unicode="&#x15c;" horiz-adv-x="923" 
d="M37 307h53v-176q50 -41 118 -63q71 -23 173 -23q85 0 148 27t103 70q38 41 59 103q20 60 20 120t-16 111q-15 49 -45 89q-31 42 -73 78q-35 30 -100 74q-62 40 -97 71q-48 41 -76 80q-33 45 -50 93q-18 50 -18 110q0 82 26 144q27 65 75 110t116 69q65 23 149 23
q104 0 185 -25q84 -26 137 -67l-37 -215h-49v199q-53 25 -116 38q-54 11 -124 11q-126 0 -208 -71q-81 -71 -81 -200q0 -103 56 -173q56 -69 155 -136q74 -51 114 -85q51 -43 84 -88q34 -45 52 -99q18 -53 18 -119q0 -80 -22 -150q-23 -73 -72 -128q-50 -56 -127 -90
q-75 -33 -188 -33q-129 0 -219 36t-150 99zM436 1532l246 225h43l170 -227l-35 -35l-164 176l-231 -176z" />
    <glyph glyph-name="scircumflex" unicode="&#x15d;" horiz-adv-x="729" 
d="M307 -14q-103 0 -170 29q-71 31 -117 71l33 152h43v-136q38 -28 90 -46q48 -17 121 -17q93 0 153 51t60 143q0 43 -10 73q-11 32 -32 58t-54 51t-78 54q-23 15 -67 45q-34 23 -59 51q-26 30 -41 66q-15 37 -15 88q0 58 22 101t61 74q37 30 87 45t102 15q62 0 117 -16
q59 -17 104 -55l-30 -150h-45v131q-27 16 -63 27q-34 10 -83 10q-86 0 -142 -46t-56 -132q0 -36 8 -63q7 -24 26 -46q13 -16 46 -41q22 -17 69 -45q41 -25 87 -58q39 -28 65 -60q26 -31 41 -73q14 -38 14 -95q0 -62 -24 -110q-25 -50 -62 -80q-38 -31 -91 -49
q-50 -17 -110 -17zM266 1110l246 225h43l170 -227l-35 -35l-164 176l-231 -176z" />
    <glyph glyph-name="Scedilla" unicode="&#x15e;" horiz-adv-x="923" 
d="M258 -403q-41 0 -74 15q-31 14 -55 38l31 45q23 -19 46 -30q22 -11 58 -11q48 0 70 26t22 72q0 80 -82 80q-14 0 -34 -2q-11 -1 -35 -8l100 168q-96 7 -172 43q-72 34 -123 88l27 186h53v-176q50 -41 118 -63q71 -23 173 -23q85 0 148 27t103 70q38 41 59 103
q20 60 20 120t-16 111q-15 49 -45 89q-31 42 -73 78q-35 30 -100 74q-62 40 -97 71q-48 41 -76 80q-33 45 -50 93q-18 50 -18 110q0 82 26 144q27 65 75 110t116 69q65 23 149 23q104 0 185 -25q84 -26 137 -67l-37 -215h-49v199q-53 25 -116 38q-54 11 -124 11
q-126 0 -208 -71q-81 -71 -81 -200q0 -103 56 -173q56 -69 155 -136q74 -51 114 -85q51 -43 84 -88q34 -45 52 -99q18 -53 18 -119q0 -80 -22 -150q-23 -73 -72 -128q-50 -56 -127 -90q-75 -33 -188 -33h-17l-63 -97q52 -6 89 -41q36 -34 36 -94q0 -77 -44 -118
q-42 -39 -122 -39z" />
    <glyph glyph-name="scedilla" unicode="&#x15f;" horiz-adv-x="729" 
d="M178 -403q-41 0 -74 15q-31 14 -55 38l31 45q23 -19 46 -30q22 -11 58 -11q48 0 70 27q22 26 22 71q0 80 -81 80q-15 0 -35 -2q-11 -1 -35 -8l102 170q-65 10 -118 35q-51 24 -89 59l33 152h43v-136q38 -28 90 -46q48 -17 121 -17q93 0 153 51t60 143q0 43 -10 73
q-11 32 -32 58t-54 51t-78 54q-23 15 -67 45q-34 23 -59 51q-26 30 -41 66q-15 37 -15 88q0 58 22 101t61 74q37 30 87 45t102 15q62 0 117 -16q59 -17 104 -55l-30 -150h-45v131q-27 16 -63 27q-34 10 -83 10q-86 0 -142 -46t-56 -132q0 -36 8 -63q7 -24 26 -46
q13 -16 46 -41q22 -17 69 -45q41 -25 87 -58q39 -28 65 -60q26 -31 41 -73q14 -38 14 -95q0 -62 -24 -110q-25 -50 -62 -80q-38 -31 -91 -49q-50 -17 -110 -17h-24l-64 -97q52 -6 89 -41q36 -34 36 -94q0 -77 -44 -118q-42 -39 -122 -39z" />
    <glyph glyph-name="Scaron" unicode="&#x160;" horiz-adv-x="923" 
d="M37 307h53v-176q50 -41 118 -63q71 -23 173 -23q85 0 148 27t103 70q38 41 59 103q20 60 20 120t-16 111q-15 49 -45 89q-31 42 -73 78q-35 30 -100 74q-62 40 -97 71q-48 41 -76 80q-33 45 -50 93q-18 50 -18 110q0 82 26 144q27 65 75 110t116 69q65 23 149 23
q104 0 185 -25q84 -26 137 -67l-37 -215h-49v199q-53 25 -116 38q-54 11 -124 11q-126 0 -208 -71q-81 -71 -81 -200q0 -103 56 -173q56 -69 155 -136q74 -51 114 -85q51 -43 84 -88q34 -45 52 -99q18 -53 18 -119q0 -80 -22 -150q-23 -73 -72 -128q-50 -56 -127 -90
q-75 -33 -188 -33q-129 0 -219 36t-150 99zM436 1722l35 35l164 -176l231 176l29 -37l-246 -225h-43z" />
    <glyph glyph-name="scaron" unicode="&#x161;" horiz-adv-x="729" 
d="M307 -14q-103 0 -170 29q-71 31 -117 71l33 152h43v-136q38 -28 90 -46q48 -17 121 -17q93 0 153 51t60 143q0 43 -10 73q-11 32 -32 58t-54 51t-78 54q-23 15 -67 45q-34 23 -59 51q-26 30 -41 66q-15 37 -15 88q0 58 22 101t61 74q37 30 87 45t102 15q62 0 117 -16
q59 -17 104 -55l-30 -150h-45v131q-27 16 -63 27q-34 10 -83 10q-86 0 -142 -46t-56 -132q0 -36 8 -63q7 -24 26 -46q13 -16 46 -41q22 -17 69 -45q41 -25 87 -58q39 -28 65 -60q26 -31 41 -73q14 -38 14 -95q0 -62 -24 -110q-25 -50 -62 -80q-38 -31 -91 -49
q-50 -17 -110 -17zM270 1313l35 35l164 -177l231 177l29 -37l-246 -226h-43z" />
    <glyph glyph-name="Tcommaaccent" unicode="&#x162;" horiz-adv-x="1132" 
d="M403 -403q-40 0 -73 15t-56 38l31 45q23 -19 46 -30q22 -11 59 -11q46 0 69 27q23 28 23 71q0 80 -82 80q-15 0 -35 -2q-11 -1 -35 -8l109 178h-197l10 49l170 10l273 1287h-363l-80 -277h-53l72 334h954l-71 -334h-54l39 277h-362l-273 -1287l166 -10l-10 -49h-164
l-72 -111q54 -6 90 -41q35 -34 35 -94q0 -77 -44 -118q-42 -39 -122 -39z" />
    <glyph glyph-name="tcommaaccent" unicode="&#x163;" horiz-adv-x="561" 
d="M150 -403q-41 0 -74 15t-56 38l31 45q23 -19 46 -30q22 -11 59 -11q46 0 69 27q23 28 23 71q0 80 -82 80q-15 0 -35 -2q-11 -1 -35 -8l101 166q-38 5 -60 25q-22 21 -22 63q0 29 6 59l160 750h-119l12 55h119l53 254l78 20l-59 -274h196l-12 -55h-195l-157 -750
q-7 -33 -7 -49q0 -43 50 -43q27 0 59 8q28 7 72 25l10 -39q-31 -20 -59 -32q-29 -12 -68 -17l-64 -99q54 -6 90 -41q35 -34 35 -94q0 -77 -44 -118q-42 -39 -121 -39z" />
    <glyph glyph-name="Tcaron" unicode="&#x164;" horiz-adv-x="1132" 
d="M680 0h-418l10 49l170 10l273 1287h-363l-80 -277h-53l72 334h954l-71 -334h-54l39 277h-362l-273 -1287l166 -10zM590 1722l35 35l163 -176l232 176l29 -37l-246 -225h-43z" />
    <glyph glyph-name="tcaron" unicode="&#x165;" horiz-adv-x="561" 
d="M174 940h119l53 254l78 20l-59 -274h196l-12 -55h-195l-157 -750q-7 -33 -7 -49q0 -43 50 -43q27 0 59 8q28 7 72 25l10 -39q-31 -21 -74 -37q-38 -14 -84 -14q-48 0 -78 21t-30 69q0 29 6 59l160 750h-119zM520 1116l76 361h82l-111 -361h-47z" />
    <glyph glyph-name="Tbar" unicode="&#x166;" horiz-adv-x="1132" 
d="M340 797h258l117 549h-363l-80 -277h-53l72 334h954l-71 -334h-54l39 277h-362l-117 -549h281l-13 -58h-280l-144 -680l166 -10l-10 -49h-418l10 49l170 10l144 680h-258z" />
    <glyph glyph-name="tbar" unicode="&#x167;" horiz-adv-x="561" 
d="M94 565h117l70 320h-119l12 55h119l53 254l78 20l-59 -274h196l-12 -55h-195l-67 -320h196l-12 -53h-197l-77 -377q-7 -33 -7 -49q0 -43 50 -43q27 0 59 8q28 7 72 25l10 -39q-31 -21 -74 -37q-38 -14 -84 -14q-48 0 -78 21t-30 69q0 29 6 59l80 377h-119z" />
    <glyph glyph-name="Utilde" unicode="&#x168;" horiz-adv-x="1173" 
d="M471 1403l-213 -1000q-8 -43 -12 -74t-4 -63q0 -118 61 -167q62 -50 166 -50q63 0 122 17q58 17 103 40q44 23 86 55q47 36 68 56l242 1122l-146 11l10 53h230l-287 -1344l145 -10l-10 -49h-209l15 145q-70 -59 -168 -109q-97 -50 -215 -50q-132 0 -211 70
q-80 71 -80 218q0 28 4 61q4 37 12 75l197 929l-146 11l11 53h229zM512 1540q29 56 67 87q36 30 83 30q28 0 55 -12q18 -8 52 -26q2 -1 20.5 -11t28.5 -15q24 -12 48 -12q38 0 59 23q23 24 44 57l43 -25q-32 -58 -68 -91q-35 -32 -82 -32q-28 0 -57 13q-30 13 -52 25
q-34 18 -50 26q-24 12 -46 12q-40 0 -60 -23q-23 -27 -44 -57z" />
    <glyph glyph-name="utilde" unicode="&#x169;" horiz-adv-x="958" 
d="M641 160q-85 -73 -175 -123q-92 -51 -177 -51q-87 0 -137 48t-50 138q0 33 11 86l131 619l-123 16l10 47h203l-146 -678q-10 -49 -10 -78q0 -68 33 -103q33 -34 92 -34q85 0 171 50q77 45 175 118l156 725h76l-168 -786q-2 -11 -6 -28t-5 -22q-4 -19 -4 -30q0 -21 23 -21
h115v-33q-87 -34 -142 -34q-36 0 -54 12q-17 11 -20 35t4 54q1 4 7 30.5t10 42.5zM348 1137q29 56 67 87q35 29 83 29q28 0 55 -12q18 -8 52 -26q17 -9 49 -25q24 -12 48 -12q38 0 59 22q23 24 44 57l43 -24q-32 -58 -68 -91q-35 -32 -82 -32q-30 0 -57 12q-18 8 -52 26
q-2 1 -21 11t-28 15q-24 12 -46 12q-40 0 -61 -24q-26 -30 -44 -56z" />
    <glyph glyph-name="Umacron" unicode="&#x16a;" horiz-adv-x="1173" 
d="M471 1403l-213 -1000q-8 -43 -12 -74t-4 -63q0 -118 61 -167q62 -50 166 -50q63 0 122 17q58 17 103 40q44 23 86 55q47 36 68 56l242 1122l-146 11l10 53h230l-287 -1344l145 -10l-10 -49h-209l15 145q-70 -59 -168 -109q-97 -50 -215 -50q-132 0 -211 70
q-80 71 -80 218q0 28 4 61q4 37 12 75l197 929l-146 11l11 53h229zM580 1602h415l-14 -64h-416z" />
    <glyph glyph-name="umacron" unicode="&#x16b;" horiz-adv-x="958" 
d="M641 160q-85 -73 -175 -123q-92 -51 -177 -51q-87 0 -137 48t-50 138q0 33 11 86l131 619l-123 16l10 47h203l-146 -678q-10 -49 -10 -78q0 -68 33 -103q33 -34 92 -34q85 0 171 50q77 45 175 118l156 725h76l-168 -786q-2 -11 -6 -28t-5 -22q-4 -19 -4 -30q0 -21 23 -21
h115v-33q-87 -34 -142 -34q-36 0 -54 12q-17 11 -20 35t4 54q1 4 7 30.5t10 42.5zM412 1233h415l-14 -64h-416z" />
    <glyph glyph-name="Ubreve" unicode="&#x16c;" horiz-adv-x="1173" 
d="M471 1403l-213 -1000q-8 -43 -12 -74t-4 -63q0 -118 61 -167q62 -50 166 -50q63 0 122 17q58 17 103 40q44 23 86 55q47 36 68 56l242 1122l-146 11l10 53h230l-287 -1344l145 -10l-10 -49h-209l15 145q-70 -59 -168 -109q-97 -50 -215 -50q-132 0 -211 70
q-80 71 -80 218q0 28 4 61q4 37 12 75l197 929l-146 11l11 53h229zM770 1513q-82 0 -127 53q-46 53 -53 126l49 18q6 -52 36 -90q30 -37 95 -37q64 0 104 35q39 35 68 92l47 -18q-28 -76 -84 -127q-57 -52 -135 -52z" />
    <glyph glyph-name="ubreve" unicode="&#x16d;" horiz-adv-x="958" 
d="M641 160q-85 -73 -175 -123q-92 -51 -177 -51q-87 0 -137 48t-50 138q0 33 11 86l131 619l-123 16l10 47h203l-146 -678q-10 -49 -10 -78q0 -68 33 -103q33 -34 92 -34q85 0 171 50q77 45 175 118l156 725h76l-168 -786q-2 -11 -6 -28t-5 -22q-4 -19 -4 -30q0 -21 23 -21
h115v-33q-87 -34 -142 -34q-36 0 -54 12q-17 11 -20 35t4 54q1 4 7 30.5t10 42.5zM586 1112q-82 0 -127 52q-46 53 -53 126l49 19q6 -54 35 -90q30 -37 96 -37q64 0 104 35q39 35 68 92l47 -19q-28 -76 -84 -127q-55 -51 -135 -51z" />
    <glyph glyph-name="Uring" unicode="&#x16e;" horiz-adv-x="1173" 
d="M471 1403l-213 -1000q-8 -43 -12 -74t-4 -63q0 -118 61 -167q62 -50 166 -50q63 0 122 17q58 17 103 40q44 23 86 55q47 36 68 56l242 1122l-146 11l10 53h230l-287 -1344l145 -10l-10 -49h-209l15 145q-70 -59 -168 -109q-97 -50 -215 -50q-132 0 -211 70
q-80 71 -80 218q0 28 4 61q4 37 12 75l197 929l-146 11l11 53h229zM760 1479q-72 0 -108 41q-36 40 -36 102q0 20 1 26q0 3 1.5 9l2.5 10q12 59 56 106q43 46 116 46q71 0 107 -41q36 -40 36 -103q0 -19 -1 -25t-3 -20q-11 -57 -56 -105q-43 -46 -116 -46zM758 1530
q41 0 70 26q30 27 42 82q2 4 3 18q1 9 1 23q0 46 -22 67t-57 21q-42 0 -71 -26q-30 -27 -42 -82q-2 -5 -3 -18q-1 -9 -1 -23q0 -46 22 -67q23 -21 58 -21z" />
    <glyph glyph-name="uring" unicode="&#x16f;" horiz-adv-x="958" 
d="M641 160q-85 -73 -175 -123q-92 -51 -177 -51q-87 0 -137 48t-50 138q0 33 11 86l131 619l-123 16l10 47h203l-146 -678q-10 -49 -10 -78q0 -68 33 -103q33 -34 92 -34q85 0 171 50q77 45 175 118l156 725h76l-168 -786q-2 -11 -6 -28t-5 -22q-4 -19 -4 -30q0 -21 23 -21
h115v-33q-87 -34 -142 -34q-36 0 -54 12q-17 11 -20 35t4 54q1 4 7 30.5t10 42.5zM575 1077q-71 0 -107 41t-36 103q0 19 1 25t3 20q11 56 57 105q43 46 115 46t108 -41q36 -40 36 -102q0 -20 -1 -26q-2 -12 -3 -19q-11 -57 -57 -106q-43 -46 -116 -46zM573 1128q41 0 71 27
t42 82q2 5 3 17q1 9 1 24q0 46 -22 67t-58 21q-40 0 -70 -27t-42 -82q-2 -5 -3 -17q-1 -9 -1 -23q0 -46 22 -67q24 -22 57 -22z" />
    <glyph glyph-name="Uhungarumlaut" unicode="&#x170;" horiz-adv-x="1173" 
d="M471 1403l-213 -1000q-8 -43 -12 -74t-4 -63q0 -118 61 -167q62 -50 166 -50q63 0 122 17q58 17 103 40q44 23 86 55q47 36 68 56l242 1122l-146 11l10 53h230l-287 -1344l145 -10l-10 -49h-209l15 145q-70 -59 -168 -109q-97 -50 -215 -50q-132 0 -211 70
q-80 71 -80 218q0 28 4 61q4 37 12 75l197 929l-146 11l11 53h229zM813 1501l258 311l55 -45l-274 -292zM567 1501l258 311l56 -45l-273 -292z" />
    <glyph glyph-name="uhungarumlaut" unicode="&#x171;" horiz-adv-x="958" 
d="M641 160q-85 -73 -175 -123q-92 -51 -177 -51q-87 0 -137 48t-50 138q0 33 11 86l131 619l-123 16l10 47h203l-146 -678q-10 -49 -10 -78q0 -68 33 -103q33 -34 92 -34q85 0 171 50q77 45 175 118l156 725h76l-168 -786q-2 -11 -6 -28t-5 -22q-4 -19 -4 -30q0 -21 23 -21
h115v-33q-87 -34 -142 -34q-36 0 -54 12q-17 11 -20 35t4 54q1 4 7 30.5t10 42.5zM629 1098l258 311l55 -45l-274 -293zM383 1098l258 311l55 -45l-272 -293z" />
    <glyph glyph-name="Uogonek" unicode="&#x172;" horiz-adv-x="1173" 
d="M762 -403q-63 0 -105 32q-43 33 -43 101q0 37 17 74q16 35 45 70q27 33 66 67q38 33 81 63l15 141q-70 -59 -168 -109q-97 -50 -215 -50q-132 0 -211 70q-80 71 -80 218q0 28 4 61q4 37 12 75l197 929l-146 11l11 53h229l-213 -1000q-8 -43 -12 -74t-4 -63
q0 -118 61 -167q62 -50 166 -50q63 0 122 17q58 17 103 40q44 23 86 55q47 36 68 56l242 1122l-146 11l10 53h230l-287 -1344l145 -10l-10 -49h-149q-94 -81 -145 -141q-54 -63 -54 -127q0 -37 23 -58q21 -20 57 -20q39 0 63 8q21 7 52 25l16 -45q-21 -14 -56 -31
q-29 -14 -77 -14z" />
    <glyph glyph-name="uogonek" unicode="&#x173;" horiz-adv-x="958" 
d="M680 -4q-48 11 -52 51q-5 42 13 113q-85 -73 -175 -123q-92 -51 -177 -51q-87 0 -137 48t-50 138q0 33 11 86l131 619l-123 16l10 47h203l-146 -678q-10 -49 -10 -78q0 -68 33 -103q33 -34 92 -34q85 0 171 50q77 45 175 118l156 725h76l-168 -786q-2 -11 -6 -28t-5 -22
q-4 -19 -4 -30q0 -21 23 -21h115v-33q-55 -23 -101 -52q-48 -31 -89 -70q-40 -39 -64 -82q-25 -45 -25 -84q0 -37 23 -58q21 -20 57 -20q39 0 63 8q21 7 52 25l16 -45q-21 -14 -56 -31q-29 -14 -77 -14q-63 0 -105 32q-43 33 -43 101q0 71 59 139t134 127z" />
    <glyph glyph-name="Wcircumflex" unicode="&#x174;" horiz-adv-x="1685" 
d="M1028 1085q-2 114 -2 140q0 36 2 102h-2q-16 -48 -40 -105q-38 -91 -60 -137l-500 -1085h-102l-2 1339l-117 11l10 53h344l-10 -53l-148 -11l-2 -1017q0 -88 -1 -129q-2 -87 -5 -130h2q15 46 46 127q18 48 55 125l499 1088h103l18 -1088q2 -70 -1 -129q-4 -81 -7 -123h2
q17 60 45 124q6 15 25.5 60t29.5 68l445 1024l-139 11l10 53h342l-10 -53l-125 -11l-588 -1339h-103zM838 1532l245 225h43l170 -227l-34 -35l-164 176l-232 -176z" />
    <glyph glyph-name="wcircumflex" unicode="&#x175;" horiz-adv-x="1249" 
d="M297 0h-86l-43 877l-107 16l11 47h170l24 -668q2 -52 3 -111t-3 -93h2q20 49 38 87q16 33 48 103l318 682h88l39 -670q5 -52 6 -111q1 -58 0 -91h2q11 33 33 84q25 57 49 106l315 682h76l-446 -940h-86l-43 717q-5 55 -5 92q0 34 2 72h-2q-9 -35 -25 -73q-24 -58 -40 -91
zM504 1110l246 225h43l170 -227l-35 -35l-164 176l-232 -176z" />
    <glyph glyph-name="Ycircumflex" unicode="&#x176;" horiz-adv-x="1095" 
d="M920 1350l10 53h348l-10 -53l-125 -11l-539 -798l-102 -482l145 -10l-10 -49h-377l10 49l150 10l102 484l-200 796l-117 11l10 53h346l-10 -53l-148 -11l140 -559q17 -62 24 -99q10 -48 13 -81h2q17 41 44 88q30 52 60 94l373 557zM545 1532l246 225h43l170 -227l-35 -35
l-164 176l-232 -176z" />
    <glyph glyph-name="ycircumflex" unicode="&#x177;" horiz-adv-x="815" 
d="M250 0l-76 877l-113 16l11 47h170l57 -643q9 -106 11 -152q3 -60 3 -104h2q20 46 53 113q45 90 72 143l330 643h76l-512 -991q-48 -94 -85 -149q-40 -60 -85 -103q-44 -42 -103 -72q-60 -30 -139 -53l-18 55q70 21 134 57q58 32 100 74q47 47 82 103q41 66 77 139h-47z
M274 1110l246 225h43l170 -227l-35 -35l-163 176l-232 -176z" />
    <glyph glyph-name="Ydieresis" unicode="&#x178;" horiz-adv-x="1095" 
d="M920 1350l10 53h348l-10 -53l-125 -11l-539 -798l-102 -482l145 -10l-10 -49h-377l10 49l150 10l102 484l-200 796l-117 11l10 53h346l-10 -53l-148 -11l140 -559q17 -62 24 -99q10 -48 13 -81h2q17 41 44 88q30 52 60 94l373 557zM920 1507q-31 0 -50 19q-18 18 -18 49
q0 32 17 49q18 18 49 18t49 -18t18 -49q0 -32 -17 -49q-19 -19 -48 -19zM616 1507q-30 0 -49 19q-18 18 -18 49q0 32 17 49q18 18 48 18q32 0 50 -18t18 -49q0 -32 -17 -49q-19 -19 -49 -19z" />
    <glyph glyph-name="Zacute" unicode="&#x179;" horiz-adv-x="944" 
d="M12 59l930 1287h-536l-72 -195h-53l55 252h711l-15 -60l-926 -1284h574l61 193h56l-54 -252h-743zM543 1532l313 217l43 -74l-334 -184z" />
    <glyph glyph-name="zacute" unicode="&#x17a;" horiz-adv-x="798" 
d="M16 72l689 813h-398l-51 -121h-49l33 176h559l-17 -72l-688 -813h455l53 142h49l-37 -197h-614zM379 1110l313 217l43 -74l-334 -184z" />
    <glyph glyph-name="Zdotaccent" unicode="&#x17b;" horiz-adv-x="944" 
d="M12 59l930 1287h-536l-72 -195h-53l55 252h711l-15 -60l-926 -1284h574l61 193h56l-54 -252h-743zM715 1516q-31 0 -50 19q-20 20 -20 50q0 29 19 50q18 20 49 20q30 0 50 -20q19 -19 19 -50t-18 -50t-49 -19z" />
    <glyph glyph-name="zdotaccent" unicode="&#x17c;" horiz-adv-x="798" 
d="M16 72l689 813h-398l-51 -121h-49l33 176h559l-17 -72l-688 -813h455l53 142h49l-37 -197h-614zM551 1194q-31 0 -50 19q-20 20 -20 51q0 29 19 50q18 19 49 19t50 -19t19 -50q0 -32 -18 -51t-49 -19z" />
    <glyph glyph-name="Zcaron" unicode="&#x17d;" horiz-adv-x="944" 
d="M12 59l930 1287h-536l-72 -195h-53l55 252h711l-15 -60l-926 -1284h574l61 193h56l-54 -252h-743zM494 1722l34 35l164 -176l232 176l28 -37l-245 -225h-43z" />
    <glyph glyph-name="zcaron" unicode="&#x17e;" horiz-adv-x="798" 
d="M16 72l689 813h-398l-51 -121h-49l33 176h559l-17 -72l-688 -813h455l53 142h49l-37 -197h-614zM332 1313l35 35l163 -177l232 177l29 -37l-246 -226h-43z" />
    <glyph glyph-name="longs" unicode="&#x17f;" horiz-adv-x="456" 
d="M141 -37q-15 -78 -35 -147q-19 -65 -45 -112q-27 -48 -64 -85q-39 -39 -93 -68l-23 37q34 22 65 56q29 32 49 75q21 44 39 110q17 62 36 157l172 891l-121 16l10 47h123l59 311q22 116 89 166q65 49 147 49q54 0 88 -11q35 -11 65 -30l-18 -47q-33 18 -60 25q-32 8 -73 8
q-58 0 -102 -38t-62 -132z" />
    <glyph glyph-name="uni018F" unicode="&#x18f;" horiz-adv-x="1052" 
d="M80 324q0 94 25 195q25 100 88 179h716q31 141 31 269q0 193 -67 289t-211 96q-48 0 -104 -9q-43 -7 -89 -26q-43 -18 -84 -45q-50 -33 -88 -64l-29 49q96 85 191 123q93 37 203 37q183 0 271 -107q89 -109 89 -343q0 -84 -11 -160q-12 -85 -31 -164q-18 -78 -47 -159
q-19 -55 -59 -142q-39 -80 -86 -142q-52 -68 -110 -113q-61 -48 -134 -75q-69 -26 -159 -26q-87 0 -144 29q-59 30 -95 78q-36 47 -51 109q-15 60 -15 122zM803 373q26 56 52 126q23 62 40 138h-651q-20 -26 -34 -62q-17 -42 -27 -79q-11 -41 -16 -88q-5 -50 -5 -84
q0 -58 12 -108q12 -51 39 -88q27 -38 70 -60q44 -23 102 -23q75 0 140 30q63 29 117 77q50 44 92 105q40 57 69 116z" />
    <glyph glyph-name="florin" unicode="&#x192;" 
d="M371 879h176l61 290q29 137 95 193q65 55 163 55q53 0 88 -14q39 -16 66 -37l-29 -49q-33 21 -56 31q-27 12 -75 12q-64 0 -108 -44q-43 -43 -66 -149l-61 -288h221l-15 -66h-221l-262 -1237h-78l262 1237h-176z" />
    <glyph glyph-name="uni01B5" unicode="&#x1b5;" horiz-adv-x="944" 
d="M246 756h268l428 590h-536l-72 -195h-53l55 252h711l-15 -60l-424 -587h258l-12 -58h-287l-461 -639h574l61 193h56l-54 -252h-743l12 59l461 639h-240z" />
    <glyph glyph-name="uni01B6" unicode="&#x1b6;" horiz-adv-x="798" 
d="M197 549h223l285 336h-398l-51 -121h-49l33 176h559l-17 -72l-270 -319h176l-12 -51h-207l-375 -443h455l53 142h49l-37 -197h-614l16 72l361 426h-193z" />
    <glyph glyph-name="Aringacute" unicode="&#x1fa;" horiz-adv-x="1134" 
d="M825 492h-487l-221 -422l125 -21l-11 -49h-344l11 49l137 19l688 1302q-39 16 -57 51q-19 36 -19 80q0 20 1 26q2 12 3 19q11 57 57 106q43 46 115 46t108 -41t36 -103q0 -19 -1 -25t-3 -20q-11 -53 -48 -96t-96 -53l127 -1292l117 -19l-10 -49h-342l10 49l147 19z
M369 551h450l-51 520q-5 60 -7 142q-1 50 -1 114h-2q-22 -58 -47 -113q-31 -69 -68 -143zM788 1409q41 0 71 27t42 82q2 5 3 17q1 9 1 24q0 45 -22 66q-24 22 -58 22q-40 0 -70 -27t-42 -82q-2 -5 -3 -17q-1 -9 -1 -24q0 -45 22 -66q24 -22 57 -22zM668 1739l313 217l43 -74
l-334 -184z" />
    <glyph glyph-name="aringacute" unicode="&#x1fb;" horiz-adv-x="944" 
d="M326 43q47 0 89 16q41 16 84 41q22 13 73 53q16 13 61 50l119 561q-15 18 -47 50q-21 21 -54 42q-30 19 -62 30t-77 11q-76 0 -133 -42q-56 -41 -100 -114q-32 -52 -51 -105q-23 -65 -38 -121q-16 -63 -24 -123q-8 -64 -8 -111q0 -114 46 -176t122 -62zM623 145
q-27 -25 -65 -57q-36 -29 -73 -51q-37 -21 -81 -37q-39 -14 -89 -14q-95 0 -164 72t-69 223q0 63 9 131q8 61 28 132q16 58 43 125q21 54 55 109q56 93 131 134q76 42 162 42q50 0 88 -13q41 -14 70 -33t54 -44q24 -24 42 -45l55 121h47l-168 -786q-2 -10 -5.5 -26.5
t-4.5 -23.5q-4 -19 -4 -30q0 -21 23 -21h114v-33q-87 -34 -141 -34q-37 0 -54 13q-18 13 -21 36q-3 21 2 51q4 24 16 59zM602 1044q-71 0 -107 41t-36 103q0 19 1 25t3 20q11 57 56 105q43 46 116 46q71 0 107 -41t36 -102q0 -20 -1 -26q-2 -12 -3 -19q-11 -57 -56 -105
q-44 -47 -116 -47zM600 1096q42 0 71 26q30 27 42 82q1 4 3 18q1 9 1 23q0 46 -23 67q-22 21 -57 21q-42 0 -71 -26q-30 -27 -42 -82q-2 -5 -3 -18q-1 -9 -1 -23q0 -46 23 -67t57 -21zM520 1493l314 217l43 -74l-334 -184z" />
    <glyph glyph-name="AEacute" unicode="&#x1fc;" horiz-adv-x="1681" 
d="M1448 59l61 193h56l-54 -252h-841l10 49l149 10l97 451h-465l-342 -440l125 -21l-11 -49h-346l11 49l137 19l983 1271l-146 11l11 53h880l-32 -252h-52v195h-495l-121 -572h387l51 152h51l-77 -361h-52l15 152h-387l-140 -658h537zM506 569h432l104 490q6 27 19.5 84
t18.5 82q15 66 36 127h-2zM1174 1532l313 217l43 -74l-334 -184z" />
    <glyph glyph-name="aeacute" unicode="&#x1fd;" horiz-adv-x="1339" 
d="M291 45q99 0 181 58q82 59 138 135q0 73 1 105q1 40 10 101h-177q-176 0 -249 -51q-74 -51 -74 -174q0 -81 46 -127q47 -47 124 -47zM885 -14q-99 0 -166 48q-68 48 -96 146q-22 -29 -64 -71q-38 -38 -77 -63q-44 -28 -91 -44q-48 -16 -106 -16q-107 0 -174 61
q-68 62 -68 172q0 156 104 215q105 60 297 60h185l39 188q6 33 6 63q0 68 -43 108t-125 40q-68 0 -134 -22q-60 -20 -136 -68l-25 41q68 51 143 81q71 29 162 29q98 0 158 -48q59 -48 67 -134q51 76 131 130q77 52 187 52q65 0 110 -18q44 -18 74 -49q28 -30 42 -71
q13 -39 13 -81q0 -89 -50 -147q-50 -57 -133 -89q-80 -31 -191 -43q-108 -12 -226 -12q-1 -7 -8 -72q-4 -37 -4 -73q0 -134 57 -194t162 -60q68 0 130 20q60 19 126 66l27 -37q-68 -60 -150 -84t-153 -24zM772 692q-43 -83 -65 -198q141 0 238 15q95 15 159 46q61 30 89 76
q28 47 28 104q0 73 -39 120q-39 46 -125 46q-53 0 -96 -18q-41 -17 -79 -47q-34 -27 -63 -67q-22 -31 -47 -77zM647 1110l314 217l43 -74l-334 -184z" />
    <glyph glyph-name="Oslashacute" unicode="&#x1fe;" horiz-adv-x="1185" 
d="M170 160q-47 96 -47 231q0 95 17 201q18 116 49 226q30 108 79 219q47 107 107 180q82 105 180 152q99 48 219 48q213 0 307 -133l148 180l51 -39l-164 -202q39 -95 39 -215q0 -93 -16 -201q-16 -104 -47 -224q-29 -109 -77 -218q-48 -107 -106 -179q-82 -105 -180 -152
q-99 -48 -219 -48q-207 0 -301 116l-164 -200l-51 39zM205 383q0 -95 22 -154l803 990q-73 139 -264 139q-113 0 -200 -54q-86 -54 -156 -161q-45 -69 -83 -169q-38 -101 -65 -205t-42 -208q-15 -102 -15 -178zM518 45q113 0 200 54q88 55 157 161q41 64 81 168
q38 99 63 204q24 100 40 207q14 95 14 177q0 71 -16 135l-799 -987q78 -119 260 -119zM657 1532l314 217l43 -74l-334 -184z" />
    <glyph glyph-name="oslashacute" unicode="&#x1ff;" horiz-adv-x="913" 
d="M129 125q-47 79 -47 205q0 107 23 206q24 104 69 189q63 122 153 176q89 53 197 53q71 0 129 -23q60 -24 101 -71l133 156l43 -41l-142 -166q19 -36 32 -85q11 -43 11 -103q0 -108 -22 -208q-22 -98 -64 -186q-61 -128 -151 -185q-88 -56 -197 -56q-69 0 -129 21
q-56 19 -102 69l-148 -174l-43 41zM160 326q0 -89 20 -142l529 623q-61 94 -195 94q-91 0 -156 -46q-66 -46 -118 -157q-39 -83 -60 -181q-20 -94 -20 -191zM676 254q36 80 56 180q20 102 20 193q0 64 -17 118l-526 -618q63 -90 190 -90q181 0 277 217zM432 1110l313 217
l43 -74l-333 -184z" />
    <glyph glyph-name="Scommaaccent" unicode="&#x218;" horiz-adv-x="923" 
d="M37 307h53v-176q50 -41 118 -63q71 -23 173 -23q85 0 148 27t103 70q38 41 59 103q20 60 20 120t-16 111q-15 49 -45 89q-31 42 -73 78q-35 30 -100 74q-62 40 -97 71q-48 41 -76 80q-33 45 -50 93q-18 50 -18 110q0 82 26 144q27 65 75 110t116 69q65 23 149 23
q104 0 185 -25q84 -26 137 -67l-37 -215h-49v199q-53 25 -116 38q-54 11 -124 11q-126 0 -208 -71q-81 -71 -81 -200q0 -103 56 -173q56 -69 155 -136q74 -51 114 -85q51 -43 84 -88q34 -45 52 -99q18 -53 18 -119q0 -80 -22 -150q-23 -73 -72 -128q-50 -56 -127 -90
q-75 -33 -188 -33q-129 0 -219 36t-150 99zM170 -352q54 17 87 40t38 70q-33 0 -55 19q-21 18 -21 49q0 34 22 54t50 20q35 0 56 -24q22 -25 22 -69q0 -66 -43 -119q-44 -55 -156 -77v37z" />
    <glyph glyph-name="scommaaccent" unicode="&#x219;" horiz-adv-x="729" 
d="M307 -14q-103 0 -170 29q-71 31 -117 71l33 152h43v-136q38 -28 90 -46q48 -17 121 -17q93 0 153 51t60 143q0 43 -10 73q-11 32 -32 58t-54 51t-78 54q-23 15 -67 45q-34 23 -59 51q-26 30 -41 66q-15 37 -15 88q0 58 22 101t61 74q37 30 87 45t102 15q62 0 117 -16
q59 -17 104 -55l-30 -150h-45v131q-27 16 -63 27q-34 10 -83 10q-86 0 -142 -46t-56 -132q0 -36 8 -63q7 -24 26 -46q13 -16 46 -41q22 -17 69 -45q41 -25 87 -58q39 -28 65 -60q26 -31 41 -73q14 -38 14 -95q0 -62 -24 -110q-25 -50 -62 -80q-38 -31 -91 -49
q-50 -17 -110 -17zM90 -352q54 17 87 40t38 70q-33 0 -55 19q-21 18 -21 49q0 34 22 54t50 20q35 0 56 -24q22 -25 22 -68q0 -67 -43 -120q-44 -55 -156 -77v37z" />
    <glyph glyph-name="uni021A" unicode="&#x21a;" horiz-adv-x="1132" 
d="M680 0h-418l10 49l170 10l273 1287h-363l-80 -277h-53l72 334h954l-71 -334h-54l39 277h-362l-273 -1287l166 -10zM326 -352q54 17 87 40t38 70q-34 0 -56 19q-20 17 -20 49q0 34 21 54q22 20 50 20q36 0 57 -24t21 -69q0 -66 -43 -119q-44 -55 -155 -77v37z" />
    <glyph glyph-name="uni021B" unicode="&#x21b;" horiz-adv-x="561" 
d="M174 940h119l53 254l78 20l-59 -274h196l-12 -55h-195l-157 -750q-7 -33 -7 -49q0 -43 50 -43q27 0 59 8q28 7 72 25l10 -39q-31 -21 -74 -37q-38 -14 -84 -14q-48 0 -78 21t-30 69q0 29 6 59l160 750h-119zM61 -352q54 17 87 40t38 70q-33 0 -55 19q-20 17 -20 49
q0 34 21 54q22 20 50 20q36 0 57 -24t21 -69q0 -66 -43 -119q-44 -55 -156 -77v37z" />
    <glyph glyph-name="dotlessj" unicode="&#x237;" horiz-adv-x="425" 
d="M156 893l10 47h203l-232 -1081q-15 -70 -39 -116q-24 -47 -57 -78q-34 -33 -75 -53q-51 -25 -91 -40l-20 43q37 18 75 42q33 21 59 50t44 68t30 94l216 1008z" />
    <glyph glyph-name="uni0259" unicode="&#x259;" horiz-adv-x="815" 
d="M455 954q126 0 201 -78q77 -80 77 -241q0 -106 -25 -212q-25 -105 -71 -196q-52 -103 -144 -173q-90 -68 -212 -68q-66 0 -111 18q-44 18 -74 49q-28 30 -42 71q-13 39 -13 81q0 89 50 150q51 61 134 97q80 34 194 50q102 14 226 14q4 29 6 63q2 42 2 62q0 134 -57 194
t-162 60q-72 0 -130 -19q-57 -19 -126 -67l-26 37q68 60 149 84q82 24 154 24zM567 248q24 48 41 103q19 62 29 116q-138 0 -240 -20q-99 -20 -159 -53q-64 -36 -91 -83q-28 -49 -28 -106q0 -73 39 -120q39 -46 125 -46q53 0 96 18q41 17 79 47q32 25 62 67q22 31 47 77z
" />
    <glyph glyph-name="uni02BB" unicode="&#x2bb;" horiz-adv-x="423" 
d="M496 1378q-55 -17 -92 -54t-42 -85q39 0 59 -19q21 -20 21 -53q0 -34 -22 -55q-21 -20 -53 -20q-35 0 -58 24q-22 23 -22 72q0 34 10 68q10 36 35 68q25 33 64 56q43 26 100 37v-39z" />
    <glyph glyph-name="afii57929" unicode="&#x2bc;" horiz-adv-x="423" 
d="M266 1130q53 16 91 55q37 37 42 85q-38 0 -58 19q-22 20 -22 52q0 35 23 56q21 20 53 20q35 0 58 -24q22 -23 22 -72q0 -36 -11 -69q-12 -35 -36 -67q-26 -35 -64 -57q-40 -24 -98 -36v38z" />
    <glyph glyph-name="circumflex" unicode="&#x2c6;" horiz-adv-x="1116" 
d="M348 1110l246 225h43l170 -227l-35 -35l-164 176l-231 -176z" />
    <glyph glyph-name="caron" unicode="&#x2c7;" horiz-adv-x="1116" 
d="M389 1313l35 35l164 -177l231 177l29 -37l-246 -226h-43z" />
    <glyph glyph-name="breve" unicode="&#x2d8;" horiz-adv-x="1116" 
d="M621 1112q-82 0 -127 52q-47 54 -54 126l49 19q6 -53 36 -90t96 -37q64 0 104 35q39 35 68 92l47 -19q-28 -76 -84 -127t-135 -51z" />
    <glyph glyph-name="dotaccent" unicode="&#x2d9;" horiz-adv-x="1116" 
d="M662 1194q-32 0 -51 19t-19 51q0 30 18 50q18 19 49 19q32 0 51 -19t19 -50q0 -32 -18 -51t-49 -19z" />
    <glyph glyph-name="ring" unicode="&#x2da;" horiz-adv-x="1116" 
d="M645 1077q-71 0 -107 41t-36 103q0 19 1 25t3 20q11 57 56 105q43 46 116 46q71 0 107 -41q36 -40 36 -102q0 -20 -1 -26q-2 -12 -3 -19q-12 -59 -56 -106q-43 -46 -116 -46zM643 1128q41 0 71 27t42 82q2 5 3 17q1 9 1 24q0 46 -23 67t-57 21q-41 0 -71 -27t-42 -82
q-2 -5 -3 -17q-1 -9 -1 -23q0 -46 23 -67q24 -22 57 -22z" />
    <glyph glyph-name="ogonek" unicode="&#x2db;" horiz-adv-x="1116" 
d="M516 -403q-62 0 -104 32q-43 33 -43 101q0 42 19 79q18 35 51 74q28 33 74 71q25 21 87 66h62q-96 -83 -161 -154q-63 -69 -63 -134q0 -37 23 -58q21 -20 57 -20q40 0 64 8q18 6 51 25l16 -45q-21 -14 -56 -31q-29 -14 -77 -14z" />
    <glyph glyph-name="tilde" unicode="&#x2dc;" horiz-adv-x="1116" 
d="M369 1137q30 57 66 87q35 29 83 29q28 0 55 -12q24 -11 53 -26q17 -9 49 -25q24 -12 48 -12q37 0 58 22q23 24 44 57l43 -24q-33 -60 -67 -91q-35 -32 -82 -32q-30 0 -57 12q-24 11 -53 26q-2 1 -21 11t-28 15q-24 12 -46 12q-39 0 -60 -24q-26 -30 -44 -56z" />
    <glyph glyph-name="hungarumlaut" unicode="&#x2dd;" horiz-adv-x="1116" 
d="M647 1098l258 311l56 -45l-275 -293zM401 1098l258 311l56 -45l-273 -293z" />
    <glyph glyph-name="gravecomb" unicode="&#x300;" horiz-adv-x="2" 
d="M-487 1264l55 63l258 -221l-29 -37z" />
    <glyph glyph-name="acutecomb" unicode="&#x301;" horiz-adv-x="2" 
d="M-489 1110l313 217l43 -74l-334 -184z" />
    <glyph glyph-name="uni0302" unicode="&#x302;" horiz-adv-x="2" 
d="M-561 1110l246 225h43l170 -227l-35 -35l-164 176l-231 -176z" />
    <glyph glyph-name="tildecomb" unicode="&#x303;" horiz-adv-x="2" 
d="M-586 1137q29 56 67 87q35 29 83 29q28 0 55 -12q18 -8 52 -26q17 -9 49 -25q24 -12 49 -12q37 0 58 22q23 24 44 57l43 -24q-32 -58 -68 -91q-35 -32 -82 -32q-30 0 -57 12q-18 8 -52 26q-2 1 -20.5 11t-28.5 15q-24 12 -46 12q-40 0 -61 -24q-26 -30 -44 -56z" />
    <glyph glyph-name="uni0304" unicode="&#x304;" horiz-adv-x="2" 
d="M-717 1296h416l-14 -63h-416z" />
    <glyph glyph-name="uni0306" unicode="&#x306;" horiz-adv-x="2" 
d="M-494 1085q-82 0 -127 53q-46 53 -53 126l49 18q6 -52 36 -90q30 -37 95 -37t105 35q38 33 67 92l48 -18q-28 -76 -84 -127q-57 -52 -136 -52z" />
    <glyph glyph-name="uni0307" unicode="&#x307;" horiz-adv-x="2" 
d="M-66 1194q-31 0 -50 19t-19 51q0 30 18 50q18 19 49 19q32 0 51 -19t19 -50q0 -32 -18 -51t-50 -19z" />
    <glyph glyph-name="uni0308" unicode="&#x308;" horiz-adv-x="2" 
d="M-301 1106q-31 0 -49 18q-19 19 -19 50t18 49t48 18q31 0 49 -18t18 -49q0 -33 -17 -50q-18 -18 -48 -18zM-604 1106q-31 0 -49 18q-19 19 -19 50t18 49t48 18q31 0 49 -18t18 -49q0 -33 -17 -50q-18 -18 -48 -18z" />
    <glyph glyph-name="uni030A" unicode="&#x30a;" horiz-adv-x="2" 
d="M-469 1077q-72 0 -108 41q-35 39 -35 103q0 19 1 25t3 20q11 57 56 105q43 46 116 46q71 0 107 -41q36 -40 36 -102q0 -20 -1 -26q-2 -12 -3 -19q-12 -59 -56 -106q-43 -46 -116 -46zM-471 1128q41 0 71 27t42 82q2 5 3 17q1 9 1 24q0 46 -23 67t-57 21q-41 0 -71 -27
t-42 -82q-2 -5 -3 -17q-1 -9 -1 -23q0 -46 23 -67q24 -22 57 -22z" />
    <glyph glyph-name="uni030B" unicode="&#x30b;" horiz-adv-x="2" 
d="M-467 1096l258 311l55 -45l-274 -293zM-713 1096l258 311l56 -45l-273 -293z" />
    <glyph glyph-name="uni030C" unicode="&#x30c;" horiz-adv-x="2" 
d="M-467 1313l35 35l164 -177l231 177l29 -37l-246 -226h-43z" />
    <glyph glyph-name="uni0312" unicode="&#x312;" horiz-adv-x="2" 
d="M-172 1481q-52 -17 -91 -55q-37 -37 -42 -85q38 0 58 -19q22 -20 22 -52q0 -35 -23 -56q-21 -20 -53 -20q-34 0 -57 25t-23 71q0 35 10 69t35 67q26 34 65 57q44 26 99 37v-39z" />
    <glyph glyph-name="uni0313" unicode="&#x313;" horiz-adv-x="2" 
d="M-381 1116q54 17 91 54t42 85q-36 0 -58 20t-22 52q0 34 23 55q22 21 53 21q34 0 57 -25t23 -71q0 -36 -11 -69q-12 -37 -36 -68q-24 -32 -65 -56q-43 -26 -97 -37v39z" />
    <glyph glyph-name="uni0326" unicode="&#x326;" horiz-adv-x="2" 
d="M-401 -336q54 17 91 54t42 85q-37 0 -59 20q-21 19 -21 52q0 34 22 55t54 21q34 0 57 -25q22 -23 22 -71q0 -36 -11 -69q-12 -37 -36 -68q-25 -33 -64 -56q-43 -26 -97 -37v39z" />
    <glyph glyph-name="uni0327" unicode="&#x327;" horiz-adv-x="2" 
d="M-655 -403q-41 0 -74 15q-31 14 -55 38l30 45q23 -19 46 -30q22 -11 59 -11q47 0 69 27q23 28 23 71q0 80 -82 80q-15 0 -35 -2q-11 -1 -35 -8l121 198h60l-86 -131q52 -6 89 -41q36 -34 36 -94q0 -76 -45 -118q-42 -39 -121 -39z" />
    <glyph glyph-name="uni0328" unicode="&#x328;" horiz-adv-x="2" 
d="M-598 -403q-62 0 -104 32q-43 33 -43 101q0 42 19 79q18 35 51 74q28 33 74 71q25 21 87 66h61q-92 -79 -160 -154q-63 -69 -63 -134q0 -37 23 -58q21 -20 57 -20q40 0 64 8q18 6 51 25l16 -45q-21 -14 -56 -31q-29 -14 -77 -14z" />
    <glyph glyph-name="uni037E" unicode="&#x37e;" horiz-adv-x="411" 
d="M246 543q-34 0 -56 21t-22 57q0 35 22 56q23 21 56 21q32 0 55 -21t23 -56q0 -36 -23 -57t-55 -21zM0 -145q54 17 91 54t42 85q-38 0 -58 19q-22 20 -22 53q0 34 23 55q21 20 53 20q35 0 57 -24q23 -25 23 -72q0 -36 -11 -69q-12 -35 -36 -67t-65 -56q-43 -26 -97 -37v39
z" />
    <glyph glyph-name="tonos" unicode="&#x384;" horiz-adv-x="1116" 
d="M575 1323h101l-184 -250h-48z" />
    <glyph glyph-name="dieresistonos" unicode="&#x385;" horiz-adv-x="1116" 
d="M729 1323h88l-151 -250h-43zM852 1073q-30 0 -49 19t-19 49q0 31 18 49t48 18q31 0 49 -18q19 -19 19 -49q0 -31 -18 -49q-19 -19 -48 -19zM510 1073q-30 0 -49 19t-19 49q0 31 18 49t48 18q31 0 49 -18t18 -49q0 -32 -17 -49q-19 -19 -48 -19z" />
    <glyph glyph-name="Alphatonos" unicode="&#x386;" horiz-adv-x="1134" 
d="M825 492h-487l-221 -422l125 -21l-11 -49h-344l11 49l137 19l706 1335h74l131 -1335l117 -19l-10 -49h-342l10 49l147 19zM369 551h450l-51 520q-8 72 -9 144q-1 56 1 112h-2q-22 -58 -47 -113q-31 -69 -68 -143zM250 1403h100l-184 -250h-47z" />
    <glyph glyph-name="anoteleia" unicode="&#x387;" horiz-adv-x="393" 
d="M213 506q-33 0 -56 22q-24 22 -24 58q0 34 24 57q25 23 56 23t56 -23q24 -23 24 -57q0 -36 -24 -58q-23 -22 -56 -22z" />
    <glyph glyph-name="Epsilontonos" unicode="&#x388;" horiz-adv-x="980" 
d="M774 565h-51l14 152h-387l-139 -658h537l61 193h55l-53 -252h-842l11 49l149 10l272 1280l-145 11l10 53h797l-33 -252h-51v195h-496l-121 -572h388l51 152h51zM25 1403h100l-184 -250h-47z" />
    <glyph glyph-name="Etatonos" unicode="&#x389;" horiz-adv-x="1261" 
d="M731 49l150 10l141 664h-670l-141 -664l145 -10l-10 -49h-377l11 49l149 10l272 1280l-145 11l10 53h377l-10 -53l-150 -11l-121 -559h670l121 559l-145 11l10 53h377l-11 -53l-149 -11l-272 -1280l145 -10l-10 -49h-377zM25 1403h100l-184 -250h-47z" />
    <glyph glyph-name="Iotatonos" unicode="&#x38a;" horiz-adv-x="509" 
d="M-20 49l149 10l272 1280l-145 11l10 53h377l-10 -53l-150 -11l-272 -1280l145 -10l-10 -49h-377zM25 1403h100l-184 -250h-47z" />
    <glyph glyph-name="Omicrontonos" unicode="&#x38c;" horiz-adv-x="1185" 
d="M518 45q113 0 200 54q86 54 156 161q44 67 82 168q38 99 63 204q24 100 40 207q14 95 14 177q0 167 -77 255q-76 87 -230 87q-113 0 -200 -54q-86 -54 -156 -161q-45 -69 -83 -169q-38 -101 -65 -205t-42 -208q-15 -102 -15 -178q0 -167 80 -253q79 -85 233 -85zM510 -14
q-193 0 -290 103t-97 302q0 95 17 201q18 116 49 226q30 108 79 219q47 107 107 180q82 105 180 152q99 48 219 48q192 0 287 -105q94 -104 94 -304q0 -93 -16 -201q-16 -104 -47 -224q-29 -109 -77 -218q-48 -107 -106 -179q-82 -105 -180 -152q-99 -48 -219 -48zM127 1403
h100l-184 -250h-47z" />
    <glyph glyph-name="Upsilontonos" unicode="&#x38e;" horiz-adv-x="1095" 
d="M920 1350l10 53h348l-10 -53l-125 -11l-539 -798l-102 -482l145 -10l-10 -49h-377l10 49l150 10l102 484l-200 796l-117 11l10 53h346l-10 -53l-148 -11l140 -559q17 -62 24 -99q10 -48 13 -81h2q17 41 44 88q30 52 60 94l373 557zM4 1403h100l-184 -250h-47z" />
    <glyph glyph-name="Omegatonos" unicode="&#x38f;" horiz-adv-x="1185" 
d="M92 227h55l-18 -159h223l47 219q-102 24 -165 110q-62 84 -62 238q0 155 52 310q53 159 157 280q80 94 179 142q103 50 220 50q192 0 283 -111q92 -112 92 -305q0 -75 -10 -145q-10 -69 -32 -145t-55 -139q-35 -68 -83 -121q-61 -69 -128 -108t-140 -56l-48 -219h242
l49 159h60l-49 -227h-383l69 330q94 19 169 67q75 49 136 146q64 102 92 224q29 127 29 251q0 74 -15 135t-50 107q-34 44 -90 70q-57 26 -138 26q-115 0 -210 -58q-92 -57 -156 -149q-73 -107 -117 -247q-43 -136 -43 -275q0 -72 16 -120q17 -50 45 -86q28 -35 70 -57
q44 -23 90 -34l-69 -330h-363zM127 1403h100l-184 -250h-47z" />
    <glyph glyph-name="iotadieresistonos" unicode="&#x390;" horiz-adv-x="473" 
d="M98 47q0 13 2 29q1 11 6 28l164 773l-123 16l11 47h202l-167 -786q-2 -11 -6 -28t-5 -22q-4 -19 -4 -30q0 -21 23 -21h114v-33q-87 -34 -141 -34q-35 0 -55 14q-21 15 -21 47zM410 1323h88l-152 -250h-43zM532 1073q-30 0 -49 19q-18 18 -18 49q0 32 17 49q18 18 48 18
q32 0 50 -18t18 -49q0 -32 -17 -49q-19 -19 -49 -19zM190 1073q-30 0 -49 19q-18 18 -18 49q0 32 17 49q18 18 48 18q32 0 50 -18t18 -49q0 -32 -17 -49q-19 -19 -49 -19z" />
    <glyph glyph-name="Alpha" unicode="&#x391;" horiz-adv-x="1134" 
d="M825 492h-487l-221 -422l125 -21l-11 -49h-344l11 49l137 19l706 1335h74l131 -1335l117 -19l-10 -49h-342l10 49l147 19zM369 551h450l-51 520q-8 72 -9 144q-1 56 1 112h-2q-22 -58 -47 -113q-31 -69 -68 -143z" />
    <glyph glyph-name="Beta" unicode="&#x392;" horiz-adv-x="1069" 
d="M483 57q108 0 187 31q73 29 125 82q50 51 73 126q23 74 23 157q0 113 -67 183q-66 69 -212 69h-266l-135 -648h272zM612 762q90 0 149 22q61 23 101 66q42 42 64 113q22 70 22 143q0 103 -62 171q-63 69 -196 69h-211l-121 -584h254zM694 1403q89 0 152 -24
q66 -25 104 -63q43 -43 60 -93q18 -53 18 -113q0 -67 -17 -125q-19 -64 -52 -113q-34 -51 -85 -88q-48 -35 -120 -51q91 -23 153 -94q64 -73 64 -190q0 -105 -36 -193t-101 -147q-66 -60 -159 -84q-97 -25 -212 -25h-494l11 49l149 10l272 1280l-145 11l10 53h428z" />
    <glyph glyph-name="Gamma" unicode="&#x393;" horiz-adv-x="925" 
d="M-20 49l149 10l272 1280l-145 11l10 53h772l-69 -330h-54l37 273h-469l-272 -1287l186 -10l-10 -49h-418z" />
    <glyph glyph-name="uni0394" unicode="&#x394;" horiz-adv-x="1075" 
d="M-2 49l717 1354h73l134 -1354l-11 -49h-923zM842 66l-101 1005q-7 80 -8 144q-2 73 0 112h-2q-22 -58 -47 -113q-31 -69 -68 -143l-528 -1005h754z" />
    <glyph glyph-name="Epsilon" unicode="&#x395;" horiz-adv-x="980" 
d="M774 565h-51l14 152h-387l-139 -658h537l61 193h55l-53 -252h-842l11 49l149 10l272 1280l-145 11l10 53h797l-33 -252h-51v195h-496l-121 -572h388l51 152h51z" />
    <glyph glyph-name="Zeta" unicode="&#x396;" horiz-adv-x="944" 
d="M12 59l930 1287h-536l-72 -195h-53l55 252h711l-15 -60l-926 -1284h574l61 193h56l-54 -252h-743z" />
    <glyph glyph-name="Eta" unicode="&#x397;" horiz-adv-x="1261" 
d="M731 49l150 10l141 664h-670l-141 -664l145 -10l-10 -49h-377l11 49l149 10l272 1280l-145 11l10 53h377l-10 -53l-150 -11l-121 -559h670l121 559l-145 11l10 53h377l-11 -53l-149 -11l-272 -1280l145 -10l-10 -49h-377z" />
    <glyph glyph-name="Theta" unicode="&#x398;" horiz-adv-x="1185" 
d="M510 -14q-193 0 -290 103t-97 302q0 95 17 201q18 116 49 226q30 108 79 219q47 107 107 180q82 105 180 152q99 48 219 48q192 0 287 -105q94 -104 94 -304q0 -93 -16 -201q-16 -104 -47 -224q-29 -109 -77 -218q-48 -107 -106 -179q-82 -105 -180 -152
q-99 -48 -219 -48zM518 45q113 0 200 54q86 54 156 161q44 67 82 168q38 99 63 204q24 100 40 207q14 95 14 177q0 167 -77 255q-76 87 -230 87q-113 0 -200 -54q-86 -54 -156 -161q-45 -69 -83 -169q-38 -101 -65 -205t-42 -208q-15 -102 -15 -178q0 -167 80 -253
q79 -85 233 -85zM426 698l14 66h430l-14 -66h-430z" />
    <glyph glyph-name="Iota" unicode="&#x399;" horiz-adv-x="509" 
d="M-20 49l149 10l272 1280l-145 11l10 53h377l-10 -53l-150 -11l-272 -1280l145 -10l-10 -49h-377z" />
    <glyph glyph-name="Kappa" unicode="&#x39a;" horiz-adv-x="1064" 
d="M956 0h-194l-356 758l589 581l-139 11l10 53h353l-11 -53l-125 -11l-591 -583l329 -697l146 -10zM-20 49l149 10l272 1280l-145 11l10 53h377l-10 -53l-150 -11l-272 -1280l145 -10l-10 -49h-377z" />
    <glyph glyph-name="Lambda" unicode="&#x39b;" horiz-adv-x="1112" 
d="M-113 0l11 49l137 19l696 1335h74l119 -1335l116 -19l-10 -49h-342l10 49l148 19l-90 1003q-8 95 -7 157q2 78 5 99h-4q-10 -27 -39 -96q-27 -64 -76 -160l-518 -1001l127 -21l-13 -49h-344z" />
    <glyph glyph-name="Mu" unicode="&#x39c;" horiz-adv-x="1415" 
d="M676 344q8 24 13 35q10 23 19 39q2 4 12 23t17 32q4 7 47 82l504 848h260l-10 -53l-149 -11l-273 -1280l146 -10l-11 -49h-377l11 49l149 10l209 988q9 45 23 104q4 17 10 44t7 32q11 47 14 59q10 36 14 55h-2q-11 -25 -24 -52q-7 -14 -27 -52q-23 -44 -37 -68
q-6 -11 -25.5 -43.5t-32.5 -54.5l-473 -790h-69l-123 790q-8 55 -23 136q-9 51 -14 134h-2q-3 -22 -8.5 -55l-6.5 -39q-6 -36 -12 -70l-12 -63q-2 -9 -6.5 -31.5t-7.5 -35.5l-209 -988l145 -10l-10 -49h-363l11 49l149 10l272 1280l-145 11l10 53h258l133 -848
q11 -60 15 -118q4 -50 2 -93h2z" />
    <glyph glyph-name="Nu" unicode="&#x39d;" horiz-adv-x="1220" 
d="M995 1350l11 53h358l-10 -53l-150 -11l-284 -1339h-80l-312 1040q-28 92 -45 171q-15 74 -22 132h-2q-13 -83 -25 -147q-21 -109 -41 -201l-196 -936l145 -10l-10 -49h-363l11 49l149 10l272 1280l-145 11l10 53h238l315 -1059q10 -36 23 -80q4 -14 17 -65q7 -29 12 -61
q1 -10 4.5 -30t5.5 -30h2q5 34 9 66q2 15 11 66q9 54 13 72q8 38 18 87l207 970z" />
    <glyph glyph-name="Xi" unicode="&#x39e;" horiz-adv-x="999" 
d="M315 1403h766l-32 -252h-52v184h-622l-58 -184h-55zM313 766h551l-14 -70h-551zM72 260h53l-23 -192h668l59 192h56l-56 -260h-813z" />
    <glyph glyph-name="Omicron" unicode="&#x39f;" horiz-adv-x="1185" 
d="M518 45q113 0 200 54q86 54 156 161q44 67 82 168q38 99 63 204q24 100 40 207q14 95 14 177q0 167 -77 255q-76 87 -230 87q-113 0 -200 -54q-86 -54 -156 -161q-45 -69 -83 -169q-38 -101 -65 -205t-42 -208q-15 -102 -15 -178q0 -167 80 -253q79 -85 233 -85zM510 -14
q-193 0 -290 103t-97 302q0 95 17 201q18 116 49 226q30 108 79 219q47 107 107 180q82 105 180 152q99 48 219 48q192 0 287 -105q94 -104 94 -304q0 -93 -16 -201q-16 -104 -47 -224q-29 -109 -77 -218q-48 -107 -106 -179q-82 -105 -180 -152q-99 -48 -219 -48z" />
    <glyph glyph-name="Pi" unicode="&#x3a0;" horiz-adv-x="1251" 
d="M-20 49l149 10l272 1280l-145 11l10 53h1118l-10 -53l-149 -11l-273 -1280l146 -10l-11 -49h-376l10 49l149 10l273 1280h-660l-272 -1280l145 -10l-10 -49h-377z" />
    <glyph glyph-name="Rho" unicode="&#x3a1;" horiz-adv-x="964" 
d="M573 659q87 0 147 24t107 65q30 29 53 67q22 38 40 89q16 47 24 100q8 54 8 100q0 116 -61 178q-62 64 -203 64h-203l-145 -687h233zM696 1403q173 0 256 -79q84 -80 84 -222q0 -62 -12 -123q-11 -57 -34 -116q-21 -54 -51 -99t-65 -74q-60 -46 -135 -67
q-77 -21 -164 -21h-249l-115 -543l186 -10l-10 -49h-418l11 49l149 10l272 1280l-145 11l10 53h430z" />
    <glyph glyph-name="Sigma" unicode="&#x3a3;" horiz-adv-x="915" 
d="M10 49l531 682l-275 596l17 76h714l-32 -252h-54v195h-569l270 -590l-12 -56l-496 -632h572l61 192h54l-56 -260h-735z" />
    <glyph glyph-name="Tau" unicode="&#x3a4;" horiz-adv-x="1132" 
d="M680 0h-418l10 49l170 10l273 1287h-363l-80 -277h-53l72 334h954l-71 -334h-54l39 277h-362l-273 -1287l166 -10z" />
    <glyph glyph-name="Upsilon" unicode="&#x3a5;" horiz-adv-x="1095" 
d="M920 1350l10 53h348l-10 -53l-125 -11l-539 -798l-102 -482l145 -10l-10 -49h-377l10 49l150 10l102 484l-200 796l-117 11l10 53h346l-10 -53l-148 -11l140 -559q17 -62 24 -99q10 -48 13 -81h2q17 41 44 88q30 52 60 94l373 557z" />
    <glyph glyph-name="Phi" unicode="&#x3a6;" horiz-adv-x="1280" 
d="M588 59l176 -10l-10 -49h-439l11 49l180 10l43 203q-233 7 -340 96t-107 244q0 115 42 226q43 113 130 196q84 79 200 122q119 44 271 48l33 145l-166 11l11 53h417l-10 -53l-170 -11l-31 -145q223 -7 332 -100q109 -92 109 -252q0 -112 -41 -224q-40 -109 -125 -194
q-77 -77 -194 -118q-112 -39 -279 -44zM733 1135q-144 -6 -250 -53q-105 -46 -178 -130q-60 -68 -90 -160q-31 -96 -31 -188q0 -141 94 -209q92 -67 283 -73zM643 322q167 5 275 54q108 50 180 150q44 61 67 147q23 84 23 167q0 143 -94 215t-279 78z" />
    <glyph glyph-name="Chi" unicode="&#x3a7;" horiz-adv-x="1210" 
d="M633 780l-193 559l-116 11l10 53h346l-10 -53l-144 -11l170 -508l379 508l-139 11l10 53h342l-10 -53l-117 -11l-438 -579l240 -701l143 -10l-10 -49h-377l10 49l150 10l-217 652l-502 -652l141 -10l-10 -49h-369l10 49l144 10z" />
    <glyph glyph-name="Psi" unicode="&#x3a8;" horiz-adv-x="1239" 
d="M315 49l181 10l77 367q-144 16 -236 97q-93 81 -93 235q0 63 14 119l98 462l-145 11l10 53h230l-113 -531q-12 -60 -12 -108q0 -135 74 -200q76 -67 186 -79l182 854l-121 17l10 47h330l-10 -47l-127 -17l-184 -858q73 1 141 23t119 67q53 46 91 115q37 69 60 174
l117 543h227l-10 -53l-149 -11l-105 -489q-23 -114 -72 -197q-47 -81 -112 -131q-68 -54 -147 -76q-81 -22 -173 -24l-75 -363l176 -10l-11 -49h-438z" />
    <glyph glyph-name="uni03A9" unicode="&#x3a9;" horiz-adv-x="1185" 
d="M92 227h55l-18 -159h223l47 219q-102 24 -165 110q-62 84 -62 238q0 155 52 310q53 159 157 280q80 94 179 142q103 50 220 50q192 0 283 -111q92 -112 92 -305q0 -75 -10 -145q-10 -69 -32 -145t-55 -139q-35 -68 -83 -121q-61 -69 -128 -108t-140 -56l-48 -219h242
l49 159h60l-49 -227h-383l69 330q94 19 169 67q75 49 136 146q64 102 92 224q29 127 29 251q0 74 -15 135t-50 107q-34 44 -90 70q-57 26 -138 26q-115 0 -210 -58q-92 -57 -156 -149q-73 -107 -117 -247q-43 -136 -43 -275q0 -72 16 -120q17 -50 45 -86q28 -35 70 -57
q44 -23 90 -34l-69 -330h-363z" />
    <glyph glyph-name="Iotadieresis" unicode="&#x3aa;" horiz-adv-x="509" 
d="M-20 49l149 10l272 1280l-145 11l10 53h377l-10 -53l-150 -11l-272 -1280l145 -10l-10 -49h-377zM645 1507q-30 0 -49 19q-18 18 -18 49q0 32 17 49q18 18 48 18q31 0 49 -18q19 -19 19 -49q0 -31 -18 -49q-19 -19 -48 -19zM342 1507q-30 0 -49 19t-19 49q0 31 18 49
t48 18q31 0 49 -18q19 -19 19 -49q0 -31 -18 -49q-19 -19 -48 -19z" />
    <glyph glyph-name="Upsilondieresis" unicode="&#x3ab;" horiz-adv-x="1095" 
d="M920 1350l10 53h348l-10 -53l-125 -11l-539 -798l-102 -482l145 -10l-10 -49h-377l10 49l150 10l102 484l-200 796l-117 11l10 53h346l-10 -53l-148 -11l140 -559q17 -62 24 -99q10 -48 13 -81h2q17 41 44 88q30 52 60 94l373 557zM920 1507q-31 0 -50 19q-18 18 -18 49
q0 32 17 49q18 18 49 18t49 -18t18 -49q0 -32 -17 -49q-19 -19 -48 -19zM616 1507q-30 0 -49 19q-18 18 -18 49q0 32 17 49q18 18 48 18q32 0 50 -18t18 -49q0 -32 -17 -49q-19 -19 -49 -19z" />
    <glyph glyph-name="alphatonos" unicode="&#x3ac;" horiz-adv-x="978" 
d="M82 281q0 63 9 131q8 61 28 132q16 58 43 125q21 54 55 109q56 93 131 134q76 42 162 42q50 0 88 -13q41 -14 70 -33t54 -44q24 -24 42 -45l55 121h47l-168 -786q-2 -10 -5.5 -26.5t-4.5 -23.5q-4 -19 -4 -30q0 -21 23 -21h114v-33q-87 -34 -141 -34q-37 0 -54 13
q-18 13 -21 36q-3 21 2 51q4 24 16 59q-27 -25 -65 -57q-36 -29 -73 -51q-37 -21 -81 -37q-39 -14 -89 -14q-95 0 -164 72t-69 223zM158 281q0 -114 46 -176t122 -62q47 0 89 16q41 16 84 41q22 13 73 53q16 13 61 50l119 561q-15 18 -47 50q-21 21 -54 42q-30 19 -62 30
t-77 11q-76 0 -133 -42q-56 -41 -100 -114q-32 -52 -51 -105q-23 -65 -38 -121q-16 -63 -24 -123q-8 -64 -8 -111zM698 1323h101l-185 -250h-47z" />
    <glyph glyph-name="epsilontonos" unicode="&#x3ad;" horiz-adv-x="821" 
d="M51 205q0 107 65 186q66 79 175 109q-66 16 -96 66q-31 51 -31 106q0 68 31 122q30 52 79 88q50 36 114 54t132 18q77 0 136 -11q68 -13 145 -52l-33 -156h-47v123q-33 16 -82 30q-45 13 -125 13q-54 0 -102 -13q-50 -14 -87 -42t-62 -73q-23 -42 -23 -103q0 -70 45 -107
q44 -37 129 -37h137l-8 -55h-138q-55 0 -105 -18q-48 -18 -88 -54q-38 -35 -59 -83q-22 -50 -22 -109q0 -86 67 -124t173 -38q71 0 152 23q80 23 149 63l26 -37q-65 -43 -151 -76q-83 -32 -197 -32q-59 0 -113 12q-55 12 -96 38q-42 26 -65 67q-25 44 -25 102zM668 1323h100
l-184 -250h-47z" />
    <glyph glyph-name="etatonos" unicode="&#x3ae;" horiz-adv-x="983" 
d="M279 877l-123 16l10 47h184l-18 -166q79 77 173 129q93 51 179 51q88 0 137 -49t49 -139q0 -35 -10 -84l-112 -528q-2 -11 -6 -28t-5 -22q-4 -19 -4 -30q0 -21 23 -21h114v-33q-87 -34 -141 -34q-35 0 -55 14q-21 15 -21 47q0 13 2 29l7 28l120 574q11 53 11 78
q0 68 -32 98q-33 31 -91 31q-86 0 -172 -48q-85 -48 -176 -116l-154 -721h-76zM723 1323h100l-184 -250h-47z" />
    <glyph glyph-name="iotatonos" unicode="&#x3af;" horiz-adv-x="473" 
d="M98 47q0 13 2 29q1 11 6 28l164 773l-123 16l11 47h202l-167 -786q-2 -11 -6 -28t-5 -22q-4 -19 -4 -30q0 -21 23 -21h114v-33q-87 -34 -141 -34q-35 0 -55 14q-21 15 -21 47zM453 1323h100l-184 -250h-47z" />
    <glyph glyph-name="upsilondieresistonos" unicode="&#x3b0;" horiz-adv-x="937" 
d="M143 229q0 44 13 101l116 547l-122 16l10 47h202l-129 -602q-14 -59 -14 -119q0 -90 45 -133q44 -43 146 -43q66 0 116 18q47 17 83 56t57 93q23 58 39 130l129 600h75l-133 -623q-33 -151 -117 -241t-249 -90q-138 0 -202 66q-65 67 -65 177zM696 1323h88l-151 -250h-43
zM819 1073q-30 0 -49 19q-18 18 -18 49q0 32 17 49q18 18 48 18q31 0 49 -18q19 -19 19 -49q0 -31 -18 -49q-19 -19 -48 -19zM477 1073q-30 0 -49 19q-18 18 -18 49q0 32 17 49q18 18 48 18q31 0 49 -18q19 -19 19 -49q0 -31 -18 -49q-19 -19 -48 -19z" />
    <glyph glyph-name="alpha" unicode="&#x3b1;" horiz-adv-x="978" 
d="M82 281q0 63 9 131q8 61 28 132q16 58 43 125q21 54 55 109q56 93 131 134q76 42 162 42q50 0 88 -13q41 -14 70 -33t54 -44q24 -24 42 -45l55 121h47l-168 -786q-2 -10 -5.5 -26.5t-4.5 -23.5q-4 -19 -4 -30q0 -21 23 -21h114v-33q-87 -34 -141 -34q-37 0 -54 13
q-18 13 -21 36q-3 21 2 51q4 24 16 59q-27 -25 -65 -57q-36 -29 -73 -51q-37 -21 -81 -37q-39 -14 -89 -14q-95 0 -164 72t-69 223zM158 281q0 -114 46 -176t122 -62q47 0 89 16q41 16 84 41q22 13 73 53q16 13 61 50l119 561q-15 18 -47 50q-21 21 -54 42q-30 19 -62 30
t-77 11q-76 0 -133 -42q-56 -41 -100 -114q-32 -52 -51 -105q-23 -65 -38 -121q-16 -63 -24 -123q-8 -64 -8 -111z" />
    <glyph glyph-name="beta" unicode="&#x3b2;" horiz-adv-x="978" 
d="M420 -14q-164 0 -246 100t-82 268q0 155 33 308q33 155 82 286q26 69 71 166q43 91 102 167q61 78 139 128q80 51 183 51q109 0 175 -59q67 -60 67 -191q0 -69 -22 -132t-65 -117q-45 -56 -100 -93q-57 -38 -130 -53q47 -6 94 -26q46 -20 80 -57t55 -94t21 -134
q0 -109 -47 -221t-130 -189q-54 -49 -126 -79q-68 -29 -154 -29zM424 43q69 0 132 30q65 31 110 76q61 66 100 163q37 93 37 196q0 67 -23 119t-63 86t-97 52q-54 17 -122 17h-60l15 58h57q75 0 139 29t115 80q48 48 78 117q28 65 28 142q0 92 -44 144q-43 51 -142 51
q-80 0 -148 -55q-70 -56 -122 -135q-57 -86 -92 -166q-38 -87 -60 -152q-25 -75 -42 -146q-15 -61 -29 -147q-10 -59 -17 -136q-6 -64 -6 -114q0 -138 57 -223q57 -86 199 -86z" />
    <glyph glyph-name="gamma" unicode="&#x3b3;" horiz-adv-x="811" 
d="M195 877l-113 16l10 47h172l64 -588q3 -30 8.5 -87t8.5 -81q7 -68 3 -135h2q16 44 24 65q19 50 26 66q10 24 35 75q22 45 46 91l305 594h76l-487 -940l-88 -418h-78l88 418z" />
    <glyph glyph-name="delta" unicode="&#x3b4;" horiz-adv-x="913" 
d="M82 328q0 75 13 144q14 73 42 140q28 66 75 127q46 60 112 103q60 39 136 63q79 25 171 35l-230 455l11 55h540l-37 -180h-47v125h-391l271 -523q32 -60 55 -141q22 -78 22 -158q0 -95 -27 -199q-26 -100 -75 -190q-62 -111 -146 -154q-86 -44 -184 -44q-68 0 -122 20
q-55 20 -98 63q-44 44 -67 106q-24 65 -24 153zM160 317q0 -146 67 -213t176 -67q87 0 154 52q68 53 119 165q33 72 51 157t18 173q0 62 -16 127q-17 69 -43 120l-33 62q-61 -6 -117 -20t-96 -31q-80 -34 -131 -88q-52 -55 -87 -125q-32 -63 -48 -150q-14 -74 -14 -162z" />
    <glyph glyph-name="epsilon" unicode="&#x3b5;" horiz-adv-x="821" 
d="M51 205q0 107 65 186q66 79 175 109q-66 16 -96 66q-31 51 -31 106q0 68 31 122q30 52 79 88q50 36 114 54t132 18q77 0 136 -11q68 -13 145 -52l-33 -156h-47v123q-33 16 -82 30q-45 13 -125 13q-54 0 -102 -13q-50 -14 -87 -42t-62 -73q-23 -42 -23 -103q0 -70 45 -107
q44 -37 129 -37h137l-8 -55h-138q-55 0 -105 -18q-48 -18 -88 -54q-38 -35 -59 -83q-22 -50 -22 -109q0 -86 67 -124t173 -38q71 0 152 23q80 23 149 63l26 -37q-65 -43 -151 -76q-83 -32 -197 -32q-59 0 -113 12q-55 12 -96 38q-42 26 -65 67q-25 44 -25 102z" />
    <glyph glyph-name="zeta" unicode="&#x3b6;" horiz-adv-x="704" 
d="M74 268q0 110 38 222q38 113 98 219q60 107 136 205q91 118 152 186q63 71 145 147q77 71 166 148h-414l-53 -121h-51l39 176h569l-10 -59q-205 -173 -361 -347q-66 -74 -132 -162q-67 -89 -121 -189t-89 -205q-34 -103 -34 -212q0 -106 62 -162q63 -57 200 -57h112
q55 0 88 -24t33 -78q0 -48 -17 -86q-19 -43 -47 -78q-29 -36 -66 -70q-39 -36 -73 -63l-32 33q21 20 53 50q30 29 53 60q25 34 41 68q16 33 16 74q0 57 -65 57h-94q-166 0 -254 66t-88 202z" />
    <glyph glyph-name="eta" unicode="&#x3b7;" horiz-adv-x="983" 
d="M279 877l-123 16l10 47h184l-18 -166q79 77 173 129q93 51 179 51q88 0 137 -49t49 -139q0 -35 -10 -84l-112 -528q-2 -11 -6 -28t-5 -22q-4 -19 -4 -30q0 -21 23 -21h114v-33q-87 -34 -141 -34q-35 0 -55 14q-21 15 -21 47q0 13 2 29l7 28l120 574q11 53 11 78
q0 68 -32 98q-33 31 -91 31q-86 0 -172 -48q-85 -48 -176 -116l-154 -721h-76z" />
    <glyph glyph-name="theta" unicode="&#x3b8;" horiz-adv-x="1026" 
d="M403 -14q-140 0 -202 77q-64 79 -64 203q0 31 3 64q2 20 12 67l84 398l-125 16l10 47h203l-101 -475q-12 -66 -12 -125q0 -46 10 -85q11 -41 33 -69t60 -46q35 -17 94 -17q89 0 157 47q66 45 117 120q47 68 83 158q33 82 56 160q21 74 37 154q16 82 23 154
q-103 6 -199 25q-97 19 -177 60q-79 40 -128 101t-49 149q0 65 22 118q23 55 63 92q44 40 94 60q54 21 116 21q79 0 132 -22q52 -22 93 -64q35 -37 59 -89q23 -49 36 -105t18 -114q4 -52 4 -114q0 -99 -14 -206q-13 -98 -44 -207q-31 -102 -65 -188q-37 -92 -100 -179
q-58 -80 -143 -134q-82 -52 -196 -52zM883 887q0 15 1 26t1 27q0 44 -5 132q-4 78 -32 153q-27 73 -80 126q-52 52 -152 52q-90 0 -153 -63q-64 -64 -64 -167q0 -71 38 -121t104 -83q69 -34 153 -53q80 -18 189 -29z" />
    <glyph glyph-name="iota" unicode="&#x3b9;" horiz-adv-x="473" 
d="M98 47q0 13 2 29q1 11 6 28l164 773l-123 16l11 47h202l-167 -786q-2 -11 -6 -28t-5 -22q-4 -19 -4 -30q0 -21 23 -21h114v-33q-87 -34 -141 -34q-35 0 -55 14q-21 15 -21 47z" />
    <glyph glyph-name="kappa" unicode="&#x3ba;" horiz-adv-x="870" 
d="M279 877l-123 16l10 47h203l-97 -453l531 453h88l-541 -461l258 -391q11 -20 23 -28q10 -7 35 -7h88v-33q-72 -34 -121 -34q-34 0 -52 19q-12 13 -38 50l-273 422l-102 -477h-76z" />
    <glyph glyph-name="lambda" unicode="&#x3bb;" horiz-adv-x="794" 
d="M-49 0l538 940h27v383q0 57 -10 71q-10 15 -39 15q-31 0 -63 -8q-18 -4 -72 -25l-17 43q96 45 166 45q43 0 63 -14q21 -15 31 -38q12 -27 13 -53q2 -40 2 -63v-1198q0 -33 16 -39t39 -6h88v-33q-72 -34 -121 -34q-53 0 -74 30q-22 31 -22 84v670q0 71 4 111h-2
q-27 -59 -59 -117q-37 -68 -84 -150l-348 -614h-76z" />
    <glyph glyph-name="uni03BC" unicode="&#x3bc;" horiz-adv-x="1024" 
d="M74 -418h-74l274 1295l-122 16l10 47h203l-148 -686q-10 -49 -10 -78q0 -69 34 -99q35 -30 93 -30q85 0 171 50q77 45 175 118l156 725h75l-168 -786q-2 -10 -5.5 -26.5t-4.5 -23.5q-4 -19 -4 -30q0 -21 23 -21h114v-33q-87 -34 -141 -34q-36 0 -54 12t-21 35q-3 24 4 54
q10 44 18 73q-85 -73 -175 -123q-91 -51 -178 -51q-53 0 -91 18t-54 51z" />
    <glyph glyph-name="nu" unicode="&#x3bd;" horiz-adv-x="813" 
d="M195 877l-113 16l10 47h172l68 -635q10 -78 13 -145q3 -56 1 -107h2q15 45 39 105q18 44 66 139l335 643h76l-495 -940h-76z" />
    <glyph glyph-name="xi" unicode="&#x3be;" horiz-adv-x="739" 
d="M74 295q0 108 37 212q38 107 120 183q48 46 103 70q61 27 104 33q-74 12 -129 75q-57 66 -57 176q0 82 27 158t77 135q49 57 119 90q69 33 160 33q92 0 152 -23q62 -24 106 -69l-31 -156h-49v136q-67 55 -178 55q-71 0 -123 -27q-56 -29 -94 -71q-45 -51 -69 -119
q-23 -65 -23 -142q0 -59 18 -101q19 -44 51 -70t75 -40q44 -14 91 -14h115l-12 -57h-132q-85 0 -158 -38q-74 -38 -126 -110q-50 -71 -72 -147q-24 -83 -24 -168q0 -111 58 -176q58 -66 193 -66h103q55 0 88 -24t33 -78q0 -45 -18 -86q-19 -43 -47 -78q-31 -39 -65 -70
q-39 -36 -73 -63l-33 33q21 20 53 50q33 32 54 60q25 34 41 68q16 33 16 74q0 57 -66 57h-92q-164 0 -244 77q-79 76 -79 218z" />
    <glyph glyph-name="omicron" unicode="&#x3bf;" horiz-adv-x="913" 
d="M676 254q36 80 56 180q20 102 20 193q0 142 -65 209q-64 65 -173 65q-91 0 -156 -46q-66 -46 -118 -157q-39 -83 -60 -181q-20 -94 -20 -191q0 -152 65 -220q66 -69 174 -69q181 0 277 217zM82 330q0 107 23 206q24 104 69 189q63 122 153 176q89 53 197 53q68 0 122 -20
q56 -21 97 -63q42 -44 65 -104t23 -146q0 -108 -22 -208q-22 -98 -64 -186q-61 -128 -151 -185q-88 -56 -197 -56q-71 0 -125 20q-58 21 -99 64q-44 46 -67 107q-24 65 -24 153z" />
    <glyph glyph-name="pi" unicode="&#x3c0;" horiz-adv-x="999" 
d="M270 883h-141l12 57h858l-10 -47l-141 -10l-156 -729q-2 -10 -5.5 -26.5t-4.5 -23.5q-4 -19 -4 -30q0 -21 22 -21h115v-33q-87 -34 -141 -34q-36 0 -56 14t-20 47q0 13 2 29q1 11 6 28l164 779h-424l-188 -883h-76z" />
    <glyph glyph-name="rho" unicode="&#x3c1;" horiz-adv-x="925" 
d="M35 -418h-76l195 910q28 134 68 219q42 89 94 142q52 54 117 78q62 23 138 23q134 0 203 -82q70 -84 70 -225q0 -65 -10 -132q-10 -66 -32 -142q-21 -72 -56 -139q-37 -70 -80 -119q-52 -60 -121 -95q-67 -34 -154 -34q-85 0 -146 38q-59 37 -98 85zM160 166
q52 -56 106 -88q58 -35 131 -35t126 34q55 35 95 87q43 54 67 111q27 63 45 129q19 68 26 132q8 69 8 117q0 124 -49 182t-146 58q-137 0 -216 -94t-124 -301z" />
    <glyph glyph-name="sigma1" unicode="&#x3c2;" horiz-adv-x="794" 
d="M303 -309q30 30 50 48q32 29 58 62t48 74q20 37 20 82q0 28 -21 40q-16 9 -65 21l-61 13q-137 29 -193 103q-57 75 -57 192q0 104 23 193q24 92 65 173q71 143 168 203q94 59 207 59q154 0 239 -82l-30 -149h-45v135q-32 19 -70 31q-39 12 -96 12q-95 0 -172 -58
q-78 -58 -133 -175q-36 -81 -56 -169q-20 -87 -20 -182q0 -83 37 -136q39 -55 137 -79l113 -26q60 -15 80 -41q22 -28 22 -62q0 -44 -20 -89q-21 -46 -51 -85q-32 -41 -69 -78q-32 -32 -75 -63z" />
    <glyph glyph-name="sigma" unicode="&#x3c3;" horiz-adv-x="978" 
d="M397 -14q-71 0 -125 20q-58 21 -99 64q-44 46 -67 107q-24 65 -24 153q0 110 32 233q31 120 109 219q65 83 155 121q87 37 191 37h441l-11 -47l-141 -10h-127q50 -50 74 -123q24 -74 24 -146q0 -105 -21 -204q-20 -93 -63 -183q-61 -128 -151 -185q-88 -56 -197 -56z
M399 37q181 0 277 217q76 167 76 352q0 68 -16 145q-15 71 -56 132h-100q-44 0 -86 -7t-88 -26q-43 -18 -83 -52q-41 -35 -71 -87q-48 -86 -70 -184q-22 -100 -22 -201q0 -152 65 -220q66 -69 174 -69z" />
    <glyph glyph-name="tau" unicode="&#x3c4;" horiz-adv-x="743" 
d="M231 76q0 24 7 59l159 748h-278l12 57h643l-10 -47l-141 -10h-152l-158 -748q-6 -28 -6 -49q0 -43 49 -43q28 0 60 8q25 6 71 25l11 -39q-31 -21 -74 -37q-38 -14 -84 -14q-48 0 -78 21q-31 22 -31 69z" />
    <glyph glyph-name="upsilon" unicode="&#x3c5;" horiz-adv-x="937" 
d="M143 229q0 44 13 101l116 547l-122 16l10 47h202l-129 -602q-14 -59 -14 -119q0 -90 45 -133q44 -43 146 -43q66 0 116 18q47 17 83 56t57 93q23 58 39 130l129 600h75l-133 -623q-33 -151 -117 -241t-249 -90q-138 0 -202 66q-65 67 -65 177z" />
    <glyph glyph-name="phi" unicode="&#x3c6;" horiz-adv-x="1157" 
d="M426 -418h-78l86 406q-166 4 -259 81t-93 246q0 128 43 254q43 127 123 219q48 53 103 91q59 41 130 69l19 -45q-69 -34 -119 -76q-53 -43 -90 -90q-69 -87 -100 -201t-31 -225q0 -135 69 -199q70 -66 215 -73l140 651q12 50 28 92q18 48 48 86q30 39 72 63q40 23 99 23
q71 0 116 -22q47 -22 75 -66q30 -45 41 -102q12 -60 12 -133q0 -65 -11 -124q-13 -68 -31 -126q-20 -64 -46 -117q-28 -57 -59 -94q-77 -93 -183 -137q-105 -44 -233 -45zM522 39q132 11 221 58q91 49 148 147q21 37 40 86q18 46 34 103q14 49 22 108q8 56 8 98q0 44 -4 85
q-5 48 -20 86q-17 41 -49 66t-88 25q-63 0 -107 -59q-46 -61 -68 -170z" />
    <glyph glyph-name="chi" unicode="&#x3c7;" horiz-adv-x="862" 
d="M406 514l-175 363l-108 16l10 47h152l176 -377h2l307 377h82l-360 -436l202 -426q7 -15 17 -21q7 -4 30 -4h84v-33q-72 -34 -118 -34q-29 0 -45 12t-27 35l-197 420h-2l-368 -453h-78z" />
    <glyph glyph-name="psi" unicode="&#x3c8;" horiz-adv-x="1179" 
d="M156 301q0 31 4 58q7 46 10 63l96 455l-123 16l11 47h202l-110 -514q-13 -67 -13 -115q0 -123 69 -184q70 -62 185 -80l191 893h78l-193 -899q96 0 157 20q63 20 109 62q55 52 84 127q34 87 54 184l108 506h76l-111 -516q-28 -122 -61 -203q-35 -85 -94 -137
q-55 -49 -135 -73q-76 -23 -197 -23l-86 -406h-78l86 410q-156 18 -238 95q-81 77 -81 214z" />
    <glyph glyph-name="omega" unicode="&#x3c9;" horiz-adv-x="1169" 
d="M82 240q0 61 8 136q7 65 28 141q20 72 52 136t80 123q45 54 106 98q61 45 138 74l18 -47q-154 -73 -227 -184q-66 -100 -99 -233q-32 -128 -32 -255q0 -89 33 -139q35 -53 114 -53q38 0 69 16q29 15 58 44q26 26 45 64q20 41 27 75l92 428h78l-92 -428q-7 -33 -7 -54
q0 -58 32 -101q31 -42 91 -42q59 0 117 41q57 40 98 121q47 93 74 203q27 111 27 223q0 83 -31 156q-30 70 -123 122l37 43q104 -49 149 -128t45 -183q0 -124 -34 -256q-34 -130 -105 -242q-40 -65 -102 -109t-154 -44q-58 0 -110 36q-54 37 -64 115q-47 -87 -106 -119
q-58 -32 -117 -32q-61 0 -102 21q-42 22 -66 58q-25 38 -35 80q-10 43 -10 95z" />
    <glyph glyph-name="iotadieresis" unicode="&#x3ca;" horiz-adv-x="473" 
d="M98 47q0 13 2 29q1 11 6 28l164 773l-123 16l11 47h202l-167 -786q-2 -11 -6 -28t-5 -22q-4 -19 -4 -30q0 -21 23 -21h114v-33q-87 -34 -141 -34q-35 0 -55 14q-21 15 -21 47zM496 1106q-32 0 -50 18t-18 50t17 49q18 18 49 18t49 -18t18 -49q0 -33 -17 -50
q-18 -18 -48 -18zM193 1106q-32 0 -50 18t-18 50t17 49q18 18 48 18q32 0 50 -18t18 -49q0 -33 -17 -50q-18 -18 -48 -18z" />
    <glyph glyph-name="upsilondieresis" unicode="&#x3cb;" horiz-adv-x="937" 
d="M143 229q0 44 13 101l116 547l-122 16l10 47h202l-129 -602q-14 -59 -14 -119q0 -90 45 -133q44 -43 146 -43q66 0 116 18q47 17 83 56t57 93q23 58 39 130l129 600h75l-133 -623q-33 -151 -117 -241t-249 -90q-138 0 -202 66q-65 67 -65 177zM768 1106q-31 0 -49 18
q-19 19 -19 50t18 49t48 18q31 0 49 -18q19 -19 19 -49q0 -32 -18 -50t-48 -18zM465 1106q-31 0 -49 18q-19 19 -19 50t18 49t48 18q31 0 49 -18t18 -49q0 -33 -17 -50q-18 -18 -48 -18z" />
    <glyph glyph-name="omicrontonos" unicode="&#x3cc;" horiz-adv-x="913" 
d="M676 254q36 80 56 180q20 102 20 193q0 142 -65 209q-64 65 -173 65q-91 0 -156 -46q-66 -46 -118 -157q-39 -83 -60 -181q-20 -94 -20 -191q0 -152 65 -220q66 -69 174 -69q181 0 277 217zM82 330q0 107 23 206q24 104 69 189q63 122 153 176q89 53 197 53q68 0 122 -20
q56 -21 97 -63q42 -44 65 -104t23 -146q0 -108 -22 -208q-22 -98 -64 -186q-61 -128 -151 -185q-88 -56 -197 -56q-71 0 -125 20q-58 21 -99 64q-44 46 -67 107q-24 65 -24 153zM682 1323h100l-184 -250h-47z" />
    <glyph glyph-name="upsilontonos" unicode="&#x3cd;" horiz-adv-x="937" 
d="M143 229q0 44 13 101l116 547l-122 16l10 47h202l-129 -602q-14 -59 -14 -119q0 -90 45 -133q44 -43 146 -43q66 0 116 18q47 17 83 56t57 93q23 58 39 130l129 600h75l-133 -623q-33 -151 -117 -241t-249 -90q-138 0 -202 66q-65 67 -65 177zM713 1323h100l-184 -250
h-47z" />
    <glyph glyph-name="omegatonos" unicode="&#x3ce;" horiz-adv-x="1169" 
d="M82 240q0 61 8 136q7 65 28 141q20 72 52 136t80 123q45 54 106 98q61 45 138 74l18 -47q-154 -73 -227 -184q-66 -100 -99 -233q-32 -128 -32 -255q0 -89 33 -139q35 -53 114 -53q38 0 69 16q29 15 58 44q26 26 45 64q20 41 27 75l92 428h78l-92 -428q-7 -33 -7 -54
q0 -58 32 -101q31 -42 91 -42q59 0 117 41q57 40 98 121q47 93 74 203q27 111 27 223q0 83 -31 156q-30 70 -123 122l37 43q104 -49 149 -128t45 -183q0 -124 -34 -256q-34 -130 -105 -242q-40 -65 -102 -109t-154 -44q-58 0 -110 36q-54 37 -64 115q-47 -87 -106 -119
q-58 -32 -117 -32q-61 0 -102 21q-42 22 -66 58q-25 38 -35 80q-10 43 -10 95zM825 1323h101l-185 -250h-47z" />
    <glyph glyph-name="uni03D0" unicode="&#x3d0;" horiz-adv-x="933" 
d="M63 -418h-75l264 1499q11 71 40 145q26 66 73 121q46 53 108 83q63 30 150 30q116 0 187 -61q73 -62 73 -189q0 -68 -21 -132q-22 -67 -59 -117q-42 -57 -95 -93q-55 -38 -128 -53q50 -6 96 -27q47 -21 84 -58t58 -94q22 -60 22 -132q0 -110 -42 -221q-42 -112 -124 -189
q-60 -55 -129 -81q-72 -27 -162 -27q-62 0 -127 22q-64 22 -106 64zM160 125q54 -42 115 -62q60 -20 114 -20q70 0 135 28q64 27 111 79q61 68 96 162q35 96 35 196q0 130 -89 202t-224 72h-60l10 58h58q76 0 137 29q65 31 111 80q45 47 73 117q27 66 27 142q0 87 -45 141
t-148 54q-106 0 -182 -76t-106 -252z" />
    <glyph glyph-name="theta1" unicode="&#x3d1;" horiz-adv-x="1024" 
d="M408 -14q-126 0 -200 71q-75 72 -75 242q0 123 15 240q14 106 40 225q21 85 34 135q20 75 48 149q24 64 67 146q37 72 87 129q51 60 123 99q70 38 158 38q60 0 107 -17q53 -19 85 -54q34 -37 55 -96t21 -142q0 -106 -15 -226q-17 -139 -40 -241q-28 -126 -64 -237
q-38 -117 -82 -211q-34 -76 -78 -124q-45 -50 -90 -76q-46 -27 -97 -39q-45 -11 -99 -11zM854 776q14 79 28 189q11 88 11 174q0 141 -45 202q-45 62 -152 62q-88 0 -149 -46q-63 -48 -107 -118q-63 -106 -105 -226t-71 -237h590zM414 39q94 0 166 54q73 55 125 159
q19 35 38 91q25 72 37 114q22 76 34 129l30 135h-590q-19 -95 -32 -220q-11 -106 -11 -208q0 -141 55 -197q56 -57 148 -57z" />
    <glyph glyph-name="uni0400" unicode="&#x400;" horiz-adv-x="980" 
d="M774 565h-51l14 152h-387l-139 -658h537l61 193h55l-53 -252h-842l11 49l149 10l272 1280l-145 11l10 53h797l-33 -252h-51v195h-496l-121 -572h388l51 152h51zM557 1686l55 63l258 -221l-28 -37z" />
    <glyph glyph-name="afii10023" unicode="&#x401;" horiz-adv-x="980" 
d="M774 565h-51l14 152h-387l-139 -658h537l61 193h55l-53 -252h-842l11 49l149 10l272 1280l-145 11l10 53h797l-33 -252h-51v195h-496l-121 -572h388l51 152h51zM868 1507q-30 0 -49 19q-18 18 -18 49q0 32 17 49q18 18 48 18q31 0 49 -18q19 -19 19 -49q0 -31 -18 -49
q-19 -19 -48 -19zM565 1507q-30 0 -49 19q-18 18 -18 49q0 32 17 49q18 18 48 18q31 0 49 -18q19 -19 19 -49q0 -31 -18 -49q-19 -19 -48 -19z" />
    <glyph glyph-name="afii10051" unicode="&#x402;" horiz-adv-x="1402" 
d="M1176 379q18 85 24 129t6 76q0 109 -53 159t-152 50q-65 0 -116 -12q-56 -13 -93 -29q-35 -15 -76 -40q-38 -23 -65 -42l-129 -607l146 -10l-11 -53h-376l10 53l149 10l273 1283h-363l-78 -277h-53l70 334h954l-65 -313h-54l33 256h-362l-129 -609q75 47 153 81
q83 36 203 36q132 0 200 -59t68 -193q0 -30 -5 -77q-5 -45 -19 -109q-23 -103 -44 -162q-24 -65 -62 -114q-37 -47 -96 -85q-49 -31 -149 -73l-14 49q75 39 109 62q43 29 76 68q32 39 53 90q20 51 37 128z" />
    <glyph glyph-name="afii10052" unicode="&#x403;" horiz-adv-x="899" 
d="M258 1354l10 49h785l-72 -334h-53l39 277h-482l-274 -1287l145 -10l-10 -49h-377l11 49l149 10l272 1280zM588 1532l313 217l43 -74l-334 -184z" />
    <glyph glyph-name="afii10053" unicode="&#x404;" horiz-adv-x="1073" 
d="M539 45q77 0 138 17q68 19 114 44l79 203h52l-52 -227q-58 -40 -141 -68t-192 -28q-215 0 -314 117q-100 118 -100 321q0 86 15 200q15 115 49 230q35 118 85 223q51 106 123 178q162 162 369 162q191 0 309 -92l-37 -219h-49v205q-46 27 -100 39q-53 12 -129 12
q-110 0 -199 -55t-156 -152q-55 -79 -97 -187q-42 -107 -66 -227h589l-12 -57h-590q-9 -59 -16 -132q-6 -66 -6 -130q0 -179 80 -279q79 -98 254 -98z" />
    <glyph glyph-name="afii10054" unicode="&#x405;" horiz-adv-x="923" 
d="M37 307h53v-176q50 -41 118 -63q71 -23 173 -23q85 0 148 27t103 70q38 41 59 103q20 60 20 120t-16 111q-15 49 -45 89q-31 42 -73 78q-35 30 -100 74q-62 40 -97 71q-48 41 -76 80q-33 45 -50 93q-18 50 -18 110q0 82 26 144q27 65 75 110t116 69q65 23 149 23
q104 0 185 -25q84 -26 137 -67l-37 -215h-49v199q-53 25 -116 38q-54 11 -124 11q-126 0 -208 -71q-81 -71 -81 -200q0 -103 56 -173q56 -69 155 -136q74 -51 114 -85q51 -43 84 -88q34 -45 52 -99q18 -53 18 -119q0 -80 -22 -150q-23 -73 -72 -128q-50 -56 -127 -90
q-75 -33 -188 -33q-129 0 -219 36t-150 99z" />
    <glyph glyph-name="afii10055" unicode="&#x406;" horiz-adv-x="509" 
d="M-20 49l149 10l272 1280l-145 11l10 53h377l-10 -53l-150 -11l-272 -1280l145 -10l-10 -49h-377z" />
    <glyph glyph-name="afii10056" unicode="&#x407;" horiz-adv-x="509" 
d="M610 1507q-30 0 -49 19q-18 18 -18 49q0 32 17 49q18 18 48 18q31 0 49 -18q19 -19 19 -49q0 -31 -18 -49q-19 -19 -48 -19zM338 1507q-30 0 -49 19t-19 49q0 31 18 49t48 18q31 0 49 -18t18 -49q0 -32 -17 -49q-19 -19 -48 -19zM-20 49l149 10l272 1280l-145 11l10 53
h377l-10 -53l-150 -11l-272 -1280l145 -10l-10 -49h-377z" />
    <glyph glyph-name="afii10057" unicode="&#x408;" horiz-adv-x="473" 
d="M205 117q-17 -87 -41 -150q-21 -56 -59 -99q-37 -41 -90 -68q-58 -29 -136 -56l-14 49q63 29 105 54q40 24 72 61q30 34 48 84q19 53 35 127l260 1220l-145 11l10 53h377l-11 -53l-149 -11z" />
    <glyph glyph-name="afii10058" unicode="&#x409;" horiz-adv-x="1654" 
d="M997 745l-147 -690h172q76 0 143 21q70 22 119 55q88 63 129 164q41 102 41 207q0 138 -66 190q-67 53 -196 53h-195zM621 49l149 10l272 1287h-393l-123 -431q-81 -281 -148 -456q-70 -183 -140 -285q-71 -103 -156 -146q-84 -42 -195 -42l2 69q103 10 180 55
q73 42 137 143q61 96 122 265q59 164 133 422l114 399l-147 11l10 53h846l-10 -53l-152 -11l-112 -538h202q158 0 245 -67q85 -66 85 -224q0 -136 -54 -250q-54 -115 -159 -182q-65 -43 -140 -60q-79 -18 -171 -18h-410z" />
    <glyph glyph-name="afii10059" unicode="&#x40a;" horiz-adv-x="1742" 
d="M1083 725l-141 -670h172q87 0 159 21q76 22 126 65q73 61 108 156q35 96 35 195q0 132 -62 182q-63 51 -202 51h-195zM711 49l149 10l141 664h-649l-141 -664l145 -10l-10 -49h-377l11 49l149 10l272 1280l-145 11l12 53h377l-12 -53l-150 -11l-118 -559h649l119 559
l-146 11l12 53h377l-12 -53l-150 -11l-118 -559h202q171 0 251 -64q81 -64 81 -227q0 -118 -49 -226q-50 -111 -143 -177q-68 -48 -148 -67t-180 -19h-410z" />
    <glyph glyph-name="afii10060" unicode="&#x40b;" horiz-adv-x="1429" 
d="M352 1346l-80 -277h-53l72 334h954l-67 -313h-54l35 256h-362l-129 -609q75 47 153 81q83 36 203 36q131 0 200 -57q68 -56 68 -181q0 -49 -4 -85q-5 -44 -14 -82l-82 -386l145 -10l-12 -53h-377l13 53l149 10l78 373q18 85 18 148q0 109 -53 159t-152 50q-65 0 -116 -12
q-56 -13 -93 -29q-35 -15 -76 -40q-34 -21 -63 -42l-129 -607l146 -10l-13 -53h-376l12 53l149 10l273 1283h-363z" />
    <glyph glyph-name="afii10061" unicode="&#x40c;" horiz-adv-x="1064" 
d="M956 0h-194l-356 758l589 581l-139 11l10 53h353l-11 -53l-125 -11l-591 -583l329 -697l146 -10zM-20 49l149 10l272 1280l-145 11l10 53h377l-10 -53l-150 -11l-272 -1280l145 -10l-10 -49h-377zM674 1532l313 217l43 -74l-334 -184z" />
    <glyph glyph-name="uni040D" unicode="&#x40d;" horiz-adv-x="1284" 
d="M752 49l149 10l215 1006q12 58 30 121q19 65 40 121h-10q-32 -58 -75 -124t-85 -120l-817 -1063h-230l11 49l149 10l272 1280l-145 11l12 53h377l-12 -53l-150 -11l-217 -1022q-8 -38 -11 -51q-12 -46 -16 -59q-8 -27 -20 -61q-4 -12 -10.5 -29t-7.5 -21h12q11 22 31 52
q8 11 22.5 34t20.5 33q30 46 44 67q16 24 38 52l819 1069h229l-12 -53l-150 -11l-272 -1280l145 -10l-10 -49h-377zM719 1686l55 63l258 -221l-28 -37z" />
    <glyph glyph-name="afii10062" unicode="&#x40e;" horiz-adv-x="1181" 
d="M817 1513q-82 0 -133 54q-49 52 -55 127l65 14q5 -54 36 -94q32 -41 93 -41q62 0 104 43q42 44 66 96l62 -18q-34 -79 -89 -129q-58 -52 -149 -52zM322 1335l-117 19l10 49h342l-10 -49l-148 -19l170 -704q21 -83 33 -156q5 -30 16 -104h5q11 25 48 100q21 42 83 162
l376 700l-126 21l10 49h350l-10 -49l-137 -19l-568 -1034q-42 -77 -86 -142q-39 -59 -80 -98q-40 -39 -89 -57q-46 -17 -109 -22l-4 61q57 6 93 19t70 41q32 26 63 73q25 37 68 117z" />
    <glyph glyph-name="afii10145" unicode="&#x40f;" horiz-adv-x="1210" 
d="M-31 0l11 53l149 10l272 1280l-145 11l10 49h377l-10 -49l-150 -11l-272 -1286h618l273 1286l-146 11l11 49h376l-10 -49l-149 -11l-273 -1280l146 -10l-10 -53h-512l-58 -338h-84l86 338h-510z" />
    <glyph glyph-name="afii10017" unicode="&#x410;" horiz-adv-x="1134" 
d="M825 492h-487l-221 -422l125 -21l-11 -49h-344l11 49l137 19l706 1335h74l131 -1335l117 -19l-10 -49h-342l10 49l147 19zM369 551h450l-51 520q-8 72 -9 144q-1 56 1 112h-2q-22 -58 -47 -113q-31 -69 -68 -143z" />
    <glyph glyph-name="afii10018" unicode="&#x411;" horiz-adv-x="1114" 
d="M358 745l-147 -690h213q166 0 272 78q39 28 71 73q32 44 53 94t33 102q11 48 11 102q0 133 -70 187q-71 54 -200 54h-236zM1001 1069h-53l39 277h-502l-116 -545h243q154 0 247 -69t93 -230q0 -60 -14 -116q-16 -65 -41 -116q-26 -53 -66 -104q-39 -49 -88 -82
q-64 -46 -146 -65q-80 -19 -177 -19h-451l13 53l149 10l272 1280l-145 11l10 49h805z" />
    <glyph glyph-name="afii10019" unicode="&#x412;" horiz-adv-x="1069" 
d="M483 57q108 0 187 31q73 29 125 82q50 51 73 126q23 74 23 157q0 113 -67 183q-66 69 -212 69h-266l-135 -648h272zM612 762q90 0 149 22q61 23 101 66q42 42 64 113q22 70 22 143q0 103 -62 171q-63 69 -196 69h-211l-121 -584h254zM694 1403q89 0 152 -24
q66 -25 104 -63q43 -43 60 -93q18 -53 18 -113q0 -67 -17 -125q-19 -64 -52 -113q-34 -51 -85 -88q-48 -35 -120 -51q91 -23 153 -94q64 -73 64 -190q0 -105 -36 -193t-101 -147q-66 -60 -159 -84q-97 -25 -212 -25h-494l11 49l149 10l272 1280l-145 11l10 53h428z" />
    <glyph glyph-name="afii10020" unicode="&#x413;" horiz-adv-x="899" 
d="M258 1354l10 49h785l-72 -334h-53l39 277h-482l-274 -1287l145 -10l-10 -49h-377l11 49l149 10l272 1280z" />
    <glyph glyph-name="afii10021" unicode="&#x414;" horiz-adv-x="1230" 
d="M16 0l-86 -317h-53l80 374h145q55 60 106 132q49 69 109 183q59 111 110 245q55 144 105 323l111 399l-149 11l12 53h858l-12 -53l-150 -11l-272 -1282h194l-80 -374h-53l47 317h-1022zM592 915q-50 -175 -110 -324q-58 -143 -109 -244q-48 -95 -102 -174
q-50 -73 -87 -116h664l274 1289h-405z" />
    <glyph glyph-name="afii10022" unicode="&#x415;" horiz-adv-x="980" 
d="M774 565h-51l14 152h-387l-139 -658h537l61 193h55l-53 -252h-842l11 49l149 10l272 1280l-145 11l10 53h797l-33 -252h-51v195h-496l-121 -572h388l51 152h51z" />
    <glyph glyph-name="afii10024" unicode="&#x416;" horiz-adv-x="1585" 
d="M68 59l610 707l-316 569l-120 19l10 49h344l-10 -49l-135 -21l309 -579l-643 -754h-195l10 49zM522 49l150 10l272 1280l-145 11l12 53h377l-12 -53l-150 -11l-272 -1280l145 -10l-10 -49h-377zM1483 49l-10 -49h-197l-322 748l547 585l-117 21l11 49h344l-10 -49
l-130 -19l-565 -581l305 -695z" />
    <glyph glyph-name="afii10025" unicode="&#x417;" horiz-adv-x="1005" 
d="M377 686l12 55h98q191 0 293 125q43 52 72 125t29 144q0 99 -53 161t-179 62q-78 0 -133 -11q-62 -12 -123 -40l-63 -195h-54l46 219q67 46 153 66q84 20 186 20q89 0 145 -20q58 -21 94 -58q35 -36 50 -86q15 -49 15 -104q0 -71 -21 -139q-22 -72 -60 -125
q-42 -59 -100 -101t-135 -63q39 -7 87 -27q42 -18 75 -51t51 -84q19 -54 19 -125q0 -87 -51 -189q-49 -98 -146 -165q-81 -55 -170 -75q-92 -21 -190 -21q-101 0 -182 22t-132 70l47 221h54l-21 -201q56 -27 115 -39q60 -12 133 -12q96 0 180 26q82 25 139 72q70 61 103 143
t33 152q0 140 -80 194q-79 54 -234 54h-102z" />
    <glyph glyph-name="afii10026" unicode="&#x418;" horiz-adv-x="1284" 
d="M752 49l149 10l215 1006q12 58 30 121q19 65 40 121h-10q-32 -58 -75 -124t-85 -120l-817 -1063h-230l11 49l149 10l272 1280l-145 11l12 53h377l-12 -53l-150 -11l-217 -1022q-8 -38 -11 -51q-12 -46 -16 -59q-8 -27 -20 -61q-4 -12 -10.5 -29t-7.5 -21h12q11 22 31 52
q8 11 22.5 34t20.5 33q30 46 44 67q16 24 38 52l819 1069h229l-12 -53l-150 -11l-272 -1280l145 -10l-10 -49h-377z" />
    <glyph glyph-name="afii10027" unicode="&#x419;" horiz-adv-x="1284" 
d="M885 1513q-82 0 -133 54q-50 53 -56 127l66 14q5 -54 36 -94q32 -41 93 -41t103 43q44 45 67 96l61 -18q-34 -79 -89 -129q-58 -52 -148 -52zM752 49l149 10l215 1006q12 58 30 121q19 65 40 121h-10q-32 -58 -75 -124t-85 -120l-817 -1063h-230l11 49l149 10l272 1280
l-145 11l12 53h377l-12 -53l-150 -11l-217 -1022q-8 -38 -11 -51q-12 -46 -16 -59q-8 -27 -20 -61q-4 -12 -10.5 -29t-7.5 -21h12q11 22 31 52q8 11 22.5 34t20.5 33q30 46 44 67q16 24 38 52l819 1069h229l-12 -53l-150 -11l-272 -1280l145 -10l-10 -49h-377z" />
    <glyph glyph-name="afii10028" unicode="&#x41a;" horiz-adv-x="1064" 
d="M956 0h-194l-356 758l589 581l-139 11l10 53h353l-11 -53l-125 -11l-591 -583l329 -697l146 -10zM-20 49l149 10l272 1280l-145 11l10 53h377l-10 -53l-150 -11l-272 -1280l145 -10l-10 -49h-377z" />
    <glyph glyph-name="afii10029" unicode="&#x41b;" horiz-adv-x="1130" 
d="M535 1339l-148 11l10 53h867l-11 -53l-151 -11l-271 -1280l146 -10l-12 -49h-377l12 49l150 10l272 1287h-414l-123 -431q-74 -262 -136 -431q-64 -177 -133 -287q-70 -113 -147 -161q-80 -50 -182 -50l2 69q90 6 155 49q67 44 125 144q58 99 118 268q58 163 133 424z
" />
    <glyph glyph-name="afii10030" unicode="&#x41c;" horiz-adv-x="1415" 
d="M676 344q8 24 13 35q10 23 19 39q2 4 12 23t17 32q4 7 47 82l504 848h260l-10 -53l-149 -11l-273 -1280l146 -10l-11 -49h-377l11 49l149 10l209 988q9 45 23 104q4 17 10 44t7 32q11 47 14 59q10 36 14 55h-2q-11 -25 -24 -52q-7 -14 -27 -52q-23 -44 -37 -68
q-6 -11 -25.5 -43.5t-32.5 -54.5l-473 -790h-69l-123 790q-8 55 -23 136q-9 51 -14 134h-2q-3 -22 -8.5 -55l-6.5 -39q-6 -36 -12 -70l-12 -63q-2 -9 -6.5 -31.5t-7.5 -35.5l-209 -988l145 -10l-10 -49h-363l11 49l149 10l272 1280l-145 11l10 53h258l133 -848
q11 -60 15 -118q4 -50 2 -93h2z" />
    <glyph glyph-name="afii10031" unicode="&#x41d;" horiz-adv-x="1261" 
d="M731 49l150 10l141 664h-670l-141 -664l145 -10l-10 -49h-377l11 49l149 10l272 1280l-145 11l10 53h377l-10 -53l-150 -11l-121 -559h670l121 559l-145 11l10 53h377l-11 -53l-149 -11l-272 -1280l145 -10l-10 -49h-377z" />
    </font>
</defs>
</svg>
