<?xml version="1.0" standalone="no"?>
<!DOCTYPE svg PUBLIC "-//W3C//DTD SVG 1.1//EN" "http://www.w3.org/Graphics/SVG/1.1/DTD/svg11.dtd" >
<svg xmlns="http://www.w3.org/2000/svg" xmlns:xlink="http://www.w3.org/1999/xlink" version="1.1">
<metadata>
Created by FontForge 20170731 at Fri Sep 18 17:19:01 2020
 By Aleksey,,,
2010 Erik Spiekermann, Christian Schwartz, Kris Sowersby published by FSI FontShop International GmbH
</metadata>
<defs>
<font id="FFUnitSlabPro-BlackItalic" horiz-adv-x="1126" >
  <font-face 
    font-family="FF Unit Slab Pro Black"
    font-weight="900"
    font-style="italic"
    font-stretch="normal"
    units-per-em="2048"
    panose-1="2 1 10 4 4 1 1 1 1 2"
    ascent="1638"
    descent="-410"
    x-height="1057"
    cap-height="1427"
    bbox="-901 -567 2820 2255"
    underline-thickness="204"
    underline-position="-214"
    slope="-12"
    unicode-range="U+0020-FB04"
  />
<missing-glyph horiz-adv-x="1040" 
d="M-16 1427h1073v-1427h-1073v1427zM811 246v936h-582v-936h582z" />
    <glyph glyph-name="uniFB00" unicode="ff" horiz-adv-x="1183" 
d="M674 1499q72 0 141 -12q68 -12 125 -41q103 80 266 80q61 0 124 -13t100 -28l-74 -203q-18 8 -44 14q-19 4 -52 4q-50 0 -82 -25q-33 -26 -50 -89l-30 -129h168l-52 -232h-163l-164 -809q-17 -80 -46 -139q-30 -59 -75 -103q-48 -47 -104 -76t-134 -58l-104 149
q54 48 88 104q34 55 55 158l156 774h-203l-172 -850q-17 -80 -46 -139q-30 -59 -75 -103q-48 -47 -104 -76q-58 -30 -133 -58l-96 149q52 46 83 105q32 60 52 157l164 815h-105l51 232h101l16 88q21 118 67 186q49 73 104 108q57 37 123 49q59 11 124 11zM793 1171
q7 35 10 47q4 14 12 44q-43 10 -82 10q-55 0 -91 -25q-33 -23 -50 -88l-25 -102h203z" />
    <glyph glyph-name="fi" unicode="fi" horiz-adv-x="1148" 
d="M725 825h-205l-172 -850q-17 -80 -46 -139q-30 -59 -75 -103q-48 -47 -104 -76q-58 -30 -133 -58l-96 149q52 46 83 105q32 60 52 157l164 815h-105l51 232h101l20 98q24 123 80 196t124 111q69 39 141 51q78 13 132 13q73 0 153 -16q72 -14 128 -40l-70 -221
q-84 33 -182 33q-39 0 -63 -4q-31 -5 -50 -18q-23 -15 -39 -43q-14 -25 -26 -76l-21 -84h541l-143 -662q-23 -103 -23 -129q0 -51 57 -51h50v-184q-69 -36 -127 -47t-105 -11q-110 0 -165 50q-54 49 -54 135q0 33 5 75q3 22 13 74z" />
    <glyph glyph-name="fl" unicode="fl" horiz-adv-x="1148" 
d="M827 1290q-44 10 -94 10t-84 -25t-51 -89l-31 -129h115l-51 -232h-111l-172 -850q-17 -80 -46 -139q-30 -59 -75 -103q-48 -47 -104 -76q-58 -30 -133 -58l-96 149q52 46 83 105q32 60 52 157l164 815h-105l51 232h101l22 114q24 116 70 187q45 69 100 106q54 37 116 49
q65 13 116 13q84 0 150 -23q64 -22 110 -53l77 55h203l-239 -1110q-23 -103 -23 -129q0 -51 57 -51h50v-184q-69 -36 -127 -47t-105 -11q-110 0 -165 50q-54 49 -54 135q0 33 5 75q3 22 13 74z" />
    <glyph glyph-name="uniFB03" unicode="ffi" horiz-adv-x="1679" 
d="M674 1499q82 0 152 -14q77 -15 130 -47q62 46 143 67q80 21 169 21q72 0 152 -16q72 -14 128 -40l-69 -221q-84 33 -183 33q-38 0 -62 -4q-31 -5 -50 -18q-22 -15 -39 -44q-17 -28 -27 -75l-20 -84h540l-143 -662q-22 -98 -22 -129q0 -51 57 -51h49v-184
q-69 -36 -127 -47t-104 -11q-110 0 -165 50t-55 135q0 25 6 75q3 22 13 74l108 518h-204l-164 -809q-17 -80 -46 -139q-30 -59 -75 -103q-48 -47 -104 -76t-134 -58l-96 149q55 49 84 104q30 57 51 158l156 774h-203l-172 -850q-17 -80 -46 -139q-30 -59 -75 -103
q-48 -47 -104 -76q-58 -30 -133 -58l-96 149q52 46 83 105q32 60 52 157l164 815h-105l51 232h101l16 88q21 118 67 186q49 73 104 108q57 37 123 49q59 11 124 11zM791 1155q12 57 30 107q-44 10 -88 10q-55 0 -91 -25q-33 -23 -50 -88l-25 -102h203z" />
    <glyph glyph-name="uniFB04" unicode="ffl" horiz-adv-x="1679" 
d="M240 1057l16 88q21 118 67 186q49 73 104 108q57 37 123 49q59 11 124 11q72 0 141 -12q70 -12 123 -41q50 42 115 61q67 19 141 19q85 0 151 -23q62 -22 109 -53l78 55h203l-240 -1110q-22 -98 -22 -129q0 -51 57 -51h49v-184q-69 -36 -127 -47t-104 -11q-110 0 -165 50
t-55 135q0 25 6 75q3 22 13 74l211 983q-44 10 -94 10t-84 -25q-36 -26 -52 -89l-30 -129h114l-51 -232h-110l-164 -809q-17 -80 -46 -139q-30 -59 -75 -103q-48 -47 -104 -76t-134 -58l-96 149q55 49 84 104q30 57 51 158l156 774h-203l-172 -850q-17 -80 -46 -139
q-30 -59 -75 -103q-48 -47 -104 -76q-58 -30 -133 -58l-96 149q52 46 83 105q32 60 52 157l164 815h-105l51 232h101zM791 1155q7 34 13 55q10 36 15 52q-44 10 -86 10q-55 0 -91 -25q-33 -23 -50 -88l-25 -102h203z" />
    <glyph glyph-name=".notdef" horiz-adv-x="1040" 
d="M-16 1427h1073v-1427h-1073v1427zM811 246v936h-582v-936h582z" />
    <glyph glyph-name=".null" horiz-adv-x="0" 
 />
    <glyph glyph-name="nonmarkingreturn" horiz-adv-x="495" 
 />
    <glyph glyph-name="space" unicode=" " horiz-adv-x="495" 
 />
    <glyph glyph-name="exclam" unicode="!" horiz-adv-x="636" 
d="M313 1427h385l-297 -1007h-213zM250 -27q-40 0 -74 15q-35 15 -60 40t-40 60q-15 34 -15 74t15 74q15 35 40 60q26 26 60 41t74 15t74 -15t60 -41q25 -25 40 -60q14 -32 14 -74t-14 -74q-15 -35 -40 -60t-60 -40q-34 -15 -74 -15z" />
    <glyph glyph-name="quotedbl" unicode="&#x22;" horiz-adv-x="991" 
d="M299 1450h338l-176 -635h-256zM748 1450h337l-176 -635h-256z" />
    <glyph glyph-name="numbersign" unicode="#" 
d="M561 430h-155l-113 -430h-203l113 430h-152l43 199h162l59 223h-151l43 199h160l100 374h203l-101 -374h156l100 374h203l-100 -374h147l-43 -199h-155l-60 -223h146l-43 -199h-156l-113 -430h-202zM459 629h155l60 223h-156z" />
    <glyph glyph-name="dollar" unicode="$" 
d="M76 426h227v-193q57 -45 148 -45q86 0 130 44t44 118q0 34 -9 70q-7 29 -26 57q-15 23 -49 50q-27 22 -76 51q-78 45 -133 91q-57 48 -90 95q-36 52 -52 106q-16 55 -16 129q0 108 34 189q34 82 92 138q59 58 137 87q85 32 171 39l54 244h262l-58 -262q120 -23 207 -78
l-65 -318h-232v189q-43 12 -86 12q-41 0 -73 -7q-33 -7 -58 -26q-24 -18 -39 -50q-14 -29 -14 -81q0 -30 11 -52q12 -24 36 -48q28 -28 64 -52q60 -40 100 -63q53 -31 98 -66q47 -36 84 -84q36 -46 58 -112t22 -147q0 -82 -26 -165q-26 -84 -77 -146q-51 -63 -132 -107
t-187 -56l-51 -245h-262l55 258q-105 19 -175 55q-74 39 -118 84z" />
    <glyph glyph-name="percent" unicode="%" horiz-adv-x="1798" 
d="M455 799q18 0 35 13q17 12 32 48q19 48 32 115q13 65 13 115q0 48 -11 66q-12 20 -46 20q-17 0 -36 -14q-17 -12 -32 -48q-17 -43 -31 -115q-14 -70 -14 -114q0 -47 12 -67q12 -19 46 -19zM455 631q-153 0 -242 83q-88 82 -88 228q0 99 40 186q41 90 97 134q50 42 119 62
q64 19 129 19q154 0 242 -82t88 -229q0 -99 -40 -186t-98 -133q-53 -44 -118 -63q-64 -19 -129 -19zM575 0h-253l964 1317h254zM1407 518q-19 0 -36 -13q-17 -12 -32 -48q-17 -43 -31 -115q-14 -70 -14 -115q0 -47 12 -66q12 -20 46 -20q17 0 36 14q15 11 31 48
q19 49 32 114t13 115q0 49 -11 67q-12 19 -46 19zM1407 686q153 0 242 -83q88 -82 88 -228q0 -100 -40 -187t-98 -133q-51 -42 -118 -62q-68 -20 -129 -20q-153 0 -242 83q-88 82 -88 229q0 99 40 186q40 88 97 133q52 43 119 63q64 19 129 19z" />
    <glyph glyph-name="ampersand" unicode="&#x26;" horiz-adv-x="1370" 
d="M518 201q95 0 166 55l-217 375q-54 -29 -83 -88q-30 -60 -30 -144q0 -105 48 -151q49 -47 116 -47zM627 1083q0 -49 11 -81q12 -36 26 -56l18 -33q78 46 110 97q31 49 31 120q0 53 -20 80q-21 29 -64 29q-34 0 -54 -13q-22 -14 -35 -36t-18 -50q-5 -30 -5 -57zM1225 573
q-17 -36 -35 -72q-20 -39 -43 -80q-18 -33 -47 -76q-19 -28 -47 -62l47 -84l125 -27l-35 -172h-356l-46 76q-71 -43 -154 -73q-82 -30 -202 -30q-94 0 -174 27q-79 27 -137 77q-57 50 -89 124q-32 75 -32 168q0 153 96 266q95 112 269 172q-42 66 -57 130q-15 66 -15 126
q0 84 33 156q33 71 92 123q60 52 140 82q81 30 179 30q183 0 278 -89t95 -232t-91 -228t-247 -145l166 -287q8 12 28 51q14 26 27 68l-75 45l45 160h407l-39 -189z" />
    <glyph glyph-name="quotesingle" unicode="'" horiz-adv-x="542" 
d="M299 1450h338l-176 -635h-256z" />
    <glyph glyph-name="parenleft" unicode="(" horiz-adv-x="741" 
d="M461 -362q-100 66 -164 141q-68 79 -107 164q-42 91 -59 189q-18 102 -18 220q0 84 9 185q8 88 28 202q33 182 90 325q56 141 140 249q83 107 193 180q114 75 252 121l60 -178q-62 -34 -122 -80q-58 -44 -111 -125q-51 -78 -97 -204q-46 -128 -80 -314q-25 -128 -38 -246
q-11 -94 -9 -191q1 -169 43 -284q41 -112 113 -185z" />
    <glyph glyph-name="parenright" unicode=")" horiz-adv-x="741" 
d="M342 1606q98 -65 164 -142q66 -76 106 -164q43 -95 60 -189q18 -102 18 -220q0 -83 -9 -184q-8 -90 -28 -203q-33 -182 -90 -325q-56 -141 -140 -249q-81 -105 -194 -181q-111 -75 -252 -120l-59 178q66 35 122 79q58 46 111 126q51 78 97 204q46 128 80 314
q25 128 38 246q11 94 9 191q-1 170 -44 284q-42 112 -112 185z" />
    <glyph glyph-name="asterisk" unicode="*" horiz-adv-x="1060" 
d="M205 1165l114 189l232 -121l80 250l215 -53l-41 -256l260 -3l16 -219l-258 -39l82 -247l-207 -84l-114 231l-211 -151l-144 169l187 181z" />
    <glyph glyph-name="plus" unicode="+" 
d="M399 573h-323l55 263h324l77 362h275l-80 -362h324l-56 -263h-321l-80 -370h-275z" />
    <glyph glyph-name="comma" unicode="," horiz-adv-x="606" 
d="M-45 -166q32 10 69 29q32 17 62 42q27 23 49 51t29 56q-66 10 -105 60t-39 114q0 37 16 74q16 36 42 61t61 40q37 16 76 16q78 0 138 -58q59 -57 59 -167q0 -94 -37 -169q-39 -79 -99 -135q-61 -57 -143 -94q-78 -35 -172 -51z" />
    <glyph glyph-name="hyphen" unicode="-" horiz-adv-x="692" 
d="M139 737h502l-68 -313h-501z" />
    <glyph glyph-name="period" unicode="." horiz-adv-x="606" 
d="M229 -23q-38 0 -75 16q-35 15 -62 42q-28 28 -42 62q-15 36 -15 77q0 40 15 74t42 61t62 42q37 16 75 16q37 0 75 -16t64 -42q29 -29 43 -61q15 -34 15 -74q0 -41 -15 -77q-14 -33 -43 -62q-26 -26 -64 -42t-75 -16z" />
    <glyph glyph-name="slash" unicode="/" horiz-adv-x="823" 
d="M739 1575h269l-916 -1899h-266z" />
    <glyph glyph-name="zero" unicode="0" 
d="M469 193q33 0 72 19q41 20 69 85q14 31 31 88q17 55 33 126q18 75 33 148q10 49 27 155q10 66 19 144q7 63 7 119q0 81 -28 120q-27 38 -75 38q-29 0 -71 -20t-70 -85q-14 -31 -31 -88q-12 -40 -32 -126q-18 -75 -33 -148q-14 -67 -28 -155q-7 -46 -18 -145
q-7 -64 -7 -118q0 -82 27 -120q27 -37 75 -37zM477 -27q-86 0 -172 22q-79 20 -146 76q-66 55 -103 144q-38 91 -38 227q0 101 20 226q20 122 52 234q34 117 76 210q44 97 90 152q85 100 187 145t206 45q90 0 171 -22q82 -22 148 -76q64 -52 102 -144q38 -91 38 -227
q0 -107 -19 -225q-19 -117 -53 -235q-36 -123 -75 -210q-42 -92 -91 -151q-86 -102 -187 -146q-102 -45 -206 -45z" />
    <glyph glyph-name="one" unicode="1" 
d="M94 227l273 29l151 719l-227 -66l-68 174l494 344h239l-247 -1171l235 -29l-49 -227h-850z" />
    <glyph glyph-name="two" unicode="2" 
d="M854 0h-917l61 293q185 132 311 234q131 105 215 194q86 90 125 163q41 76 41 142q0 70 -36 106q-35 35 -128 35q-60 0 -124 -16q-66 -17 -132 -45l-82 215q73 52 190 93q114 40 251 40q109 0 193 -29t137 -79q55 -52 82 -122q28 -73 28 -157q0 -100 -44 -193
q-43 -91 -134 -185q-89 -92 -227 -195q-141 -106 -324 -222h571z" />
    <glyph glyph-name="three" unicode="3" 
d="M377 -27q-142 0 -241 33t-169 68l41 235q33 -12 72 -24q49 -15 80 -22q44 -10 82 -14q45 -5 75 -5q83 0 134 26q54 28 77 64q19 26 32 73q11 40 11 87q0 70 -48 107q-49 38 -136 38h-133l53 242h142q63 0 95 11q34 12 60 38q28 28 40 65q11 34 11 66q0 54 -37 85
q-38 32 -114 32q-32 0 -63 -4q-15 -2 -67 -11q-36 -6 -65 -15q-30 -9 -55 -20l-57 220q61 40 168 73q105 33 245 33q90 0 163 -22q75 -22 128 -65q54 -43 83 -101q30 -60 30 -136q0 -141 -82 -238q-82 -96 -217 -134q94 -33 157 -112q64 -81 64 -183q0 -82 -25 -165
q-23 -76 -71 -138q-70 -93 -182 -140t-281 -47z" />
    <glyph glyph-name="four" unicode="4" 
d="M25 537l505 890h334l-514 -895h223l99 455l352 53l-109 -508h125l-49 -249h-125l-59 -283h-340l59 283h-555z" />
    <glyph glyph-name="five" unicode="5" 
d="M1059 1153h-490l-84 -274q15 4 41 9q27 5 54 5q76 0 148 -23q74 -24 124 -68q54 -48 85 -117q32 -72 32 -169t-28 -192q-27 -92 -85 -162q-80 -99 -204 -144t-281 -45q-129 0 -228 27t-170 61l47 248q62 -26 149 -46q80 -19 157 -19q71 0 116 13q48 14 76 36q36 29 50 81
q14 51 14 103q0 78 -53 126t-177 48q-55 0 -118 -5q-53 -4 -109 -17l225 798h768z" />
    <glyph glyph-name="six" unicode="6" 
d="M514 -27q-237 0 -351 141t-114 396q0 218 88 404q89 188 279 323q112 78 259 135q152 58 345 82l10 -231q-131 -33 -229 -74q-97 -40 -164 -88q-74 -53 -108 -95q-36 -45 -70 -120q45 32 98 49q49 16 137 16q75 0 137 -28t110 -82q45 -51 73 -130q26 -74 26 -175
q0 -114 -35 -207q-36 -97 -104 -166q-69 -70 -166 -110q-98 -40 -221 -40zM547 674q-74 0 -135 -41q-8 -53 -9 -92q-2 -68 -2 -86q0 -38 6 -100q5 -48 19 -81q15 -34 39 -55q23 -20 61 -20q33 0 60 14q29 15 52 47t37 83q13 48 13 124q0 113 -36 160t-105 47z" />
    <glyph glyph-name="seven" unicode="7" 
d="M125 33q45 209 129 384q85 178 185 316q104 144 210 247q105 102 201 173h-438l-70 -109h-205l80 383h952l-59 -288q-57 -46 -149 -155q-90 -107 -179 -255q-92 -153 -170 -339q-80 -189 -123 -408z" />
    <glyph glyph-name="eight" unicode="8" 
d="M508 -27q-128 0 -224 32q-94 31 -157 85q-60 52 -91 125q-30 72 -30 152q0 138 86 230q85 91 232 124q-70 52 -110 132t-40 167q0 91 35 172q35 80 97 138q62 57 152 91q88 33 199 33q108 0 195 -28q82 -26 142 -77q57 -48 88 -121q30 -70 30 -155q0 -73 -23 -120
q-25 -52 -64 -85q-42 -35 -90 -56q-53 -23 -106 -34q96 -63 147 -157q54 -99 54 -201q0 -96 -38 -180q-37 -82 -106 -142q-67 -58 -165 -92q-96 -33 -213 -33zM465 614q-65 -35 -94 -94q-31 -62 -31 -135q0 -195 168 -195q38 0 70 16q31 16 52 41q22 27 32 59q10 33 10 69
q0 64 -32 107q-33 44 -103 89zM502 1063q0 -49 21 -85q20 -35 67 -69l61 -43q74 35 112 85t38 122q0 77 -37 121q-37 45 -100 45q-67 0 -114 -40q-48 -41 -48 -136z" />
    <glyph glyph-name="nine" unicode="9" 
d="M602 1454q238 0 351 -140q114 -141 114 -396q0 -130 -32 -260q-31 -128 -99 -234q-66 -104 -160 -184q-91 -77 -201 -131q-110 -53 -230 -86q-125 -34 -249 -50l-10 232q50 13 145 41q81 24 148 56q72 34 135 81q63 46 107 115q12 20 36 71q-45 -32 -98 -43
q-49 -10 -137 -10q-73 0 -137 29q-62 28 -110 82q-45 51 -73 130q-26 74 -26 175q0 111 36 207q37 98 103 166q67 69 166 109q98 40 221 40zM569 754q75 0 136 41q7 45 8 92q2 68 2 86q0 47 -5 99q-4 45 -20 81q-15 34 -39 55t-61 21q-32 0 -60 -15q-29 -15 -52 -47t-37 -83
q-13 -48 -13 -123q0 -113 36 -160t105 -47z" />
    <glyph glyph-name="colon" unicode=":" horiz-adv-x="651" 
d="M365 530q-39 0 -76 16q-35 15 -62 42q-28 28 -42 62q-15 36 -15 77q0 39 15 74q15 34 42 61t62 42q37 16 76 16q36 0 74 -16t64 -42q29 -29 43 -61q15 -35 15 -74q0 -41 -15 -77q-14 -33 -43 -62q-26 -26 -64 -42t-74 -16zM248 -23q-39 0 -76 16q-34 15 -61 42
q-28 28 -42 62q-16 38 -16 77q0 37 16 74q15 34 42 61t61 42q37 16 76 16q37 0 75 -16q36 -15 63 -42q29 -29 43 -61q15 -34 15 -74q0 -41 -15 -77q-14 -33 -43 -62q-27 -27 -63 -42q-38 -16 -75 -16z" />
    <glyph glyph-name="semicolon" unicode=";" horiz-adv-x="651" 
d="M360 530q-38 0 -75 16q-35 15 -62 42q-28 28 -42 62q-15 36 -15 77q0 39 15 74q15 34 42 61t62 42q37 16 75 16q37 0 75 -16t64 -42q29 -29 43 -61q15 -35 15 -74q0 -41 -15 -77q-14 -33 -43 -62q-26 -26 -64 -42t-75 -16zM-18 -166q30 9 68 29q34 18 63 42q27 23 49 51
q20 26 28 56q-65 10 -104 60t-39 114q0 40 15 74q16 36 42 61q26 24 62 40q37 16 76 16q78 0 138 -58q58 -57 58 -167q0 -94 -37 -169q-40 -81 -98 -135q-61 -57 -143 -94q-78 -35 -172 -51z" />
    <glyph glyph-name="less" unicode="&#x3c;" 
d="M197 653l34 158l617 391l121 -207l-455 -297l324 -331l-174 -189z" />
    <glyph glyph-name="equal" unicode="=" 
d="M94 592h893l-57 -262h-891zM195 1063h890l-55 -262h-893z" />
    <glyph glyph-name="greater" unicode="&#x3e;" 
d="M135 385l455 299l-324 330l174 188l467 -473l-35 -160l-618 -391z" />
    <glyph glyph-name="question" unicode="?" horiz-adv-x="970" 
d="M317 575q16 67 33 111q18 46 42 81q24 34 52 58t66 45q44 26 79 55q28 24 47 52q18 26 22 53q6 36 6 57q0 54 -30 93t-95 39q-18 0 -46 -2q-19 -1 -42 -13l-82 -119h-185l62 297q34 17 76 30q48 15 90 23q51 10 95 14q53 5 91 5q195 0 304 -82q110 -83 110 -260
q0 -77 -22 -143q-22 -67 -61 -114q-45 -54 -96 -91q-59 -42 -124 -78q-64 -33 -106 -74q-39 -38 -56 -118l-15 -74h-247zM375 -27q-39 0 -74 15t-60 40t-40 60q-15 34 -15 74t15 74q15 35 40 60q26 26 60 41q35 15 74 15t74 -15q34 -15 60 -41q25 -25 40 -60q14 -32 14 -74
t-14 -74q-15 -35 -40 -60t-60 -40t-74 -15z" />
    <glyph glyph-name="at" unicode="@" horiz-adv-x="1810" 
d="M819 207q31 0 63 14t50 27l96 426q-11 12 -37 24q-29 13 -57 13q-34 0 -57 -14t-41 -54q-11 -27 -27 -77q-15 -49 -27 -100q-11 -48 -19 -101q-7 -46 -7 -80q0 -46 17 -62t46 -16zM961 164q-60 -85 -133 -125q-72 -39 -144 -39q-106 0 -172 63t-66 209q0 73 11 156
q12 88 33 155q23 73 60 140q37 68 85 113q45 44 107 64t126 20q68 0 124 -28q53 -26 91 -77l60 82h233l-131 -565q-9 -45 -11 -60q-3 -23 -3 -41q0 -22 15 -37q16 -16 44 -16q31 0 70 25q36 23 67 79q32 57 52 140q20 81 20 209q0 142 -34 238q-35 100 -99 158
q-66 60 -164 87q-99 27 -227 27q-153 0 -274 -63q-122 -63 -207 -172q-89 -114 -134 -256q-47 -149 -47 -314q0 -171 47 -279q46 -107 123 -165q75 -57 172 -77q98 -20 195 -20q104 0 190 18q89 19 162 46l66 -160q-85 -43 -191 -72q-103 -28 -256 -28q-145 0 -278 35
q-136 36 -245 122q-107 85 -174 228t-67 354q0 207 67 393q66 184 187 318q121 135 291 213q167 77 377 77q173 0 315 -43q144 -44 245 -131q101 -88 158 -221q56 -131 56 -313q0 -174 -44 -300q-42 -121 -115 -203q-69 -78 -156 -116q-84 -37 -168 -37q-134 0 -211 50
q-75 49 -98 139z" />
    <glyph glyph-name="A" unicode="A" horiz-adv-x="1267" 
d="M731 358h-354l-76 -163l137 -25l-37 -170h-503l36 170l97 25l614 1232h336l123 -1228l82 -29l-37 -170h-586l37 170l145 25zM475 567h238l-11 111q-12 135 -11 230q2 108 7 182h-2q-25 -88 -65 -181q-46 -108 -103 -229z" />
    <glyph glyph-name="B" unicode="B" horiz-adv-x="1234" 
d="M586 213q54 0 93 10q40 10 64 39q13 14 26 47q11 26 19 67q13 64 14 69q5 38 5 57q0 56 -30 93q-30 38 -109 38h-95l-90 -420h103zM684 836q53 0 86 12q32 12 49 35q17 19 29 48q13 32 21 62q12 44 15 65q5 35 5 56q0 47 -26 75t-77 28h-86l-84 -381h68zM850 1427
q212 0 303 -82q92 -83 92 -227q0 -183 -83 -274t-212 -109q103 -18 167 -97q65 -80 65 -202q0 -43 -11 -92q-12 -51 -28 -91q-19 -45 -45 -83q-27 -39 -60 -66q-123 -104 -364 -104h-735l36 170l142 35l215 999l-127 35l39 188h606z" />
    <glyph glyph-name="C" unicode="C" horiz-adv-x="1079" 
d="M580 188q29 0 53 3q22 3 59 14l92 201h224l-76 -359q-40 -22 -89 -36q-42 -12 -100 -22q-59 -10 -101 -13q-50 -3 -93 -3q-109 0 -199 29q-87 28 -150 88t-96 153q-32 90 -32 220q0 100 18 217q17 112 50 226q30 104 76 204q42 91 97 154q89 99 206 145q115 45 257 45
q130 0 228 -29q94 -28 167 -75l-67 -326h-227v190q-25 13 -49 19q-26 6 -60 6q-64 0 -104 -29q-39 -28 -76 -112q-25 -60 -53 -155q-32 -110 -52 -204q-24 -115 -38 -208q-15 -102 -15 -164q0 -94 31 -137q30 -42 119 -42z" />
    <glyph glyph-name="D" unicode="D" horiz-adv-x="1329" 
d="M698 1214l-215 -1001h82q62 0 102 11q45 12 76 38q35 29 58 70q26 47 47 106t37 116q22 79 34 140q15 73 24 149q9 75 9 140q0 113 -37 172t-143 59h-74zM-61 0l36 170l142 35l215 999l-127 35l39 188h616q211 0 334 -113q125 -114 125 -360q0 -68 -10 -144
q-11 -80 -27 -162t-39 -162t-49 -140q-44 -107 -104 -171q-61 -65 -137 -105q-79 -41 -162 -55q-89 -15 -185 -15h-667z" />
    <glyph glyph-name="E" unicode="E" horiz-adv-x="1087" 
d="M905 516h-168l-10 109h-156l-88 -410h224l92 203h227l-86 -418h-1001l36 170l142 35l215 999l-127 35l39 188h966l-88 -403h-219v188h-207l-78 -374h154l51 102h168z" />
    <glyph glyph-name="F" unicode="F" horiz-adv-x="1046" 
d="M655 174l-39 -174h-677l36 170l142 35l215 999l-127 35l39 188h966l-90 -409h-217v194h-207l-84 -399h154l53 115h168l-88 -443h-168l-10 115h-156l-84 -395z" />
    <glyph glyph-name="G" unicode="G" horiz-adv-x="1171" 
d="M72 463q0 100 18 217q17 112 50 226q30 104 76 204q42 91 97 154q89 99 206 145q115 45 257 45q130 0 228 -29q94 -28 167 -75l-63 -306h-231v168q-24 13 -47 20q-22 7 -58 7t-60 -7q-25 -7 -46 -24q-22 -17 -39 -43q-22 -33 -37 -67q-26 -56 -54 -154q-32 -115 -52 -201
q-22 -95 -38 -201q-14 -91 -14 -153q0 -99 34 -139q35 -41 107 -41q46 0 80 11q38 12 56 24l61 299l-131 30l43 191h461l-164 -764h-199l-24 104q-50 -61 -124 -97q-71 -34 -165 -34q-192 0 -294 117q-101 116 -101 373z" />
    <glyph glyph-name="H" unicode="H" horiz-adv-x="1462" 
d="M698 170l142 35l86 405h-359l-86 -405l131 -35l-37 -170h-636l36 170l142 35l215 999l-127 35l39 188h639l-39 -188l-148 -35l-80 -373h359l80 373l-127 35l39 188h639l-39 -188l-148 -35l-215 -999l131 -35l-37 -170h-636z" />
    <glyph glyph-name="I" unicode="I" horiz-adv-x="739" 
d="M-25 170l142 35l215 999l-127 35l39 188h639l-39 -188l-148 -35l-215 -999l131 -35l-37 -170h-636z" />
    <glyph glyph-name="J" unicode="J" horiz-adv-x="739" 
d="M469 145q-26 -118 -77 -207q-48 -84 -123 -150q-68 -59 -165 -104q-96 -44 -200 -73l-54 182q57 28 104 63q45 34 70 71q30 45 46 92q17 48 34 126l228 1059l-127 35l39 188h639l-39 -188l-148 -35z" />
    <glyph glyph-name="K" unicode="K" horiz-adv-x="1368" 
d="M1227 0h-402l-217 709l441 510l-103 20l37 188h487l-36 -188l-121 -33l-359 -409l201 -609l107 -18zM-25 170l142 35l215 999l-127 35l39 188h639l-39 -188l-148 -35l-215 -999l131 -35l-37 -170h-636z" />
    <glyph glyph-name="L" unicode="L" horiz-adv-x="1079" 
d="M485 213h224l98 240h231l-96 -453h-1003l36 170l142 35l215 999l-127 35l39 188h639l-39 -188l-148 -35z" />
    <glyph glyph-name="M" unicode="M" horiz-adv-x="1691" 
d="M858 680q23 77 55 144q33 70 84 171l217 432h621l-39 -188l-147 -35l-215 -999l131 -35l-37 -170h-637l37 170l141 35l102 487q52 242 56 260q23 108 51 197h-4q-35 -96 -82 -201q-49 -111 -115 -233l-250 -473h-217l-47 448q-16 137 -16 254v205h-4q-4 -36 -26 -200
q-13 -99 -46 -259l-104 -485l131 -35l-37 -170h-522l36 170l142 35l215 999l-127 35l39 188h569l41 -430q11 -107 9 -176q-1 -69 -9 -141h4z" />
    <glyph glyph-name="N" unicode="N" horiz-adv-x="1374" 
d="M977 1239l39 188h522l-39 -188l-147 -35l-260 -1204h-256l-232 641q-34 90 -57 175q-24 86 -39 179h-4q2 -86 -15 -185q-22 -133 -32 -183l-90 -422l131 -35l-37 -170h-522l36 170l142 35l215 999l-127 35l39 188h461l184 -548q39 -116 58 -198q19 -80 26 -153h4
q9 83 19 153q13 86 40 208l68 315z" />
    <glyph glyph-name="O" unicode="O" horiz-adv-x="1259" 
d="M563 188q43 0 81 25q37 25 67 86q10 21 33 92q16 52 40 136q18 65 40 159q17 73 34 160q16 79 24 137q9 61 9 96q0 86 -37 123t-96 37q-58 0 -92 -26t-62 -85q-15 -28 -33 -89q-20 -65 -39 -136q-10 -37 -39 -159q-19 -82 -36 -159q-18 -82 -26 -140q-9 -63 -9 -95
q0 -88 34 -125t107 -37zM565 -27q-236 0 -364 118q-129 119 -129 374q0 114 18 234q19 124 52 230q36 115 80 201q47 93 102 152q84 91 188 131q108 41 248 41q234 0 362 -120q127 -120 127 -349q0 -113 -18 -234q-18 -123 -51 -236t-78 -211q-44 -96 -101 -159
q-79 -91 -186 -131q-109 -41 -250 -41z" />
    <glyph glyph-name="P" unicode="P" horiz-adv-x="1202" 
d="M668 756q52 0 96 6t74 45q19 25 36 66q15 37 24 80q8 38 13 82q4 36 4 71q0 66 -31 88q-32 23 -102 23h-84l-98 -461h68zM809 1427q221 0 340 -86q120 -86 121 -258q0 -126 -37 -234q-37 -109 -90 -169q-69 -78 -189 -108q-115 -29 -254 -29h-147l-72 -338l174 -31
l-39 -174h-677l36 170l142 35l215 999l-127 35l39 188h565z" />
    <glyph glyph-name="Q" unicode="Q" horiz-adv-x="1259" 
d="M563 188q43 0 81 25q37 25 67 86q10 21 33 92q16 52 40 136q18 65 40 159q17 73 34 160q16 79 24 137q9 61 9 96q0 86 -37 123t-96 37q-58 0 -92 -26t-62 -85q-15 -28 -33 -89q-20 -65 -39 -136q-10 -37 -39 -159q-19 -82 -36 -159q-18 -82 -26 -140q-9 -63 -9 -95
q0 -88 34 -125t107 -37zM1249 985q0 -59 -6 -131q-7 -79 -20 -149q-18 -99 -48 -202q-30 -101 -74 -191q-41 -83 -105 -157q-62 -71 -136 -100l322 -51l-121 -285l-674 271q-172 68 -243 181q-72 114 -72 294q0 114 18 234q19 124 52 230q36 115 80 201q47 93 102 152
q84 91 188 131q108 41 248 41q234 0 362 -120q127 -120 127 -349z" />
    <glyph glyph-name="R" unicode="R" horiz-adv-x="1310" 
d="M672 784q52 0 93 12q39 12 60 40q13 18 26 51q11 29 25 75q11 36 17 76q6 38 6 60q0 119 -131 119h-72l-90 -433h66zM1223 172l-35 -172h-408l-55 442q-7 62 -30 105q-21 39 -93 39h-39l-82 -381l131 -35l-37 -170h-636l36 170l142 35l215 999l-127 35l39 188h569
q135 0 223 -24t139 -70q49 -45 69 -105q20 -62 20 -132q0 -186 -92 -302q-93 -117 -236 -141v-4q58 -22 98 -77q38 -53 49 -132l33 -241z" />
    <glyph glyph-name="S" unicode="S" horiz-adv-x="1054" 
d="M70 426h227v-193q57 -45 147 -45q86 0 130 44t44 118q0 79 -34 126q-36 50 -125 102q-75 44 -127 90q-51 45 -83 95q-31 49 -45 107q-14 59 -14 129q0 115 39 200q38 84 107 142t157 85q92 28 191 28q110 0 221 -24t185 -74l-66 -318h-231v189q-44 12 -86 12
q-85 0 -135 -33t-50 -125q0 -32 7 -56q8 -27 28 -50q26 -30 57 -52q50 -36 97 -63q53 -31 98 -66q47 -36 84 -84q36 -46 58 -112t22 -147q0 -93 -30 -179q-31 -87 -91 -152q-62 -66 -155 -107q-92 -40 -220 -40q-175 0 -293 45t-184 111z" />
    <glyph glyph-name="T" unicode="T" horiz-adv-x="1236" 
d="M860 0h-680l37 170l164 35l215 1018h-127l-104 -256h-222l99 460h1149l-99 -460h-213v256h-118l-216 -1018l152 -35z" />
    <glyph glyph-name="U" unicode="U" horiz-adv-x="1343" 
d="M702 1427l-215 -1019q-10 -44 -10 -76q0 -49 22 -77t72 -28q51 0 105 14q55 14 94 40l199 923l-127 35l39 188h483l-258 -1222l121 -35l-37 -170h-361l-26 111q-52 -59 -144 -99q-90 -39 -186 -39q-163 0 -251 78q-89 78 -89 252q0 43 6 91q6 45 17 102l151 708l-127 35
l39 188h483z" />
    <glyph glyph-name="V" unicode="V" horiz-adv-x="1251" 
d="M891 1239l41 188h493l-41 -188l-96 -22l-590 -1217h-336l-106 1212l-82 27l41 188h571l-41 -188l-131 -22l27 -467q7 -130 8 -224q2 -111 -4 -188h2q23 78 66 180q38 88 96 230l203 469z" />
    <glyph glyph-name="W" unicode="W" horiz-adv-x="1802" 
d="M989 621q0 73 1 104q2 62 4 92q2 33 8 89q0 2 14 93h-4q-26 -92 -57 -190t-70 -186l-271 -623h-315l-33 1212l-82 27l41 188h572l-41 -188l-131 -22l-4 -467q-1 -66 -9 -177q-7 -95 -16 -170h2q13 55 22 86q20 67 25 81q20 54 31 83q18 47 39 95l293 679h272l6 -677
q2 -101 0 -181q-2 -81 -12 -166h2q15 77 41 165q27 92 67 192l181 457l-121 22l41 188h481l-41 -188l-96 -22l-529 -1217h-315z" />
    <glyph glyph-name="X" unicode="X" horiz-adv-x="1296" 
d="M502 758l-168 456l-90 25l41 188h583l-41 -186l-112 -16l104 -322l215 320l-106 18l41 186h471l-41 -188l-109 -16l-387 -508l184 -522l95 -23l-37 -170h-606l36 166l140 20l-121 365l-254 -367l121 -18l-37 -166h-485l36 170l101 16z" />
    <glyph glyph-name="Y" unicode="Y" horiz-adv-x="1175" 
d="M858 1241l41 186h451l-41 -188l-82 -16l-430 -625l-84 -393l135 -35l-37 -170h-647l37 170l147 35l82 385l-178 633l-72 16l41 188h574l-41 -186l-133 -20l47 -191q17 -68 25 -135q7 -63 9 -123h5q23 63 54 122q23 44 79 136l121 195z" />
    <glyph glyph-name="Z" unicode="Z" horiz-adv-x="1054" 
d="M-33 217l772 1000h-233l-86 -218h-238l105 428h932l-56 -223l-786 -993h282l97 215h237l-102 -426h-973z" />
    <glyph glyph-name="bracketleft" unicode="[" horiz-adv-x="702" 
d="M373 1573h477l-41 -193l-174 -18l-313 -1471l163 -20l-39 -190h-477z" />
    <glyph glyph-name="backslash" unicode="\" horiz-adv-x="800" 
d="M276 1575h252l109 -1899h-252z" />
    <glyph glyph-name="bracketright" unicode="]" horiz-adv-x="702" 
d="M371 -319h-477l40 192l175 18l313 1471l-164 20l39 191h477z" />
    <glyph glyph-name="asciicircum" unicode="^" horiz-adv-x="1153" 
d="M627 1450h288l191 -627h-336l-68 260l-178 -260h-354z" />
    <glyph glyph-name="underscore" unicode="_" horiz-adv-x="786" 
d="M-125 -92h770l-51 -246h-770z" />
    <glyph glyph-name="grave" unicode="`" horiz-adv-x="1116" 
d="M283 1360l178 250l370 -303l-124 -168z" />
    <glyph glyph-name="a" unicode="a" horiz-adv-x="1132" 
d="M469 219q30 0 69 17q41 18 56 32l117 531q-9 11 -41 28q-29 15 -64 15q-37 0 -63 -16q-24 -15 -45 -62q-12 -27 -32 -96q-14 -47 -32 -129q-9 -42 -24 -130q-11 -66 -11 -100q0 -49 19 -70q18 -20 51 -20zM621 125q-61 -64 -148 -109q-83 -43 -162 -43q-116 0 -185 78
t-69 244q0 83 14 186q14 101 40 193q27 96 67 175q40 80 96 136q53 53 120 76q65 22 138 22q80 0 139 -31q60 -32 101 -89l49 94h275l-142 -662q-22 -98 -22 -129q0 -51 57 -51h49v-184q-69 -36 -127 -47t-104 -11q-71 0 -127 41q-54 40 -59 111z" />
    <glyph glyph-name="b" unicode="b" horiz-adv-x="1112" 
d="M557 983q53 47 118 74q62 26 126 26q117 0 185 -77q69 -78 69 -244q0 -85 -14 -188t-40 -194q-28 -97 -67 -177q-40 -81 -96 -137q-54 -54 -119 -73q-68 -20 -137 -20q-70 0 -141 31q-68 30 -109 96l-53 -100h-263l267 1260l-88 36l45 209h428zM502 193q40 0 66 17
q27 18 48 64q14 31 33 97q21 75 34 134q17 81 26 135q10 61 10 101q0 51 -20 71q-19 19 -56 19q-32 0 -70 -16q-39 -17 -57 -33l-123 -551q10 -13 43 -26q30 -12 66 -12z" />
    <glyph glyph-name="c" unicode="c" horiz-adv-x="876" 
d="M461 -25q-197 0 -300 105q-104 106 -104 309q0 72 14 154q13 75 38 154t58 140q35 66 73 111q62 71 157 103q96 32 213 32q86 0 172 -23q91 -24 150 -73l-51 -242h-219v142q-23 6 -52 6q-36 0 -66 -21t-52 -79q-21 -58 -35 -106q-19 -66 -29 -113q-12 -58 -18 -110
q-7 -63 -7 -99q0 -71 25 -108q24 -36 86 -36q52 0 106 11q63 13 105 32l55 -192q-61 -43 -142 -69q-89 -28 -177 -28z" />
    <glyph glyph-name="d" unicode="d" horiz-adv-x="1132" 
d="M469 219q30 0 69 17q41 18 56 32l111 531q-9 11 -38 28q-25 15 -61 15q-37 0 -63 -16q-24 -15 -45 -62q-12 -27 -32 -96q-14 -47 -32 -129q-9 -42 -24 -130q-11 -66 -11 -100q0 -49 19 -70q18 -20 51 -20zM803 1260l-88 36l45 209h428l-234 -1110q-22 -98 -22 -129
q0 -51 57 -51h49v-184q-69 -36 -127 -47t-104 -11q-71 0 -127 41q-54 40 -59 111q-61 -64 -148 -109q-83 -43 -162 -43q-116 0 -185 78t-69 244q0 83 14 186q14 101 40 193q27 96 67 175q40 80 96 136q53 53 120 76q65 22 138 22q68 0 119 -26q54 -28 94 -74z" />
    <glyph glyph-name="e" unicode="e" horiz-adv-x="960" 
d="M479 -27q-209 0 -315 117q-107 118 -107 313q0 170 53 305q54 136 134 224q67 76 164 114q95 37 217 37q160 0 254 -73t94 -224q0 -112 -39 -183q-39 -70 -114 -109t-184 -54q-102 -14 -251 -14v-12q0 -94 37 -144q38 -51 129 -51q68 0 123 19q56 19 119 55l69 -193
q-56 -61 -161 -94q-103 -33 -222 -33zM477 780q-14 -26 -37 -73q-17 -35 -34 -103q71 4 121 12q48 7 83 28q32 19 47 53q15 35 15 87q0 88 -64 88q-80 0 -131 -92z" />
    <glyph glyph-name="f" unicode="f" horiz-adv-x="649" 
d="M821 1282q-18 8 -44 14q-19 4 -52 4q-50 0 -82 -25t-49 -89l-31 -129h168l-51 -232h-164l-172 -850q-17 -80 -46 -139q-30 -59 -75 -103q-48 -47 -104 -76q-58 -30 -133 -58l-97 149q54 48 84 105q32 60 52 157l163 815h-104l51 232h101l22 114q24 116 70 187
q45 69 101 106t120 49q68 13 123 13q61 0 124 -13q61 -13 99 -28z" />
    <glyph glyph-name="g" unicode="g" horiz-adv-x="1083" 
d="M475 246q33 0 69 16q38 17 56 33l113 504q-9 11 -41 28q-28 15 -64 15q-38 0 -64 -18q-25 -18 -46 -64q-14 -32 -31 -91t-30 -118q-12 -54 -22 -120q-9 -58 -9 -95q0 -52 18 -71t51 -19zM563 92q-56 -44 -114 -67q-62 -25 -132 -25q-116 0 -185 78t-69 244q0 80 13 182
q12 94 39 183q30 98 66 166q42 79 95 132t120 76q65 22 139 22q79 0 138 -31q60 -32 101 -89l49 94h275l-240 -1120q-39 -180 -142 -262q-104 -83 -288 -83q-118 0 -234 29q-110 28 -190 76l74 215q67 -34 145 -57q72 -21 150 -21q70 0 106 31q34 30 51 98z" />
    <glyph glyph-name="h" unicode="h" horiz-adv-x="1116" 
d="M688 707q1 5 3 17q1 6 1 21q0 38 -17 52t-44 14q-32 0 -58 -10q-24 -9 -63 -39l-162 -762h-332l267 1260l-88 36l45 209h428l-115 -542q52 52 113 87q57 33 153 33q104 0 161 -63q56 -62 56 -180q0 -60 -12 -115l-70 -330q-22 -98 -22 -129q0 -51 57 -51h49v-184
q-69 -36 -127 -47t-104 -11q-110 0 -165 50q-54 49 -54 135q0 33 5 75q3 22 13 74z" />
    <glyph glyph-name="i" unicode="i" horiz-adv-x="608" 
d="M457 1145q-39 0 -74 15q-34 15 -60 41q-24 24 -40 61q-15 34 -15 73t15 75t40 61q27 27 59 41q37 16 73 16t73 -16q35 -15 61 -41q25 -25 40 -60q14 -32 14 -74q0 -43 -14 -75q-16 -37 -40 -61q-26 -26 -60 -41q-35 -15 -72 -15zM182 811l-88 37l45 209h428l-143 -662
q-23 -103 -23 -129q0 -51 58 -51h49v-184q-69 -36 -127 -47t-105 -11q-109 0 -164 50t-55 135q0 33 5 75q1 10 14 74z" />
    <glyph glyph-name="j" unicode="j" horiz-adv-x="593" 
d="M111 848l45 209h428l-228 -1065q-23 -108 -56 -171q-36 -68 -89 -110q-54 -42 -134 -71q-91 -32 -190 -58l-41 185q40 19 67 38q28 20 51 49t37 65q17 42 28 91l170 801zM473 1145q-39 0 -74 15q-34 15 -60 41q-24 24 -40 61q-14 32 -14 73t14 75q15 36 40 61
q27 27 59 41q37 16 73 16q37 0 74 -16q34 -15 60 -41q25 -25 40 -60q14 -32 14 -74q0 -43 -14 -75q-16 -37 -40 -61q-27 -27 -59 -41q-34 -15 -73 -15z" />
    <glyph glyph-name="k" unicode="k" horiz-adv-x="1120" 
d="M348 0h-332l267 1260l-88 36l45 209h428zM1165 1057l-366 -475l80 -322q6 -25 20 -35t51 -10h74v-178q-44 -27 -101 -46q-54 -18 -108 -18q-89 0 -153 41t-87 144l-92 405l359 494h323z" />
    <glyph glyph-name="l" unicode="l" horiz-adv-x="595" 
d="M266 1260l-88 36l45 209h428l-239 -1110q-23 -103 -23 -129q0 -51 57 -51h50v-184q-69 -36 -127 -47t-105 -11q-110 0 -165 50q-54 49 -54 135q0 33 5 75q3 23 13 74z" />
    <glyph glyph-name="m" unicode="m" horiz-adv-x="1591" 
d="M1163 707q6 27 6 47q0 32 -13 44q-12 11 -36 11q-27 0 -49 -8q-17 -6 -55 -31l-164 -770h-332l150 707q6 27 6 47q0 32 -13 44q-12 11 -36 11q-29 0 -52 -9q-24 -9 -53 -30l-164 -770h-331l172 811l-88 37l45 209h352v-137q58 65 134 113q80 50 173 50q75 0 119 -45
q42 -44 59 -118q66 73 145 118q80 45 171 45q97 0 149 -62q54 -64 55 -173q0 -56 -14 -123l-69 -330q-23 -103 -23 -129q0 -51 57 -51h49v-184q-69 -36 -127 -47t-104 -11q-110 0 -165 50q-54 49 -54 135q0 33 5 75q3 22 13 74z" />
    <glyph glyph-name="n" unicode="n" 
d="M965 395q-23 -103 -23 -129q0 -51 57 -51h50v-184q-69 -36 -127 -47t-105 -11q-110 0 -165 50q-54 49 -54 135q0 33 5 75q3 22 13 74l82 400q1 5 3 17q1 6 1 21q0 38 -17 52t-44 14q-31 0 -57 -10t-64 -39l-162 -762h-331l172 811l-88 37l45 209h352v-137q61 66 144 115
q82 48 177 48q104 0 161 -63t57 -180q0 -55 -13 -115z" />
    <glyph glyph-name="o" unicode="o" horiz-adv-x="1064" 
d="M641 532q21 101 28 146q9 60 9 104q0 95 -88 95q-22 0 -45 -13q-21 -12 -39 -50q-19 -39 -38 -107q-20 -70 -44 -185q-22 -103 -28 -144q-9 -58 -9 -104q0 -94 88 -94q22 0 45 13q21 12 39 49q20 41 38 106q21 73 44 184zM57 385q0 70 14 156q14 87 35 156q22 72 55 139
q33 66 68 104q66 72 154 108q86 35 207 35q94 0 169 -25q77 -26 132 -78q57 -54 86 -130q31 -81 31 -180q0 -71 -14 -155q-13 -80 -36 -157q-22 -75 -54 -139q-33 -65 -68 -102q-66 -72 -154 -108t-207 -36q-187 0 -302 103q-115 102 -116 309z" />
    <glyph glyph-name="p" unicode="p" 
d="M516 193q42 0 67 17q27 18 48 64q14 31 33 97q18 62 33 134q17 81 26 135q10 61 10 101q0 52 -19 71t-57 19q-31 0 -69 -16q-41 -17 -58 -33l-122 -551q10 -13 43 -26q30 -12 65 -12zM313 -207l99 -20l-35 -162h-539l35 162l111 20l215 1018l-88 37l45 209h352l-2 -127
q28 35 69 65q38 28 80 48q40 19 83 30q40 10 77 10q117 0 185 -77q69 -78 69 -244q0 -93 -13 -188q-14 -103 -40 -194q-26 -92 -68 -177q-40 -81 -96 -137q-54 -54 -119 -73q-68 -20 -137 -20q-71 0 -132 26t-91 79z" />
    <glyph glyph-name="q" unicode="q" horiz-adv-x="1091" 
d="M559 59q-55 -40 -122 -63t-126 -23q-116 0 -185 78t-69 244q0 83 14 186q14 101 40 193q27 96 67 175q40 80 96 136q53 53 120 76q65 22 138 22q80 0 139 -31q60 -32 101 -89l49 94h275l-267 -1264l99 -20l-35 -162h-537l35 162l111 20zM469 219q30 0 72 17q43 18 59 32
l111 531q-9 11 -41 28q-29 15 -64 15q-37 0 -63 -16q-24 -15 -45 -62q-12 -27 -32 -96q-14 -47 -32 -129q-9 -42 -24 -130q-11 -66 -11 -100q0 -49 19 -70q18 -20 51 -20z" />
    <glyph glyph-name="r" unicode="r" horiz-adv-x="784" 
d="M508 858q66 107 139 162t182 55l-34 -340q-102 12 -167 -1q-67 -14 -122 -36l-148 -698h-331l172 811l-88 37l45 209h352v-199z" />
    <glyph glyph-name="s" unicode="s" horiz-adv-x="874" 
d="M381 -27q-161 0 -254 34q-96 35 -152 75l60 235h221v-137q33 -9 49 -11q21 -3 62 -3q40 0 77 19t37 79q0 44 -22 70q-21 26 -78 47q-80 29 -135 62q-53 32 -85 70q-31 37 -45 86q-14 50 -14 112q0 94 30 163q30 70 84 116q53 45 128 70q70 23 162 23q130 0 209 -27
q75 -26 143 -61l-55 -247h-219v129q-24 9 -36 11q-15 3 -38 3q-38 0 -71 -25q-31 -24 -31 -71q0 -42 19 -70q20 -29 91 -53q63 -22 122 -54q53 -29 88 -65t53 -86t18 -115q0 -195 -113 -287t-305 -92z" />
    <glyph glyph-name="t" unicode="t" horiz-adv-x="653" 
d="M125 1057h100l54 252l342 53l-66 -305h184l-51 -232h-182l-103 -487q-8 -37 -8 -64q0 -30 28 -42q25 -11 56 -11q35 0 47 1q32 3 47 5v-192q-58 -24 -129 -44q-63 -18 -143 -18q-112 0 -178 60t-66 182q0 58 15 121l102 489h-100z" />
    <glyph glyph-name="u" unicode="u" horiz-adv-x="1095" 
d="M594 125q-66 -68 -137 -108q-77 -44 -170 -44q-108 0 -169 67t-61 185q0 42 13 107l102 479l-88 37l45 209h426l-152 -717q-1 -7 -3 -19q-1 -6 -1 -20q0 -33 17 -52q16 -18 43 -18q30 0 55 11q27 12 59 34l164 781h332l-141 -662q-23 -103 -23 -129q0 -51 58 -51h49v-184
q-69 -36 -127 -47t-105 -11q-73 0 -126 43q-54 44 -60 109z" />
    <glyph glyph-name="v" unicode="v" horiz-adv-x="956" 
d="M1063 1057l-561 -1057h-309l-66 811l-100 37l45 209h360l21 -439q4 -82 -2 -175q-5 -76 -19 -171h4q17 85 46 169q28 81 71 175l207 441h303z" />
    <glyph glyph-name="w" unicode="w" horiz-adv-x="1441" 
d="M487 0h-329l-43 811l-88 37l41 209h364l4 -332q0 -24 -2 -92q-1 -34 -5 -104q-2 -38 -8 -102q-4 -43 -11 -91h4q16 82 48 177t66 171l166 373h283l12 -373q4 -60 2 -171q-1 -97 -12 -177h4q22 88 49 172q26 81 64 176l157 373h295l-493 -1057h-305l-17 322q-4 89 1 200
q3 61 14 176h-5q-18 -83 -43 -172q-29 -100 -65 -184z" />
    <glyph glyph-name="x" unicode="x" horiz-adv-x="1030" 
d="M444 307h-2l-190 -307h-313l409 557l-90 254l-92 37l43 209h330l79 -303h5l190 303h303l-403 -563l78 -234q8 -24 20 -35q11 -10 47 -10h64v-178q-37 -26 -95 -46q-53 -18 -106 -18q-101 0 -151 45q-49 45 -78 140z" />
    <glyph glyph-name="y" unicode="y" horiz-adv-x="956" 
d="M193 0l-66 811l-100 37l45 209h360l21 -439q5 -92 0 -180q-5 -91 -19 -166h4q17 86 43 165q28 84 66 167l213 453h303l-553 -1067q-54 -104 -102 -178q-44 -68 -98 -119q-51 -47 -108 -74q-56 -26 -139 -43l-141 242q98 15 127 21q61 13 103 31t77 50q34 31 52 80h-88z
" />
    <glyph glyph-name="z" unicode="z" horiz-adv-x="937" 
d="M27 215l526 645h-168l-53 -102h-209l63 299h770l-36 -199l-535 -661h209l47 102h217l-61 -299h-815z" />
    <glyph glyph-name="braceleft" unicode="{" horiz-adv-x="700" 
d="M346 -319q-60 0 -109 12q-50 12 -89 40q-38 27 -59 71t-21 108q0 14 2 46q1 19 8 50l84 397q6 27 6 50q0 42 -28 58q-27 15 -91 15l43 197q45 0 69 4q31 5 46 15q19 13 29 32t16 51l96 449q34 167 128 232t233 65h151l-45 -199h-45q-31 0 -47 -4q-21 -5 -31 -14
q-13 -11 -20 -30q-11 -27 -15 -52l-92 -428q-24 -115 -78 -162q-52 -44 -139 -55v-4q54 -12 92 -46q39 -35 39 -106q0 -33 -10 -82l-82 -391q-5 -16 -6 -30q-2 -18 -2 -23q0 -35 18 -51q19 -17 64 -17h39l-43 -198h-111z" />
    <glyph glyph-name="bar" unicode="|" horiz-adv-x="561" 
d="M381 1575h237l-403 -1899h-238z" />
    <glyph glyph-name="braceright" unicode="}" horiz-adv-x="700" 
d="M395 1573q58 0 109 -12q50 -12 89 -40q37 -27 59 -72q22 -46 22 -108q0 -14 -2 -46q-1 -19 -8 -50l-84 -397q-7 -33 -7 -49q0 -43 28 -59q27 -15 91 -15l-43 -197q-44 0 -68 -4q-31 -5 -46 -15q-19 -13 -29 -32q-11 -23 -17 -51l-96 -449q-34 -167 -128 -232
q-92 -64 -232 -64h-152l45 198h45q29 0 47 3q19 3 31 15q15 15 21 30q8 22 14 53l92 428q23 114 78 161q53 45 139 56v4q-54 12 -92 46q-39 35 -39 105q0 33 10 82l82 391q4 17 6 30q2 18 2 24q0 35 -18 51q-17 16 -63 16h-39l43 199h110z" />
    <glyph glyph-name="asciitilde" unicode="~" horiz-adv-x="1087" 
d="M66 567q69 141 157 220t189 79q59 0 99 -13t76 -30q13 -6 33.5 -15.5t28.5 -13.5q30 -14 62 -14q35 0 62 24q30 26 56 68l209 -114q-72 -139 -158 -218t-188 -79q-61 0 -100 13q-40 14 -75 30q-11 5 -31.5 15t-30.5 15q-27 13 -62 13q-34 0 -62 -25q-32 -28 -59 -69z" />
    <glyph glyph-name="uni00A0" unicode="&#xa0;" horiz-adv-x="495" 
 />
    <glyph glyph-name="exclamdown" unicode="&#xa1;" horiz-adv-x="595" 
d="M313 -371h-385l297 1008h213zM377 1083q42 0 74 -14q35 -15 60 -40t40 -60q14 -32 14 -74t-14 -74q-15 -35 -40 -60q-26 -26 -60 -41q-35 -15 -74 -15t-74 15q-34 15 -60 41q-25 25 -40 60t-15 74t15 74t40 60t60 40q32 14 74 14z" />
    <glyph glyph-name="cent" unicode="&#xa2;" 
d="M342 0q-229 82 -229 387q0 77 13 154q13 75 38 154t58 140q35 66 73 111q47 53 118 86q69 32 156 43l56 254h262l-60 -270q46 -10 88 -29q43 -19 72 -45l-51 -242h-219v142q-23 6 -51 6q-37 0 -67 -21t-52 -79q-21 -58 -35 -106q-19 -66 -29 -113q-12 -58 -18 -110
q-6 -54 -6 -100q0 -71 24 -107t86 -36q52 0 106 11q63 13 105 32l56 -192q-51 -34 -106 -56q-57 -23 -130 -34l-53 -250h-262z" />
    <glyph glyph-name="sterling" unicode="&#xa3;" 
d="M129 864h90v86q0 122 39 217q39 94 112 158q72 63 174 96t226 33q132 0 234 -31q94 -28 170 -84l-68 -301h-240l-2 170q-26 12 -45 16q-25 5 -57 5q-94 0 -136 -62q-42 -61 -42 -161v-64q0 -24 2 -78h286l-51 -248h-233q-10 -117 -71 -205t-179 -139h412l47 111h229
l-80 -383h-991l55 268q114 52 164 136q49 82 49 184v28h-145z" />
    <glyph glyph-name="currency" unicode="&#xa4;" 
d="M657 1221q55 -1 97 -14q47 -14 84 -33l123 102l198 -234l-153 -131q2 -22 3 -35t1 -57q0 -60 -19 -155q-18 -90 -57 -156l108 -129l-268 -234l-96 117q-46 -16 -89 -24q-50 -9 -93 -9q-64 0 -108 12q-50 14 -91 35l-123 -102l-199 234l154 131q-2 22 -3 35t-1 57
q0 65 18 155q17 87 58 156l-109 129l268 234l97 -117q49 17 97 25q46 8 103 8zM518 453q70 0 100 74q33 81 54 200q7 42 11 75q5 45 5 79q0 52 -13 84t-59 32q-36 0 -59 -19q-25 -20 -41 -55q-18 -38 -29 -87t-24 -113q-7 -42 -11 -75q-6 -54 -6 -79q0 -50 14 -84
q13 -32 58 -32z" />
    <glyph glyph-name="yen" unicode="&#xa5;" 
d="M741 1241l41 186h445l-41 -188l-76 -16l-229 -340h184l-43 -197h-274l-60 -88l-6 -25h317l-43 -196h-315l-37 -172l135 -35l-37 -170h-614l37 170l147 35l37 172h-313l43 196h311l4 17l-26 96h-267l43 197h168l-92 340l-65 16l41 188h534l-41 -186l-112 -20l47 -191
q16 -59 19 -121q3 -63 -1 -118h4q16 40 23 58q16 40 23 55q24 49 30 59q13 24 39 67l121 195z" />
    <glyph glyph-name="brokenbar" unicode="&#xa6;" horiz-adv-x="561" 
d="M154 506h237l-176 -830h-238zM381 1575h237l-176 -830h-237z" />
    <glyph glyph-name="section" unicode="&#xa7;" horiz-adv-x="1134" 
d="M23 494q0 126 70 208q71 83 181 123q-22 56 -22 123q0 96 33 170q34 76 91 124q61 52 140 76q81 25 178 25q119 0 213 -31q99 -32 150 -69l-56 -256h-215l2 139q-27 11 -42 15q-24 6 -52 6q-58 0 -92 -29q-33 -28 -33 -84q0 -29 12 -50q14 -25 33 -40q20 -16 55 -36
q13 -7 72 -38q83 -42 135 -77q57 -38 98 -85q37 -43 60 -101q21 -54 21 -124q0 -129 -72 -211q-72 -83 -182 -123q24 -56 24 -120q0 -99 -32 -170q-33 -74 -92 -124q-61 -52 -140 -76q-84 -26 -178 -26q-115 0 -213 32q-99 32 -150 69l56 256h215l-2 -140q21 -9 42 -14
q24 -6 52 -6q58 0 92 29q33 29 33 84q0 57 -45 90q-44 32 -127 73q-72 37 -134 78q-60 40 -99 85q-37 43 -60 101q-20 51 -20 124zM682 297q23 15 37 38q14 22 14 58q0 47 -48 94q-51 49 -153 109l-139 82q-19 -11 -35 -36q-14 -22 -14 -58q0 -54 48 -96q44 -38 153 -107z
" />
    <glyph glyph-name="dieresis" unicode="&#xa8;" horiz-adv-x="1116" 
d="M850 1161q-68 0 -115 47t-47 117q0 72 45 120t111 48q70 0 119 -48t49 -120q0 -71 -48 -117q-49 -47 -114 -47zM428 1161q-65 0 -114 47q-48 46 -48 117q0 72 45 120t111 48q68 0 118 -48t50 -120q0 -71 -48 -117q-49 -47 -114 -47z" />
    <glyph glyph-name="copyright" unicode="&#xa9;" horiz-adv-x="1445" 
d="M664 559q0 -104 71 -104q22 0 37 3q12 2 31 11l55 111h197l-58 -240q-62 -43 -138 -58q-80 -16 -146 -16q-73 0 -135 18q-64 19 -107 56q-46 40 -71 101q-25 62 -25 151q0 75 11 141q12 75 31 136q19 65 45 117t54 87q72 82 158 105q84 22 170 22q96 0 171 -25
q77 -25 118 -67l-52 -219h-188l2 108q-24 15 -53 15q-37 0 -60 -20t-45 -79q-4 -13 -23 -78q-9 -31 -25 -97q-8 -31 -18 -98q-7 -45 -7 -81zM686 -27q-148 0 -258 43q-111 44 -183 120q-73 78 -109 185q-36 108 -36 236q0 85 16 186q14 87 43 186q27 93 67 172q42 85 89 144
q95 120 228 186q129 64 299 64q148 0 258 -43q111 -44 183 -120q74 -78 109 -184q35 -105 35 -237q0 -91 -15 -186q-13 -85 -43 -185q-27 -93 -67 -172q-42 -84 -90 -145q-94 -119 -227 -185q-132 -65 -299 -65zM829 1378q-130 0 -225 -52q-98 -53 -166 -144
q-43 -55 -79 -131q-36 -77 -60 -159q-25 -86 -38 -170t-13 -165q0 -106 26 -188q28 -88 82 -148q56 -61 141 -96q87 -35 201 -35q131 0 226 52q96 53 166 145q41 52 78 131q39 82 61 159q25 87 38 169q13 84 13 165q0 103 -27 189t-82 147q-56 62 -140 96q-87 35 -202 35z
" />
    <glyph glyph-name="ordfeminine" unicode="&#xaa;" horiz-adv-x="1044" 
d="M455 582q28 0 52 12q23 11 40 27l100 452q-12 13 -30 26q-19 13 -48 13q-35 0 -57 -16q-23 -17 -41 -60q-10 -25 -27 -81q-7 -23 -25 -104q-10 -45 -19 -106q-7 -48 -7 -83q0 -41 14 -61q13 -19 48 -19zM567 487q-54 -65 -124 -104q-69 -39 -138 -39q-106 0 -168 70
q-61 68 -61 221q0 87 11 168q12 88 36 172q25 87 61 158q38 73 86 122q47 47 109 68q59 20 127 20q70 0 116 -28q45 -27 85 -80l47 82h250l-123 -576q-14 -59 -16 -74q-5 -33 -5 -46q0 -50 53 -50h48v-174q-68 -35 -118 -44q-53 -9 -100 -9q-69 0 -120 39q-52 39 -56 104z
" />
    <glyph glyph-name="guillemotleft" unicode="&#xab;" horiz-adv-x="1157" 
d="M496 125l-179 -111l-288 508l487 508l131 -164l-285 -358zM967 125l-179 -111l-288 508l487 508l131 -164l-284 -358z" />
    <glyph glyph-name="logicalnot" unicode="&#xac;" 
d="M659 629h-526l57 262h801l-121 -557h-272z" />
    <glyph glyph-name="uni00AD" unicode="&#xad;" horiz-adv-x="692" 
d="M139 737h502l-68 -313h-501z" />
    <glyph glyph-name="registered" unicode="&#xae;" horiz-adv-x="1075" 
d="M641 977q27 0 37 16q11 15 15 34q5 22 5 42q0 35 -34 35h-31l-29 -127h37zM846 770l-25 -117h-184l-14 160q-1 17 -8 35q-5 12 -21 12h-14l-17 -80l27 -10l-25 -117h-241l24 117l35 10l68 318l-31 10l24 117h267q92 0 128 -36q35 -35 35 -99q0 -84 -38 -123
q-39 -41 -88 -45v-4q34 -7 45 -28q9 -17 14 -52l6 -58zM676 1464q98 0 175 -32q76 -32 134 -94q56 -61 86 -143q31 -85 31 -183q0 -124 -42 -242t-110 -203q-74 -90 -172 -138q-99 -48 -215 -48q-95 0 -175 33q-78 32 -134 93t-86 143q-31 85 -31 184q0 122 42 241
q42 118 110 203q74 90 172 138q99 48 215 48zM575 492q183 0 285 151q24 37 45 84q18 39 35 98q16 53 23 105q8 56 8 100q0 154 -75 239t-232 85q-183 0 -285 -152q-24 -38 -45 -84q-18 -39 -35 -98q-16 -53 -23 -105q-8 -56 -8 -100q0 -153 75 -238t232 -85z" />
    <glyph glyph-name="macron" unicode="&#xaf;" horiz-adv-x="1116" 
d="M381 1468h569l-51 -247h-569z" />
    <glyph glyph-name="degree" unicode="&#xb0;" horiz-adv-x="835" 
d="M496 721q-142 0 -223 86q-80 84 -80 225q0 109 37 193t102 143q50 46 113 66q61 20 133 20q141 0 222 -86t81 -225q0 -97 -32 -184q-31 -85 -93 -142q-63 -55 -123 -75q-63 -21 -137 -21zM506 901q20 0 37 6q14 5 30 23q12 15 24 42q9 21 20 60q12 43 15 68q5 38 5 65
q0 52 -16 80q-17 29 -54 29q-21 0 -37 -6q-14 -5 -30 -23q-15 -18 -25 -43q-12 -28 -21 -63q-12 -45 -15 -71q-5 -40 -5 -67q0 -100 72 -100z" />
    <glyph glyph-name="plusminus" unicode="&#xb1;" 
d="M469 756h-324l56 254h323l60 284h274l-61 -284h323l-53 -254h-324l-61 -281h-272zM59 354h922l-55 -258h-922z" />
    <glyph glyph-name="twosuperior" unicode="&#xb2;" horiz-adv-x="786" 
d="M735 516h-684l43 201q131 89 205 146q80 61 130 111q49 49 68 87t19 80q0 36 -21 57t-71 21q-49 0 -92 -16q-40 -15 -84 -36l-53 166q55 45 143 79q87 34 186 34q148 0 226 -69q77 -68 77 -183q0 -86 -32 -147q-33 -62 -94 -119q-61 -56 -148 -105q-91 -51 -199 -102h422
z" />
    <glyph glyph-name="threesuperior" unicode="&#xb3;" horiz-adv-x="712" 
d="M336 504q-105 0 -180 22q-77 23 -121 49l37 177q43 -17 97 -33q46 -14 105 -14q80 0 123 23q45 24 45 101q0 43 -31 58q-29 14 -81 14h-92l41 172h77q30 0 55 3q24 3 44 13q17 9 29 28t12 50q0 28 -22 47t-75 19q-41 0 -80 -9q-35 -8 -71 -26l-60 166q61 35 130 57
q72 23 169 23q66 0 121 -13q60 -14 99 -40q41 -27 65 -68q25 -42 25 -96q0 -96 -62 -158t-160 -74q69 -23 116 -70q48 -48 48 -120q0 -86 -32 -141q-34 -59 -89 -93t-128 -51q-70 -16 -154 -16z" />
    <glyph glyph-name="acute" unicode="&#xb4;" horiz-adv-x="1116" 
d="M266 1317l441 299l143 -264l-488 -215z" />
    <glyph glyph-name="mu" unicode="&#xb5;" horiz-adv-x="1095" 
d="M244 -389h-330l258 1200l-88 37l45 209h426l-152 -717q-1 -7 -3 -19q-1 -6 -1 -20q0 -33 17 -52q16 -18 43 -18q30 0 55 11q27 12 59 34l164 781h332l-141 -662q-23 -103 -23 -129q0 -51 58 -51h49v-184q-69 -36 -127 -47t-105 -11q-73 0 -126 43q-54 44 -60 109
q-48 -59 -108 -106q-58 -46 -146 -46q-7 0 -19 2q-3 0 -5.5 1t-5 2.5t-3.5 1.5z" />
    <glyph glyph-name="paragraph" unicode="&#xb6;" horiz-adv-x="1443" 
d="M1006 -178h-265l293 1382h-131l-293 -1382h-264l184 876h-2q-79 0 -145 25q-65 25 -108 68q-44 44 -67 102q-24 60 -24 127q0 113 40 190q40 78 111 126q73 49 165 70q94 21 205 21h780l-39 -188l-148 -35z" />
    <glyph glyph-name="periodcentered" unicode="&#xb7;" horiz-adv-x="591" 
d="M295 444q-39 0 -78 17q-36 16 -64 44t-44 64q-17 39 -17 80q0 40 17 77t44 64q28 28 64 44t78 16q43 0 79 -16q38 -16 65 -44q27 -27 44 -64t17 -77q0 -41 -17 -80q-16 -36 -44 -64t-65 -44q-39 -17 -79 -17z" />
    <glyph glyph-name="cedilla" unicode="&#xb8;" horiz-adv-x="1116" 
d="M397 -463q-68 0 -110 13q-46 14 -74 34l66 121q17 -8 46 -17q24 -7 58 -7q44 0 61 17q19 19 19 46q0 59 -76 59q-25 0 -41 -3q-19 -3 -27 -7l152 227h160l-88 -124q48 -16 81 -55q31 -37 31 -97q0 -86 -61 -146q-63 -61 -197 -61z" />
    <glyph glyph-name="onesuperior" unicode="&#xb9;" horiz-adv-x="681" 
d="M109 676l165 24l84 394l-159 -41l-52 137l363 237h192l-157 -727l153 -24l-34 -160h-590z" />
    <glyph glyph-name="ordmasculine" unicode="&#xba;" horiz-adv-x="946" 
d="M453 543q33 0 50 14t32 43q8 17 26 78t32 122q13 57 25 131q11 68 11 107q0 57 -19 82t-59 25q-32 0 -50 -15q-17 -14 -32 -43q-11 -24 -27 -77q-14 -47 -31 -122q-16 -72 -26 -131q-10 -61 -10 -108q0 -58 18 -82t60 -24zM453 344q-178 0 -278 95q-99 95 -99 282
q0 67 12 139t33 138q22 69 49 123q27 55 61 93q60 66 137 98q75 31 183 31q177 0 277 -95t100 -281q0 -62 -13 -140q-13 -79 -32 -138q-22 -69 -49 -123q-26 -52 -62 -93q-60 -66 -136 -97q-78 -32 -183 -32z" />
    <glyph glyph-name="guillemotright" unicode="&#xbb;" horiz-adv-x="1157" 
d="M651 920l178 110l289 -508l-487 -508l-131 164l284 359zM180 920l178 110l289 -508l-487 -508l-131 164l284 359z" />
    <glyph glyph-name="onequarter" unicode="&#xbc;" horiz-adv-x="1970" 
d="M109 676l165 24l84 394l-159 -41l-52 137l363 237h192l-157 -727l153 -24l-34 -160h-590zM1417 1411h271l-1084 -1479h-270zM1065 254l367 549h256l-365 -545h172l45 213l270 39l-53 -252h121l-41 -197h-121l-37 -170h-262l37 170h-430z" />
    <glyph glyph-name="onehalf" unicode="&#xbd;" horiz-adv-x="2015" 
d="M109 676l165 24l84 394l-159 -41l-52 137l363 237h192l-157 -727l153 -24l-34 -160h-590zM1417 1411h271l-1084 -1479h-270zM1831 -109h-684l43 201q118 81 205 147q85 65 130 110q47 47 67 87t20 80q0 35 -22 57q-21 21 -70 21q-52 0 -93 -15t-84 -36l-53 166
q52 42 144 78q87 34 186 34q148 0 225 -68q78 -69 78 -184q0 -84 -33 -147q-34 -64 -93 -119q-58 -54 -148 -104q-103 -58 -199 -103h420z" />
    <glyph glyph-name="threequarters" unicode="&#xbe;" horiz-adv-x="1959" 
d="M1407 1411h270l-1083 -1479h-270zM336 504q-105 0 -180 22q-77 23 -121 49l37 177q43 -17 97 -33q46 -14 105 -14q80 0 123 23q45 24 45 101q0 43 -31 58q-29 14 -81 14h-92l41 172h77q30 0 55 3q24 3 44 13q17 9 29 28t12 50q0 28 -22 47t-75 19q-41 0 -80 -9
q-35 -8 -71 -26l-60 166q61 35 130 57q72 23 169 23q66 0 121 -13q60 -14 99 -40q41 -27 65 -68q25 -42 25 -96q0 -96 -62 -158t-160 -74q69 -23 116 -70q48 -48 48 -120q0 -86 -32 -141q-34 -59 -89 -93t-128 -51q-70 -16 -154 -16zM1055 254l366 549h256l-364 -545h172
l45 213l270 39l-53 -252h121l-41 -197h-121l-37 -170h-262l37 170h-430z" />
    <glyph glyph-name="questiondown" unicode="&#xbf;" horiz-adv-x="929" 
d="M664 481q-14 -62 -33 -111q-17 -44 -42 -80q-26 -37 -52 -59q-29 -24 -66 -45q-48 -28 -79 -54q-28 -24 -47 -52q-18 -26 -22 -53q-6 -36 -6 -58q0 -53 30 -92t95 -39q18 0 46 2q19 1 42 13l82 118h185l-62 -297q-65 -32 -167 -52q-99 -19 -199 -19q-182 0 -291 83
t-109 259q0 77 22 143q22 67 61 114q45 54 96 91q59 42 124 78q66 35 106 73q39 38 56 119l15 74h247zM606 1083q42 0 74 -14q35 -15 60 -40t40 -60q15 -34 15 -74q0 -39 -15 -74t-40 -60q-26 -26 -60 -41t-74 -15t-74 15t-60 41q-25 25 -40 60q-14 32 -14 74t14 74
q15 35 40 60t60 40q32 14 74 14z" />
    <glyph glyph-name="Agrave" unicode="&#xc0;" horiz-adv-x="1267" 
d="M731 358h-354l-76 -163l137 -25l-37 -170h-503l36 170l97 25l614 1232h336l123 -1228l82 -29l-37 -170h-586l37 170l145 25zM475 567h238l-11 111q-12 135 -11 230q2 108 7 182h-2q-25 -88 -65 -181q-46 -108 -103 -229zM557 1706l178 250l371 -303l-125 -168z" />
    <glyph glyph-name="Aacute" unicode="&#xc1;" horiz-adv-x="1267" 
d="M731 358h-354l-76 -163l137 -25l-37 -170h-503l36 170l97 25l614 1232h336l123 -1228l82 -29l-37 -170h-586l37 170l145 25zM475 567h238l-11 111q-12 135 -11 230q2 108 7 182h-2q-25 -88 -65 -181q-46 -108 -103 -229zM524 1667l441 299l143 -264l-487 -215z" />
    <glyph glyph-name="Acircumflex" unicode="&#xc2;" horiz-adv-x="1267" 
d="M731 358h-354l-76 -163l137 -25l-37 -170h-503l36 170l97 25l614 1232h336l123 -1228l82 -29l-37 -170h-586l37 170l145 25zM475 567h238l-11 111q-12 135 -11 230q2 108 7 182h-2q-25 -88 -65 -181q-46 -108 -103 -229zM508 1618l303 276h168l205 -276l-113 -135
l-209 151l-272 -151z" />
    <glyph glyph-name="Atilde" unicode="&#xc3;" horiz-adv-x="1267" 
d="M731 358h-354l-76 -163l137 -25l-37 -170h-503l36 170l97 25l614 1232h336l123 -1228l82 -29l-37 -170h-586l37 170l145 25zM475 567h238l-11 111q-12 135 -11 230q2 108 7 182h-2q-25 -88 -65 -181q-46 -108 -103 -229zM465 1632q113 230 272 230q48 0 81 -11
q37 -12 56 -23q8 -4 47 -24q20 -10 48 -10q27 0 51 22q19 18 49 56l160 -115q-112 -229 -271 -229q-50 0 -81 10q-35 11 -58 24l-46 23q-20 10 -48 10q-29 0 -51 -21q-19 -18 -49 -56z" />
    <glyph glyph-name="Adieresis" unicode="&#xc4;" horiz-adv-x="1267" 
d="M731 358h-354l-76 -163l137 -25l-37 -170h-503l36 170l97 25l614 1232h336l123 -1228l82 -29l-37 -170h-586l37 170l145 25zM475 567h238l-11 111q-12 135 -11 230q2 108 7 182h-2q-25 -88 -65 -181q-46 -108 -103 -229zM1053 1503q-68 0 -115 47t-47 117q0 72 45 120
t111 48q69 0 118 -48t49 -120q0 -71 -48 -117q-49 -47 -113 -47zM631 1503q-65 0 -114 47q-48 46 -48 117q0 72 45 120t111 48q67 0 117 -48q51 -49 51 -120q0 -70 -49 -117t-113 -47z" />
    <glyph glyph-name="Aring" unicode="&#xc5;" horiz-adv-x="1267" 
d="M731 358h-354l-76 -163l137 -25l-37 -170h-503l36 170l97 25l614 1232h336l123 -1228l82 -29l-37 -170h-586l37 170l145 25zM475 567h238l-11 111q-12 135 -11 230q2 108 7 182h-2q-25 -88 -65 -181q-46 -108 -103 -229zM838 1470q-108 0 -168 63t-60 155q0 27 6 57
q22 107 93 167q68 58 170 58t162 -61q61 -63 61 -154q0 -29 -6 -59q-23 -109 -91 -167q-70 -59 -167 -59zM844 1604q36 0 53 29q19 32 29 79l3 21q1 7 1 30q0 74 -60 74q-36 0 -55 -28t-29 -80q-1 -7 -3 -20q-1 -8 -1 -34q0 -32 14 -52q13 -19 48 -19z" />
    <glyph glyph-name="AE" unicode="&#xc6;" horiz-adv-x="1691" 
d="M1311 215l92 203h227l-86 -418h-1001l37 170l141 35l43 196h-330l-133 -206l137 -25l-37 -170h-503l36 170l97 25l641 1009l-127 35l39 188h1231l-89 -403h-219v188h-207l-77 -374h153l51 102h168l-86 -424h-168l-10 109h-155l-89 -410h224zM569 612h240l59 269
q23 111 37 166q16 64 39 145h-2z" />
    <glyph glyph-name="Ccedilla" unicode="&#xc7;" horiz-adv-x="1079" 
d="M391 -463q-68 0 -110 13q-46 14 -74 34l65 121q17 -8 46 -17q24 -7 59 -7q44 0 61 17q19 19 19 46q0 59 -76 59q-25 0 -41 -3q-19 -3 -27 -7l125 189q-172 27 -269 143t-97 338q0 100 18 217q17 112 50 226q30 104 76 204q42 91 97 154q89 99 206 145q115 45 257 45
q130 0 228 -29q94 -28 167 -75l-67 -326h-227v190q-25 13 -49 19q-26 6 -60 6q-64 0 -104 -29q-39 -28 -76 -112q-25 -60 -53 -155q-32 -110 -52 -204q-24 -115 -38 -208q-15 -102 -15 -164q0 -94 31 -137q30 -42 119 -42q29 0 53 3q22 3 59 14l92 201h224l-76 -359
q-71 -37 -165 -52q-98 -16 -175 -20l-55 -79q47 -16 80 -55q32 -38 32 -97q0 -86 -61 -146q-63 -61 -197 -61z" />
    <glyph glyph-name="Egrave" unicode="&#xc8;" horiz-adv-x="1087" 
d="M905 516h-168l-10 109h-156l-88 -410h224l92 203h227l-86 -418h-1001l36 170l142 35l215 999l-127 35l39 188h966l-88 -403h-219v188h-207l-78 -374h154l51 102h168zM498 1706l178 250l371 -303l-125 -168z" />
    <glyph glyph-name="Eacute" unicode="&#xc9;" horiz-adv-x="1087" 
d="M905 516h-168l-10 109h-156l-88 -410h224l92 203h227l-86 -418h-1001l36 170l142 35l215 999l-127 35l39 188h966l-88 -403h-219v188h-207l-78 -374h154l51 102h168zM524 1667l441 299l143 -264l-487 -215z" />
    <glyph glyph-name="Ecircumflex" unicode="&#xca;" horiz-adv-x="1087" 
d="M905 516h-168l-10 109h-156l-88 -410h224l92 203h227l-86 -418h-1001l36 170l142 35l215 999l-127 35l39 188h966l-88 -403h-219v188h-207l-78 -374h154l51 102h168zM428 1618l303 276h168l205 -276l-113 -135l-209 151l-272 -151z" />
    <glyph glyph-name="Edieresis" unicode="&#xcb;" horiz-adv-x="1087" 
d="M905 516h-168l-10 109h-156l-88 -410h224l92 203h227l-86 -418h-1001l36 170l142 35l215 999l-127 35l39 188h966l-88 -403h-219v188h-207l-78 -374h154l51 102h168zM975 1524q-68 0 -115 47t-47 117q0 71 45 119t111 48q69 0 118 -48q50 -48 50 -119q0 -70 -48 -117
q-49 -47 -114 -47zM553 1524q-65 0 -114 47q-48 47 -48 117q0 71 45 119t111 48q69 0 118 -48q50 -48 50 -119q0 -70 -48 -117q-49 -47 -114 -47z" />
    <glyph glyph-name="Igrave" unicode="&#xcc;" horiz-adv-x="739" 
d="M-25 170l142 35l215 999l-127 35l39 188h639l-39 -188l-148 -35l-215 -999l131 -35l-37 -170h-636zM332 1706l178 250l371 -303l-125 -168z" />
    <glyph glyph-name="Iacute" unicode="&#xcd;" horiz-adv-x="739" 
d="M-25 170l142 35l215 999l-127 35l39 188h639l-39 -188l-148 -35l-215 -999l131 -35l-37 -170h-636zM336 1667l440 299l144 -264l-488 -215z" />
    <glyph glyph-name="Icircumflex" unicode="&#xce;" horiz-adv-x="739" 
d="M-25 170l142 35l215 999l-127 35l39 188h639l-39 -188l-148 -35l-215 -999l131 -35l-37 -170h-636zM260 1618l303 276h168l205 -276l-113 -135l-209 151l-272 -151z" />
    <glyph glyph-name="Idieresis" unicode="&#xcf;" horiz-adv-x="739" 
d="M-25 170l142 35l215 999l-127 35l39 188h639l-39 -188l-148 -35l-215 -999l131 -35l-37 -170h-636zM825 1503q-67 0 -114 47t-47 117q0 72 45 120t110 48q69 0 119 -48q49 -48 49 -120q0 -71 -48 -117q-49 -47 -114 -47zM403 1503q-64 0 -113 47q-48 46 -48 117
q0 72 45 120t110 48q69 0 118 -48q50 -48 50 -120q0 -71 -48 -117q-49 -47 -114 -47z" />
    <glyph glyph-name="Eth" unicode="&#xd0;" horiz-adv-x="1329" 
d="M123 827h127l82 377l-127 35l39 188h616q211 0 334 -113q125 -114 125 -360q0 -68 -10 -144q-11 -80 -27 -162t-39 -162t-49 -140q-44 -107 -104 -171q-61 -65 -137 -105q-79 -41 -162 -55q-89 -15 -185 -15h-667l36 170l142 35l88 407h-127zM698 1214l-84 -387h152
l-45 -215h-152l-86 -399h82q62 0 102 11q45 12 76 38q35 29 58 70q26 47 47 106t37 116q22 79 34 140q15 73 24 149q9 75 9 140q0 113 -37 172t-143 59h-74z" />
    <glyph glyph-name="Ntilde" unicode="&#xd1;" horiz-adv-x="1374" 
d="M977 1239l39 188h522l-39 -188l-147 -35l-260 -1204h-256l-232 641q-34 90 -57 175q-24 86 -39 179h-4q2 -86 -15 -185q-22 -133 -32 -183l-90 -422l131 -35l-37 -170h-522l36 170l142 35l215 999l-127 35l39 188h461l184 -548q39 -116 58 -198q19 -80 26 -153h4
q9 83 19 153q13 86 40 208l68 315zM565 1632q113 230 273 230q48 0 81 -11q37 -12 56 -23q16 -9 46 -24q20 -10 48 -10q27 0 51 22q19 18 49 56l160 -115q-112 -229 -270 -229q-51 0 -82 10q-33 10 -57 24q-9 5 -26.5 13.5t-20.5 9.5q-20 10 -48 10q-29 0 -51 -21
q-19 -18 -49 -56z" />
    <glyph glyph-name="Ograve" unicode="&#xd2;" horiz-adv-x="1259" 
d="M563 188q43 0 81 25q37 25 67 86q10 21 33 92q16 52 40 136q18 65 40 159q17 73 34 160q16 79 24 137q9 61 9 96q0 86 -37 123t-96 37q-58 0 -92 -26t-62 -85q-15 -28 -33 -89q-20 -65 -39 -136q-10 -37 -39 -159q-19 -82 -36 -159q-18 -82 -26 -140q-9 -63 -9 -95
q0 -88 34 -125t107 -37zM565 -27q-236 0 -364 118q-129 119 -129 374q0 114 18 234q19 124 52 230q36 115 80 201q47 93 102 152q84 91 188 131q108 41 248 41q234 0 362 -120q127 -120 127 -349q0 -113 -18 -234q-18 -123 -51 -236t-78 -211q-44 -96 -101 -159
q-79 -91 -186 -131q-109 -41 -250 -41zM559 1706l178 250l371 -303l-125 -168z" />
    <glyph glyph-name="Oacute" unicode="&#xd3;" horiz-adv-x="1259" 
d="M563 188q43 0 81 25q37 25 67 86q10 21 33 92q16 52 40 136q18 65 40 159q17 73 34 160q16 79 24 137q9 61 9 96q0 86 -37 123t-96 37q-58 0 -92 -26t-62 -85q-15 -28 -33 -89q-20 -65 -39 -136q-10 -37 -39 -159q-19 -82 -36 -159q-18 -82 -26 -140q-9 -63 -9 -95
q0 -88 34 -125t107 -37zM565 -27q-236 0 -364 118q-129 119 -129 374q0 114 18 234q19 124 52 230q36 115 80 201q47 93 102 152q84 91 188 131q108 41 248 41q234 0 362 -120q127 -120 127 -349q0 -113 -18 -234q-18 -123 -51 -236t-78 -211q-44 -96 -101 -159
q-79 -91 -186 -131q-109 -41 -250 -41zM543 1667l440 299l143 -264l-487 -215z" />
    <glyph glyph-name="Ocircumflex" unicode="&#xd4;" horiz-adv-x="1259" 
d="M563 188q43 0 81 25q37 25 67 86q10 21 33 92q16 52 40 136q18 65 40 159q17 73 34 160q16 79 24 137q9 61 9 96q0 86 -37 123t-96 37q-58 0 -92 -26t-62 -85q-15 -28 -33 -89q-20 -65 -39 -136q-10 -37 -39 -159q-19 -82 -36 -159q-18 -82 -26 -140q-9 -63 -9 -95
q0 -88 34 -125t107 -37zM565 -27q-236 0 -364 118q-129 119 -129 374q0 114 18 234q19 124 52 230q36 115 80 201q47 93 102 152q84 91 188 131q108 41 248 41q234 0 362 -120q127 -120 127 -349q0 -113 -18 -234q-18 -123 -51 -236t-78 -211q-44 -96 -101 -159
q-79 -91 -186 -131q-109 -41 -250 -41zM487 1618l304 276h167l205 -276l-112 -135l-209 151l-273 -151z" />
    <glyph glyph-name="Otilde" unicode="&#xd5;" horiz-adv-x="1259" 
d="M563 188q43 0 81 25q37 25 67 86q10 21 33 92q16 52 40 136q18 65 40 159q17 73 34 160q16 79 24 137q9 61 9 96q0 86 -37 123t-96 37q-58 0 -92 -26t-62 -85q-15 -28 -33 -89q-20 -65 -39 -136q-10 -37 -39 -159q-19 -82 -36 -159q-18 -82 -26 -140q-9 -63 -9 -95
q0 -88 34 -125t107 -37zM565 -27q-236 0 -364 118q-129 119 -129 374q0 114 18 234q19 124 52 230q36 115 80 201q47 93 102 152q84 91 188 131q108 41 248 41q234 0 362 -120q127 -120 127 -349q0 -113 -18 -234q-18 -123 -51 -236t-78 -211q-44 -96 -101 -159
q-79 -91 -186 -131q-109 -41 -250 -41zM446 1632q113 230 273 230q48 0 81 -11q37 -12 56 -23q16 -9 46 -24q20 -10 48 -10q27 0 51 22q23 21 50 56l159 -115q-112 -229 -270 -229q-51 0 -82 10q-33 10 -57 24l-46 23q-20 10 -48 10q-29 0 -52 -21q-19 -18 -49 -56z" />
    <glyph glyph-name="Odieresis" unicode="&#xd6;" horiz-adv-x="1259" 
d="M563 188q43 0 81 25q37 25 67 86q10 21 33 92q16 52 40 136q18 65 40 159q17 73 34 160q16 79 24 137q9 61 9 96q0 86 -37 123t-96 37q-58 0 -92 -26t-62 -85q-15 -28 -33 -89q-20 -65 -39 -136q-10 -37 -39 -159q-19 -82 -36 -159q-18 -82 -26 -140q-9 -63 -9 -95
q0 -88 34 -125t107 -37zM565 -27q-236 0 -364 118q-129 119 -129 374q0 114 18 234q19 124 52 230q36 115 80 201q47 93 102 152q84 91 188 131q108 41 248 41q234 0 362 -120q127 -120 127 -349q0 -113 -18 -234q-18 -123 -51 -236t-78 -211q-44 -96 -101 -159
q-79 -91 -186 -131q-109 -41 -250 -41zM1053 1503q-68 0 -115 47t-47 117q0 72 45 120t111 48q69 0 118 -48t49 -120q0 -71 -48 -117q-49 -47 -113 -47zM631 1503q-65 0 -114 47q-48 46 -48 117q0 72 45 120t111 48q67 0 117 -48q51 -49 51 -120q0 -70 -49 -117t-113 -47z
" />
    <glyph glyph-name="multiply" unicode="&#xd7;" 
d="M55 428l336 291l-223 285l199 174l221 -289l332 289l149 -195l-332 -289l221 -284l-196 -174l-223 286l-332 -289z" />
    <glyph glyph-name="Oslash" unicode="&#xd8;" horiz-adv-x="1259" 
d="M133 178q-61 110 -61 287q0 114 18 234q19 124 52 230q36 115 80 201q47 93 102 152q84 91 188 131q108 41 248 41q199 0 323 -88l166 207l142 -111l-191 -237q49 -101 49 -240q0 -113 -18 -234q-18 -123 -51 -236t-78 -211q-44 -96 -101 -159q-79 -91 -186 -131
q-109 -41 -250 -41q-187 0 -305 72l-184 -229l-144 110zM598 1128q-20 -43 -42 -104q-23 -63 -46 -143q-22 -76 -42 -164q-16 -69 -34 -164l467 586q-24 100 -143 100q-58 0 -95 -26t-65 -85zM563 188q58 0 95 26t65 85q14 28 37 92q13 37 41 127q17 55 40 148q12 48 33 151
l-446 -559q35 -70 135 -70z" />
    <glyph glyph-name="Ugrave" unicode="&#xd9;" horiz-adv-x="1343" 
d="M702 1427l-215 -1019q-10 -44 -10 -76q0 -49 22 -77t72 -28q51 0 105 14q55 14 94 40l199 923l-127 35l39 188h483l-258 -1222l121 -35l-37 -170h-361l-26 111q-52 -59 -144 -99q-90 -39 -186 -39q-163 0 -251 78q-89 78 -89 252q0 43 6 91q6 45 17 102l151 708l-127 35
l39 188h483zM563 1706l178 250l371 -303l-125 -168z" />
    <glyph glyph-name="Uacute" unicode="&#xda;" horiz-adv-x="1343" 
d="M702 1427l-215 -1019q-10 -44 -10 -76q0 -49 22 -77t72 -28q51 0 105 14q55 14 94 40l199 923l-127 35l39 188h483l-258 -1222l121 -35l-37 -170h-361l-26 111q-52 -59 -144 -99q-90 -39 -186 -39q-163 0 -251 78q-89 78 -89 252q0 43 6 91q6 45 17 102l151 708l-127 35
l39 188h483zM547 1667l440 299l143 -264l-487 -215z" />
    <glyph glyph-name="Ucircumflex" unicode="&#xdb;" horiz-adv-x="1343" 
d="M702 1427l-215 -1019q-10 -44 -10 -76q0 -49 22 -77t72 -28q51 0 105 14q55 14 94 40l199 923l-127 35l39 188h483l-258 -1222l121 -35l-37 -170h-361l-26 111q-52 -59 -144 -99q-90 -39 -186 -39q-163 0 -251 78q-89 78 -89 252q0 43 6 91q6 45 17 102l151 708l-127 35
l39 188h483zM532 1618l304 276h168l204 -276l-112 -135l-209 151l-273 -151z" />
    <glyph glyph-name="Udieresis" unicode="&#xdc;" horiz-adv-x="1343" 
d="M702 1427l-215 -1019q-10 -44 -10 -76q0 -49 22 -77t72 -28q51 0 105 14q55 14 94 40l199 923l-127 35l39 188h483l-258 -1222l121 -35l-37 -170h-361l-26 111q-52 -59 -144 -99q-90 -39 -186 -39q-163 0 -251 78q-89 78 -89 252q0 43 6 91q6 45 17 102l151 708l-127 35
l39 188h483zM1079 1503q-67 0 -114 47t-47 117q0 72 45 120t110 48q69 0 119 -48q49 -48 49 -120q0 -71 -48 -117q-49 -47 -114 -47zM657 1503q-64 0 -113 47q-48 46 -48 117q0 72 45 120t110 48q69 0 118 -48q50 -48 50 -120q0 -71 -48 -117q-49 -47 -114 -47z" />
    <glyph glyph-name="Yacute" unicode="&#xdd;" horiz-adv-x="1175" 
d="M858 1241l41 186h451l-41 -188l-82 -16l-430 -625l-84 -393l135 -35l-37 -170h-647l37 170l147 35l82 385l-178 633l-72 16l41 188h574l-41 -186l-133 -20l47 -191q17 -68 25 -135q7 -63 9 -123h5q23 63 54 122q23 44 79 136l121 195zM582 1667l440 299l143 -264
l-487 -215z" />
    <glyph glyph-name="Thorn" unicode="&#xde;" horiz-adv-x="1198" 
d="M614 498q50 0 100 8q45 7 74 49q42 60 54 119q12 61 12 125q0 65 -32 92t-101 27h-84l-90 -420h67zM678 1128h70q220 0 339 -86q120 -86 121 -258q0 -128 -32 -214q-32 -87 -86 -148q-69 -78 -189 -108q-115 -29 -254 -29h-147l-19 -80l174 -31l-39 -174h-677l36 170
l142 35l215 999l-127 35l39 188h639l-39 -188l-148 -35z" />
    <glyph glyph-name="germandbls" unicode="&#xdf;" horiz-adv-x="1130" 
d="M258 1161q23 104 66 172q45 71 103 113q59 43 137 61q81 19 165 19q194 0 298 -83q103 -82 103 -226q0 -89 -36 -145q-37 -57 -81 -103q-54 -56 -81 -85q-37 -40 -37 -89q0 -29 19 -63q15 -26 51 -75q60 -82 82 -140q24 -63 24 -150q0 -190 -105 -292t-296 -102
q-78 0 -141 24q-61 23 -99 64l49 177q35 -12 56 -17q37 -8 69 -8q137 2 137 129q0 28 -10 54q-13 34 -25 54q-14 23 -33 49q-12 16 -32 46q-26 37 -43 78q-16 38 -16 98q0 81 38 142q41 65 82 116q48 59 83 111q38 56 38 127q0 54 -19 83q-20 31 -71 31q-59 0 -97 -48
q-38 -49 -65 -175l-227 -1133q-17 -80 -46 -139q-30 -59 -75 -103q-48 -47 -104 -76q-58 -30 -133 -58l-97 149q54 48 84 105q32 60 52 157l161 801l-98 35l47 211h101z" />
    <glyph glyph-name="agrave" unicode="&#xe0;" horiz-adv-x="1132" 
d="M469 219q30 0 69 17q41 18 56 32l117 531q-9 11 -41 28q-29 15 -64 15q-37 0 -63 -16q-24 -15 -45 -62q-12 -27 -32 -96q-14 -47 -32 -129q-9 -42 -24 -130q-11 -66 -11 -100q0 -49 19 -70q18 -20 51 -20zM621 125q-61 -64 -148 -109q-83 -43 -162 -43q-116 0 -185 78
t-69 244q0 83 14 186q14 101 40 193q27 96 67 175q40 80 96 136q53 53 120 76q65 22 138 22q80 0 139 -31q60 -32 101 -89l49 94h275l-142 -662q-22 -98 -22 -129q0 -51 57 -51h49v-184q-69 -36 -127 -47t-104 -11q-71 0 -127 41q-54 40 -59 111zM455 1360l178 250l371 -303
l-125 -168z" />
    <glyph glyph-name="aacute" unicode="&#xe1;" horiz-adv-x="1132" 
d="M469 219q30 0 69 17q41 18 56 32l117 531q-9 11 -41 28q-29 15 -64 15q-37 0 -63 -16q-24 -15 -45 -62q-12 -27 -32 -96q-14 -47 -32 -129q-9 -42 -24 -130q-11 -66 -11 -100q0 -49 19 -70q18 -20 51 -20zM621 125q-61 -64 -148 -109q-83 -43 -162 -43q-116 0 -185 78
t-69 244q0 83 14 186q14 101 40 193q27 96 67 175q40 80 96 136q53 53 120 76q65 22 138 22q80 0 139 -31q60 -32 101 -89l49 94h275l-142 -662q-22 -98 -22 -129q0 -51 57 -51h49v-184q-69 -36 -127 -47t-104 -11q-71 0 -127 41q-54 40 -59 111zM438 1317l441 299l143 -264
l-487 -215z" />
    <glyph glyph-name="acircumflex" unicode="&#xe2;" horiz-adv-x="1132" 
d="M469 219q30 0 69 17q41 18 56 32l117 531q-9 11 -41 28q-29 15 -64 15q-37 0 -63 -16q-24 -15 -45 -62q-12 -27 -32 -96q-14 -47 -32 -129q-9 -42 -24 -130q-11 -66 -11 -100q0 -49 19 -70q18 -20 51 -20zM621 125q-61 -64 -148 -109q-83 -43 -162 -43q-116 0 -185 78
t-69 244q0 83 14 186q14 101 40 193q27 96 67 175q40 80 96 136q53 53 120 76q65 22 138 22q80 0 139 -31q60 -32 101 -89l49 94h275l-142 -662q-22 -98 -22 -129q0 -51 57 -51h49v-184q-69 -36 -127 -47t-104 -11q-71 0 -127 41q-54 40 -59 111zM362 1272l304 276h168
l204 -276l-112 -135l-209 151l-273 -151z" />
    <glyph glyph-name="atilde" unicode="&#xe3;" horiz-adv-x="1132" 
d="M469 219q30 0 69 17q41 18 56 32l117 531q-9 11 -41 28q-29 15 -64 15q-37 0 -63 -16q-24 -15 -45 -62q-12 -27 -32 -96q-14 -47 -32 -129q-9 -42 -24 -130q-11 -66 -11 -100q0 -49 19 -70q18 -20 51 -20zM621 125q-61 -64 -148 -109q-83 -43 -162 -43q-116 0 -185 78
t-69 244q0 83 14 186q14 101 40 193q27 96 67 175q40 80 96 136q53 53 120 76q65 22 138 22q80 0 139 -31q60 -32 101 -89l49 94h275l-142 -662q-22 -98 -22 -129q0 -51 57 -51h49v-184q-69 -36 -127 -47t-104 -11q-71 0 -127 41q-54 40 -59 111zM340 1274q112 229 272 229
q51 0 81 -10q35 -12 57 -24q7 -4 15 -8l17 -8.5t14 -6.5q20 -10 48 -10t51 21q19 18 49 56l160 -114q-113 -230 -270 -230q-47 0 -82 11q-39 13 -58 23q-16 9 -46 24q-20 10 -48 10q-27 0 -51 -22q-19 -18 -49 -56z" />
    <glyph glyph-name="adieresis" unicode="&#xe4;" horiz-adv-x="1132" 
d="M469 219q30 0 69 17q41 18 56 32l117 531q-9 11 -41 28q-29 15 -64 15q-37 0 -63 -16q-24 -15 -45 -62q-12 -27 -32 -96q-14 -47 -32 -129q-9 -42 -24 -130q-11 -66 -11 -100q0 -49 19 -70q18 -20 51 -20zM621 125q-61 -64 -148 -109q-83 -43 -162 -43q-116 0 -185 78
t-69 244q0 83 14 186q14 101 40 193q27 96 67 175q40 80 96 136q53 53 120 76q65 22 138 22q80 0 139 -31q60 -32 101 -89l49 94h275l-142 -662q-22 -98 -22 -129q0 -51 57 -51h49v-184q-69 -36 -127 -47t-104 -11q-71 0 -127 41q-54 40 -59 111zM930 1161q-68 0 -115 47
t-47 117q0 72 45 120t111 48q68 0 118 -48t50 -120q0 -70 -49 -117t-113 -47zM508 1161q-65 0 -114 47q-48 46 -48 117q0 72 45 120t111 48q68 0 118 -48t50 -120q0 -71 -48 -117q-49 -47 -114 -47z" />
    <glyph glyph-name="aring" unicode="&#xe5;" horiz-adv-x="1132" 
d="M469 219q30 0 69 17q41 18 56 32l117 531q-9 11 -41 28q-29 15 -64 15q-37 0 -63 -16q-24 -15 -45 -62q-12 -27 -32 -96q-14 -47 -32 -129q-9 -42 -24 -130q-11 -66 -11 -100q0 -49 19 -70q18 -20 51 -20zM621 125q-61 -64 -148 -109q-83 -43 -162 -43q-116 0 -185 78
t-69 244q0 83 14 186q14 101 40 193q27 96 67 175q40 80 96 136q53 53 120 76q65 22 138 22q80 0 139 -31q60 -32 101 -89l49 94h275l-142 -662q-22 -98 -22 -129q0 -51 57 -51h49v-184q-69 -36 -127 -47t-104 -11q-71 0 -127 41q-54 40 -59 111zM715 1145q-109 0 -168 62
q-60 63 -60 155q0 22 7 57q23 108 92 167q70 59 170 59q103 0 163 -62q60 -61 60 -153q0 -30 -6 -60q-23 -109 -91 -167t-167 -58zM721 1278q35 0 53 30q19 32 29 79q1 4 2 10t1 10q1 7 1 31q0 73 -59 73q-38 0 -56 -27q-17 -25 -28 -81q0 -1 -1 -5t-2 -7.5t-1 -7.5
q-1 -8 -1 -33q0 -33 14 -53q13 -19 48 -19z" />
    <glyph glyph-name="ae" unicode="&#xe6;" horiz-adv-x="1423" 
d="M383 197q47 0 92 39l45 217h-16q-104 0 -147 -52q-42 -51 -42 -122q0 -45 17 -64q16 -18 51 -18zM942 -27q-122 0 -205 42q-82 42 -133 126q-49 -65 -128 -116q-81 -52 -200 -52q-134 0 -205 78q-71 79 -71 205q0 199 123 287q122 88 364 88h70l12 41q11 42 11 63
q0 47 -27 73q-28 26 -78 26q-65 0 -127 -20q-60 -20 -123 -54l-98 201q102 63 203 93q97 29 221 29q85 0 142 -27q52 -25 93 -67q61 43 136 69q72 25 165 25q160 0 254 -73q95 -74 95 -224q0 -110 -41 -177q-40 -65 -117 -103q-75 -37 -184 -49q-117 -13 -244 -13v-16
q0 -90 37 -149q37 -60 127 -60q68 0 123 19q53 18 118 55l70 -193q-56 -61 -161 -94q-104 -33 -222 -33zM940 780q-29 -52 -37 -67q-21 -37 -33 -90q84 5 122 11q54 8 82 24q31 18 46 48t15 78q0 88 -64 88q-80 0 -131 -92z" />
    <glyph glyph-name="ccedilla" unicode="&#xe7;" horiz-adv-x="876" 
d="M297 -463q-69 0 -111 13q-44 14 -73 34l65 121q17 -8 46 -17q24 -7 59 -7q44 0 61 17q18 18 18 46q0 59 -75 59q-25 0 -41 -3q-19 -3 -27 -7l127 193q-142 29 -215 129q-74 101 -74 274q0 72 14 154q13 75 38 154t58 140q35 66 73 111q62 71 157 103q96 32 213 32
q86 0 172 -23q91 -24 150 -73l-51 -242h-219v142q-23 6 -52 6q-36 0 -66 -21t-52 -79q-21 -58 -35 -106q-19 -66 -29 -113q-12 -58 -18 -110q-7 -63 -7 -99q0 -71 25 -108q24 -36 86 -36q52 0 106 11q63 13 105 32l55 -192q-51 -37 -125 -63q-76 -26 -155 -32l-58 -81
q48 -16 81 -55q32 -38 32 -97q0 -86 -61 -146q-63 -61 -197 -61z" />
    <glyph glyph-name="egrave" unicode="&#xe8;" horiz-adv-x="960" 
d="M479 -27q-209 0 -315 117q-107 118 -107 313q0 170 53 305q54 136 134 224q67 76 164 114q95 37 217 37q160 0 254 -73t94 -224q0 -112 -39 -183q-39 -70 -114 -109t-184 -54q-102 -14 -251 -14v-12q0 -94 37 -144q38 -51 129 -51q68 0 123 19q56 19 119 55l69 -193
q-56 -61 -161 -94q-103 -33 -222 -33zM477 780q-14 -26 -37 -73q-17 -35 -34 -103q71 4 121 12q48 7 83 28q32 19 47 53q15 35 15 87q0 88 -64 88q-80 0 -131 -92zM379 1360l178 250l371 -303l-125 -168z" />
    <glyph glyph-name="eacute" unicode="&#xe9;" horiz-adv-x="960" 
d="M479 -27q-209 0 -315 117q-107 118 -107 313q0 170 53 305q54 136 134 224q67 76 164 114q95 37 217 37q160 0 254 -73t94 -224q0 -112 -39 -183q-39 -70 -114 -109t-184 -54q-102 -14 -251 -14v-12q0 -94 37 -144q38 -51 129 -51q68 0 123 19q56 19 119 55l69 -193
q-56 -61 -161 -94q-103 -33 -222 -33zM477 780q-14 -26 -37 -73q-17 -35 -34 -103q71 4 121 12q48 7 83 28q32 19 47 53q15 35 15 87q0 88 -64 88q-80 0 -131 -92zM363 1317l440 299l143 -264l-487 -215z" />
    <glyph glyph-name="ecircumflex" unicode="&#xea;" horiz-adv-x="960" 
d="M479 -27q-209 0 -315 117q-107 118 -107 313q0 170 53 305q54 136 134 224q67 76 164 114q95 37 217 37q160 0 254 -73t94 -224q0 -112 -39 -183q-39 -70 -114 -109t-184 -54q-102 -14 -251 -14v-12q0 -94 37 -144q38 -51 129 -51q68 0 123 19q56 19 119 55l69 -193
q-56 -61 -161 -94q-103 -33 -222 -33zM477 780q-14 -26 -37 -73q-17 -35 -34 -103q71 4 121 12q48 7 83 28q32 19 47 53q15 35 15 87q0 88 -64 88q-80 0 -131 -92zM307 1272l303 276h168l205 -276l-113 -135l-208 151l-273 -151z" />
    <glyph glyph-name="edieresis" unicode="&#xeb;" horiz-adv-x="960" 
d="M479 -27q-209 0 -315 117q-107 118 -107 313q0 170 53 305q54 136 134 224q67 76 164 114q95 37 217 37q160 0 254 -73t94 -224q0 -112 -39 -183q-39 -70 -114 -109t-184 -54q-102 -14 -251 -14v-12q0 -94 37 -144q38 -51 129 -51q68 0 123 19q56 19 119 55l69 -193
q-56 -61 -161 -94q-103 -33 -222 -33zM477 780q-14 -26 -37 -73q-17 -35 -34 -103q71 4 121 12q48 7 83 28q32 19 47 53q15 35 15 87q0 88 -64 88q-80 0 -131 -92zM854 1161q-68 0 -115 47t-47 117q0 72 45 120t111 48q70 0 119 -48t49 -120q0 -71 -48 -117
q-49 -47 -114 -47zM432 1161q-65 0 -114 47q-48 46 -48 117q0 72 45 120t111 48q68 0 118 -48t50 -120q0 -71 -48 -117q-49 -47 -114 -47z" />
    <glyph glyph-name="igrave" unicode="&#xec;" horiz-adv-x="608" 
d="M182 811l-88 37l45 209h428l-143 -662q-23 -103 -23 -129q0 -51 58 -51h49v-184q-69 -36 -127 -47t-105 -11q-109 0 -164 50t-55 135q0 33 5 75q1 10 14 74zM152 1360l178 250l370 -303l-125 -168z" />
    <glyph glyph-name="iacute" unicode="&#xed;" horiz-adv-x="608" 
d="M182 811l-88 37l45 209h428l-143 -662q-23 -103 -23 -129q0 -51 58 -51h49v-184q-69 -36 -127 -47t-105 -11q-109 0 -164 50t-55 135q0 33 5 75q1 10 14 74zM156 1317l440 299l143 -264l-487 -215z" />
    <glyph glyph-name="icircumflex" unicode="&#xee;" horiz-adv-x="608" 
d="M182 811l-88 37l45 209h428l-143 -662q-23 -103 -23 -129q0 -51 58 -51h49v-184q-69 -36 -127 -47t-105 -11q-109 0 -164 50t-55 135q0 33 5 75q1 10 14 74zM80 1272l303 276h168l205 -276l-113 -135l-209 151l-272 -151z" />
    <glyph glyph-name="idieresis" unicode="&#xef;" horiz-adv-x="608" 
d="M182 811l-88 37l45 209h428l-143 -662q-23 -103 -23 -129q0 -51 58 -51h49v-184q-69 -36 -127 -47t-105 -11q-109 0 -164 50t-55 135q0 33 5 75q1 10 14 74zM627 1161q-68 0 -115 47t-47 117q0 72 45 120t111 48q69 0 118 -48t49 -120q0 -71 -48 -117q-49 -47 -113 -47z
M205 1161q-65 0 -114 47q-48 46 -48 117q0 72 45 120t111 48q67 0 117 -48q51 -49 51 -120q0 -70 -49 -117t-113 -47z" />
    <glyph glyph-name="eth" unicode="&#xf0;" horiz-adv-x="1069" 
d="M463 1536q169 -83 293 -195l235 91l51 -132l-184 -71q74 -100 114 -216q40 -117 40 -265q0 -71 -13 -167q-13 -95 -35 -174q-24 -84 -57 -160q-33 -75 -73 -124q-66 -78 -156 -114t-207 -36q-198 0 -306 113q-108 112 -108 305q0 151 45 278t113 201q66 72 138 99
q69 26 149 26q47 0 83 -12q34 -11 62 -33q-5 54 -18 92q-16 46 -37 84l-270 -102l-52 131l232 88q-39 39 -69 64q-52 43 -75 61zM471 180q37 0 59 21t37 53q15 34 30 88q17 64 29 116q14 60 21 120q8 64 8 102q0 59 -24 83q-23 23 -70 23q-71 0 -106 -114q-14 -43 -23 -78
q-9 -34 -22 -95q-10 -47 -18 -103q-7 -49 -7 -97q0 -65 19 -91q20 -28 67 -28z" />
    <glyph glyph-name="ntilde" unicode="&#xf1;" 
d="M965 395q-23 -103 -23 -129q0 -51 57 -51h50v-184q-69 -36 -127 -47t-105 -11q-110 0 -165 50q-54 49 -54 135q0 33 5 75q3 22 13 74l82 400q1 5 3 17q1 6 1 21q0 38 -17 52t-44 14q-31 0 -57 -10t-64 -39l-162 -762h-331l172 811l-88 37l45 209h352v-137q61 66 144 115
q82 48 177 48q104 0 161 -63t57 -180q0 -55 -13 -115zM307 1274q112 229 273 229q50 0 80 -10q35 -12 57 -24q7 -4 15 -8l17 -8.5t14 -6.5q20 -10 48 -10q29 0 51 21q19 18 49 56l160 -114q-113 -230 -270 -230q-47 0 -82 11q-37 12 -57 23q-8 5 -47 24q-20 10 -48 10
q-27 0 -51 -22q-19 -18 -49 -56z" />
    <glyph glyph-name="ograve" unicode="&#xf2;" horiz-adv-x="1064" 
d="M641 532q21 101 28 146q9 60 9 104q0 95 -88 95q-22 0 -45 -13q-21 -12 -39 -50q-19 -39 -38 -107q-20 -70 -44 -185q-22 -103 -28 -144q-9 -58 -9 -104q0 -94 88 -94q22 0 45 13q21 12 39 49q20 41 38 106q21 73 44 184zM57 385q0 70 14 156q14 87 35 156q22 72 55 139
q33 66 68 104q66 72 154 108q86 35 207 35q94 0 169 -25q77 -26 132 -78q57 -54 86 -130q31 -81 31 -180q0 -71 -14 -155q-13 -80 -36 -157q-22 -75 -54 -139q-33 -65 -68 -102q-66 -72 -154 -108t-207 -36q-187 0 -302 103q-115 102 -116 309zM397 1360l178 250l371 -303
l-125 -168z" />
    <glyph glyph-name="oacute" unicode="&#xf3;" horiz-adv-x="1064" 
d="M641 532q21 101 28 146q9 60 9 104q0 95 -88 95q-22 0 -45 -13q-21 -12 -39 -50q-19 -39 -38 -107q-20 -70 -44 -185q-22 -103 -28 -144q-9 -58 -9 -104q0 -94 88 -94q22 0 45 13q21 12 39 49q20 41 38 106q21 73 44 184zM57 385q0 70 14 156q14 87 35 156q22 72 55 139
q33 66 68 104q66 72 154 108q86 35 207 35q94 0 169 -25q77 -26 132 -78q57 -54 86 -130q31 -81 31 -180q0 -71 -14 -155q-13 -80 -36 -157q-22 -75 -54 -139q-33 -65 -68 -102q-66 -72 -154 -108t-207 -36q-187 0 -302 103q-115 102 -116 309zM381 1317l440 299l144 -264
l-488 -215z" />
    <glyph glyph-name="ocircumflex" unicode="&#xf4;" horiz-adv-x="1064" 
d="M641 532q21 101 28 146q9 60 9 104q0 95 -88 95q-22 0 -45 -13q-21 -12 -39 -50q-19 -39 -38 -107q-20 -70 -44 -185q-22 -103 -28 -144q-9 -58 -9 -104q0 -94 88 -94q22 0 45 13q21 12 39 49q20 41 38 106q21 73 44 184zM57 385q0 70 14 156q14 87 35 156q22 72 55 139
q33 66 68 104q66 72 154 108q86 35 207 35q94 0 169 -25q77 -26 132 -78q57 -54 86 -130q31 -81 31 -180q0 -71 -14 -155q-13 -80 -36 -157q-22 -75 -54 -139q-33 -65 -68 -102q-66 -72 -154 -108t-207 -36q-187 0 -302 103q-115 102 -116 309zM326 1272l303 276h168
l204 -276l-112 -135l-209 151l-272 -151z" />
    <glyph glyph-name="otilde" unicode="&#xf5;" horiz-adv-x="1064" 
d="M641 532q21 101 28 146q9 60 9 104q0 95 -88 95q-22 0 -45 -13q-21 -12 -39 -50q-19 -39 -38 -107q-20 -70 -44 -185q-22 -103 -28 -144q-9 -58 -9 -104q0 -94 88 -94q22 0 45 13q21 12 39 49q20 41 38 106q21 73 44 184zM57 385q0 70 14 156q14 87 35 156q22 72 55 139
q33 66 68 104q66 72 154 108q86 35 207 35q94 0 169 -25q77 -26 132 -78q57 -54 86 -130q31 -81 31 -180q0 -71 -14 -155q-13 -80 -36 -157q-22 -75 -54 -139q-33 -65 -68 -102q-66 -72 -154 -108t-207 -36q-187 0 -302 103q-115 102 -116 309zM285 1274q112 229 272 229
q51 0 81 -10q33 -11 56 -24q7 -4 15 -8l17 -8.5t14 -6.5q20 -10 48 -10q30 0 52 21q19 18 49 56l160 -114q-113 -230 -271 -230q-47 0 -82 11q-37 12 -57 23q-16 9 -46 24q-20 10 -48 10q-27 0 -51 -22q-23 -21 -50 -56z" />
    <glyph glyph-name="odieresis" unicode="&#xf6;" horiz-adv-x="1064" 
d="M641 532q21 101 28 146q9 60 9 104q0 95 -88 95q-22 0 -45 -13q-21 -12 -39 -50q-19 -39 -38 -107q-20 -70 -44 -185q-22 -103 -28 -144q-9 -58 -9 -104q0 -94 88 -94q22 0 45 13q21 12 39 49q20 41 38 106q21 73 44 184zM57 385q0 70 14 156q14 87 35 156q22 72 55 139
q33 66 68 104q66 72 154 108q86 35 207 35q94 0 169 -25q77 -26 132 -78q57 -54 86 -130q31 -81 31 -180q0 -71 -14 -155q-13 -80 -36 -157q-22 -75 -54 -139q-33 -65 -68 -102q-66 -72 -154 -108t-207 -36q-187 0 -302 103q-115 102 -116 309zM893 1161q-68 0 -115 47
t-47 117q0 72 45 120t111 48q69 0 119 -48q49 -48 49 -120q0 -71 -48 -117q-49 -47 -114 -47zM471 1161q-65 0 -114 47q-48 46 -48 117q0 72 45 120t111 48q69 0 118 -48q50 -48 50 -120q0 -71 -48 -117q-49 -47 -114 -47z" />
    <glyph glyph-name="divide" unicode="&#xf7;" 
d="M131 836h920l-56 -263h-919zM481 98q-33 0 -66 14q-32 14 -56 38q-20 20 -37 56q-15 31 -15 68q0 72 51 123q52 52 123 52q37 0 69 -15t55 -38t38 -55q14 -29 14 -67q0 -39 -14 -68q-16 -34 -38 -56q-25 -25 -55 -38q-33 -14 -69 -14zM641 961q-37 0 -67 13t-55 38
q-22 22 -38 56q-14 29 -14 69q0 72 51 123t123 51q37 0 69 -15t55 -38t38 -55q14 -29 14 -66q0 -40 -14 -69q-16 -34 -38 -56q-25 -25 -55 -38t-69 -13z" />
    <glyph glyph-name="oslash" unicode="&#xf8;" horiz-adv-x="1064" 
d="M127 131q-70 100 -70 254q0 70 14 156q14 87 35 156q22 72 55 139q33 66 68 104q66 72 154 108q86 35 207 35q130 0 231 -53l142 182l127 -100l-148 -192q30 -46 48 -110q18 -63 18 -140q0 -71 -14 -155q-13 -80 -36 -157q-22 -75 -54 -139q-33 -65 -68 -102
q-66 -72 -154 -108t-207 -36q-132 0 -227 50l-158 -203l-127 98zM383 477q-4 -15 -4 -20l301 391q-16 16 -40 22q-28 7 -50 7q-25 0 -53 -20q-29 -21 -53 -65q-26 -46 -51 -123q-26 -78 -50 -192zM469 178q25 0 53 20q27 20 52 65q29 53 52 122q27 81 50 190l-291 -374
q19 -14 38 -18q23 -5 46 -5z" />
    <glyph glyph-name="ugrave" unicode="&#xf9;" horiz-adv-x="1095" 
d="M594 125q-66 -68 -137 -108q-77 -44 -170 -44q-108 0 -169 67t-61 185q0 42 13 107l102 479l-88 37l45 209h426l-152 -717q-1 -7 -3 -19q-1 -6 -1 -20q0 -33 17 -52q16 -18 43 -18q30 0 55 11q27 12 59 34l164 781h332l-141 -662q-23 -103 -23 -129q0 -51 58 -51h49v-184
q-69 -36 -127 -47t-105 -11q-73 0 -126 43q-54 44 -60 109zM430 1360l178 250l371 -303l-125 -168z" />
    <glyph glyph-name="uacute" unicode="&#xfa;" horiz-adv-x="1095" 
d="M594 125q-66 -68 -137 -108q-77 -44 -170 -44q-108 0 -169 67t-61 185q0 42 13 107l102 479l-88 37l45 209h426l-152 -717q-1 -7 -3 -19q-1 -6 -1 -20q0 -33 17 -52q16 -18 43 -18q30 0 55 11q27 12 59 34l164 781h332l-141 -662q-23 -103 -23 -129q0 -51 58 -51h49v-184
q-69 -36 -127 -47t-105 -11q-73 0 -126 43q-54 44 -60 109zM455 1317l440 299l143 -264l-487 -215z" />
    <glyph glyph-name="ucircumflex" unicode="&#xfb;" horiz-adv-x="1095" 
d="M594 125q-66 -68 -137 -108q-77 -44 -170 -44q-108 0 -169 67t-61 185q0 42 13 107l102 479l-88 37l45 209h426l-152 -717q-1 -7 -3 -19q-1 -6 -1 -20q0 -33 17 -52q16 -18 43 -18q30 0 55 11q27 12 59 34l164 781h332l-141 -662q-23 -103 -23 -129q0 -51 58 -51h49v-184
q-69 -36 -127 -47t-105 -11q-73 0 -126 43q-54 44 -60 109zM360 1272l304 276h167l205 -276l-112 -135l-209 151l-273 -151z" />
    <glyph glyph-name="udieresis" unicode="&#xfc;" horiz-adv-x="1095" 
d="M594 125q-66 -68 -137 -108q-77 -44 -170 -44q-108 0 -169 67t-61 185q0 42 13 107l102 479l-88 37l45 209h426l-152 -717q-1 -7 -3 -19q-1 -6 -1 -20q0 -33 17 -52q16 -18 43 -18q30 0 55 11q27 12 59 34l164 781h332l-141 -662q-23 -103 -23 -129q0 -51 58 -51h49v-184
q-69 -36 -127 -47t-105 -11q-73 0 -126 43q-54 44 -60 109zM905 1161q-67 0 -114 47q-48 48 -48 117q0 72 45 120t111 48q69 0 119 -48q49 -48 49 -120q0 -71 -48 -117q-49 -47 -114 -47zM483 1161q-64 0 -113 47q-48 46 -48 117q0 72 45 120t110 48q69 0 118 -48
q50 -48 50 -120q0 -71 -48 -117q-49 -47 -114 -47z" />
    <glyph glyph-name="yacute" unicode="&#xfd;" horiz-adv-x="956" 
d="M193 0l-66 811l-100 37l45 209h360l21 -439q5 -92 0 -180q-5 -91 -19 -166h4q17 86 43 165q28 84 66 167l213 453h303l-553 -1067q-54 -104 -102 -178q-44 -68 -98 -119q-51 -47 -108 -74q-56 -26 -139 -43l-141 242q98 15 127 21q61 13 103 31t77 50q34 31 52 80h-88z
M371 1317l440 299l143 -264l-487 -215z" />
    <glyph glyph-name="thorn" unicode="&#xfe;" horiz-adv-x="1112" 
d="M719 741q0 51 -20 71q-19 19 -56 19q-32 0 -70 -16q-39 -17 -57 -33l-123 -551q10 -13 43 -26q30 -12 66 -12q40 0 66 17q27 18 48 64q14 31 33 97q21 75 34 134q17 81 26 135q10 61 10 101zM195 1296l45 209h428l-111 -522q53 47 118 74q62 26 126 26q117 0 185 -77
q69 -78 69 -244q0 -85 -14 -188t-40 -194q-28 -97 -67 -177q-40 -81 -96 -137q-54 -54 -119 -73q-68 -20 -137 -20q-71 0 -132 26q-62 26 -92 79l-59 -285l98 -20l-35 -162h-538l35 162l110 20l314 1467z" />
    <glyph glyph-name="ydieresis" unicode="&#xff;" horiz-adv-x="956" 
d="M193 0l-66 811l-100 37l45 209h360l21 -439q5 -92 0 -180q-5 -91 -19 -166h4q17 86 43 165q28 84 66 167l213 453h303l-553 -1067q-54 -104 -102 -178q-44 -68 -98 -119q-51 -47 -108 -74q-56 -26 -139 -43l-141 242q98 15 127 21q61 13 103 31t77 50q34 31 52 80h-88z
M862 1161q-67 0 -114 47q-48 48 -48 117q0 72 45 120t111 48q70 0 119 -48t49 -120q0 -71 -48 -117q-49 -47 -114 -47zM440 1161q-64 0 -113 47q-48 46 -48 117q0 72 45 120t110 48q68 0 118 -48t50 -120q0 -71 -48 -117q-49 -47 -114 -47z" />
    <glyph glyph-name="Amacron" unicode="&#x100;" horiz-adv-x="1267" 
d="M731 358h-354l-76 -163l137 -25l-37 -170h-503l36 170l97 25l614 1232h336l123 -1228l82 -29l-37 -170h-586l37 170l145 25zM475 567h238l-11 111q-12 135 -11 230q2 108 7 182h-2q-25 -88 -65 -181q-46 -108 -103 -229zM586 1778h569l-51 -244h-569z" />
    <glyph glyph-name="amacron" unicode="&#x101;" horiz-adv-x="1132" 
d="M469 219q30 0 69 17q41 18 56 32l117 531q-9 11 -41 28q-29 15 -64 15q-37 0 -63 -16q-24 -15 -45 -62q-12 -27 -32 -96q-14 -47 -32 -129q-9 -42 -24 -130q-11 -66 -11 -100q0 -49 19 -70q18 -20 51 -20zM621 125q-61 -64 -148 -109q-83 -43 -162 -43q-116 0 -185 78
t-69 244q0 83 14 186q14 101 40 193q27 96 67 175q40 80 96 136q53 53 120 76q65 22 138 22q80 0 139 -31q60 -32 101 -89l49 94h275l-142 -662q-22 -98 -22 -129q0 -51 57 -51h49v-184q-69 -36 -127 -47t-104 -11q-71 0 -127 41q-54 40 -59 111zM465 1468h569l-51 -247
h-569z" />
    <glyph glyph-name="Abreve" unicode="&#x102;" horiz-adv-x="1267" 
d="M731 358h-354l-76 -163l137 -25l-37 -170h-503l36 170l97 25l614 1232h336l123 -1228l82 -29l-37 -170h-586l37 170l145 25zM475 567h238l-11 111q-12 135 -11 230q2 108 7 182h-2q-25 -88 -65 -181q-46 -108 -103 -229zM817 1507q-83 0 -143 30q-58 29 -97 77t-56 103
q-17 54 -17 112l223 43q11 -53 36 -83t81 -30t83 30q28 31 50 83l219 -51q-11 -56 -40 -112q-28 -54 -77 -101q-48 -46 -113 -73q-68 -28 -149 -28z" />
    <glyph glyph-name="abreve" unicode="&#x103;" horiz-adv-x="1132" 
d="M469 219q30 0 69 17q41 18 56 32l117 531q-9 11 -41 28q-29 15 -64 15q-37 0 -63 -16q-24 -15 -45 -62q-12 -27 -32 -96q-14 -47 -32 -129q-9 -42 -24 -130q-11 -66 -11 -100q0 -49 19 -70q18 -20 51 -20zM621 125q-61 -64 -148 -109q-83 -43 -162 -43q-116 0 -185 78
t-69 244q0 83 14 186q14 101 40 193q27 96 67 175q40 80 96 136q53 53 120 76q65 22 138 22q80 0 139 -31q60 -32 101 -89l49 94h275l-142 -662q-22 -98 -22 -129q0 -51 57 -51h49v-184q-69 -36 -127 -47t-104 -11q-71 0 -127 41q-54 40 -59 111zM690 1165q-83 0 -143 30
q-58 29 -97 77t-56 103q-17 54 -17 112l223 43q11 -53 36 -83q26 -30 81 -30q56 0 83 30q28 31 50 83l219 -51q-11 -56 -40 -112q-28 -54 -77 -101q-48 -46 -113 -73q-68 -28 -149 -28z" />
    <glyph glyph-name="Aogonek" unicode="&#x104;" horiz-adv-x="1267" 
d="M809 -463q-122 0 -175 56q-54 57 -54 151q0 81 46 146q48 68 134 110h-197l37 170l145 25l-14 163h-354l-76 -163l137 -25l-37 -170h-503l36 170l97 25l614 1232h336l123 -1228l82 -29l-37 -170h-186q-73 -53 -115 -97q-45 -48 -45 -91q0 -66 76 -66q30 0 59 8
q20 6 49 19l37 -164q-33 -23 -86 -48q-51 -24 -129 -24zM475 567h238l-11 111q-12 135 -11 230q2 108 7 182h-2q-25 -88 -65 -181q-46 -108 -103 -229z" />
    <glyph glyph-name="aogonek" unicode="&#x105;" horiz-adv-x="1132" 
d="M803 -463q-122 0 -175 56q-55 58 -55 151q0 75 40 137q42 65 116 107q-45 16 -75 51q-28 33 -33 86q-61 -64 -148 -109q-83 -43 -162 -43q-116 0 -185 78t-69 244q0 83 14 186q14 101 40 193q27 96 67 175q40 80 96 136q53 53 120 76q65 22 138 22q80 0 139 -31
q60 -32 101 -89l49 94h275l-142 -662q-22 -98 -22 -129q0 -51 57 -51h49v-184q-115 -40 -179 -101q-62 -59 -62 -118q0 -66 75 -66q31 0 60 8q20 6 49 19l37 -164q-33 -23 -86 -48q-51 -24 -129 -24zM469 219q30 0 69 17q41 18 56 32l117 531q-9 11 -41 28q-29 15 -64 15
q-37 0 -63 -16q-24 -15 -45 -62q-12 -27 -32 -96q-14 -47 -32 -129q-9 -42 -24 -130q-11 -66 -11 -100q0 -49 19 -70q18 -20 51 -20z" />
    <glyph glyph-name="Cacute" unicode="&#x106;" horiz-adv-x="1079" 
d="M580 188q29 0 53 3q22 3 59 14l92 201h224l-76 -359q-40 -22 -89 -36q-42 -12 -100 -22q-59 -10 -101 -13q-50 -3 -93 -3q-109 0 -199 29q-87 28 -150 88t-96 153q-32 90 -32 220q0 100 18 217q17 112 50 226q30 104 76 204q42 91 97 154q89 99 206 145q115 45 257 45
q130 0 228 -29q94 -28 167 -75l-67 -326h-227v190q-25 13 -49 19q-26 6 -60 6q-64 0 -104 -29q-39 -28 -76 -112q-25 -60 -53 -155q-32 -110 -52 -204q-24 -115 -38 -208q-15 -102 -15 -164q0 -94 31 -137q30 -42 119 -42zM551 1667l440 299l144 -264l-488 -215z" />
    <glyph glyph-name="cacute" unicode="&#x107;" horiz-adv-x="876" 
d="M461 -25q-197 0 -300 105q-104 106 -104 309q0 72 14 154q13 75 38 154t58 140q35 66 73 111q62 71 157 103q96 32 213 32q86 0 172 -23q91 -24 150 -73l-51 -242h-219v142q-23 6 -52 6q-36 0 -66 -21t-52 -79q-21 -58 -35 -106q-19 -66 -29 -113q-12 -58 -18 -110
q-7 -63 -7 -99q0 -71 25 -108q24 -36 86 -36q52 0 106 11q63 13 105 32l55 -192q-61 -43 -142 -69q-89 -28 -177 -28zM383 1317l440 299l144 -264l-488 -215z" />
    <glyph glyph-name="Ccircumflex" unicode="&#x108;" horiz-adv-x="1079" 
d="M580 188q29 0 53 3q22 3 59 14l92 201h224l-76 -359q-40 -22 -89 -36q-42 -12 -100 -22q-59 -10 -101 -13q-50 -3 -93 -3q-109 0 -199 29q-87 28 -150 88t-96 153q-32 90 -32 220q0 100 18 217q17 112 50 226q30 104 76 204q42 91 97 154q89 99 206 145q115 45 257 45
q130 0 228 -29q94 -28 167 -75l-67 -326h-227v190q-25 13 -49 19q-26 6 -60 6q-64 0 -104 -29q-39 -28 -76 -112q-25 -60 -53 -155q-32 -110 -52 -204q-24 -115 -38 -208q-15 -102 -15 -164q0 -94 31 -137q30 -42 119 -42zM475 1618l303 276h168l205 -276l-113 -135
l-209 151l-272 -151z" />
    <glyph glyph-name="ccircumflex" unicode="&#x109;" horiz-adv-x="876" 
d="M461 -25q-197 0 -300 105q-104 106 -104 309q0 72 14 154q13 75 38 154t58 140q35 66 73 111q62 71 157 103q96 32 213 32q86 0 172 -23q91 -24 150 -73l-51 -242h-219v142q-23 6 -52 6q-36 0 -66 -21t-52 -79q-21 -58 -35 -106q-19 -66 -29 -113q-12 -58 -18 -110
q-7 -63 -7 -99q0 -71 25 -108q24 -36 86 -36q52 0 106 11q63 13 105 32l55 -192q-61 -43 -142 -69q-89 -28 -177 -28zM287 1272l303 276h168l205 -276l-113 -135l-209 151l-272 -151z" />
    <glyph glyph-name="Cdotaccent" unicode="&#x10a;" horiz-adv-x="1079" 
d="M580 188q29 0 53 3q22 3 59 14l92 201h224l-76 -359q-40 -22 -89 -36q-42 -12 -100 -22q-59 -10 -101 -13q-50 -3 -93 -3q-109 0 -199 29q-87 28 -150 88t-96 153q-32 90 -32 220q0 100 18 217q17 112 50 226q30 104 76 204q42 91 97 154q89 99 206 145q115 45 257 45
q130 0 228 -29q94 -28 167 -75l-67 -326h-227v190q-25 13 -49 19q-26 6 -60 6q-64 0 -104 -29q-39 -28 -76 -112q-25 -60 -53 -155q-32 -110 -52 -204q-24 -115 -38 -208q-15 -102 -15 -164q0 -94 31 -137q30 -42 119 -42zM815 1520q-78 0 -132 54t-54 130q0 78 54 132
t130 54q78 0 132 -54t54 -130q0 -78 -54 -132t-130 -54z" />
    <glyph glyph-name="cdotaccent" unicode="&#x10b;" horiz-adv-x="876" 
d="M461 -25q-197 0 -300 105q-104 106 -104 309q0 72 14 154q13 75 38 154t58 140q35 66 73 111q62 71 157 103q96 32 213 32q86 0 172 -23q91 -24 150 -73l-51 -242h-219v142q-23 6 -52 6q-36 0 -66 -21t-52 -79q-21 -58 -35 -106q-19 -66 -29 -113q-12 -58 -18 -110
q-7 -63 -7 -99q0 -71 25 -108q24 -36 86 -36q52 0 106 11q63 13 105 32l55 -192q-61 -43 -142 -69q-89 -28 -177 -28zM625 1145q-39 0 -74 15t-61 41q-22 22 -39 61q-15 34 -15 73t15 75q16 38 39 61q26 26 60 41q37 16 73 16t73 -16q35 -15 61 -41q25 -25 40 -60
q14 -32 14 -74q0 -43 -14 -75q-16 -37 -40 -61q-26 -26 -60 -41q-35 -15 -72 -15z" />
    <glyph glyph-name="Ccaron" unicode="&#x10c;" horiz-adv-x="1079" 
d="M580 188q29 0 53 3q22 3 59 14l92 201h224l-76 -359q-40 -22 -89 -36q-42 -12 -100 -22q-59 -10 -101 -13q-50 -3 -93 -3q-109 0 -199 29q-87 28 -150 88t-96 153q-32 90 -32 220q0 100 18 217q17 112 50 226q30 104 76 204q42 91 97 154q89 99 206 145q115 45 257 45
q130 0 228 -29q94 -28 167 -75l-67 -326h-227v190q-25 13 -49 19q-26 6 -60 6q-64 0 -104 -29q-39 -28 -76 -112q-25 -60 -53 -155q-32 -110 -52 -204q-24 -115 -38 -208q-15 -102 -15 -164q0 -94 31 -137q30 -42 119 -42zM481 1802l113 135l209 -151l272 151l82 -135
l-303 -276h-168z" />
    <glyph glyph-name="ccaron" unicode="&#x10d;" horiz-adv-x="876" 
d="M461 -25q-197 0 -300 105q-104 106 -104 309q0 72 14 154q13 75 38 154t58 140q35 66 73 111q62 71 157 103q96 32 213 32q86 0 172 -23q91 -24 150 -73l-51 -242h-219v142q-23 6 -52 6q-36 0 -66 -21t-52 -79q-21 -58 -35 -106q-19 -66 -29 -113q-12 -58 -18 -110
q-7 -63 -7 -99q0 -71 25 -108q24 -36 86 -36q52 0 106 11q63 13 105 32l55 -192q-61 -43 -142 -69q-89 -28 -177 -28zM299 1436l113 135l209 -152l272 152l82 -135l-303 -277h-168z" />
    <glyph glyph-name="Dcaron" unicode="&#x10e;" horiz-adv-x="1329" 
d="M698 1214l-215 -1001h82q62 0 102 11q45 12 76 38q35 29 58 70q26 47 47 106t37 116q22 79 34 140q15 73 24 149q9 75 9 140q0 113 -37 172t-143 59h-74zM-61 0l36 170l142 35l215 999l-127 35l39 188h616q211 0 334 -113q125 -114 125 -360q0 -68 -10 -144
q-11 -80 -27 -162t-39 -162t-49 -140q-44 -107 -104 -171q-61 -65 -137 -105q-79 -41 -162 -55q-89 -15 -185 -15h-667zM504 1782l112 135l209 -152l273 152l82 -135l-303 -277h-168z" />
    <glyph glyph-name="dcaron" unicode="&#x10f;" horiz-adv-x="1132" 
d="M469 219q30 0 69 17q41 18 56 32l111 531q-9 11 -38 28q-25 15 -61 15q-37 0 -63 -16q-24 -15 -45 -62q-12 -27 -32 -96q-14 -47 -32 -129q-9 -42 -24 -130q-11 -66 -11 -100q0 -49 19 -70q18 -20 51 -20zM803 1260l-88 36l45 209h428l-234 -1110q-22 -98 -22 -129
q0 -51 57 -51h49v-184q-69 -36 -127 -47t-104 -11q-71 0 -127 41q-54 40 -59 111q-61 -64 -148 -109q-83 -43 -162 -43q-116 0 -185 78t-69 244q0 83 14 186q14 101 40 193q27 96 67 175q40 80 96 136q53 53 120 76q65 22 138 22q68 0 119 -26q54 -28 94 -74zM1188 1122
l82 383h307l-180 -383h-209z" />
    <glyph glyph-name="Dcroat" unicode="&#x110;" horiz-adv-x="1329" 
d="M123 827h127l82 377l-127 35l39 188h616q211 0 334 -113q125 -114 125 -360q0 -64 -9 -144q-8 -74 -26 -162q-17 -87 -40 -162q-25 -84 -50 -140q-45 -105 -103 -172t-129 -106q-70 -39 -155 -54q-78 -14 -180 -14h-688l36 170l142 35l88 407h-127zM698 1214l-84 -387
h152l-45 -215h-152l-86 -399h82q62 0 102 11q45 12 76 38q35 29 58 70q26 47 47 106t37 116q22 79 34 140q15 73 24 149q9 75 9 140q0 113 -37 172t-143 59h-74z" />
    <glyph glyph-name="dcroat" unicode="&#x111;" horiz-adv-x="1132" 
d="M559 1282h248l10 51l-88 37l31 135h428l-47 -223h114l-30 -147h-115l-156 -740q-22 -98 -22 -129q0 -51 57 -51h49v-184q-69 -36 -127 -47t-104 -11q-71 0 -127 41q-54 40 -59 111q-61 -64 -148 -109q-83 -43 -162 -43q-116 0 -185 78t-69 244q0 83 14 186q14 101 40 193
q27 96 67 175q40 80 96 136q53 53 120 76q65 22 138 22q68 0 119 -26q54 -28 94 -74l31 152h-248zM469 219q30 0 69 17q41 18 56 32l111 531q-9 11 -38 28q-25 15 -61 15q-37 0 -63 -16q-24 -15 -45 -62q-12 -27 -32 -96q-14 -47 -32 -129q-9 -42 -24 -130q-11 -66 -11 -100
q0 -49 19 -70q18 -20 51 -20z" />
    <glyph glyph-name="Emacron" unicode="&#x112;" horiz-adv-x="1087" 
d="M905 516h-168l-10 109h-156l-88 -410h224l92 203h227l-86 -418h-1001l36 170l142 35l215 999l-127 35l39 188h966l-88 -403h-219v188h-207l-78 -374h154l51 102h168zM522 1778h570l-52 -244h-569z" />
    <glyph glyph-name="emacron" unicode="&#x113;" horiz-adv-x="960" 
d="M479 -27q-209 0 -315 117q-107 118 -107 313q0 170 53 305q54 136 134 224q67 76 164 114q95 37 217 37q160 0 254 -73t94 -224q0 -112 -39 -183q-39 -70 -114 -109t-184 -54q-102 -14 -251 -14v-12q0 -94 37 -144q38 -51 129 -51q68 0 123 19q56 19 119 55l69 -193
q-56 -61 -161 -94q-103 -33 -222 -33zM477 780q-14 -26 -37 -73q-17 -35 -34 -103q71 4 121 12q48 7 83 28q32 19 47 53q15 35 15 87q0 88 -64 88q-80 0 -131 -92zM389 1468h569l-51 -247h-569z" />
    <glyph glyph-name="Ebreve" unicode="&#x114;" horiz-adv-x="1087" 
d="M905 516h-168l-10 109h-156l-88 -410h224l92 203h227l-86 -418h-1001l36 170l142 35l215 999l-127 35l39 188h966l-88 -403h-219v188h-207l-78 -374h154l51 102h168zM754 1507q-84 0 -144 30q-58 29 -97 77q-37 46 -55 103t-18 112l224 43q11 -55 35 -83q25 -30 81 -30
t83 30q28 31 50 83l220 -51q-11 -56 -40 -112q-28 -54 -77 -101q-47 -46 -114 -73q-68 -28 -148 -28z" />
    <glyph glyph-name="ebreve" unicode="&#x115;" horiz-adv-x="960" 
d="M479 -27q-209 0 -315 117q-107 118 -107 313q0 170 53 305q54 136 134 224q67 76 164 114q95 37 217 37q160 0 254 -73t94 -224q0 -112 -39 -183q-39 -70 -114 -109t-184 -54q-102 -14 -251 -14v-12q0 -94 37 -144q38 -51 129 -51q68 0 123 19q56 19 119 55l69 -193
q-56 -61 -161 -94q-103 -33 -222 -33zM477 780q-14 -26 -37 -73q-17 -35 -34 -103q71 4 121 12q48 7 83 28q32 19 47 53q15 35 15 87q0 88 -64 88q-80 0 -131 -92zM635 1165q-83 0 -143 30t-98 77q-37 46 -55 103q-17 54 -17 112l223 43q11 -53 36 -83t81 -30q55 0 82 30
q29 33 51 83l219 -51q-11 -56 -40 -112q-28 -54 -77 -101q-47 -46 -114 -73q-68 -28 -148 -28z" />
    <glyph glyph-name="Edotaccent" unicode="&#x116;" horiz-adv-x="1087" 
d="M905 516h-168l-10 109h-156l-88 -410h224l92 203h227l-86 -418h-1001l36 170l142 35l215 999l-127 35l39 188h966l-88 -403h-219v188h-207l-78 -374h154l51 102h168zM768 1499q-78 0 -132 54t-54 130q0 79 54 133t130 54q78 0 132 -54t54 -130q0 -79 -54 -133t-130 -54z
" />
    <glyph glyph-name="edotaccent" unicode="&#x117;" horiz-adv-x="960" 
d="M479 -27q-209 0 -315 117q-107 118 -107 313q0 170 53 305q54 136 134 224q67 76 164 114q95 37 217 37q160 0 254 -73t94 -224q0 -112 -39 -183q-39 -70 -114 -109t-184 -54q-102 -14 -251 -14v-12q0 -94 37 -144q38 -51 129 -51q68 0 123 19q56 19 119 55l69 -193
q-56 -61 -161 -94q-103 -33 -222 -33zM477 780q-14 -26 -37 -73q-17 -35 -34 -103q71 4 121 12q48 7 83 28q32 19 47 53q15 35 15 87q0 88 -64 88q-80 0 -131 -92zM645 1145q-39 0 -74 15q-34 15 -60 41q-24 24 -40 61q-14 32 -14 73t14 75q15 36 40 61q27 27 59 41
q37 16 73 16q37 0 74 -16q34 -15 60 -41q25 -25 40 -60q14 -32 14 -74q0 -43 -14 -75q-16 -37 -40 -61q-27 -27 -59 -41q-34 -15 -73 -15z" />
    <glyph glyph-name="Eogonek" unicode="&#x118;" horiz-adv-x="1087" 
d="M692 -463q-122 0 -175 56q-54 57 -54 151q0 81 46 146q48 68 134 110h-704l36 170l142 35l215 999l-127 35l39 188h966l-88 -403h-219v188h-207l-78 -374h154l51 102h168l-86 -424h-168l-10 109h-156l-88 -410h224l92 203h227l-86 -418h-94q-73 -53 -115 -97
q-45 -48 -45 -91q0 -66 76 -66q30 0 59 8q20 6 49 19l37 -164q-33 -23 -86 -48q-51 -24 -129 -24z" />
    <glyph glyph-name="eogonek" unicode="&#x119;" horiz-adv-x="960" 
d="M549 -463q-122 0 -175 56q-55 58 -55 151q0 67 39 130q38 61 105 99h-10q-180 0 -288 114t-108 316q0 170 53 305q54 136 134 224q67 76 164 114q95 37 217 37q160 0 254 -73t94 -224q0 -112 -39 -183q-39 -70 -114 -109t-184 -54q-102 -14 -251 -14v-12q0 -94 37 -144
q38 -51 129 -51q68 0 123 19q56 19 119 55l69 -193q-45 -30 -109 -70q-58 -36 -103 -73q-50 -40 -77 -74q-30 -38 -30 -71q0 -66 75 -66q31 0 60 8q20 6 49 19l37 -164q-33 -23 -86 -48q-51 -24 -129 -24zM477 780q-14 -26 -37 -73q-17 -35 -34 -103q71 4 121 12q48 7 83 28
q32 19 47 53q15 35 15 87q0 88 -64 88q-80 0 -131 -92z" />
    <glyph glyph-name="Ecaron" unicode="&#x11a;" horiz-adv-x="1087" 
d="M905 516h-168l-10 109h-156l-88 -410h224l92 203h227l-86 -418h-1001l36 170l142 35l215 999l-127 35l39 188h966l-88 -403h-219v188h-207l-78 -374h154l51 102h168zM455 1782l112 135l209 -152l273 152l81 -135l-303 -277h-168z" />
    <glyph glyph-name="ecaron" unicode="&#x11b;" horiz-adv-x="960" 
d="M479 -27q-209 0 -315 117q-107 118 -107 313q0 170 53 305q54 136 134 224q67 76 164 114q95 37 217 37q160 0 254 -73t94 -224q0 -112 -39 -183q-39 -70 -114 -109t-184 -54q-102 -14 -251 -14v-12q0 -94 37 -144q38 -51 129 -51q68 0 123 19q56 19 119 55l69 -193
q-56 -61 -161 -94q-103 -33 -222 -33zM477 780q-14 -26 -37 -73q-17 -35 -34 -103q71 4 121 12q48 7 83 28q32 19 47 53q15 35 15 87q0 88 -64 88q-80 0 -131 -92zM330 1436l112 135l209 -152l273 152l82 -135l-304 -277h-167z" />
    <glyph glyph-name="Gcircumflex" unicode="&#x11c;" horiz-adv-x="1171" 
d="M72 463q0 100 18 217q17 112 50 226q30 104 76 204q42 91 97 154q89 99 206 145q115 45 257 45q130 0 228 -29q94 -28 167 -75l-63 -306h-231v168q-24 13 -47 20q-22 7 -58 7t-60 -7q-25 -7 -46 -24q-22 -17 -39 -43q-22 -33 -37 -67q-26 -56 -54 -154q-32 -115 -52 -201
q-22 -95 -38 -201q-14 -91 -14 -153q0 -99 34 -139q35 -41 107 -41q46 0 80 11q38 12 56 24l61 299l-131 30l43 191h461l-164 -764h-199l-24 104q-50 -61 -124 -97q-71 -34 -165 -34q-192 0 -294 117q-101 116 -101 373zM469 1618l303 276h168l205 -276l-113 -135l-209 151
l-272 -151z" />
    <glyph glyph-name="gcircumflex" unicode="&#x11d;" horiz-adv-x="1083" 
d="M475 246q33 0 69 16q38 17 56 33l113 504q-9 11 -41 28q-28 15 -64 15q-38 0 -64 -18q-25 -18 -46 -64q-14 -32 -31 -91t-30 -118q-12 -54 -22 -120q-9 -58 -9 -95q0 -52 18 -71t51 -19zM563 92q-56 -44 -114 -67q-62 -25 -132 -25q-116 0 -185 78t-69 244q0 80 13 182
q12 94 39 183q30 98 66 166q42 79 95 132t120 76q65 22 139 22q79 0 138 -31q60 -32 101 -89l49 94h275l-240 -1120q-39 -180 -142 -262q-104 -83 -288 -83q-118 0 -234 29q-110 28 -190 76l74 215q67 -34 145 -57q72 -21 150 -21q70 0 106 31q34 30 51 98zM377 1272
l303 276h168l205 -276l-113 -135l-209 151l-272 -151z" />
    <glyph glyph-name="Gbreve" unicode="&#x11e;" horiz-adv-x="1171" 
d="M72 463q0 100 18 217q17 112 50 226q30 104 76 204q42 91 97 154q89 99 206 145q115 45 257 45q130 0 228 -29q94 -28 167 -75l-63 -306h-231v168q-24 13 -47 20q-22 7 -58 7t-60 -7q-25 -7 -46 -24q-22 -17 -39 -43q-22 -33 -37 -67q-26 -56 -54 -154q-32 -115 -52 -201
q-22 -95 -38 -201q-14 -91 -14 -153q0 -99 34 -139q35 -41 107 -41q46 0 80 11q38 12 56 24l61 299l-131 30l43 191h461l-164 -764h-199l-24 104q-50 -61 -124 -97q-71 -34 -165 -34q-192 0 -294 117q-101 116 -101 373zM774 1507q-83 0 -143 30q-58 29 -97 77t-56 103
q-17 54 -17 112l223 43q11 -53 36 -83q26 -30 81 -30q56 0 83 30q28 31 50 83l219 -51q-11 -56 -40 -112q-28 -54 -77 -101q-48 -46 -113 -73q-68 -28 -149 -28z" />
    <glyph glyph-name="gbreve" unicode="&#x11f;" horiz-adv-x="1083" 
d="M475 246q33 0 69 16q38 17 56 33l113 504q-9 11 -41 28q-28 15 -64 15q-38 0 -64 -18q-25 -18 -46 -64q-14 -32 -31 -91t-30 -118q-12 -54 -22 -120q-9 -58 -9 -95q0 -52 18 -71t51 -19zM563 92q-56 -44 -114 -67q-62 -25 -132 -25q-116 0 -185 78t-69 244q0 80 13 182
q12 94 39 183q30 98 66 166q42 79 95 132t120 76q65 22 139 22q79 0 138 -31q60 -32 101 -89l49 94h275l-240 -1120q-39 -180 -142 -262q-104 -83 -288 -83q-118 0 -234 29q-110 28 -190 76l74 215q67 -34 145 -57q72 -21 150 -21q70 0 106 31q34 30 51 98zM684 1165
q-83 0 -143 30t-98 77q-37 46 -55 103q-17 54 -17 112l223 43q11 -53 36 -83q26 -30 81 -30q56 0 83 30q28 31 50 83l219 -51q-11 -56 -40 -112q-28 -54 -77 -101q-48 -46 -113 -73q-68 -28 -149 -28z" />
    <glyph glyph-name="Gdotaccent" unicode="&#x120;" horiz-adv-x="1171" 
d="M72 463q0 100 18 217q17 112 50 226q30 104 76 204q42 91 97 154q89 99 206 145q115 45 257 45q130 0 228 -29q94 -28 167 -75l-63 -306h-231v168q-24 13 -47 20q-22 7 -58 7t-60 -7q-25 -7 -46 -24q-22 -17 -39 -43q-22 -33 -37 -67q-26 -56 -54 -154q-32 -115 -52 -201
q-22 -95 -38 -201q-14 -91 -14 -153q0 -99 34 -139q35 -41 107 -41q46 0 80 11q38 12 56 24l61 299l-131 30l43 191h461l-164 -764h-199l-24 104q-50 -61 -124 -97q-71 -34 -165 -34q-192 0 -294 117q-101 116 -101 373zM809 1520q-78 0 -132 54t-54 130q0 78 54 132t130 54
q78 0 132 -54t54 -130q0 -78 -54 -132t-130 -54z" />
    <glyph glyph-name="gdotaccent" unicode="&#x121;" horiz-adv-x="1083" 
d="M475 246q33 0 69 16q38 17 56 33l113 504q-9 11 -41 28q-28 15 -64 15q-38 0 -64 -18q-25 -18 -46 -64q-14 -32 -31 -91t-30 -118q-12 -54 -22 -120q-9 -58 -9 -95q0 -52 18 -71t51 -19zM563 92q-56 -44 -114 -67q-62 -25 -132 -25q-116 0 -185 78t-69 244q0 80 13 182
q12 94 39 183q30 98 66 166q42 79 95 132t120 76q65 22 139 22q79 0 138 -31q60 -32 101 -89l49 94h275l-240 -1120q-39 -180 -142 -262q-104 -83 -288 -83q-118 0 -234 29q-110 28 -190 76l74 215q67 -34 145 -57q72 -21 150 -21q70 0 106 31q34 30 51 98zM694 1145
q-38 0 -73 15t-61 41q-24 24 -40 61q-14 32 -14 73t14 75q15 36 40 61q26 26 60 41q37 16 72 16q37 0 74 -16q34 -15 60 -41q25 -25 40 -60t15 -74q0 -41 -15 -75q-16 -37 -40 -61q-27 -27 -59 -41q-34 -15 -73 -15z" />
    <glyph glyph-name="Gcommaaccent" unicode="&#x122;" horiz-adv-x="1171" 
d="M72 463q0 100 18 217q17 112 50 226q30 104 76 204q42 91 97 154q89 99 206 145q115 45 257 45q130 0 228 -29q94 -28 167 -75l-63 -306h-231v168q-24 13 -47 20q-22 7 -58 7t-60 -7q-25 -7 -46 -24q-22 -17 -39 -43q-22 -33 -37 -67q-26 -56 -54 -154q-32 -115 -52 -201
q-22 -95 -38 -201q-14 -91 -14 -153q0 -99 34 -139q35 -41 107 -41q46 0 80 11q38 12 56 24l61 299l-131 30l43 191h461l-164 -764h-199l-24 104q-50 -61 -124 -97q-71 -34 -165 -34q-192 0 -294 117q-101 116 -101 373zM207 -459q56 7 104 26t64 52q-57 8 -92 50
q-35 43 -35 95q0 35 13 62q14 30 37 50q26 23 55 34q32 12 67 12q73 0 126 -47q52 -46 52 -139q0 -77 -32 -132q-30 -52 -85 -91q-52 -37 -123 -57q-65 -18 -145 -23z" />
    <glyph glyph-name="gcommaaccent" unicode="&#x123;" horiz-adv-x="1083" 
d="M475 246q33 0 69 16q38 17 56 33l113 504q-9 11 -41 28q-28 15 -64 15q-38 0 -64 -18q-25 -18 -46 -64q-14 -32 -31 -91t-30 -118q-12 -54 -22 -120q-9 -58 -9 -95q0 -52 18 -71t51 -19zM563 92q-56 -44 -114 -67q-62 -25 -132 -25q-116 0 -185 78t-69 244q0 80 13 182
q12 94 39 183q30 98 66 166q42 79 95 132t120 76q65 22 139 22q79 0 138 -31q60 -32 101 -89l49 94h275l-240 -1120q-39 -180 -142 -262q-104 -83 -288 -83q-118 0 -234 29q-110 28 -190 76l74 215q67 -34 145 -57q72 -21 150 -21q70 0 106 31q34 30 51 98zM920 1516
q-57 -8 -105 -26q-47 -18 -63 -52q57 -8 92 -50q35 -43 35 -96q0 -31 -14 -61t-37 -50q-26 -23 -55 -34q-31 -12 -66 -12q-73 0 -126 47t-53 139q0 75 32 131q30 53 85 92q52 37 123 57q65 18 145 23z" />
    <glyph glyph-name="Hcircumflex" unicode="&#x124;" horiz-adv-x="1462" 
d="M698 170l142 35l86 405h-359l-86 -405l131 -35l-37 -170h-636l36 170l142 35l215 999l-127 35l39 188h639l-39 -188l-148 -35l-80 -373h359l80 373l-127 35l39 188h639l-39 -188l-148 -35l-215 -999l131 -35l-37 -170h-636zM621 1618l303 276h168l204 -276l-112 -135
l-209 151l-273 -151z" />
    <glyph glyph-name="hcircumflex" unicode="&#x125;" horiz-adv-x="1116" 
d="M688 707q1 5 3 17q1 6 1 21q0 38 -17 52t-44 14q-32 0 -58 -10q-24 -9 -63 -39l-162 -762h-332l267 1260l-88 36l45 209h428l-115 -542q52 52 113 87q57 33 153 33q104 0 161 -63q56 -62 56 -180q0 -60 -12 -115l-70 -330q-22 -98 -22 -129q0 -51 57 -51h49v-184
q-69 -36 -127 -47t-104 -11q-110 0 -165 50q-54 49 -54 135q0 33 5 75q3 22 13 74zM188 1696l304 276h167l205 -276l-112 -135l-209 151l-273 -151z" />
    <glyph glyph-name="Hbar" unicode="&#x126;" horiz-adv-x="1462" 
d="M178 1104h131l23 100l-127 35l39 188h639l-39 -188l-148 -35l-22 -100h358l23 100l-127 35l39 188h639l-39 -188l-148 -35l-22 -100h145l-35 -166h-145l-158 -733l131 -35l-37 -170h-636l36 170l142 35l78 362h-359l-78 -362l131 -35l-37 -170h-636l36 170l142 35
l157 733h-131zM967 788l30 150h-358l-31 -150h359z" />
    <glyph glyph-name="hbar" unicode="&#x127;" horiz-adv-x="1116" 
d="M190 1282h97l12 51l-88 37l29 135h428l-47 -223h266l-31 -147h-266l-37 -172q52 52 113 87q57 33 153 33q104 0 161 -63q56 -62 56 -180q0 -60 -12 -115l-70 -330q-22 -98 -22 -129q0 -51 57 -51h49v-184q-69 -36 -127 -47t-104 -11q-110 0 -165 50q-54 49 -54 135
q0 33 5 75q3 22 13 74l82 400q1 5 3 17q1 6 1 21q0 38 -17 52t-44 14q-32 0 -58 -10q-24 -9 -63 -39l-162 -762h-332l240 1135h-96z" />
    <glyph glyph-name="Itilde" unicode="&#x128;" horiz-adv-x="739" 
d="M-25 170l142 35l215 999l-127 35l39 188h639l-39 -188l-148 -35l-215 -999l131 -35l-37 -170h-636zM219 1632q113 230 273 230q47 0 80 -11q40 -13 57 -23q16 -9 46 -24q20 -10 48 -10q27 0 51 22q19 18 49 56l160 -115q-112 -229 -270 -229q-51 0 -82 10q-35 11 -58 24
l-46 23q-20 10 -48 10q-29 0 -51 -21q-19 -18 -49 -56z" />
    <glyph glyph-name="itilde" unicode="&#x129;" horiz-adv-x="608" 
d="M182 811l-88 37l45 209h428l-143 -662q-23 -103 -23 -129q0 -51 58 -51h49v-184q-69 -36 -127 -47t-105 -11q-109 0 -164 50t-55 135q0 33 5 75q1 10 14 74zM57 1274q112 229 273 229q51 0 81 -10q33 -11 56 -24q7 -4 15 -8l17 -8.5t14 -6.5q20 -10 48 -10q29 0 51 21
q23 21 50 56l159 -114q-113 -230 -270 -230q-47 0 -82 11q-37 12 -57 23q-16 9 -46 24q-20 10 -49 10q-27 0 -51 -22q-19 -18 -49 -56z" />
    <glyph glyph-name="Imacron" unicode="&#x12a;" horiz-adv-x="739" 
d="M-25 170l142 35l215 999l-127 35l39 188h639l-39 -188l-148 -35l-215 -999l131 -35l-37 -170h-636zM354 1778h570l-52 -244h-569z" />
    <glyph glyph-name="imacron" unicode="&#x12b;" horiz-adv-x="608" 
d="M180 1468h555l-51 -247h-555zM182 811l-88 37l45 209h428l-143 -662q-23 -103 -23 -129q0 -51 58 -51h49v-184q-69 -36 -127 -47t-105 -11q-109 0 -164 50t-55 135q0 33 5 75q1 10 14 74z" />
    <glyph glyph-name="Ibreve" unicode="&#x12c;" horiz-adv-x="739" 
d="M-25 170l142 35l215 999l-127 35l39 188h639l-39 -188l-148 -35l-215 -999l131 -35l-37 -170h-636zM586 1507q-84 0 -144 30q-58 29 -97 77q-37 46 -55 103t-18 112l224 43q11 -55 35 -83q25 -30 81 -30t83 30q28 31 50 83l220 -51q-11 -56 -40 -112q-28 -54 -77 -101
q-47 -46 -114 -73q-68 -28 -148 -28z" />
    <glyph glyph-name="ibreve" unicode="&#x12d;" horiz-adv-x="608" 
d="M182 811l-88 37l45 209h428l-143 -662q-23 -103 -23 -129q0 -51 58 -51h49v-184q-69 -36 -127 -47t-105 -11q-109 0 -164 50t-55 135q0 33 5 75q1 10 14 74zM410 1165q-84 0 -144 30q-58 29 -97 77q-37 46 -55 103t-18 112l223 43q11 -53 36 -83t81 -30t83 30
q28 31 50 83l219 -51q-11 -59 -39 -112q-28 -54 -77 -101q-47 -46 -114 -73q-68 -28 -148 -28z" />
    <glyph glyph-name="Iogonek" unicode="&#x12e;" horiz-adv-x="739" 
d="M-25 170l142 35l215 999l-127 35l39 188h639l-39 -188l-148 -35l-215 -999l131 -35l-37 -170h-202q-73 -53 -115 -97q-45 -48 -45 -91q0 -66 76 -66q30 0 59 8q20 6 49 19l37 -164q-33 -23 -86 -48q-51 -24 -129 -24q-122 0 -175 56q-54 57 -54 151q0 81 46 146
q48 68 134 110h-231z" />
    <glyph glyph-name="iogonek" unicode="&#x12f;" horiz-adv-x="608" 
d="M457 1145q-39 0 -74 15q-34 15 -60 41q-24 24 -40 61q-15 34 -15 73t15 75t40 61q27 27 59 41q37 16 73 16t73 -16q35 -15 61 -41q25 -25 40 -60q14 -32 14 -74q0 -43 -14 -75q-16 -37 -40 -61q-26 -26 -60 -41q-35 -15 -72 -15zM199 -12q-73 17 -107 61q-35 46 -35 109
q0 33 5 75q1 10 14 74l106 504l-88 37l45 209h428l-143 -662q-23 -103 -23 -129q0 -51 58 -51h49v-184q-115 -40 -179 -101q-63 -60 -63 -118q0 -66 76 -66q30 0 59 8q23 6 50 19l36 -164q-33 -23 -86 -48q-51 -24 -129 -24q-122 0 -175 56q-54 57 -54 151q0 75 40 137
q42 65 116 107z" />
    <glyph glyph-name="Idotaccent" unicode="&#x130;" horiz-adv-x="739" 
d="M-25 170l142 35l215 999l-127 35l39 188h639l-39 -188l-148 -35l-215 -999l131 -35l-37 -170h-636zM600 1499q-78 0 -132 54t-54 130q0 79 54 133t130 54q78 0 132 -54t54 -130q0 -79 -54 -133t-130 -54z" />
    <glyph glyph-name="dotlessi" unicode="&#x131;" horiz-adv-x="608" 
d="M182 811l-88 37l45 209h428l-143 -662q-23 -103 -23 -129q0 -51 58 -51h49v-184q-69 -36 -127 -47t-105 -11q-109 0 -164 50t-55 135q0 33 5 75q1 10 14 74z" />
    <glyph glyph-name="IJ" unicode="&#x132;" horiz-adv-x="1478" 
d="M-25 170l142 35l215 999l-127 35l39 188h639l-39 -188l-148 -35l-215 -999l131 -35l-37 -170h-636zM1208 145q-27 -120 -76 -207q-48 -84 -123 -150q-68 -59 -165 -104q-95 -43 -201 -73l-53 182q54 27 103 63q45 34 70 71q30 45 46 92q19 57 35 126l227 1059l-127 35
l39 188h639l-39 -188l-147 -35z" />
    <glyph glyph-name="ij" unicode="&#x133;" horiz-adv-x="1161" 
d="M457 1145q-39 0 -74 15q-34 15 -60 41q-24 24 -40 61q-15 34 -15 73t15 75t40 61q27 27 59 41q37 16 73 16t73 -16q35 -15 61 -41q25 -25 40 -60q14 -32 14 -74q0 -43 -14 -75q-16 -37 -40 -61q-26 -26 -60 -41q-35 -15 -72 -15zM182 811l-88 37l45 209h428l-143 -662
q-23 -103 -23 -129q0 -51 58 -51h49v-184q-69 -36 -127 -47t-105 -11q-109 0 -164 50t-55 135q0 33 5 75q1 10 14 74zM678 848l45 209h428l-227 -1065q-22 -105 -57 -171q-36 -68 -89 -110q-54 -42 -134 -71q-93 -33 -189 -58l-41 185q37 18 66 38q28 20 51 49t37 65
q17 42 28 91l170 801zM1040 1145q-38 0 -73 15t-61 41q-24 24 -40 61q-14 32 -14 73t14 75q15 36 40 61q26 26 60 41q37 16 72 16q37 0 74 -16q34 -15 60 -41q25 -25 40 -60t15 -74q0 -41 -15 -75q-16 -37 -40 -61q-27 -27 -59 -41q-35 -15 -73 -15z" />
    <glyph glyph-name="Jcircumflex" unicode="&#x134;" horiz-adv-x="739" 
d="M469 145q-26 -118 -77 -207q-48 -84 -123 -150q-68 -59 -165 -104q-96 -44 -200 -73l-54 182q57 28 104 63q45 34 70 71q30 45 46 92q17 48 34 126l228 1059l-127 35l39 188h639l-39 -188l-148 -35zM246 1618l303 276h168l205 -276l-113 -135l-209 151l-272 -151z" />
    <glyph glyph-name="jcircumflex" unicode="&#x135;" horiz-adv-x="593" 
d="M111 848l45 209h428l-228 -1065q-23 -108 -56 -171q-36 -68 -89 -110q-54 -42 -134 -71q-91 -32 -190 -58l-41 185q40 19 67 38q28 20 51 49t37 65q17 42 28 91l170 801zM96 1272l303 276h168l205 -276l-113 -135l-208 151l-273 -151z" />
    <glyph glyph-name="Kcommaaccent" unicode="&#x136;" horiz-adv-x="1368" 
d="M1227 0h-402l-217 709l441 510l-103 20l37 188h487l-36 -188l-121 -33l-359 -409l201 -609l107 -18zM-25 170l142 35l215 999l-127 35l39 188h639l-39 -188l-148 -35l-215 -999l131 -35l-37 -170h-636zM350 -459q57 8 105 26q47 18 63 52q-57 8 -92 50q-35 43 -35 95
q0 35 13 62q14 30 37 50q26 22 56 34q31 12 66 12q73 0 126 -47q52 -46 52 -139q0 -79 -31 -132q-30 -52 -85 -91q-52 -37 -123 -57q-64 -18 -146 -23z" />
    <glyph glyph-name="kcommaaccent" unicode="&#x137;" horiz-adv-x="1120" 
d="M348 0h-332l267 1260l-88 36l45 209h428zM1165 1057l-366 -475l80 -322q6 -25 20 -35t51 -10h74v-178q-44 -27 -101 -46q-54 -18 -108 -18q-89 0 -153 41t-87 144l-92 405l359 494h323zM201 -459q56 7 104 26t64 52q-58 8 -93 50q-34 41 -34 95q0 35 13 62q14 30 37 50
q26 23 55 34q31 12 67 12q73 0 126 -47q52 -46 52 -139q0 -77 -32 -132q-30 -52 -85 -91q-52 -37 -123 -57q-65 -18 -145 -23z" />
    <glyph glyph-name="kgreenlandic" unicode="&#x138;" horiz-adv-x="1120" 
d="M16 0l172 811l-88 37l45 209h428l-225 -1057h-332zM1165 1057l-366 -475l80 -322q6 -25 20 -35t51 -10h74v-178q-44 -27 -101 -46q-54 -18 -108 -18q-89 0 -153 41t-87 144l-92 405l359 494h323z" />
    <glyph glyph-name="Lacute" unicode="&#x139;" horiz-adv-x="1079" 
d="M485 213h224l98 240h231l-96 -453h-1003l36 170l142 35l215 999l-127 35l39 188h639l-39 -188l-148 -35zM346 1667l440 299l144 -264l-488 -215z" />
    <glyph glyph-name="lacute" unicode="&#x13a;" horiz-adv-x="595" 
d="M266 1260l-88 36l45 209h428l-239 -1110q-23 -103 -23 -129q0 -51 57 -51h50v-184q-69 -36 -127 -47t-105 -11q-110 0 -165 50q-54 49 -54 135q0 33 5 75q3 23 13 74zM248 1753l440 299l143 -264l-487 -215z" />
    <glyph glyph-name="Lcommaaccent" unicode="&#x13b;" horiz-adv-x="1079" 
d="M485 213h224l98 240h231l-96 -453h-1003l36 170l142 35l215 999l-127 35l39 188h639l-39 -188l-148 -35zM213 -459q56 7 104 26t64 52q-57 8 -92 50q-35 43 -35 95q0 35 13 62q14 30 37 50q26 23 55 34q31 12 67 12q73 0 126 -47q52 -46 52 -139q0 -77 -32 -132
q-30 -52 -85 -91q-52 -37 -122 -57q-64 -18 -146 -23z" />
    <glyph glyph-name="lcommaaccent" unicode="&#x13c;" horiz-adv-x="595" 
d="M266 1260l-88 36l45 209h428l-239 -1110q-23 -103 -23 -129q0 -51 57 -51h50v-184q-69 -36 -127 -47t-105 -11q-110 0 -165 50q-54 49 -54 135q0 33 5 75q3 23 13 74zM-29 -459q57 8 105 26q47 18 63 52q-57 8 -92 50q-35 43 -35 95q0 32 14 62q15 32 36 50q26 22 56 34
q32 12 66 12q73 0 126 -47q52 -46 52 -139q0 -79 -31 -132q-30 -52 -85 -91q-52 -37 -123 -57q-64 -18 -146 -23z" />
    <glyph glyph-name="Lcaron" unicode="&#x13d;" horiz-adv-x="1079" 
d="M485 213h224l98 240h231l-96 -453h-1003l36 170l142 35l215 999l-127 35l39 188h639l-39 -188l-148 -35zM870 1047l82 383h308l-181 -383h-209z" />
    <glyph glyph-name="lcaron" unicode="&#x13e;" horiz-adv-x="595" 
d="M266 1260l-88 36l45 209h428l-239 -1110q-23 -103 -23 -129q0 -51 57 -51h50v-184q-69 -36 -127 -47t-105 -11q-110 0 -165 50q-54 49 -54 135q0 33 5 75q3 23 13 74zM651 1122l82 383h307l-180 -383h-209z" />
    <glyph glyph-name="Ldot" unicode="&#x13f;" horiz-adv-x="1079" 
d="M485 213h224l98 240h231l-96 -453h-1003l36 170l142 35l215 999l-127 35l39 188h639l-39 -188l-148 -35zM963 631q-79 0 -133 54t-54 130q0 78 54 132t131 54q78 0 132 -54t54 -130q0 -78 -54 -132t-130 -54z" />
    <glyph glyph-name="ldot" unicode="&#x140;" horiz-adv-x="833" 
d="M266 1260l-88 36l45 209h428l-239 -1110q-23 -103 -23 -129q0 -51 57 -51h50v-184q-69 -36 -127 -47t-105 -11q-110 0 -165 50q-54 49 -54 135q0 33 5 75q3 23 13 74zM733 559q-39 0 -74 15q-34 15 -60 41q-24 24 -40 61q-14 32 -14 74q0 40 14 74q16 38 40 62
q27 27 59 41q34 15 73 15t74 -15q34 -15 60 -41q24 -24 40 -61q15 -35 15 -73q0 -42 -15 -76q-16 -37 -40 -61q-27 -27 -59 -41q-34 -15 -73 -15z" />
    <glyph glyph-name="Lslash" unicode="&#x141;" horiz-adv-x="1079" 
d="M80 651l143 49l109 504l-127 35l39 188h639l-39 -188l-148 -35l-82 -387l295 103l-45 -211l-295 -101l-84 -395h224l98 240h231l-96 -453h-1003l36 170l142 35l61 284l-143 -49z" />
    <glyph glyph-name="lslash" unicode="&#x142;" horiz-adv-x="595" 
d="M61 772l109 33l96 455l-88 36l45 209h428l-135 -622l133 39l-47 -203l-129 -39l-61 -285q-23 -103 -23 -129q0 -51 57 -51h50v-184q-69 -36 -127 -47t-105 -11q-110 0 -165 50q-54 49 -54 135q0 33 5 75q3 23 13 74l64 295l-113 -33z" />
    <glyph glyph-name="Nacute" unicode="&#x143;" horiz-adv-x="1374" 
d="M977 1239l39 188h522l-39 -188l-147 -35l-260 -1204h-256l-232 641q-34 90 -57 175q-24 86 -39 179h-4q2 -86 -15 -185q-22 -133 -32 -183l-90 -422l131 -35l-37 -170h-522l36 170l142 35l215 999l-127 35l39 188h461l184 -548q39 -116 58 -198q19 -80 26 -153h4
q9 83 19 153q13 86 40 208l68 315zM661 1667l441 299l143 -264l-487 -215z" />
    <glyph glyph-name="nacute" unicode="&#x144;" 
d="M965 395q-23 -103 -23 -129q0 -51 57 -51h50v-184q-69 -36 -127 -47t-105 -11q-110 0 -165 50q-54 49 -54 135q0 33 5 75q3 22 13 74l82 400q1 5 3 17q1 6 1 21q0 38 -17 52t-44 14q-31 0 -57 -10t-64 -39l-162 -762h-331l172 811l-88 37l45 209h352v-137q61 66 144 115
q82 48 177 48q104 0 161 -63t57 -180q0 -55 -13 -115zM406 1317l440 299l143 -264l-487 -215z" />
    <glyph glyph-name="Ncommaaccent" unicode="&#x145;" horiz-adv-x="1374" 
d="M977 1239l39 188h522l-39 -188l-147 -35l-260 -1204h-256l-232 641q-34 90 -57 175q-24 86 -39 179h-4q2 -86 -15 -185q-22 -133 -32 -183l-90 -422l131 -35l-37 -170h-522l36 170l142 35l215 999l-127 35l39 188h461l184 -548q39 -116 58 -198q19 -80 26 -153h4
q9 83 19 153q13 86 40 208l68 315zM383 -459q56 7 104 26t64 52q-57 8 -92 50q-35 43 -35 95q0 35 13 62q14 30 37 50q26 23 55 34q31 12 67 12q73 0 126 -47q52 -46 52 -139q0 -77 -32 -132q-30 -52 -85 -91q-52 -37 -122 -57q-64 -18 -146 -23z" />
    <glyph glyph-name="ncommaaccent" unicode="&#x146;" 
d="M965 395q-23 -103 -23 -129q0 -51 57 -51h50v-184q-69 -36 -127 -47t-105 -11q-110 0 -165 50q-54 49 -54 135q0 33 5 75q3 22 13 74l82 400q1 5 3 17q1 6 1 21q0 38 -17 52t-44 14q-31 0 -57 -10t-64 -39l-162 -762h-331l172 811l-88 37l45 209h352v-137q61 66 144 115
q82 48 177 48q104 0 161 -63t57 -180q0 -55 -13 -115zM240 -459q56 7 104 26t64 52q-58 8 -93 50q-34 41 -34 95q0 35 13 62q14 30 37 50q26 23 55 34q32 12 67 12q73 0 126 -47q52 -46 52 -139q0 -77 -32 -132q-30 -52 -85 -91q-52 -37 -123 -57q-65 -18 -145 -23z" />
    <glyph glyph-name="Ncaron" unicode="&#x147;" horiz-adv-x="1374" 
d="M977 1239l39 188h522l-39 -188l-147 -35l-260 -1204h-256l-232 641q-34 90 -57 175q-24 86 -39 179h-4q2 -86 -15 -185q-22 -133 -32 -183l-90 -422l131 -35l-37 -170h-522l36 170l142 35l215 999l-127 35l39 188h461l184 -548q39 -116 58 -198q19 -80 26 -153h4
q9 83 19 153q13 86 40 208l68 315zM612 1782l113 135l209 -152l272 152l82 -135l-303 -277h-168z" />
    <glyph glyph-name="ncaron" unicode="&#x148;" 
d="M965 395q-23 -103 -23 -129q0 -51 57 -51h50v-184q-69 -36 -127 -47t-105 -11q-110 0 -165 50q-54 49 -54 135q0 33 5 75q3 22 13 74l82 400q1 5 3 17q1 6 1 21q0 38 -17 52t-44 14q-31 0 -57 -10t-64 -39l-162 -762h-331l172 811l-88 37l45 209h352v-137q61 66 144 115
q82 48 177 48q104 0 161 -63t57 -180q0 -55 -13 -115zM356 1436l113 135l209 -152l272 152l82 -135l-303 -277h-168z" />
    <glyph glyph-name="napostrophe" unicode="&#x149;" horiz-adv-x="1249" 
d="M1087 395q-22 -98 -22 -129q0 -51 57 -51h49v-184q-69 -36 -127 -47t-104 -11q-110 0 -165 50q-54 49 -54 135q0 33 5 75q3 22 13 74l82 400q1 5 3 17q1 6 1 21q0 38 -17 52t-44 14q-31 0 -57 -10t-64 -39l-162 -762h-331l172 811l-89 37l46 209h352v-137q61 66 144 115
q83 48 177 48q104 0 161 -63q56 -62 56 -180q0 -60 -12 -115zM55 1167q57 8 105 26q47 18 63 52q-57 8 -92 50q-35 43 -35 96q0 31 14 61q15 32 36 50q26 22 56 34q32 12 66 12q73 0 126 -47q52 -46 52 -139q0 -79 -31 -132q-30 -52 -85 -91q-52 -37 -123 -57
q-64 -18 -146 -23z" />
    <glyph glyph-name="Eng" unicode="&#x14a;" horiz-adv-x="1374" 
d="M604 641q-35 103 -56 175q-24 82 -40 179h-4q2 -86 -15 -185q-22 -133 -32 -183l-90 -422l131 -35l-37 -170h-522l36 170l142 35l215 999l-127 35l39 188h461l184 -548q39 -116 58 -198q19 -80 26 -153h4q9 83 19 153q13 86 40 208l68 315l-127 35l39 188h522l-39 -188
l-147 -35l-230 -1059q-27 -120 -76 -207q-48 -84 -123 -150q-68 -59 -165 -104q-95 -43 -201 -73l-53 182q62 28 106 52q49 27 82 60q38 38 61 83q25 50 42 123z" />
    <glyph glyph-name="eng" unicode="&#x14b;" horiz-adv-x="1116" 
d="M883 -8q-23 -105 -57 -171q-36 -68 -89 -110q-54 -42 -134 -71q-93 -33 -189 -58l-41 185q37 18 66 38q28 20 51 49q22 28 38 65t27 91l143 697q1 5 3 17q1 6 1 21q0 38 -17 52t-44 14q-31 0 -57 -10t-64 -39l-162 -762h-331l172 811l-88 37l45 209h352v-137
q61 66 144 115q82 48 177 48q104 0 161 -63t57 -180q0 -55 -13 -115z" />
    <glyph glyph-name="Omacron" unicode="&#x14c;" horiz-adv-x="1259" 
d="M563 188q43 0 81 25q37 25 67 86q10 21 33 92q16 52 40 136q18 65 40 159q17 73 34 160q16 79 24 137q9 61 9 96q0 86 -37 123t-96 37q-58 0 -92 -26t-62 -85q-15 -28 -33 -89q-20 -65 -39 -136q-10 -37 -39 -159q-19 -82 -36 -159q-18 -82 -26 -140q-9 -63 -9 -95
q0 -88 34 -125t107 -37zM565 -27q-236 0 -364 118q-129 119 -129 374q0 114 18 234q19 124 52 230q36 115 80 201q47 93 102 152q84 91 188 131q108 41 248 41q234 0 362 -120q127 -120 127 -349q0 -113 -18 -234q-18 -123 -51 -236t-78 -211q-44 -96 -101 -159
q-79 -91 -186 -131q-109 -41 -250 -41zM582 1778h569l-51 -244h-570z" />
    <glyph glyph-name="omacron" unicode="&#x14d;" horiz-adv-x="1064" 
d="M641 532q21 101 28 146q9 60 9 104q0 95 -88 95q-22 0 -45 -13q-21 -12 -39 -50q-19 -39 -38 -107q-20 -70 -44 -185q-22 -103 -28 -144q-9 -58 -9 -104q0 -94 88 -94q22 0 45 13q21 12 39 49q20 41 38 106q21 73 44 184zM57 385q0 70 14 156q14 87 35 156q22 72 55 139
q33 66 68 104q66 72 154 108q86 35 207 35q94 0 169 -25q77 -26 132 -78q57 -54 86 -130q31 -81 31 -180q0 -71 -14 -155q-13 -80 -36 -157q-22 -75 -54 -139q-33 -65 -68 -102q-66 -72 -154 -108t-207 -36q-187 0 -302 103q-115 102 -116 309zM412 1468h569l-51 -247h-570z
" />
    <glyph glyph-name="Obreve" unicode="&#x14e;" horiz-adv-x="1259" 
d="M563 188q43 0 81 25q37 25 67 86q10 21 33 92q16 52 40 136q18 65 40 159q17 73 34 160q16 79 24 137q9 61 9 96q0 86 -37 123t-96 37q-58 0 -92 -26t-62 -85q-15 -28 -33 -89q-20 -65 -39 -136q-10 -37 -39 -159q-19 -82 -36 -159q-18 -82 -26 -140q-9 -63 -9 -95
q0 -88 34 -125t107 -37zM565 -27q-236 0 -364 118q-129 119 -129 374q0 114 18 234q19 124 52 230q36 115 80 201q47 93 102 152q84 91 188 131q108 41 248 41q234 0 362 -120q127 -120 127 -349q0 -113 -18 -234q-18 -123 -51 -236t-78 -211q-44 -96 -101 -159
q-79 -91 -186 -131q-109 -41 -250 -41zM813 1507q-83 0 -143 30t-98 77q-37 46 -55 103q-17 54 -17 112l223 43q11 -53 36 -83t81 -30t83 30q28 31 50 83l219 -51q-11 -56 -40 -112q-28 -54 -77 -101q-48 -46 -113 -73q-68 -28 -149 -28z" />
    <glyph glyph-name="obreve" unicode="&#x14f;" horiz-adv-x="1064" 
d="M641 532q21 101 28 146q9 60 9 104q0 95 -88 95q-22 0 -45 -13q-21 -12 -39 -50q-19 -39 -38 -107q-20 -70 -44 -185q-22 -103 -28 -144q-9 -58 -9 -104q0 -94 88 -94q22 0 45 13q21 12 39 49q20 41 38 106q21 73 44 184zM57 385q0 70 14 156q14 87 35 156q22 72 55 139
q33 66 68 104q66 72 154 108q86 35 207 35q94 0 169 -25q77 -26 132 -78q57 -54 86 -130q31 -81 31 -180q0 -71 -14 -155q-13 -80 -36 -157q-22 -75 -54 -139q-33 -65 -68 -102q-66 -72 -154 -108t-207 -36q-187 0 -302 103q-115 102 -116 309zM653 1165q-83 0 -143 30
q-58 29 -97 77t-56 103q-17 54 -17 112l223 43q11 -53 36 -83t81 -30t83 30q28 31 50 83l219 -51q-11 -56 -40 -112q-28 -54 -77 -101q-48 -46 -113 -73q-68 -28 -149 -28z" />
    <glyph glyph-name="Ohungarumlaut" unicode="&#x150;" horiz-adv-x="1259" 
d="M563 188q43 0 81 25q37 25 67 86q10 21 33 92q16 52 40 136q18 65 40 159q17 73 34 160q16 79 24 137q9 61 9 96q0 86 -37 123t-96 37q-58 0 -92 -26t-62 -85q-15 -28 -33 -89q-20 -65 -39 -136q-10 -37 -39 -159q-19 -82 -36 -159q-18 -82 -26 -140q-9 -63 -9 -95
q0 -88 34 -125t107 -37zM565 -27q-236 0 -364 118q-129 119 -129 374q0 114 18 234q19 124 52 230q36 115 80 201q47 93 102 152q84 91 188 131q108 41 248 41q234 0 362 -120q127 -120 127 -349q0 -113 -18 -234q-18 -123 -51 -236t-78 -211q-44 -96 -101 -159
q-79 -91 -186 -131q-109 -41 -250 -41zM895 1589l291 463l229 -151l-362 -414zM477 1589l291 463l229 -151l-362 -414z" />
    <glyph glyph-name="ohungarumlaut" unicode="&#x151;" horiz-adv-x="1064" 
d="M641 532q21 101 28 146q9 60 9 104q0 95 -88 95q-22 0 -45 -13q-21 -12 -39 -50q-19 -39 -38 -107q-20 -70 -44 -185q-22 -103 -28 -144q-9 -58 -9 -104q0 -94 88 -94q22 0 45 13q21 12 39 49q20 41 38 106q21 73 44 184zM57 385q0 70 14 156q14 87 35 156q22 72 55 139
q33 66 68 104q66 72 154 108q86 35 207 35q94 0 169 -25q77 -26 132 -78q57 -54 86 -130q31 -81 31 -180q0 -71 -14 -155q-13 -80 -36 -157q-22 -75 -54 -139q-33 -65 -68 -102q-66 -72 -154 -108t-207 -36q-187 0 -302 103q-115 102 -116 309zM702 1243l291 463l230 -152
l-363 -413zM285 1243l290 463l230 -152l-363 -413z" />
    <glyph glyph-name="OE" unicode="&#x152;" horiz-adv-x="1660" 
d="M825 1214q-62 0 -102 -11q-45 -12 -76 -38q-35 -28 -57 -69q-25 -45 -47 -107q-21 -59 -37 -116q-22 -79 -34 -140q-18 -86 -25 -148q-9 -75 -9 -141q0 -53 8 -99q8 -44 29 -73q22 -30 55 -44q34 -15 88 -15h74l215 1001h-82zM1784 1427l-88 -403h-219v188h-207l-78 -374
h154l51 102h168l-86 -424h-168l-11 109h-155l-88 -410h223l92 203h227l-86 -418h-983q-208 0 -333 114t-125 359q0 63 9 143q9 76 26 163q19 95 38 162q20 71 52 140q45 105 103 172q59 68 129 107q68 37 155 53q78 14 180 14h1020z" />
    <glyph glyph-name="oe" unicode="&#x153;" horiz-adv-x="1542" 
d="M1061 -27q-103 0 -172 27q-71 28 -117 80q-61 -50 -131 -78q-73 -29 -166 -29q-187 0 -302 103q-115 102 -116 309q0 70 14 156q13 79 36 156t54 139q33 66 68 104q66 72 154 108q86 35 207 35q193 0 289 -114q71 56 147 84q82 30 180 30q160 0 254 -73t94 -224
q0 -114 -38 -183q-39 -70 -114 -109t-184 -54q-102 -14 -251 -14v-12q0 -94 37 -144q38 -51 129 -51q67 0 122 19q56 19 119 55l70 -193q-56 -61 -161 -94q-103 -33 -222 -33zM641 532q21 101 28 146q9 60 9 104q0 95 -88 95q-22 0 -45 -13q-21 -12 -39 -50
q-19 -39 -38 -107q-20 -70 -44 -185q-22 -103 -28 -144q-9 -58 -9 -104q0 -94 88 -94q22 0 45 13q21 12 39 49q20 41 38 106q21 73 44 184zM1059 780q-14 -26 -37 -73q-19 -40 -35 -103q73 5 122 12q48 7 83 28q32 19 47 53q14 32 14 87q0 88 -63 88q-80 0 -131 -92z" />
    <glyph glyph-name="Racute" unicode="&#x154;" horiz-adv-x="1310" 
d="M672 784q52 0 93 12q39 12 60 40q13 18 26 51q11 29 25 75q11 36 17 76q6 38 6 60q0 119 -131 119h-72l-90 -433h66zM1223 172l-35 -172h-408l-55 442q-7 62 -30 105q-21 39 -93 39h-39l-82 -381l131 -35l-37 -170h-636l36 170l142 35l215 999l-127 35l39 188h569
q135 0 223 -24t139 -70q49 -45 69 -105q20 -62 20 -132q0 -186 -92 -302q-93 -117 -236 -141v-4q58 -22 98 -77q38 -53 49 -132l33 -241zM526 1667l441 299l143 -264l-487 -215z" />
    <glyph glyph-name="racute" unicode="&#x155;" horiz-adv-x="784" 
d="M508 858q66 107 139 162t182 55l-34 -340q-102 12 -167 -1q-67 -14 -122 -36l-148 -698h-331l172 811l-88 37l45 209h352v-199zM315 1317l441 299l143 -264l-487 -215z" />
    <glyph glyph-name="Rcommaaccent" unicode="&#x156;" horiz-adv-x="1310" 
d="M672 784q52 0 93 12q39 12 60 40q13 18 26 51q11 29 25 75q11 36 17 76q6 38 6 60q0 119 -131 119h-72l-90 -433h66zM1223 172l-35 -172h-408l-55 442q-7 62 -30 105q-21 39 -93 39h-39l-82 -381l131 -35l-37 -170h-636l36 170l142 35l215 999l-127 35l39 188h569
q135 0 223 -24t139 -70q49 -45 69 -105q20 -62 20 -132q0 -186 -92 -302q-93 -117 -236 -141v-4q58 -22 98 -77q38 -53 49 -132l33 -241zM307 -459q57 8 105 26q47 18 63 52q-57 8 -92 50q-35 43 -35 95q0 35 13 62q14 30 37 50q26 22 56 34q32 12 66 12q73 0 126 -47
q52 -46 52 -139q0 -79 -31 -132q-30 -52 -85 -91q-52 -37 -123 -57q-64 -18 -146 -23z" />
    <glyph glyph-name="rcommaaccent" unicode="&#x157;" horiz-adv-x="784" 
d="M508 858q66 107 139 162t182 55l-34 -340q-102 12 -167 -1q-67 -14 -122 -36l-148 -698h-331l172 811l-88 37l45 209h352v-199zM-68 -459q57 8 105 26q47 18 63 52q-57 8 -92 50q-35 43 -35 95q0 32 14 62t37 50q26 23 55 34q31 12 66 12q73 0 126 -47t53 -139
q0 -77 -32 -132q-30 -52 -85 -91q-52 -37 -123 -57q-65 -18 -145 -23z" />
    <glyph glyph-name="Rcaron" unicode="&#x158;" horiz-adv-x="1310" 
d="M672 784q52 0 93 12q39 12 60 40q13 18 26 51q11 29 25 75q11 36 17 76q6 38 6 60q0 119 -131 119h-72l-90 -433h66zM1223 172l-35 -172h-408l-55 442q-7 62 -30 105q-21 39 -93 39h-39l-82 -381l131 -35l-37 -170h-636l36 170l142 35l215 999l-127 35l39 188h569
q135 0 223 -24t139 -70q49 -45 69 -105q20 -62 20 -132q0 -186 -92 -302q-93 -117 -236 -141v-4q58 -22 98 -77q38 -53 49 -132l33 -241zM475 1782l113 135l209 -152l272 152l82 -135l-303 -277h-168z" />
    <glyph glyph-name="rcaron" unicode="&#x159;" horiz-adv-x="784" 
d="M508 858q66 107 139 162t182 55l-34 -340q-102 12 -167 -1q-67 -14 -122 -36l-148 -698h-331l172 811l-88 37l45 209h352v-199zM268 1436l113 135l209 -152l272 152l82 -135l-303 -277h-168z" />
    <glyph glyph-name="Sacute" unicode="&#x15a;" horiz-adv-x="1054" 
d="M70 426h227v-193q57 -45 147 -45q86 0 130 44t44 118q0 79 -34 126q-36 50 -125 102q-75 44 -127 90q-51 45 -83 95q-31 49 -45 107q-14 59 -14 129q0 115 39 200q38 84 107 142t157 85q92 28 191 28q110 0 221 -24t185 -74l-66 -318h-231v189q-44 12 -86 12
q-85 0 -135 -33t-50 -125q0 -32 7 -56q8 -27 28 -50q26 -30 57 -52q50 -36 97 -63q53 -31 98 -66q47 -36 84 -84q36 -46 58 -112t22 -147q0 -93 -30 -179q-31 -87 -91 -152q-62 -66 -155 -107q-92 -40 -220 -40q-175 0 -293 45t-184 111zM438 1667l441 299l143 -264
l-487 -215z" />
    <glyph glyph-name="sacute" unicode="&#x15b;" horiz-adv-x="874" 
d="M381 -27q-161 0 -254 34q-96 35 -152 75l60 235h221v-137q33 -9 49 -11q21 -3 62 -3q40 0 77 19t37 79q0 44 -22 70q-21 26 -78 47q-80 29 -135 62q-53 32 -85 70q-31 37 -45 86q-14 50 -14 112q0 94 30 163q30 70 84 116q53 45 128 70q70 23 162 23q130 0 209 -27
q75 -26 143 -61l-55 -247h-219v129q-24 9 -36 11q-15 3 -38 3q-38 0 -71 -25q-31 -24 -31 -71q0 -42 19 -70q20 -29 91 -53q63 -22 122 -54q53 -29 88 -65t53 -86t18 -115q0 -195 -113 -287t-305 -92zM305 1317l440 299l144 -264l-488 -215z" />
    <glyph glyph-name="Scircumflex" unicode="&#x15c;" horiz-adv-x="1054" 
d="M70 426h227v-193q57 -45 147 -45q86 0 130 44t44 118q0 79 -34 126q-36 50 -125 102q-75 44 -127 90q-51 45 -83 95q-31 49 -45 107q-14 59 -14 129q0 115 39 200q38 84 107 142t157 85q92 28 191 28q110 0 221 -24t185 -74l-66 -318h-231v189q-44 12 -86 12
q-85 0 -135 -33t-50 -125q0 -32 7 -56q8 -27 28 -50q26 -30 57 -52q50 -36 97 -63q53 -31 98 -66q47 -36 84 -84q36 -46 58 -112t22 -147q0 -93 -30 -179q-31 -87 -91 -152q-62 -66 -155 -107q-92 -40 -220 -40q-175 0 -293 45t-184 111zM383 1618l303 276h168l205 -276
l-113 -135l-209 151l-272 -151z" />
    <glyph glyph-name="scircumflex" unicode="&#x15d;" horiz-adv-x="874" 
d="M381 -27q-161 0 -254 34q-96 35 -152 75l60 235h221v-137q33 -9 49 -11q21 -3 62 -3q40 0 77 19t37 79q0 44 -22 70q-21 26 -78 47q-80 29 -135 62q-53 32 -85 70q-31 37 -45 86q-14 50 -14 112q0 94 30 163q30 70 84 116q53 45 128 70q70 23 162 23q130 0 209 -27
q75 -26 143 -61l-55 -247h-219v129q-24 9 -36 11q-15 3 -38 3q-38 0 -71 -25q-31 -24 -31 -71q0 -42 19 -70q20 -29 91 -53q63 -22 122 -54q53 -29 88 -65t53 -86t18 -115q0 -195 -113 -287t-305 -92zM252 1272l303 276h168l205 -276l-113 -135l-209 151l-272 -151z" />
    <glyph glyph-name="Scedilla" unicode="&#x15e;" horiz-adv-x="1054" 
d="M297 -463q-69 0 -111 13q-44 14 -73 34l65 121q17 -8 46 -17q24 -7 59 -7q44 0 61 17q18 18 18 46q0 59 -75 59q-25 0 -41 -3q-19 -3 -27 -7l125 189q-123 17 -207 55q-86 39 -137 92l70 297h227v-193q57 -45 147 -45q86 0 130 44t44 118q0 79 -34 126q-36 50 -125 102
q-75 44 -127 90q-51 45 -83 95q-31 49 -45 107q-14 59 -14 129q0 115 39 200q38 84 107 142t157 85q92 28 191 28q110 0 221 -24t185 -74l-66 -318h-231v189q-44 12 -86 12q-85 0 -135 -33t-50 -125q0 -32 7 -56q8 -27 28 -50q26 -30 57 -52q50 -36 97 -63q53 -31 98 -66
q47 -36 84 -84q36 -46 58 -112t22 -147q0 -90 -29 -175q-28 -84 -87 -150q-61 -69 -147 -108q-88 -40 -212 -45l-56 -77q48 -16 81 -55q32 -38 32 -97q0 -86 -61 -146q-63 -61 -197 -61z" />
    <glyph glyph-name="scedilla" unicode="&#x15f;" horiz-adv-x="874" 
d="M219 -463q-68 0 -110 13q-46 14 -74 34l65 121q17 -8 46 -17q24 -7 59 -7q44 0 61 17q19 19 19 46q0 59 -76 59q-25 0 -41 -3q-19 -3 -27 -7l123 187q-106 12 -174 39q-65 26 -115 63l60 235h221v-137q33 -9 49 -11q21 -3 62 -3q40 0 77 19t37 79q0 44 -22 70
q-21 26 -78 47q-80 29 -135 62q-53 32 -85 70q-31 37 -45 86q-14 50 -14 112q0 94 30 163q30 70 84 116q53 45 128 70q70 23 162 23q130 0 209 -27q75 -26 143 -61l-55 -247h-219v129q-24 9 -36 11q-15 3 -38 3q-38 0 -71 -25q-31 -24 -31 -71q0 -42 19 -70q20 -29 91 -53
q63 -22 122 -54q53 -29 88 -65t53 -86t18 -115q0 -188 -102 -278q-104 -92 -277 -99l-55 -79q47 -16 80 -55q32 -38 32 -97q0 -86 -61 -146q-63 -61 -197 -61z" />
    <glyph glyph-name="Scaron" unicode="&#x160;" horiz-adv-x="1054" 
d="M70 426h227v-193q57 -45 147 -45q86 0 130 44t44 118q0 79 -34 126q-36 50 -125 102q-75 44 -127 90q-51 45 -83 95q-31 49 -45 107q-14 59 -14 129q0 115 39 200q38 84 107 142t157 85q92 28 191 28q110 0 221 -24t185 -74l-66 -318h-231v189q-44 12 -86 12
q-85 0 -135 -33t-50 -125q0 -32 7 -56q8 -27 28 -50q26 -30 57 -52q50 -36 97 -63q53 -31 98 -66q47 -36 84 -84q36 -46 58 -112t22 -147q0 -93 -30 -179q-31 -87 -91 -152q-62 -66 -155 -107q-92 -40 -220 -40q-175 0 -293 45t-184 111zM389 1782l113 135l209 -152l272 152
l82 -135l-303 -277h-168z" />
    <glyph glyph-name="scaron" unicode="&#x161;" horiz-adv-x="874" 
d="M381 -27q-161 0 -254 34q-96 35 -152 75l60 235h221v-137q33 -9 49 -11q21 -3 62 -3q40 0 77 19t37 79q0 44 -22 70q-21 26 -78 47q-80 29 -135 62q-53 32 -85 70q-31 37 -45 86q-14 50 -14 112q0 94 30 163q30 70 84 116q53 45 128 70q70 23 162 23q130 0 209 -27
q75 -26 143 -61l-55 -247h-219v129q-24 9 -36 11q-15 3 -38 3q-38 0 -71 -25q-31 -24 -31 -71q0 -42 19 -70q20 -29 91 -53q63 -22 122 -54q53 -29 88 -65t53 -86t18 -115q0 -195 -113 -287t-305 -92zM258 1436l113 135l209 -152l272 152l82 -135l-303 -277h-168z" />
    <glyph glyph-name="Tcommaaccent" unicode="&#x162;" horiz-adv-x="1236" 
d="M420 -463q-69 0 -111 13q-44 14 -73 34l65 121q17 -8 46 -17q24 -7 59 -7q44 0 61 17q18 18 18 46q0 59 -75 59q-24 0 -41 -3q-19 -3 -27 -7l137 207h-299l37 170l164 35l215 1018h-127l-104 -256h-222l99 460h1149l-99 -460h-213v256h-118l-216 -1018l152 -35l-37 -170
h-221l-74 -104q48 -16 81 -55q32 -38 32 -97q0 -86 -62 -146q-63 -61 -196 -61z" />
    <glyph glyph-name="tcommaaccent" unicode="&#x163;" horiz-adv-x="653" 
d="M180 -463q-68 0 -110 13q-46 14 -74 34l65 121q15 -8 47 -17q24 -7 58 -7q44 0 61 17q19 19 19 46q0 59 -76 59q-24 0 -41 -3q-19 -3 -27 -7l125 189q-81 17 -125 74q-45 58 -45 159q0 58 15 121l102 489h-100l51 232h100l54 252l342 53l-66 -305h184l-51 -232h-182
l-103 -487q-8 -37 -8 -64q0 -30 28 -42q25 -11 56 -11q35 0 47 1q32 3 47 5v-192q-43 -17 -92 -33q-42 -14 -96 -22l-59 -84q48 -16 81 -55q31 -37 31 -97q0 -86 -61 -146q-63 -61 -197 -61z" />
    <glyph glyph-name="Tcaron" unicode="&#x164;" horiz-adv-x="1236" 
d="M860 0h-680l37 170l164 35l215 1018h-127l-104 -256h-222l99 460h1149l-99 -460h-213v256h-118l-216 -1018l152 -35zM532 1782l113 135l209 -152l272 152l82 -135l-303 -277h-168z" />
    <glyph glyph-name="tcaron" unicode="&#x165;" horiz-adv-x="653" 
d="M125 1057h100l54 252l342 53l-66 -305h184l-51 -232h-182l-103 -487q-8 -37 -8 -64q0 -30 28 -42q25 -11 56 -11q35 0 47 1q32 3 47 5v-192q-58 -24 -129 -44q-63 -18 -143 -18q-112 0 -178 60t-66 182q0 58 15 121l102 489h-100zM649 1149l82 383h307l-180 -383h-209z
" />
    <glyph glyph-name="Tbar" unicode="&#x166;" horiz-adv-x="1236" 
d="M303 827h209l84 396h-127l-104 -256h-222l99 460h1149l-99 -460h-213v256h-118l-84 -396h213l-43 -215h-216l-86 -407l152 -35l-37 -170h-680l37 170l164 35l86 407h-207z" />
    <glyph glyph-name="tbar" unicode="&#x167;" horiz-adv-x="653" 
d="M41 645h94l39 180h-100l51 232h100l54 252l342 53l-66 -305h184l-51 -232h-182l-39 -180h188l-43 -201h-186l-23 -106q-8 -37 -8 -64q0 -30 28 -42q25 -11 56 -11q32 0 46 1q31 2 48 5v-192q-58 -24 -129 -44q-63 -18 -143 -18q-112 0 -178 60t-66 182q0 58 15 121
l22 108h-96z" />
    <glyph glyph-name="Utilde" unicode="&#x168;" horiz-adv-x="1343" 
d="M702 1427l-215 -1019q-10 -44 -10 -76q0 -49 22 -77t72 -28q51 0 105 14q55 14 94 40l199 923l-127 35l39 188h483l-258 -1222l121 -35l-37 -170h-361l-26 111q-52 -59 -144 -99q-90 -39 -186 -39q-163 0 -251 78q-89 78 -89 252q0 43 6 91q6 45 17 102l151 708l-127 35
l39 188h483zM492 1632q113 230 272 230q48 0 81 -11q37 -12 56 -23q16 -9 46 -24q20 -10 48 -10t52 22q19 18 49 56l159 -115q-112 -229 -270 -229q-51 0 -82 10q-33 10 -57 24l-46 23q-20 10 -48 10q-30 0 -52 -21q-19 -18 -49 -56z" />
    <glyph glyph-name="utilde" unicode="&#x169;" horiz-adv-x="1095" 
d="M594 125q-66 -68 -137 -108q-77 -44 -170 -44q-108 0 -169 67t-61 185q0 42 13 107l102 479l-88 37l45 209h426l-152 -717q-1 -7 -3 -19q-1 -6 -1 -20q0 -33 17 -52q16 -18 43 -18q30 0 55 11q27 12 59 34l164 781h332l-141 -662q-23 -103 -23 -129q0 -51 58 -51h49v-184
q-69 -36 -127 -47t-105 -11q-73 0 -126 43q-54 44 -60 109zM315 1274q112 229 273 229q51 0 81 -10q33 -11 56 -24q7 -4 15 -8l17 -8.5t14 -6.5q20 -10 48 -10q29 0 51 21q23 21 50 56l159 -114q-113 -230 -270 -230q-47 0 -82 11q-37 12 -57 23q-16 9 -46 24q-20 10 -49 10
q-27 0 -51 -22q-19 -18 -49 -56z" />
    <glyph glyph-name="Umacron" unicode="&#x16a;" horiz-adv-x="1343" 
d="M702 1427l-215 -1019q-10 -44 -10 -76q0 -49 22 -77t72 -28q51 0 105 14q55 14 94 40l199 923l-127 35l39 188h483l-258 -1222l121 -35l-37 -170h-361l-26 111q-52 -59 -144 -99q-90 -39 -186 -39q-163 0 -251 78q-89 78 -89 252q0 43 6 91q6 45 17 102l151 708l-127 35
l39 188h483zM606 1778h570l-52 -244h-569z" />
    <glyph glyph-name="umacron" unicode="&#x16b;" horiz-adv-x="1095" 
d="M594 125q-66 -68 -137 -108q-77 -44 -170 -44q-108 0 -169 67t-61 185q0 42 13 107l102 479l-88 37l45 209h426l-152 -717q-1 -7 -3 -19q-1 -6 -1 -20q0 -33 17 -52q16 -18 43 -18q30 0 55 11q27 12 59 34l164 781h332l-141 -662q-23 -103 -23 -129q0 -51 58 -51h49v-184
q-69 -36 -127 -47t-105 -11q-73 0 -126 43q-54 44 -60 109zM440 1468h570l-52 -247h-569z" />
    <glyph glyph-name="Ubreve" unicode="&#x16c;" horiz-adv-x="1343" 
d="M702 1427l-215 -1019q-10 -44 -10 -76q0 -49 22 -77t72 -28q51 0 105 14q55 14 94 40l199 923l-127 35l39 188h483l-258 -1222l121 -35l-37 -170h-361l-26 111q-52 -59 -144 -99q-90 -39 -186 -39q-163 0 -251 78q-89 78 -89 252q0 43 6 91q6 45 17 102l151 708l-127 35
l39 188h483zM819 1507q-83 0 -143 30q-58 29 -97 77t-56 103q-17 54 -17 112l223 43q11 -53 36 -83t81 -30t83 30q28 31 50 83l219 -51q-11 -56 -40 -112q-28 -54 -77 -101q-48 -46 -113 -73q-68 -28 -149 -28z" />
    <glyph glyph-name="ubreve" unicode="&#x16d;" horiz-adv-x="1095" 
d="M594 125q-66 -68 -137 -108q-77 -44 -170 -44q-108 0 -169 67t-61 185q0 42 13 107l102 479l-88 37l45 209h426l-152 -717q-1 -7 -3 -19q-1 -6 -1 -20q0 -33 17 -52q16 -18 43 -18q30 0 55 11q27 12 59 34l164 781h332l-141 -662q-23 -103 -23 -129q0 -51 58 -51h49v-184
q-69 -36 -127 -47t-105 -11q-73 0 -126 43q-54 44 -60 109zM668 1165q-84 0 -144 30q-58 29 -97 77q-37 46 -55 103t-18 112l224 43q11 -55 35 -83q25 -30 81 -30t83 30q28 31 50 83l220 -51q-11 -56 -40 -112q-28 -54 -77 -101q-47 -46 -114 -73q-68 -28 -148 -28z" />
    <glyph glyph-name="Uring" unicode="&#x16e;" horiz-adv-x="1343" 
d="M702 1427l-215 -1019q-10 -44 -10 -76q0 -49 22 -77t72 -28q51 0 105 14q55 14 94 40l199 923l-127 35l39 188h483l-258 -1222l121 -35l-37 -170h-361l-26 111q-52 -59 -144 -99q-90 -39 -186 -39q-163 0 -251 78q-89 78 -89 252q0 43 6 91q6 45 17 102l151 708l-127 35
l39 188h483zM840 1470q-108 0 -168 63t-60 155q0 27 6 57q22 107 93 167q68 58 170 58t162 -61q61 -63 61 -154q0 -29 -6 -59q-23 -109 -91 -167q-70 -59 -167 -59zM846 1604q36 0 53 29q19 32 29 79l3 21q1 7 1 30q0 74 -60 74q-36 0 -55 -28t-29 -80q-1 -7 -3 -20
q-1 -8 -1 -34q0 -32 14 -52q13 -19 48 -19z" />
    <glyph glyph-name="uring" unicode="&#x16f;" horiz-adv-x="1095" 
d="M594 125q-66 -68 -137 -108q-77 -44 -170 -44q-108 0 -169 67t-61 185q0 42 13 107l102 479l-88 37l45 209h426l-152 -717q-1 -7 -3 -19q-1 -6 -1 -20q0 -33 17 -52q16 -18 43 -18q30 0 55 11q27 12 59 34l164 781h332l-141 -662q-23 -103 -23 -129q0 -51 58 -51h49v-184
q-69 -36 -127 -47t-105 -11q-73 0 -126 43q-54 44 -60 109zM690 1145q-109 0 -168 62t-59 155q0 27 6 57q23 108 92 167q70 59 170 59q103 0 163 -62q60 -61 60 -153q0 -30 -6 -60q-23 -109 -91 -167t-167 -58zM696 1278q36 0 54 30t28 78l3 21q1 7 1 31q0 73 -59 73
q-37 0 -55 -27t-29 -81q-1 -7 -3 -20q-1 -8 -1 -33q0 -34 13 -53t48 -19z" />
    <glyph glyph-name="Uhungarumlaut" unicode="&#x170;" horiz-adv-x="1343" 
d="M702 1427l-215 -1019q-10 -44 -10 -76q0 -49 22 -77t72 -28q51 0 105 14q55 14 94 40l199 923l-127 35l39 188h483l-258 -1222l121 -35l-37 -170h-361l-26 111q-52 -59 -144 -99q-90 -39 -186 -39q-163 0 -251 78q-89 78 -89 252q0 43 6 91q6 45 17 102l151 708l-127 35
l39 188h483zM899 1589l291 463l229 -151l-362 -414zM481 1589l291 463l229 -151l-362 -414z" />
    <glyph glyph-name="uhungarumlaut" unicode="&#x171;" horiz-adv-x="1095" 
d="M594 125q-66 -68 -137 -108q-77 -44 -170 -44q-108 0 -169 67t-61 185q0 42 13 107l102 479l-88 37l45 209h426l-152 -717q-1 -7 -3 -19q-1 -6 -1 -20q0 -33 17 -52q16 -18 43 -18q30 0 55 11q27 12 59 34l164 781h332l-141 -662q-23 -103 -23 -129q0 -51 58 -51h49v-184
q-69 -36 -127 -47t-105 -11q-73 0 -126 43q-54 44 -60 109zM735 1243l291 463l229 -152l-362 -413zM317 1243l291 463l230 -152l-363 -413z" />
    <glyph glyph-name="Uogonek" unicode="&#x172;" horiz-adv-x="1343" 
d="M870 -463q-122 0 -175 56q-54 57 -54 151q0 78 47 148q47 69 139 110l-24 109q-52 -59 -144 -99q-90 -39 -186 -39q-163 0 -251 78q-89 78 -89 252q0 43 6 91q6 45 17 102l151 708l-127 35l39 188h483l-215 -1019q-10 -44 -10 -76q0 -49 22 -77t72 -28q51 0 105 14
q55 14 94 40l199 923l-127 35l39 188h483l-258 -1222l121 -35l-37 -170h-166q-73 -53 -115 -97q-45 -48 -45 -91q0 -66 76 -66q30 0 59 8q23 6 50 19l36 -164q-33 -23 -86 -48q-51 -24 -129 -24z" />
    <glyph glyph-name="uogonek" unicode="&#x173;" horiz-adv-x="1095" 
d="M702 -12q-40 16 -72 51q-31 34 -36 86q-66 -68 -137 -108q-77 -44 -170 -44q-108 0 -169 67t-61 185q0 42 13 107l102 479l-88 37l45 209h426l-152 -717q-1 -7 -3 -19q-1 -6 -1 -20q0 -33 17 -52q16 -18 43 -18q30 0 55 11q27 12 59 34l164 781h332l-141 -662
q-23 -103 -23 -129q0 -51 58 -51h49v-184q-115 -40 -179 -101q-63 -60 -63 -118q0 -66 76 -66q30 0 59 8q20 6 49 19l37 -164q-33 -23 -86 -48q-51 -24 -129 -24q-122 0 -175 56q-54 57 -54 151q0 75 40 137q42 66 115 107z" />
    <glyph glyph-name="Wcircumflex" unicode="&#x174;" horiz-adv-x="1802" 
d="M989 621q0 73 1 104q2 62 4 92q2 33 8 89q0 2 14 93h-4q-26 -92 -57 -190t-70 -186l-271 -623h-315l-33 1212l-82 27l41 188h572l-41 -188l-131 -22l-4 -467q-1 -66 -9 -177q-7 -95 -16 -170h2q13 55 22 86q20 67 25 81q20 54 31 83q18 47 39 95l293 679h272l6 -677
q2 -101 0 -181q-2 -81 -12 -166h2q15 77 41 165q27 92 67 192l181 457l-121 22l41 188h481l-41 -188l-96 -22l-529 -1217h-315zM825 1618l303 276h168l205 -276l-112 -135l-209 151l-273 -151z" />
    <glyph glyph-name="wcircumflex" unicode="&#x175;" horiz-adv-x="1441" 
d="M487 0h-329l-43 811l-88 37l41 209h364l4 -332q0 -24 -2 -92q-1 -34 -5 -104q-2 -38 -8 -102q-4 -43 -11 -91h4q16 82 48 177t66 171l166 373h283l12 -373q4 -60 2 -171q-1 -97 -12 -177h4q22 88 49 172q26 81 64 176l157 373h295l-493 -1057h-305l-17 322q-4 89 1 200
q3 61 14 176h-5q-18 -83 -43 -172q-29 -100 -65 -184zM555 1272l303 276h168l205 -276l-113 -135l-209 151l-272 -151z" />
    <glyph glyph-name="Ycircumflex" unicode="&#x176;" horiz-adv-x="1175" 
d="M858 1241l41 186h451l-41 -188l-82 -16l-430 -625l-84 -393l135 -35l-37 -170h-647l37 170l147 35l82 385l-178 633l-72 16l41 188h574l-41 -186l-133 -20l47 -191q17 -68 25 -135q7 -63 9 -123h5q23 63 54 122q23 44 79 136l121 195zM526 1618l303 276h168l205 -276
l-112 -135l-209 151l-273 -151z" />
    <glyph glyph-name="ycircumflex" unicode="&#x177;" horiz-adv-x="956" 
d="M193 0l-66 811l-100 37l45 209h360l21 -439q5 -92 0 -180q-5 -91 -19 -166h4q17 86 43 165q28 84 66 167l213 453h303l-553 -1067q-54 -104 -102 -178q-44 -68 -98 -119q-51 -47 -108 -74q-56 -26 -139 -43l-141 242q98 15 127 21q61 13 103 31t77 50q34 31 52 80h-88z
M315 1272l303 276h168l205 -276l-112 -135l-209 151l-273 -151z" />
    <glyph glyph-name="Ydieresis" unicode="&#x178;" horiz-adv-x="1175" 
d="M858 1241l41 186h451l-41 -188l-82 -16l-430 -625l-84 -393l135 -35l-37 -170h-647l37 170l147 35l82 385l-178 633l-72 16l41 188h574l-41 -186l-133 -20l47 -191q17 -68 25 -135q7 -63 9 -123h5q23 63 54 122q23 44 79 136l121 195zM1071 1503q-68 0 -115 47t-47 117
q0 72 45 120t111 48q69 0 119 -48q49 -48 49 -120q0 -71 -48 -117q-49 -47 -114 -47zM649 1503q-64 0 -113 47t-49 117q0 72 45 120t111 48q69 0 118 -48q50 -48 50 -120q0 -71 -48 -117q-49 -47 -114 -47z" />
    <glyph glyph-name="Zacute" unicode="&#x179;" horiz-adv-x="1054" 
d="M-33 217l772 1000h-233l-86 -218h-238l105 428h932l-56 -223l-786 -993h282l97 215h237l-102 -426h-973zM518 1667l440 299l144 -264l-488 -215z" />
    <glyph glyph-name="zacute" unicode="&#x17a;" horiz-adv-x="937" 
d="M27 215l526 645h-168l-53 -102h-209l63 299h770l-36 -199l-535 -661h209l47 102h217l-61 -299h-815zM346 1317l440 299l144 -264l-488 -215z" />
    <glyph glyph-name="Zdotaccent" unicode="&#x17b;" horiz-adv-x="1054" 
d="M-33 217l772 1000h-233l-86 -218h-238l105 428h932l-56 -223l-786 -993h282l97 215h237l-102 -426h-973zM782 1499q-78 0 -132 54t-54 130q0 79 54 133t130 54q78 0 132 -54q55 -55 55 -130q0 -78 -55 -133q-54 -54 -130 -54z" />
    <glyph glyph-name="zdotaccent" unicode="&#x17c;" horiz-adv-x="937" 
d="M27 215l526 645h-168l-53 -102h-209l63 299h770l-36 -199l-535 -661h209l47 102h217l-61 -299h-815zM606 1145q-40 0 -74 15t-60 41q-24 24 -40 61q-14 32 -14 73t14 75q15 36 40 61q27 27 59 41q37 16 73 16q37 0 74 -16q34 -15 60 -41q25 -25 40 -60t15 -74
q0 -41 -15 -75q-16 -37 -40 -61q-27 -27 -59 -41q-35 -15 -73 -15z" />
    <glyph glyph-name="Zcaron" unicode="&#x17d;" horiz-adv-x="1054" 
d="M-33 217l772 1000h-233l-86 -218h-238l105 428h932l-56 -223l-786 -993h282l97 215h237l-102 -426h-973zM467 1782l113 135l208 -152l273 152l82 -135l-303 -277h-168z" />
    <glyph glyph-name="zcaron" unicode="&#x17e;" horiz-adv-x="937" 
d="M27 215l526 645h-168l-53 -102h-209l63 299h770l-36 -199l-535 -661h209l47 102h217l-61 -299h-815zM299 1436l113 135l209 -152l272 152l82 -135l-303 -277h-168z" />
    <glyph glyph-name="longs" unicode="&#x17f;" horiz-adv-x="649" 
d="M344 -25q-17 -80 -46 -139q-30 -59 -75 -103q-48 -47 -104 -76q-58 -30 -133 -58l-97 149q54 48 84 105q32 60 52 157l161 801l-98 35l47 211h101l22 114q24 116 70 187q45 69 101 106t120 49q68 13 123 13q61 0 124 -13q61 -13 99 -28l-74 -203q-18 8 -44 14
q-19 4 -52 4q-49 0 -83 -25q-33 -24 -48 -89z" />
    <glyph glyph-name="uni018F" unicode="&#x18f;" horiz-adv-x="1140" 
d="M10 381q0 113 35 229q34 113 115 209h594q2 14 2 23v24q0 65 -11 125q-11 61 -35 100q-24 40 -71 65q-45 24 -115 24q-77 0 -149 -24q-73 -24 -133 -58l-66 205q84 66 206 109q120 42 263 42q128 0 218 -40q91 -40 151 -115q59 -74 88 -181q28 -105 28 -237
q0 -230 -68 -409q-69 -183 -169 -300q-85 -101 -208 -150q-124 -49 -263 -49q-195 0 -304 100q-108 99 -108 308zM649 375q53 135 76 237h-301q-68 -124 -68 -262q0 -76 25 -120q24 -42 74 -42q58 0 107 44q48 43 87 143z" />
    <glyph glyph-name="florin" unicode="&#x192;" 
d="M252 895h129l43 197q22 106 62 172q41 67 96 111q54 44 114 61q62 18 125 18q102 0 153 -17q59 -20 89 -34l-94 -238q-25 11 -40 16q-22 7 -59 7q-74 0 -92 -76l-47 -217h191l-52 -244h-190l-217 -1040h-352l219 1040h-129z" />
    <glyph glyph-name="uni01B5" unicode="&#x1b5;" horiz-adv-x="1054" 
d="M176 827h256l297 390h-223l-86 -218h-238l105 428h932l-56 -223l-295 -377h136l-43 -215h-263l-313 -401h274l97 215h237l-102 -426h-973l49 217l301 395h-135z" />
    <glyph glyph-name="uni01B6" unicode="&#x1b6;" horiz-adv-x="937" 
d="M143 610h205l205 250h-168l-53 -102h-209l63 299h770l-36 -199l-201 -248h117l-33 -155h-209l-209 -258h209l47 102h217l-61 -299h-815l45 215l194 240h-110z" />
    <glyph glyph-name="Aringacute" unicode="&#x1fa;" horiz-adv-x="1267" 
d="M731 358h-354l-76 -163l137 -25l-37 -170h-503l36 170l97 25l596 1196q-35 50 -35 125q0 27 6 57q23 108 92 167q68 58 170 58q103 0 163 -61t60 -154q0 -29 -6 -59q-24 -109 -90 -164l117 -1161l82 -29l-37 -170h-586l37 170l145 25zM592 1956l440 299l144 -264
l-488 -215zM475 567h238l-11 111q-12 135 -11 230q2 108 7 182h-2q-25 -88 -65 -181q-46 -108 -103 -229zM825 1432q37 0 54 29t28 79l3 21q1 7 1 30q0 74 -59 74q-36 0 -55 -28q-18 -27 -29 -81q-2 -8 -3 -19q-1 -8 -1 -34q0 -33 13 -52t48 -19z" />
    <glyph glyph-name="aringacute" unicode="&#x1fb;" horiz-adv-x="1132" 
d="M469 219q30 0 69 17q41 18 56 32l117 531q-9 11 -41 28q-29 15 -64 15q-37 0 -63 -16q-24 -15 -45 -62q-12 -27 -32 -96q-14 -47 -32 -129q-9 -42 -24 -130q-11 -66 -11 -100q0 -49 19 -70q18 -20 51 -20zM621 125q-61 -64 -148 -109q-83 -43 -162 -43q-116 0 -185 78
t-69 244q0 83 14 186q14 101 40 193q27 96 67 175q40 80 96 136q53 53 120 76q65 22 138 22q80 0 139 -31q60 -32 101 -89l49 94h275l-142 -662q-22 -98 -22 -129q0 -51 57 -51h49v-184q-69 -36 -127 -47t-104 -11q-71 0 -127 41q-54 40 -59 111zM721 1096q-109 0 -168 62
t-59 155q0 27 6 57q23 108 92 167q68 58 170 58q103 0 163 -61q60 -62 60 -154q0 -29 -6 -59q-23 -109 -91 -167t-167 -58zM727 1229q35 0 53 30q19 32 29 78l3 21q1 7 1 31q0 73 -59 73q-38 0 -56 -27q-17 -25 -28 -81q-1 -7 -3 -20q-1 -8 -1 -34q0 -33 13 -52t48 -19z
M508 1774l440 299l144 -265l-488 -215z" />
    <glyph glyph-name="AEacute" unicode="&#x1fc;" horiz-adv-x="1691" 
d="M1311 215l92 203h227l-86 -418h-1001l37 170l141 35l43 196h-330l-133 -206l137 -25l-37 -170h-503l36 170l97 25l641 1009l-127 35l39 188h1231l-89 -403h-219v188h-207l-77 -374h153l51 102h168l-86 -424h-168l-10 109h-155l-89 -410h224zM569 612h240l59 269
q23 111 37 166q16 64 39 145h-2zM963 1667l440 299l143 -264l-487 -215z" />
    <glyph glyph-name="aeacute" unicode="&#x1fd;" horiz-adv-x="1423" 
d="M383 197q47 0 92 39l45 217h-16q-104 0 -147 -52q-42 -51 -42 -122q0 -45 17 -64q16 -18 51 -18zM942 -27q-122 0 -205 42q-82 42 -133 126q-49 -65 -128 -116q-81 -52 -200 -52q-134 0 -205 78q-71 79 -71 205q0 199 123 287q122 88 364 88h70l12 41q11 42 11 63
q0 47 -27 73q-28 26 -78 26q-65 0 -127 -20q-60 -20 -123 -54l-98 201q102 63 203 93q97 29 221 29q85 0 142 -27q52 -25 93 -67q61 43 136 69q72 25 165 25q160 0 254 -73q95 -74 95 -224q0 -110 -41 -177q-40 -65 -117 -103q-75 -37 -184 -49q-117 -13 -244 -13v-16
q0 -90 37 -149q37 -60 127 -60q68 0 123 19q53 18 118 55l70 -193q-56 -61 -161 -94q-104 -33 -222 -33zM940 780q-29 -52 -37 -67q-21 -37 -33 -90q84 5 122 11q54 8 82 24q31 18 46 48t15 78q0 88 -64 88q-80 0 -131 -92zM606 1317l441 299l143 -264l-488 -215z" />
    <glyph glyph-name="Oslashacute" unicode="&#x1fe;" horiz-adv-x="1259" 
d="M133 178q-61 110 -61 287q0 114 18 234q19 124 52 230q36 115 80 201q47 93 102 152q84 91 188 131q108 41 248 41q199 0 323 -88l166 207l142 -111l-191 -237q49 -101 49 -240q0 -113 -18 -234q-18 -123 -51 -236t-78 -211q-44 -96 -101 -159q-79 -91 -186 -131
q-109 -41 -250 -41q-187 0 -305 72l-184 -229l-144 110zM598 1128q-20 -43 -42 -104q-23 -63 -46 -143q-22 -76 -42 -164q-16 -69 -34 -164l467 586q-24 100 -143 100q-58 0 -95 -26t-65 -85zM563 188q58 0 95 26t65 85q14 28 37 92q13 37 41 127q17 55 40 148q12 48 33 151
l-446 -559q35 -70 135 -70zM590 1667l440 299l143 -264l-487 -215z" />
    <glyph glyph-name="oslashacute" unicode="&#x1ff;" horiz-adv-x="1064" 
d="M127 131q-70 100 -70 254q0 70 14 156q14 87 35 156q22 72 55 139q33 66 68 104q66 72 154 108q86 35 207 35q130 0 231 -53l142 182l127 -100l-148 -192q30 -46 48 -110q18 -63 18 -140q0 -71 -14 -155q-13 -80 -36 -157q-22 -75 -54 -139q-33 -65 -68 -102
q-66 -72 -154 -108t-207 -36q-132 0 -227 50l-158 -203l-127 98zM383 477q-4 -15 -4 -20l301 391q-16 16 -40 22q-28 7 -50 7q-25 0 -53 -20q-29 -21 -53 -65q-26 -46 -51 -123q-26 -78 -50 -192zM469 178q25 0 53 20q27 20 52 65q29 53 52 122q27 81 50 190l-291 -374
q19 -14 38 -18q23 -5 46 -5zM418 1317l440 299l143 -264l-487 -215z" />
    <glyph glyph-name="Scommaaccent" unicode="&#x218;" horiz-adv-x="1054" 
d="M70 426h227v-193q57 -45 147 -45q86 0 130 44t44 118q0 79 -34 126q-36 50 -125 102q-75 44 -127 90q-51 45 -83 95q-31 49 -45 107q-14 59 -14 129q0 115 39 200q38 84 107 142t157 85q92 28 191 28q110 0 221 -24t185 -74l-66 -318h-231v189q-44 12 -86 12
q-85 0 -135 -33t-50 -125q0 -32 7 -56q8 -27 28 -50q26 -30 57 -52q50 -36 97 -63q53 -31 98 -66q47 -36 84 -84q36 -46 58 -112t22 -147q0 -93 -30 -179q-31 -87 -91 -152q-62 -66 -155 -107q-92 -40 -220 -40q-175 0 -293 45t-184 111zM119 -459q56 7 104 26t64 52
q-57 8 -92 50q-35 43 -35 95q0 35 13 62q14 30 37 50q26 23 55 34q32 12 67 12q73 0 126 -47q52 -46 52 -139q0 -77 -32 -132q-30 -52 -85 -91q-52 -37 -123 -57q-65 -18 -145 -23z" />
    <glyph glyph-name="scommaaccent" unicode="&#x219;" horiz-adv-x="874" 
d="M381 -27q-161 0 -254 34q-96 35 -152 75l60 235h221v-137q33 -9 49 -11q21 -3 62 -3q40 0 77 19t37 79q0 44 -22 70q-21 26 -78 47q-80 29 -135 62q-53 32 -85 70q-31 37 -45 86q-14 50 -14 112q0 94 30 163q30 70 84 116q53 45 128 70q70 23 162 23q130 0 209 -27
q75 -26 143 -61l-55 -247h-219v129q-24 9 -36 11q-15 3 -38 3q-38 0 -71 -25q-31 -24 -31 -71q0 -42 19 -70q20 -29 91 -53q63 -22 122 -54q53 -29 88 -65t53 -86t18 -115q0 -195 -113 -287t-305 -92zM43 -459q56 7 104 26t64 52q-57 8 -92 50q-35 43 -35 95q0 35 13 62
q14 30 37 50q26 23 55 34q31 12 67 12q73 0 126 -47q52 -46 52 -139q0 -77 -32 -132q-30 -52 -85 -91q-52 -37 -122 -57q-64 -18 -146 -23z" />
    <glyph glyph-name="uni021A" unicode="&#x21a;" horiz-adv-x="1236" 
d="M860 0h-680l37 170l164 35l215 1018h-127l-104 -256h-222l99 460h1149l-99 -460h-213v256h-118l-216 -1018l152 -35zM266 -459q57 8 105 26q47 18 63 52q-57 8 -92 50q-35 43 -35 95q0 32 14 62q15 32 36 50q26 22 56 34q31 12 66 12q73 0 126 -47q52 -46 52 -139
q0 -79 -31 -132q-30 -52 -85 -91q-52 -37 -123 -57q-64 -18 -146 -23z" />
    <glyph glyph-name="uni021B" unicode="&#x21b;" horiz-adv-x="653" 
d="M125 1057h100l54 252l342 53l-66 -305h184l-51 -232h-182l-103 -487q-8 -37 -8 -64q0 -30 28 -42q25 -11 56 -11q35 0 47 1q32 3 47 5v-192q-58 -24 -129 -44q-63 -18 -143 -18q-112 0 -178 60t-66 182q0 58 15 121l102 489h-100zM-6 -459q56 7 104 26t64 52
q-57 8 -92 50q-35 43 -35 95q0 35 13 62q14 30 37 50q26 23 55 34q31 12 67 12q73 0 126 -47q52 -46 52 -139q0 -77 -32 -132q-30 -52 -85 -91q-52 -37 -123 -57q-65 -18 -145 -23z" />
    <glyph glyph-name="dotlessj" unicode="&#x237;" horiz-adv-x="593" 
d="M111 848l45 209h428l-228 -1065q-23 -108 -56 -171q-36 -68 -89 -110q-54 -42 -134 -71q-91 -32 -190 -58l-41 185q40 19 67 38q28 20 51 49t37 65q17 42 28 91l170 801z" />
    <glyph glyph-name="uni0259" unicode="&#x259;" horiz-adv-x="960" 
d="M485 1083q210 0 316 -116t106 -314q0 -172 -52 -304q-54 -136 -134 -224q-67 -76 -164 -114t-217 -38q-159 0 -254 74q-94 73 -94 223q0 114 39 184q39 71 113 109q72 38 185 53q110 15 251 15v12q0 93 -37 143q-38 52 -129 52q-68 0 -123 -19q-56 -19 -119 -55l-70 192
q57 62 161 95q100 32 222 32zM487 276q10 19 37 74q19 40 35 103q-62 -4 -122 -13q-50 -8 -83 -27q-32 -19 -47 -54q-14 -32 -14 -87q0 -88 63 -88q78 0 131 92z" />
    <glyph glyph-name="uni02BB" unicode="&#x2bb;" horiz-adv-x="579" 
d="M651 1358q-68 -21 -131 -59q-61 -37 -78 -95q67 -11 105 -59q39 -49 39 -115q0 -37 -16 -74q-15 -34 -42 -60q-29 -27 -62 -41q-36 -15 -75 -15q-79 0 -138 57q-58 57 -58 168q0 95 35 166q36 74 98 127t143 87q79 33 174 44z" />
    <glyph glyph-name="afii57929" unicode="&#x2bc;" horiz-adv-x="579" 
d="M184 971q72 22 131 58q61 37 78 95q-65 10 -104 60t-39 114q0 40 15 74q16 36 42 61q28 26 62 41q35 15 75 15q80 0 139 -57q58 -57 58 -168q0 -92 -36 -166q-37 -75 -97 -128q-62 -55 -143 -87q-80 -32 -175 -43z" />
    <glyph glyph-name="circumflex" unicode="&#x2c6;" horiz-adv-x="1116" 
d="M281 1272l303 276h168l204 -276l-112 -135l-209 151l-273 -151z" />
    <glyph glyph-name="caron" unicode="&#x2c7;" horiz-adv-x="1116" 
d="M322 1436l112 135l209 -152l272 152l82 -135l-303 -277h-168z" />
    <glyph glyph-name="breve" unicode="&#x2d8;" horiz-adv-x="1116" 
d="M627 1165q-84 0 -144 30q-58 29 -97 77q-37 46 -55 103t-18 112l224 43q11 -55 35 -83q26 -30 81 -30q56 0 83 30q28 31 50 83l220 -51q-11 -56 -40 -112q-28 -54 -77 -101q-47 -46 -114 -73q-68 -28 -148 -28z" />
    <glyph glyph-name="dotaccent" unicode="&#x2d9;" horiz-adv-x="1116" 
d="M559 1145q-39 0 -74 15q-34 15 -60 41q-24 24 -40 61q-14 32 -14 73t14 75q15 36 40 61q27 27 59 41q37 16 73 16q37 0 74 -16q34 -15 60 -41q25 -25 40 -60q14 -32 14 -74q0 -43 -14 -75q-16 -37 -40 -61q-27 -27 -59 -41q-34 -15 -73 -15z" />
    <glyph glyph-name="ring" unicode="&#x2da;" horiz-adv-x="1116" 
d="M670 1145q-109 0 -168 62q-60 63 -60 155q0 22 7 57q23 108 92 167q70 59 170 59q102 0 162 -62q61 -63 61 -153q0 -30 -6 -60q-23 -109 -91 -167t-167 -58zM676 1278q35 0 53 30q19 32 29 78l3 21q1 7 1 31q0 73 -60 73q-37 0 -55 -27t-29 -81q-1 -7 -3 -20
q-1 -8 -1 -33q0 -33 14 -53q13 -19 48 -19z" />
    <glyph glyph-name="ogonek" unicode="&#x2db;" horiz-adv-x="1116" 
d="M539 -463q-122 0 -175 56q-55 58 -55 151q0 91 60 163q61 73 170 113h182q-81 -57 -134 -108q-55 -53 -55 -100q0 -66 76 -66q31 0 60 8q20 6 49 19l37 -164q-33 -23 -86 -48q-51 -24 -129 -24z" />
    <glyph glyph-name="tilde" unicode="&#x2dc;" horiz-adv-x="1116" 
d="M299 1274q112 229 272 229q51 0 81 -10q35 -12 57 -24q7 -4 15 -8l17 -8.5t14 -6.5q20 -10 48 -10q29 0 51 21q19 18 49 56l160 -114q-113 -230 -270 -230q-47 0 -82 11q-39 13 -58 23q-16 9 -46 24q-20 10 -48 10q-27 0 -51 -22q-19 -18 -49 -56z" />
    <glyph glyph-name="hungarumlaut" unicode="&#x2dd;" horiz-adv-x="1116" 
d="M649 1243l291 463l229 -152l-362 -413zM231 1243l291 463l230 -152l-363 -413z" />
    <glyph glyph-name="gravecomb" unicode="&#x300;" horiz-adv-x="2" 
d="M-666 1360l179 250l370 -303l-125 -168z" />
    <glyph glyph-name="acutecomb" unicode="&#x301;" horiz-adv-x="2" 
d="M-682 1317l440 299l144 -264l-488 -215z" />
    <glyph glyph-name="uni0302" unicode="&#x302;" horiz-adv-x="2" 
d="M-737 1272l303 276h168l205 -276l-113 -135l-209 151l-272 -151z" />
    <glyph glyph-name="tildecomb" unicode="&#x303;" horiz-adv-x="2" 
d="M-780 1274q112 229 272 229q51 0 81 -10q33 -11 56 -24q7 -4 15 -8l17 -8.5t14 -6.5q20 -10 49 -10q28 0 51 21q19 18 49 56l160 -114q-113 -230 -271 -230q-47 0 -82 11q-37 12 -57 23q-16 9 -46 24q-20 10 -48 10q-27 0 -51 -22q-23 -21 -50 -56z" />
    <glyph glyph-name="uni0304" unicode="&#x304;" horiz-adv-x="2" 
d="M-733 1460h569l-51 -248h-569z" />
    <glyph glyph-name="uni0306" unicode="&#x306;" horiz-adv-x="2" 
d="M-487 1159q-84 0 -144 30q-58 29 -97 77q-37 46 -55 103t-18 112l223 43q11 -53 36 -83q26 -30 81 -30q56 0 83 30q28 31 50 83l219 -51q-11 -59 -39 -112q-28 -54 -77 -101q-47 -46 -114 -73q-68 -28 -148 -28z" />
    <glyph glyph-name="uni0307" unicode="&#x307;" horiz-adv-x="2" 
d="M-150 1145q-38 0 -73 15t-61 41q-24 24 -40 61q-14 32 -14 73t14 75q15 36 40 61q26 26 60 41q37 16 72 16q37 0 74 -16q35 -15 61 -41q25 -25 40 -60q14 -32 14 -74q0 -43 -14 -75q-16 -37 -40 -61q-26 -26 -60 -41q-35 -15 -73 -15z" />
    <glyph glyph-name="uni0308" unicode="&#x308;" horiz-adv-x="2" 
d="M-264 1161q-68 0 -115 47t-47 117q0 72 45 120t111 48q68 0 118 -48t50 -120q0 -70 -49 -117t-113 -47zM-686 1161q-65 0 -114 47q-48 46 -48 117q0 72 45 120t111 48q68 0 118 -48t50 -120q0 -71 -48 -117q-49 -47 -114 -47z" />
    <glyph glyph-name="uni030A" unicode="&#x30a;" horiz-adv-x="2" 
d="M-444 1145q-109 0 -168 62q-60 63 -60 155q0 27 6 57q22 107 93 167q70 59 170 59q102 0 162 -62q61 -63 61 -153q0 -30 -6 -60q-23 -108 -92 -167q-68 -58 -166 -58zM-438 1278q35 0 53 30q19 32 29 78l3 21q1 7 1 31q0 73 -60 73q-37 0 -55 -27t-29 -81q-1 -7 -3 -20
q-1 -8 -1 -33q0 -33 14 -53q13 -19 48 -19z" />
    <glyph glyph-name="uni030B" unicode="&#x30b;" horiz-adv-x="2" 
d="M-465 1239l291 463l229 -152l-362 -413zM-883 1239l291 463l230 -152l-363 -413z" />
    <glyph glyph-name="uni030C" unicode="&#x30c;" horiz-adv-x="2" 
d="M-639 1436l113 135l209 -152l272 152l82 -135l-303 -277h-168z" />
    <glyph glyph-name="uni0312" unicode="&#x312;" horiz-adv-x="2" 
d="M-193 1688q-30 -9 -68 -29q-35 -18 -63 -42q-27 -23 -49 -51q-20 -25 -28 -57q66 -10 104 -59q39 -50 39 -115q0 -39 -15 -73q-16 -36 -42 -61q-28 -26 -63 -41q-36 -15 -75 -15q-79 0 -138 57q-58 57 -58 168q0 94 37 169q39 79 98 134q61 57 143 94q81 37 172 52z" />
    <glyph glyph-name="uni0313" unicode="&#x313;" horiz-adv-x="2" 
d="M-649 885q34 10 68 28q35 18 63 42q25 21 49 52q22 28 29 56q-67 11 -105 59q-39 50 -39 115q0 37 16 74q15 35 42 60q28 27 61 41q35 15 76 15q79 0 138 -57q58 -57 58 -168q0 -96 -36 -169q-38 -77 -99 -134t-143 -94q-78 -35 -172 -51z" />
    <glyph glyph-name="uni0326" unicode="&#x326;" horiz-adv-x="2" 
d="M-649 -406q68 21 131 59q61 37 78 95q-67 11 -105 59q-39 50 -39 115q0 37 16 74q15 34 42 60q28 27 61 41q37 16 76 16q78 0 138 -58q58 -57 58 -168q0 -95 -35 -166q-36 -74 -98 -128q-62 -55 -143 -87t-174 -43z" />
    <glyph glyph-name="uni0327" unicode="&#x327;" horiz-adv-x="2" 
d="M-717 -463q-68 0 -110 13q-46 14 -74 34l65 121q17 -8 46 -17q24 -7 59 -7q44 0 61 17q19 19 19 46q0 59 -76 59q-24 0 -41 -3q-19 -3 -27 -7l152 227h160l-88 -124q48 -16 81 -55q31 -37 31 -97q0 -86 -61 -146q-63 -61 -197 -61z" />
    <glyph glyph-name="uni0328" unicode="&#x328;" horiz-adv-x="2" 
d="M-575 -463q-123 0 -176 56q-54 57 -54 151q0 91 60 163q61 73 170 113h182q-81 -57 -134 -108q-55 -53 -55 -100q0 -66 76 -66q31 0 60 8q20 6 49 19l37 -164q-33 -23 -86 -48q-51 -24 -129 -24z" />
    <glyph glyph-name="uni037E" unicode="&#x37e;" horiz-adv-x="651" 
d="M360 530q-38 0 -75 16q-35 15 -62 42q-28 28 -42 62q-15 36 -15 77q0 39 15 74q15 34 42 61t62 42q37 16 75 16q37 0 75 -16t64 -42q29 -29 43 -61q15 -35 15 -74q0 -41 -15 -77q-14 -33 -43 -62q-26 -26 -64 -42t-75 -16zM-18 -166q30 9 68 29q34 18 63 42q27 23 49 51
q20 26 28 56q-65 10 -104 60t-39 114q0 40 15 74q16 36 42 61q26 24 62 40q37 16 76 16q78 0 138 -58q58 -57 58 -167q0 -94 -37 -169q-40 -81 -98 -135q-61 -57 -143 -94q-78 -35 -172 -51z" />
    <glyph glyph-name="tonos" unicode="&#x384;" horiz-adv-x="1116" 
d="M504 1536h319l-282 -369h-219z" />
    <glyph glyph-name="dieresistonos" unicode="&#x385;" horiz-adv-x="1116" 
d="M631 1546h262l-225 -377h-164zM971 1159q-59 0 -102 41q-42 40 -42 100q0 63 40 104q41 42 98 42q61 0 105 -42t44 -104q0 -60 -42 -100q-43 -41 -101 -41zM352 1159q-58 0 -101 41q-42 40 -42 100q0 62 39 104t98 42q62 0 106 -42t44 -104q0 -60 -42 -100
q-43 -41 -102 -41z" />
    <glyph glyph-name="Alphatonos" unicode="&#x386;" horiz-adv-x="1267" 
d="M731 358h-354l-76 -163l137 -25l-37 -170h-503l36 170l97 25l614 1232h336l123 -1228l82 -29l-37 -170h-586l37 170l145 25zM475 567h238l-11 111q-12 135 -11 230q2 108 7 182h-2q-25 -88 -65 -181q-46 -108 -103 -229zM117 1430h319l-282 -369h-220z" />
    <glyph glyph-name="anoteleia" unicode="&#x387;" horiz-adv-x="591" 
d="M295 444q-39 0 -78 17q-36 16 -64 44t-44 64q-17 39 -17 80q0 40 17 77t44 64q28 28 64 44t78 16q43 0 79 -16q38 -16 65 -44q27 -27 44 -64t17 -77q0 -41 -17 -80q-16 -36 -44 -64t-65 -44q-39 -17 -79 -17z" />
    <glyph glyph-name="Epsilontonos" unicode="&#x388;" horiz-adv-x="1087" 
d="M905 516h-168l-10 109h-156l-88 -410h224l92 203h227l-86 -418h-1001l36 170l142 35l215 999l-127 35l39 188h966l-88 -403h-219v188h-207l-78 -374h154l51 102h168zM-129 1430h319l-282 -369h-219z" />
    <glyph glyph-name="Etatonos" unicode="&#x389;" horiz-adv-x="1462" 
d="M698 170l142 35l86 405h-359l-86 -405l131 -35l-37 -170h-636l36 170l142 35l215 999l-127 35l39 188h639l-39 -188l-148 -35l-80 -373h359l80 373l-127 35l39 188h639l-39 -188l-148 -35l-215 -999l131 -35l-37 -170h-636zM-129 1430h319l-282 -369h-219z" />
    <glyph glyph-name="Iotatonos" unicode="&#x38a;" horiz-adv-x="739" 
d="M-25 170l142 35l215 999l-127 35l39 188h639l-39 -188l-148 -35l-215 -999l131 -35l-37 -170h-636zM-129 1430h319l-282 -369h-219z" />
    <glyph glyph-name="Omicrontonos" unicode="&#x38c;" horiz-adv-x="1259" 
d="M563 188q43 0 81 25q37 25 67 86q10 21 33 92q16 52 40 136q18 65 40 159q17 73 34 160q16 79 24 137q9 61 9 96q0 86 -37 123t-96 37q-58 0 -92 -26t-62 -85q-15 -28 -33 -89q-20 -65 -39 -136q-10 -37 -39 -159q-19 -82 -36 -159q-18 -82 -26 -140q-9 -63 -9 -95
q0 -88 34 -125t107 -37zM565 -27q-236 0 -364 118q-129 119 -129 374q0 114 18 234q19 124 52 230q36 115 80 201q47 93 102 152q84 91 188 131q108 41 248 41q234 0 362 -120q127 -120 127 -349q0 -113 -18 -234q-18 -123 -51 -236t-78 -211q-44 -96 -101 -159
q-79 -91 -186 -131q-109 -41 -250 -41zM-47 1430h319l-282 -369h-219z" />
    <glyph glyph-name="Upsilontonos" unicode="&#x38e;" horiz-adv-x="1175" 
d="M858 1241l41 186h451l-41 -188l-82 -16l-430 -625l-84 -393l135 -35l-37 -170h-647l37 170l147 35l82 385l-178 633l-72 16l41 188h574l-41 -186l-133 -20l47 -191q17 -68 25 -135q7 -63 9 -123h5q23 63 54 122q23 44 79 136l121 195zM-150 1430h320l-283 -369h-219z" />
    <glyph glyph-name="Omegatonos" unicode="&#x38f;" horiz-adv-x="1261" 
d="M55 330h138v-82h112l12 61q-109 51 -152 153q-44 103 -44 218q0 74 11 141q13 79 34 148q24 77 56 142q36 71 77 124q93 120 209 170q113 49 280 49q224 0 354 -121t130 -340q0 -159 -45 -299q-44 -137 -148 -250q-78 -84 -211 -135l-12 -61h119l37 82h125l-66 -330h-493
l86 403q37 10 74 37q38 27 59 90q18 53 40 144q17 69 34 156q18 92 25 143q9 66 9 102q0 76 -32 120t-105 44q-75 0 -116 -50q-38 -46 -72 -163q-3 -10 -27 -94.5t-36 -131.5q-31 -118 -36 -225q4 -77 29 -115q25 -39 59 -57l-86 -403h-495zM-27 1429h320l-283 -368h-219z
" />
    <glyph glyph-name="iotadieresistonos" unicode="&#x390;" horiz-adv-x="608" 
d="M57 158q0 33 5 75q1 10 14 74l106 504l-88 37l45 209h428l-143 -662q-23 -103 -23 -129q0 -51 58 -51h49v-184q-69 -36 -127 -47t-105 -11q-109 0 -164 50t-55 135zM451 1546h262l-226 -377h-163zM791 1159q-59 0 -102 41q-42 40 -42 100q0 63 40 104q41 42 97 42
q62 0 106 -42t44 -104q0 -60 -42 -100q-43 -41 -101 -41zM172 1159q-58 0 -101 41q-42 40 -42 100q0 62 39 104t98 42q62 0 105 -42q44 -42 44 -104q0 -60 -42 -100q-43 -41 -101 -41z" />
    <glyph glyph-name="Alpha" unicode="&#x391;" horiz-adv-x="1267" 
d="M731 358h-354l-76 -163l137 -25l-37 -170h-503l36 170l97 25l614 1232h336l123 -1228l82 -29l-37 -170h-586l37 170l145 25zM475 567h238l-11 111q-12 135 -11 230q2 108 7 182h-2q-25 -88 -65 -181q-46 -108 -103 -229z" />
    <glyph glyph-name="Beta" unicode="&#x392;" horiz-adv-x="1234" 
d="M586 213q54 0 93 10q40 10 64 39q13 14 26 47q11 26 19 67q13 64 14 69q5 38 5 57q0 56 -30 93q-30 38 -109 38h-95l-90 -420h103zM684 836q53 0 86 12q32 12 49 35q17 19 29 48q13 32 21 62q12 44 15 65q5 35 5 56q0 47 -26 75t-77 28h-86l-84 -381h68zM850 1427
q212 0 303 -82q92 -83 92 -227q0 -183 -83 -274t-212 -109q103 -18 167 -97q65 -80 65 -202q0 -43 -11 -92q-12 -51 -28 -91q-19 -45 -45 -83q-27 -39 -60 -66q-123 -104 -364 -104h-735l36 170l142 35l215 999l-127 35l39 188h606z" />
    <glyph glyph-name="Gamma" unicode="&#x393;" horiz-adv-x="1042" 
d="M-25 170l142 35l215 999l-127 35l39 188h952l-100 -460h-217v245h-183l-215 -1007l174 -31l-39 -174h-677z" />
    <glyph glyph-name="uni0394" unicode="&#x394;" horiz-adv-x="1232" 
d="M-2 193l618 1234h338l146 -1234l-41 -193h-1102zM739 229l-67 600q-10 76 -4 151t12 124h-4q-18 -55 -46 -127q-24 -60 -65 -152l-278 -596h452z" />
    <glyph glyph-name="Epsilon" unicode="&#x395;" horiz-adv-x="1087" 
d="M905 516h-168l-10 109h-156l-88 -410h224l92 203h227l-86 -418h-1001l36 170l142 35l215 999l-127 35l39 188h966l-88 -403h-219v188h-207l-78 -374h154l51 102h168z" />
    <glyph glyph-name="Zeta" unicode="&#x396;" horiz-adv-x="1054" 
d="M-33 217l772 1000h-233l-86 -218h-238l105 428h932l-56 -223l-786 -993h282l97 215h237l-102 -426h-973z" />
    <glyph glyph-name="Eta" unicode="&#x397;" horiz-adv-x="1462" 
d="M698 170l142 35l86 405h-359l-86 -405l131 -35l-37 -170h-636l36 170l142 35l215 999l-127 35l39 188h639l-39 -188l-148 -35l-80 -373h359l80 373l-127 35l39 188h639l-39 -188l-148 -35l-215 -999l131 -35l-37 -170h-636z" />
    <glyph glyph-name="Theta" unicode="&#x398;" horiz-adv-x="1277" 
d="M575 -27q-236 0 -369 118q-134 119 -134 374q0 117 19 234q21 128 53 230q36 115 80 201q47 93 102 152q84 92 192 131q112 41 252 41q236 0 367 -120t131 -349q0 -106 -19 -234q-18 -123 -51 -236t-78 -211q-46 -99 -100 -159q-78 -90 -191 -131q-114 -41 -254 -41z
M573 188q43 0 85 25q41 24 71 86q13 26 34 92q16 52 40 136q18 65 40 159q17 73 34 160q12 59 23 137q9 61 9 96q0 85 -41 123q-40 37 -100 37q-58 0 -96 -26t-66 -85q-15 -28 -33 -89q-8 -26 -38 -136q-7 -26 -41 -159q-21 -82 -36 -159q-18 -91 -26 -140q-10 -60 -10 -95
q0 -88 39 -125q38 -37 112 -37zM555 631l43 213h199l-43 -213h-199z" />
    <glyph glyph-name="Iota" unicode="&#x399;" horiz-adv-x="739" 
d="M-25 170l142 35l215 999l-127 35l39 188h639l-39 -188l-148 -35l-215 -999l131 -35l-37 -170h-636z" />
    <glyph glyph-name="Kappa" unicode="&#x39a;" horiz-adv-x="1368" 
d="M1227 0h-402l-217 709l441 510l-103 20l37 188h487l-36 -188l-121 -33l-359 -409l201 -609l107 -18zM-25 170l142 35l215 999l-127 35l39 188h639l-39 -188l-148 -35l-215 -999l131 -35l-37 -170h-636z" />
    <glyph glyph-name="Lambda" unicode="&#x39b;" horiz-adv-x="1236" 
d="M-102 0l36 170l97 25l598 1232h336l108 -1228l82 -29l-37 -170h-571l37 172l131 23l-29 483q-7 131 -8 223q-2 112 4 189h-2q-21 -72 -64 -181q-38 -96 -96 -229l-213 -485l121 -23l-37 -172h-493z" />
    <glyph glyph-name="Mu" unicode="&#x39c;" horiz-adv-x="1691" 
d="M858 680q23 77 55 144q33 70 84 171l217 432h621l-39 -188l-147 -35l-215 -999l131 -35l-37 -170h-637l37 170l141 35l102 487q52 242 56 260q23 108 51 197h-4q-35 -96 -82 -201q-49 -111 -115 -233l-250 -473h-217l-47 448q-16 137 -16 254v205h-4q-4 -36 -26 -200
q-13 -99 -46 -259l-104 -485l131 -35l-37 -170h-522l36 170l142 35l215 999l-127 35l39 188h569l41 -430q11 -107 9 -176q-1 -69 -9 -141h4z" />
    <glyph glyph-name="Nu" unicode="&#x39d;" horiz-adv-x="1374" 
d="M977 1239l39 188h522l-39 -188l-147 -35l-260 -1204h-256l-232 641q-34 90 -57 175q-24 86 -39 179h-4q2 -86 -15 -185q-22 -133 -32 -183l-90 -422l131 -35l-37 -170h-522l36 170l142 35l215 999l-127 35l39 188h461l184 -548q39 -116 58 -198q19 -80 26 -153h4
q9 83 19 153q13 86 40 208l68 315z" />
    <glyph glyph-name="Xi" unicode="&#x39e;" horiz-adv-x="1067" 
d="M258 1427h928l-92 -423h-215v159h-443l-65 -159h-215zM274 860h662l-55 -256h-662zM39 442h217v-174h436l80 174h217l-90 -442h-950z" />
    <glyph glyph-name="Omicron" unicode="&#x39f;" horiz-adv-x="1259" 
d="M563 188q43 0 81 25q37 25 67 86q10 21 33 92q16 52 40 136q18 65 40 159q17 73 34 160q16 79 24 137q9 61 9 96q0 86 -37 123t-96 37q-58 0 -92 -26t-62 -85q-15 -28 -33 -89q-20 -65 -39 -136q-10 -37 -39 -159q-19 -82 -36 -159q-18 -82 -26 -140q-9 -63 -9 -95
q0 -88 34 -125t107 -37zM565 -27q-236 0 -364 118q-129 119 -129 374q0 114 18 234q19 124 52 230q36 115 80 201q47 93 102 152q84 91 188 131q108 41 248 41q234 0 362 -120q127 -120 127 -349q0 -113 -18 -234q-18 -123 -51 -236t-78 -211q-44 -96 -101 -159
q-79 -91 -186 -131q-109 -41 -250 -41z" />
    <glyph glyph-name="Pi" unicode="&#x3a0;" horiz-adv-x="1437" 
d="M-25 170l146 35l215 999l-127 35l39 188h1333l-39 -188l-147 -35l-215 -999l131 -35l-37 -170h-615l37 170l119 35l211 985h-330l-211 -985l107 -35l-37 -170h-616z" />
    <glyph glyph-name="Rho" unicode="&#x3a1;" horiz-adv-x="1202" 
d="M668 756q52 0 96 6t74 45q19 25 36 66q15 37 24 80q8 38 13 82q4 36 4 71q0 66 -31 88q-32 23 -102 23h-84l-98 -461h68zM809 1427q221 0 340 -86q120 -86 121 -258q0 -126 -37 -234q-37 -109 -90 -169q-69 -78 -189 -108q-115 -29 -254 -29h-147l-72 -338l174 -31
l-39 -174h-677l36 170l142 35l215 999l-127 35l39 188h565z" />
    <glyph glyph-name="Sigma" unicode="&#x3a3;" horiz-adv-x="1054" 
d="M-12 217l436 467l-246 467l60 276h940l-88 -403h-220v188h-323l203 -391l-35 -141l-375 -408h344l76 172h237l-106 -444h-952z" />
    <glyph glyph-name="Tau" unicode="&#x3a4;" horiz-adv-x="1236" 
d="M860 0h-680l37 170l164 35l215 1018h-127l-104 -256h-222l99 460h1149l-99 -460h-213v256h-118l-216 -1018l152 -35z" />
    <glyph glyph-name="Upsilon" unicode="&#x3a5;" horiz-adv-x="1175" 
d="M858 1241l41 186h451l-41 -188l-82 -16l-430 -625l-84 -393l135 -35l-37 -170h-647l37 170l147 35l82 385l-178 633l-72 16l41 188h574l-41 -186l-133 -20l47 -191q17 -68 25 -135q7 -63 9 -123h5q23 63 54 122q23 44 79 136l121 195z" />
    <glyph glyph-name="Phi" unicode="&#x3a6;" horiz-adv-x="1634" 
d="M926 205l164 -35l-37 -170h-697l37 170l178 35l15 69q-268 6 -393 99q-123 91 -123 258q0 152 76 276q77 125 233 185q70 28 178 46q103 17 219 19l10 47l-161 35l39 188h690l-39 -188l-174 -35l-11 -49q268 -7 392 -103q123 -95 123 -259q0 -58 -14 -120t-43 -116
q-28 -51 -74 -104q-43 -49 -105 -82q-79 -46 -201 -71q-125 -26 -268 -26zM733 956q-59 -1 -101 -15q-44 -14 -75 -34q-60 -39 -85 -112q-26 -75 -26 -148q0 -85 48 -127q46 -40 135 -45zM983 475q51 0 100 15t82 42q54 42 78 116q25 78 25 147q0 85 -47 120q-46 34 -134 39
z" />
    <glyph glyph-name="Chi" unicode="&#x3a7;" horiz-adv-x="1296" 
d="M502 758l-168 456l-90 25l41 188h583l-41 -186l-112 -16l104 -322l215 320l-106 18l41 186h471l-41 -188l-109 -16l-387 -508l184 -522l95 -23l-37 -170h-606l36 166l140 20l-121 365l-254 -367l121 -18l-37 -166h-485l36 170l101 16z" />
    <glyph glyph-name="Psi" unicode="&#x3a8;" horiz-adv-x="1644" 
d="M420 170l176 35l49 229q-92 4 -174 26q-79 21 -139 63q-58 40 -93 105q-34 62 -34 150q0 51 12 111l70 334l-82 16l41 188h438l-119 -555q-6 -28 -6 -55q0 -69 38 -115q37 -45 93 -57l119 559l-78 35l39 188h520l-39 -188l-92 -35l-119 -563q47 1 102 28q53 26 75 64
q16 26 25 61q3 11 9.5 35.5t10.5 38.5l118 559h439l-41 -188l-90 -16l-70 -334q-52 -249 -201 -357q-71 -52 -181 -76t-241 -24l-47 -227l160 -35l-37 -170h-688z" />
    <glyph glyph-name="uni03A9" unicode="&#x3a9;" horiz-adv-x="1261" 
d="M55 330h138v-82h112l12 61q-109 51 -152 153q-44 103 -44 218q0 74 11 141q13 79 34 148q24 77 56 142q36 71 77 124q93 120 209 170q113 49 280 49q224 0 354 -121t130 -340q0 -159 -45 -299q-44 -137 -148 -250q-78 -84 -211 -135l-12 -61h119l37 82h125l-66 -330h-493
l86 403q37 10 74 37q38 27 59 90q18 53 40 144q17 69 34 156q18 92 25 143q9 66 9 102q0 76 -32 120t-105 44q-75 0 -116 -50q-38 -46 -72 -163q-3 -10 -27 -94.5t-36 -131.5q-31 -118 -36 -225q4 -77 29 -115q25 -39 59 -57l-86 -403h-495z" />
    <glyph glyph-name="Iotadieresis" unicode="&#x3aa;" horiz-adv-x="739" 
d="M-25 170l142 35l215 999l-127 35l39 188h639l-39 -188l-148 -35l-215 -999l131 -35l-37 -170h-636zM823 1503q-67 0 -114 47t-47 117q0 72 45 120t110 48q69 0 119 -48q49 -48 49 -120q0 -71 -48 -117q-49 -47 -114 -47zM401 1503q-64 0 -113 47q-48 46 -48 117
q0 72 45 120t110 48q69 0 118 -48q50 -48 50 -120q0 -71 -48 -117q-49 -47 -114 -47z" />
    <glyph glyph-name="Upsilondieresis" unicode="&#x3ab;" horiz-adv-x="1175" 
d="M858 1241l41 186h451l-41 -188l-82 -16l-430 -625l-84 -393l135 -35l-37 -170h-647l37 170l147 35l82 385l-178 633l-72 16l41 188h574l-41 -186l-133 -20l47 -191q17 -68 25 -135q7 -63 9 -123h5q23 63 54 122q23 44 79 136l121 195zM1071 1503q-68 0 -115 47t-47 117
q0 72 45 120t111 48q69 0 119 -48q49 -48 49 -120q0 -71 -48 -117q-49 -47 -114 -47zM649 1503q-64 0 -113 47t-49 117q0 72 45 120t111 48q69 0 118 -48q50 -48 50 -120q0 -71 -48 -117q-49 -47 -114 -47z" />
    <glyph glyph-name="alphatonos" unicode="&#x3ac;" horiz-adv-x="1132" 
d="M57 295q0 83 14 186q14 101 40 193q27 96 67 175q40 80 96 136q53 53 120 76q65 22 138 22q80 0 139 -31q60 -32 101 -89l49 94h275l-142 -662q-22 -98 -22 -129q0 -51 57 -51h49v-184q-69 -36 -127 -47t-104 -11q-71 0 -127 41q-54 40 -59 111q-61 -64 -148 -109
q-83 -43 -162 -43q-116 0 -185 78t-69 244zM399 309q0 -49 19 -70q18 -20 51 -20q30 0 69 17q41 18 56 32l117 531q-9 11 -41 28q-29 15 -64 15q-37 0 -63 -16q-24 -15 -45 -62q-12 -27 -32 -96q-14 -47 -32 -129q-9 -42 -24 -130q-11 -66 -11 -100zM750 1536h319l-283 -369
h-219z" />
    <glyph glyph-name="epsilontonos" unicode="&#x3ad;" horiz-adv-x="929" 
d="M14 250q0 63 20 114q20 50 54 89q33 38 82 66q48 28 102 44q-62 22 -105 74q-42 51 -42 125q0 86 39 147q40 64 103 100q66 38 147 56q83 18 166 18q119 0 206 -20q94 -22 164 -55l-55 -263h-219v129q-40 9 -80 9q-62 0 -106 -42t-44 -114q0 -40 23 -57t61 -17h142
l-45 -204h-133q-57 0 -103 -37q-47 -38 -47 -103q0 -45 37 -67q38 -23 98 -23q23 0 65 2q32 1 66 9q32 7 77 23q34 12 95 40l66 -199q-106 -66 -212 -94q-104 -27 -233 -27q-69 0 -143 16q-70 15 -125 48q-54 32 -88 86q-33 53 -33 127zM690 1536h320l-283 -369h-219z" />
    <glyph glyph-name="etatonos" unicode="&#x3ae;" 
d="M199 811l-88 37l45 209h352v-137q61 66 144 115q82 48 177 48q104 0 161 -63t57 -180q0 -55 -13 -115l-69 -330q-23 -103 -23 -129q0 -51 57 -51h50v-184q-69 -36 -127 -47t-105 -11q-110 0 -165 50q-54 49 -54 135q0 33 5 75q3 22 13 74l82 400q1 5 3 17q1 6 1 21
q0 38 -17 52t-44 14q-31 0 -57 -10t-64 -39l-162 -762h-331zM750 1536h319l-283 -369h-219z" />
    <glyph glyph-name="iotatonos" unicode="&#x3af;" horiz-adv-x="608" 
d="M57 158q0 33 5 75q1 10 14 74l106 504l-88 37l45 209h428l-143 -662q-23 -103 -23 -129q0 -51 58 -51h49v-184q-69 -36 -127 -47t-105 -11q-109 0 -164 50t-55 135zM485 1536h320l-283 -369h-219z" />
    <glyph glyph-name="upsilondieresistonos" unicode="&#x3b0;" horiz-adv-x="1067" 
d="M92 301q0 32 4 57q8 53 10 62l84 391l-88 37l45 209h426l-153 -727q-2 -14 -3 -20t-1 -19q0 -35 19 -61q19 -27 61 -27q34 0 61 21q26 21 43 93l156 740h331l-149 -699q-22 -102 -54 -168q-34 -70 -87 -119q-54 -49 -132 -73q-83 -25 -192 -25q-189 0 -285 81t-96 247z
M686 1546h262l-225 -377h-164zM1026 1159q-58 0 -101 41q-42 40 -42 100q0 63 40 104q41 42 97 42q62 0 105 -42q44 -42 44 -104q0 -60 -42 -100q-43 -41 -101 -41zM408 1159q-59 0 -102 41q-42 40 -42 100q0 62 39 104t98 42q63 0 106 -42q44 -42 44 -104q0 -60 -42 -100
q-43 -41 -101 -41z" />
    <glyph glyph-name="alpha" unicode="&#x3b1;" horiz-adv-x="1132" 
d="M57 295q0 83 14 186q14 101 40 193q27 96 67 175q40 80 96 136q53 53 120 76q65 22 138 22q80 0 139 -31q60 -32 101 -89l49 94h275l-142 -662q-22 -98 -22 -129q0 -51 57 -51h49v-184q-69 -36 -127 -47t-104 -11q-71 0 -127 41q-54 40 -59 111q-61 -64 -148 -109
q-83 -43 -162 -43q-116 0 -185 78t-69 244zM399 309q0 -49 19 -70q18 -20 51 -20q30 0 69 17q41 18 56 32l117 531q-9 11 -41 28q-29 15 -64 15q-37 0 -63 -16q-24 -15 -45 -62q-12 -27 -32 -96q-14 -47 -32 -129q-9 -42 -24 -130q-11 -66 -11 -100z" />
    <glyph glyph-name="beta" unicode="&#x3b2;" horiz-adv-x="1095" 
d="M492 -27q-207 0 -314 110q-106 109 -106 345q0 110 14 218q16 122 43 232q29 116 72 225q45 112 102 197q148 226 402 226q79 0 151 -18q76 -19 125 -54q56 -40 84 -95q31 -60 31 -140q0 -146 -79 -246q-80 -102 -206 -146q100 -29 162 -104q63 -76 63 -203
q0 -123 -43 -227q-43 -105 -121 -178q-73 -67 -166 -104q-96 -38 -214 -38zM508 199q43 0 69 23q28 24 48 61q28 51 40 121q11 63 11 128q0 76 -28 126q-28 49 -85 49h-22l49 229h28q43 0 76 30q35 32 55 73t31 94q11 52 11 86q0 51 -20 82q-19 30 -54 30q-47 0 -82 -39
q-36 -41 -62 -98q-37 -80 -67 -187q-32 -111 -53 -213q-23 -109 -36 -208q-14 -104 -14 -174q0 -10 0.5 -22t1.5 -27t1 -24q1 -37 11 -69q9 -30 30 -51q20 -20 61 -20z" />
    <glyph glyph-name="gamma" unicode="&#x3b3;" horiz-adv-x="933" 
d="M127 811l-100 37l45 209h360l23 -465q4 -82 -2 -175q-5 -76 -19 -171h4q16 79 42 170q24 84 65 178l198 463h297l-516 -1057l-98 -389h-332l99 389z" />
    <glyph glyph-name="delta" unicode="&#x3b4;" horiz-adv-x="1071" 
d="M57 385q0 78 14 167q13 84 45 164q30 77 83 148q52 70 129 119q34 22 74 37q27 10 81 24l-192 256l43 205h778l-65 -311h-197v115h-211l233 -295q35 -42 54 -71q28 -42 43 -76q17 -39 28 -89q11 -52 11 -112q0 -176 -51 -321q-49 -138 -140 -239q-67 -70 -152 -101
q-88 -32 -190 -32q-195 0 -307 104q-111 103 -111 308zM387 276q0 -96 84 -96q47 0 74 35q26 34 49 117q12 45 24 96q16 68 23 102q9 42 16 99q7 54 7 84q0 55 -15 94q-16 42 -41 74l-10 12q-30 -11 -47 -25q-19 -16 -35 -39q-24 -40 -48 -112q-21 -64 -41 -156
q-15 -68 -29 -160q-11 -72 -11 -125z" />
    <glyph glyph-name="epsilon" unicode="&#x3b5;" horiz-adv-x="929" 
d="M14 250q0 63 20 114q20 50 54 89q33 38 82 66q48 28 102 44q-62 22 -105 74q-42 51 -42 125q0 86 39 147q40 64 103 100q66 38 147 56q83 18 166 18q119 0 206 -20q94 -22 164 -55l-55 -263h-219v129q-40 9 -80 9q-62 0 -106 -42t-44 -114q0 -40 23 -57t61 -17h142
l-45 -204h-133q-57 0 -103 -37q-47 -38 -47 -103q0 -45 37 -67q38 -23 98 -23q23 0 65 2q32 1 66 9q32 7 77 23q34 12 95 40l66 -199q-106 -66 -212 -94q-104 -27 -233 -27q-69 0 -143 16q-70 15 -125 48q-54 32 -88 86q-33 53 -33 127z" />
    <glyph glyph-name="zeta" unicode="&#x3b6;" horiz-adv-x="923" 
d="M37 297q0 91 36 190q37 102 95 196q60 98 139 190q80 93 166 178q81 76 154 135q21 17 69 56t72 58h-305l-57 -114h-203l67 319h809l-49 -223q-60 -52 -151 -138q-106 -101 -179 -177q-50 -53 -121 -141q-59 -73 -104 -146q-44 -72 -72 -148q-26 -71 -26 -143
q0 -71 39 -94q40 -23 104 -23h82q104 0 169 -49q67 -50 67 -147q0 -61 -23 -122t-57 -119q-33 -57 -80 -111q-54 -63 -90 -99l-139 107q41 47 82 107q38 55 38 95q0 66 -92 66h-92q-72 0 -135 15t-111 52t-74 92q-28 59 -28 138z" />
    <glyph glyph-name="eta" unicode="&#x3b7;" 
d="M199 811l-88 37l45 209h352v-137q61 66 144 115q82 48 177 48q104 0 161 -63t57 -180q0 -55 -13 -115l-69 -330q-23 -103 -23 -129q0 -51 57 -51h50v-184q-69 -36 -127 -47t-105 -11q-110 0 -165 50q-54 49 -54 135q0 33 5 75q3 22 13 74l82 400q1 5 3 17q1 6 1 21
q0 38 -17 52t-44 14q-31 0 -57 -10t-64 -39l-162 -762h-331z" />
    <glyph glyph-name="theta" unicode="&#x3b8;" horiz-adv-x="1073" 
d="M479 -27q-101 0 -176 23t-121 63t-69 99q-23 58 -23 127q0 61 16 131l37 174l-88 37l45 209h426l-104 -496q-10 -43 -10 -74q0 -35 19 -57q20 -23 65 -23q24 0 53 21q30 22 51 69q44 106 75 256q31 151 48 308q-98 16 -174 41q-82 27 -143 67q-60 39 -99 99
q-37 56 -37 133q0 75 29 139q28 62 81 109t124 72q73 26 160 26q96 0 169 -25q71 -24 117 -69q39 -39 62 -84q25 -48 38 -104q14 -57 18 -119q5 -70 5 -128q0 -110 -13 -220q-14 -117 -40 -223q-27 -108 -69 -211q-42 -101 -97 -185q-72 -104 -168 -145q-95 -40 -207 -40z
M739 1012q6 94 6 174q0 66 -16 105q-16 40 -63 40q-30 0 -46 -11q-18 -12 -28 -31q-10 -18 -13 -44q-4 -32 -4 -49q0 -81 48 -124q46 -42 116 -60z" />
    <glyph glyph-name="iota" unicode="&#x3b9;" horiz-adv-x="608" 
d="M57 158q0 33 5 75q1 10 14 74l106 504l-88 37l45 209h428l-143 -662q-23 -103 -23 -129q0 -51 58 -51h49v-184q-69 -36 -127 -47t-105 -11q-109 0 -164 50t-55 135z" />
    <glyph glyph-name="kappa" unicode="&#x3ba;" horiz-adv-x="1144" 
d="M199 811l-88 37l45 209h428l-99 -465l381 465h324l-414 -475l113 -322q8 -25 21 -35t51 -10h88v-178q-41 -27 -95 -46q-51 -18 -104 -18q-104 0 -163 41q-57 40 -91 144l-125 372l-113 -530h-331z" />
    <glyph glyph-name="lambda" unicode="&#x3bb;" horiz-adv-x="1052" 
d="M-61 0l550 1057h74v143q0 64 -57 64q-25 0 -70 -10q-44 -10 -69 -19l-56 203q69 33 159 61q87 27 171 27q128 0 178 -70q49 -68 49 -205v-970q0 -25 10 -47q9 -19 46 -19h88v-178q-42 -28 -108 -46q-64 -18 -118 -18q-102 0 -163 55q-60 54 -60 162v351q0 51 2 133
q1 56 19 147h-4q-20 -69 -22 -75q-10 -40 -20 -65q-22 -58 -26 -67q-24 -54 -33 -77l-239 -537h-301z" />
    <glyph glyph-name="uni03BC" unicode="&#x3bc;" horiz-adv-x="1095" 
d="M244 -389h-330l258 1200l-88 37l45 209h426l-152 -717q-1 -7 -3 -19q-1 -6 -1 -20q0 -33 17 -52q16 -18 43 -18q30 0 55 11q27 12 59 34l164 781h332l-141 -662q-23 -103 -23 -129q0 -51 58 -51h49v-184q-69 -36 -127 -47t-105 -11q-73 0 -126 43q-54 44 -60 109
q-48 -59 -108 -106q-58 -46 -146 -46q-7 0 -19 2q-3 0 -5.5 1t-5 2.5t-3.5 1.5z" />
    <glyph glyph-name="nu" unicode="&#x3bd;" horiz-adv-x="956" 
d="M127 811l-100 37l45 209h360l21 -439q4 -82 -2 -175q-5 -76 -19 -171h4q17 85 46 169q28 81 71 175l207 441h303l-561 -1057h-309z" />
    <glyph glyph-name="xi" unicode="&#x3be;" horiz-adv-x="923" 
d="M37 340q0 110 47 210q46 97 137 175q91 74 185 92q-90 23 -150 97q-59 74 -59 182q0 93 43 182q44 92 129 154q67 48 156 71t182 23q106 0 203 -25q92 -24 149 -59l-60 -279h-219v111q-10 10 -36 15q-28 5 -46 5q-32 0 -62 -10q-33 -11 -56 -37q-33 -33 -48 -84
q-14 -48 -14 -102q0 -61 34 -104q35 -44 105 -44h197l-49 -233h-168q-61 0 -97 -12q-35 -12 -71 -35q-49 -34 -76 -96q-26 -59 -26 -127q0 -64 35 -100q36 -38 110 -38h63q104 0 169 -49q67 -50 67 -147q0 -61 -23 -122t-57 -119q-33 -57 -80 -111q-54 -63 -90 -99l-139 107
q46 53 83 107q38 55 38 95q0 66 -92 66h-29q-79 0 -148 18q-65 17 -121 60q-53 40 -84 105q-32 66 -32 157z" />
    <glyph glyph-name="omicron" unicode="&#x3bf;" horiz-adv-x="1064" 
d="M641 532q21 101 28 146q9 60 9 104q0 95 -88 95q-22 0 -45 -13q-21 -12 -39 -50q-19 -39 -38 -107q-20 -70 -44 -185q-22 -103 -28 -144q-9 -58 -9 -104q0 -94 88 -94q22 0 45 13q21 12 39 49q20 41 38 106q21 73 44 184zM57 385q0 70 14 156q14 87 35 156q22 72 55 139
q33 66 68 104q66 72 154 108q86 35 207 35q94 0 169 -25q77 -26 132 -78q57 -54 86 -130q31 -81 31 -180q0 -71 -14 -155q-13 -80 -36 -157q-22 -75 -54 -139q-33 -65 -68 -102q-66 -72 -154 -108t-207 -36q-187 0 -302 103q-115 102 -116 309z" />
    <glyph glyph-name="pi" unicode="&#x3c0;" horiz-adv-x="1177" 
d="M217 805h-125l55 252h1096l-45 -209l-133 -37l-88 -416q-23 -103 -23 -129q0 -51 58 -51h49v-184q-69 -36 -127 -47t-105 -11q-109 0 -164 50t-55 135q0 33 5 75q1 10 14 74l102 498h-182l-170 -805h-332z" />
    <glyph glyph-name="rho" unicode="&#x3c1;" horiz-adv-x="1075" 
d="M244 -389h-330l197 928q30 148 72 251q40 99 103 168q60 66 144 96q81 29 199 29q188 0 296 -98q109 -99 109 -307q0 -169 -47 -319q-45 -144 -127 -246q-56 -69 -139 -104q-84 -36 -191 -36q-26 0 -98 9q-55 7 -104 20zM369 193q32 -6 51 -7q36 -2 49 -2q98 0 137 97
q21 50 35 102q14 51 31 124q14 60 22 128q8 67 8 117q0 72 -23 98q-24 27 -69 27q-32 0 -54 -14t-38 -51q-15 -34 -34 -104q-16 -57 -40 -171z" />
    <glyph glyph-name="sigma1" unicode="&#x3c2;" horiz-adv-x="876" 
d="M324 -268q46 53 83 107q37 53 37 95q0 25 -14 42q-15 18 -53 28l-60 16q-133 37 -197 130q-63 92 -63 239q0 72 14 154q13 75 38 154t58 140q35 66 73 111q62 71 157 103q96 32 213 32q86 0 172 -23q91 -24 150 -73l-51 -242h-219v142q-23 6 -52 6q-36 0 -66 -21t-52 -79
q-18 -47 -35 -102q-16 -51 -28 -110q-7 -34 -18 -110q-8 -56 -8 -98q0 -99 89 -123l43 -12q103 -29 140 -78q38 -50 38 -105q0 -60 -23 -118q-24 -60 -57 -112q-37 -57 -80 -105q-50 -55 -90 -95z" />
    <glyph glyph-name="sigma" unicode="&#x3c3;" horiz-adv-x="1103" 
d="M475 -27q-187 0 -302 103q-115 102 -116 309q0 70 11 153q11 80 34 153q24 74 67 142q42 66 107 115q72 55 164 81q98 28 191 28h526l-45 -209l-154 -43h-57q59 -59 71 -120q11 -55 11 -107q0 -60 -9 -126q-8 -62 -31 -133q-20 -62 -56 -125t-84 -108
q-119 -113 -328 -113zM471 180q35 0 60 22q22 19 44 74q34 91 56 188t22 202q0 37 -5 75q-4 29 -13 64h-29q-36 0 -60 -10q-25 -10 -46 -39q-24 -38 -45 -99t-36 -129q-18 -81 -24 -134q-8 -70 -8 -111q0 -103 84 -103z" />
    <glyph glyph-name="tau" unicode="&#x3c4;" horiz-adv-x="876" 
d="M195 215q0 62 14 121l98 469h-256l53 252h859l-45 -209l-164 -43h-115l-98 -467q-9 -41 -9 -64q0 -30 28 -42q25 -11 56 -11q36 0 48 1q32 3 47 5v-192q-58 -24 -129 -44q-63 -18 -144 -18q-112 0 -178 60q-65 59 -65 182z" />
    <glyph glyph-name="upsilon" unicode="&#x3c5;" horiz-adv-x="1067" 
d="M92 301q0 32 4 57q8 53 10 62l84 391l-88 37l45 209h426l-153 -727q-2 -14 -3 -20t-1 -19q0 -35 19 -61q19 -27 61 -27q34 0 61 21q26 21 43 93l156 740h331l-149 -699q-22 -102 -54 -168q-34 -70 -87 -119q-54 -49 -132 -73q-83 -25 -192 -25q-189 0 -285 81t-96 247z
" />
    <glyph glyph-name="phi" unicode="&#x3c6;" horiz-adv-x="1427" 
d="M674 -389h-318l78 373q-377 27 -377 395q0 70 11 155q11 82 34 158t65 147q43 73 99 122q38 35 85 61q44 24 118 53l106 -155q-11 -10 -35 -38q-15 -18 -32 -48q-32 -61 -55 -134q-26 -82 -42 -154q-18 -79 -27 -152q-9 -72 -9 -124q0 -53 29 -72q30 -19 71 -24l117 543
q23 109 60 179q38 71 87 113q49 41 111 58q60 16 133 16q105 0 175 -35q75 -37 120 -93q49 -60 70 -128q22 -70 22 -145q0 -74 -11 -148q-12 -80 -36 -160q-24 -78 -63 -151q-38 -69 -97 -121q-68 -58 -161 -88q-93 -29 -248 -34zM795 174q50 6 92 37q41 30 65 98
q16 45 33 105q17 64 30 122q14 66 21 124q8 67 8 112q0 34 -8 71q-7 34 -45 34q-20 0 -38 -21q-16 -19 -27 -74z" />
    <glyph glyph-name="chi" unicode="&#x3c7;" horiz-adv-x="1105" 
d="M373 545l-121 266l-92 37l43 209h319l123 -324h4l242 324h301l-453 -543l109 -254q12 -27 21 -35q11 -10 46 -10h64v-178q-38 -27 -94 -46q-53 -18 -107 -18t-96 13q-40 12 -66 34t-45 58q-17 33 -36 80l-60 151h-4l-219 -309h-313z" />
    <glyph glyph-name="psi" unicode="&#x3c8;" horiz-adv-x="1382" 
d="M76 309q0 33 4 58q7 46 10 61l82 383l-88 37l45 209h414l-137 -645q-15 -63 -15 -111q0 -71 28 -96t62 -29l189 881h317l-188 -879q28 4 53 17q26 13 47 34q20 21 39 55q20 34 31 87l145 686h320l-146 -682q-28 -128 -87 -211q-58 -81 -142 -125q-60 -29 -132 -42
t-171 -15l-78 -371h-318l80 373q-167 6 -266 87q-98 80 -98 238z" />
    <glyph glyph-name="omega" unicode="&#x3c9;" horiz-adv-x="1449" 
d="M57 334q0 72 11 163q11 92 35 172q25 83 69 161q45 79 109 133q41 36 95 65q44 24 105 47l113 -155q-18 -17 -38 -38t-36 -48q-26 -43 -55 -124q-24 -67 -47 -162q-21 -87 -33 -167q-12 -83 -12 -135q0 -44 13 -58t40 -14q36 0 57 39q19 35 41 131l88 412h320l-88 -412
q-15 -60 -15 -104q0 -66 48 -66q26 0 46 22q19 21 42 89q31 95 63 229q27 114 27 238q0 52 -12 93t-42 75l119 145q154 -52 214 -153q59 -100 59 -234q0 -52 -9 -138q-8 -74 -27 -145q-20 -74 -49 -139q-31 -70 -73 -125q-52 -71 -134 -115q-80 -43 -190 -43q-53 0 -97 13
q-43 13 -68 32q-28 22 -46 50q-12 19 -32 59q-19 -25 -51 -59q-29 -30 -61 -50q-31 -19 -78 -32t-101 -13q-91 0 -151 27q-61 27 -98 75q-38 48 -54 113q-17 68 -17 146z" />
    <glyph glyph-name="iotadieresis" unicode="&#x3ca;" horiz-adv-x="608" 
d="M57 158q0 33 5 75q1 10 14 74l106 504l-88 37l45 209h428l-143 -662q-23 -103 -23 -129q0 -51 58 -51h49v-184q-69 -36 -127 -47t-105 -11q-109 0 -164 50t-55 135zM625 1161q-68 0 -115 47t-47 117q0 72 45 120t110 48q70 0 119 -48t49 -120q0 -71 -48 -117
q-49 -47 -113 -47zM203 1161q-65 0 -114 47q-48 46 -48 117q0 72 45 120t111 48q67 0 117 -48q51 -49 51 -120q0 -70 -49 -117t-113 -47z" />
    <glyph glyph-name="upsilondieresis" unicode="&#x3cb;" horiz-adv-x="1067" 
d="M92 301q0 32 4 57q8 53 10 62l84 391l-88 37l45 209h426l-153 -727q-2 -14 -3 -20t-1 -19q0 -35 19 -61q19 -27 61 -27q34 0 61 21q26 21 43 93l156 740h331l-149 -699q-22 -102 -54 -168q-34 -70 -87 -119q-54 -49 -132 -73q-83 -25 -192 -25q-189 0 -285 81t-96 247z
M905 1161q-67 0 -114 47q-48 48 -48 117q0 72 45 120t111 48q69 0 119 -48q49 -48 49 -120q0 -71 -48 -117q-49 -47 -114 -47zM483 1161q-64 0 -113 47q-48 46 -48 117q0 72 45 120t110 48q69 0 118 -48q50 -48 50 -120q0 -71 -48 -117q-49 -47 -114 -47z" />
    <glyph glyph-name="omicrontonos" unicode="&#x3cc;" horiz-adv-x="1064" 
d="M641 532q21 101 28 146q9 60 9 104q0 95 -88 95q-22 0 -45 -13q-21 -12 -39 -50q-19 -39 -38 -107q-20 -70 -44 -185q-22 -103 -28 -144q-9 -58 -9 -104q0 -94 88 -94q22 0 45 13q21 12 39 49q20 41 38 106q21 73 44 184zM57 385q0 70 14 156q14 87 35 156q22 72 55 139
q33 66 68 104q66 72 154 108q86 35 207 35q94 0 169 -25q77 -26 132 -78q57 -54 86 -130q31 -81 31 -180q0 -71 -14 -155q-13 -80 -36 -157q-22 -75 -54 -139q-33 -65 -68 -102q-66 -72 -154 -108t-207 -36q-187 0 -302 103q-115 102 -116 309zM750 1536h319l-283 -369h-219
z" />
    <glyph glyph-name="upsilontonos" unicode="&#x3cd;" horiz-adv-x="1067" 
d="M92 301q0 32 4 57q8 53 10 62l84 391l-88 37l45 209h426l-153 -727q-2 -14 -3 -20t-1 -19q0 -35 19 -61q19 -27 61 -27q34 0 61 21q26 21 43 93l156 740h331l-149 -699q-22 -102 -54 -168q-34 -70 -87 -119q-54 -49 -132 -73q-83 -25 -192 -25q-189 0 -285 81t-96 247z
M748 1536h319l-283 -369h-219z" />
    <glyph glyph-name="omegatonos" unicode="&#x3ce;" horiz-adv-x="1449" 
d="M57 334q0 72 11 163q11 92 35 172q25 83 69 161q45 79 109 133q41 36 95 65q44 24 105 47l113 -155q-18 -17 -38 -38t-36 -48q-26 -43 -55 -124q-24 -67 -47 -162q-21 -87 -33 -167q-12 -83 -12 -135q0 -44 13 -58t40 -14q36 0 57 39q19 35 41 131l88 412h320l-88 -412
q-15 -60 -15 -104q0 -66 48 -66q26 0 46 22q19 21 42 89q31 95 63 229q27 114 27 238q0 52 -12 93t-42 75l119 145q154 -52 214 -153q59 -100 59 -234q0 -52 -9 -138q-8 -74 -27 -145q-20 -74 -49 -139q-31 -70 -73 -125q-52 -71 -134 -115q-80 -43 -190 -43q-53 0 -97 13
q-43 13 -68 32q-28 22 -46 50q-12 19 -32 59q-19 -25 -51 -59q-29 -30 -61 -50q-31 -19 -78 -32t-101 -13q-91 0 -151 27q-61 27 -98 75q-38 48 -54 113q-17 68 -17 146zM913 1536h320l-283 -369h-219z" />
    <glyph glyph-name="uni03D0" unicode="&#x3d0;" horiz-adv-x="1130" 
d="M272 -389h-325l295 1483q24 126 69 208q45 83 109 133q62 49 145 70t183 21q179 0 280 -86q100 -85 100 -221q0 -66 -19 -124q-21 -63 -56 -113q-37 -51 -88 -92q-50 -40 -115 -63q100 -29 162 -104q63 -76 63 -203q0 -74 -17 -136q-19 -68 -45 -124q-26 -55 -64 -104
q-39 -50 -75 -78q-79 -64 -164 -83q-89 -20 -173 -20q-40 0 -98 10q-54 9 -87 25zM391 209q18 -5 51 -10q24 -4 45 -4q97 0 150 63q21 26 34 56q15 34 24 72q12 49 15 77q5 43 5 69q0 76 -28 126q-28 49 -85 49h-22l49 229h28q43 0 75 30t52 72q21 44 30 93t9 86
q0 62 -22 88t-68 26q-73 0 -108 -63q-37 -67 -54 -158z" />
    <glyph glyph-name="theta1" unicode="&#x3d1;" horiz-adv-x="1095" 
d="M444 -27q-94 0 -164 24t-117 77q-45 51 -70 139q-23 82 -23 213q0 54 4 109q5 69 13 130q9 68 24 142q20 98 34 147q22 81 46 148q22 62 58 134q31 63 69 114t81 84q66 46 129 69q64 23 156 23t167 -25q71 -24 122 -78q49 -53 75 -141q25 -87 25 -213q0 -111 -15 -238
q-14 -121 -47 -252q-30 -120 -82 -243q-47 -112 -120 -205q-55 -72 -139 -115q-83 -43 -226 -43zM705 866q22 118 37 215q14 92 14 138q0 57 -19 81q-18 23 -55 23q-33 0 -54 -15t-40 -57q-21 -43 -46 -142q-25 -98 -53 -243h216zM467 176q42 0 67 34q26 36 50 120
q10 31 33 130q19 82 42 187h-215q-20 -111 -37 -216q-14 -89 -14 -138q0 -117 74 -117z" />
    <glyph glyph-name="uni0400" unicode="&#x400;" horiz-adv-x="1087" 
d="M905 516h-168l-10 109h-156l-88 -410h224l92 203h227l-86 -418h-1001l36 170l142 35l215 999l-127 35l39 188h966l-88 -403h-219v188h-207l-78 -374h154l51 102h168zM498 1706l178 250l371 -303l-125 -168z" />
    <glyph glyph-name="afii10023" unicode="&#x401;" horiz-adv-x="1087" 
d="M905 516h-168l-10 109h-156l-88 -410h224l92 203h227l-86 -418h-1001l36 170l142 35l215 999l-127 35l39 188h966l-88 -403h-219v188h-207l-78 -374h154l51 102h168zM991 1524q-67 0 -114 47q-48 48 -48 117q0 71 45 119t111 48q69 0 119 -48q49 -48 49 -119
q0 -70 -48 -117q-49 -47 -114 -47zM569 1524q-64 0 -113 47q-48 47 -48 117q0 71 45 119t110 48q69 0 118 -48q50 -48 50 -119q0 -70 -48 -117q-49 -47 -114 -47z" />
    <glyph glyph-name="afii10051" unicode="&#x402;" horiz-adv-x="1544" 
d="M918 1223l-84 -392q72 43 153 64q79 20 141 20q144 0 222 -68q80 -69 80 -229q0 -101 -23 -218q-23 -115 -78 -209q-56 -96 -149 -156q-95 -62 -238 -62l-49 193q48 19 78 44q31 27 49 68q19 44 29 105q10 62 18 160q4 55 -25 83q-28 27 -79 27q-88 0 -175 -41l-135 -612
h-501l38 188l148 35l215 1000h-115l-104 -256h-221l98 460h1165l-90 -421h-213l-8 217h-147z" />
    <glyph glyph-name="afii10052" unicode="&#x403;" horiz-adv-x="1056" 
d="M670 174l-39 -174h-692l36 170l142 35l215 999l-127 35l39 188h987l-101 -460h-217l11 245h-228l-215 -1007zM575 1667l441 299l143 -264l-487 -215z" />
    <glyph glyph-name="afii10053" unicode="&#x404;" horiz-adv-x="1079" 
d="M580 188q29 0 53 3q22 3 59 14l92 201h224l-76 -359q-40 -22 -89 -36q-42 -12 -100 -22q-59 -10 -101 -13q-50 -3 -93 -3q-109 0 -199 29q-87 28 -150 88t-96 153q-32 90 -32 220q0 100 18 217q17 112 50 226q30 104 76 204q42 91 97 154q89 99 206 145q115 45 257 45
q130 0 228 -29q94 -28 167 -75l-67 -326h-227v190q-25 13 -49 19q-26 6 -60 6q-64 0 -104 -29q-39 -28 -76 -112q-21 -44 -42 -116q-21 -70 -42 -153h393l-49 -221h-391q-14 -85 -20 -134q-7 -59 -7 -107q0 -94 31 -137q30 -42 119 -42z" />
    <glyph glyph-name="afii10054" unicode="&#x405;" horiz-adv-x="1054" 
d="M70 426h227v-193q57 -45 147 -45q86 0 130 44t44 118q0 79 -34 126q-36 50 -125 102q-75 44 -127 90q-51 45 -83 95q-31 49 -45 107q-14 59 -14 129q0 115 39 200q38 84 107 142t157 85q92 28 191 28q110 0 221 -24t185 -74l-66 -318h-231v189q-44 12 -86 12
q-85 0 -135 -33t-50 -125q0 -32 7 -56q8 -27 28 -50q26 -30 57 -52q50 -36 97 -63q53 -31 98 -66q47 -36 84 -84q36 -46 58 -112t22 -147q0 -93 -30 -179q-31 -87 -91 -152q-62 -66 -155 -107q-92 -40 -220 -40q-175 0 -293 45t-184 111z" />
    <glyph glyph-name="afii10055" unicode="&#x406;" horiz-adv-x="739" 
d="M-25 170l142 35l215 999l-127 35l39 188h639l-39 -188l-148 -35l-215 -999l131 -35l-37 -170h-636z" />
    <glyph glyph-name="afii10056" unicode="&#x407;" horiz-adv-x="739" 
d="M799 1532q-68 0 -115 47t-47 117q0 72 45 120t111 48q69 0 118 -48q50 -48 50 -120q0 -70 -49 -117t-113 -47zM377 1532q-65 0 -114 47q-48 47 -48 117q0 72 45 120t111 48q67 0 117 -48q51 -49 51 -120q0 -70 -49 -117t-113 -47zM-25 170l142 35l215 999l-127 35l39 188
h639l-39 -188l-148 -35l-215 -999l131 -35l-37 -170h-636z" />
    <glyph glyph-name="afii10057" unicode="&#x408;" horiz-adv-x="739" 
d="M469 145q-26 -118 -77 -207q-48 -84 -123 -150q-68 -59 -165 -104q-96 -44 -200 -73l-54 182q57 28 104 63q45 34 70 71q30 45 46 92q17 48 34 126l228 1059l-127 35l39 188h639l-39 -188l-148 -35z" />
    <glyph glyph-name="afii10058" unicode="&#x409;" horiz-adv-x="1802" 
d="M1432 1239l-148 -35l-74 -348h90q135 0 226 -31q87 -29 138 -79q52 -50 69 -108q18 -60 18 -120q0 -45 -9 -99t-26 -108q-18 -57 -40 -101q-26 -51 -52 -79q-68 -76 -173 -103q-107 -28 -222 -28h-703l37 170l142 35l215 1001h-199l-141 -555q-48 -190 -96 -324
q-47 -133 -98 -208q-53 -78 -118 -111q-66 -33 -155 -33q-28 0 -55 3q-7 1 -60 8l-39 278q14 -1 38 -3q12 -1 36 -1q47 0 87 13q43 14 80 57q38 45 72 122q36 82 68 210l133 542h-2l-139 35l39 188h1099zM1153 213q54 0 93 10q41 11 65 39q12 13 25 49q12 34 21 70
q10 42 14 73q5 40 5 58q0 57 -29 93q-30 38 -110 38h-74l-92 -430h82z" />
    <glyph glyph-name="afii10059" unicode="&#x40a;" horiz-adv-x="1927" 
d="M1556 1239l-147 -35l-74 -348h90q135 0 226 -31q87 -29 138 -79q52 -50 69 -108q18 -60 18 -120q0 -45 -9 -99t-26 -108q-18 -57 -40 -101q-26 -51 -52 -79q-68 -76 -173 -103q-107 -28 -222 -28h-703l37 170l141 35l89 411h-347l-90 -411l131 -35l-37 -170h-636l36 170
l142 35l215 999l-127 35l39 188h639l-39 -188l-148 -35l-78 -366h347l79 366l-126 35l38 188h639zM1278 213q54 0 93 10q41 11 65 39q12 13 25 49q12 34 21 70q10 42 14 73q5 40 5 58q0 56 -30 93q-30 38 -109 38h-74l-92 -430h82z" />
    <glyph glyph-name="afii10060" unicode="&#x40b;" horiz-adv-x="1544" 
d="M918 1223l-84 -392q32 21 61 34q33 14 71 27q31 10 71 17q36 6 65 6q80 0 138 -15t95 -52t55 -98q17 -58 17 -154q0 -45 -10 -98q-9 -49 -23 -109l-39 -166l127 -35l-39 -188h-598l39 188l123 33l53 252q6 30 9 44q4 19 4 38q0 98 -97 98q-42 0 -85 -9t-83 -32l-135 -612
h-501l38 188l148 35l215 1000h-115l-104 -256h-221l98 460h1165l-90 -421h-213l-8 217h-147z" />
    <glyph glyph-name="afii10061" unicode="&#x40c;" horiz-adv-x="1368" 
d="M1227 0h-402l-217 709l441 510l-103 20l37 188h487l-36 -188l-121 -33l-359 -409l201 -609l107 -18zM-25 170l142 35l215 999l-127 35l39 188h639l-39 -188l-148 -35l-215 -999l131 -35l-37 -170h-636zM672 1667l440 299l143 -264l-487 -215z" />
    <glyph glyph-name="uni040D" unicode="&#x40d;" horiz-adv-x="1443" 
d="M-25 170l142 35l215 999l-127 35l39 188h639l-39 -188l-148 -35l-71 -330q-20 -92 -54 -188q-36 -103 -67 -188h14q4 8 16.5 29.5t20.5 36.5q12 21 48 83q17 29 53 87q21 34 55 83l405 610h471l-39 -188l-147 -35l-215 -999l131 -35l-35 -170h-639l37 170l141 35l84 395
q24 105 50 184q31 96 69 197l-16 2q-17 -37 -71 -140q-41 -80 -95 -161l-449 -682h-454zM711 1706l178 250l371 -303l-125 -168z" />
    <glyph glyph-name="afii10062" unicode="&#x40e;" horiz-adv-x="1288" 
d="M856 1544q-107 0 -179 25q-68 24 -108 65q-39 40 -51 93q-12 51 -10 110l272 43q-5 -47 20 -85q24 -38 91 -38q59 0 108 27t70 96l270 -43q-51 -147 -167 -221q-115 -73 -316 -72zM928 1239l41 188h493l-41 -188l-96 -23q-113 -207 -192 -354q-75 -139 -137 -248
q-66 -117 -91 -162q-42 -77 -55 -99q-15 -26 -33 -55q-16 -26 -20 -34q-54 -89 -102 -154q-49 -66 -92 -101q-47 -37 -96 -54q-48 -16 -114 -16q-41 0 -90 6l-65 284q66 -4 112 3q48 8 81 25t57 44q26 30 47 64l-279 847l-82 27l41 188h571l-41 -188l-120 -22l88 -347
q13 -54 16 -66q10 -48 15 -71q11 -51 13 -63q5 -32 5 -45h4q15 43 32 86q23 59 24 61q12 27 21 48q10 24 21 44l185 353z" />
    <glyph glyph-name="afii10145" unicode="&#x40f;" horiz-adv-x="1441" 
d="M385 -395l119 395h-565l38 188l148 35l215 1000l-131 34l37 170h637l-37 -170l-141 -34l-216 -1002h338l215 1002l-131 34l37 170h637l-37 -170l-141 -34l-215 -1000l127 -35l-39 -188h-551l-53 -395h-291z" />
    <glyph glyph-name="afii10017" unicode="&#x410;" horiz-adv-x="1267" 
d="M731 358h-354l-76 -163l137 -25l-37 -170h-503l36 170l97 25l614 1232h336l123 -1228l82 -29l-37 -170h-586l37 170l145 25zM475 567h238l-11 111q-12 135 -11 230q2 108 7 182h-2q-25 -88 -65 -181q-46 -108 -103 -229z" />
    <glyph glyph-name="afii10018" unicode="&#x411;" horiz-adv-x="1222" 
d="M1165 967h-217l10 245h-262l-73 -348h98q137 0 225 -30q87 -29 138 -79t69 -109q18 -60 18 -120q0 -41 -8 -100q-7 -56 -24 -111q-17 -56 -40 -104q-25 -52 -52 -80q-68 -75 -174 -103q-107 -28 -222 -28h-712l36 170l142 35l215 999l-127 35l39 188h1022zM575 213
q55 0 94 10q40 10 64 39q14 15 26 50q11 32 19 73q13 67 14 76q5 42 5 59q0 56 -30 93q-30 38 -110 38h-82l-92 -438h92z" />
    <glyph glyph-name="afii10019" unicode="&#x412;" horiz-adv-x="1234" 
d="M586 213q54 0 93 10q40 10 64 39q13 14 26 47q11 26 19 67q13 64 14 69q5 38 5 57q0 56 -30 93q-30 38 -109 38h-95l-90 -420h103zM684 836q53 0 86 12q32 12 49 35q17 19 29 48q13 32 21 62q12 44 15 65q5 35 5 56q0 47 -26 75t-77 28h-86l-84 -381h68zM850 1427
q212 0 303 -82q92 -83 92 -227q0 -183 -83 -274t-212 -109q103 -18 167 -97q65 -80 65 -202q0 -43 -11 -92q-12 -51 -28 -91q-19 -45 -45 -83q-27 -39 -60 -66q-123 -104 -364 -104h-735l36 170l142 35l215 999l-127 35l39 188h606z" />
    <glyph glyph-name="afii10020" unicode="&#x413;" horiz-adv-x="1056" 
d="M670 174l-39 -174h-692l36 170l142 35l215 999l-127 35l39 188h987l-101 -460h-217l11 245h-228l-215 -1007z" />
    <glyph glyph-name="afii10021" unicode="&#x414;" horiz-adv-x="1429" 
d="M209 0l-113 -287h-219l107 500h168q31 37 74 115q40 72 82 171q39 91 76 202q35 104 58 210l64 295l-139 33l39 188h1105l-38 -188l-148 -35l-211 -991h217l-108 -500h-222l5 287h-797zM745 1214l-53 -253q-67 -313 -142 -490q-76 -178 -134 -258h332l215 1001h-218z" />
    <glyph glyph-name="afii10022" unicode="&#x415;" horiz-adv-x="1087" 
d="M905 516h-168l-10 109h-156l-88 -410h224l92 203h227l-86 -418h-1001l36 170l142 35l215 999l-127 35l39 188h966l-88 -403h-219v188h-207l-78 -374h154l51 102h168z" />
    <glyph glyph-name="afii10024" unicode="&#x416;" horiz-adv-x="1912" 
d="M1780 0h-402l-166 709l392 510l-103 20l37 188h487l-36 -188l-121 -33l-316 -409l156 -609l107 -18zM555 170l141 35l215 999l-127 35l39 188h639l-39 -188l-147 -35l-215 -999l131 -35l-37 -170h-637zM-45 170l106 18l398 648l-140 370l-100 33l43 188h459l-41 -186
l-100 -16l178 -525l-402 -700h-438z" />
    <glyph glyph-name="afii10025" unicode="&#x417;" horiz-adv-x="1091" 
d="M68 410h229l-10 -177q25 -20 55 -33q27 -12 72 -12q62 0 106 21t69 55q25 33 37 81q11 43 11 97q0 37 -8 72q-7 30 -31 56q-22 23 -60 37q-39 14 -98 14h-131l45 213h119q86 0 137 29q54 31 83 73t41 91q11 44 11 83q0 75 -26 101q-28 28 -78 28q-29 0 -51 -3
q-29 -4 -68 -13l-78 -168h-219l68 325q35 19 87 35q49 15 97 24q50 9 97 12q48 3 92 3q214 0 324 -79q112 -80 112 -261q0 -51 -15 -108q-16 -62 -47 -111q-34 -54 -87 -94q-56 -42 -132 -58v-16q43 -12 79 -41q34 -28 56 -65q23 -38 33 -76q10 -37 10 -72q0 -99 -27 -191
q-27 -90 -89 -160q-61 -68 -161 -109q-98 -40 -245 -40q-175 0 -293 45t-184 111z" />
    <glyph glyph-name="afii10026" unicode="&#x418;" horiz-adv-x="1443" 
d="M-25 170l142 35l215 999l-127 35l39 188h639l-39 -188l-148 -35l-71 -330q-20 -92 -54 -188q-36 -103 -67 -188h14q4 8 16.5 29.5t20.5 36.5q12 21 48 83q17 29 53 87q21 34 55 83l405 610h471l-39 -188l-147 -35l-215 -999l131 -35l-35 -170h-639l37 170l141 35l84 395
q24 105 50 184q31 96 69 197l-16 2q-17 -37 -71 -140q-41 -80 -95 -161l-449 -682h-454z" />
    <glyph glyph-name="afii10027" unicode="&#x419;" horiz-adv-x="1443" 
d="M950 1544q-108 0 -180 25q-68 24 -108 65t-53 93q-13 49 -11 110l272 43q-5 -47 20 -85q24 -38 91 -38q59 0 109 27q48 26 69 96l271 -43q-51 -147 -163 -221q-111 -74 -317 -72zM-25 170l142 35l215 999l-127 35l39 188h639l-39 -188l-148 -35l-71 -330
q-20 -92 -54 -188q-36 -103 -67 -188h14q4 8 16.5 29.5t20.5 36.5q12 21 48 83q17 29 53 87q21 34 55 83l405 610h471l-39 -188l-147 -35l-215 -999l131 -35l-35 -170h-639l37 170l141 35l84 395q24 105 50 184q31 96 69 197l-16 2q-17 -37 -71 -140q-41 -80 -95 -161
l-449 -682h-454z" />
    <glyph glyph-name="afii10028" unicode="&#x41a;" horiz-adv-x="1368" 
d="M1227 0h-402l-217 709l441 510l-103 20l37 188h487l-36 -188l-121 -33l-359 -409l201 -609l107 -18zM-25 170l142 35l215 999l-127 35l39 188h639l-39 -188l-148 -35l-215 -999l131 -35l-37 -170h-636z" />
    </font>
</defs>
</svg>
