<svg xmlns="http://www.w3.org/2000/svg" width="141" height="29" viewBox="0 0 141 29"><g><g><g><g><g><g><path fill="#fff" d="M17.595 27.649h-.075v-.534a3.859 3.859 0 0 1-.018.053 1.295 1.295 0 0 0-.024.06l-.186.438-.184-.438a.444.444 0 0 1-.012-.029l-.012-.03a.531.531 0 0 1-.01-.03l-.007-.024v.534h-.075v-.68h.087l.165.407.013.034.015.037.013.034.009.027a.355.355 0 0 1 .009-.027l.013-.035.014-.037.013-.033.167-.407h.085zm-.725-.18a.182.182 0 0 1-.015.076.167.167 0 0 1-.046.06.224.224 0 0 1-.073.04.305.305 0 0 1-.097.014.34.34 0 0 1-.235-.094l.052-.056a.357.357 0 0 0 .086.059c.03.015.064.022.1.022.046 0 .083-.01.11-.03.027-.022.04-.05.04-.086a.094.094 0 0 0-.035-.079.26.26 0 0 0-.052-.033.663.663 0 0 0-.08-.032.69.69 0 0 1-.095-.04.256.256 0 0 1-.062-.042.135.135 0 0 1-.034-.051.188.188 0 0 1 .006-.138.164.164 0 0 1 .044-.055.197.197 0 0 1 .07-.034.324.324 0 0 1 .088-.012.328.328 0 0 1 .213.073l-.05.059a.237.237 0 0 0-.168-.063.208.208 0 0 0-.061.008.126.126 0 0 0-.043.022.082.082 0 0 0-.024.032.112.112 0 0 0-.001.077.085.085 0 0 0 .023.032c.013.011.03.022.051.032.022.01.05.022.085.034.04.014.071.027.097.04a.242.242 0 0 1 .063.045.144.144 0 0 1 .033.054c.007.02.01.042.01.067zm-2.81.199h-2.807v-6.026h2.834c1.015 0 1.945.462 1.945 1.598 0 .567-.296.982-.778 1.263.637.281.955.47 1.072 1.26.204 1.38-1.066 1.905-2.265 1.905zm-3.36-1.905c.204 1.38-1.067 1.905-2.266 1.905H5.627v-6.026h2.834c1.014 0 1.944.462 1.944 1.598 0 .567-.295.982-.777 1.263.637.281.955.47 1.072 1.26zm-5.626 0c.204 1.38-1.067 1.905-2.266 1.905H.001v-6.026h2.834c1.014 0 1.944.462 1.944 1.598 0 .567-.296.982-.777 1.263.636.281.955.47 1.072 1.26zm8.933-2.97h-1.472v1.286h1.53c.896 0 .862-1.285-.058-1.285zm-5.626 0H6.91v1.286h1.53c.895 0 .862-1.285-.058-1.285zm-5.626 0H1.283v1.286h1.53c.895 0 .862-1.285-.058-1.285zm11.422 2.361h-1.642v1.375h1.642c1.134 0 1.208-1.375 0-1.375zm-5.626 0H6.909v1.375h1.642c1.134 0 1.207-1.375 0-1.375zm-5.626 0H1.283v1.375h1.642c1.134 0 1.207-1.375 0-1.375zm-.207-6.209l.359-1.222h10.218l.36 1.222h-2.742l-.488 1.662H5.947l-.489-1.662zM8.48 1.23c-.423.6-.17 1.228.34 1.598l3.636 2.64c1.654 1.2 1.715 3.39.662 4.872l-2.345 3.3-.288-.217c.501-.66.411-1.949-.278-2.454l-3.4-2.496C5.482 7.501 5.13 5.21 6.1 3.87l2.068-2.86zM6.037 9.096zm0 0l.357.256c-.164.339-.134.641.164.858l2.483 1.809c1.143.832 1.21 2.284.44 3.352l-1.247 1.727-.358-.266c.2-.323.167-.625-.256-.93l-2.462-1.778c-.91-.657-1.116-2.282-.45-3.199z"/></g></g><g><g><g><path fill="#fff" d="M126.426 13.287l2.984-8.004 2.955 8.004zm6.857 2.984l1.721 4.561h4.074L131.304 1.01h-3.615l-7.775 19.823h3.873l1.721-4.561z"/></g></g><g><g><path fill="#fff" d="M121.877 24.749c-.155.117-.352.136-.612.136h-.42v-1.273h.42c.26 0 .457.019.612.136.16.111.247.266.247.5a.558.558 0 0 1-.247.5zm-.643.766l1.007 1.73h.94l-1.15-1.829c.519-.16.92-.457.92-1.192 0-.408-.19-.735-.457-.94-.265-.203-.624-.302-1.075-.302h-1.371v4.263h.803v-1.73z"/></g><g><path fill="#fff" d="M124.564 25.62l.643-1.724.636 1.724zm1.477.642l.37.983h.878l-1.675-4.27h-.778l-1.674 4.27h.834l.37-.983z"/></g><g><path fill="#fff" d="M126.826 23.63v-.648h3.138v.649h-1.168v3.614H128V23.63z"/></g><g><path fill="#fff" d="M131.23 22.982v4.263h-.803v-4.263z"/></g><g><path fill="#fff" d="M132.868 25.15v2.095h-.785v-4.263h.853l2.119 3.107s-.013-.5-.013-1.006v-2.101h.785v4.263h-.81l-2.161-3.145s.012.544.012 1.05z"/></g><g><path fill="#fff" d="M138.706 24.897h1.804v1.711c-.148.142-.698.71-1.84.71-1.212 0-2.212-.765-2.212-2.198 0-1.372 1-2.2 2.199-2.2 1.1 0 1.594.587 1.742.742l-.538.475a1.522 1.522 0 0 0-1.204-.537c-.779 0-1.372.556-1.372 1.513 0 .958.612 1.514 1.403 1.514.784 0 1.044-.321 1.044-.321v-.785h-1.026z"/></g></g><g><g><path fill="#fff" d="M138.417 6.04v1.978h-1.076V6.04h-1.987V4.974h1.987V2.997h1.076v1.977h1.986v1.067z"/></g></g></g><g><path fill="#fff" d="M25.748 27.668V1h.337v26.668z"/><path fill="none" stroke="#fff" stroke-miterlimit="20" d="M25.748 27.668v0V1v0h.337v26.668z"/></g></g></g><g><path fill="#fff" d="M95.303 22.683a2.22 2.22 0 0 1-.642.882 3.05 3.05 0 0 1-1.098.569c-.441.133-.97.2-1.586.2-.753 0-1.438-.142-2.055-.425-.616-.284-1.095-.671-1.437-1.163l1.297-1.126c.316.359.669.615 1.059.769.39.154.802.231 1.239.231.54 0 .935-.075 1.187-.225.253-.15.379-.391.379-.725a.831.831 0 0 0-.076-.37.79.79 0 0 0-.29-.293 2.6 2.6 0 0 0-.61-.263 12 12 0 0 0-1.027-.262c-.41-.092-.789-.2-1.136-.325a3.274 3.274 0 0 1-.893-.476 1.945 1.945 0 0 1-.577-.725c-.138-.292-.206-.655-.206-1.088 0-.4.083-.759.25-1.076.168-.316.396-.585.688-.806a3.18 3.18 0 0 1 1.02-.507c.39-.116.807-.175 1.252-.175.702 0 1.317.12 1.843.363.527.242 1.004.58 1.432 1.013l-1.297 1.225a3.301 3.301 0 0 0-.931-.669c-.33-.154-.7-.231-1.111-.231-.24 0-.44.023-.603.069a1.243 1.243 0 0 0-.398.181.665.665 0 0 0-.218.25.67.67 0 0 0-.065.288c0 .142.028.26.084.356a.716.716 0 0 0 .289.257c.137.074.32.146.552.212.231.067.527.142.885.226.36.082.717.18 1.073.293.355.113.676.27.963.47.286.2.52.454.7.762.18.309.27.7.27 1.176 0 .417-.069.796-.206 1.138zm-7.517-1.138c0 .417-.07.796-.206 1.138a2.224 2.224 0 0 1-.642.882c-.291.245-.658.435-1.098.569-.44.133-.969.2-1.586.2-.753 0-1.438-.142-2.054-.425-.616-.284-1.096-.671-1.439-1.163l1.298-1.126c.316.359.669.615 1.059.769.39.154.803.231 1.239.231.54 0 .935-.075 1.188-.225.252-.15.378-.391.378-.725a.825.825 0 0 0-.077-.37.786.786 0 0 0-.288-.293 2.599 2.599 0 0 0-.61-.263 12.121 12.121 0 0 0-1.027-.262c-.411-.092-.79-.2-1.137-.325a3.275 3.275 0 0 1-.893-.476 1.949 1.949 0 0 1-.577-.725c-.138-.292-.206-.655-.206-1.088 0-.4.083-.759.25-1.076a2.41 2.41 0 0 1 .688-.806c.29-.221.631-.39 1.02-.507.39-.116.807-.175 1.252-.175.703 0 1.317.12 1.843.363.526.242 1.004.58 1.432 1.013l-1.298 1.225a3.28 3.28 0 0 0-.93-.669c-.33-.154-.7-.231-1.11-.231-.24 0-.442.023-.604.069a1.238 1.238 0 0 0-.398.181.667.667 0 0 0-.218.25.67.67 0 0 0-.066.288c0 .142.029.26.085.356a.716.716 0 0 0 .288.257c.138.074.321.146.553.212.231.067.527.142.886.226.359.082.716.18 1.072.293.355.113.677.27.963.47.286.2.52.454.7.762.18.309.27.7.27 1.176zm-15.909 2.651h-1.605l-3.3-4.778c-.112-.166-.228-.343-.353-.53a4.988 4.988 0 0 1-.276-.457c0 .083.002.206.006.368.004.163.006.34.006.532 0 .183.003.367.007.55.005.184.006.338.006.463v3.852h-1.772v-8.754h1.721l3.184 4.627c.111.167.23.344.353.531.124.188.217.34.277.457 0-.083-.003-.206-.007-.369a18.787 18.787 0 0 1-.006-.52c0-.19-.003-.378-.006-.562a22.3 22.3 0 0 1-.007-.463v-3.701h1.772zm-10.946 0v-8.754h1.798v8.754zm-1.457-2.651c0 .417-.068.796-.205 1.138-.137.342-.351.636-.642.882-.291.245-.657.435-1.098.569-.44.133-.97.2-1.586.2-.753 0-1.438-.142-2.054-.425-.617-.284-1.096-.671-1.438-1.163l1.296-1.126c.317.359.67.615 1.06.769.39.154.802.231 1.239.231.54 0 .935-.075 1.188-.225.252-.15.379-.391.379-.725a.831.831 0 0 0-.078-.37.786.786 0 0 0-.288-.293 2.578 2.578 0 0 0-.61-.263 12.22 12.22 0 0 0-1.028-.262c-.41-.092-.79-.2-1.136-.325a3.263 3.263 0 0 1-.892-.476 1.95 1.95 0 0 1-.578-.725c-.137-.292-.206-.655-.206-1.088 0-.4.084-.759.25-1.076.167-.316.397-.585.688-.806.29-.221.63-.39 1.02-.507.39-.116.807-.175 1.252-.175.702 0 1.316.12 1.843.363.527.242 1.004.58 1.432 1.013l-1.297 1.225a3.291 3.291 0 0 0-.931-.669c-.33-.154-.7-.231-1.11-.231-.24 0-.442.023-.604.069a1.24 1.24 0 0 0-.398.181.662.662 0 0 0-.219.25.672.672 0 0 0-.064.288c0 .142.028.26.084.356a.72.72 0 0 0 .289.257c.137.074.32.146.552.212.23.067.526.142.886.226.359.082.717.18 1.072.293.355.113.676.27.963.47.287.2.52.454.7.762.18.309.27.7.27 1.176zm-8.262-1.213c0 1.276-.32 2.261-.963 2.958-.642.696-1.536 1.044-2.684 1.044-.539 0-1.033-.088-1.483-.263a3.088 3.088 0 0 1-1.149-.77 3.52 3.52 0 0 1-.738-1.243c-.176-.493-.264-1.06-.264-1.701v-4.915h1.798v4.89c0 .708.163 1.267.488 1.676.326.408.775.612 1.348.612.574 0 1.026-.2 1.355-.6.33-.4.495-.955.495-1.663v-4.915h1.797zm-10.33 1.062c0-.75-.428-1.124-1.284-1.124H37.21v2.263h2.388c.437 0 .76-.102.97-.306.21-.205.314-.482.314-.833zm-.282-3.501c0-.275-.086-.484-.257-.625-.171-.142-.453-.213-.847-.213H37.21v1.664h2.376c.376 0 .64-.077.79-.232a.816.816 0 0 0 .224-.594zm1.9 4.696c-.153.355-.37.65-.648.888a2.804 2.804 0 0 1-1.008.538 4.44 4.44 0 0 1-1.31.181h-4.083v-8.754h4.122c.873 0 1.566.197 2.08.594.514.396.77.969.77 1.72 0 .375-.083.708-.25 1a1.88 1.88 0 0 1-.7.7c.36.159.66.396.9.713.24.317.359.717.359 1.2 0 .46-.077.866-.232 1.22zM60.262 5.566L58.982 6.8c-.457-.602-1.436-1.062-2.129-1.062-.342 0-.65.07-.922.207-.273.137-.501.33-.686.575a2.677 2.677 0 0 0-.421.875c-.097.338-.145.711-.145 1.12 0 .392.048.757.145 1.094.096.338.24.632.428.882.189.25.42.446.692.588.272.142.58.212.923.212.699 0 1.863-.53 2.237-1.124l1.312 1.163c-.551 1.089-2.486 1.7-3.602 1.7a4.111 4.111 0 0 1-1.648-.319 3.66 3.66 0 0 1-1.271-.907 4.07 4.07 0 0 1-.824-1.42c-.194-.554-.29-1.177-.29-1.869 0-.667.1-1.278.303-1.832.202-.555.483-1.03.843-1.426.36-.396.791-.704 1.292-.926.5-.22 1.054-.33 1.66-.33.431 0 .822.047 1.174.143.808.22 1.665.796 2.209 1.422zm13.58 18.63v-8.754h6.406v1.713h-4.56v1.513h3.828v1.701h-3.829v2.114h4.758v1.713zm25.427-11.304V4.138h6.405v1.713h-4.56v1.513h3.829v1.701h-3.829v2.114h4.758v1.713zm13.562-4.377c0-.892-.216-1.561-.646-2.007-.432-.446-1.134-.669-2.11-.669h-.975v5.352h.91c.483 0 .902-.064 1.258-.194.356-.129.649-.31.877-.544.228-.233.4-.515.514-.844.115-.33.172-.694.172-1.094zm1.897 0c0 .767-.134 1.428-.402 1.982a3.873 3.873 0 0 1-1.067 1.364 4.394 4.394 0 0 1-1.516.781 6.126 6.126 0 0 1-1.734.25h-2.754V4.138h2.887a6.86 6.86 0 0 1 1.825.23c.558.155 1.041.408 1.45.758.409.35.73.802.961 1.357.233.555.35 1.231.35 2.032zM95.434 5.864v7.028H93.59V5.864h-2.65V4.138h7.145v1.726zm-7.794 7.028V4.138h1.845v8.754zm-3.684-4.377c0-.892-.215-1.561-.645-2.007-.432-.446-1.134-.669-2.11-.669h-.974v5.352h.91c.482 0 .901-.064 1.257-.194.356-.129.649-.31.877-.544.228-.233.4-.515.514-.844.115-.33.171-.694.171-1.094zm1.497 1.982a3.876 3.876 0 0 1-1.068 1.364c-.445.354-.95.614-1.516.781a6.12 6.12 0 0 1-1.733.25h-2.755V4.138h2.886a6.86 6.86 0 0 1 1.826.23c.558.155 1.041.408 1.45.758.408.35.729.802.962 1.357.232.555.349 1.231.349 2.032 0 .767-.134 1.428-.401 1.982zm-15.051 2.395V4.138h6.405v1.713h-4.56v1.513h3.829v1.701h-3.83v2.114h4.758v1.713zm-3.117-5.94c0-.4-.116-.686-.35-.857-.232-.17-.555-.256-.968-.256h-2.412v2.25h2.412c.879 0 1.318-.379 1.318-1.138zm1.964 5.94zm0 0h-2.121l-1.929-3.076-1.644-.075v3.151H61.71V4.138h4.297c.43 0 .839.056 1.225.169.387.112.725.285 1.015.519.29.233.518.523.685.868.168.347.251.753.251 1.22 0 .659-.147 1.199-.442 1.62-.294.42-.95.815-1.538 1.032zM51.743 5.566zm0 0L50.463 6.8c-.457-.602-1.436-1.062-2.129-1.062-.343 0-.65.07-.923.207-.272.137-.5.33-.685.575a2.677 2.677 0 0 0-.422.875c-.096.338-.145.711-.145 1.12 0 .392.049.757.145 1.094.097.338.24.632.429.882a1.962 1.962 0 0 0 1.614.8c.7 0 1.864-.53 2.237-1.124l1.312 1.163c-.55 1.089-2.485 1.7-3.601 1.7a4.11 4.11 0 0 1-1.648-.319 3.658 3.658 0 0 1-1.272-.907 4.081 4.081 0 0 1-.824-1.42c-.193-.554-.29-1.177-.29-1.869 0-.667.102-1.278.304-1.832.201-.555.483-1.03.843-1.426.36-.396.79-.704 1.291-.926a4.08 4.08 0 0 1 1.661-.33c.431 0 .822.047 1.173.143.809.22 1.666.796 2.21 1.422zM40.565 9.278l-.593-1.588a30.754 30.754 0 0 1-.27-.75 8.965 8.965 0 0 1-.192-.613c-.043.166-.107.37-.19.612-.084.242-.174.492-.27.75l-.593 1.589zm1.358 3.614l-.725-1.95h-3.375l-.724 1.95h-1.977l3.532-8.754h1.793l3.505 8.754z"/></g></g></g></svg>