<svg xmlns="http://www.w3.org/2000/svg" width="72" height="79" viewBox="0 0 72 79"><g><g><g><path fill="none" stroke="#008752" stroke-linecap="round" stroke-linejoin="round" stroke-miterlimit="20" stroke-width="3" d="M54.718 16.922a4.016 4.016 0 1 0 8.033 0c0-2.219-1.647-3.243-4.017-4.016-2.108-.689-4.016-1.799-4.016-4.017a4.017 4.017 0 0 1 8.033 0"/></g><g><path fill="none" stroke="#008752" stroke-linecap="round" stroke-linejoin="round" stroke-miterlimit="20" stroke-width="3" d="M58.734 2.633V4.9"/></g><g><path fill="none" stroke="#008752" stroke-linecap="round" stroke-linejoin="round" stroke-miterlimit="20" stroke-width="3" d="M58.734 20.939v2.266"/></g><g><path fill="none" stroke="#959996" stroke-linecap="round" stroke-linejoin="round" stroke-miterlimit="20" stroke-width="3" d="M2 76.738v0-13.01a3.388 3.388 0 0 1 3.388-3.388h19.306v0"/></g><g><path fill="none" stroke="#959996" stroke-linecap="round" stroke-linejoin="round" stroke-miterlimit="20" stroke-width="3" d="M24.694 60.34v0-13.01a3.388 3.388 0 0 1 3.387-3.388h19.306v0"/></g><g><path fill="none" stroke="#959996" stroke-linecap="round" stroke-linejoin="round" stroke-miterlimit="20" stroke-width="3" d="M47.387 43.942v0-13.011a3.388 3.388 0 0 1 3.388-3.388H70.08v0"/></g><g><path fill="none" stroke="#959996" stroke-linecap="round" stroke-linejoin="round" stroke-miterlimit="20" stroke-width="3" d="M10.714 12.69a5.371 5.371 0 1 1 2.468-10.456 5.371 5.371 0 0 1-2.468 10.456z"/></g><g><path fill="none" stroke="#959996" stroke-linecap="round" stroke-linejoin="round" stroke-miterlimit="20" stroke-width="3" d="M15.791 36.9v18.652"/></g><g><path fill="none" stroke="#959996" stroke-linecap="round" stroke-linejoin="round" stroke-miterlimit="20" stroke-width="3" d="M8.105 55.234V36.9"/></g><g><path fill="none" stroke="#959996" stroke-linecap="round" stroke-linejoin="round" stroke-miterlimit="20" stroke-width="3" d="M11.948 21.088v2.24a3.966 3.966 0 0 0 3.966 3.967h8.733v0"/></g><g><path fill="none" stroke="#959996" stroke-linecap="round" stroke-linejoin="round" stroke-miterlimit="20" stroke-width="3" d="M8.105 60.34v0-5.106 0h5.922a5.106 5.106 0 0 1 5.106 5.106v0"/></g><g><path fill="none" stroke="#959996" stroke-linecap="round" stroke-linejoin="round" stroke-miterlimit="20" stroke-width="3" d="M18.171 23.765v0-1.969a6.223 6.223 0 0 0-6.223-6.222v0a6.223 6.223 0 0 0-6.223 6.222v5.577c0 3.323.818 6.595 2.38 9.528v0h3.843v0h3.843v0a20.249 20.249 0 0 0 2.084-6.076"/></g><g><g><path fill="#6cb33f" d="M36.555 70.072H15.791a2.941 2.941 0 0 1 2.942-2.941h17.822c9.57 0 17.509-7.111 18.812-16.326.218-1.544 1.57-2.674 3.13-2.674 0 12.099-9.843 21.941-21.942 21.941z"/></g></g><g><path fill="none" stroke="#008752" stroke-linecap="round" stroke-linejoin="round" stroke-miterlimit="20" stroke-width="3" d="M15.79 73.896v0h16.664v0h4.101c14.23 0 25.765-11.535 25.765-25.765v0V40.3v0"/></g><g><path fill="none" stroke="#008752" stroke-linecap="round" stroke-linejoin="round" stroke-miterlimit="20" stroke-width="3" d="M56.704 41.43v0l5.687-5.687v0l5.295 5.294v0"/></g></g></g></svg>