<svg xmlns="http://www.w3.org/2000/svg" width="83" height="81" viewBox="0 0 83 81"><g><g><g><path fill="none" stroke="#959996" stroke-linecap="round" stroke-linejoin="round" stroke-miterlimit="20" stroke-width="3" d="M56.385 64.58v14.335"/></g><g><path fill="none" stroke="#959996" stroke-linecap="round" stroke-linejoin="round" stroke-miterlimit="20" stroke-width="3" d="M65.405 78.915v-28.67"/></g><g><path fill="none" stroke="#959996" stroke-linecap="round" stroke-linejoin="round" stroke-miterlimit="20" stroke-width="3" d="M74.424 50.245v28.67"/></g><g><path fill="none" stroke="#959996" stroke-linecap="round" stroke-linejoin="round" stroke-miterlimit="20" stroke-width="3" d="M74.424 35.316v14.93"/></g><g><path fill="none" stroke="#959996" stroke-linecap="round" stroke-linejoin="round" stroke-miterlimit="20" stroke-width="3" d="M56.916 10.488a8.488 8.488 0 1 1 16.977 0 8.488 8.488 0 0 1-16.977 0z"/></g><g><path fill="none" stroke="#959996" stroke-linecap="round" stroke-linejoin="round" stroke-miterlimit="20" stroke-width="3" d="M49.433 27.374a5.523 5.523 0 0 1 5.335-4.094H76.04a5.521 5.521 0 0 1 5.521 5.521v21.444"/></g><g><path fill="none" stroke="#959996" stroke-linecap="round" stroke-linejoin="round" stroke-miterlimit="20" stroke-width="3" d="M63.583 50.245h10.84"/></g><g><path fill="none" stroke="#959996" stroke-linecap="round" stroke-linejoin="round" stroke-miterlimit="20" stroke-width="3" d="M9.138 32.277v46.638"/></g><g><path fill="none" stroke="#959996" stroke-linecap="round" stroke-linejoin="round" stroke-miterlimit="20" stroke-width="3" d="M18.157 78.915v-28.67"/></g><g><path fill="none" stroke="#959996" stroke-linecap="round" stroke-linejoin="round" stroke-miterlimit="20" stroke-width="3" d="M27.177 65.254v13.661"/></g><g><path fill="none" stroke="#959996" stroke-linecap="round" stroke-linejoin="round" stroke-miterlimit="20" stroke-width="3" d="M9.669 10.488a8.488 8.488 0 1 1 16.976 0 8.488 8.488 0 0 1-16.976 0z"/></g><g><path fill="none" stroke="#959996" stroke-linecap="round" stroke-linejoin="round" stroke-miterlimit="20" stroke-width="3" d="M2 50.245v0-21.444a5.52 5.52 0 0 1 5.52-5.52h21.274v0"/></g><g><path fill="none" stroke="#959996" stroke-linecap="round" stroke-linejoin="round" stroke-miterlimit="20" stroke-width="3" d="M9.138 50.245h10.939"/></g><g><path fill="none" stroke="#008752" stroke-linecap="round" stroke-linejoin="round" stroke-miterlimit="20" stroke-width="3" d="M37.33 52.653a4.713 4.713 0 0 0 9.425 0c0-2.603-1.932-3.805-4.713-4.712-2.474-.808-4.713-2.11-4.713-4.713a4.713 4.713 0 0 1 9.426 0"/></g><g><path fill="none" stroke="#008752" stroke-linecap="round" stroke-linejoin="round" stroke-miterlimit="20" stroke-width="3" d="M42.042 35.889v2.659"/></g><g><path fill="none" stroke="#008752" stroke-linecap="round" stroke-linejoin="round" stroke-miterlimit="20" stroke-width="3" d="M42.042 57.365v2.66"/></g><g><path fill="none" stroke="#959996" stroke-linecap="round" stroke-linejoin="round" stroke-miterlimit="20" stroke-width="3" d="M36.668 30.58c-1.42.802-3.23 1.368-5.184 2.623-2.626 1.689-4.66 4.24-6.003 7.063-2.15 4.52-2.314 9.943-.44 14.585"/></g><g><path fill="none" stroke="#959996" stroke-linecap="round" stroke-linejoin="round" stroke-miterlimit="20" stroke-width="3" d="M36.701 27.758v0l3.046-.696v0l.695 3.046v0"/></g><g><path fill="none" stroke="#959996" stroke-linecap="round" stroke-linejoin="round" stroke-miterlimit="20" stroke-width="3" d="M29.33 61.506c1.35.83 2.715 2.055 4.698 3.077 2.775 1.43 6.002 1.917 9.118 1.668 4.99-.397 9.768-2.968 12.85-6.912"/></g><g><path fill="none" stroke="#959996" stroke-linecap="round" stroke-linejoin="round" stroke-miterlimit="20" stroke-width="3" d="M26.704 62.788v0l-2.126-2.29v0l2.29-2.125v0"/></g><g><path fill="none" stroke="#959996" stroke-linecap="round" stroke-linejoin="round" stroke-miterlimit="20" stroke-width="3" d="M59.626 52.028c.074-1.518.406-3.235.306-5.338-.15-3.119-1.342-6.156-3.115-8.73-2.839-4.122-7.454-6.976-12.41-7.673"/></g><g><path fill="none" stroke="#959996" stroke-linecap="round" stroke-linejoin="round" stroke-miterlimit="20" stroke-width="3" d="M62.04 53.931v0l-.92 2.986v0l-2.986-.92v0"/></g><g><path fill="#4eab09" d="M12.924 39.74A22.965 22.965 0 0 1 23.907 28.5l2.987-1.434H12.924z"/></g><g><path fill="#4eab09" d="M70.888 39.74A22.965 22.965 0 0 0 59.903 28.5l-2.987-1.434h13.972z"/></g></g></g></svg>