<svg xmlns="http://www.w3.org/2000/svg" width="83" height="75" viewBox="0 0 83 75"><g><g><g><g><path fill="none" stroke="#959996" stroke-linecap="round" stroke-linejoin="round" stroke-miterlimit="20" stroke-width="3" d="M6.403 7.091v61.284h69.68v0"/></g><g><path fill="none" stroke="#959996" stroke-linecap="round" stroke-linejoin="round" stroke-miterlimit="20" stroke-width="3" d="M10.805 6.403v0L6.403 2v0L2 6.403v0"/></g><g><path fill="none" stroke="#959996" stroke-linecap="round" stroke-linejoin="round" stroke-miterlimit="20" stroke-width="3" d="M77.053 72.61v0l4.234-4.235v0l-4.234-4.235v0"/></g><g><g><path fill="#008752" d="M28.74 30.17a4.205 4.205 0 1 1 8.409 0 4.205 4.205 0 0 1-8.41 0z"/><path fill="none" stroke="#008752" stroke-linecap="round" stroke-linejoin="round" stroke-miterlimit="20" stroke-width="3" d="M28.74 30.17a4.205 4.205 0 1 1 8.409 0 4.205 4.205 0 0 1-8.41 0z"/></g><g><path fill="#008752" d="M42.297 43.374a4.205 4.205 0 1 1 8.41 0 4.205 4.205 0 0 1-8.41 0z"/><path fill="none" stroke="#008752" stroke-linecap="round" stroke-linejoin="round" stroke-miterlimit="20" stroke-width="3" d="M42.297 43.374a4.205 4.205 0 1 1 8.41 0 4.205 4.205 0 0 1-8.41 0z"/></g><g><path fill="#008752" d="M63.424 21.76a4.205 4.205 0 1 1 8.41 0 4.205 4.205 0 0 1-8.41 0z"/><path fill="none" stroke="#008752" stroke-linecap="round" stroke-linejoin="round" stroke-miterlimit="20" stroke-width="3" d="M63.424 21.76a4.205 4.205 0 1 1 8.41 0 4.205 4.205 0 0 1-8.41 0z"/></g><g><path fill="none" stroke="#008752" stroke-linecap="round" stroke-miterlimit="20" stroke-width="3" d="M29.584 32.69l-10.258 9.471"/></g><g><path fill="none" stroke="#008752" stroke-linecap="round" stroke-miterlimit="20" stroke-width="3" d="M36.304 32.69l7.516 7.444"/></g><g><path fill="none" stroke="#008752" stroke-linecap="round" stroke-miterlimit="20" stroke-width="3" d="M49.684 40.63l14.889-15.984"/></g></g><g><g><path fill="none" stroke="#959996" stroke-linecap="round" stroke-miterlimit="20" stroke-width="3" d="M19.276 64.497v-2.892"/></g><g><path fill="none" stroke="#959996" stroke-linecap="round" stroke-miterlimit="20" stroke-width="3" d="M25.852 64.497v-2.892"/></g><g><path fill="none" stroke="#959996" stroke-linecap="round" stroke-miterlimit="20" stroke-width="3" d="M32.427 64.497v-2.892"/></g><g><path fill="none" stroke="#959996" stroke-linecap="round" stroke-miterlimit="20" stroke-width="3" d="M39.004 64.497v-2.892"/></g><g><path fill="none" stroke="#959996" stroke-linecap="round" stroke-miterlimit="20" stroke-width="3" d="M45.58 64.497v-2.892"/></g><g><path fill="none" stroke="#959996" stroke-linecap="round" stroke-miterlimit="20" stroke-width="3" d="M52.156 64.497v-2.892"/></g><g><path fill="none" stroke="#959996" stroke-linecap="round" stroke-miterlimit="20" stroke-width="3" d="M58.732 64.497v-2.892"/></g><g><path fill="none" stroke="#959996" stroke-linecap="round" stroke-miterlimit="20" stroke-width="3" d="M65.308 64.497v-2.892"/></g></g><g><g><path fill="none" stroke="#959996" stroke-linecap="round" stroke-miterlimit="20" stroke-width="3" d="M14.5 55.502h-2.892"/></g><g><path fill="none" stroke="#959996" stroke-linecap="round" stroke-miterlimit="20" stroke-width="3" d="M14.5 48.926h-2.892"/></g><g><path fill="none" stroke="#959996" stroke-linecap="round" stroke-miterlimit="20" stroke-width="3" d="M14.5 42.35h-2.892"/></g><g><path fill="none" stroke="#959996" stroke-linecap="round" stroke-miterlimit="20" stroke-width="3" d="M14.5 35.774h-2.892"/></g><g><path fill="none" stroke="#959996" stroke-linecap="round" stroke-miterlimit="20" stroke-width="3" d="M14.5 29.198h-2.892"/></g><g><path fill="none" stroke="#959996" stroke-linecap="round" stroke-miterlimit="20" stroke-width="3" d="M14.5 22.622h-2.892"/></g><g><path fill="none" stroke="#959996" stroke-linecap="round" stroke-miterlimit="20" stroke-width="3" d="M14.5 16.045h-2.892"/></g></g></g><g><g><path fill="#ffc524" d="M46.3 30.094c-.372 0-.729-.15-.99-.412l-13.15-13.15-10.421 10.422a1.402 1.402 0 0 1-1.979 0 1.397 1.397 0 0 1 0-1.978l11.41-11.41c.525-.525 1.455-.525 1.98 0l13.15 13.15 9.657-9.658a1.393 1.393 0 0 1 1.976 0 1.396 1.396 0 0 1 0 1.98L47.288 29.681a1.402 1.402 0 0 1-.987.412z"/><path fill="none" stroke="#6cb33f" stroke-miterlimit="20" stroke-width="3" d="M46.3 30.094c-.372 0-.729-.15-.99-.412l-13.15-13.15v0L21.738 26.954a1.402 1.402 0 0 1-1.979 0 1.397 1.397 0 0 1 0-1.978l11.41-11.41c.525-.525 1.455-.525 1.98 0l13.15 13.15v0l9.657-9.658a1.393 1.393 0 0 1 1.976 0 1.396 1.396 0 0 1 0 1.98L47.288 29.681a1.402 1.402 0 0 1-.987.412z"/></g></g></g></g></svg>