<svg xmlns="http://www.w3.org/2000/svg" width="66" height="74" viewBox="0 0 66 74"><g><g><g><g><path fill="none" stroke="#959996" stroke-linecap="round" stroke-linejoin="round" stroke-miterlimit="20" stroke-width="3" d="M58.646 2a4.501 4.501 0 0 1 4.502 4.502V42.36a4.502 4.502 0 0 1-4.502 4.503H7.222a4.501 4.501 0 0 1-4.5-4.503V6.502A4.501 4.501 0 0 1 7.223 2h51.424z"/></g><g><path fill="none" stroke="#959996" stroke-linecap="round" stroke-linejoin="round" stroke-miterlimit="20" stroke-width="3" d="M17.523 46.863v0l-2.746 6.942v0h18.158v0h18.158v0l-2.747-6.942v0"/></g><g><path fill="none" stroke="#959996" stroke-linecap="round" stroke-linejoin="round" stroke-miterlimit="20" stroke-width="3" d="M58.342 59.069v0l5.258 9.489c.79 1.424-.24 3.176-1.871 3.176H32.936v0H4.142c-1.63 0-2.662-1.752-1.87-3.176l5.257-9.489v0z"/></g><g><path fill="#008752" d="M6.024 68.486l3.418-6.168h46.985l3.419 6.168z"/></g></g><g><g><g><path fill="none" stroke="#6cb33f" stroke-linecap="round" stroke-linejoin="round" stroke-miterlimit="20" stroke-width="3" d="M48.066 24.017l6.76-12.305"/></g><g><path fill="none" stroke="#6cb33f" stroke-linecap="round" stroke-linejoin="round" stroke-miterlimit="20" stroke-width="3" d="M56.118 24.017v0a2.186 2.186 0 0 1-2.187-2.188v-1.516c0-1.207.978-2.188 2.187-2.188v0c1.209 0 2.188.981 2.188 2.188v1.516c0 1.21-.98 2.188-2.188 2.188z"/></g><g><path fill="none" stroke="#6cb33f" stroke-linecap="round" stroke-linejoin="round" stroke-miterlimit="20" stroke-width="3" d="M46.923 17.603v0a2.186 2.186 0 0 1-2.187-2.187v-1.517c0-1.206.979-2.187 2.187-2.187v0c1.21 0 2.188.98 2.188 2.187v1.517c0 1.209-.979 2.187-2.188 2.187z"/></g></g><g><path fill="none" stroke="#6cb33f" stroke-linecap="round" stroke-linejoin="round" stroke-miterlimit="20" stroke-width="3" d="M27.734 42.592v0-33.85 0h10.11v33.85"/></g><g><path fill="none" stroke="#6cb33f" stroke-linecap="round" stroke-linejoin="round" stroke-miterlimit="20" stroke-width="3" d="M17.623 42.463v0-22.512 0h10.111v0"/></g><g><path fill="none" stroke="#6cb33f" stroke-linecap="round" stroke-linejoin="round" stroke-miterlimit="20" stroke-width="3" d="M37.845 28.775v0h10.11v13.687"/></g></g></g></g></svg>