<svg xmlns="http://www.w3.org/2000/svg" width="99" height="74" viewBox="0 0 99 74"><g><g><g><g><g><path fill="none" stroke="#6cb33f" stroke-linecap="round" stroke-linejoin="round" stroke-miterlimit="20" stroke-width="3" d="M20.203 8.6v15.687a3.9 3.9 0 0 1-3.102 3.82v0a3.965 3.965 0 0 0-3.155 3.884v30.82a2.843 2.843 0 0 1-2.844 2.843v0A2.842 2.842 0 0 1 8.26 62.81V31.99a3.97 3.97 0 0 0-3.159-3.884v0A3.9 3.9 0 0 1 2 24.287V8.6v0"/></g><g><path fill="none" stroke="#6cb33f" stroke-linecap="round" stroke-linejoin="round" stroke-miterlimit="20" stroke-width="3" d="M8.096 8.599v13.556"/></g><g><path fill="none" stroke="#6cb33f" stroke-linecap="round" stroke-linejoin="round" stroke-miterlimit="20" stroke-width="3" d="M14.108 8.599v13.556"/></g></g><g><path fill="none" stroke="#6cb33f" stroke-linecap="round" stroke-linejoin="round" stroke-miterlimit="20" stroke-width="3" d="M92.824 49.432V62.81a2.842 2.842 0 0 1-2.84 2.843v0a2.843 2.843 0 0 1-2.844-2.843V38.443v0V8.6v0s10.44 2.403 10.44 18.257v17.709h-2.315a2.43 2.43 0 0 0-2.428 2.412z"/></g></g><g><g><path fill="none" stroke="#959996" stroke-linecap="round" stroke-linejoin="round" stroke-miterlimit="20" stroke-width="3" d="M82.668 53.712C76.73 64.832 65.013 72.4 51.527 72.4c-15.627 0-28.883-10.166-33.512-24.244"/></g><g><path fill="none" stroke="#959996" stroke-linecap="round" stroke-linejoin="round" stroke-miterlimit="20" stroke-width="3" d="M24.272 14.732C30.744 6.868 40.548 1.854 51.527 1.854c13.804 0 25.755 7.927 31.55 19.48"/></g><g><path fill="none" stroke="#959996" stroke-linecap="round" stroke-linejoin="round" stroke-miterlimit="20" stroke-width="3" d="M27.341 37.126c0-13.358 10.829-24.187 24.187-24.187s24.187 10.829 24.187 24.187-10.83 24.187-24.187 24.187c-13.358 0-24.187-10.829-24.187-24.187z"/></g><g><path fill="#008752" d="M51.527 17.009c-1.219 0-2.41.116-3.568.325 9.394 1.687 16.55 9.917 16.55 19.793 0 9.874-7.156 18.103-16.55 19.794 1.159.208 2.349.321 3.568.321 11.092 0 20.118-9.023 20.118-20.115 0-11.092-9.026-20.118-20.118-20.118z"/></g></g></g></g></svg>