<svg xmlns="http://www.w3.org/2000/svg" width="71" height="74" viewBox="0 0 71 74"><g><g><g><g><g><g><path fill="none" stroke="#959996" stroke-linecap="round" stroke-miterlimit="20" stroke-width="3" d="M25.23 22.399v0l4.532 3.725a5.987 5.987 0 0 1 2.188 4.626v1.454"/></g><g><path fill="none" stroke="#959996" stroke-linecap="round" stroke-miterlimit="20" stroke-width="3" d="M8.72 22.399v0l-4.532 3.725A5.987 5.987 0 0 0 2 30.75v9.745a5.378 5.378 0 0 0 5.38 5.377v0"/></g><g><path fill="none" stroke="#959996" stroke-linecap="round" stroke-miterlimit="20" stroke-width="3" d="M26.317 32.204v0l.023 3.191v31.803a4.682 4.682 0 0 1-4.681 4.682h-1.472v0"/></g><g><path fill="none" stroke="#959996" stroke-linecap="round" stroke-miterlimit="20" stroke-width="3" d="M7.633 32.204v0l-.024 3.191v31.803a4.682 4.682 0 0 0 4.682 4.682v0a4.682 4.682 0 0 0 4.684-4.682V48.645v0"/></g><g><path fill="none" stroke="#959996" stroke-linecap="round" stroke-miterlimit="20" stroke-width="3" d="M26.388 11.413c0 5.199-4.214 9.412-9.413 9.412a9.412 9.412 0 0 1-9.413-9.412A9.412 9.412 0 0 1 16.976 2c5.2 0 9.413 4.214 9.413 9.413z"/></g></g></g></g><g><path fill="none" stroke="#6cb33f" stroke-linecap="round" stroke-miterlimit="20" stroke-width="3" d="M43.429 51.977v0l6.437 5.74v0l9.282-11.35v0"/></g><g><path fill="none" stroke="#008752" stroke-linecap="round" stroke-miterlimit="20" stroke-width="3" d="M69.29 35c-11.452 1.35-18.564-5.235-18.564-5.235v0S43.616 36.349 32.165 35c0 0-3.576 30.337 18.56 36.88C72.866 65.337 69.29 35 69.29 35z"/></g><g><path fill="#6cb33f" d="M50.726 41.452c5.366 0 10.481.708 15.158 1.986.136-1.84.162-3.484.14-4.796a28.437 28.437 0 0 1-15.298-4.567 28.428 28.428 0 0 1-15.305 4.567 53.68 53.68 0 0 0 .131 4.799c4.681-1.279 9.802-1.99 15.174-1.99z"/></g></g></g></svg>