<svg xmlns="http://www.w3.org/2000/svg" width="73" height="73" viewBox="0 0 73 73"><g><g><g><g><g><path fill="none" stroke="#6cb33f" stroke-linecap="round" stroke-miterlimit="20" stroke-width="3" d="M47.352 52.189v0l5.841 5.208v0l8.422-10.3v0"/></g></g><g><path fill="none" stroke="#008752" stroke-linecap="round" stroke-miterlimit="20" stroke-width="3" d="M70.817 37.891c-10.392 1.224-16.843-4.75-16.843-4.75v0s-6.451 5.974-16.844 4.75c0 0-3.242 27.526 16.844 33.463C74.062 65.417 70.817 37.89 70.817 37.89z"/></g></g><g><g><path fill="none" stroke="#6cb33f" stroke-linecap="round" stroke-miterlimit="20" stroke-width="3" d="M34.43 49.817v0H23.377v0-8.127 0h-8.126v0-11.052 0h8.957v0-8.127 0H34.43v8.127h8.127v4.1"/></g><g><path fill="none" stroke="#959996" stroke-linecap="round" stroke-miterlimit="20" stroke-width="3" d="M35.141 55.922v0H9.145v0-39.517 0h39.517v16.458"/></g><g><path fill="none" stroke="#959996" stroke-linecap="round" stroke-miterlimit="20" stroke-width="3" d="M53.02 7.576H4.789a2.788 2.788 0 0 1-2.79-2.787v0A2.79 2.79 0 0 1 4.79 2h48.23c1.54 0 2.788 1.25 2.788 2.79v0a2.787 2.787 0 0 1-2.787 2.786z"/></g><g><path fill="none" stroke="#959996" stroke-linecap="round" stroke-miterlimit="20" stroke-width="3" d="M16.832 16.405v-8.83"/></g><g><path fill="none" stroke="#959996" stroke-linecap="round" stroke-miterlimit="20" stroke-width="3" d="M40.976 16.405v-8.83"/></g></g><g><path fill="#6cb33f" d="M53.978 43.578c4.87 0 9.509.643 13.754 1.803.123-1.67.144-3.162.125-4.352a25.821 25.821 0 0 1-13.878-4.144 25.795 25.795 0 0 1-13.887 4.144 48.412 48.412 0 0 0 .119 4.354c4.247-1.16 8.893-1.805 13.768-1.805z"/></g></g></g></svg>