<svg xmlns="http://www.w3.org/2000/svg" width="94" height="72" viewBox="0 0 94 72"><g><g><g><path fill="none" stroke="#959996" stroke-linecap="round" stroke-linejoin="round" stroke-miterlimit="20" stroke-width="3" d="M17.873 23.41v0l-3.344 1.012a6.394 6.394 0 0 0-4.122 3.827C9.235 31.304 7.675 36.12 6.895 39.55c-.965 4.256-1.638 7.01-1.638 13.185v10.228"/></g><g><path fill="none" stroke="#959996" stroke-linecap="round" stroke-linejoin="round" stroke-miterlimit="20" stroke-width="3" d="M18.018 36.17c.006 1.277 1.322 2.054 2.351 1.294 3.117-2.295 4.873-4.701 6.177-6.413a2.304 2.304 0 0 1 3.31-.398c.025.022.045.04.076.061 1.19 1.047 1.07 2.06-.006 3.695-.965 1.459-2.222 3.072-3.006 4.306-.8 1.254-1.426 2.598-1.981 3.98-1.762 4.386-4.587 6.268-6.562 7.067-1.372.559-2.25 1.908-2.25 3.384v9.818"/></g><g><path fill="none" stroke="#959996" stroke-linecap="round" stroke-linejoin="round" stroke-miterlimit="20" stroke-width="3" d="M22.198 53.154v0h30.35a3.61 3.61 0 0 0 3.61-3.61v-7.182 0"/></g><g><path fill="none" stroke="#959996" stroke-linecap="round" stroke-linejoin="round" stroke-miterlimit="20" stroke-width="3" d="M18.018 36.17v0V6.046A4.047 4.047 0 0 1 22.063 2h30.05a4.047 4.047 0 0 1 4.045 4.045v8.553"/></g><g><path fill="none" stroke="#959996" stroke-linecap="round" stroke-linejoin="round" stroke-miterlimit="20" stroke-width="3" d="M30.027 2v1.975c0 1.21.982 2.19 2.188 2.19h9.746a2.192 2.192 0 0 0 2.188-2.19V2v0"/></g><g><path fill="none" stroke="#959996" stroke-linecap="round" stroke-linejoin="round" stroke-miterlimit="20" stroke-width="3" d="M42.865 39.067a.564.564 0 0 1-.563-.563V17.646c0-.31.252-.563.563-.563h26.587c.312 0 .564.252.564.563v20.858a.564.564 0 0 1-.564.563z"/></g><g><path fill="none" stroke="#959996" stroke-linecap="round" stroke-linejoin="round" stroke-miterlimit="20" stroke-width="3" d="M42.302 21.581v0l13.857 7.094v0l13.857-7.094v0"/></g><g><path fill="none" stroke="#6cb33f" stroke-linecap="round" stroke-linejoin="round" stroke-miterlimit="20" stroke-width="3" d="M74.622 28.075h12.844"/></g><g><path fill="none" stroke="#6cb33f" stroke-linecap="round" stroke-linejoin="round" stroke-miterlimit="20" stroke-width="3" d="M88.479 31.576v0l3.5-3.501v0l-3.5-3.501v0"/></g><g><path fill="none" stroke="#6cb33f" stroke-linecap="round" stroke-linejoin="round" stroke-miterlimit="20" stroke-width="3" d="M72.213 15.177l9.082-9.082"/></g><g><path fill="none" stroke="#6cb33f" stroke-linecap="round" stroke-linejoin="round" stroke-miterlimit="20" stroke-width="3" d="M84.487 7.855v0-4.951 0h-4.951v0"/></g><g><path fill="none" stroke="#6cb33f" stroke-linecap="round" stroke-linejoin="round" stroke-miterlimit="20" stroke-width="3" d="M72.213 41.586l9.082 9.082"/></g><g><path fill="none" stroke="#6cb33f" stroke-linecap="round" stroke-linejoin="round" stroke-miterlimit="20" stroke-width="3" d="M84.487 48.909v4.95h-4.951v0"/></g><g><path fill="none" stroke="#959996" stroke-linecap="round" stroke-linejoin="round" stroke-miterlimit="20" stroke-width="3" d="M19.611 70.6v0-5.782c0-1.024-.83-1.854-1.851-1.854H3.852c-1.024 0-1.852.83-1.852 1.854V70.6"/></g><g><path fill="#008752" d="M56.158 31.576c-3.843 0-7.383-1.091-10.227-2.932v6.795h20.455v-6.795c-2.841 1.84-6.384 2.932-10.228 2.932z"/></g></g></g></svg>