<svg xmlns="http://www.w3.org/2000/svg" width="80" height="74" viewBox="0 0 80 74"><g><g><g><g><g><path fill="none" stroke="#6cb33f" stroke-linecap="round" stroke-miterlimit="20" stroke-width="3" d="M34.722 28.396v0-10.292 0h10.293v10.292z"/></g><g><path fill="none" stroke="#008752" stroke-linecap="round" stroke-miterlimit="20" stroke-width="3" d="M58.277 15.85v0L39.87 2v0l-18.41 13.85v0"/></g><g><path fill="none" stroke="#6cb33f" stroke-linecap="round" stroke-miterlimit="20" stroke-width="3" d="M45.015 12.933v0l-5.147-3.872v0l-5.146 3.872v0"/></g><g><path fill="none" stroke="#008752" stroke-linecap="round" stroke-miterlimit="20" stroke-width="3" d="M54.823 13.252V35.91H39.87v0H24.914v0-22.66 0"/></g></g></g><g><g><g><path fill="none" stroke="#959996" stroke-linecap="round" stroke-linejoin="round" stroke-miterlimit="20" stroke-width="3" d="M17.625 71.88a60.544 60.544 0 0 0-7.08-17.83c-2.17-3.644-4.73-7.07-6.535-10.908-1.805-3.837-2.63-8.858-1.48-12.94l4.596-15.967a2.053 2.053 0 0 1 2.55-1.39v0a6.713 6.713 0 0 1 4.54 8.337l-2.257 7.914v0"/></g><g><path fill="none" stroke="#959996" stroke-linecap="round" stroke-linejoin="round" stroke-miterlimit="20" stroke-width="3" d="M22.235 53.06v0l-4.984-6.023a34.935 34.935 0 0 1-4.074-6.14l-1.91-3.668a3.834 3.834 0 0 1 1.628-5.172v0a3.837 3.837 0 0 1 5.171 1.63l1.678 3.224a24.626 24.626 0 0 0 6.288 7.716c1.823 1.487 3.67 2.945 5.25 4.725 4.313 4.868 6.908 13.589 3.09 22.528"/></g><g><path fill="none" stroke="#959996" stroke-linecap="round" stroke-linejoin="round" stroke-miterlimit="20" stroke-width="3" d="M62.11 71.88a60.619 60.619 0 0 1 7.082-17.83c2.17-3.644 4.73-7.07 6.537-10.908 1.805-3.837 2.63-8.858 1.48-12.94l-4.597-15.967a2.056 2.056 0 0 0-2.552-1.39v0a6.712 6.712 0 0 0-4.536 8.337l2.253 7.914v0"/></g><g><path fill="none" stroke="#959996" stroke-linecap="round" stroke-linejoin="round" stroke-miterlimit="20" stroke-width="3" d="M57.501 53.06v0l4.984-6.023a34.953 34.953 0 0 0 4.074-6.14l1.912-3.668a3.837 3.837 0 0 0-1.63-5.172v0a3.833 3.833 0 0 0-5.169 1.63l-1.68 3.224a24.622 24.622 0 0 1-6.285 7.716c-1.826 1.487-3.674 2.945-5.252 4.725-4.314 4.868-6.909 13.589-3.09 22.528"/></g></g></g></g></g></svg>