<svg xmlns="http://www.w3.org/2000/svg" width="17" height="17" viewBox="0 0 17 17"><g><g><path fill="#6cb33f" d="M11.89 6.64c0 2.076-2.49 2.283-2.49 4.15H7.738c0-2.697 2.49-2.49 2.49-4.15 0-.913-.747-1.66-1.66-1.66-.913 0-1.66.747-1.66 1.66h-1.66a3.32 3.32 0 1 1 6.64 0zm3.32 1.66a6.65 6.65 0 0 0-6.641-6.64A6.65 6.65 0 0 0 1.93 8.3a6.65 6.65 0 0 0 6.64 6.64 6.65 6.65 0 0 0 6.64-6.64zm1.66 0c0 4.582-3.72 8.301-8.3 8.301a8.304 8.304 0 0 1-8.301-8.3C.269 3.718 3.987 0 8.569 0c4.582 0 8.3 3.719 8.3 8.3zm-9.131 3.32h1.66v1.66H7.74z"/></g></g></svg>