<svg xmlns="http://www.w3.org/2000/svg" width="812" height="623" viewBox="0 0 812 623"><defs><linearGradient id="hvvua" x1="125.93" x2="653.73" y1="665.14" y2="137.35" gradientUnits="userSpaceOnUse"><stop offset="0" stop-color="#e0ffcc"/><stop offset=".65" stop-color="#b7d59f"/><stop offset="1" stop-color="#a0bd86"/></linearGradient><linearGradient id="hvvub" x1=".05" x2="780.35" y1="546.19" y2="546.19" gradientUnits="userSpaceOnUse"><stop offset="0" stop-color="#6cb33f"/><stop offset=".83" stop-color="#5c863a"/><stop offset="1" stop-color="#597d39"/></linearGradient></defs><g><g><g><path fill="url(#hvvua)" d="M794.711 450.954c-34.321 55.532-102.219 75.827-166.074 95.388-65.701 17.929-127.36 35.123-191.784 46.723-64.26 12.462-127.966 18.71-195.708 25.733-66.608 4.835-137.251 10.446-189.322-28.931C26.201 569.635 8.11 538.439 2.15 496.674c-5.977-41.43.179-93.43 22.609-147.513 22.258-53.93 60.788-109.947 115.526-155.897 54.404-45.98 125.015-81.894 203.8-96.314 78.675-15.023 157.49-7.051 224.834 16.166 67.64 23.068 123.805 61.383 164.047 103.627 40.458 42.323 64.99 88.58 74.387 129.368 9.538 41.093 3.94 76.718-12.642 104.843z"/></g><g><path fill="url(#hvvub)" d="M.053 470.18c.179 9.218.882 18.078 2.097 26.494 5.958 41.765 24.051 72.961 49.673 93.192 52.07 39.377 122.714 33.766 189.322 28.931 67.741-7.022 131.447-13.27 195.708-25.731 64.424-11.602 126.082-28.796 191.783-46.725 55.88-17.117 114.854-34.797 151.715-76.161z"/></g><g><g><path fill="#f2f0ed" d="M282.834 99.22H187.86c-6 0-11.17 4.902-12.36 11.717 0 0-17.265 102.278-7.757 221.23.093 1.154.298 2.297.45 3.455h135.61l1.314-12.403c.426-4.004.824-8.01 1.203-12.017 4.941-52.524 3.039-105.61-4.749-157.67l-6.31-42.194c-1.049-7.002-6.292-12.117-12.426-12.117z"/></g><g><g><path fill="#ebe8e6" d="M209.148 144.978a3.417 3.417 0 0 1-3.418-3.418v-27.683a3.417 3.417 0 0 1 3.417-3.417h82.04a3.416 3.416 0 0 1 3.416 3.417v27.684a3.417 3.417 0 0 1-3.417 3.417z"/></g><g><path fill="#ebe8e6" d="M209.257 189.766a3.526 3.526 0 0 1-3.527-3.526v-27.464a3.526 3.526 0 0 1 3.526-3.526h87.605a3.526 3.526 0 0 1 3.526 3.527v27.463a3.526 3.526 0 0 1-3.525 3.526z"/></g><g><path fill="#ebe8e6" d="M209.257 234.554a3.526 3.526 0 0 1-3.527-3.526v-27.464a3.526 3.526 0 0 1 3.526-3.526h87.605a3.526 3.526 0 0 1 3.526 3.527v27.464a3.526 3.526 0 0 1-3.526 3.525z"/></g><g><path fill="#ebe8e6" d="M209.257 279.344a3.526 3.526 0 0 1-3.527-3.527v-27.465a3.526 3.526 0 0 1 3.526-3.525h87.605a3.526 3.526 0 0 1 3.526 3.526v27.465a3.526 3.526 0 0 1-3.525 3.526z"/></g><g><path fill="#ebe8e6" d="M209.257 324.132a3.526 3.526 0 0 1-3.527-3.526v-27.464a3.526 3.526 0 0 1 3.526-3.526h87.605a3.526 3.526 0 0 1 3.526 3.526v27.464a3.526 3.526 0 0 1-3.525 3.526z"/></g></g><g><g><g><g><path fill="#e89b74" d="M293.226 200.592c8.36 4.034 25.396 8.346 28.806 9.459 3.41 1.111 29.71 7.435 29.71 7.435s8.394-.536 4.114-8.737c-.806-1.544-50.532-22.338-56.208-25.157-5.676-2.819-17.92 11.449-6.422 17z"/></g></g></g></g><g><g><g><g><path fill="#e89b74" d="M295.152 119.415s5.758 73.483 5.913 76.939c.157 3.457 9.276 11.016 15.54 4.102 1.761-1.947 6.187-73.913 5.566-79.798-.621-5.885-17.184-19.07-27.019-1.243z"/></g></g></g></g><g><path fill="#d4d4d4" d="M264.484 420.472v-52.879h14.933v52.88z"/></g><g><path fill="#b8b8b8" d="M248.32 377.57v-18.458h46.895v18.458z"/></g><g><path fill="#b8b8b8" d="M262.3 454.895v-36.917h18.936v36.917z"/></g><g><path fill="#54627a" d="M259.855 486.323a2.047 2.047 0 0 1-2.047-2.047v-33.321c0-1.13.916-2.047 2.047-2.047h24.842c1.13 0 2.047.916 2.047 2.047v33.322c0 1.13-.916 2.046-2.046 2.046z"/></g><g><g><path fill="#d4d4d4" d="M360.576 511.764h-11.972v-7.731c0-10.591-8.617-19.208-19.209-19.208H215.158c-10.591 0-19.21 8.617-19.21 19.208v7.731h-11.97v-7.731c0-17.194 13.986-31.181 31.18-31.181h114.237c17.194 0 31.181 13.987 31.181 31.18z"/></g></g><g><path fill="#54627a" d="M266.259 486.323c-.98 0-1.775-.795-1.775-1.775v-21.892c0-.98.795-1.775 1.776-1.775h13.2c.98 0 1.776.795 1.776 1.776v21.89c0 .981-.795 1.776-1.776 1.776z"/></g><g><path fill="#d4d4d4" d="M265.687 511.764v-38.912h14.582v38.912z"/></g><g><path fill="#54627a" d="M182.46 524.737a1.976 1.976 0 0 1-1.976-1.976v-14.508c0-1.091.885-1.976 1.976-1.976h14.505c1.092 0 1.977.885 1.977 1.977v14.507a1.976 1.976 0 0 1-1.976 1.976z"/></g><g><path fill="#54627a" d="M265.608 524.737a1.976 1.976 0 0 1-1.976-1.977v-14.507c0-1.091.885-1.976 1.976-1.976h14.506c1.091 0 1.976.885 1.976 1.976v14.508a1.976 1.976 0 0 1-1.976 1.976z"/></g><g><path fill="#54627a" d="M348.753 524.737a1.975 1.975 0 0 1-1.976-1.976v-14.508c0-1.091.885-1.976 1.976-1.976h14.506c1.091 0 1.976.885 1.976 1.977v14.507a1.976 1.976 0 0 1-1.976 1.976z"/></g><g><g><path fill="#54627a" d="M312.835 276.848c1.377-.829 5.476-2.252 12.475-2.252h30.304c7.075 0 11.184 1.454 12.517 2.28l-11.677 81.884c-.547.112-1.322.206-2.273.206H330.92c-.998 0-1.802-.105-2.352-.22zm41.346 89.396c5.44 0 8.812-1.777 9.256-4.876l12.033-84.382c.228-1.61-.284-3.237-1.441-4.57-3.262-3.76-11.65-5.098-18.415-5.098H325.31c-6.87 0-15.34 1.374-18.525 5.225-1.144 1.387-1.601 3.054-1.283 4.699l16.194 84.324c.807 4.224 6.718 4.678 9.223 4.678h23.262z"/></g></g><g><g><g><g><path fill="#e89b74" d="M219.247 115.22s-19.107 83.221-19.984 87.048c-.874 3.829 7.158 14.882 16.36 9.229 2.59-1.592 29.729-73.075 30.819-79.702 1.087-6.627-7.814-36.483-27.195-16.575z"/></g></g></g></g><g><path fill="#d9d6d4" d="M164.103 363.353a4.263 4.263 0 0 1-4.263-4.263v-24.272a4.263 4.263 0 0 1 4.263-4.263h189.026a4.263 4.263 0 0 1 4.264 4.263v24.272a4.263 4.263 0 0 1-4.263 4.263z"/></g><g><path fill="#ebe8e6" d="M231.319 363.353a3.856 3.856 0 0 1-3.856-3.856v-25.086a3.856 3.856 0 0 1 3.856-3.856H385.23a3.856 3.856 0 0 1 3.856 3.856v25.086a3.856 3.856 0 0 1-3.856 3.856z"/></g><g><g><g><g><g><path fill="#e89b74" d="M285.425 94.225l17.634 9.593s-4.396 94.448-5.186 99.46c-.79 5.009-35.35 22.019-60.291-2.677l-16.128-86.48s32.151-19.123 33.43-20.612c0 0 11.043 10.405 30.541.716z"/></g></g></g></g></g><g><g><g><g><path fill="#323949" d="M304.445 229.066l-80.716-.493s-19.888 34.898-19.98 72.247c-.115 45.85 68.02 39.435 68.02 39.435s60.724-8.74 55.744-30.683c-10.35-45.587-23.068-80.506-23.068-80.506z"/></g></g></g></g><g><g><g><g><g><path fill="#e89b74" d="M280.02 460.662s-.19 22.772 4.33 30.079c4.524 7.308 9.162 17.733 6.784 22.252-2.382 4.52-14.027 5-21.074-.285-7.05-5.285-10.436-8.658-10.086-12.934.344-4.274 2.036-13.652 2.906-16.92 3.267-12.245 3.59-22.325 3.856-23.813 1.35-7.552 11.527-6.546 13.283 1.62z"/></g></g></g></g></g><g><g><g><g><g><path fill="#e89b74" d="M327.408 458.468s-3.93 22.43-.674 30.381c3.262 7.952 6.124 18.997 3.034 23.064-3.091 4.066-14.658 2.626-20.74-3.745-6.084-6.373-8.87-10.255-7.823-14.416 1.04-4.159 4.252-13.132 5.647-16.211 5.236-11.543 7.212-21.43 7.72-22.856 2.572-7.227 12.444-4.564 12.836 3.783z"/></g></g></g></g></g><g><path fill="#323949" d="M363.13 295.383s.736-17.296-50.635-25.53c-30.667-4.914-29.903 46.141-28.691 55.845 1.214 9.705 29.72 16.206 49.735 9.924 20.017-6.284 36.077-11.776 29.59-40.239z"/></g><g><g><g><g><path fill="#4a4141" d="M271.43 233.724c0-1.257 1.243-2.276 2.778-2.276 1.532 0 2.775 1.019 2.775 2.276 0 1.256-1.243 2.276-2.775 2.276-1.535 0-2.778-1.02-2.778-2.276z"/></g></g></g></g><g><g><g><path fill="#252b38" d="M305.146 239.605c-2.14-4.055-1.835-11.652-1.835-11.652s-28.931 7.266-34.128 7.176c-5.197-.09-36.87-5.022-36.87-5.022l.957 9.463c-.47-.025-.839-.025-.956.035-1.862.948-12.373 33.877-12.824 35.006-.452 1.13 37.924 16.807 38.828 15.678.888-1.109.447-44.466.48-46.216 3.876.368 7.919.603 11.945.577 2.67-.017 5.326-.159 7.924-.37.071 3.87.89 38.266 1.534 46.296.116 1.442 38.221-14.836 37.77-15.965-.453-1.13-10.962-34.058-12.825-35.006z"/></g></g></g><g><g><path fill="#54627a" d="M154.284 276.972c1.853-.998 7.1-2.376 15.028-2.376H204.5c8.016 0 13.293 1.41 15.09 2.412l-13.52 81.662c-.72.151-1.823.296-3.236.296h-27.009c-1.476 0-2.611-.155-3.33-.315zm48.55 89.272c4.273 0 9.504-.833 10.153-4.795l13.969-84.382c.26-1.552-.202-3.117-1.3-4.409-3.337-3.939-13.116-5.34-21.155-5.34h-35.19c-8.163 0-18.037 1.44-21.272 5.48-1.08 1.347-1.485 2.965-1.128 4.549l18.806 84.329c.84 3.776 5.96 4.568 10.11 4.568h27.008z"/></g></g><g><g><g><g><g><path fill="#4a263a" d="M555.732 225.738l-10.051-50.374 3.827-.764 10.05 50.375z"/></g></g></g><g><g><g><path fill="#4a263a" d="M547.42 177.878a.382.382 0 0 1-.448-.3l-.805-4.054a.382.382 0 0 1 .3-.449l1.419-.282a.382.382 0 0 1 .45.3l.805 4.055a.381.381 0 0 1-.3.448z"/></g></g></g><g><g><g><path fill="#4a263a" d="M555.731 225.738s2.423 3.902 2.726 3.598c.305-.304 1.101-4.362 1.101-4.362s-1.882-.781-3.827.764z"/></g></g></g><g><g><g><path fill="#cacaca" d="M545.643 177.928l-.245-1.23 5.39-1.074.245 1.23z"/></g></g></g><g><g><g><path fill="#4a263a" d="M554.452 193.957l-3.67-18.332 1.228-.246 3.67 18.332z"/></g></g></g></g><g><g><g><g><path fill="#e6994d" d="M559.642 221.9l4.24-47.5 3.885.346-4.239 47.501z"/></g></g></g><g><g><g><path fill="#eeeef0" d="M559.644 221.901s1.225 4.427 1.6 4.219c.38-.205 2.284-3.872 2.284-3.872s-1.581-1.281-3.884-.347z"/></g></g></g><g><g><g><path fill="#ed8585" d="M564.742 173.608a.554.554 0 0 1-.503-.6l.278-3.131a.555.555 0 0 1 .601-.504l2.238.199c.305.027.53.295.503.6l-.278 3.133a.553.553 0 0 1-.6.501z"/></g></g></g><g><g><g><path fill="#4a263a" d="M561.345 224.846a.437.437 0 0 0-.476.398l-.083.95a.435.435 0 0 0 .396.475.441.441 0 0 0 .475-.397l.085-.952a.438.438 0 0 0-.397-.474z"/></g></g></g><g><g><g><path fill="#cacaca" d="M563.395 175.393l.337-3.78 4.562.408-.337 3.78z"/></g></g></g></g><g><g><g><path fill="#507887" d="M587.669 162.558c-2.003.742-5.398-1.173-6.865-6.89-1.198-4.684 6.145-7.776 8.508-3.049 2.362 4.725.986 8.965-1.643 9.94zm-2.896-14.704c-7.466 1.329-7.215 7.917-4.779 11.93 2.437 4.01 5.4 6.535 5.67 7.89.267 1.353.334 10.918.334 10.918l4.337-3.598s-2.033-7.263-.645-9.48c1.388-2.218 2.206-3.156 2.767-6.022.563-2.867-.217-12.967-7.684-11.638z"/></g></g><g><g><path fill="#507887" d="M604.313 145.838c.823 3.834.156 14.926-1.976 18.504-2.135 3.576-7.995 2.646-7.22-2.645.95-6.45 1.272-11.274 1.588-15.6.299-4.112 6.786-4.089 7.608-.26zm-10.173-.953s-.037 6.477-.607 11.395c-.57 4.915-1.46 8.726-1.04 10.92.424 2.195-2.158 7.793-2.158 7.793l.864 5.87s3.398-10.672 6.628-11.415c4.63-1.065 6.14-1.752 7.83-7.06 1.69-5.308 2.276-14.322.186-18.946-2.09-4.621-10.83-3.853-11.703 1.443z"/></g></g><g><g><path fill="#babbc7" d="M585.998 178.592s-4.96 27.286-6.079 35.694c-1.12 8.406 1.7 9.368 1.7 9.368l8.715-48.66z"/></g></g><g><g><path fill="#cecfdc" d="M590.335 174.993l-4.337 3.6s-2 20.97-3.8 31.829c-1.63 9.83-.578 13.232-.578 13.232s6.25-12.366 9.58-42.79z"/></g></g><g><g><path fill="#babbc7" d="M587.488 180.9c-.789.4-1.188 1.324-.812 2.157l.054.124c.353.777 1.37 1.211 2.158.813.79-.4 1.189-1.324.813-2.155l-.056-.126c-.351-.776-1.369-1.212-2.157-.812z"/></g></g></g><g><g><g><path fill="#cecfdc" d="M605.331 189.133s-3.882.914-3.748 1.14c.137.226 7.553 25.569 7.553 25.569l3.096-.54z"/></g></g><g><g><path fill="#34485d" d="M612.142 215.334l-5.025.911-8.943-25.097-2.613-.003 13.98 39.228s4.002-1.105 6.428-4.298c2.428-3.194-3.827-10.74-3.827-10.74z"/></g></g><g><g><path fill="#405973" d="M604.57 187.135c-.012.332 4.085-1.013 5.904.428 1.818 1.44 7.86 28.908 8.29 32.548.428 3.64-2.795 5.964-2.795 5.964l-3.827-10.74z"/></g></g><g><g><path fill="#cecfdc" d="M598.175 191.148l.666-.237 8.942 25.097-.667.237z"/></g></g></g><g><g><g><path fill="#5986b5" d="M609.701 219.12a4.656 4.656 0 0 0-.656 3.29l1.148 6.636c.178 1.038 1.542 1.31 2.107.42l4.823-7.607c.62-.978-.662-8.091-.86-9.23l-1.67-1.221z"/></g></g><g><g><path fill="#db7d90" d="M624.123 196.376l-9.53 15.032 2.53 10.451 10.77-16.985c.434-.686.492-1.576.158-2.502l-1.943-5.381c-.304-.842-1.59-1.24-1.985-.615z"/></g></g></g><g><g><g><path fill="#2c3340" d="M570.434 231.886V185.9h25.535v45.986z"/></g></g><g><g><path fill="#34485d" d="M583.039 200.123c-6.085 0-11.015-4.931-11.015-11.016v-.63h22.028v.63c0 6.085-4.93 11.016-11.013 11.016z"/></g></g><g><g><path fill="#2c3340" d="M542.58 233.707v-5.257h84.05v5.257z"/></g></g><g><g><path fill="#2c3340" d="M547.626 228.45v-19.556h21.27v19.556z"/></g></g><g><g><path fill="#2c3340" d="M597.44 228.45v-14.348h27.639v14.348z"/></g></g><g><g><path fill="#34485d" d="M598.813 216.694v-1.76h24.836v1.76z"/></g></g><g><g><path fill="#34485d" d="M548.215 211.08v-1.76h20.092v1.76z"/></g></g><g><g><path fill="#586680" d="M548.948 228.45v-16.986h3.716v16.986z"/></g></g><g><g><path fill="#586680" d="M599.84 228.45v-11.022h3.717v11.022z"/></g></g><g><g><path fill="#586680" d="M579.269 228.45h-3.714v-30.382s1.86 1.43 3.714 2.056z"/></g></g></g></g><g><g><g><path fill="#3f495c" d="M272.833 233.996v-4.53c0-1.5 1.216-2.716 2.716-2.716h140.126c1.5 0 2.715 1.216 2.715 2.715v4.53z"/></g></g><g><g><g><path fill="#54627a" d="M285.328 226.75h-5.856a1.21 1.21 0 0 0-1.206 1.205c0 .664.545 1.208 1.206 1.208h5.856a1.207 1.207 0 0 0 0-2.413z"/></g></g><g><g><path fill="#54627a" d="M296.264 226.75h-5.854c-.664 0-1.206.542-1.206 1.205a1.21 1.21 0 0 0 1.206 1.208h5.854a1.21 1.21 0 0 0 1.206-1.208 1.21 1.21 0 0 0-1.206-1.205z"/></g></g><g><g><path fill="#54627a" d="M348.517 226.75h-5.852c-.665 0-1.207.542-1.207 1.205a1.21 1.21 0 0 0 1.207 1.208h5.852a1.208 1.208 0 0 0 0-2.413z"/></g></g><g><g><path fill="#54627a" d="M307.202 226.75h-5.856a1.21 1.21 0 0 0-1.206 1.205 1.21 1.21 0 0 0 1.206 1.208h5.856a1.21 1.21 0 0 0 1.206-1.208 1.21 1.21 0 0 0-1.206-1.205z"/></g></g><g><g><path fill="#54627a" d="M360.297 226.75h-5.856c-.664 0-1.206.542-1.206 1.205a1.21 1.21 0 0 0 1.206 1.208h5.856a1.21 1.21 0 0 0 1.206-1.208 1.21 1.21 0 0 0-1.206-1.205z"/></g></g><g><g><path fill="#54627a" d="M372.074 226.75h-5.856a1.21 1.21 0 0 0-1.206 1.205 1.21 1.21 0 0 0 1.206 1.208h5.856c.661 0 1.206-.544 1.206-1.208a1.21 1.21 0 0 0-1.206-1.205z"/></g></g><g><g><path fill="#54627a" d="M383.85 226.75h-5.852a1.208 1.208 0 0 0 0 2.413h5.852a1.21 1.21 0 0 0 1.207-1.208c0-.663-.542-1.205-1.207-1.205z"/></g></g><g><g><path fill="#54627a" d="M395.627 226.75h-5.852a1.21 1.21 0 0 0-1.207 1.205c0 .664.544 1.208 1.207 1.208h5.852a1.208 1.208 0 0 0 0-2.413z"/></g></g><g><g><path fill="#54627a" d="M407.407 226.75h-5.855a1.21 1.21 0 0 0-1.207 1.205c0 .664.545 1.208 1.207 1.208h5.855c.662 0 1.206-.544 1.206-1.208a1.21 1.21 0 0 0-1.206-1.205z"/></g></g><g><g><path fill="#54627a" d="M336.325 226.75h-24.04c-.664 0-1.207.542-1.207 1.205a1.21 1.21 0 0 0 1.206 1.208h24.041a1.21 1.21 0 0 0 1.206-1.208 1.21 1.21 0 0 0-1.206-1.205z"/></g></g></g></g><g><g><g><path fill="#54627a" d="M326.095 186.26a4.955 4.955 0 0 1-4.956-4.955V45.196a4.956 4.956 0 0 1 4.956-4.955h208.601a4.956 4.956 0 0 1 4.956 4.955v136.108a4.956 4.956 0 0 1-4.956 4.956z"/></g></g><g><g><path fill="#3f495c" d="M339.875 181.746a5.184 5.184 0 0 1-5.185-5.184V45.424a5.183 5.183 0 0 1 5.183-5.183h197.02a5.184 5.184 0 0 1 5.185 5.184v131.137a5.184 5.184 0 0 1-5.184 5.184z"/></g></g><g><g><path fill="#54627a" d="M492.736 223.443H386.823c-5.75 0-10.415 4.665-10.415 10.419h126.746c0-5.754-4.664-10.419-10.418-10.419z"/></g></g><g><path fill="#54627a" d="M436.117 196.596v-59.969h19.42v59.969c0 8.637-19.42 8.637-19.42 0zm21.199-97.548h-23.159c-5.407 0-9.83 4.422-9.83 9.829v116.08h42.818v-116.08c0-5.407-4.422-9.83-9.83-9.83z"/></g></g><g><g><g><g><g><g><g><path fill="#e09b9b" d="M142.996 226.143c3.403 0 5.225-.61 5.482-.702l-1.464-4.077c-.005 0-2.673.864-7.887.177-3.79-.503-5.372-4.593-5.569-7.942-.242-4.068 1.33-7.583 3.655-8.178 4.558-1.163 8.263 2.069 8.63 2.57-.004-.003-.169-.231-.235-.634l4.277-.694c-.219-1.338-1.796-2.622-3.081-3.464-1.926-1.263-5.876-3.2-10.663-1.973-5.182 1.324-7.211 7.475-6.907 12.63.392 6.579 4.051 11.28 9.326 11.977 1.697.227 3.174.31 4.436.31z"/></g></g></g></g></g></g><g><g><g><g><g><path fill="#f6abaa" d="M174.218 195.415v35.257a3.343 3.343 0 0 1-3.343 3.344h-24.358a3.343 3.343 0 0 1-3.343-3.343v-35.258z"/></g></g></g></g></g><g><g><g><g><g><path fill="#eeeef0" d="M162.1 187.754s7.459-6.44 8.037-7.882c.576-1.443-7.65-8.274-10.342-10.773-2.693-2.501-.387-7.501 1.248-8.08 1.635-.577-8.1 2.507-10.31 4.178-2.551 1.928 4.83 14.959 5.406 16.21.576 1.25-1.971 5.698-1.443 7.212.185.529 4.618 6.484 5.099 6.704.48.22-.05-5.592 2.305-7.57z"/></g></g></g></g></g><g><g><g><g><g><path fill="#eeeef0" d="M167.509 196.383h3.585a.96.96 0 1 1 0 1.922h-3.585a.959.959 0 0 1-.959-.962c0-.531.428-.96.959-.96z"/></g></g></g></g></g></g><g><path fill="#918c87" d="M478.373 514.178v-6.267h23.654v6.267z"/></g><g><g><path fill="#d4d1cf" d="M60.048 248.296v-14.434h581.68v14.434z"/></g><g><path fill="#e8e6e3" d="M183.877 519.022V248.296h19.8v270.726z"/></g><g><path fill="#e8e6e3" d="M614.745 519.022V248.296h19.8v270.726z"/></g><g><path fill="#e8e6e3" d="M512.587 519.022V248.296h19.803v270.726z"/></g><g><path fill="#e8e6e3" d="M65.919 519.022V248.296h19.8v270.726z"/></g><g><path fill="#918c87" d="M174.983 524.692v-5.67h28.695v5.67z"/></g><g><path fill="#918c87" d="M602.342 524.692v-5.67h32.203v5.67z"/></g><g><path fill="#918c87" d="M512.587 524.692v-5.67h30.316v5.67z"/></g><g><path fill="#918c87" d="M65.919 524.692v-5.67h27.183v5.67z"/></g><g><path fill="#d9d7d4" d="M532.39 519.022v-20.696h82.355v20.696z"/></g><g><path fill="#e8e6e3" d="M512.587 519.022v-15.913h121.958v15.913z"/></g><g><path fill="#d9d7d4" d="M85.72 519.022v-20.696h98.157v20.696z"/></g><g><path fill="#e8e6e3" d="M75.82 519.022v-15.913h121.958v15.913z"/></g></g><g><path fill="#d4d1cf" d="M409.888 507.71V301.493h175.537V507.71z"/></g><g><path fill="#d6d4d2" d="M482.281 530.017v-15.839h15.838v15.839z"/></g><g><path fill="#f2f0ed" d="M490.2 501.038v-193.48h95.225v193.48z"/></g><g><path fill="#918c87" d="M553.884 514.178v-6.267h23.656v6.267z"/></g><g><path fill="#918c87" d="M490.2 514.178v-6.267h23.654v6.267z"/></g><g><path fill="#918c87" d="M412.364 514.178v-6.267h23.654v6.267z"/></g><g><path fill="#e8e6e3" d="M415.77 530.017v-15.839h15.84v15.839z"/></g><g><path fill="#e8e6e3" d="M494.108 530.017v-15.839h15.84v15.839z"/></g><g><path fill="#e8e6e3" d="M557.792 530.017v-15.839h15.84v15.839z"/></g><g><g><g><path fill="#87a699" d="M97.865 189.692c-6.014.093-10.466 4.948-11.097 10.685-.536 4.889 1.893 12.004 6.934 13.7.154.053.313.078.47.096.66.622 1.416 1.126 2.229 1.43 12.796 4.786 17.512-26.159 1.464-25.911z"/></g><g><path fill="#92b3a5" d="M87.094 196.965c-.153.002-.297.029-.446.04-.071-1.528-.24-3.068-.608-4.543-.032-.13-.223-.1-.228.03-.037 1.516.128 3.051.39 4.553-.47.06-.93.145-1.37.267-.24-.973-.566-1.941-.848-2.844-.026-.087-.173-.076-.165.02.103.954.213 1.99.43 2.983a9.053 9.053 0 0 0-.926.363c-.14-.805-.502-1.65-1.054-2.2-.11-.108-.298.002-.258.152.198.754.513 1.549.82 2.29a9.586 9.586 0 0 0-1.133.731 6.381 6.381 0 0 0-1.035-1.073c-.071-.056-.16.03-.1.1.324.378.64.75.938 1.136a9.839 9.839 0 0 0-1.472 1.46c-.854-.773-1.698-1.56-2.577-2.302-.033-.026-.077.017-.048.047.822.816 1.69 1.587 2.542 2.372-.33.404-.645.82-.913 1.27-.42-.188-.85-.36-1.3-.498-.04-.01-.053.048-.016.064.423.17.833.363 1.234.57-.222.39-.412.8-.585 1.218-1.038-.217-2.156-.466-3.194-.39-.134.01-.17.201-.031.243.986.285 2.053.36 3.08.52a11.276 11.276 0 0 0-.484 1.784c-1.03.088-2.06.193-3.066.417-.108.024-.082.189.023.19.996.01 1.985-.094 2.972-.216-.017.132-.054.259-.068.39-.08.739-.078 1.536-.004 2.357-.387.124-.765.27-1.115.468-.121.069-.07.27.071.265a5.765 5.765 0 0 0 1.11-.17c.08.6.214 1.203.372 1.804-.898.428-1.723.95-2.439 1.674-.063.066.02.186.102.133a21.19 21.19 0 0 1 2.452-1.401c.871 2.947 2.677 5.687 5.383 6.596.135.045.269.067.402.082.566.533 1.212.966 1.908 1.225 10.953 4.097 14.989-22.388 1.254-22.177z"/></g><g><path fill="#92b3a5" d="M117.968 209.727c-.794-.272-1.612-.351-2.429-.327-.042-.386-.09-.772-.16-1.149.715-.194 1.437-.374 2.17-.562.081-.022.069-.159-.021-.154-.746.058-1.476.229-2.194.45a13.275 13.275 0 0 0-.442-1.64 19.891 19.891 0 0 1 1.976-.95c.071-.03.02-.136-.049-.118a6.836 6.836 0 0 0-1.984.897 10.576 10.576 0 0 0-.7-1.54c.302-.348.666-.665.928-.99.074-.09-.02-.249-.131-.173a6.24 6.24 0 0 0-.973.858 8.28 8.28 0 0 0-1.103-1.457c.286-.393.606-.765.938-1.184.094-.12-.023-.308-.174-.223-.44.25-.801.637-1.111 1.07a7.189 7.189 0 0 0-1.189-.902c.342-.619.697-1.226.999-1.87.04-.088-.068-.19-.14-.11-.48.521-.824 1.176-1.113 1.845-.203-.11-.417-.201-.636-.293.015-.209.023-.416.083-.628.034-.122-.138-.24-.228-.13-.15.186-.252.375-.336.578-.192-.065-.38-.135-.583-.189.197-.69.559-1.408.63-2.005.016-.138-.189-.177-.252-.068-.352.608-.554 1.309-.752 1.983a9.008 9.008 0 0 0-2.05-.2c-5.145.078-8.957 4.234-9.495 9.144-.46 4.184 1.616 10.276 5.932 11.725.133.045.267.068.404.083.562.533 1.211.965 1.908 1.224 5.99 2.24 9.877-4.653 9.943-11.332.633.105 1.267.207 1.902.231.129.004.137-.175.029-.216-.598-.228-1.26-.33-1.923-.387a17.75 17.75 0 0 0-.066-1.326 31.24 31.24 0 0 1 2.37.188c.093.01.098-.125.022-.153z"/></g><g><path fill="#92b3a5" d="M89.367 190.025c-.003-.007-.012-.002-.012.005.523 1.37 1.413 2.567 2.044 3.883.037.083.16.024.142-.06-.371-1.477-1.575-2.454-2.174-3.828z"/></g><g><path fill="#92b3a5" d="M92.059 189.659c-.339-1.333-.358-2.697-.557-4.05-.009-.046-.074-.03-.077.012-.191 2.77.794 6.073 2.174 8.462.058.102.203.012.155-.092-.646-1.42-1.309-2.813-1.695-4.332z"/></g><g><path fill="#92b3a5" d="M94.908 187.612c-.003-.007-.014-.006-.014.001-.165 1.434.145 2.973.304 4.4.009.08.128.086.128 0 .034-1.427.086-3.045-.418-4.401z"/></g><g><path fill="#92b3a5" d="M95.047 192.977c-.016-.058-.102-.033-.087.023.192.735.371 1.486.65 2.192.023.06.115.038.1-.027-.193-.737-.452-1.456-.663-2.188z"/></g><g><path fill="#92b3a5" d="M91.323 194.562c-.939-.858-2.053-1.506-3.162-2.122-.02-.011-.04.02-.018.032 1.075.679 2.063 1.47 3.12 2.17.047.033.105-.04.06-.08z"/></g><g><path fill="#92b3a5" d="M89.406 195.046c-.535-.532-1.237-.738-1.965-.86-.057-.01-.11.077-.045.107.645.29 1.243.684 1.903.937.105.04.181-.112.108-.184z"/></g><g><path fill="#92b3a5" d="M87.964 195.882l-.412-.04c-.116-.01-.116.192 0 .18.14-.012.276-.024.412-.038.066-.007.066-.097 0-.102z"/></g><g><path fill="#92b3a5" d="M97.097 185.187c-.02-.121-.207-.069-.187.052.245 1.525.282 3.037.339 4.574.003.084.121.081.13 0 .148-1.544-.022-3.101-.282-4.626z"/></g><g><path fill="#92b3a5" d="M99.38 187.989c-.224 1.078-.593 2.22-.537 3.332.005.115.149.125.188.026.424-1.012.471-2.206.623-3.283.023-.176-.234-.258-.273-.075z"/></g><g><path fill="#92b3a5" d="M97.103 191.582c-.029-.087-.17-.076-.167.021.022.512.088 1.009.15 1.515.04.296.473.237.405-.056-.115-.5-.231-.991-.388-1.48z"/></g><g><path fill="#92b3a5" d="M100.76 191.701c-.37.732-.564 1.563-.756 2.359-.024.095.121.136.147.04.221-.79.547-1.547.765-2.334.023-.09-.11-.151-.156-.065z"/></g><g><path fill="#92b3a5" d="M105.88 190.244c-1.048.646-1.881 1.72-2.57 2.729-.097.143.14.284.234.136.688-1.072 1.55-1.852 2.416-2.763.049-.053-.014-.14-.08-.102z"/></g><g><path fill="#92b3a5" d="M103.689 188.454c-.629.822-1.107 1.722-1.612 2.624-.14.245.239.469.38.221.509-.91 1.032-1.793 1.408-2.77.045-.111-.116-.152-.176-.075z"/></g><g><path fill="#92b3a5" d="M101.42 189.47c.005-.06-.083-.068-.102-.014-.09.29-.132.54-.148.839-.01.186.295.169.266-.036a2.225 2.225 0 0 1-.016-.79z"/></g><g><path fill="#92b3a5" d="M100.524 188.796c.008-.033-.04-.047-.05-.015a4.177 4.177 0 0 0-.118 1.791c.005.041.071.043.065 0a5.404 5.404 0 0 1 .103-1.776z"/></g><g><path fill="#92b3a5" d="M108.246 195.685a9.231 9.231 0 0 0-2.155.427c-.127.04-.071.242.052.2a15.243 15.243 0 0 1 2.113-.55c.042-.009.034-.08-.01-.077z"/></g><g><path fill="#92b3a5" d="M109.441 198.193c-.933-.212-1.9-.093-2.827.093-.227.046-.131.397.097.348.904-.197 1.788-.194 2.704-.252.103-.008.137-.165.026-.19z"/></g><g><path fill="#92b3a5" d="M106.72 192.71c-1.186.344-2.252.932-3.284 1.597-.077.05-.008.17.071.124 1.051-.613 2.16-1.093 3.257-1.615.058-.028.015-.124-.045-.106z"/></g><g><path fill="#92b3a5" d="M104.95 197.022c-.891.076-1.8.604-2.594.987-.289.141-.035.574.255.433.788-.38 1.709-.621 2.416-1.132.112-.08.092-.303-.076-.288z"/></g><g><path fill="#92b3a5" d="M103.686 199.357c-.739.113-1.343.403-1.95.84-.286.203.024.613.297.384.52-.438 1.112-.765 1.724-1.06.1-.047.023-.179-.071-.164z"/></g><g><path fill="#92b3a5" d="M102.18 195.185c-.59.09-1.073.3-1.588.59-.213.118-.012.454.19.323.462-.308.953-.543 1.453-.784.08-.038.018-.14-.056-.129z"/></g><g><path fill="#92b3a5" d="M98.568 194.844c-.06-.167-.302-.228-.399-.052-.196.355-.263.691-.329 1.09-.106.66.895.763.887.12-.006-.418-.011-.762-.159-1.158z"/></g><g><path fill="#92b3a5" d="M97.381 197.727c-.374-.164-.653-.781-.867-1.095a7.094 7.094 0 0 0-.684-.857c-.071-.075-.226.005-.183.107.22.528.501 1 .796 1.49.191.32.33.64.672.812.306.155.574-.322.266-.457z"/></g><g><path fill="#92b3a5" d="M94.663 197.477a7.63 7.63 0 0 0-2.698-1.657c-.048-.016-.082.06-.035.082.948.455 1.685 1.048 2.279 1.928.239.356.756-.07.454-.353z"/></g><g><path fill="#92b3a5" d="M94.359 198.858c-.555-.362-1.105-.836-1.765-.967-.097-.02-.202.085-.138.18.381.578 1.042.912 1.602 1.3.313.214.62-.304.3-.513z"/></g><g><path fill="#92b3a5" d="M96.02 200.461c-.526.152-1.01.31-1.501.545-.08.038-.043.178.045.17a9.65 9.65 0 0 0 1.57-.293c.275-.068.156-.502-.114-.422z"/></g><g><path fill="#92b3a5" d="M98.295 201.55c-.115.067-.228.14-.336.22-.076.053-.01.16.071.123a4.05 4.05 0 0 0 .363-.177c.11-.056.007-.232-.098-.166z"/></g><g><path fill="#92b3a5" d="M99.662 201.57c.034.328.082.593.224.89.039.085.18.085.223 0 .142-.297.19-.562.224-.89.043-.43-.719-.431-.67 0z"/></g><g><path fill="#92b3a5" d="M100.726 197.687c-.651.103-1.23.426-1.826.694-.307.138-.042.61.265.456.58-.29 1.18-.53 1.666-.967.09-.08-.008-.198-.105-.183z"/></g><g><path fill="#92b3a5" d="M98.377 200.094a4.002 4.002 0 0 0-.765-.337c-.105-.032-.182.106-.105.182.202.208.415.358.657.52.227.155.457-.237.213-.365z"/></g><g><path fill="#92b3a5" d="M97.06 204.34c-.329.339-.557.679-.614 1.15-.006.044.065.063.083.023.174-.396.332-.748.631-1.072.063-.067-.037-.166-.1-.101z"/></g><g><path fill="#a7c6b8" d="M82.335 200.008c-.024-.006-.05.016-.04.039.227.64.75 1.173 1.077 1.773.058.103.192.026.18-.075-.103-.706-.464-1.552-1.217-1.737z"/></g><g><path fill="#a7c6b8" d="M84.16 198.252c-.004-.022-.04-.013-.035.012.143.868.294 1.726.501 2.58.014.05.082.028.077-.018a35.178 35.178 0 0 0-.542-2.574z"/></g><g><path fill="#a7c6b8" d="M86.403 198.2c-.01-.09-.134-.09-.142 0-.091.892-.218 1.83-.048 2.715.025.118.213.118.237 0 .172-.887.045-1.823-.047-2.715z"/></g><g><path fill="#a7c6b8" d="M89.444 199.147c-.541.607-.957 1.314-1.346 2.023-.034.057.055.109.086.05.411-.698.895-1.337 1.341-2.01.032-.048-.042-.106-.081-.063z"/></g><g><path fill="#a7c6b8" d="M92.098 201.424c-.824.273-1.6.653-2.342 1.11-.07.041-.005.155.066.108a13.274 13.274 0 0 1 2.291-1.169c.03-.012.02-.06-.015-.049z"/></g><g><path fill="#a7c6b8" d="M93.45 203.234c-.763.066-1.488.217-2.227.41-.031.007-.018.057.014.048.736-.157 1.479-.28 2.218-.408.028-.005.023-.054-.006-.05z"/></g><g><path fill="#a7c6b8" d="M93.662 205.666c-.886-.433-1.833-.377-2.791-.256-.34.043-.35.577 0 .542.912-.093 1.824.02 2.735-.08.096-.012.164-.151.056-.206z"/></g><g><path fill="#a7c6b8" d="M93.589 208.4c-.541-.37-1.17-.547-1.803-.697-.187-.044-.267.243-.08.285.626.143 1.204.386 1.82.564.094.026.139-.102.063-.153z"/></g><g><path fill="#a7c6b8" d="M90.569 209.576c-.205-.296-.626.02-.395.305.413.51.813 1.029 1.205 1.557.046.064.173.029.14-.06a7.98 7.98 0 0 0-.95-1.802z"/></g><g><path fill="#a7c6b8" d="M89.554 210.835c-.005-.248-.396-.248-.386 0 .028.648.013 1.302.17 1.933.022.08.159.089.174 0 .116-.64.058-1.285.042-1.933z"/></g><g><path fill="#a7c6b8" d="M87.725 211.506c-.031.892-.263 1.793-.235 2.678.003.079.101.083.13.018.336-.806.313-1.836.325-2.696 0-.142-.214-.142-.22 0z"/></g><g><path fill="#a7c6b8" d="M85.86 212.494a12.017 12.017 0 0 1-.719 1.764c-.037.076.063.132.114.065.389-.538.682-1.126.94-1.737.084-.201-.267-.312-.335-.092z"/></g><g><path fill="#a7c6b8" d="M83.767 212.116c-.35.635-.836 1.21-1.114 1.878-.05.122.117.174.194.114.576-.444.93-1.159 1.278-1.784.126-.233-.23-.442-.358-.208z"/></g><g><path fill="#a7c6b8" d="M81.723 211.8c-.532.404-1.1.68-1.712.944-.065.027-.016.116.045.105.68-.124 1.238-.418 1.798-.827.13-.098 0-.323-.132-.222z"/></g><g><path fill="#a7c6b8" d="M80.142 210.056c-.464-.03-.924-.02-1.39-.011-.168.003-.165.269 0 .258.471-.037.938-.073 1.404-.146.063-.01.042-.098-.014-.101z"/></g><g><path fill="#a7c6b8" d="M79.849 207.124a12.235 12.235 0 0 0-1.112-.196c-.195-.026-.232.25-.037.265.381.03.751.053 1.135.046.063-.001.08-.098.014-.115z"/></g><g><path fill="#a7c6b8" d="M80.773 204.559a12.405 12.405 0 0 0-1.718-.494c-.213-.043-.297.296-.09.323.597.08 1.191.16 1.785.26.055.007.078-.068.023-.09z"/></g><g><path fill="#a7c6b8" d="M80.537 201.21a.109.109 0 0 0-.131.172c.575.434 1.056.93 1.584 1.417.05.046.145-.016.1-.078-.426-.586-.986-1.067-1.553-1.512z"/></g><g><path fill="#a7c6b8" d="M84.492 202.72c-.076-.154-.326-.012-.233.136.236.391.467.78.73 1.152.03.045.118.019.095-.04-.18-.426-.387-.836-.592-1.248z"/></g><g><path fill="#a7c6b8" d="M84.16 205.534c-.487-.436-1.103-.585-1.749-.605-.182-.008-.182.278 0 .282.626.015 1.087.21 1.643.465.086.039.191-.069.107-.142z"/></g><g><path fill="#a7c6b8" d="M84.038 207.288c-.652-.157-1.265-.087-1.908.076-.35.089-.185.658.147.534.578-.213 1.158-.313 1.76-.423.095-.017.09-.166 0-.187z"/></g><g><path fill="#a7c6b8" d="M83.685 209.568l-.433.325c-.093.067.013.2.092.12l.389-.385c.029-.029-.01-.086-.048-.06z"/></g><g><path fill="#a7c6b8" d="M85.67 209.029c-.063.546-.097 1.054-.034 1.599.008.079.133.115.153.021.097-.521.165-1.047.262-1.568.049-.274-.347-.331-.381-.052z"/></g><g><path fill="#a7c6b8" d="M87.686 208.52c-.111-.222-.474-.015-.334.196.183.279.354.535.578.782.055.062.163-.002.14-.081-.1-.319-.237-.596-.384-.896z"/></g><g><path fill="#a7c6b8" d="M90.376 206.78c-.393-.1-.785-.177-1.174-.304-.171-.056-.25.221-.074.275.412.124.793.215 1.225.207.1-.001.126-.151.023-.177z"/></g><g><path fill="#a7c6b8" d="M90.222 204.623c-.313-.152-.542-.159-.899-.176-.389-.017-.392.624 0 .607.354-.017.589-.023.899-.176.097-.046.097-.209 0-.255z"/></g><g><path fill="#a7c6b8" d="M88.044 203.142c-.285.149-.259.127-.46.387-.305.392.287.834.535.414.163-.27.178-.333.215-.634.017-.155-.176-.229-.29-.167z"/></g><g><path fill="#a7c6b8" d="M86.09 204.63c-.079-.062-.176-.003-.162.094.068.446.18.831.333 1.25.15.407.805.222.646-.175-.194-.497-.396-.832-.817-1.168z"/></g><g><path fill="#a7c6b8" d="M88.527 205.416c-.071-.274-.176-.54-.494-.452-.169.047-.245.187-.265.347a5.592 5.592 0 0 1-.028.213c-.063.542.944.503.787-.108z"/></g><g><path fill="#a7c6b8" d="M85.397 206.789c-.308-.012-.526.088-.8.22-.41.2-.021.87.357.613.256-.172.445-.308.59-.58a.172.172 0 0 0-.147-.253z"/></g><g><path fill="#a7c6b8" d="M87.48 207.677c-.018-.019-.044.01-.028.027l.052.05c.018.02.045-.01.026-.027z"/></g><g><path fill="#a7c6b8" d="M105.457 202.287c-.054-.134-.268-.128-.265.037.003.764.16 1.51.273 2.263.026.191.328.14.328-.044 0-.777-.044-1.526-.336-2.256z"/></g><g><path fill="#a7c6b8" d="M107.601 202.305c-.344.66-.583 1.378-.837 2.076-.179.486.64.725.783.216.197-.712.355-1.478.318-2.22-.005-.132-.195-.203-.264-.072z"/></g><g><path fill="#a7c6b8" d="M104.004 198.649c-.105-.278-.555-.157-.447.123.347.924.594 1.954 1.143 2.783.05.078.2.057.192-.052-.083-.985-.544-1.937-.888-2.854z"/></g><g><path fill="#a7c6b8" d="M102.156 200.654a3.14 3.14 0 0 1-.602-.605c-.004-.007-.015.004-.01.01.2.211.365.447.499.707.053.112.239-.029.113-.112z"/></g><g><path fill="#a7c6b8" d="M102.048 202.416c-.17-.362-.341-.726-.489-1.1-.065-.173-.31-.073-.233.098.07.16.15.317.225.476a46.94 46.94 0 0 1-2.017-2.241c-.05-.06-.13.023-.082.08.704.85 1.453 1.668 2.237 2.45.173.347.36.685.586.997.044.06.131.01.1-.057-.071-.162-.148-.319-.222-.477.116.108.222.23.339.336.03.028.074-.016.045-.044-.162-.174-.325-.348-.489-.518z"/></g><g><path fill="#a7c6b8" d="M100.55 203.734c-.538-.44-1.149-.803-1.752-1.145-.455-.257-.83-.468-1.357-.369-.128.025-.076.226.055.2.597-.124 1.362.405 1.853.7.381.226.749.477 1.138.694.05.028.11-.042.063-.08z"/></g><g><path fill="#a7c6b8" d="M98.172 204.595c-.545-.265-1.08-.4-1.683-.478-.217-.027-.228.335 0 .348a9.27 9.27 0 0 1 1.629.26c.075.02.13-.093.054-.13z"/></g><g><path fill="#a7c6b8" d="M96.876 206.413c-.11-.037-.16.143-.046.175.688.19 1.376.362 2.075.52.032.005.044-.042.013-.052a41.49 41.49 0 0 1-2.042-.643z"/></g><g><path fill="#a7c6b8" d="M98.676 208.798a20.089 20.089 0 0 0-1.983-.394c-.27-.038-.321.35-.048.368a78.5 78.5 0 0 1 2.013.14c.069.006.08-.098.018-.114z"/></g><g><path fill="#a7c6b8" d="M98.397 210.306a7.096 7.096 0 0 0-1.391.02c-.287.037-.23.46.054.393.45-.106.9-.211 1.357-.288.073-.012.049-.12-.02-.125z"/></g><g><path fill="#a7c6b8" d="M99.646 204.922c-.596-.201-1.156-.424-1.69-.761-.117-.075-.233.12-.11.189.562.312 1.14.553 1.78.647.047.005.068-.059.02-.075z"/></g><g><path fill="#a7c6b8" d="M103.24 200.457c-.019-.072-.132-.04-.111.031.162.565.323 1.131.497 1.694.01.031.057.018.049-.015-.134-.571-.288-1.14-.436-1.71z"/></g><g><path fill="#a7c6b8" d="M106.288 198.82c.016.91.008 1.824.058 2.733.002.058.086.058.09 0 .048-.909.044-1.823.06-2.734 0-.132-.211-.132-.208 0z"/></g><g><path fill="#a7c6b8" d="M108.048 199.67c-.288.818-.498 1.64-.6 2.502-.006.038.054.045.062.01.186-.837.415-1.66.725-2.46.045-.114-.145-.169-.187-.052z"/></g><g><path fill="#a7c6b8" d="M103.954 206.592l-.115-.082c-.043-.028-.101.03-.071.071.026.04.054.078.08.117.071.103.21-.033.106-.106z"/></g><g><path fill="#a7c6b8" d="M103.221 207.044c-.03-.03-.07.014-.045.044.183.213.365.426.55.637.051.063.15-.03.09-.09-.199-.198-.395-.395-.595-.59z"/></g><g><path fill="#a7c6b8" d="M104.95 206.713a12.81 12.81 0 0 0-1.212-1.425c-.104-.105-.249.026-.192.147.009.022.022.041.032.062-.336-.23-.678-.456-1.038-.656-.108-.06-.273.071-.187.186.497.647 1.11 1.116 1.776 1.574.022.015.04.002.06.01.08.135.141.279.227.414.216.34.768.003.534-.312z"/></g><g><path fill="#a7c6b8" d="M102.043 207.214c-.833-.266-1.682-.547-2.56-.596-.14-.008-.176.185-.068.253.751.462 1.611.736 2.436 1.038.433.159.637-.553.192-.695z"/></g><g><path fill="#a7c6b8" d="M100.902 209.016c-.483.073-.916.152-1.34.403-.121.074-.068.263.074.266.455.01.888-.078 1.34-.125.397-.04.33-.603-.074-.544z"/></g><g><path fill="#a7c6b8" d="M100.456 210.91c-.873.424-1.792.878-2.517 1.534-.077.068.02.166.1.13.892-.398 1.726-.919 2.627-1.308.239-.104.031-.474-.21-.357z"/></g><g><path fill="#a7c6b8" d="M110.695 201.162c-.313.942-.567 1.827-1.12 2.666-.157.236.232.464.38.222.515-.857.95-1.846.93-2.862-.003-.112-.159-.13-.19-.026z"/></g><g><path fill="#a7c6b8" d="M112.77 206.305c-.798-.16-1.598.106-2.322.441-.144.069-.038.282.105.25.73-.173 1.498-.202 2.218-.406.138-.037.15-.256 0-.285z"/></g><g><path fill="#a7c6b8" d="M110.521 209.548c-.139-.071-.23.138-.083.2.607.254 1.212.514 1.823.755.026.01.046-.033.02-.048-.582-.313-1.17-.607-1.76-.907z"/></g><g><path fill="#a7c6b8" d="M114.985 212.909c-.686-.65-1.732-1.105-2.595-1.47-.094-.04-.149.095-.055.13.495.183 1.01.384 1.464.66.387.236.704.563 1.09.8.074.047.159-.06.096-.12z"/></g><g><path fill="#a7c6b8" d="M111.124 212.373c-.23-.165-.447.215-.221.378.684.503 1.188 1.162 1.827 1.705.078.066.242.006.194-.113-.336-.845-1.08-1.448-1.8-1.97z"/></g><g><path fill="#a7c6b8" d="M109.998 213.108c-.188-.33-.711-.026-.512.3.407.66.788 1.33 1.154 2.01.05.1.18.028.163-.067a6.482 6.482 0 0 0-.805-2.243z"/></g><g><path fill="#a7c6b8" d="M107.328 212.95c-.002.578.058 1.04.284 1.58.05.123.231.114.24-.032.03-.517.044-1.033.081-1.548.029-.385-.605-.393-.605 0z"/></g><g><path fill="#a7c6b8" d="M104.963 213.515c-.018.84-.191 1.696-.11 2.532.013.148.231.25.312.085.384-.803.403-1.74.442-2.617.02-.412-.633-.415-.644 0z"/></g><g><path fill="#a7c6b8" d="M102.05 212.992c-.244.29-.462.554-.64.89-.045.08.047.185.132.132.312-.202.565-.44.827-.702.21-.207-.134-.538-.318-.32z"/></g><g><path fill="#a7c6b8" d="M103.902 209.839c-.108.16-.208.327-.302.5-.037.07.054.143.112.084.142-.132.276-.273.403-.42.13-.144-.105-.331-.213-.164z"/></g><g><path fill="#a7c6b8" d="M105.58 209.713c-.233.683-.41 1.404-.31 2.125.014.088.161.086.174 0 .113-.7.166-1.373.4-2.053.054-.165-.205-.236-.264-.072z"/></g><g><path fill="#a7c6b8" d="M108.966 211.305c-.402-.508-.86-.958-1.238-1.486-.126-.174-.417-.005-.292.168.407.556.836 1.088 1.427 1.45.088.053.158-.062.103-.132z"/></g><g><path fill="#a7c6b8" d="M110.004 208.679c-.313-.182-.64-.288-.983-.406-.226-.078-.328.291-.097.36.344.105.667.203 1.028.237.105.01.134-.143.052-.191z"/></g><g><path fill="#a7c6b8" d="M109.011 207.03l-.164.025c-.102.016-.046.196.062.14.046-.023.094-.046.142-.072.054-.027.012-.102-.04-.093z"/></g><g><path fill="#a7c6b8" d="M108.466 206.027c-.202.133-.376.285-.561.442-.114.097.054.268.162.164.174-.16.333-.313.486-.494.048-.06-.016-.16-.087-.112z"/></g><g><path fill="#a7c6b8" d="M106.685 206.787c-.031-.079-.164-.103-.184 0-.097.462-.035.775.125 1.223.105.29.577.154.46-.128-.147-.36-.252-.733-.401-1.095z"/></g><g><path fill="#a7c6b8" d="M106.483 208.163c-.414-.318-.77-.573-1.29-.67-.148-.03-.264.141-.151.257.332.341.714.58 1.083.878.328.27.7-.203.358-.465z"/></g><g><path fill="#a7c6b8" d="M107.976 208.79l-.02.113c-.014.077.077.147.14.082.023-.029.05-.055.074-.08.139-.152-.16-.291-.194-.114z"/></g><g><path fill="#a7c6b8" d="M101.838 205.132c-.538-.418-1.127-.466-1.792-.38-.302.038-.305.515 0 .477.572-.074 1.1.04 1.666.117.108.015.242-.124.126-.214z"/></g><g><path fill="#a7c6b8" d="M112.554 204.19c-.605.256-1.212.513-1.817.771-.184.078-.02.384.163.278.565-.328 1.128-.656 1.693-.982.044-.026.005-.086-.04-.068z"/></g><g><path fill="#a7c6b8" d="M115.053 204.82c-.867 0-1.695.374-2.428.81-.145.084-.017.307.128.222.743-.436 1.51-.624 2.32-.883.083-.024.069-.15-.02-.15z"/></g><g><path fill="#a7c6b8" d="M115.131 207.75c-.57-.08-1.153-.057-1.726-.067-.208-.004-.208.327 0 .323.573-.01 1.157.013 1.726-.069.093-.013.093-.173 0-.187z"/></g><g><path fill="#a7c6b8" d="M115.337 209.656c-.42-.138-.832-.25-1.262-.343-.281-.06-.344.353-.056.393.437.057.858.089 1.296.102.09.002.103-.125.022-.152z"/></g><g><path fill="#a7c6b8" d="M116.209 210.963c-.635-.186-1.277-.317-1.908-.522-.15-.049-.215.188-.063.236.642.202 1.277.381 1.953.413.074.002.086-.108.018-.127z"/></g></g><g><path fill="#998c85" d="M80.007 231.892a1.6 1.6 0 0 1-1.6-1.6v-16.854h37.955v16.854a1.6 1.6 0 0 1-1.6 1.6z"/></g><g><path fill="#807068" d="M82.258 233.866v-1.974h30.592v1.974z"/></g><g><g><path fill="#807068" d="M79.233 218.185c-.376 0-.743-.172-.982-.499a1.22 1.22 0 0 1 .265-1.695l3.56-2.599a1.22 1.22 0 0 1 1.462.023l2.612 2.032 2.937-2.174a1.206 1.206 0 0 1 1.476.024l2.66 2.117 2.634-2.157a1.209 1.209 0 0 1 1.6.056l2.187 2.062 2.68-2.085a1.219 1.219 0 0 1 1.598.095l1.905 1.888 2.048-1.984a1.214 1.214 0 0 1 1.563-.106l3.045 2.246 2.573-2.14a1.213 1.213 0 0 1 1.553 1.862l-3.307 2.753a1.21 1.21 0 0 1-1.495.045l-2.98-2.202-2.167 2.096a1.217 1.217 0 0 1-1.697-.01l-1.992-1.974-2.66 2.07a1.213 1.213 0 0 1-1.576-.076l-2.166-2.045-2.57 2.102a1.207 1.207 0 0 1-1.522.011l-2.693-2.145-2.931 2.17a1.203 1.203 0 0 1-1.467-.018l-2.619-2.036-2.819 2.06a1.217 1.217 0 0 1-.715.233z"/></g></g></g><g><g><path fill="#e89b74" d="M342.281 210.24c.965-1.697 4.602-.881 9.012-1.09 4.41-.21 12.271.601 15.53 3.819 3.259 3.216-1.919 4.781-7.574 5.303-5.656.522-22.432 1.565-16.968-8.033z"/></g><g><path fill="#e89b74" d="M342.281 209.917c.964-1.556 5.4-2.53 9.814-2.493 5.16.044 11.47 2.045 14.728 5.001 3.259 2.956-30.006 6.312-24.542-2.508z"/></g><g><path fill="#e89b74" d="M342.56 209.577s-2.868 2.372-4.595 6.017c-1.725 3.643-6.718 5.156-6.812 6.497-.097 1.345 1.427 1.745 2.451 1.714 1.149-.032 3.307-.614 5.99-3.475 1.662-1.77 5.336-3.8 7.48-5.843 2.143-2.043-.985-8.2-4.514-4.91z"/></g><g><path fill="#e89b74" d="M366.292 211.976s3.246 3.225 4.04 4.24c1.019 1.306 3.895 6.44 4.078 7.36.182.919-1.269 1.118-1.777.995-.82-.198-2.389-2.6-3.481-4.282-1.094-1.68-5.34-5.122-5.825-6.009-.481-.884 2.965-2.304 2.965-2.304z"/></g><g><path fill="#e89b74" d="M357.332 214.623s4.376 4.734 4.854 6.363c.478 1.63 1.862 6.672 2.158 7.154.298.484 2.516.253 2.676-.332.184-.667-.58-6.547-1.612-8.842-1.03-2.294-2.562-4.85-3.808-5.969-1.248-1.12-5.496-.431-4.268 1.626z"/></g><g><path fill="#e89b74" d="M351.671 214.866s-2.715 5.237-3.196 6.867c-.478 1.63-2.685 5.835-2.983 6.318-.296.483-2.93-.112-3.09-.696-.185-.67 1.126-4.481 2.155-6.776 1.03-2.293 2.081-6.743 3.133-7.505 1.353-.985 5.209-.267 3.981 1.792z"/></g><g><path fill="#e89b74" d="M352.575 214.486s.51 6.788.816 9.484c.304 2.698-.382 5.648 1.826 5.802 2.207.156 2.51-.78 2.625-2.949.113-2.168-.066-10.16-.524-12.337-.456-2.172-4.788-1.272-4.743 0z"/></g></g><g><g><g><g><path fill="#faf0eb" d="M316.11 111.664s4.996 3.005 6.899 9.288c1.902 6.28 3.178 33.503 2.028 46.76l-30.857.725c-5.099-11.877 14.302-61.96 14.302-61.96z"/></g></g><g><path fill="#f2e5e1" d="M326.48 160.902l-.133 6.858-35.19.83.086-7.885z"/></g><g><path fill="#f2e5e1" d="M323.463 163.443s-.461-21.095-.4-21.545c.063-.45 1.05-3.767 1.886-4.402.836-.637 1.458 4.133 1.75 6.653.292 2.521-.262 19.044-.262 19.044z"/></g><g><path fill="#fff" d="M326.95 141.023s1.128 4.641-.535 5.176c-1.25.4-2.09-3.825-1.29-5.43.798-1.607 1.692-.34 1.825.254z"/></g></g><g><g><g><path fill="#faf0eb" d="M221.965 110.553s-5.362 2.288-8.113 8.248c-2.75 5.959-7.764 32.745-8.45 46.034l30.46 4.971c6.688-11.061-5.626-63.34-5.626-63.34z"/></g></g><g><path fill="#f2e5e1" d="M204.908 157.891l-.813 6.81 34.74 5.674 1.001-7.823z"/></g><g><path fill="#f2e5e1" d="M207.545 160.823s3.366-20.83 3.366-21.284c0-.455-.52-3.876-1.26-4.622-.741-.744-2.014 3.895-2.652 6.35-.636 2.456-2.363 18.897-2.363 18.897z"/></g><g><path fill="#fff" d="M207.182 138.135s-1.756 4.445-.183 5.202c1.183.569 2.6-3.5 2.027-5.202-.57-1.7-1.628-.567-1.844 0z"/></g></g><g><g><path fill="#f2e5e1" d="M311.065 107.792l2.804 33.803s.767 20.552 1.366 25.062c.598 4.51-10.552 26.72-12.768 35.5-.897 3.55-12.286 20.127-18.638 21.806-9.35 2.473-15.605 4.949-22.532 1.812-11.632-5.266-21.408-17.186-23.887-20.831-2.48-3.645-13.381-39.159-13.381-39.159v-20.56l3.597-37.353 23.157-13.286 21.158 32.136c8.708-8.657 16.038-32.136 16.038-32.136z"/></g></g><g><g><g><path fill="#faf0eb" d="M286.27 89.55s6.876 4.641 8.6 7.454c1.723 2.817 0 21.294 0 21.294s-7.45-5.7-12.54.234c-5.093 5.936-10.104 8.19-10.104 8.19s15.014-25.74 14.043-37.172z"/></g></g><g><g><path fill="#faf0eb" d="M245.495 97.004c1.724-2.813 8.974-8.125 8.974-8.125-.97 11.433 17.472 37.843 17.472 37.843s-8.814-2.254-13.905-8.19c-5.092-5.934-12.541-.234-12.541-.234s-1.724-18.477 0-21.294z"/></g></g></g><g><g><g><path fill="#fff" d="M271.991 137.251c-2.71 0-2.714-4.21 0-4.21"/></g></g><g><g><path fill="#fff" d="M271.991 149.792c2.71 0 2.715 4.214 0 4.214"/></g></g><g><g><path fill="#fff" d="M271.991 166.546c2.71 0 2.715 4.21 0 4.21"/></g></g><g><g><path fill="#fff" d="M271.991 183.297c2.71 0 2.715 4.214 0 4.214"/></g></g><g><g><path fill="#fff" d="M271.991 200.051c2.71 0 2.715 4.211 0 4.211"/></g></g></g></g><g><g><path fill="#ffa378" d="M304.982 212.909s6.423 2.416 9.577 5.158c3.15 2.743 4.944 5.82 5.254 7.538.313 1.718-1.777 1.904-2.86 1.31-1.083-.594-2.952-4.18-5.83-5.86-2.877-1.683-8.217-5.099-8.617-6.11-.4-1.01.804-2.887 2.476-2.036z"/></g><g><path fill="#ffa378" d="M286.082 212.435s7.748 2.882 11.157 5.297c3.41 2.411 5.5 5.294 5.98 6.973.486 1.68-1.575 2.072-2.71 1.59-1.14-.483-3.357-3.862-6.388-5.25-3.03-1.386-8.685-4.25-9.185-5.216-.497-.965-.604-4.07 1.146-3.394z"/></g><g><path fill="#ffa378" d="M274.208 212.237c2.132-.318 26.14-3.267 31.982 1.418 5.846 4.684-.329 5.98-4.257 8.978-3.93 3-20.03 5.185-31.097-.126-6.126-2.94-3.998-9.174 3.372-10.27z"/></g><g><path fill="#e89b74" d="M274.208 212.237c1.613-1.43 14.526-1.597 17.572-1.404 10.33.647 10.847 1.235 10.847 1.235s-1.407 6.147-15.743 10.565c-4.723 1.457-26.484 1.82-12.676-10.396z"/></g><g><path fill="#e89b74" d="M287.933 218.685s5.067 1.27 7.797 3.292c2.729 2.02 3.708 5.973 4.092 7.379.386 1.406-1.67 2.18-2.578 1.776-.91-.402-2.26-5.042-4.686-6.203-2.427-1.16-5.183-1.583-7.238-2.267-.854-.286 1.209-4.544 2.613-3.977z"/></g><g><path fill="#e89b74" d="M295.798 215.329s5.067 2.414 8.476 4.828c3.41 2.413 5.614 6.736 6.096 8.416.48 1.678-1.604 2.163-2.741 1.68-1.137-.482-3.79-5.634-6.821-7.022-3.034-1.386-8.47-3.646-8.968-4.613-.498-.966 2.206-3.967 3.958-3.289z"/></g><g><path fill="#e89b74" d="M302.627 212.067s5.187 3.86 8.599 6.274c3.409 2.414 5.89 7.159 6.37 8.839.482 1.678-1.371 2.508-2.509 2.024-1.136-.484-3.537-4.607-5.929-6.927-3.13-3.038-9.948-5.895-10.463-6.721-.574-.925 2.181-4.167 3.932-3.489z"/></g></g><g><g><g><g><path fill="#e89b74" d="M204.871 214.522c9.903 2.822 29.498 4.573 33.458 5.176 3.96.604 34.157 2.962 34.157 2.962s9.251-1.862 3.246-9.591c-1.13-1.456-59.567-14.965-66.305-16.965-6.737-1.998-18.182 14.534-4.556 18.418z"/></g></g></g></g><g><g><g><g><path fill="#d88460" d="M284.26 80.791s-1.162 14.477-1.162 15.857c0 1.38-14.271 18.49-27.68-.432-.61-.861-.61-19.905-.61-19.905z"/></g></g></g></g><g><g><g><g><path fill="#e89b74" d="M254.808 23.761c.26 0 39.553-1.451 40.202-.804.648.647 2.265 28.88 2.136 31.923-.13 3.043-.707 17.957-2.136 18.971-1.43 1.014-3.238 3.368-3.238 3.368s-11.721 13.597-12.628 13.985c-.907.39-10.358.779-11.526 0-1.164-.776-16.897-13.468-18.065-17.029-.512-1.569-4.427-18.525-2.42-23.382 2.007-4.855 7.675-27.032 7.675-27.032z"/></g></g></g></g><g><g><g><g><g><path fill="#2a3447" d="M256.393 56.527c4.046-3.848 7.913-.171 8.075-.012l2.168-2.227c-2.12-2.063-7.437-4.723-12.385-.014z"/></g></g></g></g></g><g><g><g><g><g><path fill="#2a3447" d="M283.297 56.527c4.047-3.848 7.913-.171 8.075-.012l2.167-2.227c-2.12-2.063-7.435-4.723-12.385-.014z"/></g></g></g></g></g><g><g><g><g><path fill="#d88460" d="M275.428 60.937c1.271.106 4.145 5.237 4.179 6.792.034 1.556-3.304 4.254-3.938 4.172-.632-.084-4.968-3.198-4.985-3.977-.016-.777 4.032-7.046 4.744-6.987z"/></g></g></g></g><g><g><g><g><path fill="#2a3447" d="M289.513 54.567v3.432h-4.047v-3.432z"/></g></g></g></g><g><g><g><g><path fill="#2a3447" d="M263.057 54.567v3.432h-4.047v-3.432z"/></g></g></g></g><g><g><g><g><path fill="#d88460" d="M246.98 51.31s-6.185-2.775-7.626-1.683c-1.44 1.093-.628 15.127.623 17.146 1.254 2.02 8.682 2.879 8.682 2.879s-2.197-8.453-1.68-18.341z"/></g></g></g></g><g><g><g><g><path fill="#f9dad9" d="M246.28 65.142v8.047h-2.159v-8.047z"/></g></g></g></g><g><g><g><g><g><path fill="#4a3a4c" d="M267.927 44.56l-.797 2.866s-8.406-.777-15.545.604l3.724-3.388s3.468-1.523 12.618-.081z"/></g></g></g></g><g><g><g><g><path fill="#4a3a4c" d="M293.41 44.578l3.529 3.305c-6.985-1.474-15.125-.439-15.125-.439l-.485-2.875c9.298-1.318 12.082.009 12.082.009z"/></g></g></g></g></g><g><path d="M233.051 39.353c.15-3.238 3.192-19.99 8.121-27.135 13.856-20.08 44.596-10.58 52.927-4.282 9.633 7.282 15.498 26.405 16.541 34.448 3.09 6.621 5.89 13.861 5.288 20.8-.464 5.348-4.186 10.483-8.945 13.503a8.239 8.239 0 0 0 .519 3.127c.613 1.64 2.029 2.987 2.85 4.539a18.529 18.529 0 0 1 1.993 6.378c1.276 5.023.83 10.55-1.456 15.075-3.88 7.68-14.042 15.609-22.888 15.581-.018 0-.033-.008-.05-.009-.113-.123-8.118-8.544-7.764-20.671.122-4.134.96-8.281 2.952-11.905 3.749-6.66 7.745-13.141 9.544-20.778 1.813-7.696-1.322-18.453-5.244-25.364-1.973-3.48-3.179-8.804-2.685-11.323-11.341.816-30.4 13.01-30.4 13.01-9.777.57-6.224 19.037-6.73 21.105 0 0-15.34-9.438-14.573-26.099z"/></g><g><g><g><path fill="#e89b74" d="M308.888 327.036c.32.808-27.57 130.968-28.865 133.335-1.297 2.366-13.387 3.494-13.409-2.982-.01-2.657-5.063-92.002 7.593-133.715 2.275-7.5 22.838-26.414 34.68 3.363z"/></g></g></g><g><g><g><path fill="#e89b74" d="M329.11 313.391c-.578.694-15.394 138.675-14.882 141.439.512 2.766 12.116 7.823 14.249 1.42.875-2.629 35.007-89.453 36.072-134.884.192-8.17-14.004-33.601-35.438-7.975z"/></g></g></g><g><g><g><path fill="#3f485c" d="M320.105 278.079c-40.267-3.24-56.56-3.625-63.415 34.2-3.702 20.432-1.793 65.039-1.793 65.039l107.662 9.14s7.79-55.259 7.438-65.482c-1.151-33.39-11.47-39.805-49.892-42.897z"/></g></g></g><g><g><g><path fill="#54495c" d="M302.911 486.272s-5.336 13.75 5.379 22.097c10.716 8.345 18.37 6.39 20.559 3.704 2.188-2.685 4.612-4.088.845-14.192 0 0-24.934 4.267-26.783-11.61z"/></g></g><g><g><path fill="#332b29" d="M301.737 491.182s-3.805 10.308 6.462 18.703c10.267 8.397 17.881 6.829 19.788 5.697 1.904-1.132 4.694-3.678 3.664-9.325 0 0-.625 4.732-5.311 6.111-4.686 1.383-13.333-.304-18.653-6.893-5.324-6.588-5.95-14.293-5.95-14.293z"/></g></g></g><g><g><g><path fill="#54495c" d="M260.75 489.996s-3.918 14.309 7.664 21.551c11.582 7.243 19.04 4.497 20.95 1.583 1.912-2.913 4.193-4.567-.62-14.286 0 0-24.504 6.844-27.995-8.848z"/></g></g><g><g><path fill="#332b29" d="M260.083 495.03s-2.743 10.706 8.397 18.044c11.139 7.34 18.595 4.984 20.385 3.655 1.788-1.33 4.316-4.164 2.703-9.71 0 0-.138 4.801-4.683 6.664-4.545 1.869-13.37 1.074-19.374-4.967-6.005-6.043-7.428-13.687-7.428-13.687z"/></g></g></g><g><g opacity=".26"><g opacity=".26"><path fill="#fff" d="M253.504 53.675c.046.18.444.057.537.501.274 1.306.916 4.365 1.404 5.15.158.253.288.496.414.731.456.847.756 1.405 1.943 1.878 1.736.693 4.65 1.116 6.86.585 2.142-.515 3.786-1.411 4.32-2.986.215-.628.995-1.326 1.306-2.34.649-2.123 1.327-3.407 1.586-4.055-.41-.323-1.824-1.472-2.638-1.719-1.406-.425-4.892-1.085-9.025-.858l-.16.008c-2.795.152-6.509.354-7.746.548-.036.21-.314 1.295-.321 1.472.538.168 1.274.12 1.52 1.085z"/></g></g><g opacity=".26"><g opacity=".26"><path fill="#fff" d="M297.508 51.124a5.333 5.333 0 0 0-.086-.615c-1.244-.162-4.97-.268-7.775-.346l-.16-.004c-4.147-.117-7.622.633-9.024 1.093-.81.268-1.57.787-1.972 1.122.273.64.672 1.794 1.371 3.898.336 1.008.652 1.957.881 2.58.572 1.561 2.405 2.918 4.565 3.377 2.226.473 5.136-.025 6.86-.763 1.179-.505 1.465-1.07 1.902-1.93.12-.236.244-.483.398-.74.47-.797 1.042-3.873 1.287-5.185.083-.447.143-.77.184-.95.224-.97 1.032-1.354 1.57-1.537z"/></g></g><g opacity=".76"><g opacity=".76"><path fill="#fff" d="M264.997 51.6c1.756.437 3.23 1.496 3.875 2.89.696 1.503-2.105 2.132-2.802.63-.139-.3-.303-.533-.588-.747a2.506 2.506 0 0 0-.922-.45c-.802-.2-1.398-.826-1.277-1.476.115-.605.91-1.046 1.714-.847z"/></g></g><g opacity=".76"><g opacity=".76"><path fill="#fff" d="M290.668 50.974c1.757.437 3.23 1.495 3.876 2.89.697 1.502-2.106 2.133-2.802.63a1.834 1.834 0 0 0-.588-.748 2.533 2.533 0 0 0-.923-.45c-.8-.198-1.397-.826-1.275-1.474.113-.605.908-1.048 1.712-.849z"/></g></g><g><g><g><g><g><path d="M252.26 52.264c.005-.168.03-.388.063-.586 1.234-.2 4.948-.435 7.74-.614l.16-.01c4.13-.263 7.622.317 9.035.702.817.223 1.591.687 2.005.99-.25.615-.608 1.723-1.232 3.741a87.19 87.19 0 0 1-.786 2.475c-.517 1.498-2.296 2.85-4.432 3.364-2.203.53-5.123.166-6.866-.469-1.192-.433-1.5-.958-1.965-1.756-.129-.22-.26-.448-.423-.687-.495-.736-1.174-3.628-1.464-4.86-.098-.422-.169-.723-.218-.893-.257-.91-1.075-1.245-1.617-1.397zm26.262.297c.4-.323 1.149-.825 1.953-1.09 1.392-.457 4.85-1.214 8.987-1.16l.16.002c2.801.036 6.52.086 7.762.22.044.198.08.416.093.584-.533.179-1.335.554-1.545 1.477-.038.171-.094.477-.17.9-.227 1.249-.759 4.17-1.218 4.93-.147.248-.269.482-.386.71-.424.818-.704 1.359-1.871 1.852-1.712.722-4.608 1.236-6.836.817-2.158-.406-4.005-1.665-4.597-3.135a95.063 95.063 0 0 1-.911-2.432c-.727-1.983-1.138-3.072-1.42-3.675zm-27.212 1.114l.18.045c.494.116.584.182.628.33.037.138.112.46.2.83.52 2.216 1.078 4.455 1.676 5.342.134.2.249.397.372.606.501.86 1.07 1.836 2.872 2.49 1.396.509 3.49.894 5.561.842a12.133 12.133 0 0 0 2.485-.308c2.759-.663 4.996-2.407 5.698-4.443.214-.62.498-1.542.8-2.519.273-.88.631-2.04.914-2.87.687.21 1.463.305 2.323.283.34-.01.691-.035 1.057-.08a4.96 4.96 0 0 0 1.108-.248c.32.81.722 1.911 1.031 2.753.35.958.683 1.865.927 2.475.803 1.996 3.127 3.624 5.917 4.149.799.149 1.647.2 2.497.179 2.07-.052 4.142-.543 5.51-1.119 1.766-.747 2.285-1.751 2.744-2.636.11-.215.216-.418.34-.623.55-.916.995-3.18 1.403-5.42.067-.377.126-.7.159-.84.034-.151.122-.22.607-.363.065-.019.125-.035.18-.053.94-.3.808-1.347.764-1.69a6.173 6.173 0 0 0-.251-1.117c-.23-.65-.877-.736-3.544-.829-1.601-.056-3.739-.083-5.805-.11l-.161-.002c-4.409-.058-8.143.766-9.654 1.261-1.346.44-3.052 1.609-3.26 2.232a.762.762 0 0 0-.037.269c-.23.103-.58.149-.715.165-1.04.126-1.915.075-2.612-.156a.757.757 0 0 0-.047-.192c-.238-.61-2.001-1.69-3.367-2.064-1.535-.418-5.306-1.05-9.707-.77l-.16.01c-2.062.133-4.195.268-5.792.405-2.658.228-3.3.348-3.498 1.007-.057.19-.16.663-.195 1.13-.024.345-.104 1.398.852 1.65z"/></g></g></g></g></g><g><g><g><g><g><path d="M251.09 50.378s-7.713-3.518-9.412-3.75c-1.702-.23-2.348 3.34-2.348 3.34l1.81.855s.218-2.096.924-1.753c.703.341 9.246 4.605 9.246 4.605z"/></g></g></g></g></g></g><g><g><g><g><path fill="#fff" d="M281.012 76.982h-13.604c-.249 0 1.046 4.555 3.19 5.58 2.144 1.023 5.881 1.023 6.952 0 1.072-1.025 3.462-4.897 3.462-5.58z"/></g></g></g></g></g></g></g></svg>