<svg class="svg svg--irisSmall" xmlns="http://www.w3.org/2000/svg" viewBox="0 0 53 52"><defs><linearGradient id="uukya" x1="26.5" x2="26.5" y1="51.91" y2="-.09" gradientUnits="userSpaceOnUse"><stop offset="0" stop-color="#008752"/><stop offset="1" stop-color="#6cb33f"/></linearGradient><clipPath id="uukyb"><path d="M.502 25.908C.502 11.55 12.142-.09 26.5-.09s25.998 11.64 25.998 25.998S40.858 51.906 26.5 51.906.502 40.266.502 25.908z"/></clipPath></defs><g><g><g><path fill="url(#uukya)" d="M.502 25.908C.502 11.55 12.142-.09 26.5-.09s25.998 11.64 25.998 25.998S40.858 51.906 26.5 51.906.502 40.266.502 25.908z"/></g><g><g><g/><g clip-path="url(#uukyb)"><g><g><g><g><g><path fill="#ffbb94" d="M31.752 39.438l5.977 18.166c.264.798 3.311 1.745 4.634-.451.373-.619-2.213-16.917-2.762-18.244-.549-1.327-6.01-5.53-7.85.53z"/></g></g></g></g><g><g><g><g><path fill="#ffbb94" d="M41.656 59.616c2.069-1.822 5.356-5.976 6.073-6.779.717-.803 5.71-7.252 5.71-7.252s.985-2.346-1.538-2.102c-.475.045-12.024 11.245-13.448 12.473-1.425 1.228.355 6.166 3.203 3.66z"/></g></g></g></g></g><g><g><g><g><path fill="#d88460" d="M28.492 27.448s-.355 4.275-.356 4.682c-.002.407-4.23 5.45-8.175-.15-.18-.255-.164-5.88-.164-5.88z"/></g></g></g></g><g><g><g><g><path fill="#e89b74" d="M19.84 10.578c.077 0 11.684-.396 11.875-.204.19.192.645 8.532.605 9.43-.041.9-.224 5.304-.647 5.603-.423.298-.96.991-.96.991s-3.472 4.007-3.74 4.12c-.269.115-3.06.222-3.405-.009-.343-.23-4.98-3.992-5.322-5.045-.15-.464-1.292-5.475-.695-6.908.597-1.432 2.29-7.978 2.29-7.978z"/></g></g></g></g><g><g><g><g><g><path fill="#2a3447" d="M20.28 20.258c1.2-1.134 2.339-.044 2.387.002l.642-.655c-.625-.611-2.193-1.401-3.659-.015z"/></g></g></g></g></g><g><g><g><g><g><path fill="#2a3447" d="M28.227 20.28c1.2-1.133 2.338-.044 2.386.003l.642-.656c-.625-.611-2.192-1.401-3.659-.014z"/></g></g></g></g></g><g><g><g><g><path fill="#d88460" d="M25.9 21.576c.375.032 1.22 1.55 1.228 2.01.01.459-.979 1.253-1.166 1.228-.187-.025-1.465-.948-1.47-1.178-.004-.23 1.198-2.078 1.408-2.06z"/></g></g></g></g><g><g><g><g><path fill="#2a3447" d="M30.065 19.706l-.003 1.014-1.195-.004.003-1.013z"/></g></g></g></g><g><g><g><g><path fill="#2a3447" d="M22.251 19.685l-.003 1.013-1.195-.003.003-1.014z"/></g></g></g></g><g><g><g><g><path fill="#ffa378" d="M17.505 18.71s-1.824-.826-2.251-.505c-.426.322-.198 4.468.17 5.065.368.598 2.562.858 2.562.858s-.642-2.499-.481-5.419z"/></g></g></g></g><g><g><g><g><path fill="#f9dad9" d="M17.287 22.794l-.006 2.376-.638-.001.006-2.377z"/></g></g></g></g><g><g><g><g><g><path fill="#4a3a4c" d="M23.698 16.733l-.238.845s-2.482-.236-4.592.166l1.103-.998s1.025-.447 3.727-.013z"/></g></g></g></g><g><g><g><g><path fill="#4a3a4c" d="M31.225 16.759l1.04.979c-2.063-.441-4.468-.142-4.468-.142l-.14-.85c2.747-.381 3.568.013 3.568.013z"/></g></g></g></g></g><g><g><g><g><g><path fill="#ffbb94" d="M5.364 145.022s-.97 4.757-2.238 6.081c-1.268 1.324-2.698 3.292-2.402 4.34.296 1.049 2.704 1.666 4.408.876 1.705-.79 2.56-1.343 2.678-2.25.118-.907.181-2.938.144-3.658-.138-2.7.242-4.816.252-5.138.055-1.636-2.113-1.877-2.842-.251z"/></g></g></g></g></g><g><g><g><g><g><path fill="#ffbb94" d="M21.875 118.983c-.117.135-1.757 26.453-1.625 26.975.133.523 2.316 1.37 2.714.142.163-.504 6.656-17.18 6.494-25.808-.03-1.551-3.258-6.296-7.583-1.31z"/></g></g></g></g></g><g><g><g><g><g><path fill="#ffbb94" d="M37.024 83.25s-7.356 35.557-7.662 36.96c-.304 1.402-5.535 4.49-7.52.237-.282-.604.987-16.97 1.124-18.407.139-1.437.21-13.786.606-14.817 1.29-3.364 12.558-9.412 13.452-3.973z"/></g></g></g></g></g><g><g><g><g><g><path fill="#ffbb94" d="M14.29 120.596c.073.164-6.083 25.804-6.362 26.264-.28.461-2.616.63-2.636-.66-.008-.53-1.323-18.376 1.365-26.577.484-1.474 4.962-5.063 7.633.973z"/></g></g></g></g></g><g><g><g><g><g><path fill="#ffbb94" d="M9.954 81.943l-3.182 37.628c-.12 1.43 3.974 5.918 7.12 2.434.447-.494 4.036-16.512 4.326-17.926.29-1.415 3.918-16.094 3.764-17.188-.155-1.093-9.577-9.885-12.028-4.948z"/></g></g></g></g></g><g><g><g><g><g><path fill="#ffbb94" d="M31.73 61.976s4.356 11.686 4.797 14.278c1.985 11.675-1.874 12.149-13.412 11.169-9.241-.784-15.816 2.107-12.315-11.935.683-2.738 4.497-14.242 4.497-14.242s10.01-5.759 16.433.73z"/></g></g></g></g></g><g><g><g><g><g><path fill="#e89b74" d="M10.774 35.804S2.527 57.941 2.246 58.908c-.28.967 1.975 3.957 4.688 2.677.763-.36 5.957-14.71 6.32-16.393.362-1.681 1.257-11.063-2.48-9.388z"/></g></g></g></g></g><g><g><g><g><g><path fill="#e89b74" d="M28.401 32.247l9.27 5.468s-5.705 22.895-5.92 24.26c-.216 1.366-9.636 6.002-16.433-.729l-4.395-23.57s8.712-5.212 9.06-5.617c0 0 3.104 2.829 8.419.188z"/></g></g></g></g></g><g><g><g><g><g><path fill="#4f322f" d="M35.319 72.221s-23.331.036-23.607.143c-.277.107-1.136 4.061-1.136 4.061s10.117 3.643 11.609 10.998l1.467.057s2.984-9.204 13.076-9.545c0 0-.024-3.205-1.409-5.714z"/></g></g></g></g></g><g><g><g><g><g><g><path fill="#4f322f" d="M34.926 36.046l.715.434s-2.09 7.843-2.24 8.136c-.151.292 1.686 3.538 1.73 3.815.269 1.661-1.238 4.71-1.335 4.955-.098.244-7.03-.089-7.487-.333-.015-.008-.27-.372-.27-.4.002-.41 1.342-3.004 2.904-4.852 1.671-1.978 3.575-3.21 3.673-3.38.195-.342 2.31-8.375 2.31-8.375z"/></g></g></g></g></g><g><g><g><g><g><path fill="#4f322f" d="M15.287 44.18c-.15-.293-2.185-7.814-2.185-7.814l.688-.416s1.91 7.569 2.106 7.91c.104.182 3.637 2.302 6.367 4.553 2.234 1.842 3.773 3.859 3.775 4.24 0 .028.285.392.271.4-.458.244-12.359.577-12.457.333-.097-.244-.845-4.25-.845-4.53 0-.28 2.43-4.384 2.28-4.677z"/></g></g></g></g></g></g><g><g><g><g><g><path fill="#ffbb94" d="M23.125 145.847s5.847 5.706 7.208 5.956c1.36.25 4.339 1.233 3.036 1.912-1.303.679-5.75.295-7.22-.232-1.47-.527-3.41-2.164-4.78-2.34-1.593-.205-2.157-.2-2.232-1.224-.075-1.024.678-3.223.678-3.223s1.425-2.764 3.31-.849z"/></g></g></g></g></g><g><g><g><g><path fill="#faf0eb" d="M37.163 36.163s1.443.615 2.183 2.22c.74 1.603 2.09 8.811 2.275 12.388l-8.198 1.338c-1.8-2.977 1.514-17.046 1.514-17.046z"/></g></g><g><path fill="#f2e5e1" d="M41.753 48.902l.22 1.833-9.35 1.527-.27-2.105z"/></g><g><path fill="#f2e5e1" d="M41.044 49.691s-.906-5.605-.906-5.727c0-.123.14-1.044.339-1.244.2-.2.542 1.048.713 1.709.171.66.636 5.085.636 5.085z"/></g><g><path fill="#fff" d="M41.142 43.586s.472 1.195.049 1.4c-.32.153-.7-.943-.546-1.4.153-.458.439-.153.497 0z"/></g></g><g><g><g><path fill="#faf0eb" d="M11.141 35.844s-1.443.616-2.183 2.22c-.74 1.604-2.09 8.812-2.275 12.388l8.198 1.338c1.8-2.977-1.514-17.046-1.514-17.046z"/></g></g><g><path fill="#f2e5e1" d="M6.551 48.584l-.219 1.832 9.35 1.527.269-2.105z"/></g><g><path fill="#f2e5e1" d="M7.26 49.373s.906-5.606.906-5.728c0-.122-.14-1.043-.339-1.244-.199-.2-.542 1.048-.713 1.71-.171.66-.636 5.085-.636 5.085z"/></g><g><path fill="#fff" d="M7.163 43.267s-.473 1.196-.049 1.4c.318.153.699-.942.545-1.4-.153-.457-.438-.152-.496 0z"/></g></g><g><g><path fill="#f2e5e1" d="M35.119 35.101l.754 9.097s.207 5.531.368 6.744c.161 1.214-2.84 7.192-3.436 9.554-.241.956-3.307 5.417-5.016 5.868-2.515.666-4.2 1.332-6.063.488-3.13-1.417-5.761-4.625-6.429-5.606-.667-.98-3.6-10.538-3.6-10.538v-5.533l.967-10.052 6.232-3.576 5.694 8.649c2.344-2.33 4.316-8.649 4.316-8.649z"/></g></g><g><g><g><path fill="#faf0eb" d="M28.446 30.192s1.85 1.25 2.315 2.006c.463.758 0 5.731 0 5.731s-2.005-1.534-3.375.063-2.719 2.204-2.719 2.204 4.04-6.927 3.78-10.004z"/></g></g><g><g><path fill="#faf0eb" d="M17.473 32.198c.464-.757 2.415-2.186 2.415-2.186-.26 3.077 4.702 10.184 4.702 10.184s-2.372-.607-3.742-2.204c-1.37-1.597-3.375-.063-3.375-.063s-.463-4.973 0-5.73z"/></g></g></g><g><g><g><path fill="#fff" d="M24.604 43.03c-.73 0-.73-1.134 0-1.134"/></g></g><g><g><path fill="#fff" d="M24.604 46.404c.729 0 .73 1.134 0 1.134"/></g></g><g><g><path fill="#fff" d="M24.604 50.913c.729 0 .73 1.133 0 1.133"/></g></g><g><g><path fill="#fff" d="M24.604 55.42c.729 0 .73 1.135 0 1.135"/></g></g><g><g><path fill="#fff" d="M24.604 59.93c.729 0 .73 1.133 0 1.133"/></g></g></g></g><g><g><g><g><path fill="#323949" d="M33.738 59.209s-.491 3.465-.43 3.83c.062.364 4.111 11.123 4.055 17.578-.079 9.164-6.562 42.498-6.562 42.498l-25.285-.6s2.68-31.443 2.898-34.322c.565-7.424 2.172-16.64 3.269-19.26a425.62 425.62 0 0 0 2.928-7.213l-.531-2.83z"/></g></g></g><g><g><g><path fill="#252b38" d="M13.765 63.039c.582-1.103.5-3.169.5-3.169s9.75 2.267 11.162 2.243c1.413-.025 8.142-1.657 8.142-1.657l-.26 2.573c.128-.007.228-.007.26.01.506.257 3.364 9.21 3.487 9.518.123.307-7.423 6.512-7.669 6.205-.241-.302-.422-14.515-.43-14.99-1.054.1-2.435 1.05-3.53 1.044-.725-.005-3.443-.987-4.15-1.044-.019 1.052-.624 14.707-.86 15.001-.246.307-10.262-5.909-10.139-6.216.123-.307 2.981-9.26 3.487-9.518z"/></g></g></g></g><g><g><g><path fill="#54495c" d="M31.267 152.036s3.815.858 3.77 1.567c-.125 1.961-2.313 1.658-4.408 1.594-4.014-.122-4.26-.943-5.384-1.918-1.396-1.212-3.073-1.991-3.874-2.224l-.812 3.088-.746-.032s-.373-2.543-.67-3.92c-.37-1.715.813-3.962.813-3.962s1.387 1.182 4.226 4.1c2.532 2.602 5.105 2.267 6.078 2.069.942-.192 1.007-.362 1.007-.362z"/></g></g><g><g><path fill="#332b29" d="M35.037 153.603c.755 1.742-2.313 1.658-4.408 1.594-4.014-.122-4.26-.943-5.384-1.918-1.396-1.212-3.14-1.737-3.94-1.97l-.746 2.834-.746-.032s-.373-2.543-.67-3.92c0 0 2.246-.095 5.51 2.213 2.885 2.04 3.745 2.492 7.726 2.256 1.981-.118 2.658-1.057 2.658-1.057z"/></g></g></g><g><g><g><path fill="#54495c" d="M8.149 151.798s.316 3.297-2.507 4.448c-2.823 1.152-4.358.264-4.668-.45-.309-.713-.748-1.164.681-3.118 0 0 5.128 2.438 6.494-.88z"/></g></g><g><g><path fill="#332b29" d="M8.104 152.93s.195 2.46-2.534 3.65c-2.73 1.19-4.28.388-4.623.027-.342-.36-.79-1.08-.224-2.239 0 0-.153 1.062.776 1.645.928.583 2.9.744 4.45-.356 1.55-1.1 2.155-2.726 2.155-2.726z"/></g></g></g><g><path d="M13.4 15.166c.048-.957.96-5.902 2.422-8.009 4.11-5.919 13.181-3.087 15.637-1.22 2.839 2.158 4.555 7.811 4.857 10.188.907 1.958 1.728 4.1 1.544 6.148-.141 1.58-1.245 3.093-2.653 3.98-.008.3.032.607.15.925.18.485.598.884.839 1.343.31.59.504 1.23.583 1.886.373 1.485.236 3.117-.442 4.451-1.152 2.265-4.16 4.599-6.773 4.584-.006 0-.01-.003-.016-.003-.033-.037-2.39-2.53-2.275-6.113.039-1.22.29-2.445.881-3.513 1.113-1.965 2.299-3.875 2.837-6.13.541-2.271-.376-5.451-1.528-7.496-.58-1.03-.932-2.603-.784-3.346-3.35.231-8.99 3.817-8.99 3.817-2.888.16-1.854 5.618-2.005 6.229 0 0-4.523-2.8-4.283-7.721z"/></g><g><g><g><path fill="#34485d" d="M13.204 67.864L1.599 47.394l9.462-6.565L23.55 62.857z"/></g></g><g><g><path fill="#3d556e" d="M10.854 40.947l5.22-2.96 12.488 22.028-5.22 2.96z"/></g></g><g><g><path fill="#f5ebe4" d="M14.212 43.754a1 1 0 0 1 .377-1.364l1.013-.574a1 1 0 0 1 1.363.377l2.293 4.044a1 1 0 0 1-.377 1.364l-1.013.574a1 1 0 0 1-1.363-.377z"/></g></g></g><g><g><g><g><g><path fill="#e89b74" d="M5.28 63.189c2.844-1.235 7.767-4.555 8.808-5.168 1.04-.614 8.564-5.81 8.564-5.81s1.83-2.185-1-2.819c-.533-.12-16.738 7.88-18.687 8.702-1.95.82-1.599 6.791 2.315 5.095z"/></g></g></g></g></g><g><g><g><g><g><path fill="#d88460" d="M19.487 49.852s1.176-2.757 2.773-3.986c.493-.38.464-.484.787-.156.322.33-.545 1.251-.985 2.16-.44.91-1.776 3.547-2.575 1.982z"/></g></g></g></g><g><g><g><g><path fill="#e89b74" d="M19.244 50.176s1.228-1.672 1.893-2.195c1.53-1.205 3.17-2.667 4.281-3.445.668-.467 1.237-1.716 1.62-1.078.25.418.63 1.4.306 2.663-.35 1.36-.166 2.946-.356 3.505-.3.887-4.02 3.403-5.68 3.827-.938.239-3.65-.003-2.064-3.277z"/></g></g></g></g></g><g><g opacity=".76"><g opacity=".76"><path fill="#fff" d="M22.493 18.77c.495.123.91.421 1.092.814.196.424-.594.601-.79.178a.52.52 0 0 0-.166-.21.71.71 0 0 0-.26-.128c-.225-.056-.393-.232-.359-.415.032-.17.256-.295.483-.239z"/></g></g><g opacity=".76"><g opacity=".76"><path fill="#fff" d="M29.726 18.594c.495.123.91.421 1.092.814.196.423-.593.6-.79.178a.518.518 0 0 0-.165-.211.716.716 0 0 0-.26-.127c-.226-.056-.394-.233-.36-.415.032-.17.256-.296.483-.24z"/></g></g><g><g><g><g><g><path d="M18.904 18.957c.002-.047.008-.109.018-.165.348-.056 1.394-.123 2.18-.173l.046-.003c1.163-.074 2.147.09 2.545.198.23.063.449.194.565.279-.07.173-.17.485-.347 1.054-.084.272-.163.529-.221.697-.146.422-.648.803-1.25.948-.62.15-1.443.047-1.934-.132-.336-.122-.422-.27-.553-.495-.037-.061-.074-.126-.12-.193-.139-.208-.33-1.022-.412-1.37a6.605 6.605 0 0 0-.061-.25c-.073-.258-.303-.352-.456-.395zm7.4.084c.112-.091.323-.233.55-.307.392-.129 1.366-.342 2.532-.327h.045c.79.01 1.837.024 2.187.063.012.055.023.117.026.164-.15.05-.376.156-.435.416-.01.048-.027.135-.048.254-.064.352-.214 1.175-.343 1.389-.042.07-.076.136-.11.2-.118.23-.197.383-.526.522-.483.203-1.298.348-1.926.23-.608-.114-1.129-.47-1.296-.883-.066-.166-.158-.418-.256-.686-.205-.558-.32-.865-.4-1.035zm-7.667.314l.05.012c.139.033.165.052.177.093l.056.234c.147.625.304 1.255.473 1.506.037.056.07.111.104.17.142.243.302.518.81.702.393.143.983.252 1.566.237.24-.006.477-.033.7-.087.778-.187 1.408-.678 1.606-1.252.06-.174.14-.434.226-.71.076-.247.177-.574.257-.808.193.059.412.086.655.08.095-.003.194-.01.297-.023.097-.012.207-.03.312-.07.09.229.204.539.29.776.1.27.193.525.262.697.226.563.881 1.021 1.667 1.17.225.041.465.056.704.05a4.546 4.546 0 0 0 1.552-.316c.498-.21.644-.493.773-.742.032-.06.061-.118.096-.176.155-.258.28-.896.396-1.527.019-.106.035-.197.044-.237.01-.042.035-.062.171-.102l.051-.015c.265-.084.228-.38.215-.476a1.739 1.739 0 0 0-.07-.315c-.066-.183-.248-.207-1-.233a83.095 83.095 0 0 0-1.635-.031h-.045c-1.242-.017-2.294.215-2.72.355-.38.124-.86.453-.918.628a.215.215 0 0 0-.01.076c-.066.03-.164.042-.202.047-.294.035-.54.021-.736-.044a.222.222 0 0 0-.014-.054c-.067-.172-.563-.477-.948-.582-.433-.118-1.495-.296-2.735-.217l-.045.003c-.581.037-1.182.076-1.632.114-.749.064-.93.098-.986.284a1.768 1.768 0 0 0-.055.318c-.006.097-.029.394.24.465z"/></g></g></g></g></g><g><g><g><g><g><path d="M18.574 18.426s-2.173-.991-2.652-1.057c-.479-.064-.66.942-.66.942l.509.24s.062-.59.26-.494c.198.097 2.606 1.298 2.606 1.298z"/></g></g></g></g></g></g><g><g><g><g><g><path fill="#ffbb94" d="M50.637 43.534l3.304-2.453c.721-.535.675-.596 1.113-.667.413-.067 2.575 3.255 2.008 3.97-.51.642-3.077 2.276-3.738 2.577-.66.3-1.688.227-2.143-.077-.405-.27-1.128-.96-1.151-1.7-.027-.852.607-1.65.607-1.65z"/></g></g></g></g><g><g><g><g><path fill="#ffbb94" d="M50.637 43.534s1.585-2.78 1.686-3.551c.1-.772.41-.615.784-.54.374.075.08 2.438.08 2.438z"/></g></g></g></g><g><g><g><g><path fill="#ffbb94" d="M54.58 40.59s2.91-2.364 3.16-2.346c.249.017.658.52.533.687-.125.167-2.556 2.119-2.689 2.217-.132.098-.86.432-1.004-.557z"/></g></g></g></g></g><g><g><g><g><path fill="#fff" d="M27.466 26.32h-3.528c-.065 0 .271 1.182.827 1.448.556.265 1.525.265 1.803 0 .278-.266.898-1.27.898-1.447z"/></g></g></g></g></g></g></g></g></g></svg>