<svg xmlns="http://www.w3.org/2000/svg" width="15" height="20" viewBox="0 0 15 20"><g><g><path fill="#fff" d="M10.306 6.5H4.55V4.643a2.881 2.881 0 0 1 2.879-2.879 2.881 2.881 0 0 1 2.878 2.879zm-2.878 8.357A1.863 1.863 0 0 1 5.57 13c0-1.021.836-1.857 1.858-1.857 1.021 0 1.857.836 1.857 1.857a1.863 1.863 0 0 1-1.857 1.857zM12.999 6.5h-.929V4.643A4.645 4.645 0 0 0 7.428 0a4.645 4.645 0 0 0-4.643 4.643V6.5h-.929A1.863 1.863 0 0 0 0 8.357v9.286c0 1.021.836 1.857 1.857 1.857H13a1.863 1.863 0 0 0 1.857-1.857V8.357A1.863 1.863 0 0 0 13 6.5z"/></g></g></svg>