<svg xmlns="http://www.w3.org/2000/svg" width="88" height="79" viewBox="0 0 88 79"><g><g><g><path fill="none" stroke="#959996" stroke-linecap="round" stroke-linejoin="round" stroke-miterlimit="20" stroke-width="3" d="M48.53 59.285v0h3.963c3.784 0 7.48-1.137 10.61-3.26l2.898-1.966c.476-.324.642-.979.322-1.459a4.994 4.994 0 0 0-1.658-1.546c-1.417-.825-3.153-.753-4.625-.034-5.366 2.62-10.148.41-10.148.41a32.71 32.71 0 0 0-4.976-2.58c-6.625-2.718-14.198-1.704-20.03 2.45v0"/></g><g><path fill="none" stroke="#959996" stroke-linecap="round" stroke-linejoin="round" stroke-miterlimit="20" stroke-width="3" d="M24.885 65.226v0s8.962-1.74 24.636-.848c4.136.236 8.258-.69 11.921-2.624L85.277 49.18a.938.938 0 0 0 .296-1.411c-.853-1.093-2.795-2.606-6.68-1.58a9.463 9.463 0 0 0-1.288.46l-11.992 5.113v0"/></g><g><path fill="none" stroke="#959996" stroke-linecap="round" stroke-linejoin="round" stroke-miterlimit="20" stroke-width="3" d="M15.828 70.967v0h8.816v0V48.22v0h-8.816v0"/></g><g><path fill="none" stroke="#959996" stroke-linecap="round" stroke-linejoin="round" stroke-miterlimit="20" stroke-width="3" d="M2 77v0h13.828v0-35.431 0H2v0"/></g><g><g><g><path fill="none" stroke="#008752" stroke-linecap="round" stroke-linejoin="round" stroke-miterlimit="20" stroke-width="3" d="M48.851 39.461a3.772 3.772 0 1 0 7.545 0c0-2.083-1.547-3.045-3.773-3.772-1.98-.646-3.772-1.689-3.772-3.773a3.772 3.772 0 1 1 7.545 0"/></g><g><path fill="none" stroke="#008752" stroke-linecap="round" stroke-linejoin="round" stroke-miterlimit="20" stroke-width="3" d="M52.623 26.041v2.129"/></g><g><path fill="none" stroke="#008752" stroke-linecap="round" stroke-linejoin="round" stroke-miterlimit="20" stroke-width="3" d="M52.623 43.234v2.128"/></g></g><g><path fill="none" stroke="#959996" stroke-linecap="round" stroke-linejoin="round" stroke-miterlimit="20" stroke-width="3" d="M72.52 48.817c2.814-3.378 5.243-9.73 2.535-15.15-1.727-3.456-4.521-6.888-8.722-9.826"/></g><g><path fill="none" stroke="#959996" stroke-linecap="round" stroke-linejoin="round" stroke-miterlimit="20" stroke-width="3" d="M38.914 23.84c-4.201 2.94-6.945 6.397-8.723 9.827-2.582 4.982-1.393 11.042 1.871 14.312"/></g><g><path fill="none" stroke="#959996" stroke-linecap="round" stroke-linejoin="round" stroke-miterlimit="20" stroke-width="3" d="M33.187 24.511v0-4.61a6.72 6.72 0 0 1 6.72-6.721H65.34a6.72 6.72 0 0 1 6.72 6.72v4.613"/></g><g><g><path fill="none" stroke="#959996" stroke-linecap="round" stroke-linejoin="round" stroke-miterlimit="20" stroke-width="3" d="M46.308 5.528a3.528 3.528 0 1 1 7.056 0 3.528 3.528 0 0 1-7.056 0z"/></g><g><path fill="none" stroke="#959996" stroke-linecap="round" stroke-linejoin="round" stroke-miterlimit="20" stroke-width="3" d="M55.411 2a3.528 3.528 0 1 1 0 7.056"/></g></g><g><path fill="none" stroke="#959996" stroke-linecap="round" stroke-linejoin="round" stroke-miterlimit="20" stroke-width="3" d="M39.32 19.06h26.608"/></g></g><g><path fill="#6cb33f" d="M7.864 73.102V45.467h4.066v27.635z"/></g></g></g></svg>