<svg xmlns="http://www.w3.org/2000/svg" width="73" height="84" viewBox="0 0 73 84"><g><g><g><path fill="none" stroke="#959996" stroke-linecap="round" stroke-linejoin="round" stroke-miterlimit="20" stroke-width="3" d="M22.016 39.69v0-4.812c0-6.124 4.964-11.088 11.088-11.088h7.129c6.124 0 11.088 4.964 11.088 11.088v4.812"/></g><g><g><path fill="none" stroke="#959996" stroke-linecap="round" stroke-linejoin="round" stroke-miterlimit="20" stroke-width="3" d="M28.123 45.89v6.216"/></g><g><path fill="none" stroke="#959996" stroke-linecap="round" stroke-linejoin="round" stroke-miterlimit="20" stroke-width="3" d="M36.653 45.89v6.216"/></g><g><path fill="none" stroke="#959996" stroke-linecap="round" stroke-linejoin="round" stroke-miterlimit="20" stroke-width="3" d="M45.183 45.89v6.216"/></g><g><path fill="none" stroke="#959996" stroke-linecap="round" stroke-linejoin="round" stroke-miterlimit="20" stroke-width="3" d="M53.714 52.106v0-12.182 0h-34.12v12.182"/></g></g><g><path fill="none" stroke="#959996" stroke-linecap="round" stroke-linejoin="round" stroke-miterlimit="20" stroke-width="3" d="M23.72 68.393v0l12.934-6.321v0l12.933 6.321v0"/></g><g><path fill="none" stroke="#959996" stroke-linecap="round" stroke-linejoin="round" stroke-miterlimit="20" stroke-width="3" d="M71.306 79.247v0-16.55a1.83 1.83 0 0 0-1.829-1.83h-9.211v0-3.431a5.33 5.33 0 0 0-5.33-5.33H18.37a5.33 5.33 0 0 0-5.33 5.33v3.432H3.83c-1.01 0-1.829.818-1.829 1.829v16.55"/></g><g><path fill="none" stroke="#959996" stroke-linecap="round" stroke-linejoin="round" stroke-miterlimit="20" stroke-width="3" d="M2 79.247v3.275h69.307v0-3.275 0"/></g><g><path fill="none" stroke="#959996" stroke-linecap="round" stroke-linejoin="round" stroke-miterlimit="20" stroke-width="3" d="M42.942 82.409v0-8.063a5.954 5.954 0 0 0-5.953-5.953h-.67a5.954 5.954 0 0 0-5.954 5.953v8.063"/></g><g><path fill="none" stroke="#6cb33f" stroke-linecap="round" stroke-linejoin="round" stroke-miterlimit="20" stroke-width="3" d="M36.668 19.266v0-7.257 0-9.002c.937.782 2.25.984 3.46.832 1.211-.151 2.357-.615 3.502-1.038 1.145-.422 2.33-.81 3.55-.8 1.14.009 2.253.37 3.283.858v9.002c-1.03-.489-2.142-.849-3.282-.859-1.22-.01-2.406.38-3.551.801-1.145.423-2.29.887-3.502 1.038"/></g><g><path fill="#008752" d="M40.233 27.382h-7.13c-3.157 0-5.859 1.964-6.962 4.733a30.436 30.436 0 0 1 9.481-.137c4.302.627 8.45 2.215 12.108 4.563v-1.663c0-4.133-3.363-7.496-7.497-7.496z"/></g><g><path fill="none" stroke="#959996" stroke-linecap="round" stroke-linejoin="round" stroke-miterlimit="20" stroke-width="3" d="M40.367 23.79v0-2.228a2.296 2.296 0 0 0-2.297-2.296h-2.803a2.296 2.296 0 0 0-2.297 2.296v2.228"/></g></g></g></svg>