<svg xmlns="http://www.w3.org/2000/svg" width="82" height="69" viewBox="0 0 82 69"><g><g><g><g><path fill="none" stroke="#959996" stroke-linecap="round" stroke-linejoin="round" stroke-miterlimit="20" stroke-width="3" d="M79.22 9.005v0L65.495 43.49v0l-5.726-2.28v0L73.494 6.727v0z"/></g><g><path fill="none" stroke="#959996" stroke-linecap="round" stroke-linejoin="round" stroke-miterlimit="20" stroke-width="3" d="M65.494 43.49v0l-2.841 7.139a3 3 0 0 1-3.897 1.677l-.152-.06a3 3 0 0 1-1.678-3.897l2.842-7.138v0z"/></g><g><path fill="none" stroke="#959996" stroke-linecap="round" stroke-linejoin="round" stroke-miterlimit="20" stroke-width="3" d="M58.68 52.276l-2.297 5.771"/></g><g><path fill="none" stroke="#959996" stroke-linecap="round" stroke-linejoin="round" stroke-miterlimit="20" stroke-width="3" d="M78.713 2.17a3 3 0 0 1 1.677 3.896l-1.17 2.94v0l-5.726-2.28v0l1.17-2.939a3 3 0 0 1 3.897-1.678z"/></g></g><g><path fill="none" stroke="#959996" stroke-linecap="round" stroke-linejoin="round" stroke-miterlimit="20" stroke-width="3" d="M74.459 34.7v32.275H1.499v0-46.273 0h61.393v0"/></g><g><path fill="none" stroke="#959996" stroke-dasharray=".01 8" stroke-linecap="round" stroke-linejoin="round" stroke-miterlimit="20" stroke-width="3" d="M51.426 58.047H14.29"/></g><g><g><path fill="#6cb33f" d="M51.426 39.151h-19.97a1.615 1.615 0 0 1 0-3.229h19.97a1.614 1.614 0 1 1 0 3.23z"/></g></g><g><g><path fill="#6cb33f" d="M51.426 31.509h-19.97a1.615 1.615 0 0 1 0-3.23h19.97a1.614 1.614 0 1 1 0 3.23z"/></g></g><g><g><path fill="#6cb33f" d="M51.426 46.795h-19.97a1.615 1.615 0 0 1 0-3.23h19.97a1.614 1.614 0 1 1 0 3.23z"/></g></g><g><g><path fill="none" stroke="#008752" stroke-linecap="round" stroke-linejoin="round" stroke-miterlimit="20" stroke-width="3" d="M12.791 41.215a3.691 3.691 0 1 0 7.383 0c0-2.038-1.513-2.98-3.691-3.69-1.938-.633-3.692-1.653-3.692-3.692a3.691 3.691 0 0 1 7.383 0"/></g><g><path fill="none" stroke="#008752" stroke-linecap="round" stroke-linejoin="round" stroke-miterlimit="20" stroke-width="3" d="M16.483 28.085v2.083"/></g><g><path fill="none" stroke="#008752" stroke-linecap="round" stroke-linejoin="round" stroke-miterlimit="20" stroke-width="3" d="M16.483 44.907v2.082"/></g></g></g></g></svg>