<svg xmlns="http://www.w3.org/2000/svg" width="80" height="84" viewBox="0 0 80 84"><g><g><g><path fill="none" stroke="#959996" stroke-linecap="round" stroke-linejoin="round" stroke-miterlimit="20" stroke-width="3" d="M44.378 77.227v0H5.68A3.68 3.68 0 0 1 2 73.547V5.68A3.68 3.68 0 0 1 5.68 2H60.87a3.68 3.68 0 0 1 3.68 3.68v39.663"/></g><g><path fill="none" stroke="#008752" stroke-linecap="round" stroke-linejoin="round" stroke-miterlimit="20" stroke-width="3" d="M7.6 15.496h19.038"/></g><g><path fill="none" stroke="#008752" stroke-linecap="round" stroke-linejoin="round" stroke-miterlimit="20" stroke-width="3" d="M7.6 28.597h9.734"/></g><g><path fill="none" stroke="#008752" stroke-linecap="round" stroke-linejoin="round" stroke-miterlimit="20" stroke-width="3" d="M38.74 28.597h9.376"/></g><g><path fill="none" stroke="#008752" stroke-linecap="round" stroke-linejoin="round" stroke-miterlimit="20" stroke-width="3" d="M23.852 25.065v0c1.222 0 2.212.99 2.212 2.21v2.643a2.21 2.21 0 0 1-2.212 2.21v0a2.21 2.21 0 0 1-2.21-2.21"/></g><g><path fill="none" stroke="#008752" stroke-linecap="round" stroke-linejoin="round" stroke-miterlimit="20" stroke-width="3" d="M32.294 25.065v0c1.222 0 2.212.99 2.212 2.21v2.643a2.21 2.21 0 0 1-2.212 2.21v0a2.21 2.21 0 0 1-2.21-2.21"/></g><g><path fill="none" stroke="#008752" stroke-linecap="round" stroke-linejoin="round" stroke-miterlimit="20" stroke-width="3" d="M32.886 11.964v0c1.22 0 2.21.99 2.21 2.211v2.642a2.21 2.21 0 0 1-2.21 2.21v0a2.21 2.21 0 0 1-2.212-2.21"/></g><g><path fill="none" stroke="#008752" stroke-linecap="round" stroke-linejoin="round" stroke-miterlimit="20" stroke-width="3" d="M41.328 11.964v0c1.22 0 2.21.99 2.21 2.211v2.642a2.21 2.21 0 0 1-2.21 2.21v0a2.21 2.21 0 0 1-2.212-2.21"/></g><g><path fill="none" stroke="#008752" stroke-linecap="round" stroke-linejoin="round" stroke-miterlimit="20" stroke-width="3" d="M49.77 11.964v0c1.221 0 2.21.99 2.21 2.211v2.642a2.21 2.21 0 0 1-2.21 2.21v0a2.21 2.21 0 0 1-2.212-2.21"/></g><g><path fill="none" stroke="#008752" stroke-linecap="round" stroke-linejoin="round" stroke-miterlimit="20" stroke-width="3" d="M18.253 39.331v0c1.22 0 2.211.99 2.211 2.211v2.642c0 1.221-.99 2.211-2.211 2.211v0c-1.22 0-2.21-.99-2.21-2.211"/></g><g><path fill="none" stroke="#008752" stroke-linecap="round" stroke-linejoin="round" stroke-miterlimit="20" stroke-width="3" d="M26.695 39.331v0c1.221 0 2.211.99 2.211 2.211v2.642c0 1.221-.99 2.211-2.21 2.211v0a2.211 2.211 0 0 1-2.212-2.211"/></g><g><path fill="none" stroke="#008752" stroke-linecap="round" stroke-linejoin="round" stroke-miterlimit="20" stroke-width="3" d="M32.885 42.863h7.478"/></g><g><path fill="none" stroke="#008752" stroke-linecap="round" stroke-linejoin="round" stroke-miterlimit="20" stroke-width="3" d="M7.6 42.863h4.867"/></g><g><g><path fill="none" stroke="#959996" stroke-linecap="round" stroke-linejoin="round" stroke-miterlimit="20" stroke-width="3" d="M77.97 75.343v2.739a2.291 2.291 0 0 1-1.702 2.214v0a50.46 50.46 0 0 1-26.003 0v0a2.291 2.291 0 0 1-1.702-2.214v-2.739 0"/></g><g><path fill="none" stroke="#959996" stroke-linecap="round" stroke-linejoin="round" stroke-miterlimit="20" stroke-width="3" d="M77.97 66.933v2.738a2.29 2.29 0 0 1-1.702 2.215v0a50.445 50.445 0 0 1-26.003 0v0a2.29 2.29 0 0 1-1.702-2.215v-2.738 0"/></g><g><path fill="none" stroke="#959996" stroke-linecap="round" stroke-linejoin="round" stroke-miterlimit="20" stroke-width="3" d="M77.97 58.522v2.739a2.292 2.292 0 0 1-1.702 2.215v0a50.46 50.46 0 0 1-26.003 0v0a2.292 2.292 0 0 1-1.702-2.215v-2.739 0"/></g><g><path fill="none" stroke="#959996" stroke-linecap="round" stroke-linejoin="round" stroke-miterlimit="20" stroke-width="3" d="M77.97 53.545c0 2.3-6.583 4.164-14.704 4.164-8.12 0-14.703-1.864-14.703-4.164s6.583-4.164 14.703-4.164 14.703 1.864 14.703 4.164z"/></g></g><g><path fill="#6cb33f" d="M29.154 73.375l-3.117-.947a31.29 31.29 0 0 1-20.09-18.64l-.094-.242v19.829z"/></g></g></g></svg>