<svg xmlns="http://www.w3.org/2000/svg" width="87" height="84" viewBox="0 0 87 84"><g><g><g><path fill="none" stroke="#959996" stroke-linecap="round" stroke-linejoin="round" stroke-miterlimit="20" stroke-width="3" d="M53.163 60.508v0H36.438c-.037-.926-.114-3.693-.117-3.93 0-.237.012-.477.012-.714h.523a4.056 4.056 0 0 0 4.054-4.057 4.05 4.05 0 0 0-4.001-4.05 81.674 81.674 0 0 1 2.364-11.41 92.24 92.24 0 0 1 2.542-7.748 46.954 46.954 0 0 1 1.665-3.89c.763-1.594 1.425-3.244 1.822-4.971a14.32 14.32 0 0 0-1.188-9.662C41.627 5.17 36.474 2 30.974 2c-5.5 0-10.655 3.17-13.142 8.076a14.32 14.32 0 0 0-1.188 9.662c.397 1.727 1.058 3.377 1.822 4.97a48.033 48.033 0 0 1 1.668 3.891 94.54 94.54 0 0 1 2.542 7.747c1.047 3.737 1.856 7.554 2.361 11.41a4.051 4.051 0 0 0-4.001 4.051 4.056 4.056 0 0 0 4.056 4.057h.52c.004.237.013.477.013.714s-.08 3.004-.114 3.93H8.782a6.865 6.865 0 0 0-6.863 6.867v7.901H60.03v0-7.9a6.867 6.867 0 0 0-6.867-6.868z"/></g><g><path fill="none" stroke="#959996" stroke-linecap="round" stroke-linejoin="round" stroke-miterlimit="20" stroke-width="3" d="M6.733 82h48.48"/></g><g><path fill="none" stroke="#6cb33f" stroke-linecap="round" stroke-linejoin="round" stroke-miterlimit="20" stroke-width="3" d="M85.1 35.636c0-8.825-7.153-15.978-15.978-15.978-8.82 0-15.974 7.153-15.974 15.978 0 8.821 7.153 15.974 15.974 15.974 8.825 0 15.978-7.153 15.978-15.974z"/></g><g><path fill="none" stroke="#6cb33f" stroke-linecap="round" stroke-linejoin="round" stroke-miterlimit="20" stroke-width="3" d="M62.963 41.795l12.322-12.322"/></g><g><path fill="none" stroke="#6cb33f" stroke-linecap="round" stroke-linejoin="round" stroke-miterlimit="20" stroke-width="3" d="M69.588 43.653l7.554-7.554"/></g><g><path fill="none" stroke="#6cb33f" stroke-linecap="round" stroke-linejoin="round" stroke-miterlimit="20" stroke-width="3" d="M68.66 27.616l-7.555 7.554"/></g><g><path fill="#6cb33f" d="M30.974 14.016c3.826 0 7.366 2.247 10.262 6.058.13-.41.247-.807.336-1.195.548-2.37.237-4.881-.874-7.073-1.841-3.632-5.658-5.977-9.724-5.977-4.069 0-7.885 2.345-9.726 5.977a10.479 10.479 0 0 0-.874 7.073c.09.388.206.785.335 1.195 2.897-3.81 6.44-6.058 10.265-6.058z"/></g></g></g></svg>