<svg xmlns="http://www.w3.org/2000/svg" width="65" height="84" viewBox="0 0 65 84"><g><g><g><path fill="none" stroke="#959996" stroke-linecap="round" stroke-linejoin="round" stroke-miterlimit="20" stroke-width="3" d="M4.652 4.456v28.508h55.08v0V4.456v0"/></g><g><path fill="none" stroke="#959996" stroke-linecap="round" stroke-linejoin="round" stroke-miterlimit="20" stroke-width="3" d="M62.426 2v0c0 1.357-.907 2.456-2.026 2.456H3.983c-1.119 0-2.026-1.1-2.026-2.456v0"/></g><g><g><path fill="none" stroke="#008752" stroke-linecap="round" stroke-linejoin="round" stroke-miterlimit="20" stroke-width="3" d="M48.85 8.116v0L35.893 21.075v0l-5.702-5.702v0l-12.959 12.96v0"/></g><g><path fill="none" stroke="#008752" stroke-linecap="round" stroke-linejoin="round" stroke-miterlimit="20" stroke-width="3" d="M22.907 28.332v0H17.23v0-5.675 0"/></g></g><g><path fill="none" stroke="#959996" stroke-linecap="round" stroke-linejoin="round" stroke-miterlimit="20" stroke-width="3" d="M25.458 49.859a7.28 7.28 0 1 1 13.454-5.573 7.28 7.28 0 0 1-13.454 5.573z"/></g><g><path fill="none" stroke="#959996" stroke-linecap="round" stroke-linejoin="round" stroke-miterlimit="20" stroke-width="3" d="M18.326 82v0-18.394a4.736 4.736 0 0 1 4.735-4.736h18.248a4.736 4.736 0 0 1 4.736 4.736V82"/></g><g><g><path fill="none" stroke="#959996" stroke-linecap="round" stroke-linejoin="round" stroke-miterlimit="20" stroke-width="3" d="M58.152 64.78v9.895"/></g><g><path fill="none" stroke="#959996" stroke-linecap="round" stroke-linejoin="round" stroke-miterlimit="20" stroke-width="3" d="M57.8 47.688a5.626 5.626 0 1 1-11.251 0 5.626 5.626 0 0 1 11.251 0z"/></g><g><path fill="none" stroke="#959996" stroke-linecap="round" stroke-linejoin="round" stroke-miterlimit="20" stroke-width="3" d="M47.287 56.804v0h11.937a3.66 3.66 0 0 1 3.66 3.659v14.212"/></g><g><path fill="none" stroke="#959996" stroke-linecap="round" stroke-linejoin="round" stroke-miterlimit="20" stroke-width="3" d="M52.174 56.804v6.52"/></g></g><g><g><path fill="none" stroke="#959996" stroke-linecap="round" stroke-linejoin="round" stroke-miterlimit="20" stroke-width="3" d="M6.067 64.78v9.895"/></g><g><path fill="none" stroke="#959996" stroke-linecap="round" stroke-linejoin="round" stroke-miterlimit="20" stroke-width="3" d="M17.834 47.688a5.626 5.626 0 1 1-11.252 0 5.626 5.626 0 0 1 11.252 0z"/></g><g><path fill="none" stroke="#959996" stroke-linecap="round" stroke-linejoin="round" stroke-miterlimit="20" stroke-width="3" d="M1.5 74.675v0-14.212a3.66 3.66 0 0 1 3.658-3.659h12.46v0"/></g><g><path fill="none" stroke="#959996" stroke-linecap="round" stroke-linejoin="round" stroke-miterlimit="20" stroke-width="3" d="M12.208 56.804v6.52"/></g></g><g><path fill="#6cb33f" d="M41.31 62.63H23.06a.975.975 0 0 0-.975.976v5.953l.066-.043c4.086-2.655 7.732-2.456 10.033-2.456 2.191 0 5.859-.256 10.1 2.499v-5.953a.975.975 0 0 0-.976-.975z"/></g></g></g></svg>