<svg xmlns="http://www.w3.org/2000/svg" width="80" height="74" viewBox="0 0 80 74"><g><g><g><g><g><path fill="none" stroke="#6cb33f" stroke-linecap="round" stroke-miterlimit="20" stroke-width="3" d="M34.744 28.25v0-10.292 0h10.292V28.25z"/></g><g><path fill="none" stroke="#008752" stroke-linecap="round" stroke-miterlimit="20" stroke-width="3" d="M58.299 15.705v0L39.89 1.855v0l-18.409 13.85v0"/></g><g><path fill="none" stroke="#6cb33f" stroke-linecap="round" stroke-miterlimit="20" stroke-width="3" d="M45.036 12.787v0L39.89 8.915v0l-5.146 3.872v0"/></g><g><path fill="none" stroke="#008752" stroke-linecap="round" stroke-miterlimit="20" stroke-width="3" d="M54.845 13.106v22.659H39.89v0H24.935v0-22.659 0"/></g></g></g><g><g><g><path fill="none" stroke="#959996" stroke-linecap="round" stroke-linejoin="round" stroke-miterlimit="20" stroke-width="3" d="M17.647 71.734a60.544 60.544 0 0 0-7.081-17.83c-2.17-3.644-4.73-7.07-6.535-10.907-1.804-3.838-2.63-8.86-1.48-12.941L7.149 14.09a2.053 2.053 0 0 1 2.55-1.39v0a6.713 6.713 0 0 1 4.539 8.336L11.98 28.95v0"/></g><g><path fill="none" stroke="#959996" stroke-linecap="round" stroke-linejoin="round" stroke-miterlimit="20" stroke-width="3" d="M22.256 52.915v0l-4.983-6.024a34.935 34.935 0 0 1-4.074-6.14l-1.91-3.668a3.834 3.834 0 0 1 1.627-5.171v0a3.837 3.837 0 0 1 5.172 1.63l1.678 3.224a24.626 24.626 0 0 0 6.287 7.715c1.824 1.488 3.671 2.945 5.25 4.725 4.313 4.868 6.908 13.59 3.09 22.528"/></g><g><path fill="none" stroke="#959996" stroke-linecap="round" stroke-linejoin="round" stroke-miterlimit="20" stroke-width="3" d="M62.132 71.734a60.619 60.619 0 0 1 7.081-17.83c2.17-3.644 4.73-7.07 6.538-10.907 1.804-3.838 2.63-8.86 1.479-12.941L72.634 14.09a2.056 2.056 0 0 0-2.552-1.39v0a6.712 6.712 0 0 0-4.537 8.336L67.8 28.95v0"/></g><g><path fill="none" stroke="#959996" stroke-linecap="round" stroke-linejoin="round" stroke-miterlimit="20" stroke-width="3" d="M57.523 52.915v0l4.983-6.024a34.953 34.953 0 0 0 4.074-6.14l1.912-3.668a3.837 3.837 0 0 0-1.63-5.171v0a3.833 3.833 0 0 0-5.168 1.63l-1.68 3.224a24.622 24.622 0 0 1-6.286 7.715c-1.826 1.488-3.673 2.945-5.252 4.725-4.313 4.868-6.908 13.59-3.09 22.528"/></g></g></g></g></g></svg>