<svg xmlns="http://www.w3.org/2000/svg" width="110" height="79" viewBox="0 0 110 79"><g><g><g><path fill="none" stroke="#008752" stroke-linecap="round" stroke-linejoin="round" stroke-miterlimit="20" stroke-width="3" d="M41.57 19.542a6.7 6.7 0 0 1-1.397-4.095 6.737 6.737 0 0 1 13.474 0c0 1.127-.28 2.188-.77 3.122"/></g><g><path fill="none" stroke="#959996" stroke-linecap="round" stroke-linejoin="round" stroke-miterlimit="20" stroke-width="3" d="M32.927 16.656C21.85 19.958 11.425 30.367 11.425 41.339c0 4.826.645 8.961 2.751 12.294 2.32 3.67 3.838 7.799 4.722 12.05.474 2.275.107 4.857 1.038 7.521a5.964 5.964 0 0 0 5.621 4.007h4.101c2.73 0 4.717-2.624 3.939-5.24-1.107-3.719-1.211-9.066-.985-14.877"/></g><g><path fill="none" stroke="#959996" stroke-linecap="round" stroke-linejoin="round" stroke-miterlimit="20" stroke-width="3" d="M75.601 68.287c29.62-5.188 32.625-19.472 32.669-24.857.009-1.152-.948-2.09-2.1-2.09H104c-3.692-11.853-16.985-17.86-16.985-17.86.338-3.335 2.724-7.293 4.18-9.438.431-.635-.09-1.484-.851-1.39-5.533.68-9.943 1.958-13.587 4.9-3.798-1.677-10.35-4.065-16.005-4.348"/></g><g><path fill="none" stroke="#959996" stroke-linecap="round" stroke-linejoin="round" stroke-miterlimit="20" stroke-width="3" d="M32.76 67.377c8.028 2.852 19.242 2.823 19.482 2.82 2.277-.02 4.463-.078 6.56-.17a4.058 4.058 0 0 1 4.043 2.796c.175.53.372 1.102.589 1.689.6 1.625 2.16 2.699 3.893 2.699h5.264c2.801 0 4.788-2.707 3.968-5.386-.588-1.917-1.923-9.912-1.676-15.152"/></g><g><path fill="none" stroke="#959996" stroke-linecap="round" stroke-linejoin="round" stroke-miterlimit="20" stroke-width="3" d="M90.55 35.957a.808.808 0 1 1 1.618 0 .808.808 0 0 1-1.617 0z"/></g><g><path fill="none" stroke="#959996" stroke-linecap="round" stroke-linejoin="round" stroke-miterlimit="20" stroke-width="3" d="M85.496 36.896a4.924 4.924 0 0 0 4.924 4.923"/></g><g><path fill="none" stroke="#959996" stroke-linecap="round" stroke-linejoin="round" stroke-miterlimit="20" stroke-width="3" d="M104.001 41.34s.211 3.359-1.318 6.418"/></g><g><g><path fill="#4eab09" d="M33.479 32.579a1.967 1.967 0 0 1-1.055-3.63c.752-.478 7.666-4.66 18.507-4.66 4.11 0 8.287.614 12.414 1.826a1.968 1.968 0 1 1-1.11 3.777c-3.766-1.107-7.57-1.668-11.304-1.668-9.898 0-16.14 3.883-16.4 4.048a1.954 1.954 0 0 1-1.052.307z"/></g></g><g><path fill="none" stroke="#008752" stroke-linecap="round" stroke-linejoin="round" stroke-miterlimit="20" stroke-width="3" d="M60.187 20.058c.49-1.427.755-2.958.755-4.551 0-7.75-6.283-14.032-14.032-14.032-7.75 0-14.032 6.282-14.032 14.032 0 2.497.653 4.842 1.796 6.874"/></g><g><path fill="none" stroke="#959996" stroke-linecap="round" stroke-linejoin="round" stroke-miterlimit="20" stroke-width="3" d="M76.758 17.553s-2.297 1.984-3.845 4.586"/></g><g><path fill="none" stroke="#959996" stroke-linecap="round" stroke-linejoin="round" stroke-miterlimit="20" stroke-width="3" d="M11.478 38.933a5.565 5.565 0 0 1-7.842.66c-1.88-1.587-2.21-4.28-.623-6.159 1.269-1.503 3.317-1.68 4.77-.354 1.055.963 1.082 2.677.225 3.587"/></g><g><path fill="none" stroke="#959996" stroke-linecap="round" stroke-linejoin="round" stroke-miterlimit="20" stroke-width="3" d="M30.923 24.46s13.68-8.898 33.198-3.166"/></g></g></g></svg>