<svg xmlns="http://www.w3.org/2000/svg" width="80" height="83" viewBox="0 0 80 83"><g><g><g><g><path fill="none" stroke="#959996" stroke-linecap="round" stroke-linejoin="round" stroke-miterlimit="20" stroke-width="3" d="M58.373 54.618c-1.2-.893-2.407-1.478-3.568-1.733l-10.6-3.078a2.309 2.309 0 0 1-1.652-1.95l-.489-4.195c2.97-2.305 5.164-5.75 6.218-9.773 1.893-.168 3.347-2.273 3.347-4.93 0-2.454-1.233-4.44-2.921-4.863"/></g><g><path fill="none" stroke="#959996" stroke-linecap="round" stroke-linejoin="round" stroke-miterlimit="20" stroke-width="3" d="M18.791 24.123c-1.64.469-2.83 2.425-2.83 4.836 0 2.654 1.446 4.757 3.336 4.93 1.06 4.019 3.255 7.465 6.222 9.773l-.485 4.195a2.31 2.31 0 0 1-1.649 1.95L12.82 52.874c-1.37.302-2.769 1.034-4.144 2.168a12.205 12.205 0 0 0-4.197 7.013L1.999 81.5v0h53.45v0"/></g></g><g><path fill="none" stroke="#959996" stroke-linecap="round" stroke-linejoin="round" stroke-miterlimit="20" stroke-width="3" d="M20.615 14.994c-2.234 3.273-1.824 9.129-1.824 9.129"/></g><g><path fill="none" stroke="#959996" stroke-linecap="round" stroke-linejoin="round" stroke-miterlimit="20" stroke-width="3" d="M48.707 24.096s.167-3.345-.957-7.117"/></g><g><path fill="none" stroke="#959996" stroke-linecap="round" stroke-linejoin="round" stroke-miterlimit="20" stroke-width="3" d="M42.441 46.874v0l-8.647 7.743v0l-8.647-7.743v0"/></g><g><path fill="none" stroke="#959996" stroke-linecap="round" stroke-linejoin="round" stroke-miterlimit="20" stroke-width="3" d="M20.615 14.995C20.674 8.35 26.276 4.56 31.511 3.87c1.288-.17 5.586-.672 8.535-1.87l.026.042c.386.614.452 1.377.177 2.05v0c3.166.85 5.767.457 8.467-.674.032 1.929.088 5.81-.69 7.577-.777 1.766-2.212 3.311-4.058 3.875-1.186.362-2.46.304-3.688.141-2.475-.327-4.877-1.064-7.329-1.536-2.451-.473-5.027-.675-7.414.059"/></g><g><path fill="#6cb33f" d="M44.976 8.107c-3.287.314-6.241-.667-5.669-.513-3.7-.994-9.302-.403-12.307 1.944 9.254-1.104 17.254 5.912 17.976-1.43z"/></g><g><path fill="none" stroke="#959996" stroke-linecap="round" stroke-linejoin="round" stroke-miterlimit="20" stroke-width="3" d="M53.197 69.11c0-6.845 5.548-12.393 12.392-12.393 6.844 0 12.392 5.548 12.392 12.392 0 6.844-5.548 12.392-12.392 12.392-6.844 0-12.392-5.548-12.392-12.392z"/></g><g><g><path fill="none" stroke="#6cb33f" stroke-linecap="round" stroke-linejoin="round" stroke-miterlimit="20" stroke-width="3" d="M60.275 69.756v0l4.236 3.777v0l6.855-8.384v0"/></g></g><g><path fill="#008752" d="M13.716 56.391l-.116.025c-.794.175-1.699.668-2.615 1.424a8.57 8.57 0 0 0-2.924 4.809L6.119 77.874h37.992c-.155-.075-.31-.154-.467-.226-5.89-2.699-12.429-3.577-18.869-4.278-2.086-.228-4.238-.46-6.073-1.476-1.836-1.016-3.288-3.039-2.964-5.111.222-1.42 1.2-2.584 2.096-3.707a52.276 52.276 0 0 0 6.077-9.644l-10.08 2.925z"/></g></g></g></svg>