<svg xmlns="http://www.w3.org/2000/svg" width="79" height="78" viewBox="0 0 79 78"><g><g><g><path fill="none" stroke="#959996" stroke-linecap="round" stroke-linejoin="round" stroke-miterlimit="20" stroke-width="3" d="M39.346 2v0L2 22.706v0h74.692v0z"/></g><g><path fill="#4eab09" d="M15.867 19.12L39.345 6.101l23.48 13.017-11.888-3.426a41.865 41.865 0 0 0-23.182 0z"/></g><g><path fill="none" stroke="#959996" stroke-linecap="round" stroke-linejoin="round" stroke-miterlimit="20" stroke-width="3" d="M71.313 22.706v4.667H7.379v0-4.667 0"/></g><g><path fill="none" stroke="#959996" stroke-linecap="round" stroke-linejoin="round" stroke-miterlimit="20" stroke-width="3" d="M48.25 60.87v0H7.38v5.934"/></g><g><path fill="none" stroke="#959996" stroke-linecap="round" stroke-linejoin="round" stroke-miterlimit="20" stroke-width="3" d="M19.218 31.354a2.033 2.033 0 1 1-4.066 0h-3.707a2.033 2.033 0 0 1-4.066 0v-3.981 0h11.839v0z"/></g><g><path fill="none" stroke="#959996" stroke-linecap="round" stroke-linejoin="round" stroke-miterlimit="20" stroke-width="3" d="M19.218 56.887a2.033 2.033 0 1 0-4.066 0h-3.707a2.033 2.033 0 0 0-4.066 0v3.983h11.839v0z"/></g><g><path fill="none" stroke="#959996" stroke-linecap="round" stroke-linejoin="round" stroke-miterlimit="20" stroke-width="3" d="M45.265 56.887a2.033 2.033 0 1 0-4.065 0h-3.708a2.033 2.033 0 1 0-4.066 0v3.983h11.839v0z"/></g><g><path fill="none" stroke="#959996" stroke-linecap="round" stroke-linejoin="round" stroke-miterlimit="20" stroke-width="3" d="M45.265 31.354a2.033 2.033 0 1 1-4.065 0h-3.708a2.033 2.033 0 1 1-4.066 0v-3.981 0h11.839v0z"/></g><g><path fill="none" stroke="#959996" stroke-linecap="round" stroke-linejoin="round" stroke-miterlimit="20" stroke-width="3" d="M71.313 31.354a2.033 2.033 0 1 1-4.066 0h-3.708a2.033 2.033 0 0 1-4.066 0v-3.981 0h11.84v0z"/></g><g><g><path fill="none" stroke="#959996" stroke-linecap="round" stroke-linejoin="round" stroke-miterlimit="20" stroke-width="3" d="M9.412 33.387v21.468"/></g><g><path fill="none" stroke="#959996" stroke-linecap="round" stroke-linejoin="round" stroke-miterlimit="20" stroke-width="3" d="M17.185 33.387v21.468"/></g></g><g><path fill="none" stroke="#959996" stroke-linecap="round" stroke-linejoin="round" stroke-miterlimit="20" stroke-width="3" d="M35.459 33.387v21.468"/></g><g><path fill="none" stroke="#959996" stroke-linecap="round" stroke-linejoin="round" stroke-miterlimit="20" stroke-width="3" d="M43.233 33.387v21.468"/></g><g><path fill="none" stroke="#959996" stroke-linecap="round" stroke-linejoin="round" stroke-miterlimit="20" stroke-width="3" d="M61.506 33.387v13.078"/></g><g><path fill="none" stroke="#959996" stroke-linecap="round" stroke-linejoin="round" stroke-miterlimit="20" stroke-width="3" d="M69.28 33.387V47.14"/></g><g><path fill="none" stroke="#959996" stroke-linecap="round" stroke-linejoin="round" stroke-miterlimit="20" stroke-width="3" d="M50.975 71.88v0H2v0-.104a4.972 4.972 0 0 1 4.972-4.972H48.25v0"/></g><g><g><path fill="none" stroke="#008752" stroke-linecap="round" stroke-linejoin="round" stroke-miterlimit="20" stroke-width="3" d="M61.363 68.657L67.75 57.03"/></g><g><path fill="none" stroke="#008752" stroke-linecap="round" stroke-linejoin="round" stroke-miterlimit="20" stroke-width="3" d="M68.904 68.657a2 2 0 0 1-2-2V65.09a2 2 0 0 1 2-2h.136a2 2 0 0 1 2 2v1.567a2 2 0 0 1-2 2z"/></g><g><path fill="none" stroke="#008752" stroke-linecap="round" stroke-linejoin="round" stroke-miterlimit="20" stroke-width="3" d="M60.284 62.597v0a2.068 2.068 0 0 1-2.068-2.068v-1.431c0-1.142.926-2.068 2.068-2.068v0c1.142 0 2.067.926 2.067 2.068v1.431a2.067 2.067 0 0 1-2.067 2.068z"/></g></g><g><path fill="none" stroke="#959996" stroke-linecap="round" stroke-linejoin="round" stroke-miterlimit="20" stroke-width="3" d="M61.716 75.299c-6.879-1.608-11.152-8.489-9.543-15.368 1.608-6.878 8.488-11.151 15.367-9.543 6.879 1.609 11.152 8.489 9.543 15.368-1.608 6.879-8.488 11.151-15.367 9.543z"/></g></g></g></svg>