<svg xmlns="http://www.w3.org/2000/svg" width="23" height="26" viewBox="0 0 23 26"><g><g><path fill="#008752" d="M19.81 14.857a8.66 8.66 0 0 0-8.667-8.667 8.66 8.66 0 0 0-8.666 8.667 8.66 8.66 0 0 0 8.666 8.667 8.66 8.66 0 0 0 8.667-8.667zm.037-6.946a11.097 11.097 0 0 1 2.44 6.946C22.286 21.01 17.308 26 11.142 26 4.978 26 0 21.01 0 14.857 0 8.704 4.99 3.714 11.143 3.714c2.625 0 5.04.916 6.958 2.452l1.759-1.758a13.68 13.68 0 0 1 1.745 1.745l-1.758 1.758zm-9.942.756h2.476v7.428H9.905zm4.953-6.19H7.429V0h7.429z"/></g></g></svg>