<svg class="svg svg--tooltip" preserveAspectRatio="none" xmlns="http://www.w3.org/2000/svg" width="289" height="158" viewBox="0 0 289 158"><defs><clipPath id="6waka"><path fill="#fff" d="M11.648 0h272.568c2.573 0 4.659 2.296 4.659 5.129v147.453c0 2.833-2.086 5.129-4.66 5.129H11.649c-2.573 0-4.66-2.296-4.66-5.129v-59.51L0 83.642l6.989-9.578V5.129C6.989 2.296 9.075 0 11.649 0z"/></clipPath></defs><g><g><path fill="#fafafa" d="M11.648 0h272.568c2.573 0 4.659 2.296 4.659 5.129v147.453c0 2.833-2.086 5.129-4.66 5.129H11.649c-2.573 0-4.66-2.296-4.66-5.129v-59.51L0 83.642l6.989-9.578V5.129C6.989 2.296 9.075 0 11.649 0z"/><path fill="none" stroke="#afb2b0" stroke-miterlimit="20" stroke-width="1" d="M11.648 0v0h272.568c2.573 0 4.659 2.296 4.659 5.129v147.453c0 2.833-2.086 5.129-4.66 5.129H11.649c-2.573 0-4.66-2.296-4.66-5.129v-59.51 0L0 83.642v0l6.989-9.578v0V5.129C6.989 2.296 9.075 0 11.649 0z" clip-path="url(&quot;#6waka&quot;)"/></g></g></svg>