<svg class="svg svg--tooltip svg--tooltipArrowTopLeft" preserveAspectRatio="none" xmlns="http://www.w3.org/2000/svg" width="284" height="141" viewBox="0 0 284 141"><defs><clipPath id="8rwya"><path fill="#fff" d="M11.453 0h267.992a4.575 4.575 0 0 1 4.58 4.57v131.376a4.575 4.575 0 0 1-4.58 4.57H11.453a4.575 4.575 0 0 1-4.581-4.57V53.461L0 45.057l6.872-8.534V4.57A4.575 4.575 0 0 1 11.452 0z"/></clipPath></defs><g><g><path fill="#fafafa" d="M11.453 0h267.992a4.575 4.575 0 0 1 4.58 4.57v131.376a4.575 4.575 0 0 1-4.58 4.57H11.453a4.575 4.575 0 0 1-4.581-4.57V53.461L0 45.057l6.872-8.534V4.57A4.575 4.575 0 0 1 11.452 0z"/><path fill="none" stroke="#afb2b0" stroke-miterlimit="20" stroke-width="1" d="M11.453 0h267.992a4.575 4.575 0 0 1 4.58 4.57v131.376a4.575 4.575 0 0 1-4.58 4.57H11.453a4.575 4.575 0 0 1-4.581-4.57V53.461v0L0 45.057v0l6.872-8.534v0V4.57A4.575 4.575 0 0 1 11.452 0z" clip-path="url(&quot;#8rwya&quot;)"/></g></g></svg>